<svg width="53" height="53" viewBox="0 0 53 53" fill="none" xmlns="http://www.w3.org/2000/svg">
<path d="M24.8865 38.9818C24.4892 38.6902 23.9301 38.7753 23.6382 39.1728L23.5279 39.3229C23.2362 39.7201 23.3211 40.2784 23.7179 40.5706C23.8773 40.6882 24.063 40.7449 24.2469 40.7449C24.5206 40.7449 24.7908 40.6194 24.9658 40.3824L25.0777 40.2302C25.3696 39.8327 25.284 39.2737 24.8865 38.9818Z" fill="#7F7F7F"/>
<path d="M25.1202 47.4768L22.8234 43.3004L24.9679 40.3798C25.2599 39.9823 25.1742 39.4233 24.7766 39.1314C24.3791 38.8393 23.8201 38.925 23.5283 39.3227L21.0463 42.703C20.8405 42.9832 20.8161 43.3573 20.9836 43.6619L23.5553 48.3376V48.3375C23.718 48.633 24.0235 48.8003 24.3387 48.8003C24.4842 48.8002 24.6318 48.7646 24.7682 48.6896C25.2003 48.452 25.3579 47.909 25.1202 47.4768Z" fill="#7F7F7F"/>
<path d="M31.7757 42.7037L29.3039 39.3371C29.0989 39.0581 28.7515 38.9224 28.4117 38.9897C28.0719 39.0564 27.8015 39.3137 27.7176 39.6495C27.6531 39.9074 27.7068 40.1804 27.8642 40.3947L29.9981 43.3011L27.7169 47.4492C27.6445 47.5809 27.6064 47.7295 27.6064 47.88C27.6064 48.2876 27.8825 48.6435 28.2773 48.7449C28.3513 48.764 28.4259 48.7732 28.4996 48.7732C28.8193 48.7732 29.1223 48.6007 29.2821 48.3105L31.8384 43.6628C32.006 43.358 31.9815 42.9839 31.7757 42.7037Z" fill="#7F7F7F"/>
<path d="M33.1913 28.6689C32.8975 28.5146 32.5424 28.5357 32.2691 28.7241C31.7379 29.09 31.245 29.4777 30.8041 29.8762C28.4007 32.0489 26.1173 31.7549 26.0279 31.7421C25.974 31.7337 25.9192 31.7297 25.8651 31.7315C24.9152 31.7558 23.2026 30.8879 21.3909 29.465C21.1138 29.2474 20.8297 29.0401 20.546 28.8486C20.2724 28.6637 19.9188 28.645 19.6273 28.8001C19.3356 28.9551 19.1533 29.2584 19.1533 29.5887V32.6524C19.1533 32.9233 19.2766 33.1793 19.4879 33.3489C19.5129 33.3691 19.5389 33.3876 19.5657 33.4048L25.8982 37.6363C25.8992 37.6369 25.9001 37.6377 25.9012 37.6384L25.9179 37.6496C26.067 37.7482 26.2387 37.798 26.4111 37.798C26.5562 37.798 26.7012 37.7628 26.8338 37.692C26.8618 37.677 26.8886 37.6606 26.9144 37.6431C26.9174 37.6411 26.9204 37.6391 26.9234 37.6371C26.927 37.6348 26.9305 37.6324 26.934 37.6301L33.2515 33.4086C33.2769 33.3925 33.3016 33.3752 33.3255 33.3566C33.5422 33.1874 33.6689 32.9277 33.6689 32.6527V29.4596C33.6689 29.1276 33.4851 28.8233 33.1913 28.6689ZM31.8827 32.1747L26.411 35.8309L20.9395 32.1746V31.3624C22.2717 32.3306 24.2316 33.5181 25.8292 33.518C25.8325 33.518 25.8362 33.518 25.8396 33.518C26.3759 33.5774 29.1112 33.7386 31.8829 31.3072V32.1747H31.8827Z" fill="#7F7F7F"/>
<path d="M27.2916 36.7579C27.2327 36.4037 26.9672 36.1193 26.6179 36.0359C26.2684 35.9531 25.9034 36.0867 25.6909 36.3762L23.6381 39.1721C23.3462 39.5697 23.4318 40.1287 23.8295 40.4205C23.9887 40.5375 24.1738 40.5939 24.3573 40.5939C24.632 40.5939 24.9029 40.4675 25.078 40.2291L27.12 37.4479C27.2362 37.296 27.3039 37.107 27.3039 36.905C27.3038 36.8559 27.2996 36.8064 27.2916 36.7579Z" fill="#7F7F7F"/>
<path d="M40.0169 7.9678C39.9992 7.8279 39.5808 4.80862 36.7388 3.61755C36.8213 3.08727 36.8127 2.40575 36.476 1.7427C36.0235 0.851541 35.1306 0.270813 33.822 0.0164036C33.7658 0.00546786 33.7089 0 33.6516 0H21.665C16.7978 0 12.8379 3.95976 12.8379 8.82718V13.5307C12.8379 14.7561 13.2556 15.9511 14.0139 16.8953C14.3898 17.3634 14.8528 18.181 14.9227 19.4172C14.9499 19.8998 15.3539 20.2727 15.8395 20.2593C16.3228 20.2457 16.7074 19.85 16.7074 19.3666V13.2344C17.3138 10.7265 19.3834 10.2384 19.7392 10.1725H23.6165C24.0726 10.1725 24.521 10.1028 24.9497 9.96542C25.6869 9.72896 26.8565 9.2938 27.7081 8.97037C28.2778 8.75383 28.9085 8.74588 29.4839 8.94809L33.6347 10.4052C35.7098 11.1707 36.0802 12.9924 36.1261 13.2786V20.6383C36.1261 21.1057 36.4865 21.4935 36.9526 21.5283C36.9753 21.5299 36.9975 21.5309 37.0198 21.5309C37.4579 21.5308 37.8361 21.2098 37.9024 20.77C37.9059 20.747 38.2625 18.4436 39.4124 16.5994C39.8125 15.9574 40.0241 15.2254 40.0241 14.4826V8.08056C40.0241 8.0429 40.0217 8.00525 40.0169 7.9678ZM38.2378 14.4822C38.2378 14.8811 38.1253 15.2769 37.9121 15.6288V13.2176C37.9121 13.1853 37.9104 13.1532 37.9069 13.1211C37.8928 12.9914 37.5238 9.93086 34.2446 8.72628C34.2406 8.72484 34.2366 8.72339 34.2326 8.72195L30.0755 7.26255C29.6068 7.09799 29.1164 7.01587 28.6264 7.01587C28.0994 7.01587 27.5727 7.11089 27.0737 7.30072C25.8815 7.75362 24.9583 8.08695 24.4042 8.26461C24.1521 8.34539 23.8871 8.38645 23.6164 8.38645H19.667C19.6288 8.38645 19.5904 8.38892 19.5523 8.39377C19.4012 8.41337 15.8391 8.91992 14.9427 12.9378C14.9285 13.0016 14.9212 13.0668 14.9212 13.1322V14.9703C14.7268 14.5209 14.6238 14.03 14.6238 13.5308V8.82738C14.6238 4.945 17.7825 1.78634 21.6648 1.78634H33.5615C34.054 1.89126 34.6526 2.10657 34.8796 2.54461C35.1577 3.08077 34.8409 3.81904 34.8406 3.81966C34.7264 4.06261 34.7278 4.34395 34.8438 4.58588C34.96 4.8278 35.1789 5.00463 35.4399 5.06746C37.7135 5.61476 38.1773 7.7954 38.2377 8.14813V14.4822H38.2378Z" fill="#7F7F7F"/>
<path d="M37.9066 13.1208C37.8926 12.9911 37.5236 9.93055 34.2444 8.72597C34.2404 8.72453 34.2363 8.72308 34.2323 8.72164L30.0752 7.26224C29.1023 6.92075 28.0364 6.93437 27.0734 7.3002C25.8812 7.75311 24.9579 8.08644 24.4038 8.2642C24.1518 8.34498 23.8867 8.38593 23.616 8.38593H19.6667C19.6284 8.38593 19.59 8.38841 19.552 8.39326C19.4008 8.41286 15.8388 8.91941 14.9424 12.9373C14.9281 13.0011 14.9209 13.0663 14.9209 13.1317V20.809C14.9209 20.8156 14.921 20.8222 14.9211 20.8288C14.927 21.0955 15.1157 27.3935 19.4673 30.2739L19.4898 30.2897C19.5084 30.3029 19.5271 30.3162 19.5466 30.3293C19.7947 30.4968 20.0439 30.6787 20.2875 30.87C21.5553 31.8654 23.9443 33.5183 25.829 33.5183C25.8325 33.5183 25.8358 33.5183 25.8394 33.5183C25.9417 33.5295 26.1244 33.5446 26.3722 33.5446C27.4403 33.5446 29.7191 33.2647 32.0015 31.2013C32.3846 30.8552 32.8153 30.5166 33.2823 30.1949L33.349 30.1482C33.3708 30.1328 33.3925 30.1174 33.415 30.1023C34.8666 29.1274 37.3806 26.6117 37.9084 20.7174C37.9107 20.691 37.912 20.6643 37.912 20.6376V13.2172C37.9119 13.1851 37.91 13.153 37.9066 13.1208ZM36.1256 20.5973C35.639 25.9168 33.3725 27.979 32.4191 28.6194C32.3852 28.6422 32.3518 28.6657 32.3184 28.6892L32.2689 28.7241C31.7376 29.09 31.2447 29.4777 30.8038 29.8762C28.4094 32.0409 26.1334 31.757 26.0218 31.7413C25.9699 31.7336 25.9173 31.7303 25.8648 31.7317C24.9149 31.7561 23.2023 30.8881 21.3906 29.4652C21.1135 29.2475 20.8294 29.0402 20.5461 28.849L20.5241 28.8335C20.5026 28.8183 20.4813 28.8031 20.4561 28.7864C16.9445 26.4621 16.7148 21.0231 16.707 20.7961V13.234C17.3156 10.7169 19.398 10.2344 19.7375 10.1721H23.6161C24.0722 10.1721 24.5207 10.1024 24.9494 9.96501C25.6866 9.72855 26.8563 9.29339 27.7077 8.96996C28.2774 8.75341 28.9082 8.74547 29.4835 8.94768L33.6344 10.4048C35.7095 11.1703 36.0798 12.992 36.1257 13.2782V20.5973H36.1256Z" fill="#7F7F7F"/>
<path d="M27.2092 36.5063C27.07 36.228 26.796 36.0422 26.486 36.0158C26.1765 35.9902 25.8746 36.1262 25.6904 36.3771L23.5512 39.2908C23.2595 39.6882 23.3447 40.2467 23.7418 40.5388C23.9011 40.656 24.0865 40.7126 24.2703 40.7126C24.5443 40.7126 24.8148 40.5869 24.9898 40.3493L27.1292 37.4464C27.2424 37.2929 27.3035 37.0966 27.3035 36.906C27.3036 36.7674 27.2711 36.6304 27.2092 36.5063Z" fill="#7F7F7F"/>
<path d="M27.267 50.8853C26.9315 50.5344 26.3772 50.5157 26.019 50.8435L25.8148 51.0302C25.5091 51.3097 25.4358 51.7628 25.6378 52.1245L25.6441 52.1357C25.7805 52.3802 26.0237 52.5465 26.3009 52.5849C26.342 52.5906 26.3831 52.5934 26.4239 52.5934C26.659 52.5934 26.8867 52.5004 27.0554 52.3318L27.2532 52.1338C27.5964 51.7905 27.6026 51.2359 27.267 50.8853Z" fill="#7F7F7F"/>
<path d="M27.0066 51.0301L26.8024 50.8434C26.4443 50.5157 25.8898 50.5344 25.5543 50.8852C25.2187 51.2362 25.2249 51.7909 25.5683 52.134L25.7663 52.332C25.935 52.5007 26.1626 52.5935 26.3977 52.5935C26.4397 52.5935 26.4819 52.5906 26.5241 52.5845C26.8022 52.5448 27.0455 52.3764 27.1808 52.13L27.1871 52.1187C27.3849 51.7577 27.3104 51.308 27.0066 51.0301Z" fill="#7F7F7F"/>
<path d="M27.0226 51.0436L27.0214 51.0426C26.8835 50.9136 26.7051 50.8286 26.5086 50.8071C26.2454 50.7784 25.989 50.8675 25.8026 51.0411L25.7999 51.0436C25.6194 51.2083 25.5143 51.4399 25.509 51.6842C25.5037 51.9287 25.5989 52.1644 25.7721 52.3367L25.7815 52.3461C25.9557 52.5193 26.1834 52.6059 26.4112 52.6059C26.6398 52.6059 26.8683 52.5186 27.0426 52.3445L27.052 52.3351C27.2245 52.1625 27.319 51.9269 27.3133 51.683C27.3079 51.4391 27.2028 51.2081 27.0226 51.0436Z" fill="#7F7F7F"/>
<path d="M26.7006 36.0412C26.3307 35.9227 25.9249 36.06 25.6996 36.3768C25.4477 36.7314 25.4893 37.2148 25.7962 37.5232C25.9689 37.6967 26.1981 37.7856 26.4291 37.7856C26.6085 37.7856 26.7889 37.732 26.9445 37.6224C27.1821 37.4552 27.3236 37.1828 27.3236 36.8921V36.8899C27.3236 36.5013 27.0708 36.1593 26.7006 36.0412Z" fill="#7F7F7F"/>
<path d="M27.1364 36.3695L27.1287 36.3592C26.8996 36.0491 26.4973 35.9214 26.1311 36.042C25.765 36.1626 25.5176 36.5047 25.5176 36.8901V36.9054C25.5176 37.2342 25.7021 37.5339 25.9918 37.6895C26.1231 37.7599 26.2679 37.7947 26.4126 37.7947C26.587 37.7947 26.7613 37.7441 26.9111 37.6449C27.1152 37.5098 27.255 37.2966 27.2976 37.0555C27.3402 36.8145 27.2819 36.5664 27.1364 36.3695Z" fill="#7F7F7F"/>
<path d="M37.0346 33.5642C36.9421 33.3196 36.747 33.1279 36.5008 33.0398L33.0766 31.8123C33.0489 31.8024 33.0201 31.7935 32.9914 31.7865C32.747 31.7253 32.488 31.7702 32.2786 31.9103L25.9341 36.1498C25.9324 36.151 25.9305 36.1521 25.9288 36.1534L26.427 36.8941L25.9176 36.1609C25.7315 36.284 25.5982 36.4727 25.5442 36.6891C25.5145 36.8079 25.5096 36.9321 25.5297 37.0529C25.5527 37.1909 25.6078 37.3217 25.6908 37.4347L30.3359 43.761C30.5047 43.9911 30.7725 44.1256 31.0556 44.1256C31.075 44.1256 31.0945 44.1249 31.114 44.1235C31.4182 44.1035 31.6913 43.93 31.8382 43.6627L36.9818 34.3108C37.108 34.0816 37.1273 33.8086 37.0346 33.5642ZM30.9475 41.576L27.6827 37.1295L32.897 33.6453L34.9122 34.3677L30.9475 41.576Z" fill="#7F7F7F"/>
<path d="M27.2912 36.7515C27.2492 36.5118 27.1112 36.2996 26.909 36.1639L20.5433 31.9102C20.3407 31.7746 20.0909 31.7282 19.8529 31.781C19.8164 31.7891 19.7805 31.7996 19.7453 31.8122L16.3211 33.0397C16.075 33.1279 15.8799 33.3196 15.7873 33.5641C15.6948 33.8087 15.714 34.0815 15.84 34.3107L20.9836 43.6626C21.1306 43.9298 21.4036 44.1034 21.7079 44.1234C21.7273 44.1247 21.7468 44.1253 21.7662 44.1253C22.0493 44.1253 22.317 43.9908 22.4861 43.7606L24.9681 40.3803C24.97 40.3777 24.972 40.375 24.9739 40.3722L27.1313 37.4339C27.2753 37.2377 27.3331 36.9913 27.2912 36.7515ZM23.5285 39.3229C23.5263 39.3258 23.5242 39.3286 23.5221 39.3315L21.8742 41.5759L17.9095 34.3675L19.9247 33.6452L25.1389 37.1294L23.5285 39.3229Z" fill="#7F7F7F"/>
<path d="M52.7772 48.8098L51.6252 41.8529C51.2621 39.6605 49.7384 37.8288 47.6487 37.073L36.5031 33.0406C36.1595 32.9164 35.7754 33.0138 35.5325 33.2863C35.2897 33.559 35.2372 33.9521 35.4002 34.279L37.7272 38.9457L35.4438 38.9808C35.1338 38.9857 34.8483 39.1508 34.69 39.4174C34.5315 39.6839 34.5226 40.0134 34.6665 40.2882L35.603 42.0764L26.0185 50.8442C26.0087 50.8532 25.9991 50.8623 25.9897 50.8717L25.7918 51.0695C25.5115 51.35 25.4495 51.7816 25.6399 52.1295L25.6469 52.1422C25.8036 52.4285 26.104 52.6066 26.4304 52.6066H49.5575C50.5183 52.6066 51.4255 52.1864 52.0467 51.4537C52.668 50.7211 52.9342 49.7573 52.7772 48.8098ZM50.6847 50.2986C50.4032 50.6304 49.9924 50.8206 49.5576 50.8206H28.6904L37.3163 42.93C37.6155 42.6565 37.6929 42.2159 37.5047 41.8567L36.922 40.7443L39.1737 40.7096C39.4806 40.705 39.7634 40.5429 39.923 40.2808C40.0824 40.0184 40.0961 39.6928 39.9592 39.4181L37.9952 35.4796L47.0415 38.7523C48.5246 39.2888 49.6059 40.5887 49.8635 42.1446L51.0155 49.1014C51.0155 49.1015 51.0155 49.1015 51.0155 49.1015C51.0865 49.5306 50.966 49.9668 50.6847 50.2986Z" fill="#7F7F7F"/>
<path d="M27.0296 51.0519L27.0192 51.0425C26.6658 50.7224 26.1229 50.7367 25.7866 51.0749L25.7773 51.0842C25.523 51.3401 25.4476 51.7239 25.586 52.0569C25.7246 52.39 26.05 52.607 26.4106 52.607H26.4302C26.7995 52.607 27.1308 52.3796 27.2634 52.0351C27.3964 51.6905 27.3035 51.2997 27.0296 51.0519Z" fill="#7F7F7F"/>
<path d="M27.0016 51.0252C26.7989 50.8426 26.524 50.7627 26.2547 50.8086C25.9857 50.8541 25.7524 51.0203 25.6211 51.2594L25.6149 51.2707C25.4267 51.6139 25.4839 52.0398 25.7562 52.3212L25.7594 52.3245C25.9344 52.5054 26.1675 52.5966 26.4013 52.5966C26.6164 52.5966 26.8321 52.5192 27.003 52.3631L27.0123 52.3547C27.0934 52.2808 27.1603 52.1923 27.2094 52.0941C27.3892 51.7347 27.3003 51.2938 27.0016 51.0252Z" fill="#7F7F7F"/>
<path d="M27.0403 51.0805L27.0366 51.0767C27.0342 51.0743 27.0317 51.0718 27.0295 51.0696L26.8314 50.8717C26.8221 50.8623 26.8125 50.8531 26.8028 50.8443L17.2183 42.0765L18.1549 40.2883C18.2989 40.0137 18.2899 39.684 18.1315 39.4175C17.9731 39.151 17.6877 38.9858 17.3777 38.981L15.0941 38.9458L17.4211 34.2791C17.5841 33.9523 17.5315 33.5591 17.2888 33.2864C17.046 33.0138 16.6614 32.9163 16.3182 33.0407L5.17271 37.0731C3.08296 37.8288 1.55918 39.6605 1.19614 41.853L0.044073 48.8099C-0.112844 49.7578 0.153533 50.7214 0.774805 51.454C1.39618 52.1865 2.30353 52.6067 3.26402 52.6067H26.4108C26.7725 52.6067 27.0984 52.3885 27.2362 52.0543C27.3742 51.72 27.2968 51.3354 27.0403 51.0805ZM3.26412 50.8207C2.82917 50.8207 2.41836 50.6305 2.13713 50.2987C1.85589 49.967 1.73539 49.5307 1.80637 49.1015L2.95844 42.1447C3.21605 40.5886 4.29734 39.2889 5.78037 38.7524L14.8266 35.4797L12.8627 39.418C12.7257 39.6927 12.7393 40.0183 12.8989 40.2807C13.0583 40.5429 13.3413 40.7049 13.6482 40.7095L15.8999 40.7443L15.3172 41.8567C15.1292 42.2158 15.2065 42.6565 15.5055 42.93L24.1314 50.8207H3.26412Z" fill="#7F7F7F"/>
<path d="M29.4504 40.0816C29.5149 39.8236 29.4611 39.5506 29.3038 39.3363L27.1305 36.3765C26.9021 36.0654 26.4993 35.9417 26.1326 36.062C25.9347 36.1269 25.7716 36.2579 25.663 36.4253L23.5294 39.3203C23.4989 39.3616 23.4718 39.4059 23.4488 39.4519C23.3026 39.7444 23.3278 40.0933 23.5146 40.3617L24.4232 41.6664L23.4553 47.7674C23.4242 47.9633 23.4593 48.1639 23.5548 48.3377L25.6283 52.1075C25.7852 52.393 26.0852 52.5702 26.4108 52.5702C26.7365 52.5702 27.0364 52.393 27.1933 52.1075L29.2822 48.3097C29.3547 48.1779 29.3927 48.0299 29.3927 47.8794V47.8789C29.3927 47.8321 29.3889 47.7852 29.3817 47.7389L28.4182 41.6665L29.317 40.3761C29.3787 40.2868 29.4242 40.1868 29.4504 40.0816ZM26.4108 49.8241L25.2672 47.745L26.2436 41.5912C26.2798 41.3632 26.2262 41.1303 26.0944 40.9409L25.346 39.8661L26.4134 38.4179L27.4863 39.8791L26.7469 40.9409C26.6151 41.1301 26.5616 41.3632 26.5977 41.5912L27.5697 47.7169L26.4108 49.8241Z" fill="#7F7F7F"/>
</svg>
