<svg width="26" height="12" viewBox="0 0 26 12" fill="none" xmlns="http://www.w3.org/2000/svg">
<path fill-rule="evenodd" clip-rule="evenodd" d="M10.6666 9.49984V11.8332H5.99996C2.7783 11.8332 0.166626 9.2215 0.166626 5.99984C0.166626 2.77818 2.7783 0.166504 5.99996 0.166504H10.6666V2.49984H5.99996C4.06696 2.49984 2.49996 4.06684 2.49996 5.99984C2.49996 7.93283 4.06696 9.49984 5.99996 9.49984H10.6666ZM15.3333 2.49984V0.166504H20C23.2216 0.166504 25.8333 2.77818 25.8333 5.99984C25.8333 9.2215 23.2216 11.8332 20 11.8332H15.3333V9.49984H20C21.933 9.49984 23.5 7.93283 23.5 5.99984C23.5 4.06684 21.933 2.49984 20 2.49984H15.3333ZM7.16663 4.83317V7.1665H18.8333V4.83317H7.16663Z" fill="#112C45"/>
</svg>
