<svg width="20" height="20" viewBox="0 0 20 20" fill="none" xmlns="http://www.w3.org/2000/svg">
<g clip-path="url(#clip0)">
<path d="M10.0008 10.7656C9.42661 10.7656 8.96094 11.2311 8.96094 11.8055C8.96094 12.1906 9.17087 12.526 9.48208 12.7059V13.8619H10.5196V12.7059C10.8308 12.5261 11.0407 12.1906 11.0407 11.8055C11.0407 11.2311 10.5751 10.7656 10.0008 10.7656Z" fill="#F9B84E"/>
<path d="M10.001 5.72363C9.12696 5.72363 8.41602 6.43464 8.41602 7.30866V8.99662H11.5859V7.30866C11.5859 6.43478 10.8749 5.72363 10.001 5.72363Z" fill="#F9B84E"/>
<path d="M9.99983 0.000976562C4.47714 0.000976562 0 4.47825 0 10.0009C0 15.5235 4.47714 20.0009 9.99983 20.0009C15.5225 20.0009 20 15.5234 20 10.0009C20 4.47825 15.5225 0.000976562 9.99983 0.000976562ZM13.0726 15.1424H6.92758C6.27864 15.1424 5.7525 14.6162 5.7525 13.9671V10.1724C5.7525 9.60633 6.15297 9.13359 6.68605 9.02239V7.30923C6.68605 5.48193 8.17274 3.99511 10.0002 3.99511C11.8275 3.99511 13.3142 5.4818 13.3142 7.30923V9.02239C13.847 9.13393 14.2475 9.60633 14.2475 10.1724V13.9671C14.2475 14.6161 13.7215 15.1424 13.0726 15.1424Z" fill="#F9B84E"/>
</g>
<defs>
<clipPath id="clip0">
<rect width="20" height="20" fill="white"/>
</clipPath>
</defs>
</svg>
