<svg width="14" height="14" viewBox="0 0 14 14" fill="none" xmlns="http://www.w3.org/2000/svg">
<g clip-path="url(#clip0)">
<path d="M12.2909 1.67285H1.71198C0.767639 1.67285 0 2.44049 0 3.38483V10.6151C0 11.5595 0.767639 12.3271 1.71198 12.3271H12.288C13.2324 12.3271 14 11.5595 14 10.6151V3.38773C14.0029 2.44339 13.2353 1.67285 12.2909 1.67285ZM13.2208 10.6151C13.2208 11.1278 12.8036 11.545 12.2909 11.545H1.71198C1.19926 11.545 0.782123 11.1278 0.782123 10.6151V3.38773C0.782123 2.875 1.19926 2.45787 1.71198 2.45787H12.288C12.8007 2.45787 13.2179 2.875 13.2179 3.38773V10.6151H13.2208Z" fill="black"/>
<path d="M8.82952 6.91035L12.2535 3.8398C12.4128 3.69496 12.4273 3.44874 12.2825 3.28652C12.1376 3.1272 11.8914 3.11271 11.7292 3.25755L7.00747 7.4955L6.0863 6.67282C6.0834 6.66992 6.08051 6.66703 6.08051 6.66413C6.06023 6.64385 6.03995 6.62647 6.01678 6.60909L2.26838 3.25465C2.10616 3.10982 1.85994 3.1243 1.7151 3.28652C1.57027 3.44874 1.58475 3.69496 1.74697 3.8398L5.21148 6.93643L1.76145 10.1663C1.60503 10.314 1.59634 10.5603 1.74407 10.7196C1.82228 10.8007 1.92657 10.8441 2.03085 10.8441C2.12644 10.8441 2.22203 10.8094 2.29735 10.7399L5.79952 7.46363L6.74966 8.31238C6.82497 8.37901 6.91767 8.41087 7.01037 8.41087C7.10306 8.41087 7.19865 8.37611 7.27107 8.30949L8.24728 7.43467L11.7292 10.7428C11.8045 10.8152 11.903 10.8499 11.9986 10.8499C12.1029 10.8499 12.2042 10.8094 12.2825 10.7283C12.4302 10.5718 12.4244 10.3227 12.268 10.175L8.82952 6.91035Z" fill="black"/>
</g>
<defs>
<clipPath id="clip0">
<rect width="14" height="14" fill="white"/>
</clipPath>
</defs>
</svg>
