<svg width="55" height="55" viewBox="0 0 55 55" fill="none" xmlns="http://www.w3.org/2000/svg">
<g id="55 / basic / camera / main">
<path id="icon" fill-rule="evenodd" clip-rule="evenodd" d="M15.8973 13.3957C16.0597 13.1699 16.24 12.8936 16.47 12.521C16.554 12.3849 16.7831 12.0069 16.9537 11.7255C17.0447 11.5753 17.1191 11.4526 17.1458 11.4089C19.0456 8.3013 20.4265 6.875 22.9167 6.875H32.0833C34.5735 6.875 35.9545 8.3013 37.8542 11.4089C37.8806 11.452 37.9533 11.572 38.0427 11.7195L38.0459 11.7248L38.0465 11.7258C38.2171 12.0072 38.446 12.3849 38.53 12.521C38.76 12.8936 38.9403 13.1699 39.1027 13.3957C39.2097 13.5445 39.3033 13.6628 39.3796 13.75H45.8333C49.6303 13.75 52.7083 16.828 52.7083 20.625V41.25C52.7083 45.047 49.6303 48.125 45.8333 48.125H9.16667C5.36971 48.125 2.29167 45.047 2.29167 41.25V20.625C2.29167 16.828 5.36971 13.75 9.16667 13.75H15.6205C15.6968 13.6628 15.7903 13.5445 15.8973 13.3957ZM9.16667 18.3333C7.90102 18.3333 6.875 19.3593 6.875 20.625V41.25C6.875 42.5157 7.90102 43.5417 9.16667 43.5417H45.8333C47.099 43.5417 48.125 42.5157 48.125 41.25V20.625C48.125 19.3593 47.099 18.3333 45.8333 18.3333H38.9583C37.4359 18.3333 36.4092 17.5001 35.3819 16.072C35.1456 15.7435 34.9114 15.3847 34.6297 14.9281C34.5332 14.7718 34.2829 14.3588 34.1109 14.075L34.1106 14.0745L34.1103 14.074C34.0289 13.9397 33.9651 13.8344 33.9437 13.7995C32.9072 12.1039 32.2821 11.4583 32.0833 11.4583H22.9167C22.7179 11.4583 22.0928 12.1039 21.0563 13.7995C21.035 13.8343 20.9715 13.939 20.8904 14.0728L20.8895 14.0744L20.8888 14.0756C20.7168 14.3593 20.4667 14.7719 20.3703 14.9281C20.0886 15.3847 19.8544 15.7435 19.6181 16.072C18.5909 17.5001 17.5641 18.3333 16.0417 18.3333H9.16667ZM45.8333 22.9167C45.8333 24.1823 44.8073 25.2083 43.5417 25.2083C42.276 25.2083 41.25 24.1823 41.25 22.9167C41.25 21.651 42.276 20.625 43.5417 20.625C44.8073 20.625 45.8333 21.651 45.8333 22.9167ZM16.0417 29.7917C16.0417 36.1199 21.1717 41.25 27.5 41.25C33.8283 41.25 38.9583 36.1199 38.9583 29.7917C38.9583 23.4634 33.8283 18.3333 27.5 18.3333C21.1717 18.3333 16.0417 23.4634 16.0417 29.7917ZM34.375 29.7917C34.375 33.5886 31.297 36.6667 27.5 36.6667C23.703 36.6667 20.625 33.5886 20.625 29.7917C20.625 25.9947 23.703 22.9167 27.5 22.9167C31.297 22.9167 34.375 25.9947 34.375 29.7917Z" fill="#112C45"/>
</g>
</svg>
