<svg width="16" height="16" viewBox="0 0 16 16" fill="none" xmlns="http://www.w3.org/2000/svg">
<path fill-rule="evenodd" clip-rule="evenodd" d="M10.9582 1.33331C11.3947 1.33331 11.8132 1.50759 12.1187 1.81559L14.186 3.88286C14.4938 4.19065 14.6667 4.60809 14.6667 5.04337C14.6667 5.47864 14.4938 5.89609 14.186 6.20387L6.63835 13.7491C6.17269 14.2863 5.51261 14.6163 4.75641 14.6682H1.33334V14.0015L1.33551 11.1915C1.3923 10.4885 1.71912 9.83487 2.21767 9.39559L9.79694 1.8164C10.1043 1.5072 10.5222 1.33331 10.9582 1.33331ZM4.70933 13.3365C5.06548 13.3113 5.397 13.1456 5.66321 12.8411L10.7045 7.79979L8.20156 5.29677L3.13075 10.3664C2.86064 10.6053 2.69355 10.9395 2.66668 11.2452V13.3353L4.70933 13.3365ZM9.14448 4.35408L11.6473 6.85698L13.2432 5.26106C13.3009 5.20332 13.3334 5.12502 13.3334 5.04337C13.3334 4.96171 13.3009 4.88341 13.2432 4.82567L11.1741 2.75655C11.117 2.69901 11.0393 2.66665 10.9582 2.66665C10.8772 2.66665 10.7995 2.69901 10.7424 2.75655L9.14448 4.35408Z" fill="#7F7F7F"/>
</svg>
