<svg width="16" height="17" viewBox="0 0 16 17" fill="none" xmlns="http://www.w3.org/2000/svg">
<path fill-rule="evenodd" clip-rule="evenodd" d="M11.5498 0C12.0736 0 12.5757 0.209135 12.9425 0.578737L15.4232 3.05945C15.7925 3.42879 16 3.92972 16 4.45205C16 4.97438 15.7925 5.47531 15.4232 5.84465L6.36599 14.899C5.8072 15.5436 5.01511 15.9396 4.10767 16.0018H0V15.2018L0.00259811 11.8298C0.0707504 10.9862 0.462932 10.2018 1.06119 9.67471L10.1563 0.579701C10.5251 0.208663 11.0267 0 11.5498 0ZM4.05113 14.4038C4.47851 14.3736 4.87634 14.1747 5.19578 13.8093L11.2454 7.75964L8.24191 4.75603L2.15683 10.8396C1.83271 11.1263 1.6322 11.5274 1.59995 11.8942V14.4023L4.05113 14.4038ZM9.37341 3.6248L12.3768 6.62827L14.2918 4.71328C14.361 4.644 14.4 4.55003 14.4 4.45205C14.4 4.35407 14.361 4.2601 14.2918 4.19082L11.8088 1.70788C11.7403 1.63883 11.6471 1.59999 11.5498 1.59999C11.4525 1.59999 11.3593 1.63883 11.2908 1.70788L9.37341 3.6248Z" fill="#112C45"/>
</svg>
