<svg width="101" height="103" viewBox="0 0 101 103" fill="none" xmlns="http://www.w3.org/2000/svg">
<path opacity="0.4" d="M50.4989 101.829C78.3887 101.829 100.998 79.0336 100.998 50.9144C100.998 22.7951 78.3887 0 50.4989 0C22.6091 0 0 22.7951 0 50.9144C0 79.0336 22.6091 101.829 50.4989 101.829Z" fill="#F9B84E" fill-opacity="0.5"/>
<path d="M91.9875 24.1833V91.4906C91.9858 92.9568 91.4073 94.3625 90.379 95.3993C89.3507 96.4361 87.9565 97.0193 86.5022 97.0211H68.9265C68.5157 97.0211 68.1217 96.8565 67.8312 96.5637C67.5408 96.2708 67.3776 95.8736 67.3776 95.4594C67.3776 95.0452 67.5408 94.648 67.8312 94.3552C68.1217 94.0623 68.5157 93.8978 68.9265 93.8978H86.5022C87.1352 93.8972 87.7422 93.6434 88.1898 93.1921C88.6374 92.7408 88.8891 92.1288 88.8897 91.4906V24.1833C88.8898 23.8162 88.8059 23.4539 88.6448 23.1247C88.4836 22.7955 88.2494 22.5081 87.9604 22.2848C87.7822 22.1659 87.6302 22.0112 87.5142 21.8303C87.3982 21.6494 87.3205 21.4463 87.2861 21.2337C87.2517 21.0211 87.2612 20.8036 87.3142 20.5949C87.3672 20.3862 87.4625 20.1908 87.594 20.021C87.7255 19.8512 87.8904 19.7107 88.0784 19.6083C88.2664 19.5059 88.4733 19.4438 88.6863 19.4259C88.8992 19.408 89.1135 19.4348 89.3157 19.5044C89.5179 19.5741 89.7036 19.6852 89.8611 19.8307C90.5225 20.3436 91.0582 21.0028 91.4269 21.7575C91.7955 22.5121 91.9874 23.3421 91.9875 24.1833ZM72.2943 35.9336C69.6302 35.5535 67.1915 34.2172 65.4258 32.1703C63.6601 30.1233 62.686 27.5029 62.6822 24.7901V11.5049C62.6822 11.0907 62.8454 10.6935 63.1358 10.4006C63.4263 10.1078 63.8203 9.94324 64.2311 9.94324H83.4531C83.8639 9.94324 84.2578 10.1078 84.5483 10.4006C84.8388 10.6935 85.002 11.0907 85.002 11.5049V24.7901C84.9987 27.5027 84.025 30.1231 82.2597 32.1701C80.4944 34.2171 78.056 35.5534 75.3921 35.9336V79.7179C75.3921 80.1321 75.2289 80.5293 74.9384 80.8222C74.6479 81.1151 74.254 81.2796 73.8432 81.2796C73.4324 81.2796 73.0384 81.1151 72.7479 80.8222C72.4575 80.5293 72.2943 80.1321 72.2943 79.7179V35.9336ZM73.8432 32.9174C75.9804 32.915 78.0293 32.058 79.5406 30.5344C81.0518 29.0107 81.9018 26.9449 81.9041 24.7901V13.0665H78.689V26.3116C78.689 26.7258 78.5259 27.123 78.2354 27.4159C77.9449 27.7087 77.5509 27.8733 77.1401 27.8733C76.7293 27.8733 76.3354 27.7087 76.0449 27.4159C75.7544 27.123 75.5912 26.7258 75.5912 26.3116V13.0665H72.104V26.3116C72.104 26.7258 71.9408 27.123 71.6503 27.4159C71.3598 27.7087 70.9659 27.8733 70.5551 27.8733C70.1443 27.8733 69.7503 27.7087 69.4598 27.4159C69.1693 27.123 69.0061 26.7258 69.0061 26.3116V13.0665H65.7844V24.7901C65.7873 26.9451 66.6379 29.0109 68.1494 30.5345C69.661 32.0581 71.7102 32.915 73.8476 32.9174H73.8432ZM42.4623 48.1547C42.8731 48.1547 43.267 47.9902 43.5575 47.6973C43.848 47.4044 44.0112 47.0072 44.0112 46.593V24.1833C44.0123 23.5454 44.2643 22.9341 44.7119 22.4833C45.1595 22.0324 45.7661 21.7789 46.3987 21.7783H58.5377C58.9485 21.7783 59.3425 21.6138 59.633 21.321C59.9235 21.0281 60.0866 20.6309 60.0866 20.2167C60.0866 19.8025 59.9235 19.4053 59.633 19.1124C59.3425 18.8196 58.9485 18.655 58.5377 18.655H46.3987C44.9446 18.6562 43.5504 19.239 42.522 20.2754C41.4937 21.3118 40.9151 22.7173 40.9133 24.1833V46.593C40.9133 47.0072 41.0765 47.4044 41.367 47.6973C41.6575 47.9902 42.0515 48.1547 42.4623 48.1547ZM19.7287 93.7795C19.7287 94.1937 19.5655 94.5909 19.275 94.8838C18.9845 95.1767 18.5906 95.3412 18.1798 95.3412C16.6925 95.34 15.2666 94.7433 14.2155 93.6824C13.1645 92.6214 12.5743 91.1831 12.5749 89.6835V46.593C12.5777 44.5967 13.2719 42.664 14.5376 41.1287C15.8034 39.5935 17.5612 38.5522 19.5074 38.1846V24.1298C19.2073 24.0209 18.9478 23.8212 18.7645 23.5581C18.5811 23.295 18.4828 22.9812 18.4829 22.6596V11.351C18.4829 10.9368 18.6461 10.5396 18.9366 10.2467C19.2271 9.95384 19.621 9.78931 20.0318 9.78931H29.7479C30.1587 9.78931 30.5527 9.95384 30.8432 10.2467C31.1336 10.5396 31.2968 10.9368 31.2968 11.351V22.6529C31.297 22.9745 31.1987 23.2883 31.0153 23.5514C30.8319 23.8145 30.5725 24.0142 30.2723 24.1231V38.1779C32.2186 38.5455 33.9764 39.5868 35.2421 41.122C36.5078 42.6573 37.2021 44.59 37.2048 46.5863C37.2048 47.0005 37.0416 47.3977 36.7512 47.6906C36.4607 47.9835 36.0667 48.148 35.6559 48.148C35.2451 48.148 34.8511 47.9835 34.5607 47.6906C34.2702 47.3977 34.107 47.0005 34.107 46.5863C34.1052 45.1473 33.5375 43.7678 32.5282 42.7502C31.519 41.7327 30.1507 41.1602 28.7234 41.1585C28.3126 41.1585 27.9187 40.9939 27.6282 40.7011C27.3377 40.4082 27.1745 40.011 27.1745 39.5968V24.2034H22.6052V39.5968C22.6052 40.011 22.442 40.4082 22.1516 40.7011C21.8611 40.9939 21.4671 41.1585 21.0563 41.1585C19.6291 41.1602 18.2607 41.7327 17.2515 42.7502C16.2423 43.7678 15.6745 45.1473 15.6728 46.5863V89.6835C15.6733 90.3535 15.9377 90.9959 16.4078 91.4694C16.8779 91.943 17.5153 92.209 18.1798 92.209C18.3839 92.209 18.5861 92.2496 18.7746 92.3287C18.9631 92.4077 19.1342 92.5235 19.2782 92.6695C19.4221 92.8155 19.536 92.9887 19.6133 93.1792C19.6907 93.3697 19.7299 93.5737 19.7287 93.7795ZM21.5807 21.0912H28.199V12.9126H21.5807V21.0912ZM83.2274 77.226H82.8202C82.4094 77.226 82.0154 77.3905 81.725 77.6834C81.4345 77.9763 81.2713 78.3735 81.2713 78.7877C81.2713 79.2018 81.4345 79.599 81.725 79.8919C82.0154 80.1848 82.4094 80.3493 82.8202 80.3493H83.2274C83.6382 80.3493 84.0321 80.1848 84.3226 79.8919C84.6131 79.599 84.7763 79.2018 84.7763 78.7877C84.7763 78.3735 84.6131 77.9763 84.3226 77.6834C84.0321 77.3905 83.6382 77.226 83.2274 77.226ZM65.4414 62.4394V65.759C65.4414 66.1732 65.2783 66.5704 64.9878 66.8632C64.6973 67.1561 64.3033 67.3206 63.8925 67.3206H63.284V95.339C63.2817 97.3701 62.4804 99.3173 61.0559 100.754C59.6314 102.19 57.7001 102.998 55.6855 103H30.1971C28.183 102.997 26.2522 102.189 24.8282 100.753C23.4042 99.3166 22.6032 97.3697 22.6008 95.339V67.3206H21.9989C21.5882 67.3206 21.1942 67.1561 20.9037 66.8632C20.6132 66.5704 20.45 66.1732 20.45 65.759V62.4394C20.4499 62.1362 20.5373 61.8396 20.7015 61.5856C20.8658 61.3317 21.0998 61.1315 21.375 61.0093L28.6482 57.7812V52.476C28.6482 52.0618 28.8114 51.6646 29.1019 51.3717C29.3923 51.0789 29.7863 50.9144 30.1971 50.9144H55.6944C56.1052 50.9144 56.4991 51.0789 56.7896 51.3717C57.0801 51.6646 57.2433 52.0618 57.2433 52.476V57.7812L64.5165 61.0116C64.7914 61.1335 65.0251 61.3334 65.1894 61.5869C65.3536 61.8404 65.4412 62.1366 65.4414 62.4394ZM31.746 57.5581H54.1455V54.0377H31.746V57.5581ZM60.1862 67.3206H25.6986V95.339C25.6998 96.5417 26.174 97.6948 27.0174 98.5455C27.8607 99.3962 29.0042 99.8749 30.1971 99.8767H55.6944C56.8861 99.8731 58.028 99.3936 58.8698 98.5432C59.7117 97.6927 60.185 96.5405 60.1862 95.339V94.7433H30.2104C29.7996 94.7433 29.4056 94.5788 29.1151 94.2859C28.8247 93.993 28.6615 93.5958 28.6615 93.1816C28.6615 92.7675 28.8247 92.3702 29.1151 92.0774C29.4056 91.7845 29.7996 91.62 30.2104 91.62H60.1862V74.7028H30.2104C29.7996 74.7028 29.4056 74.5383 29.1151 74.2454C28.8247 73.9525 28.6615 73.5553 28.6615 73.1412C28.6615 72.727 28.8247 72.3298 29.1151 72.0369C29.4056 71.744 29.7996 71.5795 30.2104 71.5795H60.1862V67.3206ZM62.3348 63.4567L56.0927 60.6814H29.7988L23.5479 63.4589V64.1996H62.3436L62.3348 63.4567ZM74.0423 85.2596H73.6352C73.2244 85.2596 72.8304 85.4241 72.5399 85.717C72.2495 86.0099 72.0863 86.4071 72.0863 86.8213C72.0863 87.2354 72.2495 87.6326 72.5399 87.9255C72.8304 88.2184 73.2244 88.3829 73.6352 88.3829H74.0423C74.4531 88.3829 74.8471 88.2184 75.1376 87.9255C75.428 87.6326 75.5912 87.2354 75.5912 86.8213C75.5912 86.4071 75.428 86.0099 75.1376 85.717C74.8471 85.4241 74.4531 85.2596 74.0423 85.2596ZM83.2185 85.2596H82.8114C82.4006 85.2596 82.0066 85.4241 81.7161 85.717C81.4257 86.0099 81.2625 86.4071 81.2625 86.8213C81.2625 87.2354 81.4257 87.6326 81.7161 87.9255C82.0066 88.2184 82.4006 88.3829 82.8114 88.3829H83.2185C83.6293 88.3829 84.0233 88.2184 84.3138 87.9255C84.6042 87.6326 84.7674 87.2354 84.7674 86.8213C84.7674 86.4071 84.6042 86.0099 84.3138 85.717C84.0233 85.4241 83.6293 85.2596 83.2185 85.2596Z" fill="#112C45"/>
</svg>
