<svg width="14" height="14" viewBox="0 0 14 14" fill="none" xmlns="http://www.w3.org/2000/svg">
<path fill-rule="evenodd" clip-rule="evenodd" d="M5.61558 11.2312C2.51418 11.2312 0 8.71697 0 5.61558C0 2.51418 2.51418 0 5.61558 0C8.71697 0 11.2312 2.51418 11.2312 5.61558C11.2312 6.91326 10.791 8.10814 10.0518 9.05906L13.8334 12.8406L12.8407 13.8333L9.0591 10.0518C8.10818 10.791 6.91328 11.2312 5.61558 11.2312ZM9.82725 5.6156C9.82725 7.94165 7.94161 9.82728 5.61556 9.82728C3.28952 9.82728 1.40388 7.94165 1.40388 5.6156C1.40388 3.28955 3.28952 1.40392 5.61556 1.40392C7.94161 1.40392 9.82725 3.28955 9.82725 5.6156Z" fill="#7F7F7F"/>
</svg>
