<svg width="14" height="14" viewBox="0 0 14 14" fill="none" xmlns="http://www.w3.org/2000/svg">
<path d="M6.94968 7.54359C6.96417 7.54359 6.97867 7.54359 6.99607 7.54359C7.00186 7.54359 7.00766 7.54359 7.01346 7.54359C7.02216 7.54359 7.03375 7.54359 7.04245 7.54359C7.89191 7.5291 8.57901 7.23048 9.08636 6.65935C10.2025 5.40112 10.017 3.24415 9.9967 3.03831C9.92422 1.49306 9.19363 0.753779 8.5906 0.40878C8.14123 0.150756 7.61649 0.0115966 7.03086 0H7.01056C7.00766 0 7.00186 0 6.99896 0H6.98157C6.65976 0 6.02775 0.0521847 5.42182 0.397184C4.813 0.742183 4.07081 1.48147 3.99834 3.03831C3.97804 3.24415 3.7925 5.40112 4.90867 6.65935C5.41313 7.23048 6.10023 7.5291 6.94968 7.54359ZM4.77241 3.11079C4.77241 3.10209 4.77531 3.09339 4.77531 3.0876C4.87098 1.0089 6.34665 0.78567 6.97867 0.78567H6.99027C6.99607 0.78567 7.00476 0.78567 7.01346 0.78567C7.79623 0.803065 9.12695 1.12197 9.21682 3.0876C9.21682 3.09629 9.21682 3.10499 9.21972 3.11079C9.22262 3.13108 9.42556 5.10251 8.50363 6.1404C8.13833 6.55208 7.65128 6.75502 7.01056 6.76082C7.00476 6.76082 7.00186 6.76082 6.99607 6.76082C6.99027 6.76082 6.98737 6.76082 6.98157 6.76082C6.34376 6.75502 5.8538 6.55208 5.4914 6.1404C4.57237 5.1083 4.76951 3.12818 4.77241 3.11079Z" fill="black"/>
<path d="M12.9535 11.1209C12.9535 11.118 12.9535 11.1151 12.9535 11.1122C12.9535 11.089 12.9506 11.0658 12.9506 11.0397C12.9332 10.4657 12.8955 9.12338 11.6373 8.6943C11.6286 8.6914 11.617 8.68851 11.6083 8.68561C10.3008 8.3522 9.2136 7.59842 9.202 7.58972C9.02515 7.46506 8.78162 7.50855 8.65696 7.6854C8.5323 7.86224 8.57578 8.10577 8.75263 8.23044C8.80192 8.26523 9.95578 9.06829 11.3996 9.43939C12.0751 9.68002 12.1504 10.4019 12.1707 11.0629C12.1707 11.089 12.1707 11.1122 12.1736 11.1354C12.1765 11.3963 12.1591 11.7993 12.1127 12.0312C11.6431 12.298 9.80212 13.2199 7.00154 13.2199C4.21256 13.2199 2.36 12.2951 1.88744 12.0283C1.84105 11.7964 1.82076 11.3934 1.82656 11.1325C1.82656 11.1093 1.82946 11.0861 1.82946 11.06C1.84975 10.399 1.92513 9.67712 2.60063 9.43649C4.04441 9.0654 5.19827 8.25943 5.24756 8.22754C5.42441 8.10287 5.46789 7.85935 5.34323 7.6825C5.21857 7.50565 4.97504 7.46216 4.79819 7.58683C4.78659 7.59552 3.70521 8.3493 2.39189 8.68271C2.3803 8.68561 2.3716 8.6885 2.3629 8.6914C1.10467 9.12338 1.06698 10.4657 1.04959 11.0368C1.04959 11.0629 1.04959 11.0861 1.04669 11.1093C1.04669 11.1122 1.04669 11.1151 1.04669 11.118C1.04379 11.2688 1.04089 12.0428 1.19454 12.4313C1.22354 12.5067 1.27572 12.5705 1.3453 12.614C1.43227 12.6719 3.51676 13.9998 7.00444 13.9998C10.4921 13.9998 12.5766 12.669 12.6636 12.614C12.7303 12.5705 12.7853 12.5067 12.8143 12.4313C12.9593 12.0457 12.9564 11.2717 12.9535 11.1209Z" fill="black"/>
</svg>
