<svg width="10" height="10" viewBox="0 0 10 10" fill="none" xmlns="http://www.w3.org/2000/svg">
<path fill-rule="evenodd" clip-rule="evenodd" d="M0.416992 5.00008C0.416992 7.53139 2.46902 9.58341 5.00033 9.58341C7.53163 9.58341 9.58366 7.53139 9.58366 5.00008C9.58366 2.46878 7.53163 0.416748 5.00033 0.416748C2.46902 0.416748 0.416992 2.46878 0.416992 5.00008ZM8.75033 5.00008C8.75033 7.07115 7.07139 8.75008 5.00033 8.75008C2.92926 8.75008 1.25033 7.07115 1.25033 5.00008C1.25033 2.92901 2.92926 1.25008 5.00033 1.25008C7.07139 1.25008 8.75033 2.92901 8.75033 5.00008ZM5.00046 7.49939C5.23066 7.49939 5.41727 7.31284 5.41727 7.08273C5.41727 6.85261 5.23066 6.66606 5.00046 6.66606C4.77027 6.66606 4.58366 6.85261 4.58366 7.08273C4.58366 7.31284 4.77027 7.49939 5.00046 7.49939ZM5.41851 2.49939H4.5849V5.83273H5.41851V2.49939Z" fill="#333333"/>
</svg>
