<svg width="15" height="15" viewBox="0 0 15 15" fill="none" xmlns="http://www.w3.org/2000/svg">
<path fill-rule="evenodd" clip-rule="evenodd" d="M1.26291 0L0.320097 0.942809L3.02991 3.65263C2.77745 3.86185 2.5276 4.08655 2.2805 4.32551C1.72768 4.86011 1.22756 5.43085 0.787296 6.00182C0.521627 6.34637 0.333006 6.61741 0.229733 6.77888L0 7.13808L0.229733 7.49727C0.333006 7.65875 0.521627 7.92978 0.787296 8.27433C1.22756 8.8453 1.72768 9.41604 2.2805 9.95064C3.9009 11.5177 5.63966 12.4714 7.45802 12.4714C8.60533 12.4714 9.72095 12.0917 10.7951 11.4179L13.6534 14.2761L14.5962 13.3333L1.26291 0ZM9.82121 10.4439L8.8127 9.43542C8.41565 9.67008 7.95249 9.80474 7.45787 9.80474C5.98511 9.80474 4.7912 8.61083 4.7912 7.13807C4.7912 6.64346 4.92586 6.18029 5.16053 5.78324L3.97792 4.60063C3.71963 4.80892 3.46257 5.0372 3.20738 5.28398C2.70458 5.77021 2.24628 6.29322 1.84319 6.81599C1.75613 6.9289 1.67568 7.03662 1.60213 7.13808C1.67568 7.23953 1.75613 7.34725 1.84319 7.46016C2.24628 7.98293 2.70458 8.50594 3.20738 8.99218C4.60302 10.3418 6.05464 11.1381 7.45802 11.1381C8.23683 11.1381 9.0305 10.8929 9.82121 10.4439ZM6.16976 6.79247C6.14026 6.9027 6.12453 7.01855 6.12453 7.13807C6.12453 7.87445 6.72149 8.47141 7.45787 8.47141C7.57739 8.47141 7.69325 8.45568 7.80347 8.42618L6.16976 6.79247ZM12.8567 9.73205L11.9139 8.78922C12.3366 8.36184 12.7252 7.91091 13.0728 7.46016C13.1599 7.34725 13.2403 7.23953 13.3139 7.13808C13.2403 7.03662 13.1599 6.9289 13.0728 6.81599C12.6697 6.29322 12.2114 5.77021 11.7086 5.28398C10.313 3.93433 8.86135 3.13808 7.45797 3.13808C7.10977 3.13808 6.7586 3.18709 6.40605 3.28142L5.3514 2.22677C6.0397 1.95233 6.74268 1.80474 7.45797 1.80474C9.27633 1.80474 11.0151 2.75849 12.6355 4.32551C13.1883 4.86011 13.6884 5.43085 14.1287 6.00182C14.3944 6.34637 14.583 6.61741 14.6863 6.77888L14.916 7.13808L14.6863 7.49727C14.583 7.65875 14.3944 7.92978 14.1287 8.27433C13.7479 8.76815 13.3224 9.2618 12.8567 9.73205Z" fill="#7F7F7F"/>
</svg>
