<svg width="236" height="245" viewBox="0 0 236 245" fill="none" xmlns="http://www.w3.org/2000/svg">
<path d="M53.5787 85.6632L44.6333 91.5371L137.795 233.745L146.74 227.871L53.5787 85.6632Z" fill="#E6E6E6"/>
<path d="M32.2824 32.1467L52.9792 63.7395C53.38 64.3513 53.5216 65.0975 53.3729 65.8138C53.2242 66.5302 52.7973 67.158 52.1863 67.5593C51.5752 67.9606 50.8299 68.1024 50.1144 67.9535C49.3988 67.8046 48.7717 67.3773 48.3709 66.7655L24.5774 30.4457C21.3478 30.1757 18.1016 30.7094 15.1279 31.9994L41.0519 71.5714C41.4525 72.1832 41.5939 72.9292 41.4451 73.6454C41.2963 74.3615 40.8695 74.9892 40.2586 75.3904C39.6476 75.7916 38.9025 75.9334 38.1871 75.7847C37.4717 75.636 36.8446 75.2089 36.4437 74.5973L10.5197 35.0254C8.15302 37.242 6.37064 40.0102 5.33122 43.0834L29.1247 79.4032C29.5252 80.015 29.6667 80.761 29.5179 81.4772C29.3691 82.1934 28.9423 82.8211 28.3313 83.2223C27.7204 83.6235 26.9752 83.7653 26.2599 83.6165C25.5445 83.4678 24.9174 83.0407 24.5164 82.4291L3.81964 50.8363C3.28806 59.6452 6.15677 70.086 12.4438 79.6829C24.1284 97.519 43.1885 105.682 55.0156 97.9164C66.8426 90.1504 66.9581 69.3956 55.2734 51.5595C48.9864 41.9626 40.5642 35.1684 32.2824 32.1467Z" fill="#E6E6E6"/>
<path d="M93.6868 66.209H82.989V236.275H93.6868V66.209Z" fill="#E6E6E6"/>
<path d="M88.1758 77.2435C102.32 77.2435 113.786 59.952 113.786 38.6218C113.786 17.2916 102.32 0 88.1758 0C74.0319 0 62.5659 17.2916 62.5659 38.6218C62.5659 59.952 74.0319 77.2435 88.1758 77.2435Z" fill="#E6E6E6"/>
<path d="M88.1759 70.3995C99.8133 70.3995 109.247 56.1723 109.247 38.6221C109.247 21.072 99.8133 6.84473 88.1759 6.84473C76.5385 6.84473 67.1045 21.072 67.1045 38.6221C67.1045 56.1723 76.5385 70.3995 88.1759 70.3995Z" fill="#CCCCCC"/>
<path d="M118 245C183.17 245 236 241.965 236 238.222C236 234.478 183.17 231.443 118 231.443C52.8304 231.443 0 234.478 0 238.222C0 241.965 52.8304 245 118 245Z" fill="#E6E6E6"/>
<path d="M187.785 238.122C143.563 230.142 98.2723 230.142 54.0506 238.122C53.3481 238.25 52.6263 238.221 51.936 238.039C51.2458 237.856 50.6039 237.525 50.0557 237.067C49.5075 236.609 49.0664 236.036 48.7634 235.389C48.4604 234.742 48.303 234.036 48.3022 233.321V172.662H193.533V233.321C193.532 234.036 193.375 234.742 193.072 235.389C192.769 236.036 192.328 236.609 191.78 237.067C191.231 237.525 190.589 237.856 189.899 238.039C189.209 238.221 188.487 238.25 187.785 238.122Z" fill="#8274AC"/>
<path d="M180.242 127.874C176.888 127.871 173.558 128.429 170.388 129.525C165.765 119.485 158.378 110.975 149.093 104.991C139.808 99.0077 129.011 95.7998 117.969 95.7439C106.927 95.6881 96.0982 98.7866 86.7535 104.676C77.4087 110.565 69.9356 119.001 65.2113 128.993C60.5594 127.686 55.6619 127.518 50.9315 128.503C46.2011 129.487 41.7763 131.595 38.0299 134.65C34.2834 137.704 31.325 141.615 29.4039 146.053C27.4827 150.492 26.6552 155.327 26.9908 160.153C27.3265 164.978 28.8156 169.652 31.3326 173.781C33.8497 177.91 37.321 181.373 41.4542 183.878C45.5874 186.383 50.2614 187.857 55.0824 188.175C59.9035 188.494 64.7304 187.648 69.1565 185.708C74.4764 193.824 81.7426 200.476 90.2914 205.057C98.8402 209.638 108.399 212.001 118.095 211.932C127.791 211.862 137.315 209.361 145.797 204.657C154.279 199.954 161.449 193.198 166.652 185.006C170.716 187.06 175.193 188.166 179.746 188.241C184.298 188.316 188.809 187.357 192.938 185.437C197.068 183.517 200.71 180.686 203.59 177.155C206.471 173.625 208.515 169.487 209.57 165.052C210.625 160.618 210.663 156.002 209.681 151.55C208.699 147.099 206.723 142.928 203.901 139.351C201.079 135.773 197.484 132.882 193.387 130.895C189.289 128.907 184.795 127.874 180.242 127.874Z" fill="#8274AC"/>
<path d="M59.9725 153.838H59.3242C59.302 145.196 61.2124 136.659 64.9153 128.852L65.5012 129.13C61.8396 136.85 59.9505 145.292 59.9725 153.838Z" fill="#3F3D56"/>
<path d="M176.027 153.838H175.379C175.399 145.489 173.596 137.236 170.097 129.658L170.686 129.386C174.225 137.05 176.048 145.395 176.027 153.838Z" fill="#3F3D56"/>
<path d="M48.3803 200.889L48.2239 200.259C48.4069 200.214 66.8326 195.683 93.8355 193.435C118.758 191.36 156.3 190.86 193.612 200.259L193.454 200.889C156.233 191.512 118.774 192.011 93.9029 194.081C66.9483 196.324 48.5628 200.844 48.3803 200.889Z" fill="#381A56"/>
<path d="M48.3803 209.652L48.2239 209.022C48.4069 208.976 66.8326 204.446 93.8355 202.197C118.758 200.123 156.3 199.622 193.612 209.022L193.454 209.651C156.233 200.275 118.774 200.774 93.9029 202.843C66.9483 205.086 48.5628 209.606 48.3803 209.652Z" fill="#381A56"/>
<path d="M48.3803 218.414L48.2239 217.784C48.4069 217.739 66.8326 213.208 93.8355 210.96C118.758 208.885 156.3 208.385 193.612 217.785L193.454 218.414C156.233 209.038 118.774 209.537 93.9029 211.606C66.9483 213.849 48.5628 218.369 48.3803 218.414Z" fill="#381A56"/>
<path d="M167.685 170.765L159.83 168.092L167.371 129.558L162.187 129.086C157.132 132.969 150.4 134.491 141.764 133.333L155.589 154.251L148.54 159.233L126.052 132.228C125.039 131.011 124.483 129.476 124.483 127.892C124.483 126.423 124.961 124.993 125.843 123.819C126.725 122.645 127.965 121.791 129.375 121.384L153.389 114.459L181.51 117.605C185.761 124.094 185.928 128.607 179.456 129.909L167.685 170.765Z" fill="#381A56"/>
<path d="M159.646 185.756C158.834 185.704 158.046 185.462 157.345 185.048C156.644 184.634 156.051 184.061 155.613 183.374C155.175 182.688 154.905 181.908 154.825 181.097C154.744 180.287 154.856 179.468 155.151 178.709L159.056 168.656C161.04 164.894 163.762 165.365 166.977 168.656L168.548 173.27C168.677 173.65 168.728 174.052 168.698 174.452C168.669 174.852 168.558 175.242 168.374 175.599L164.568 182.966C164.106 183.859 163.395 184.599 162.521 185.094C161.647 185.589 160.648 185.819 159.646 185.756Z" fill="#2F2E41"/>
<path d="M149.494 172.591C148.682 172.54 147.894 172.297 147.193 171.883C146.492 171.47 145.899 170.896 145.461 170.21C145.023 169.523 144.753 168.743 144.673 167.933C144.593 167.122 144.705 166.304 144.999 165.545L148.905 155.492C150.888 151.73 153.61 152.201 156.825 155.492L158.396 160.105C158.525 160.485 158.577 160.887 158.547 161.287C158.517 161.688 158.407 162.078 158.223 162.434L154.416 169.802C153.955 170.695 153.244 171.434 152.37 171.929C151.496 172.425 150.497 172.655 149.494 172.591Z" fill="#2F2E41"/>
<path d="M154.489 77.655C159.348 77.655 163.287 73.7116 163.287 68.8473C163.287 63.9829 159.348 60.0396 154.489 60.0396C149.63 60.0396 145.692 63.9829 145.692 68.8473C145.692 73.7116 149.63 77.655 154.489 77.655Z" fill="#D58668"/>
<path d="M168.157 81.2727L156.06 87.5639L153.546 76.2396L161.873 71.0493L168.157 81.2727Z" fill="#D58668"/>
<path d="M182.767 119.177C170.696 115.527 159.745 113.636 151.819 116.503C154.55 108.809 149.508 97.059 143.964 85.0473C146.356 81.9164 150.17 80.7037 154.489 80.1716C159.215 83.6068 162.51 81.4019 165.015 76.0823C170.478 75.8627 175.743 77.7998 180.882 81.1153C176.865 93.9955 177.588 106.679 182.767 119.177Z" fill="#8CCACB"/>
<path d="M151.661 118.391C149.755 119.515 147.996 121.41 146.32 123.738C143.487 122.002 140.995 120.026 139.031 117.675C137.656 116.008 136.719 114.024 136.304 111.903C135.889 109.781 136.009 107.59 136.654 105.527L142.023 88.0591C142.469 86.6082 143.335 85.3227 144.512 84.3655L145.22 83.7891L152.29 97.1579L145.22 110.369C146.117 112.776 148.759 115.555 151.661 118.391Z" fill="#8CCACB"/>
<path d="M154.095 131.709C153.454 132.002 152.754 132.141 152.05 132.116C151.346 132.091 150.657 131.902 150.039 131.565C149.42 131.227 148.889 130.75 148.486 130.172C148.084 129.593 147.821 128.928 147.719 128.231L146.551 120.222L150.635 118.021L155.819 124.815C156.233 125.357 156.52 125.986 156.658 126.655C156.796 127.324 156.781 128.015 156.615 128.678C156.45 129.34 156.137 129.957 155.701 130.482C155.264 131.006 154.715 131.426 154.095 131.709Z" fill="#D58668"/>
<path d="M163.365 68.4622L161.863 68.5068L157.696 62.5976C152.357 63.1502 147.983 65.4725 144.28 69.0297L143.905 66.5243C143.547 64.135 144.117 61.6993 145.498 59.718C146.879 57.7368 148.966 56.3607 151.33 55.8728H151.33C152.571 55.6165 153.851 55.6134 155.094 55.8635C156.337 56.1136 157.516 56.6118 158.562 57.3285C159.608 58.0451 160.499 58.9655 161.182 60.0346C161.865 61.1036 162.326 62.2995 162.537 63.5508L163.365 68.4622Z" fill="#2F2E41"/>
<path d="M146.472 123.742C146.18 123.1 146.041 122.399 146.066 121.694C146.091 120.989 146.279 120.3 146.616 119.681C146.953 119.062 147.43 118.53 148.008 118.127C148.586 117.724 149.25 117.461 149.947 117.359L157.945 116.189L160.145 120.278L153.359 125.468C152.817 125.883 152.188 126.17 151.52 126.308C150.852 126.446 150.162 126.431 149.5 126.265C148.838 126.099 148.222 125.786 147.698 125.349C147.174 124.913 146.755 124.363 146.472 123.742Z" fill="#D58668"/>
<path d="M184.291 116.457C176.681 117.049 168.372 119.425 159.673 122.795C159.565 120.21 158.629 117.728 157.003 115.717C164.903 113.634 172.072 111.189 176.483 107.381L173.812 87.2493L179.625 80.6436L180.627 81.1673C181.46 81.6004 182.193 82.204 182.777 82.9389C183.362 83.6738 183.786 84.5235 184.021 85.4329C186.475 94.9907 187.566 104.148 186.816 112.766C186.913 113.583 186.71 114.408 186.246 115.086C185.781 115.765 185.087 116.252 184.291 116.457Z" fill="#8CCACB"/>
<path d="M31.0839 236.31C24.0064 240.742 16.9289 240.74 9.8513 236.305C9.62725 236.167 9.44529 235.97 9.3252 235.735C9.20511 235.501 9.15148 235.238 9.17012 234.975L11.3785 206.232H29.2408L31.7638 234.965C31.7856 235.23 31.7336 235.496 31.6136 235.734C31.4936 235.971 31.3102 236.171 31.0839 236.31Z" fill="#381A56"/>
<path d="M20.2274 209.81C25.2054 209.81 29.2409 208.354 29.2409 206.558C29.2409 204.762 25.2054 203.307 20.2274 203.307C15.2494 203.307 11.2139 204.762 11.2139 206.558C11.2139 208.354 15.2494 209.81 20.2274 209.81Z" fill="#3F3D56"/>
<path d="M27.2921 205.46C22.5954 208.768 18.0486 208.768 13.6519 205.46V200.258H27.2921V205.46Z" fill="#8274AC"/>
<path d="M20.472 202.859C24.2386 202.859 27.2921 201.694 27.2921 200.257C27.2921 198.821 24.2386 197.656 20.472 197.656C16.7053 197.656 13.6519 198.821 13.6519 200.257C13.6519 201.694 16.7053 202.859 20.472 202.859Z" fill="#8274AC"/>
<path d="M20.7967 200.258C21.1555 200.258 21.4463 200.112 21.4463 199.933C21.4463 199.753 21.1555 199.607 20.7967 199.607C20.438 199.607 20.1472 199.753 20.1472 199.933C20.1472 200.112 20.438 200.258 20.7967 200.258Z" fill="#E6E6E6"/>
<path d="M23.8639 200.258C24.2226 200.258 24.5134 200.112 24.5134 199.933C24.5134 199.753 24.2226 199.607 23.8639 199.607C23.5052 199.607 23.2144 199.753 23.2144 199.933C23.2144 200.112 23.5052 200.258 23.8639 200.258Z" fill="#E6E6E6"/>
<path d="M22.3302 201.025C22.6889 201.025 22.9797 200.88 22.9797 200.7C22.9797 200.521 22.6889 200.375 22.3302 200.375C21.9715 200.375 21.6807 200.521 21.6807 200.7C21.6807 200.88 21.9715 201.025 22.3302 201.025Z" fill="#E6E6E6"/>
<path d="M16.1962 201.025C16.5549 201.025 16.8457 200.88 16.8457 200.7C16.8457 200.521 16.5549 200.375 16.1962 200.375C15.8374 200.375 15.5466 200.521 15.5466 200.7C15.5466 200.88 15.8374 201.025 16.1962 201.025Z" fill="#E6E6E6"/>
<path d="M17.7299 200.258C18.0886 200.258 18.3794 200.112 18.3794 199.933C18.3794 199.753 18.0886 199.607 17.7299 199.607C17.3711 199.607 17.0803 199.753 17.0803 199.933C17.0803 200.112 17.3711 200.258 17.7299 200.258Z" fill="#E6E6E6"/>
<path d="M19.2633 201.409C19.622 201.409 19.9128 201.264 19.9128 201.084C19.9128 200.904 19.622 200.759 19.2633 200.759C18.9046 200.759 18.6138 200.904 18.6138 201.084C18.6138 201.264 18.9046 201.409 19.2633 201.409Z" fill="#E6E6E6"/>
<path d="M227.21 236.31C220.133 240.742 213.055 240.74 205.978 236.305C205.753 236.167 205.572 235.97 205.451 235.735C205.331 235.501 205.278 235.238 205.296 234.975L207.505 206.232H225.367L227.89 234.965C227.912 235.23 227.86 235.496 227.74 235.734C227.62 235.971 227.436 236.171 227.21 236.31Z" fill="#381A56"/>
<path d="M216.354 209.81C221.332 209.81 225.367 208.354 225.367 206.558C225.367 204.762 221.332 203.307 216.354 203.307C211.376 203.307 207.34 204.762 207.34 206.558C207.34 208.354 211.376 209.81 216.354 209.81Z" fill="#3F3D56"/>
<path d="M223.419 205.46C218.722 208.768 214.175 208.768 209.778 205.46V200.258H223.419V205.46Z" fill="#8274AC"/>
<path d="M216.598 202.859C220.365 202.859 223.419 201.694 223.419 200.257C223.419 198.821 220.365 197.656 216.598 197.656C212.832 197.656 209.778 198.821 209.778 200.257C209.778 201.694 212.832 202.859 216.598 202.859Z" fill="#8274AC"/>
<path d="M216.923 200.258C217.282 200.258 217.573 200.112 217.573 199.933C217.573 199.753 217.282 199.607 216.923 199.607C216.564 199.607 216.274 199.753 216.274 199.933C216.274 200.112 216.564 200.258 216.923 200.258Z" fill="#E6E6E6"/>
<path d="M219.99 200.258C220.349 200.258 220.64 200.112 220.64 199.933C220.64 199.753 220.349 199.607 219.99 199.607C219.631 199.607 219.341 199.753 219.341 199.933C219.341 200.112 219.631 200.258 219.99 200.258Z" fill="#E6E6E6"/>
<path d="M218.457 201.025C218.815 201.025 219.106 200.88 219.106 200.7C219.106 200.521 218.815 200.375 218.457 200.375C218.098 200.375 217.807 200.521 217.807 200.7C217.807 200.88 218.098 201.025 218.457 201.025Z" fill="#E6E6E6"/>
<path d="M212.323 201.025C212.681 201.025 212.972 200.88 212.972 200.7C212.972 200.521 212.681 200.375 212.323 200.375C211.964 200.375 211.673 200.521 211.673 200.7C211.673 200.88 211.964 201.025 212.323 201.025Z" fill="#E6E6E6"/>
<path d="M213.856 200.258C214.215 200.258 214.506 200.112 214.506 199.933C214.506 199.753 214.215 199.607 213.856 199.607C213.498 199.607 213.207 199.753 213.207 199.933C213.207 200.112 213.498 200.258 213.856 200.258Z" fill="#E6E6E6"/>
<path d="M215.39 201.409C215.748 201.409 216.039 201.264 216.039 201.084C216.039 200.904 215.748 200.759 215.39 200.759C215.031 200.759 214.74 200.904 214.74 201.084C214.74 201.264 215.031 201.409 215.39 201.409Z" fill="#E6E6E6"/>
</svg>
