<svg width="255" height="172" viewBox="0 0 255 172" fill="none" xmlns="http://www.w3.org/2000/svg">
<g clip-path="url(#clip0)">
<path d="M214.342 172C236.797 172 255 170.633 255 168.947C255 167.261 236.797 165.894 214.342 165.894C191.887 165.894 173.684 167.261 173.684 168.947C173.684 170.633 191.887 172 214.342 172Z" fill="#E6E6E6"/>
<path d="M41.4127 47.3721C41.4258 44.2645 38.7717 41.7227 35.6563 41.7227H6.74811C3.68202 41.7227 1.03294 44.2225 0.997041 47.2808C0.985918 48.15 1.17732 49.0099 1.55617 49.7927C1.93501 50.5755 2.49095 51.2599 3.18015 51.7919C3.35682 51.9232 3.49585 52.0984 3.58334 52.3001C3.67083 52.5018 3.70372 52.7229 3.67872 52.9413C3.64519 53.1891 3.62837 53.4389 3.62839 53.6889V73.635C3.62839 74.3691 3.77336 75.0962 4.05503 75.7745C4.33669 76.4528 4.74952 77.0691 5.26997 77.5882C5.79041 78.1074 6.40827 78.5192 7.08826 78.8002C7.76825 79.0811 8.49706 79.2257 9.23308 79.2257H32.9884C34.4748 79.2257 35.9004 78.6367 36.9515 77.5882C38.0026 76.5398 38.5931 75.1177 38.5931 73.635V53.6889C38.5931 53.4701 38.5803 53.2515 38.5548 53.0341C38.5322 52.819 38.5677 52.6017 38.6576 52.4048C38.7475 52.2079 38.8886 52.0386 39.0663 51.9144C39.7896 51.3963 40.3794 50.7145 40.7873 49.9249C41.1952 49.1353 41.4096 48.2604 41.4127 47.3721Z" fill="#8274AC"/>
<path d="M40.1609 46.825C40.0167 45.7431 39.4809 44.7511 38.6544 44.0358C37.828 43.3205 36.7678 42.9313 35.6737 42.9416H6.73953C5.71668 42.9325 4.7213 43.2716 3.91778 43.903C3.11426 44.5344 2.55066 45.4203 2.32006 46.4144C2.12262 47.328 2.22102 48.2806 2.60108 49.1348C2.98113 49.9891 3.62323 50.701 4.43486 51.1679C4.66916 51.3016 4.85228 51.5091 4.95539 51.758C5.0585 52.0068 5.07576 52.2827 5.00446 52.5424C4.90178 52.9163 4.84993 53.3023 4.85031 53.69V73.6341C4.85044 74.6534 5.20738 75.6406 5.85948 76.4253C6.51159 77.21 7.41792 77.7429 8.42197 77.932C8.68978 77.9818 8.96162 78.0069 9.23405 78.007H32.9893C33.3904 78.0076 33.7896 77.9527 34.1755 77.8439C35.0951 77.5857 35.905 77.0349 36.4819 76.2753C37.0587 75.5158 37.371 74.5889 37.3712 73.636V53.6881C37.3713 53.3251 37.3258 52.9635 37.2359 52.6118C37.2113 52.5143 37.1987 52.4142 37.1983 52.3136C37.1984 52.0932 37.2587 51.8769 37.3726 51.688C37.4865 51.499 37.6498 51.3445 37.8449 51.241L37.8468 51.2392C38.634 50.8223 39.2764 50.1776 39.6894 49.3897C40.1024 48.6019 40.2668 47.7078 40.1609 46.825Z" fill="#381A56"/>
<path opacity="0.2" d="M37.3715 55.5987V53.7235H34.1758V42.9414H32.296V53.7235H22.2389V42.9414H20.3591V53.7235H10.3021V42.9414H8.42225V53.7235H4.85059V55.5987H8.42225V61.2241H4.85059V63.0993H8.42225V68.7248H4.85059V70.5999H8.42225V77.9318C8.69006 77.9816 8.9619 78.0067 9.23433 78.0068H10.3021V70.5999H20.3591V78.0068H22.2389V70.5999H32.296V78.0068H32.9896C33.3907 78.0074 33.7899 77.9525 34.1758 77.8436V70.5999H37.3715V68.7248H34.1758V63.0993H37.3715V61.2241H34.1758V55.5987H37.3715ZM10.3021 55.5987H20.3591V61.2241H10.3021V55.5987ZM10.3021 68.7248V63.0993H20.3591V68.7248H10.3021ZM32.296 68.7248H22.2389V63.0993H32.296V68.7248ZM32.296 61.2241H22.2389V55.5987H32.296V61.2241Z" fill="#8274AC"/>
<path d="M70.0482 57.1597H63.4028V63.7885H70.0482V57.1597Z" fill="#8274AC"/>
<path d="M135.172 60.1426H81.6772V60.8055H135.172V60.1426Z" fill="#381A56"/>
<path d="M70.0482 106.71H63.4028V113.339H70.0482V106.71Z" fill="#8274AC"/>
<path d="M135.172 109.694H81.6772V110.357H135.172V109.694Z" fill="#381A56"/>
<path d="M210.1 45.5219L201.612 52.1962L183.624 45.8902C183.624 45.8902 177.508 39.0283 174.05 44.1392C172.866 45.8896 180.623 49.1233 181.355 49.4239C183.185 50.1752 200.713 59.7672 202.43 58.5088C204.148 57.2504 213.811 50.8854 213.811 50.8854L210.1 45.5219Z" fill="#D58668"/>
<path d="M239.077 34.1364C231.032 31.1375 223.378 29.7187 217.173 34.1364V19.8787C217.173 18.4441 217.457 17.0235 218.007 15.6981C218.557 14.3726 219.364 13.1683 220.381 12.1539C221.398 11.1394 222.605 10.3347 223.934 9.78569C225.263 9.23668 226.687 8.9541 228.125 8.9541H228.125C229.563 8.9541 230.988 9.23668 232.316 9.78569C233.645 10.3347 234.852 11.1394 235.869 12.1539C236.886 13.1683 237.693 14.3726 238.243 15.6981C238.794 17.0235 239.077 18.4441 239.077 19.8788L239.077 34.1364Z" fill="#2F2E41"/>
<path d="M218.862 65.2822L218.204 69.8727C218.204 69.8727 216.561 74.791 218.204 83.972L191.743 155.944L211.301 161.518L220.998 122.171L234.64 92.1693L233.325 126.27L226.422 162.666L246.802 161.846L252.74 99.4381C253.701 89.5751 251.986 79.6359 247.775 70.6608C246.127 67.1707 244.356 64.4201 242.748 64.0208C237.927 62.823 218.862 65.2822 218.862 65.2822Z" fill="#381A56"/>
<path d="M194.208 155.452L187.47 162.666C187.47 162.666 174.486 169.388 183.69 170.207C192.893 171.027 196.016 167.42 196.016 167.42C196.016 167.42 207.521 166.6 207.357 164.961C207.192 163.322 206.371 157.911 206.371 157.911L194.208 155.452Z" fill="#2F2E41"/>
<path d="M230.777 157.192V162.274C230.777 162.274 230.942 164.405 230.777 164.897C230.613 165.389 228.148 171.455 236.365 170.143C244.583 168.832 241.296 163.75 241.296 163.75L239.324 156.372L230.777 157.192Z" fill="#2F2E41"/>
<path d="M228.024 29.8701C232.586 29.8701 236.283 26.1817 236.283 21.6318C236.283 17.082 232.586 13.3936 228.024 13.3936C223.463 13.3936 219.766 17.082 219.766 21.6318C219.766 26.1817 223.463 29.8701 228.024 29.8701Z" fill="#D58668"/>
<path d="M233.736 26.1813C233.736 26.1813 232.585 37.0018 233.736 38.9691C234.886 40.9365 222.066 37.0018 222.066 37.0018C222.066 37.0018 224.86 29.6242 223.874 26.6732C222.888 23.7221 233.736 26.1813 233.736 26.1813Z" fill="#D58668"/>
<path d="M240.31 57.3309L242.939 64.5445L218.451 67.3316C218.451 67.3316 215.821 66.8398 215.821 64.7085C215.821 62.5772 213.027 55.0357 213.027 55.0357C213.027 55.0357 206.184 49.5031 202.897 48.0276C201.705 47.4931 203.488 47.7138 204.49 45.4448C204.791 44.7628 205.151 44.0431 205.544 43.3135C205.864 42.7151 206.21 42.1085 206.563 41.5101C206.992 40.7806 207.434 40.0625 207.863 39.3788C209.161 37.3115 210.346 35.5736 210.726 34.8703C211.877 32.739 222.693 32.5488 222.693 32.5488C225.786 34.49 234.722 34.8703 234.722 34.8703C234.722 34.8703 240.869 37.4361 243.429 39.3788C243.615 39.5182 240.31 57.3309 240.31 57.3309Z" fill="#8CCACB"/>
<path d="M234.993 11.7418V11.5462L234.76 11.5591C233.436 10.5533 231.9 9.86149 230.268 9.53617C228.636 9.21085 226.951 9.26057 225.341 9.68155C226.884 10.0884 228.319 10.828 229.545 11.8481L221.628 12.2868L218.287 19.6934H220.548L222.371 16.3604V19.6934H230.019L230.538 17.1011L231.982 19.6934H233.485C233.494 19.8782 233.508 20.0617 233.508 20.2489L232.023 34.5065L239.077 31.5439V20.2489C239.078 18.6164 238.712 17.0044 238.005 15.532C237.298 14.0596 236.269 12.7643 234.993 11.7418Z" fill="#2F2E41"/>
<path d="M246.062 49.4614L245.569 62.4132L244.254 87.4969C244.254 87.4969 246.062 98.3173 241.46 98.1534C236.858 97.9894 240.309 85.3656 240.309 85.3656L238.995 65.5281L240.309 51.5927L246.062 49.4614Z" fill="#D58668"/>
<path d="M247.377 56.511C247.377 57.9865 239.077 57.5767 239.077 57.5767L234.722 34.8701C234.722 34.8701 240.869 37.4359 243.429 39.3786C244.032 40.0022 244.525 40.7228 244.887 41.5099C245.083 42.0362 245.268 42.6461 245.444 43.3133C245.618 43.9757 245.781 44.6954 245.934 45.4446C246.651 49.0989 247.133 52.7953 247.377 56.511Z" fill="#8CCACB"/>
<path d="M20.9813 109.185L8.40102 107.885C8.49769 107.219 8.42347 106.539 8.1853 105.909C7.94713 105.279 7.55278 104.72 7.03908 104.283C6.52537 103.846 5.90908 103.546 5.24776 103.412C4.58643 103.277 3.90167 103.312 3.2574 103.512C2.61313 103.713 2.03038 104.073 1.56359 104.56C1.0968 105.046 0.761197 105.643 0.588118 106.293C0.41504 106.944 0.410141 107.628 0.573872 108.281C0.737602 108.934 1.06462 109.536 1.52439 110.029C1.05726 110.532 0.728232 111.147 0.569136 111.814C0.410041 112.481 0.42626 113.178 0.616226 113.838C0.806193 114.497 1.16347 115.096 1.65352 115.577C2.14356 116.058 2.74979 116.405 3.41355 116.584C4.07731 116.763 4.77615 116.768 5.44247 116.599C6.1088 116.43 6.72005 116.092 7.21712 115.618C7.7142 115.144 8.08026 114.55 8.2799 113.894C8.47954 113.237 8.50602 112.541 8.35676 111.871L20.9813 110.714V109.185Z" fill="#CCCCCC"/>
<path d="M33.7743 117.809C38.7199 119.023 43.702 115.523 43.9598 110.45C43.967 110.309 43.9706 110.167 43.9706 110.025C43.9706 109.882 43.967 109.741 43.9598 109.6C43.702 104.526 38.7199 101.027 33.7743 102.24L16.9967 106.356C16.5134 106.355 16.0347 106.45 15.588 106.634C15.1413 106.818 14.7354 107.088 14.3935 107.429C14.0516 107.77 13.7803 108.175 13.5953 108.62C13.4102 109.065 13.3149 109.543 13.3149 110.025C13.3149 110.507 13.4102 110.984 13.5953 111.43C13.7803 111.875 14.0516 112.28 14.3935 112.621C14.7354 112.961 15.1413 113.232 15.588 113.416C16.0347 113.6 16.5134 113.695 16.9967 113.694L33.7743 117.809Z" fill="#381A56"/>
</g>
<defs>
<clipPath id="clip0">
<rect width="255" height="172" fill="white"/>
</clipPath>
</defs>
</svg>
