<svg width="244" height="231" viewBox="0 0 244 231" fill="none" xmlns="http://www.w3.org/2000/svg">
<g clip-path="url(#clip0)">
<path d="M244 229.782H79.3452V230.493H244V229.782Z" fill="#3F3D56"/>
<path d="M213.272 108.832C213.588 109.205 213.824 109.64 213.962 110.11C214.1 110.58 214.138 111.074 214.074 111.559C214.01 112.045 213.844 112.511 213.588 112.929C213.332 113.346 212.992 113.705 212.589 113.982L195.548 125.7L188.045 130.71C187.618 130.994 187.102 131.11 186.595 131.034C186.088 130.958 185.628 130.696 185.304 130.299C185.115 130.068 184.978 129.798 184.903 129.508C184.828 129.218 184.817 128.916 184.871 128.622C184.924 128.328 185.04 128.048 185.212 127.804C185.384 127.559 185.606 127.354 185.864 127.204L193.132 122.977L205.816 110.879L197.662 102.107L203.702 97.5703L213.272 108.832Z" fill="#D58668"/>
<path d="M173.2 219.162H169.032L166.556 184.68L177.126 184.378L173.2 219.162Z" fill="#D58668"/>
<path d="M173.502 230.353C172.391 230.861 171.46 226.745 170.522 227.668C167.9 230.249 163.884 230.811 160.384 229.684L161.609 229.67C161.398 229.602 161.202 229.492 161.035 229.346C160.868 229.2 160.731 229.022 160.635 228.822C160.538 228.622 160.483 228.404 160.473 228.182C160.463 227.961 160.498 227.739 160.576 227.531C160.669 227.282 160.821 227.059 161.019 226.882C161.217 226.705 161.455 226.579 161.713 226.514L164.502 225.816L168.881 218.103L173.351 217.801C174.348 219.073 175.043 220.556 175.385 222.136C175.728 223.717 175.707 225.354 175.326 226.926C174.921 228.584 174.295 229.991 173.502 230.353Z" fill="#2F2E41"/>
<path d="M200.954 219.162H196.786L194.31 184.681L205.182 182.563L200.954 219.162Z" fill="#D58668"/>
<path d="M201.256 230.354C200.145 230.862 199.214 226.746 198.276 227.668C195.654 230.249 191.638 230.812 188.138 229.685L189.363 229.671C189.152 229.603 188.957 229.493 188.789 229.347C188.622 229.201 188.486 229.023 188.389 228.823C188.292 228.623 188.237 228.405 188.227 228.183C188.217 227.961 188.252 227.739 188.33 227.531C188.423 227.282 188.575 227.06 188.773 226.883C188.971 226.706 189.209 226.58 189.467 226.515L192.256 225.817L196.635 218.104L201.407 217.499L201.528 217.696C202.45 219.186 203.045 220.855 203.273 222.593C203.5 224.33 203.355 226.097 202.846 227.774C202.45 229.047 201.909 230.055 201.256 230.354Z" fill="#2F2E41"/>
<path d="M205.681 98.3509C201.847 98.8851 199.193 100.988 198.113 105.182L191.067 92.1523C190.649 91.3243 190.543 90.3732 190.768 89.4733C190.994 88.5734 191.536 87.7851 192.294 87.2527C193.099 86.6876 194.09 86.4523 195.063 86.5949C196.035 86.7375 196.917 87.2473 197.527 88.0198L205.681 98.3509Z" fill="#8CCACB"/>
<path d="M213.064 181.051C195.932 188.643 178.4 189.577 160.516 184.681C167.047 159.313 174.758 136.376 174.71 117.533L192.226 116.021L194.923 120.303C201.322 130.463 205.738 141.746 207.939 153.554L213.064 181.051Z" fill="#381A56"/>
<path d="M184.374 78.5156C189.378 78.5156 193.434 74.4531 193.434 69.4416C193.434 64.4302 189.378 60.3677 184.374 60.3677C179.37 60.3677 175.314 64.4302 175.314 69.4416C175.314 74.4531 179.37 78.5156 184.374 78.5156Z" fill="#D58668"/>
<path d="M194.34 85.4721L183.166 86.077L181.354 76.0956L190.414 74.5835L194.34 85.4721Z" fill="#A0616A"/>
<path d="M193.132 117.534L180.89 117.879L174.71 118.743C171.676 108.707 169.122 98.693 175.314 90.3116L182.562 83.0525L193.434 82.75L193.578 82.8324C195.304 83.8231 196.643 85.3734 197.372 87.2277C198.101 89.0821 198.178 91.1298 197.589 93.0337C194.891 101.815 193.158 110.106 193.132 117.534Z" fill="#8CCACB"/>
<path d="M174.408 145.663L173.649 156.057C173.608 156.614 173.368 157.137 172.973 157.531C172.577 157.924 172.053 158.161 171.497 158.198C171.177 158.22 170.855 158.174 170.553 158.064C170.252 157.954 169.976 157.782 169.744 157.56C169.512 157.337 169.329 157.069 169.207 156.772C169.084 156.474 169.025 156.155 169.032 155.833L169.274 145.663L176.824 116.929L177.126 99.386L185.582 99.0835L184.978 119.349L174.408 145.663Z" fill="#D58668"/>
<path d="M186.488 100.595C182.903 99.1353 179.555 99.6243 176.522 102.713L176.938 87.9007C176.99 86.9745 177.374 86.0981 178.019 85.4322C178.664 84.7664 179.527 84.3556 180.45 84.2753C181.43 84.19 182.405 84.483 183.175 85.0943C183.946 85.7056 184.454 86.589 184.596 87.5635L186.488 100.595Z" fill="#8CCACB"/>
<path d="M203.551 109.821H175.767C182.249 92.6311 184.339 76.6397 175.767 62.9385C175.914 58.8233 181.184 55.2558 185.277 55.65C190.11 56.1154 196.606 59.6729 197.511 64.4509L203.551 109.821Z" fill="#2F2E41"/>
<path d="M115.005 54.8942H113.738V20.124C113.738 17.4813 113.218 14.8645 112.208 12.4229C111.198 9.98133 109.718 7.76287 107.853 5.89418C105.987 4.02548 103.772 2.54316 101.334 1.53183C98.8961 0.520509 96.2832 -7.91954e-06 93.6446 0H20.093C17.4544 -5.83542e-06 14.8415 0.520515 12.4038 1.53184C9.96595 2.54317 7.75092 4.02549 5.88511 5.89418C4.0193 7.76288 2.53925 9.98134 1.52948 12.4229C0.519716 14.8645 -2.91325e-06 17.4813 0 20.1241V210.876C-2.08089e-06 213.519 0.519716 216.136 1.52948 218.577C2.53925 221.019 4.0193 223.237 5.88511 225.106C7.75092 226.974 9.96595 228.457 12.4038 229.468C14.8415 230.479 17.4544 231 20.093 231H93.6446C96.2832 231 98.8961 230.479 101.334 229.468C103.772 228.457 105.987 226.974 107.853 225.106C109.718 223.237 111.198 221.019 112.208 218.577C113.218 216.136 113.738 213.519 113.738 210.876V79.6442H115.005V54.8942Z" fill="#381A56"/>
<path d="M94.4555 5.23535H84.8546C85.2961 6.31949 85.4646 7.49575 85.3453 8.66049C85.226 9.82523 84.8226 10.9427 84.1705 11.9145C83.5184 12.8863 82.6377 13.6826 81.606 14.2332C80.5743 14.7838 79.4232 15.0718 78.2541 15.0719H36.1174C34.9483 15.0718 33.7972 14.7838 32.7655 14.2332C31.7338 13.6826 30.8531 12.8863 30.201 11.9145C29.5489 10.9427 29.1455 9.82524 29.0262 8.66049C28.9069 7.49575 29.0754 6.31949 29.5169 5.23535H20.5497C18.5792 5.23535 16.6279 5.62407 14.8074 6.37931C12.9869 7.13456 11.3327 8.24154 9.93937 9.63705C8.54601 11.0326 7.44073 12.6893 6.68664 14.5126C5.93256 16.3359 5.54444 18.2902 5.54443 20.2637V210.736C5.54443 212.709 5.93255 214.664 6.68664 216.487C7.44072 218.31 8.546 219.967 9.93936 221.362C11.3327 222.758 12.9869 223.865 14.8074 224.62C16.6279 225.375 18.5791 225.764 20.5497 225.764H94.4555C96.426 225.764 98.3772 225.375 100.198 224.62C102.018 223.865 103.672 222.758 105.066 221.362C106.459 219.967 107.564 218.31 108.319 216.487C109.073 214.664 109.461 212.709 109.461 210.736V20.2637C109.461 16.2779 107.88 12.4554 105.066 9.63705C102.252 6.81868 98.4351 5.23535 94.4555 5.23535Z" fill="white"/>
<path d="M96.483 34.9888H18.522V101.961H96.483V34.9888Z" fill="#F5F1FF"/>
<path d="M57.4279 115.927C60.5783 115.927 63.1323 113.369 63.1323 110.213C63.1323 107.058 60.5783 104.5 57.4279 104.5C54.2774 104.5 51.7234 107.058 51.7234 110.213C51.7234 113.369 54.2774 115.927 57.4279 115.927Z" fill="#DEAA00"/>
<path d="M60.2801 109.737H57.9033V107.357H56.9525V109.737H54.5757V110.69H56.9525V113.07H57.9033V110.69H60.2801V109.737Z" fill="white"/>
<path d="M74.6157 110.69V109.737H68.9113V110.69H74.6157Z" fill="white"/>
<path d="M60.4101 43.3413H54.2492C54.0326 43.3413 53.8248 43.4275 53.6716 43.5809C53.5184 43.7343 53.4324 43.9424 53.4324 44.1594V46.8678C53.4324 47.0847 53.5184 47.2928 53.6716 47.4462C53.8248 47.5996 54.0326 47.6858 54.2492 47.6858H55.2701V51.7439H59.3891V47.6858H60.4101C60.6267 47.6858 60.8345 47.5996 60.9876 47.4462C61.1408 47.2928 61.2269 47.0847 61.2269 46.8678V44.1594C61.2269 43.9424 61.1408 43.7343 60.9876 43.5809C60.8345 43.4275 60.6267 43.3413 60.4101 43.3413Z" fill="#6C63FF"/>
<path d="M66.5808 68.1281C62.8077 62.5985 60.8789 56.0147 61.0705 49.3199C61.0739 49.1654 61.0239 49.0145 60.9288 48.8928C60.8338 48.7711 60.6996 48.6861 60.5491 48.6522V47.4819H54.0424V48.636H53.9527C53.8651 48.6361 53.7783 48.6535 53.6973 48.6872C53.6163 48.7209 53.5428 48.7702 53.4809 48.8324C53.419 48.8946 53.3699 48.9684 53.3364 49.0495C53.303 49.1307 53.2858 49.2177 53.2859 49.3055C53.286 49.3217 53.2866 49.338 53.2878 49.3542C53.8004 56.5108 52.0694 62.9288 48.0949 68.6081C47.8662 68.9344 47.7493 69.3263 47.7619 69.7248L48.4734 91.7669C48.4905 92.2585 48.6965 92.7245 49.0485 93.0677C49.4004 93.4108 49.8711 93.6046 50.3623 93.6085H65.0794C65.5762 93.6044 66.0518 93.4063 66.4048 93.0562C66.7578 92.7061 66.9605 92.2319 66.9695 91.7344L67.2436 70.3334C67.2518 69.5479 67.0206 68.7786 66.5808 68.1281Z" fill="#381A56"/>
<path opacity="0.2" d="M59.1258 44.2236C59.1258 44.6917 58.9401 45.1406 58.6096 45.4716C58.2792 45.8026 57.8309 45.9886 57.3636 45.9886C56.8962 45.9886 56.4479 45.8026 56.1175 45.4716C55.787 45.1406 55.6013 44.6917 55.6013 44.2236" fill="black"/>
<path d="M64.2508 75.4497H62.4687C62.2986 74.3439 61.7389 73.3357 60.891 72.6073C60.0431 71.8789 58.9629 71.4785 57.8458 71.4785C56.7288 71.4785 55.6486 71.8789 54.8006 72.6073C53.9527 73.3357 53.3931 74.3439 53.2229 75.4497H51.4407C51.2511 75.4497 51.0637 75.4908 50.8914 75.5701C50.7191 75.6494 50.566 75.7651 50.4425 75.9092C50.319 76.0534 50.2281 76.2225 50.1761 76.4052C50.124 76.5878 50.1119 76.7795 50.1408 76.9672L52.0766 89.5694H63.1922L65.5435 77.0097C65.5791 76.8194 65.5724 76.6237 65.5239 76.4363C65.4754 76.249 65.3863 76.0746 65.2629 75.9257C65.1395 75.7768 64.9848 75.6569 64.8099 75.5746C64.635 75.4923 64.4441 75.4497 64.2508 75.4497V75.4497Z" fill="#6C63FF"/>
<path d="M96.483 129.258H18.522V196.23H96.483V129.258Z" fill="#F5F1FF"/>
<path d="M57.4279 210.196C60.5783 210.196 63.1323 207.638 63.1323 204.483C63.1323 201.327 60.5783 198.77 57.4279 198.77C54.2774 198.77 51.7234 201.327 51.7234 204.483C51.7234 207.638 54.2774 210.196 57.4279 210.196Z" fill="#DEAA00"/>
<path d="M60.2801 204.007H57.9033V201.626H56.9525V204.007H54.5757V204.959H56.9525V207.339H57.9033V204.959H60.2801V204.007Z" fill="white"/>
<path d="M74.6157 204.959V204.007H68.9113V204.959H74.6157Z" fill="white"/>
<path d="M72.8499 176.836L72.8929 176.836C74.3608 176.849 75.7982 176.418 77.0178 175.6C78.2374 174.781 79.1824 173.614 79.7297 172.25C81.4542 167.883 81.858 163.104 80.8907 158.509C79.9235 153.913 77.628 149.704 74.29 146.406C70.952 143.108 66.7191 140.866 62.1182 139.959C57.5173 139.052 52.7518 139.521 48.4151 141.307C44.0783 143.093 40.3619 146.117 37.7286 150.003C35.0952 153.889 33.6614 158.465 33.6055 163.161C33.5496 167.857 34.8741 172.466 37.4142 176.413C39.9543 180.361 43.5976 183.473 47.8907 185.362C49.225 185.954 50.7066 186.128 52.1414 185.861C53.5761 185.595 54.897 184.9 55.9308 183.869C58.1481 181.636 60.7846 179.866 63.6884 178.659C66.5923 177.452 69.7059 176.832 72.8499 176.836Z" fill="white"/>
<path d="M60.5718 169.589C64.931 169.589 68.4649 166.05 68.4649 161.684C68.4649 157.318 64.931 153.779 60.5718 153.779C56.2126 153.779 52.6787 157.318 52.6787 161.684C52.6787 166.05 56.2126 169.589 60.5718 169.589Z" fill="#F9A825"/>
</g>
<defs>
<clipPath id="clip0">
<rect width="244" height="231" fill="white"/>
</clipPath>
</defs>
</svg>
