<svg width="16" height="16" viewBox="0 0 16 16" fill="none" xmlns="http://www.w3.org/2000/svg">
<path d="M6.40011 0.000244141H5.12012V0.640239H6.40011V0.000244141Z" fill="#333333"/>
<path d="M7.67969 0.000244141H8.31968V0.640239H9.59967V1.28023H7.67969V0.000244141Z" fill="#333333"/>
<path d="M10.2401 0.000244141H10.8801V7.04019H10.2401V5.7602H9.60008V6.40019H8.95984V5.7602H8.32009V5.1202H7.6801V3.20022H7.0401V1.92023H5.12012V1.28023H6.40011V0.640239H7.0401V1.28023H7.6801V1.92023H9.60008V2.56022H8.32009V4.48021H8.95984V3.84021H9.60008V5.1202H10.2401V3.20022H9.60008V2.56022H10.2401V0.000244141Z" fill="#333333"/>
<path d="M0 0V4.47996H4.47996V0H0ZM3.83997 3.83997H0.639995V0.639995H3.83997V3.83997Z" fill="#333333"/>
<path d="M11.5195 0.000244141V4.48021H15.9995V0.000244141H11.5195ZM15.3595 3.84021H12.1595V0.640239H15.3595V3.84021Z" fill="#333333"/>
<path d="M3.20026 1.28003H1.28027V3.20001H3.20026V1.28003Z" fill="#333333"/>
<path d="M14.7198 1.28003H12.7998V3.20001H14.7198V1.28003Z" fill="#333333"/>
<path d="M5.12012 2.56006H6.40011V3.84005H5.76011V3.20005H5.12012V2.56006Z" fill="#333333"/>
<path d="M5.12012 3.84009H5.76011V4.48008H6.40011V3.84009H7.0401V5.12008H7.6801V5.76007H8.32009V6.40007H7.6801V7.04006H7.0401V5.76007H6.40011V5.12008H5.12012V3.84009Z" fill="#333333"/>
<path d="M4.48019 5.12012H3.2002V5.76011H4.48019V5.12012Z" fill="#333333"/>
<path d="M13.4398 5.12012H12.7998V5.76011H13.4398V5.12012Z" fill="#333333"/>
<path d="M14.0801 5.12012H14.7201V6.40011H16.0001V8.32009H14.7201V7.0401H14.0801V5.12012Z" fill="#333333"/>
<path d="M16.0003 5.12012H15.3604V5.76011H16.0003V5.12012Z" fill="#333333"/>
<path d="M1.91964 5.76001H0.639648V6.4H1.91964V5.76001Z" fill="#333333"/>
<path d="M3.19957 5.76001H2.55957V6.4H3.19957V5.76001Z" fill="#333333"/>
<path d="M0.639995 6.40015H0V7.04014H0.639995V6.40015Z" fill="#333333"/>
<path d="M4.47984 6.40015H3.83984V7.04014H4.47984V6.40015Z" fill="#333333"/>
<path d="M1.27964 7.04004H2.55963V8.32003H1.91964V8.96002H1.27964V8.32003H0.639648V7.68003H1.27964V7.04004Z" fill="#333333"/>
<path d="M3.84019 7.04004H3.2002V7.68003H3.84019V7.04004Z" fill="#333333"/>
<path d="M10.2396 7.04004H9.59961V7.68003H10.2396V7.04004Z" fill="#333333"/>
<path d="M4.47984 7.68018H3.83984V8.32017H4.47984V7.68018Z" fill="#333333"/>
<path d="M0.639995 8.32007H0V10.88H0.639995V8.32007Z" fill="#333333"/>
<path d="M3.19957 8.32007H2.55957V8.96031H3.19957V8.32007Z" fill="#333333"/>
<path d="M2.55992 8.95996H1.91992V9.59996H2.55992V8.95996Z" fill="#333333"/>
<path d="M4.47984 8.95996H3.83984V9.59996H4.47984V8.95996Z" fill="#333333"/>
<path d="M5.12012 8.95996H5.76011V9.59996H6.40011V10.8799H5.76011V11.5199H5.12012V8.95996Z" fill="#333333"/>
<path d="M13.4399 8.95996H12.1602V9.59996H13.4399V8.95996Z" fill="#333333"/>
<path d="M15.9997 8.95996H14.7197V9.59996H15.9997V8.95996Z" fill="#333333"/>
<path d="M3.19957 9.6001H2.55957V10.2401H3.19957V9.6001Z" fill="#333333"/>
<path d="M1.92027 10.24H1.28027V10.8802H1.92027V10.24Z" fill="#333333"/>
<path d="M4.48019 10.24H3.2002V10.8802H4.48019V10.24Z" fill="#333333"/>
<path d="M7.03941 10.8801H6.39941V11.5201H7.03941V10.8801Z" fill="#333333"/>
<path d="M16.0003 10.8801V10.2401H14.7203V9.60008H13.4403V10.2401H10.8803V9.60008H11.5203V8.96009H12.1603V8.32009H13.4403V8.96009H14.0803V7.0401H13.4403V6.40011H12.8003V7.0401H12.1603V6.40011H12.8003V5.76011H12.1603V5.12012H11.5203V7.0401H10.8803V8.96009H9.60033V7.6801H8.96009V8.96009H8.32009V7.0401H7.6801V8.32009H7.0401V7.0401H5.12012V7.6801H5.76011V8.96009H6.40035V9.60008H7.04035V8.96009H7.68034V9.60008H7.04035V10.8801H7.68034V11.5201H8.32034V10.2401H8.96033V11.5201H9.60033V10.8801H10.2403V11.5201H9.60033V12.1601H8.96009V14.08H7.68034V14.72H8.96009V15.36H7.68034V16H10.8803V15.36H10.2403V14.72H9.60033V12.8001H10.2403V13.4401H10.8803V14.08H11.5203V13.4401H13.4403V14.08H14.0803V13.4401H14.7203V12.8001H14.0803V11.5201H13.4403V10.8801H16.0003V10.8801ZM10.2403 10.2401H9.60033V9.60008H10.2403V10.2401ZM12.8003 12.8001H10.8803V10.8801H12.8003V12.8001Z" fill="#333333"/>
<path d="M7.68003 11.52H7.04004V12.8H7.68003V11.52Z" fill="#333333"/>
<path d="M12.1598 11.52H11.5195V12.1603H12.1598V11.52Z" fill="#333333"/>
<path d="M16.0003 11.52H15.3604V12.8H16.0003V11.52Z" fill="#333333"/>
<path d="M0 11.52V16H4.47996V11.52H0ZM3.83997 15.36H0.639995V12.16H3.83997V15.36Z" fill="#333333"/>
<path d="M5.12012 12.1599H6.40011V13.4399H7.0401V14.0799H6.40011V14.7199H5.76011V12.7999H5.12012V12.1599Z" fill="#333333"/>
<path d="M3.20026 12.8H1.28027V14.72H3.20026V12.8Z" fill="#333333"/>
<path d="M8.31968 12.8H7.67969V13.44H8.31968V12.8Z" fill="#333333"/>
<path d="M16.0003 13.4399H15.3604V15.9999H16.0003V13.4399Z" fill="#333333"/>
<path d="M10.8805 14.0801H10.2402V14.7201H10.8805V14.0801Z" fill="#333333"/>
<path d="M11.5195 14.0801H12.7995V14.7201H14.0795V16.0001H13.4395V15.3601H12.1595V16.0001H11.5195V14.0801Z" fill="#333333"/>
<path d="M14.7201 14.0801H14.0801V14.7201H14.7201V14.0801Z" fill="#333333"/>
<path d="M7.68003 14.72H7.04004V15.3602H7.68003V14.72Z" fill="#333333"/>
<path d="M6.39976 15.3601H5.75977V16.0001H6.39976V15.3601Z" fill="#333333"/>
</svg>
