<svg width="61" height="61" viewBox="0 0 61 61" fill="none" xmlns="http://www.w3.org/2000/svg">
<g filter="url(#filter0_d)">
<circle cx="30.5" cy="30.5" r="27.5" fill="#F9B84E"/>
</g>
<path d="M30.3692 29.8056C30.3996 29.8056 30.43 29.8056 30.4664 29.8056C30.4786 29.8056 30.4907 29.8056 30.5029 29.8056C30.5211 29.8056 30.5454 29.8056 30.5636 29.8056C32.3434 29.7752 33.783 29.1496 34.8461 27.9529C37.1847 25.3166 36.796 20.7973 36.7534 20.366C36.6016 17.1283 35.0708 15.5793 33.8073 14.8565C32.8658 14.3159 31.7663 14.0243 30.5393 14H30.4968C30.4907 14 30.4786 14 30.4725 14H30.436C29.7618 14 28.4376 14.1093 27.168 14.8322C25.8924 15.555 24.3373 17.104 24.1855 20.366C24.1429 20.7973 23.7542 25.3166 26.0928 27.9529C27.1498 29.1496 28.5894 29.7752 30.3692 29.8056ZM25.8073 20.5178C25.8073 20.4996 25.8134 20.4814 25.8134 20.4692C26.0139 16.1139 29.1057 15.6462 30.43 15.6462H30.4543C30.4664 15.6462 30.4846 15.6462 30.5029 15.6462C32.143 15.6826 34.9311 16.3508 35.1194 20.4692C35.1194 20.4875 35.1194 20.5057 35.1255 20.5178C35.1316 20.5604 35.5568 24.691 33.6251 26.8656C32.8597 27.7282 31.8392 28.1534 30.4968 28.1655C30.4846 28.1655 30.4786 28.1655 30.4664 28.1655C30.4543 28.1655 30.4482 28.1655 30.436 28.1655C29.0997 28.1534 28.0731 27.7282 27.3138 26.8656C25.3882 24.7031 25.8013 20.5543 25.8073 20.5178Z" fill="white"/>
<path d="M42.9493 37.301C42.9493 37.2949 42.9493 37.2888 42.9493 37.2828C42.9493 37.2342 42.9432 37.1856 42.9432 37.1309C42.9067 35.9282 42.8278 33.1157 40.1915 32.2167C40.1733 32.2106 40.149 32.2045 40.1307 32.1985C37.3912 31.4999 35.1133 29.9205 35.089 29.9023C34.7184 29.6411 34.2082 29.7322 33.947 30.1028C33.6858 30.4733 33.7769 30.9836 34.1474 31.2448C34.2507 31.3177 36.6683 33.0003 39.6934 33.7778C41.1087 34.282 41.2667 35.7945 41.3092 37.1795C41.3092 37.2342 41.3092 37.2828 41.3152 37.3314C41.3213 37.8781 41.2849 38.7224 41.1877 39.2084C40.2036 39.7672 36.3464 41.6989 30.4785 41.6989C24.6349 41.6989 20.7534 39.7611 19.7632 39.2023C19.666 38.7163 19.6235 37.872 19.6357 37.3253C19.6357 37.2767 19.6417 37.2281 19.6417 37.1734C19.6843 35.7884 19.8422 34.2759 21.2575 33.7717C24.2826 32.9942 26.7002 31.3055 26.8035 31.2387C27.174 30.9775 27.2651 30.4672 27.0039 30.0967C26.7427 29.7262 26.2325 29.6351 25.8619 29.8963C25.8376 29.9145 23.5719 31.4938 20.8202 32.1924C20.7959 32.1985 20.7777 32.2045 20.7594 32.2106C18.1231 33.1157 18.0442 35.9282 18.0077 37.1248C18.0077 37.1795 18.0077 37.2281 18.0017 37.2767C18.0017 37.2828 18.0017 37.2888 18.0017 37.2949C17.9956 37.6108 17.9895 39.2326 18.3114 40.0466C18.3722 40.2046 18.4815 40.3382 18.6273 40.4293C18.8096 40.5508 23.1771 43.3329 30.4846 43.3329C37.7921 43.3329 42.1596 40.5447 42.3418 40.4293C42.4815 40.3382 42.5969 40.2046 42.6577 40.0466C42.9614 39.2387 42.9553 37.6169 42.9493 37.301Z" fill="white"/>
<circle cx="41.0415" cy="42.0415" r="6.0415" fill="#112C45"/>
<path fill-rule="evenodd" clip-rule="evenodd" d="M41.7126 41.3696H45.069V42.7121H41.7126V46.0685H40.3701V42.7121H37.0137V41.3696H40.3701V38.0132H41.7126V41.3696Z" fill="white"/>
<defs>
<filter id="filter0_d" x="0" y="0" width="61" height="61" filterUnits="userSpaceOnUse" color-interpolation-filters="sRGB">
<feFlood flood-opacity="0" result="BackgroundImageFix"/>
<feColorMatrix in="SourceAlpha" type="matrix" values="0 0 0 0 0 0 0 0 0 0 0 0 0 0 0 0 0 0 127 0"/>
<feOffset/>
<feGaussianBlur stdDeviation="1.5"/>
<feColorMatrix type="matrix" values="0 0 0 0 0 0 0 0 0 0 0 0 0 0 0 0 0 0 0.3 0"/>
<feBlend mode="normal" in2="BackgroundImageFix" result="effect1_dropShadow"/>
<feBlend mode="normal" in="SourceGraphic" in2="effect1_dropShadow" result="shape"/>
</filter>
</defs>
</svg>
