<svg width="19" height="19" viewBox="0 0 19 19" fill="none" xmlns="http://www.w3.org/2000/svg">
<path d="M8.79431 13.7756C8.65391 13.6725 8.45635 13.7026 8.35317 13.8431L8.3142 13.8961C8.21113 14.0365 8.24114 14.2338 8.38135 14.337C8.43768 14.3786 8.5033 14.3986 8.56831 14.3986C8.66503 14.3986 8.76051 14.3543 8.82235 14.2705L8.8619 14.2167C8.96504 14.0763 8.93478 13.8787 8.79431 13.7756Z" fill="#112C45"/>
<path d="M8.87688 16.778L8.06522 15.3021L8.82303 14.27C8.92624 14.1295 8.89594 13.932 8.75544 13.8288C8.61496 13.7256 8.41744 13.7559 8.3143 13.8965L7.4372 15.091C7.36446 15.19 7.35586 15.3222 7.41503 15.4299L8.32385 17.0822V17.0821C8.38134 17.1866 8.48929 17.2457 8.60067 17.2457C8.65211 17.2457 8.70425 17.2331 8.75248 17.2066C8.90517 17.1226 8.96088 16.9307 8.87688 16.778Z" fill="#112C45"/>
<path d="M11.2283 15.0909L10.3547 13.9013C10.2823 13.8026 10.1595 13.7547 10.0394 13.7785C9.91938 13.8021 9.82382 13.893 9.79415 14.0117C9.77136 14.1028 9.79036 14.1993 9.84595 14.275L10.6 15.3021L9.79393 16.7679C9.76834 16.8145 9.75488 16.867 9.75488 16.9202C9.75488 17.0642 9.85244 17.19 9.99197 17.2258C10.0181 17.2326 10.0445 17.2358 10.0705 17.2358C10.1835 17.2358 10.2906 17.1749 10.347 17.0723L11.2504 15.4299C11.3096 15.3222 11.3009 15.19 11.2283 15.0909Z" fill="#112C45"/>
<path d="M11.7303 10.1309C11.6265 10.0764 11.5011 10.0839 11.4045 10.1504C11.2168 10.2798 11.0426 10.4168 10.8867 10.5576C10.0374 11.3254 9.2305 11.2215 9.19889 11.217C9.17986 11.214 9.1605 11.2126 9.14136 11.2132C8.8057 11.2218 8.2005 10.9151 7.56026 10.4123C7.46234 10.3354 7.36193 10.2621 7.26167 10.1944C7.16499 10.1291 7.04005 10.1225 6.93702 10.1773C6.83395 10.2321 6.76953 10.3393 6.76953 10.456V11.5386C6.76953 11.6344 6.8131 11.7249 6.88776 11.7848C6.89659 11.7919 6.90577 11.7985 6.91525 11.8045L9.15307 13.2999C9.15343 13.3001 9.15376 13.3004 9.15412 13.3006L9.16003 13.3046C9.21271 13.3394 9.27341 13.357 9.33433 13.357C9.38559 13.357 9.43685 13.3446 9.4837 13.3196C9.49358 13.3143 9.50306 13.3085 9.51218 13.3023C9.51323 13.3016 9.51429 13.3009 9.51538 13.3002C9.51662 13.2994 9.51786 13.2985 9.5191 13.2977L11.7516 11.8059C11.7606 11.8002 11.7693 11.7941 11.7778 11.7875C11.8544 11.7277 11.8991 11.636 11.8991 11.5388V10.4104C11.8991 10.293 11.8342 10.1855 11.7303 10.1309ZM11.2679 11.3698L9.3343 12.6619L7.40072 11.3698V11.0828C7.87154 11.4249 8.56413 11.8446 9.12868 11.8446C9.12984 11.8446 9.13116 11.8446 9.13236 11.8446C9.3219 11.8655 10.2885 11.9225 11.268 11.0633V11.3698H11.2679Z" fill="#112C45"/>
<path d="M9.64431 12.9898C9.6235 12.8646 9.52969 12.7641 9.40624 12.7346C9.28273 12.7054 9.15374 12.7526 9.07864 12.8549L8.35324 13.8429C8.25006 13.9834 8.28032 14.1809 8.42086 14.2841C8.47712 14.3254 8.54252 14.3453 8.60738 14.3453C8.70443 14.3453 8.80017 14.3007 8.86208 14.2164L9.58368 13.2336C9.62474 13.1799 9.64865 13.1131 9.64865 13.0418C9.64862 13.0244 9.64716 13.0069 9.64431 12.9898Z" fill="#112C45"/>
<path d="M14.1418 2.81571C14.1355 2.76627 13.9877 1.6993 12.9834 1.27839C13.0125 1.091 13.0095 0.850158 12.8905 0.615844C12.7306 0.300922 12.415 0.0957016 11.9526 0.00579679C11.9327 0.00193226 11.9126 0 11.8924 0H7.65647C5.93647 0 4.53711 1.39932 4.53711 3.1194V4.78154C4.53711 5.21459 4.68473 5.63688 4.95269 5.97054C5.08554 6.13599 5.24917 6.42491 5.27385 6.86175C5.28347 7.0323 5.42624 7.1641 5.59785 7.15936C5.76862 7.15454 5.90453 7.01469 5.90453 6.84389V4.67684C6.11883 3.79059 6.85021 3.6181 6.97595 3.59481H8.34611C8.50729 3.59481 8.66577 3.5702 8.81725 3.52164C9.07778 3.43808 9.4911 3.2843 9.79202 3.17C9.99334 3.09348 10.2162 3.09067 10.4196 3.16213L11.8864 3.67706C12.6197 3.94757 12.7506 4.59134 12.7668 4.69248V7.29327C12.7668 7.45846 12.8942 7.5955 13.0589 7.60779C13.0669 7.60837 13.0748 7.6087 13.0827 7.6087C13.2375 7.60866 13.3711 7.49524 13.3946 7.33982C13.3958 7.33169 13.5218 6.5177 13.9282 5.86598C14.0695 5.6391 14.1443 5.38044 14.1443 5.11794V2.85555C14.1443 2.84225 14.1435 2.82894 14.1418 2.81571ZM13.5131 5.11779C13.5131 5.25878 13.4733 5.39863 13.398 5.52299V4.6709C13.398 4.65948 13.3974 4.64815 13.3961 4.63681C13.3912 4.59098 13.2608 3.50942 12.1019 3.08374C12.1005 3.08323 12.0991 3.08272 12.0977 3.08221L10.6286 2.56648C10.463 2.50833 10.2897 2.47931 10.1165 2.47931C9.93031 2.47931 9.74419 2.51289 9.56784 2.57997C9.14654 2.74002 8.82028 2.85781 8.62446 2.92059C8.5354 2.94914 8.44174 2.96365 8.34607 2.96365H6.95043C6.93691 2.96365 6.92334 2.96453 6.90989 2.96624C6.85648 2.97317 5.5977 3.15217 5.28092 4.57202C5.27589 4.59459 5.27334 4.61763 5.27334 4.64074V5.29028C5.20461 5.13147 5.16823 4.958 5.16823 4.78158V3.11947C5.16823 1.74749 6.28446 0.631266 7.6564 0.631266H11.8605C12.0346 0.668344 12.2461 0.744431 12.3263 0.899231C12.4246 1.0887 12.3127 1.34959 12.3126 1.34981C12.2722 1.43567 12.2727 1.53509 12.3137 1.62058C12.3547 1.70608 12.4321 1.76857 12.5243 1.79077C13.3278 1.98418 13.4917 2.75478 13.513 2.87943V5.11779H13.5131Z" fill="#112C45"/>
<path d="M13.3953 4.63697C13.3903 4.59114 13.2599 3.50959 12.1011 3.0839C12.0997 3.08339 12.0983 3.08288 12.0968 3.08237L10.6278 2.56664C10.284 2.44597 9.9073 2.45078 9.56697 2.58006C9.14566 2.74011 8.8194 2.8579 8.62359 2.92072C8.53452 2.94927 8.44086 2.96374 8.34519 2.96374H6.94955C6.93603 2.96374 6.92247 2.96461 6.90901 2.96633C6.8556 2.97326 5.59683 3.15226 5.28004 4.57211C5.27501 4.59468 5.27246 4.61772 5.27246 4.64083V7.35387C5.27246 7.35621 5.2725 7.35854 5.27253 7.36087C5.27461 7.45512 5.34129 9.68076 6.87908 10.6986L6.88703 10.7042C6.89363 10.7089 6.90023 10.7136 6.90712 10.7182C6.9948 10.7774 7.08284 10.8417 7.16896 10.9093C7.61695 11.2611 8.4612 11.8451 9.12721 11.8451C9.12845 11.8451 9.12962 11.8451 9.1309 11.8451C9.16706 11.8491 9.23163 11.8544 9.3192 11.8544C9.69665 11.8544 10.5019 11.7555 11.3085 11.0264C11.4439 10.9041 11.5961 10.7844 11.7611 10.6707L11.7847 10.6542C11.7924 10.6488 11.8001 10.6433 11.808 10.638C12.321 10.2935 13.2094 9.40448 13.3959 7.3215C13.3967 7.31217 13.3972 7.30272 13.3972 7.29332V4.67106C13.3971 4.65968 13.3965 4.64834 13.3953 4.63697ZM12.7659 7.27906C12.5939 9.1589 11.793 9.88765 11.4561 10.1139C11.4441 10.122 11.4323 10.1303 11.4205 10.1386L11.403 10.151C11.2153 10.2803 11.0411 10.4173 10.8852 10.5581C10.0391 11.3231 9.2348 11.2227 9.19535 11.2172C9.17701 11.2145 9.15842 11.2133 9.13986 11.2138C8.8042 11.2224 8.199 10.9157 7.55876 10.4129C7.46084 10.3359 7.36043 10.2627 7.26032 10.1951L7.25256 10.1896C7.24497 10.1842 7.23743 10.1789 7.22853 10.173C5.98758 9.35161 5.90639 7.42952 5.90365 7.34932V4.67696C6.11872 3.78747 6.85462 3.61695 6.97456 3.59493H8.34523C8.50641 3.59493 8.66489 3.57032 8.81637 3.52176C9.0769 3.4382 9.49026 3.28442 9.79115 3.17013C9.99247 3.0936 10.2154 3.0908 10.4187 3.16225L11.8855 3.67718C12.6188 3.9477 12.7497 4.59147 12.766 4.6926V7.27906H12.7659Z" fill="#112C45"/>
<path d="M9.61562 12.9005C9.56644 12.8021 9.46961 12.7365 9.36006 12.7272C9.25068 12.7181 9.14401 12.7662 9.07893 12.8549L8.32294 13.8845C8.21988 14.0249 8.24999 14.2223 8.39032 14.3255C8.44661 14.367 8.51212 14.387 8.57705 14.387C8.67388 14.387 8.76948 14.3425 8.83135 14.2586L9.58737 13.2327C9.62736 13.1785 9.64895 13.1091 9.64895 13.0417C9.64898 12.9928 9.6375 12.9444 9.61562 12.9005Z" fill="#112C45"/>
<path d="M9.63533 17.9818C9.51677 17.8578 9.32088 17.8512 9.1943 17.967L9.12215 18.033C9.01413 18.1318 8.98821 18.2919 9.05959 18.4197L9.06182 18.4237C9.11001 18.51 9.19598 18.5688 9.29394 18.5824C9.30845 18.5844 9.32296 18.5854 9.3374 18.5854C9.42049 18.5854 9.50095 18.5526 9.56056 18.4929L9.63045 18.423C9.75174 18.3017 9.75393 18.1057 9.63533 17.9818Z" fill="#112C45"/>
<path d="M9.54411 18.033L9.47196 17.967C9.34538 17.8512 9.14945 17.8578 9.03089 17.9817C8.91229 18.1058 8.91448 18.3018 9.03581 18.4231L9.10581 18.493C9.16542 18.5526 9.24585 18.5854 9.32893 18.5854C9.34377 18.5854 9.35868 18.5844 9.37359 18.5823C9.47188 18.5682 9.55785 18.5087 9.60565 18.4216L9.60787 18.4177C9.6778 18.2901 9.65147 18.1311 9.54411 18.033Z" fill="#112C45"/>
<path d="M9.54959 18.0381L9.54919 18.0377C9.50045 17.9922 9.43741 17.9621 9.36796 17.9545C9.27496 17.9444 9.18436 17.9759 9.11848 18.0372L9.11753 18.0381C9.05373 18.0963 9.01658 18.1781 9.01472 18.2645C9.01286 18.3509 9.04648 18.4342 9.10769 18.4951L9.11101 18.4984C9.17258 18.5596 9.25305 18.5902 9.33354 18.5902C9.41433 18.5902 9.49509 18.5593 9.55666 18.4978L9.55998 18.4945C9.62094 18.4335 9.65433 18.3503 9.65233 18.2641C9.65043 18.1778 9.61328 18.0962 9.54959 18.0381Z" fill="#112C45"/>
<path d="M9.43528 12.7361C9.30458 12.6942 9.16115 12.7428 9.08156 12.8547C8.99253 12.98 9.00723 13.1508 9.11569 13.2598C9.17672 13.3211 9.25773 13.3525 9.33936 13.3525C9.40276 13.3525 9.46648 13.3336 9.52146 13.2949C9.60546 13.2358 9.65544 13.1395 9.65544 13.0368V13.036C9.65544 12.8987 9.56612 12.7778 9.43528 12.7361Z" fill="#112C45"/>
<path d="M9.58866 12.8528L9.58596 12.8492C9.50499 12.7396 9.3628 12.6944 9.23342 12.7371C9.10403 12.7797 9.0166 12.9006 9.0166 13.0368V13.0422C9.0166 13.1584 9.08182 13.2643 9.1842 13.3193C9.23057 13.3442 9.28176 13.3564 9.33287 13.3564C9.39452 13.3564 9.4561 13.3386 9.50904 13.3035C9.58119 13.2558 9.63059 13.1804 9.64564 13.0952C9.6607 13.0101 9.6401 12.9224 9.58866 12.8528Z" fill="#112C45"/>
<path d="M13.0866 11.8613C13.0539 11.7748 12.9849 11.7071 12.8979 11.676L11.6879 11.2422C11.678 11.2387 11.6679 11.2356 11.6577 11.2331C11.5714 11.2115 11.4799 11.2273 11.4059 11.2768L9.16378 12.775C9.16319 12.7754 9.16254 12.7758 9.16192 12.7763L9.33797 13.038L9.15798 12.7789C9.09221 12.8224 9.04511 12.8891 9.026 12.9656C9.0155 13.0076 9.01379 13.0514 9.0209 13.0941C9.02903 13.1429 9.0485 13.1891 9.07781 13.2291L10.7193 15.4647C10.779 15.546 10.8736 15.5935 10.9736 15.5935C10.9805 15.5935 10.9874 15.5933 10.9943 15.5928C11.1018 15.5857 11.1983 15.5244 11.2502 15.43L13.0679 12.1251C13.1125 12.0441 13.1193 11.9477 13.0866 11.8613ZM10.9354 14.6926L9.78174 13.1212L11.6244 11.8899L12.3365 12.1453L10.9354 14.6926Z" fill="#112C45"/>
<path d="M9.64335 12.9877C9.62851 12.9029 9.57977 12.8279 9.50831 12.78L7.25876 11.2768C7.18715 11.2289 7.09889 11.2125 7.01478 11.2312C7.00188 11.234 6.98919 11.2377 6.97676 11.2422L5.76669 11.6759C5.6797 11.7071 5.61076 11.7748 5.57806 11.8613C5.54535 11.9477 5.55213 12.0441 5.59669 12.1251L7.41436 15.4299C7.46627 15.5243 7.56278 15.5857 7.67029 15.5928C7.67715 15.5932 7.68404 15.5934 7.69089 15.5934C7.79093 15.5934 7.88554 15.5459 7.94529 15.4646L8.82239 14.27C8.82309 14.2691 8.82378 14.2681 8.82447 14.2671L9.58684 13.2288C9.63773 13.1594 9.65815 13.0724 9.64335 12.9877ZM8.31366 13.8963C8.3129 13.8973 8.31217 13.8984 8.3114 13.8994L7.72906 14.6925L6.32799 12.1452L7.04016 11.8899L8.88277 13.1212L8.31366 13.8963Z" fill="#112C45"/>
<path d="M18.6511 17.2487L18.244 14.7902C18.1157 14.0154 17.5773 13.3681 16.8388 13.101L12.9001 11.6761C12.7787 11.6322 12.6429 11.6666 12.5571 11.7629C12.4713 11.8593 12.4527 11.9982 12.5103 12.1137L13.3327 13.7628L12.5258 13.7753C12.4162 13.777 12.3153 13.8353 12.2594 13.9295C12.2034 14.0237 12.2002 14.1402 12.2511 14.2373L12.582 14.8692L9.19499 17.9676C9.19152 17.9708 9.18813 17.974 9.18481 17.9773L9.11489 18.0472C9.01583 18.1463 8.99392 18.2989 9.06119 18.4218L9.06366 18.4263C9.11904 18.5275 9.22521 18.5904 9.34056 18.5904H17.5133C17.8529 18.5904 18.1735 18.4419 18.393 18.183C18.6125 17.9241 18.7066 17.5835 18.6511 17.2487ZM17.9117 17.7748C17.8122 17.892 17.667 17.9593 17.5134 17.9593H10.1392L13.1875 15.1708C13.2932 15.0742 13.3205 14.9185 13.254 14.7916L13.0481 14.3984L13.8439 14.3862C13.9523 14.3845 14.0523 14.3273 14.1087 14.2346C14.165 14.1419 14.1698 14.0269 14.1214 13.9298L13.4274 12.538L16.6242 13.6945C17.1483 13.8841 17.5304 14.3435 17.6215 14.8933L18.0286 17.3517C18.0286 17.3518 18.0286 17.3518 18.0286 17.3518C18.0537 17.5034 18.0111 17.6575 17.9117 17.7748Z" fill="#112C45"/>
<path d="M9.55095 18.041L9.54726 18.0377C9.42236 17.9246 9.23052 17.9296 9.11167 18.0491L9.10839 18.0524C9.01852 18.1428 8.99187 18.2785 9.04079 18.3962C9.08976 18.5139 9.20474 18.5905 9.3322 18.5905H9.33913C9.46961 18.5905 9.58667 18.5102 9.63356 18.3885C9.68055 18.2667 9.6477 18.1286 9.55095 18.041Z" fill="#112C45"/>
<path d="M9.5426 18.0312C9.47096 17.9667 9.3738 17.9385 9.27864 17.9547C9.1836 17.9708 9.10113 18.0295 9.05476 18.114L9.05257 18.118C8.98603 18.2393 9.00627 18.3898 9.10248 18.4892L9.10361 18.4904C9.16544 18.5543 9.24784 18.5865 9.33045 18.5865C9.40646 18.5865 9.4827 18.5592 9.54307 18.504L9.54639 18.501C9.57504 18.4749 9.59867 18.4437 9.61602 18.4089C9.67957 18.282 9.64814 18.1261 9.5426 18.0312Z" fill="#112C45"/>
<path d="M9.55566 18.0511L9.55435 18.0498C9.55351 18.0489 9.55264 18.048 9.55183 18.0472L9.48183 17.9773C9.47855 17.974 9.47516 17.9707 9.47174 17.9677L6.0847 14.8692L6.4157 14.2373C6.46656 14.1402 6.46339 14.0238 6.40742 13.9296C6.35142 13.8354 6.25058 13.777 6.14103 13.7753L5.33403 13.7629L6.15638 12.1137C6.21398 11.9982 6.19538 11.8593 6.1096 11.7629C6.02381 11.6666 5.8879 11.6321 5.7666 11.6761L1.82796 13.1011C1.08947 13.3681 0.550994 14.0154 0.422699 14.7902L0.0155748 17.2487C-0.0398775 17.5837 0.0542565 17.9242 0.273805 18.1831C0.49339 18.442 0.814036 18.5905 1.15346 18.5905H9.3332C9.46102 18.5905 9.57619 18.5134 9.6249 18.3952C9.67364 18.2771 9.64629 18.1412 9.55566 18.0511ZM1.15349 17.9593C0.999789 17.9593 0.854614 17.8921 0.75523 17.7748C0.655846 17.6576 0.613263 17.5034 0.638346 17.3518L1.04547 14.8933C1.13651 14.3434 1.51862 13.8841 2.0427 13.6945L5.2395 12.538L4.54549 13.9297C4.49707 14.0268 4.50188 14.1419 4.55829 14.2346C4.61461 14.3273 4.71462 14.3845 4.82308 14.3861L5.6188 14.3984L5.41289 14.7916C5.34643 14.9184 5.37377 15.0742 5.47943 15.1708L8.5277 17.9593H1.15349Z" fill="#112C45"/>
<path d="M10.4071 14.164C10.4299 14.0729 10.4109 13.9764 10.3553 13.9007L9.58731 12.8547C9.50659 12.7448 9.36426 12.7011 9.23469 12.7436C9.16473 12.7665 9.10709 12.8128 9.06874 12.872L8.31475 13.895C8.30396 13.9096 8.29437 13.9253 8.28624 13.9415C8.23458 14.0449 8.24351 14.1682 8.3095 14.263L8.63059 14.7241L8.28854 16.8801C8.27757 16.9493 8.28996 17.0202 8.32372 17.0816L9.05645 18.4138C9.1119 18.5147 9.21792 18.5774 9.33298 18.5774C9.44808 18.5774 9.55406 18.5147 9.60951 18.4138L10.3477 17.0718C10.3733 17.0252 10.3868 16.9729 10.3868 16.9197V16.9195C10.3868 16.903 10.3854 16.8864 10.3829 16.87L10.0424 14.7241L10.36 14.2681C10.3818 14.2366 10.3979 14.2012 10.4071 14.164ZM9.33298 17.6069L8.92885 16.8722L9.27388 14.6975C9.28668 14.617 9.26776 14.5346 9.22117 14.4677L8.9567 14.0879L9.33389 13.5761L9.71305 14.0925L9.45176 14.4677C9.40517 14.5346 9.38628 14.617 9.39904 14.6975L9.74251 16.8623L9.33298 17.6069Z" fill="#112C45"/>
</svg>
