<svg width="61" height="61" viewBox="0 0 61 61" fill="none" xmlns="http://www.w3.org/2000/svg">
<g filter="url(#filter0_d)">
<circle cx="30.5" cy="30.5" r="27.5" fill="#F9B84E"/>
</g>
<path fill-rule="evenodd" clip-rule="evenodd" d="M24.0838 28.6698C23.8766 28.6693 23.6768 28.6928 23.487 28.7374C23.2268 28.1639 22.8832 27.6494 22.4923 27.2585C21.8288 26.5951 20.7825 26.3335 19.334 26.3335V28.6668C20.2188 28.6668 20.728 28.7941 20.8424 28.9085C21.2833 29.3494 21.6673 30.2454 21.6673 31.0002L21.679 31.1652L22.8222 39.1674C20.9094 39.2667 19.4275 40.7521 19.3354 42.609L19.334 43.8335C19.4469 45.7514 20.9239 47.2268 22.7678 47.3316L23.0326 47.332C23.5127 48.6922 24.8095 49.6668 26.334 49.6668C27.8579 49.6668 29.1544 48.6929 29.6348 47.3335H32.3665C32.8469 48.6929 34.1434 49.6668 35.6673 49.6668C37.6003 49.6668 39.1673 48.0998 39.1673 46.1668C39.1673 44.2338 37.6003 42.6668 35.6673 42.6668C34.1434 42.6668 32.8469 43.6408 32.3665 45.0002H29.6348C29.1544 43.6408 27.8579 42.6668 26.334 42.6668C24.8101 42.6668 23.5136 43.6408 23.0331 45.0002H22.834C22.239 44.9645 21.7053 44.4313 21.6652 43.7636L21.6673 42.6668C21.6988 42.0617 22.2288 41.5316 22.8918 41.4987L25.195 41.4993L25.2117 41.5002H36.9703L37.1425 41.4455C38.0271 41.1648 38.7352 40.4987 39.0705 39.6364L39.1934 39.3932L39.5928 38.602C40.0059 37.7831 40.419 36.9627 40.8216 36.1613C41.8077 34.1981 42.4279 32.9504 42.5652 32.6441C43.2705 31.0707 41.8418 29.8597 40.3815 29.8339L24.0838 28.6698ZM36.565 39.1668H25.299C25.2241 39.146 25.167 39.0825 25.1558 39.0035L24.0126 31.001L40.2096 32.1609C39.9262 32.7389 39.411 33.7712 38.7365 35.1139L38.7196 35.1476C38.3346 35.914 37.9221 36.7332 37.5095 37.5511L37.1107 38.3412L36.9595 38.6405L36.9026 38.7728C36.8416 38.9425 36.7206 39.0821 36.565 39.1668ZM35.6673 47.3335C36.3116 47.3335 36.834 46.8112 36.834 46.1668C36.834 45.5225 36.3116 45.0002 35.6673 45.0002C35.023 45.0002 34.5007 45.5225 34.5007 46.1668C34.5007 46.8112 35.023 47.3335 35.6673 47.3335ZM27.5007 46.1668C27.5007 46.8112 26.9783 47.3335 26.334 47.3335C25.6897 47.3335 25.1673 46.8112 25.1673 46.1668C25.1673 45.5225 25.6897 45.0002 26.334 45.0002C26.9783 45.0002 27.5007 45.5225 27.5007 46.1668Z" fill="white"/>
<defs>
<filter id="filter0_d" x="0" y="0" width="61" height="61" filterUnits="userSpaceOnUse" color-interpolation-filters="sRGB">
<feFlood flood-opacity="0" result="BackgroundImageFix"/>
<feColorMatrix in="SourceAlpha" type="matrix" values="0 0 0 0 0 0 0 0 0 0 0 0 0 0 0 0 0 0 127 0"/>
<feOffset/>
<feGaussianBlur stdDeviation="1.5"/>
<feColorMatrix type="matrix" values="0 0 0 0 0 0 0 0 0 0 0 0 0 0 0 0 0 0 0.3 0"/>
<feBlend mode="normal" in2="BackgroundImageFix" result="effect1_dropShadow"/>
<feBlend mode="normal" in="SourceGraphic" in2="effect1_dropShadow" result="shape"/>
</filter>
</defs>
</svg>
