<svg width="12" height="14" viewBox="0 0 12 14" fill="none" xmlns="http://www.w3.org/2000/svg">
<path d="M5.87257 5.37841C5.70195 5.20778 5.42457 5.20691 5.25307 5.37753L3.81282 6.81866L3.24757 6.25253C3.07695 6.08191 2.79957 6.08191 2.62895 6.25253C2.45832 6.42316 2.45832 6.70053 2.62895 6.87116L3.50395 7.74616C3.58882 7.83191 3.70082 7.87478 3.81282 7.87478C3.92482 7.87478 4.03682 7.83191 4.12257 7.74703L5.87257 5.99703C6.0432 5.82641 6.0432 5.54903 5.87257 5.37841Z" fill="black"/>
<path d="M5.87257 8.87841C5.70195 8.70778 5.42457 8.70691 5.25307 8.87753L3.81282 10.3187L3.24757 9.75341C3.07695 9.58278 2.79957 9.58278 2.62895 9.75341C2.45832 9.92403 2.45832 10.2014 2.62895 10.372L3.50395 11.247C3.58882 11.3319 3.70082 11.3748 3.81282 11.3748C3.92482 11.3748 4.03682 11.3319 4.12257 11.247L5.87257 9.49703C6.0432 9.32641 6.0432 9.04903 5.87257 8.87841Z" fill="black"/>
<path d="M9.0625 6.125H7.3125C7.071 6.125 6.875 6.321 6.875 6.5625C6.875 6.804 7.071 7 7.3125 7H9.0625C9.304 7 9.5 6.804 9.5 6.5625C9.5 6.321 9.304 6.125 9.0625 6.125Z" fill="black"/>
<path d="M9.0625 9.625H7.3125C7.071 9.625 6.875 9.821 6.875 10.0625C6.875 10.304 7.071 10.5 7.3125 10.5H9.0625C9.304 10.5 9.5 10.304 9.5 10.0625C9.5 9.821 9.304 9.625 9.0625 9.625Z" fill="black"/>
<path d="M10.375 1.75H8.625V1.3125C8.625 1.071 8.429 0.875 8.1875 0.875H7.23812C7.057 0.36575 6.5705 0 6 0C5.4295 0 4.943 0.36575 4.76188 0.875H3.8125C3.571 0.875 3.375 1.071 3.375 1.3125V1.75H1.625C1.14288 1.75 0.75 2.14287 0.75 2.625V13.125C0.75 13.6071 1.14288 14 1.625 14H10.375C10.8571 14 11.25 13.6071 11.25 13.125V2.625C11.25 2.14287 10.8571 1.75 10.375 1.75ZM4.25 1.75H5.125C5.3665 1.75 5.5625 1.554 5.5625 1.3125C5.5625 1.071 5.7585 0.875 6 0.875C6.2415 0.875 6.4375 1.071 6.4375 1.3125C6.4375 1.554 6.6335 1.75 6.875 1.75H7.75V2.625H4.25V1.75ZM10.375 13.125H1.625V2.625H3.375V3.0625C3.375 3.304 3.571 3.5 3.8125 3.5H8.1875C8.429 3.5 8.625 3.304 8.625 3.0625V2.625H10.375V13.125Z" fill="black"/>
</svg>
