<svg width="14" height="14" viewBox="0 0 14 14" fill="none" xmlns="http://www.w3.org/2000/svg">
<path d="M7 0C3.1402 0 0 3.1402 0 7C0 10.8598 3.1402 14 7 14C10.8598 14 14 10.8598 14 7C14 3.1402 10.8598 0 7 0ZM7 12.5105C3.96153 12.5105 1.48934 10.0386 1.48934 7C1.48934 3.96138 3.96153 1.48948 7 1.48948C10.0385 1.48948 12.5107 3.96138 12.5107 7C12.5107 10.0386 10.0385 12.5105 7 12.5105Z" fill="black"/>
<path d="M10.6482 6.78408H7.50235V3.00166C7.50235 2.68336 7.24428 2.42529 6.92598 2.42529C6.60768 2.42529 6.34961 2.68336 6.34961 3.00166V7.36045C6.34961 7.67875 6.60768 7.93682 6.92598 7.93682H10.6482C10.9665 7.93682 11.2245 7.67875 11.2245 7.36045C11.2245 7.04215 10.9665 6.78408 10.6482 6.78408Z" fill="black"/>
</svg>
