<svg width="13" height="11" viewBox="0 0 13 11" fill="none" xmlns="http://www.w3.org/2000/svg">
<path d="M2.22985 9.23957L2.24487 10.9823L5.2021 8.68833C5.3157 8.60021 5.3725 8.55615 5.43796 8.53003C5.45208 8.5244 5.46645 8.51942 5.48102 8.51509C5.54858 8.49505 5.62048 8.49445 5.76427 8.49326L11.1189 8.44895C11.9263 8.44227 12.33 8.43893 12.6022 8.2171C12.659 8.17075 12.7106 8.11827 12.756 8.06063C12.9732 7.78476 12.9697 7.38105 12.9628 6.57363L12.9222 1.86005C12.9152 1.05263 12.9117 0.648922 12.6898 0.376681C12.6435 0.319797 12.591 0.268187 12.5333 0.222784C12.2574 0.00549027 11.8536 0.00883143 11.0462 0.0155137L1.85994 0.0915405C1.05251 0.0982229 0.648803 0.101564 0.376636 0.323394C0.319767 0.369745 0.268174 0.422216 0.22279 0.47986C0.00558908 0.755735 0.00906684 1.15944 0.0160223 1.96686L0.0602964 7.10636C0.0637776 7.51047 0.0655183 7.71253 0.124465 7.87427C0.227647 8.15738 0.452964 8.37893 0.737781 8.47731C0.900493 8.53352 1.10255 8.53185 1.50667 8.5285C1.70873 8.52683 1.80975 8.52599 1.89111 8.5541C2.03352 8.60329 2.14618 8.71406 2.19777 8.85562C2.22724 8.93649 2.22811 9.03752 2.22985 9.23957Z" fill="#112C45"/>
<ellipse cx="3.58422" cy="4.21697" rx="0.717035" ry="0.702811" fill="white"/>
<ellipse cx="6.45336" cy="4.21697" rx="0.717035" ry="0.702811" fill="white"/>
<ellipse cx="9.32055" cy="4.21697" rx="0.717034" ry="0.702811" fill="white"/>
</svg>
