<svg width="15" height="14" viewBox="0 0 15 14" fill="none" xmlns="http://www.w3.org/2000/svg">
<path d="M3.22985 10.2396L3.24487 11.9823L6.2021 9.68833C6.3157 9.60021 6.3725 9.55615 6.43796 9.53003C6.45208 9.5244 6.46645 9.51942 6.48102 9.51509C6.54858 9.49505 6.62048 9.49445 6.76427 9.49326L12.1189 9.44895C12.9263 9.44227 13.33 9.43893 13.6022 9.2171C13.659 9.17075 13.7106 9.11827 13.756 9.06063C13.9732 8.78476 13.9697 8.38105 13.9628 7.57363L13.9222 2.86005C13.9152 2.05263 13.9117 1.64892 13.6898 1.37668C13.6435 1.3198 13.591 1.26819 13.5333 1.22278C13.2574 1.00549 12.8536 1.00883 12.0462 1.01551L2.85994 1.09154C2.05251 1.09822 1.6488 1.10156 1.37664 1.32339C1.31977 1.36974 1.26817 1.42222 1.22279 1.47986C1.00559 1.75573 1.00907 2.15944 1.01602 2.96686L1.0603 8.10636C1.06378 8.51047 1.06552 8.71253 1.12446 8.87427C1.22765 9.15738 1.45296 9.37893 1.73778 9.47731C1.90049 9.53352 2.10255 9.53185 2.50667 9.5285C2.70873 9.52683 2.80975 9.52599 2.89111 9.5541C3.03352 9.60329 3.14618 9.71406 3.19777 9.85562C3.22724 9.93649 3.22811 10.0375 3.22985 10.2396Z" stroke="#7F7F7F" stroke-width="1.5"/>
<mask id="path-2-inside-1" fill="white">
<ellipse cx="4.58422" cy="5.21697" rx="0.717035" ry="0.702811"/>
</mask>
<ellipse cx="4.58422" cy="5.21697" rx="0.717035" ry="0.702811" fill="#7F7F7F"/>
<path d="M4.30126 5.21697C4.30126 5.03405 4.44693 4.91978 4.58422 4.91978V6.91978C5.51353 6.91978 6.30126 6.1762 6.30126 5.21697H4.30126ZM4.58422 4.91978C4.72152 4.91978 4.86719 5.03405 4.86719 5.21697H2.86719C2.86719 6.1762 3.65491 6.91978 4.58422 6.91978V4.91978ZM4.86719 5.21697C4.86719 5.3999 4.72152 5.51416 4.58422 5.51416V3.51416C3.65491 3.51416 2.86719 4.25774 2.86719 5.21697H4.86719ZM4.58422 5.51416C4.44693 5.51416 4.30126 5.3999 4.30126 5.21697H6.30126C6.30126 4.25774 5.51353 3.51416 4.58422 3.51416V5.51416Z" fill="#7F7F7F" mask="url(#path-2-inside-1)"/>
<mask id="path-4-inside-2" fill="white">
<ellipse cx="7.45336" cy="5.21697" rx="0.717035" ry="0.702811"/>
</mask>
<ellipse cx="7.45336" cy="5.21697" rx="0.717035" ry="0.702811" fill="#7F7F7F"/>
<path d="M7.1704 5.21697C7.1704 5.03405 7.31607 4.91978 7.45336 4.91978V6.91978C8.38267 6.91978 9.1704 6.1762 9.1704 5.21697H7.1704ZM7.45336 4.91978C7.59066 4.91978 7.73633 5.03405 7.73633 5.21697H5.73633C5.73633 6.1762 6.52405 6.91978 7.45336 6.91978V4.91978ZM7.73633 5.21697C7.73633 5.3999 7.59066 5.51416 7.45336 5.51416V3.51416C6.52405 3.51416 5.73633 4.25774 5.73633 5.21697H7.73633ZM7.45336 5.51416C7.31607 5.51416 7.1704 5.3999 7.1704 5.21697H9.1704C9.1704 4.25774 8.38267 3.51416 7.45336 3.51416V5.51416Z" fill="#7F7F7F" mask="url(#path-4-inside-2)"/>
<mask id="path-6-inside-3" fill="white">
<ellipse cx="10.3205" cy="5.21697" rx="0.717034" ry="0.702811"/>
</mask>
<ellipse cx="10.3205" cy="5.21697" rx="0.717034" ry="0.702811" fill="#7F7F7F"/>
<path d="M10.0376 5.21697C10.0376 5.03405 10.1833 4.91978 10.3205 4.91978V6.91978C11.2499 6.91978 12.0376 6.1762 12.0376 5.21697H10.0376ZM10.3205 4.91978C10.4578 4.91978 10.6035 5.03405 10.6035 5.21697H8.60352C8.60352 6.1762 9.39124 6.91978 10.3205 6.91978V4.91978ZM10.6035 5.21697C10.6035 5.3999 10.4578 5.51416 10.3205 5.51416V3.51416C9.39124 3.51416 8.60352 4.25774 8.60352 5.21697H10.6035ZM10.3205 5.51416C10.1833 5.51416 10.0376 5.3999 10.0376 5.21697H12.0376C12.0376 4.25774 11.2499 3.51416 10.3205 3.51416V5.51416Z" fill="#7F7F7F" mask="url(#path-6-inside-3)"/>
</svg>
