<svg width="19" height="19" viewBox="0 0 19 19" fill="none" xmlns="http://www.w3.org/2000/svg">
<path d="M12.1903 12.5946V12.2645C12.2836 12.1891 12.3733 12.1066 12.4594 12.0205C13.1489 11.2612 13.5831 10.305 13.7009 9.28626C14.3206 9.19184 14.8792 8.85975 15.2582 8.3605C15.7785 7.62492 15.8251 6.5664 15.391 5.23877C15.3654 5.16221 15.3149 5.09645 15.2474 5.05218L15.0501 4.91942C15.0792 3.7215 14.6652 2.55498 13.8875 1.64339C12.9223 0.556171 11.4404 0.0071764 9.47761 0C7.51846 0 6.03294 0.556171 5.06771 1.62904C4.29002 2.54062 3.87603 3.70715 3.90514 4.90507L3.70779 5.03783C3.64033 5.0821 3.58978 5.14785 3.56426 5.22442C3.13009 6.55923 3.17673 7.61057 3.69702 8.34615C4.07464 8.8489 4.63318 9.1848 5.2543 9.28267C5.37262 10.3031 5.80814 11.2606 6.49941 12.0205C6.58485 12.1064 6.67465 12.1879 6.76852 12.2645V12.5946C5.39424 12.8601 -0.0921176 14.1483 0.00117564 17.8082C0.00117564 18.0064 0.161837 18.167 0.359996 18.167H18.5988C18.797 18.167 18.9576 18.0064 18.9576 17.8082C19.0509 14.1483 13.5646 12.8601 12.1903 12.5946ZM5.03901 8.4825C4.7341 8.3801 4.46835 8.18585 4.27831 7.92633L4.29625 7.92992C3.93743 7.40604 3.90514 6.61305 4.22449 5.5653L4.48643 5.38947C4.59663 5.31592 4.65731 5.18764 4.64431 5.05577C4.58394 3.98335 4.93275 2.92793 5.6203 2.10268C6.43123 1.18411 7.73375 0.724816 9.47761 0.71764C11.2215 0.710463 12.524 1.18411 13.3493 2.10268C14.0368 2.92793 14.3856 3.98335 14.3253 5.05577C14.3123 5.18764 14.373 5.31592 14.4832 5.38947L14.7451 5.5653C15.0644 6.60946 15.0429 7.40604 14.6733 7.92992C14.482 8.18966 14.2151 8.38391 13.909 8.48609C14.3419 7.99361 14.5533 7.34495 14.4939 6.69199C14.4267 6.29913 14.2219 5.94304 13.9162 5.68729C13.7619 2.0991 11.2466 1.69722 10.163 1.69722C9.93358 1.69655 9.70448 1.71336 9.47761 1.74745C9.25079 1.71332 9.02164 1.69655 8.79227 1.69722C7.71581 1.69722 5.20407 2.09192 5.03901 5.68729C4.73137 5.94098 4.52406 6.29585 4.45413 6.6884C4.3943 7.34141 4.60582 7.99024 5.03901 8.4825ZM13.2022 5.54018C11.6965 5.62719 10.2003 5.25155 8.91427 4.46372C8.76872 4.3615 8.57025 4.38137 8.4478 4.51037C7.73016 5.28183 6.42047 5.46124 5.78894 5.50071C5.98271 2.96385 7.51846 2.41127 8.81021 2.41127C9.01581 2.40979 9.22115 2.42661 9.42379 2.4615C9.47115 2.47119 9.51995 2.47119 9.56732 2.4615C9.76996 2.4267 9.9753 2.40988 10.1809 2.41127C11.4619 2.41127 13.0048 2.9782 13.1842 5.53659L13.2022 5.54018ZM5.91453 8.55068L5.92888 8.55427C5.92965 8.46582 5.89771 8.38019 5.83918 8.31386C5.34759 7.75051 5.12154 7.2374 5.18254 6.81399C5.21178 6.57815 5.32826 6.36183 5.50906 6.20758C5.98271 6.20758 7.66198 6.11788 8.73844 5.18853C9.95076 5.8855 11.323 6.25638 12.7213 6.26499C12.9618 6.26499 13.2058 6.26499 13.4605 6.22552C13.6364 6.37569 13.7513 6.58497 13.7835 6.81399C13.8445 7.23022 13.6184 7.75051 13.1268 8.31386C13.0683 8.38019 13.0363 8.46582 13.0371 8.55427C13.0371 8.55427 13.0371 8.62603 13.0371 8.74085L10.9488 9.86037C10.5343 9.468 9.88025 9.4859 9.48788 9.90033C9.09552 10.3148 9.11341 10.9689 9.52785 11.3612C9.94228 11.7536 10.5964 11.7357 10.9887 11.3213C11.1706 11.1292 11.2718 10.8748 11.2717 10.6103C11.2733 10.578 11.2733 10.5457 11.2717 10.5134L12.9187 9.63072C12.7773 10.3383 12.4447 10.9935 11.9571 11.5253C11.321 12.1377 10.4599 12.4598 9.57808 12.4152H9.39867C8.51871 12.4589 7.65956 12.1383 7.02328 11.5289C5.88941 10.3986 5.91453 8.56862 5.91453 8.55068ZM10.5541 10.6103C10.5541 10.7867 10.4111 10.9297 10.2347 10.9297C10.0584 10.9297 9.91537 10.7867 9.91537 10.6103C9.91537 10.4339 10.0584 10.291 10.2347 10.291C10.4111 10.291 10.5541 10.4339 10.5541 10.6103ZM9.11879 17.4279H0.72958C1.01305 14.7331 5.39424 13.6064 6.76493 13.3158V13.9581C6.76493 14.7726 7.75528 15.3934 9.11879 15.4974V17.4279ZM7.48257 13.9581V13.9473V12.7202C8.07902 12.9968 8.73055 13.1342 9.38791 13.122H9.56732C10.2247 13.1342 10.8762 12.9968 11.4727 12.7202V13.9581C11.4727 14.299 10.694 14.7906 9.47761 14.7906C8.26121 14.7906 7.48257 14.299 7.48257 13.9581ZM9.83643 17.4386V15.4938C11.1999 15.4005 12.1903 14.7762 12.1903 13.9545V13.3266C13.5718 13.6136 17.9314 14.7403 18.2256 17.4386H9.83643Z" fill="#112C45"/>
</svg>
