<svg width="56" height="53" viewBox="0 0 56 53" fill="none" xmlns="http://www.w3.org/2000/svg">
<path d="M35.485 36.6618V35.7009C35.7565 35.4815 36.0177 35.2413 36.2683 34.9906C38.2755 32.7806 39.5393 29.9971 39.8823 27.0315C41.6861 26.7567 43.312 25.79 44.4154 24.3367C45.9299 22.1955 46.0657 19.1143 44.8019 15.2496C44.7276 15.0268 44.5804 14.8354 44.3841 14.7065L43.8096 14.32C43.8943 10.833 42.6892 7.43733 40.4254 4.78379C37.6157 1.61897 33.302 0.0208899 27.5886 0C21.8856 0 17.5614 1.61897 14.7517 4.74201C12.4879 7.39555 11.2828 10.7912 11.3675 14.2783L10.7931 14.6647C10.5967 14.7936 10.4496 14.985 10.3753 15.2079C9.11143 19.0934 9.24721 22.1538 10.7617 24.295C11.8609 25.7584 13.4868 26.7362 15.2948 27.0211C15.6393 29.9914 16.907 32.7788 18.9192 34.9906C19.168 35.2408 19.4294 35.4779 19.7026 35.7009V36.6618C15.7022 37.4347 -0.268147 41.1845 0.00342219 51.8383C0.00342219 52.4151 0.471095 52.8828 1.04792 52.8828H54.1397C54.7165 52.8828 55.1842 52.4151 55.1842 51.8383C55.4557 41.1845 39.4854 37.4347 35.485 36.6618ZM14.6681 24.6919C13.7806 24.3938 13.007 23.8283 12.4538 23.0729L12.506 23.0834C11.4615 21.5584 11.3675 19.2501 12.2971 16.2001L13.0596 15.6883C13.3804 15.4742 13.5571 15.1008 13.5192 14.7169C13.3435 11.5952 14.3588 8.52295 16.3602 6.12074C18.7208 3.44684 22.5123 2.10988 27.5886 2.08899C32.6648 2.0681 36.4563 3.44684 38.8587 6.12074C40.8601 8.52295 41.8754 11.5952 41.6997 14.7169C41.6618 15.1008 41.8385 15.4742 42.1593 15.6883L42.9218 16.2001C43.8514 19.2396 43.7887 21.5584 42.7129 23.0834C42.1559 23.8394 41.3789 24.4049 40.4881 24.7023C41.748 23.2687 42.3636 21.3806 42.1906 19.4798C41.9949 18.3363 41.3988 17.2997 40.509 16.5553C40.0598 6.1103 32.7379 4.94046 29.5836 4.94046C28.9159 4.93851 28.2489 4.98747 27.5886 5.08669C26.9283 4.98734 26.2613 4.93851 25.5936 4.94046C22.4601 4.94046 15.1486 6.08941 14.6681 16.5553C13.7726 17.2937 13.1692 18.3267 12.9656 19.4694C12.7915 21.3702 13.4072 23.259 14.6681 24.6919ZM38.4304 16.127C34.0476 16.3803 29.6922 15.2868 25.9487 12.9935C25.525 12.696 24.9473 12.7538 24.5909 13.1293C22.5019 15.375 18.6895 15.8972 16.8511 16.0121C17.4152 8.62753 21.8856 7.01901 25.6458 7.01901C26.2443 7.0147 26.842 7.06366 27.4319 7.16524C27.5698 7.19344 27.7118 7.19344 27.8497 7.16524C28.4396 7.06392 29.0373 7.01496 29.6358 7.01901C33.3646 7.01901 37.856 8.66931 38.3782 16.1166L38.4304 16.127ZM17.2167 24.8903L17.2585 24.9008C17.2607 24.6433 17.1678 24.3941 16.9974 24.201C15.5664 22.5611 14.9084 21.0675 15.0859 19.835C15.1711 19.1485 15.5101 18.5188 16.0364 18.0698C17.4152 18.0698 22.3034 17.8086 25.4369 15.1034C28.9659 17.1322 32.9603 18.2118 37.0308 18.2369C37.7306 18.2369 38.4409 18.2369 39.1825 18.122C39.6944 18.5591 40.0288 19.1683 40.1225 19.835C40.3001 21.0466 39.6421 22.5611 38.2111 24.201C38.0407 24.3941 37.9477 24.6433 37.95 24.9008C37.95 24.9008 37.95 25.1097 37.95 25.4439L31.871 28.7027C30.6646 27.5606 28.7606 27.6127 27.6185 28.8191C26.4763 30.0255 26.5284 31.9294 27.7348 33.0716C28.9412 34.2138 30.8452 34.1617 31.9873 32.9553C32.5166 32.3962 32.8114 31.6555 32.811 30.8857C32.8157 30.7917 32.8157 30.6977 32.811 30.6037L37.6053 28.0343C37.1938 30.0939 36.2256 32.0013 34.806 33.5492C32.9544 35.3319 30.448 36.2695 27.881 36.1395H27.3588C24.7973 36.2667 22.2964 35.3337 20.4442 33.5596C17.1436 30.2695 17.2167 24.9426 17.2167 24.8903ZM30.7221 30.8857C30.7221 31.3991 30.3058 31.8153 29.7925 31.8153C29.2791 31.8153 28.8629 31.3991 28.8629 30.8857C28.8629 30.3724 29.2791 29.9561 29.7925 29.9561C30.3058 29.9561 30.7221 30.3724 30.7221 30.8857ZM26.5441 50.7312H2.12375C2.9489 42.887 15.7022 39.6073 19.6922 38.7612V40.6309C19.6922 43.0019 22.575 44.8089 26.5441 45.1118V50.7312ZM21.7812 40.6309V40.5995V37.0274C23.5174 37.8325 25.4139 38.2326 27.3274 38.1972H27.8497C29.7632 38.2326 31.6597 37.8325 33.396 37.0274V40.6309C33.396 41.6231 31.1294 43.0541 27.5886 43.0541C24.0477 43.0541 21.7812 41.6231 21.7812 40.6309ZM28.6331 50.7625V45.1013C32.6021 44.8298 35.485 43.0123 35.485 40.6204V38.7926C39.5063 39.6282 52.1969 42.9079 53.0534 50.7625H28.6331Z" fill="white"/>
</svg>
