<svg width="17" height="7" viewBox="0 0 17 7" fill="none" xmlns="http://www.w3.org/2000/svg">
<path d="M0 0C0.291732 0.477379 0.609984 0.928237 0.954758 1.35257L0.609984 1.69735C0.397816 1.90952 0.397816 2.24103 0.609984 2.4532C0.822153 2.66537 1.15367 2.66537 1.36583 2.4532L1.64431 2.17473C1.90952 2.46646 2.20125 2.71841 2.49298 2.97036L2.14821 3.56708C2.00234 3.81903 2.09516 4.15055 2.34711 4.29641C2.59906 4.44228 2.93058 4.36271 3.07644 4.0975L3.35491 3.62013C3.67317 3.84555 3.99142 4.0312 4.32293 4.21685L4.12403 4.98596C4.04446 5.26443 4.21685 5.55616 4.49532 5.63573C4.77379 5.71529 5.06552 5.5429 5.14509 5.26443L5.30421 4.68097C5.66225 4.82683 6.02028 4.94618 6.37832 5.039V5.86115C6.37832 6.15289 6.617 6.39157 6.90874 6.39157C7.20047 6.39157 7.43916 6.15289 7.43916 5.86115V5.25117C7.78393 5.29095 8.14197 5.33073 8.5 5.33073C8.85804 5.33073 9.21607 5.29095 9.56084 5.25117V5.86115C9.56084 6.15289 9.79953 6.39157 10.0913 6.39157C10.383 6.39157 10.6217 6.15289 10.6217 5.86115V5.039C10.993 4.94618 11.351 4.82683 11.6958 4.68097L11.8549 5.26443C11.9345 5.5429 12.2262 5.71529 12.5047 5.63573C12.7832 5.55616 12.9555 5.26443 12.876 4.98596L12.6771 4.21685C13.0086 4.0312 13.3401 3.84555 13.6451 3.62013L13.9236 4.0975C14.0694 4.34945 14.3877 4.44228 14.6529 4.29641C14.9048 4.15055 14.9977 3.83229 14.8518 3.56708L14.507 2.97036C14.7988 2.71841 15.0905 2.4532 15.3557 2.17473L15.6342 2.4532C15.8463 2.66537 16.1778 2.66537 16.39 2.4532C16.6022 2.24103 16.6022 1.90952 16.39 1.69735L16.0452 1.35257C16.3768 0.928237 16.7083 0.477379 17 0H0ZM15.7137 0C13.8838 2.70515 11.2847 4.24337 8.48674 4.24337C5.68877 4.24337 3.0897 2.70515 1.25975 0" fill="#381A56"/>
</svg>
