<svg width="123" height="114" viewBox="0 0 123 114" fill="none" xmlns="http://www.w3.org/2000/svg">
<path opacity="0.4" d="M68.7081 108.362C98.448 108.362 122.557 84.1047 122.557 54.1812C122.557 24.2578 98.448 0 68.7081 0C38.9682 0 14.8592 24.2578 14.8592 54.1812C14.8592 84.1047 38.9682 108.362 68.7081 108.362Z" fill="#F9B84E" fill-opacity="0.5"/>
<path d="M42.4441 53.4429C42.1264 52.965 41.6182 52.6783 41.0464 52.6783H26.1171V49.1422C26.1171 47.7723 25.0054 46.6254 23.6078 46.6254C22.2419 46.6254 21.0984 47.7404 21.0984 49.1422V64.4018H6.16908C5.59732 64.4018 5.08909 64.6885 4.77145 65.1664L2.07147 69.3078C1.97618 69.4671 1.97618 69.6901 2.07147 69.8494L4.77145 73.9909C5.08909 74.4687 5.59732 74.7555 6.16908 74.7555H21.0984V107.027H16.4608C15.0949 107.027 13.9514 108.142 13.9514 109.544C13.9514 110.945 15.0631 112.06 16.4608 112.06H30.7548C32.1206 112.06 33.2641 110.945 33.2641 109.544C33.2641 108.142 32.1524 107.027 30.7548 107.027H26.1171V63.032H41.0464C41.6182 63.032 42.1264 62.7452 42.4441 62.2674L45.144 58.1259C45.2393 57.9666 45.2393 57.7436 45.144 57.5844L42.4441 53.4429Z" fill="white" stroke="#F9B84E" stroke-width="3" stroke-miterlimit="10"/>
<path d="M72.8109 37.5142C76.8633 37.5142 80.1485 34.2194 80.1485 30.1551C80.1485 26.0908 76.8633 22.7961 72.8109 22.7961C68.7584 22.7961 65.4733 26.0908 65.4733 30.1551C65.4733 34.2194 68.7584 37.5142 72.8109 37.5142Z" fill="#112C45"/>
<path d="M82.2767 40.7318C79.2273 40.7318 68.9356 40.7318 65.918 40.7318L58.1675 39.8079L62.3286 34.7745C63.5674 33.2772 63.3768 31.0471 61.8839 29.7729C60.391 28.5304 58.1675 28.7216 56.8969 30.2189L48.5746 40.3176C47.7487 41.3052 47.5264 42.7069 48.0029 43.9175C48.4793 45.1281 49.5911 45.9882 50.8617 46.1157L63.3451 47.5811V108.779C63.3451 111.136 65.2509 113.048 67.6015 113.048C69.9521 113.048 71.8579 111.136 71.8579 108.779V74.7235H73.7003V108.747C73.7003 111.105 75.6061 113.016 77.9567 113.016C80.3073 113.016 82.2131 111.105 82.2131 108.747L82.0861 49.1421C82.0861 48.728 82.4037 48.4094 82.8167 48.4094C83.2296 48.4094 83.5473 48.728 83.579 49.1103L83.7061 75.1695C83.7061 77.1128 85.2943 78.7057 87.2319 78.7057C87.2319 78.7057 87.2319 78.7057 87.2637 78.7057C89.2013 78.7057 90.7895 77.1128 90.7895 75.1377L90.6625 49.0784C90.6307 44.4591 86.8825 40.7318 82.2767 40.7318Z" fill="#112C45"/>
<path d="M89.6461 31.4932C90.4881 31.4932 91.1708 30.7657 91.1708 29.8684C91.1708 28.9711 90.4881 28.2437 89.6461 28.2437C88.804 28.2437 88.1214 28.9711 88.1214 29.8684C88.1214 30.7657 88.804 31.4932 89.6461 31.4932Z" fill="#F9B84E"/>
<path d="M91.0119 17.2849C89.2013 17.2849 87.5813 18.145 86.8825 19.8334L89.2648 21.5219C89.5507 21.2033 89.9001 20.3113 90.8848 20.3113C91.4884 20.3113 92.0601 20.6617 92.0601 21.2989C92.0601 22.4139 90.186 23.1466 89.646 23.4652C88.2166 24.1979 88.0896 25.2173 88.0896 26.3642H91.1389C91.1389 25.9182 91.5519 25.6315 92.0283 25.3448C93.3624 24.5802 95.3319 24.0705 95.3319 21.2989C95.3001 18.6547 93.3625 17.2849 91.0119 17.2849Z" fill="#F9B84E"/>
</svg>
