<svg width="14" height="14" viewBox="0 0 14 14" fill="none" xmlns="http://www.w3.org/2000/svg">
<path d="M11.7329 8.34542C11.4287 8.02867 11.0617 7.85931 10.6728 7.85931C10.2871 7.85931 9.91702 8.02553 9.60026 8.34229L8.60922 9.33019C8.52768 9.28628 8.44614 9.24551 8.36773 9.20474C8.25483 9.14829 8.1482 9.09497 8.05725 9.03852C7.12894 8.44892 6.2853 7.68055 5.47616 6.68637C5.08414 6.19085 4.8207 5.77374 4.62939 5.35035C4.88656 5.11514 5.12491 4.87051 5.35699 4.6353C5.4448 4.54749 5.53261 4.45654 5.62043 4.36872C6.27903 3.71012 6.27903 2.85708 5.62043 2.19847L4.76424 1.34229C4.66702 1.24507 4.56666 1.14471 4.47258 1.04435C4.28441 0.84991 4.08683 0.649193 3.88297 0.461021C3.57876 0.159946 3.21496 0 2.83235 0C2.44973 0 2.07966 0.159946 1.76604 0.461021C1.7629 0.464157 1.7629 0.464157 1.75977 0.467293L0.69346 1.54301C0.292027 1.94444 0.0630841 2.43369 0.012905 3.00134C-0.0623638 3.91711 0.207349 4.77016 0.414338 5.3284C0.922402 6.69892 1.68136 7.96908 2.81353 9.33019C4.18718 10.9704 5.83996 12.2657 7.72795 13.1783C8.44928 13.5201 9.41209 13.9247 10.4878 13.9937C10.5537 13.9968 10.6227 14 10.6854 14C11.4098 14 12.0183 13.7397 12.495 13.2222C12.4981 13.2159 12.5044 13.2128 12.5075 13.2065C12.6706 13.0089 12.8588 12.8302 13.0564 12.6389C13.1912 12.5103 13.3292 12.3754 13.4641 12.2343C13.7745 11.9113 13.9376 11.5349 13.9376 11.1492C13.9376 10.7603 13.7714 10.3871 13.4546 10.0735L11.7329 8.34542ZM12.8556 11.6478C12.8525 11.6478 12.8525 11.651 12.8556 11.6478C12.7333 11.7796 12.6079 11.8987 12.473 12.0305C12.2692 12.2249 12.0622 12.4288 11.8677 12.6577C11.551 12.9964 11.1778 13.1563 10.6885 13.1563C10.6415 13.1563 10.5913 13.1563 10.5443 13.1532C9.61281 13.0936 8.74722 12.7298 8.09802 12.4193C6.32293 11.56 4.76424 10.34 3.46899 8.7939C2.39955 7.50492 1.6845 6.31317 1.21093 5.0336C0.919266 4.25268 0.812635 3.64426 0.859678 3.07034C0.89104 2.7034 1.03217 2.39919 1.29247 2.13889L2.36192 1.06944C2.51559 0.925178 2.67867 0.846773 2.83862 0.846773C3.0362 0.846773 3.19615 0.965949 3.2965 1.06631C3.29964 1.06944 3.30278 1.07258 3.30591 1.07572C3.49722 1.25448 3.67912 1.43951 3.87043 1.6371C3.96765 1.73745 4.06801 1.83781 4.16837 1.94131L5.02455 2.79749C5.35699 3.12993 5.35699 3.43727 5.02455 3.76971C4.9336 3.86066 4.84579 3.95161 4.75484 4.03942C4.49139 4.30913 4.2405 4.56003 3.96765 4.80465C3.96138 4.81093 3.95511 4.81406 3.95197 4.82034C3.68226 5.09005 3.73244 5.35349 3.78889 5.53225C3.79202 5.54166 3.79516 5.55107 3.7983 5.56048C4.02097 6.0999 4.33459 6.60797 4.81129 7.21325L4.81442 7.21639C5.68001 8.2827 6.59265 9.11379 7.59937 9.75044C7.72795 9.83198 7.85967 9.89784 7.98512 9.96056C8.09802 10.017 8.20465 10.0703 8.2956 10.1268C8.30815 10.1331 8.32069 10.1425 8.33324 10.1487C8.43987 10.2021 8.54023 10.2271 8.64372 10.2271C8.90403 10.2271 9.06711 10.0641 9.12042 10.0107L10.193 8.93816C10.2996 8.83153 10.469 8.70295 10.6666 8.70295C10.861 8.70295 11.021 8.82526 11.1182 8.93189C11.1213 8.93503 11.1213 8.93503 11.1245 8.93816L12.8525 10.6662C13.1755 10.9861 13.1755 11.3154 12.8556 11.6478Z" fill="black"/>
</svg>
