<svg width="21" height="23" viewBox="0 0 21 23" fill="none" xmlns="http://www.w3.org/2000/svg">
<path d="M20.3776 3.55197V20.1604C20.3776 20.9128 19.7655 21.525 19.013 21.525H14.6402C14.4274 21.525 14.2548 21.3525 14.2548 21.1397C14.2548 20.9268 14.4274 20.7543 14.6402 20.7543H19.013C19.3405 20.7543 19.6069 20.4879 19.6069 20.1604V3.55197C19.6069 3.36832 19.5227 3.19745 19.3758 3.08316C19.2078 2.95248 19.1775 2.71042 19.3082 2.54241C19.4388 2.37445 19.681 2.34412 19.8489 2.47481C20.1849 2.73619 20.3776 3.1288 20.3776 3.55197ZM15.4793 6.45104C14.1301 6.26294 13.0882 5.10156 13.0882 3.70143V0.423111C13.0882 0.210289 13.2608 0.037764 13.4736 0.037764H18.2557C18.4686 0.037764 18.6411 0.210289 18.6411 0.423111V3.70137C18.6411 5.1015 17.5992 6.26288 16.2499 6.45099V17.2555C16.2499 17.4683 16.0774 17.6408 15.8646 17.6408C15.6518 17.6408 15.4793 17.4683 15.4793 17.2555V6.45104ZM15.8645 5.70694C16.9705 5.70694 17.8704 4.80726 17.8704 3.70137V0.808459H17.069V4.07719C17.069 4.29002 16.8965 4.46254 16.6837 4.46254C16.4709 4.46254 16.2983 4.29002 16.2983 4.07719V0.808459H15.431V4.07719C15.431 4.29002 15.2584 4.46254 15.0456 4.46254C14.8328 4.46254 14.6603 4.29002 14.6603 4.07719V0.808459H13.8589V3.70137C13.859 4.80726 14.7586 5.70694 15.8645 5.70694ZM8.05642 9.46677C8.26924 9.46677 8.44177 9.29425 8.44177 9.08142V3.55197C8.44177 3.22459 8.70826 2.9582 9.03575 2.9582H12.0559C12.2687 2.9582 12.4412 2.78568 12.4412 2.57285C12.4412 2.36003 12.2687 2.18751 12.0559 2.18751H9.03575C8.28328 2.18751 7.67107 2.7996 7.67107 3.55197V9.08137C7.67107 9.29424 7.8436 9.46677 8.05642 9.46677ZM2.40051 20.7248C2.40051 20.9376 2.22799 21.1101 2.01517 21.1101C1.24651 21.1101 0.621144 20.4848 0.621144 19.7162V9.08142C0.621144 8.04957 1.36575 7.18827 2.34585 7.0066V3.53672C2.19705 3.48332 2.09064 3.34102 2.09064 3.17388V0.385347C2.09064 0.172525 2.26316 0 2.47599 0H4.89354C5.10637 0 5.27889 0.172525 5.27889 0.385347V3.17388C5.27889 3.34102 5.17248 3.48332 5.02374 3.53666V7.00655C6.00384 7.18816 6.74844 8.04946 6.74844 9.08137C6.74844 9.29419 6.57591 9.46671 6.36309 9.46671C6.15027 9.46671 5.97775 9.29419 5.97775 9.08137C5.97775 8.34282 5.37693 7.74196 4.63839 7.74196C4.42557 7.74196 4.25304 7.56943 4.25304 7.35661V3.55923H3.11654V7.35661C3.11654 7.56943 2.94402 7.74196 2.73125 7.74196C1.99271 7.74201 1.39184 8.34288 1.39184 9.08137V19.7161C1.39184 20.0598 1.67144 20.3394 2.01517 20.3394C2.22799 20.3395 2.40051 20.512 2.40051 20.7248ZM2.86133 2.78854H4.5082V0.770694H2.86133V2.78854ZM18.1981 16.6405H18.097C17.8842 16.6405 17.7117 16.813 17.7117 17.0259C17.7117 17.2387 17.8842 17.4112 18.097 17.4112H18.1981C18.4109 17.4112 18.5834 17.2387 18.5834 17.0259C18.5834 16.813 18.4109 16.6405 18.1981 16.6405ZM13.7735 12.9914V13.8109C13.7735 14.0237 13.601 14.1962 13.3881 14.1962H13.2389V21.1098C13.2389 22.1521 12.391 23 11.3487 23H5.00529C3.96299 23 3.11506 22.1521 3.11506 21.1098V14.1962H2.96571C2.75289 14.1962 2.58036 14.0237 2.58036 13.8109V12.9914C2.58036 12.8387 2.67059 12.7004 2.81036 12.6388L4.61995 11.8414V10.5334C4.61995 10.3206 4.79247 10.1481 5.00529 10.1481H11.3487C11.5615 10.1481 11.734 10.3206 11.734 10.5334V11.8414L13.5435 12.6388C13.6833 12.7004 13.7735 12.8387 13.7735 12.9914ZM5.39064 11.7868H10.9633V10.9187H5.39064V11.7868ZM12.4682 14.1962H3.88575V21.1098C3.88575 21.7271 4.38797 22.2293 5.00529 22.2293H11.3487C11.966 22.2293 12.4682 21.7271 12.4682 21.1098V20.9629H5.00821C4.79539 20.9629 4.62287 20.7904 4.62287 20.5776C4.62287 20.3648 4.79539 20.1922 5.00821 20.1922H12.4682V16.0176H5.00821C4.79539 16.0176 4.62287 15.8451 4.62287 15.6323C4.62287 15.4194 4.79539 15.2469 5.00821 15.2469H12.4682V14.1962ZM13.0028 13.2427L11.4478 12.5575H4.9061L3.35105 13.2427V13.4256H13.0028V13.2427ZM15.9151 18.6227H15.814C15.6011 18.6227 15.4286 18.7953 15.4286 19.0081C15.4286 19.2209 15.6011 19.3934 15.814 19.3934H15.9151C16.128 19.3934 16.3005 19.2209 16.3005 19.0081C16.3005 18.7953 16.128 18.6227 15.9151 18.6227ZM18.1981 18.6227H18.097C17.8842 18.6227 17.7117 18.7953 17.7117 19.0081C17.7117 19.2209 17.8842 19.3934 18.097 19.3934H18.1981C18.4109 19.3934 18.5834 19.2209 18.5834 19.0081C18.5834 18.7953 18.4109 18.6227 18.1981 18.6227Z" fill="#112C45"/>
</svg>
