<svg width="98" height="22" viewBox="0 0 98 22" fill="none" xmlns="http://www.w3.org/2000/svg">
<path d="M16.3878 12.21C16.3802 12.139 16.3479 12.0728 16.2963 12.0223C16.2447 11.9719 16.177 11.9403 16.1045 11.9328C16.0248 11.9235 15.9452 11.9188 15.8672 11.9157C16.3044 11.3376 16.4914 10.6145 16.3878 9.9026C16.3802 9.83164 16.3479 9.76541 16.2963 9.71496C16.2447 9.66451 16.177 9.63292 16.1045 9.62546C16.0248 9.61612 15.9452 9.61145 15.8672 9.60833C16.3047 9.02974 16.4917 8.30602 16.3878 7.59365C16.3793 7.52378 16.3467 7.45881 16.2956 7.40933C16.2444 7.35985 16.1776 7.32878 16.106 7.32119C15.6001 7.25676 15.0857 7.32333 14.6143 7.51425C14.6404 7.3745 14.6542 7.23282 14.6556 7.09076C14.6484 6.67765 14.5441 6.2717 14.3509 5.90427C14.1577 5.53685 13.8806 5.2178 13.5412 4.97177C13.4846 4.92716 13.4141 4.90283 13.3414 4.90283C13.2687 4.90283 13.1982 4.92716 13.1416 4.97177C12.802 5.21771 12.5249 5.53675 12.3317 5.90419C12.1384 6.27163 12.0342 6.67763 12.0271 7.09076C12.0285 7.23282 12.0424 7.3745 12.0685 7.51425C11.5976 7.32353 11.0837 7.25696 10.5783 7.32119C10.5285 7.32682 10.4808 7.34385 10.439 7.3709C10.3973 7.39795 10.3626 7.43427 10.3379 7.47688L10.927 8.05295C10.927 8.01247 10.927 7.97199 10.927 7.92995C11.2055 7.91779 11.4835 7.96168 11.744 8.05889C12.0044 8.15611 12.2417 8.30458 12.441 8.49512C12.6343 8.69121 12.7851 8.92341 12.8844 9.17783C12.9837 9.43225 13.0295 9.70364 13.019 9.97577C12.976 9.97577 12.9346 9.97577 12.8916 9.97577L14.022 11.0828C14.0892 10.9839 14.1659 10.8916 14.2513 10.8072C14.4518 10.6182 14.6892 10.4708 14.9494 10.3736C15.2095 10.2765 15.4871 10.2318 15.7653 10.242C15.7764 10.5142 15.7308 10.7857 15.6315 11.0402C15.5322 11.2947 15.3811 11.5269 15.1874 11.7227C15.0975 11.8057 14.9994 11.8798 14.8945 11.9437L15.5313 12.5541C15.6098 12.5502 15.6884 12.5502 15.7669 12.5541C15.7656 12.6264 15.7609 12.6986 15.7526 12.7705L16.3114 13.3185C16.4096 12.9573 16.4356 12.5809 16.3878 12.21ZM12.6815 7.08765C12.6865 6.8155 12.7476 6.54714 12.8611 6.29861C12.9746 6.05009 13.1382 5.82651 13.3422 5.64125C13.5461 5.82651 13.7097 6.05009 13.8232 6.29861C13.9368 6.54714 13.9979 6.8155 14.0029 7.08765C13.9979 7.3598 13.9368 7.62816 13.8232 7.87669C13.7097 8.12521 13.5461 8.34879 13.3422 8.53405C13.1382 8.34879 12.9746 8.12521 12.8611 7.87669C12.7476 7.62816 12.6865 7.3598 12.6815 7.08765ZM15.1826 9.41216C14.9825 9.60172 14.7452 9.74956 14.4849 9.84671C14.2246 9.94386 13.9469 9.9883 13.6685 9.97733C13.6531 9.70471 13.6967 9.43197 13.7963 9.17693C13.896 8.92188 14.0496 8.69026 14.247 8.4972C14.4444 8.30413 14.6813 8.15396 14.9421 8.05648C15.2029 7.95901 15.4818 7.91642 15.7606 7.93151C15.771 8.20364 15.7253 8.47504 15.626 8.72945C15.5266 8.98387 15.3759 9.21607 15.1826 9.41216Z" fill="#381A56"/>
<path d="M10.6491 10.0734C10.5771 10.0811 10.51 10.1137 10.4588 10.1659C10.4077 10.2181 10.3757 10.2865 10.3681 10.3599C10.2657 11.0958 10.4511 11.8433 10.8843 12.4411C10.8054 12.4411 10.7264 12.4411 10.6491 12.4588C10.5771 12.4665 10.51 12.4992 10.4588 12.5513C10.4077 12.6035 10.3757 12.6719 10.3681 12.7453C10.3058 13.1685 10.3401 13.6007 10.4682 14.0083C10.5964 14.4159 10.8149 14.7878 11.1069 15.0953C11.3558 15.3473 11.6516 15.546 11.9769 15.6797C12.3022 15.8135 12.6504 15.8797 13.0012 15.8743H13.0343V16.7371C13.0343 16.8225 13.0676 16.9043 13.1268 16.9647C13.186 17.0251 13.2663 17.059 13.35 17.059C13.4338 17.059 13.5141 17.0251 13.5733 16.9647C13.6325 16.9043 13.6657 16.8225 13.6657 16.7371V15.8663H13.7383C14.4536 15.8792 15.1447 15.6019 15.6595 15.0953C15.7657 14.9872 15.8624 14.8698 15.9483 14.7444L15.4858 14.2696C15.4092 14.3999 15.3175 14.5204 15.2127 14.6285C15.0137 14.8231 14.7785 14.9751 14.5209 15.0755C14.2634 15.1758 13.9887 15.2225 13.7131 15.2128C13.7027 14.9315 13.7481 14.6509 13.8466 14.3879C13.945 14.1248 14.0945 13.8848 14.2861 13.6821C14.3927 13.5748 14.5114 13.4808 14.6397 13.402L14.0541 12.8032C13.9416 12.8194 13.8282 12.8274 13.7147 12.8274C13.713 12.7106 13.7198 12.5938 13.7352 12.4781L10.4376 9.11084C10.5239 9.45274 10.6757 9.77385 10.8843 10.0557C10.8069 10.0605 10.728 10.0637 10.6491 10.0734ZM12.4913 11.2918C12.6829 11.4946 12.8324 11.7346 12.9308 11.9976C13.0293 12.2606 13.0747 12.5412 13.0643 12.8226C12.7885 12.8321 12.5136 12.7854 12.2558 12.685C11.998 12.5847 11.7625 12.4328 11.5631 12.2383C11.371 12.0359 11.2212 11.7959 11.1227 11.5328C11.0243 11.2697 10.9791 10.9889 10.9901 10.7076C11.2662 10.6967 11.5417 10.7429 11.7999 10.8433C12.0582 10.9437 12.2939 11.0963 12.4929 11.2918H12.4913ZM12.4913 13.6772C12.6832 13.8798 12.8329 14.1198 12.9317 14.3829C13.0304 14.6459 13.0761 14.9265 13.0659 15.208C12.7901 15.2174 12.5153 15.1705 12.2575 15.0702C11.9997 14.9699 11.7641 14.8181 11.5647 14.6237C11.3726 14.4213 11.2228 14.1813 11.1243 13.9182C11.0258 13.6551 10.9807 13.3744 10.9916 13.093C11.2677 13.0813 11.5431 13.1272 11.8012 13.2276C12.0593 13.3281 12.2946 13.481 12.4929 13.6772H12.4913Z" fill="#381A56"/>
<rect x="8.65527" y="7.24048" width="13.1063" height="0.935076" transform="rotate(44.5232 8.65527 7.24048)" fill="#381A56"/>
<path d="M27.0098 7.86133H28.2207L25.7207 15H24.4902L22 7.86133H23.2012L24.6904 12.2998C24.7686 12.5114 24.8516 12.7848 24.9395 13.1201C25.0273 13.4521 25.0843 13.6995 25.1104 13.8623C25.1527 13.6149 25.2178 13.3285 25.3057 13.0029C25.3936 12.6774 25.4652 12.4365 25.5205 12.2803L27.0098 7.86133ZM31.3994 15.0977C30.5596 15.0977 29.902 14.8535 29.4268 14.3652C28.9548 13.8737 28.7188 13.1982 28.7188 12.3389C28.7188 11.4567 28.9385 10.7633 29.3779 10.2588C29.8174 9.75423 30.4212 9.50195 31.1895 9.50195C31.9023 9.50195 32.4655 9.71842 32.8789 10.1514C33.2923 10.5843 33.499 11.18 33.499 11.9385V12.5586H29.9004C29.9167 13.0827 30.0583 13.4863 30.3252 13.7695C30.5921 14.0495 30.9681 14.1895 31.4531 14.1895C31.7721 14.1895 32.0684 14.1602 32.3418 14.1016C32.6185 14.0397 32.9147 13.9388 33.2305 13.7988V14.7314C32.9505 14.8649 32.6673 14.9593 32.3809 15.0146C32.0944 15.07 31.7673 15.0977 31.3994 15.0977ZM31.1895 10.3711C30.8249 10.3711 30.5319 10.4867 30.3105 10.7178C30.0924 10.9489 29.9622 11.2858 29.9199 11.7285H32.3711C32.3646 11.2826 32.2572 10.9456 32.0488 10.7178C31.8405 10.4867 31.554 10.3711 31.1895 10.3711ZM37.542 9.50195C37.7731 9.50195 37.9635 9.51823 38.1133 9.55078L38.001 10.6201C37.8382 10.5811 37.6689 10.5615 37.4932 10.5615C37.0342 10.5615 36.6615 10.7113 36.375 11.0107C36.0918 11.3102 35.9502 11.6992 35.9502 12.1777V15H34.8027V9.59961H35.7012L35.8525 10.5518H35.9111C36.0902 10.2295 36.3229 9.97396 36.6094 9.78516C36.8991 9.59635 37.21 9.50195 37.542 9.50195ZM46.2676 15L45.5547 13.0176H42.8252L42.127 15H40.8965L43.5674 7.83203H44.8369L47.5078 15H46.2676ZM45.2471 12.0117L44.5781 10.0684C44.5293 9.93815 44.4609 9.73307 44.373 9.45312C44.2884 9.17318 44.2298 8.9681 44.1973 8.83789C44.1094 9.23828 43.9808 9.67611 43.8115 10.1514L43.167 12.0117H45.2471ZM49.4756 15H48.3281V7.40234H49.4756V15ZM53.4795 15.0977C52.6396 15.0977 51.9821 14.8535 51.5068 14.3652C51.0348 13.8737 50.7988 13.1982 50.7988 12.3389C50.7988 11.4567 51.0186 10.7633 51.458 10.2588C51.8975 9.75423 52.5013 9.50195 53.2695 9.50195C53.9824 9.50195 54.5456 9.71842 54.959 10.1514C55.3724 10.5843 55.5791 11.18 55.5791 11.9385V12.5586H51.9805C51.9967 13.0827 52.1383 13.4863 52.4053 13.7695C52.6722 14.0495 53.0482 14.1895 53.5332 14.1895C53.8522 14.1895 54.1484 14.1602 54.4219 14.1016C54.6986 14.0397 54.9948 13.9388 55.3105 13.7988V14.7314C55.0306 14.8649 54.7474 14.9593 54.4609 15.0146C54.1745 15.07 53.8473 15.0977 53.4795 15.0977ZM53.2695 10.3711C52.9049 10.3711 52.612 10.4867 52.3906 10.7178C52.1725 10.9489 52.0423 11.2858 52 11.7285H54.4512C54.4447 11.2826 54.3372 10.9456 54.1289 10.7178C53.9206 10.4867 53.6341 10.3711 53.2695 10.3711ZM52.5371 8.94043V8.81836C52.7227 8.59049 52.9131 8.33659 53.1084 8.05664C53.307 7.77669 53.4632 7.53743 53.5771 7.33887H54.9102V7.44141C54.7409 7.63997 54.487 7.89714 54.1484 8.21289C53.8132 8.52539 53.5299 8.7679 53.2988 8.94043H52.5371ZM59.6221 9.50195C59.8532 9.50195 60.0436 9.51823 60.1934 9.55078L60.0811 10.6201C59.9183 10.5811 59.749 10.5615 59.5732 10.5615C59.1143 10.5615 58.7415 10.7113 58.4551 11.0107C58.1719 11.3102 58.0303 11.6992 58.0303 12.1777V15H56.8828V9.59961H57.7812L57.9326 10.5518H57.9912C58.1702 10.2295 58.403 9.97396 58.6895 9.78516C58.9792 9.59635 59.29 9.50195 59.6221 9.50195ZM65.7598 9.59961V10.2295L64.8369 10.4004C64.9215 10.5143 64.9915 10.6543 65.0469 10.8203C65.1022 10.9863 65.1299 11.1621 65.1299 11.3477C65.1299 11.9043 64.9378 12.3421 64.5537 12.6611C64.1696 12.9801 63.6406 13.1396 62.9668 13.1396C62.7943 13.1396 62.638 13.1266 62.498 13.1006C62.2507 13.2536 62.127 13.4326 62.127 13.6377C62.127 13.7614 62.1839 13.8542 62.2979 13.916C62.415 13.9779 62.6283 14.0088 62.9375 14.0088H63.8799C64.4756 14.0088 64.9281 14.1357 65.2373 14.3896C65.5465 14.6436 65.7012 15.0098 65.7012 15.4883C65.7012 16.1003 65.4489 16.5723 64.9443 16.9043C64.4398 17.2363 63.7106 17.4023 62.7568 17.4023C62.0212 17.4023 61.4596 17.2721 61.0723 17.0117C60.6849 16.7513 60.4912 16.3802 60.4912 15.8984C60.4912 15.5664 60.5954 15.2865 60.8037 15.0586C61.0153 14.834 61.3099 14.6777 61.6875 14.5898C61.5345 14.5247 61.4076 14.4206 61.3066 14.2773C61.209 14.1309 61.1602 13.9779 61.1602 13.8184C61.1602 13.6165 61.2171 13.4456 61.3311 13.3057C61.445 13.1657 61.6143 13.0273 61.8389 12.8906C61.5589 12.7702 61.3311 12.5749 61.1553 12.3047C60.9827 12.0312 60.8965 11.7122 60.8965 11.3477C60.8965 10.7617 61.0804 10.3076 61.4482 9.98535C61.8193 9.66309 62.3467 9.50195 63.0303 9.50195C63.1833 9.50195 63.3428 9.51335 63.5088 9.53613C63.6781 9.55566 63.805 9.57682 63.8896 9.59961H65.7598ZM61.5166 15.8398C61.5166 16.0872 61.6273 16.2777 61.8486 16.4111C62.0732 16.5446 62.3874 16.6113 62.791 16.6113C63.416 16.6113 63.8815 16.5218 64.1875 16.3428C64.4935 16.1637 64.6465 15.9261 64.6465 15.6299C64.6465 15.3955 64.5618 15.2279 64.3926 15.127C64.2266 15.0293 63.9157 14.9805 63.46 14.9805H62.5908C62.262 14.9805 62 15.057 61.8047 15.21C61.6126 15.3662 61.5166 15.5762 61.5166 15.8398ZM62.0098 11.3477C62.0098 11.6862 62.096 11.9466 62.2686 12.1289C62.4443 12.3112 62.695 12.4023 63.0205 12.4023C63.6846 12.4023 64.0166 12.0475 64.0166 11.3379C64.0166 10.9863 63.9336 10.7161 63.7676 10.5273C63.6048 10.3353 63.3558 10.2393 63.0205 10.2393C62.6885 10.2393 62.4362 10.3337 62.2637 10.5225C62.0944 10.7113 62.0098 10.9863 62.0098 11.3477ZM69.124 15.0977C68.2842 15.0977 67.6266 14.8535 67.1514 14.3652C66.6794 13.8737 66.4434 13.1982 66.4434 12.3389C66.4434 11.4567 66.6631 10.7633 67.1025 10.2588C67.542 9.75423 68.1458 9.50195 68.9141 9.50195C69.627 9.50195 70.1901 9.71842 70.6035 10.1514C71.0169 10.5843 71.2236 11.18 71.2236 11.9385V12.5586H67.625C67.6413 13.0827 67.7829 13.4863 68.0498 13.7695C68.3167 14.0495 68.6927 14.1895 69.1777 14.1895C69.4967 14.1895 69.793 14.1602 70.0664 14.1016C70.3431 14.0397 70.6393 13.9388 70.9551 13.7988V14.7314C70.6751 14.8649 70.3919 14.9593 70.1055 15.0146C69.819 15.07 69.4919 15.0977 69.124 15.0977ZM68.9141 10.3711C68.5495 10.3711 68.2565 10.4867 68.0352 10.7178C67.8171 10.9489 67.6868 11.2858 67.6445 11.7285H70.0957C70.0892 11.2826 69.9818 10.9456 69.7734 10.7178C69.5651 10.4867 69.2786 10.3711 68.9141 10.3711ZM77.2783 15H76.126V11.6797C76.126 11.263 76.0413 10.9521 75.8721 10.7471C75.7061 10.542 75.4408 10.4395 75.0762 10.4395C74.5911 10.4395 74.2363 10.5827 74.0117 10.8691C73.7871 11.1556 73.6748 11.6357 73.6748 12.3096V15H72.5273V9.59961H73.4258L73.5869 10.3076H73.6455C73.8083 10.0505 74.0394 9.85189 74.3389 9.71191C74.6383 9.57194 74.9704 9.50195 75.335 9.50195C76.6305 9.50195 77.2783 10.1611 77.2783 11.4795V15ZM83.665 12.29C83.665 13.1722 83.4388 13.8607 82.9863 14.3555C82.5339 14.8503 81.904 15.0977 81.0967 15.0977C80.5921 15.0977 80.1462 14.9837 79.7588 14.7559C79.3714 14.528 79.0736 14.2008 78.8652 13.7744C78.6569 13.348 78.5527 12.8532 78.5527 12.29C78.5527 11.4144 78.7773 10.7308 79.2266 10.2393C79.6758 9.74772 80.3089 9.50195 81.126 9.50195C81.9072 9.50195 82.5257 9.75423 82.9814 10.2588C83.4372 10.7601 83.665 11.4372 83.665 12.29ZM79.7344 12.29C79.7344 13.5368 80.195 14.1602 81.1162 14.1602C82.0277 14.1602 82.4834 13.5368 82.4834 12.29C82.4834 11.0563 82.0244 10.4395 81.1064 10.4395C80.6247 10.4395 80.2747 10.599 80.0566 10.918C79.8418 11.237 79.7344 11.6943 79.7344 12.29ZM88.6162 13.4619C88.6162 13.9893 88.4242 14.3945 88.04 14.6777C87.6559 14.9577 87.1058 15.0977 86.3896 15.0977C85.6702 15.0977 85.0924 14.9886 84.6562 14.7705V13.7793C85.291 14.0723 85.8818 14.2188 86.4287 14.2188C87.1351 14.2188 87.4883 14.0055 87.4883 13.5791C87.4883 13.4424 87.4492 13.3285 87.3711 13.2373C87.293 13.1462 87.1644 13.0518 86.9854 12.9541C86.8063 12.8564 86.5573 12.7458 86.2383 12.6221C85.6165 12.3812 85.195 12.1403 84.9736 11.8994C84.7555 11.6585 84.6465 11.346 84.6465 10.9619C84.6465 10.4997 84.832 10.1416 85.2031 9.8877C85.5775 9.63053 86.0853 9.50195 86.7266 9.50195C87.3613 9.50195 87.9619 9.63053 88.5283 9.8877L88.1572 10.752C87.5745 10.5111 87.0846 10.3906 86.6875 10.3906C86.082 10.3906 85.7793 10.5632 85.7793 10.9082C85.7793 11.0775 85.8574 11.2207 86.0137 11.3379C86.1732 11.4551 86.5182 11.6162 87.0488 11.8213C87.4948 11.9938 87.8187 12.1517 88.0205 12.2949C88.2223 12.4382 88.3721 12.6042 88.4697 12.793C88.5674 12.9785 88.6162 13.2015 88.6162 13.4619Z" fill="#381A56"/>
<rect x="0.5" y="0.5" width="97" height="21" rx="2.5" stroke="#381A56"/>
</svg>
