<svg width="16" height="16" viewBox="0 0 16 16" fill="none" xmlns="http://www.w3.org/2000/svg">
<path fill-rule="evenodd" clip-rule="evenodd" d="M13.0573 8.66677H8.66677V13.0573L10.1954 11.5287L11.1382 12.4715L8.0001 15.6096L4.86203 12.4715L5.80484 11.5287L7.33343 13.0573V8.66677H2.94291L4.47151 10.1954L3.5287 11.1382L0.390625 8.0001L3.5287 4.86203L4.47151 5.80484L2.94291 7.33343H7.33343V2.94291L5.80484 4.47151L4.86203 3.5287L8.0001 0.390625L11.1382 3.5287L10.1954 4.47151L8.66677 2.94291V7.33343H13.0573L11.5287 5.80484L12.4715 4.86203L15.6096 8.0001L12.4715 11.1382L11.5287 10.1954L13.0573 8.66677Z" fill="#333333"/>
</svg>
