<svg width="24" height="24" viewBox="0 0 24 24" fill="none" xmlns="http://www.w3.org/2000/svg">
<path d="M19.6053 12C19.6053 12.44 19.2453 12.8 18.8053 12.8H7.12527L10.7453 16.44C11.0653 16.76 11.0653 17.26 10.7453 17.58C10.5853 17.74 10.3853 17.82 10.1853 17.82C9.98527 17.82 9.76527 17.74 9.62527 17.58L4.64528 12.58C4.32528 12.26 4.32528 11.76 4.64528 11.46L9.62527 6.45999C9.94527 6.13999 10.4453 6.13999 10.7653 6.45999C11.0853 6.77999 11.0853 7.27999 10.7653 7.59999L7.12527 11.2H18.8053C19.2453 11.2 19.6053 11.56 19.6053 12Z" fill="#381A56"/>
</svg>
