<svg width="14" height="13" viewBox="0 0 14 13" fill="none" xmlns="http://www.w3.org/2000/svg">
<path d="M13.3878 12.4714H0.612167C0.39924 12.4714 0.201521 12.3498 0.0798479 12.1673C-0.026616 11.9848 -0.026616 11.7566 0.0798479 11.5589L6.46768 0.304182C6.57414 0.106464 6.77186 0 7 0C7.22814 0 7.42586 0.121673 7.53232 0.304182L13.9202 11.5589C14.0266 11.7414 14.0266 11.9848 13.9202 12.1673C13.7985 12.3498 13.6008 12.4714 13.3878 12.4714ZM1.6616 11.2547H12.3536L7.01521 1.8403L1.6616 11.2547ZM7.60837 7.61973V4.79084C7.60837 4.45627 7.3346 4.18251 7 4.18251C6.6654 4.18251 6.39163 4.45627 6.39163 4.79084V7.61973C6.39163 7.95433 6.6654 8.2281 7 8.2281C7.3346 8.2281 7.60837 7.95433 7.60837 7.61973ZM7.53232 10.1444C7.6692 10.0076 7.76046 9.80985 7.76046 9.61213C7.76046 9.41441 7.68441 9.21669 7.53232 9.07981C7.39544 8.94293 7.19772 8.85167 7 8.85167C6.80228 8.85167 6.60456 8.92772 6.46768 9.07981C6.3308 9.21669 6.23954 9.41441 6.23954 9.61213C6.23954 9.80985 6.31559 10.0076 6.46768 10.1444C6.60456 10.2813 6.80228 10.3726 7 10.3726C7.19772 10.3726 7.39544 10.2813 7.53232 10.1444Z" fill="#FF0000"/>
</svg>
