<svg width="21" height="28" viewBox="0 0 21 28" fill="none" xmlns="http://www.w3.org/2000/svg">
<path d="M20.919 9.5969C20.8879 9.51748 20.8414 9.44613 20.7835 9.38466C20.7813 9.38242 20.7808 9.37928 20.7786 9.37703C20.7777 9.37613 20.7763 9.37569 20.775 9.37479C20.714 9.31242 20.6413 9.26172 20.5595 9.22627C20.5586 9.22582 20.5577 9.22537 20.5564 9.22492C20.4809 9.19262 20.3978 9.17512 20.3115 9.17242C20.3075 9.17242 20.3039 9.17153 20.3002 9.17153C20.2966 9.17153 20.293 9.17063 20.2899 9.17063C20.209 9.17063 20.1327 9.18723 20.0609 9.21281C20.0545 9.21505 20.0487 9.21595 20.0423 9.21864C19.9624 9.2496 19.8906 9.29582 19.8282 9.35325C19.826 9.35549 19.8228 9.35594 19.8206 9.35819L19.1417 10.0052L19.8179 8.23778C20.2262 7.16852 19.9656 6.00862 19.2451 5.21038C20.9895 3.97285 21.0862 2.98346 20.9633 2.47104C20.8219 1.88324 20.3066 1.49063 19.6178 1.44666C19.0319 1.40986 18.3445 1.6221 17.7022 2.11971C17.5563 1.32506 17.1841 0.712577 16.7175 0.35182C16.1733 -0.0690633 15.5265 -0.115728 15.0264 0.230222C14.5919 0.532199 14.0025 1.33583 14.4799 3.41287C13.4076 3.53447 12.437 4.22906 12.0273 5.29832L10.5417 9.18364C10.4351 9.17377 10.3276 9.1814 10.2269 9.22178C10.1691 8.63263 10.0774 8.03451 9.94687 7.43191C8.99021 3.02295 6.42829 -0.0416924 4.10802 0.453227C2.42235 0.814433 1.40427 2.95026 1.34058 5.78382C1.31439 5.92695 1.31348 6.07458 1.33742 6.22489C1.34871 7.16268 1.45847 8.16509 1.68341 9.20159V9.20204C1.68341 9.20204 1.68341 9.20204 1.68341 9.20249C1.748 9.49908 1.82117 9.79074 1.90066 10.0779L1.14726 9.35908C1.14501 9.35684 1.14139 9.35639 1.13913 9.35415C1.07771 9.29716 1.00634 9.2514 0.926393 9.21999C0.919166 9.21729 0.912391 9.21595 0.905164 9.21326C0.833799 9.18768 0.757917 9.17153 0.67797 9.17153C0.674808 9.17153 0.672098 9.17242 0.668936 9.17242C0.663516 9.17242 0.658548 9.17377 0.653128 9.17377C0.56776 9.17691 0.486006 9.19396 0.411479 9.22537C0.410124 9.22582 0.409221 9.22672 0.407866 9.22761C0.326564 9.26261 0.253843 9.31332 0.192415 9.37569C0.191512 9.37658 0.190157 9.37703 0.188802 9.37793C0.186543 9.38017 0.186091 9.38376 0.183833 9.38601C0.12647 9.44703 0.0803987 9.51837 0.0487812 9.59735C0.0460711 9.60453 0.0447164 9.61126 0.0420063 9.61843C0.0162606 9.68933 0 9.76471 0 9.84413V26.552C0 27.3503 0.716814 28 1.59759 28H19.3684C20.2492 28 20.966 27.3507 20.966 26.552V9.84324C20.966 9.76337 20.9498 9.68798 20.924 9.61709C20.9231 9.61036 20.9218 9.60363 20.919 9.5969ZM19.1932 2.83315C19.4357 2.76315 19.5884 2.78917 19.6467 2.81026C19.6322 2.98212 19.349 3.57441 18.0333 4.39867L17.657 4.25688C18.2383 3.19032 18.9592 2.9009 19.1932 2.83315ZM15.7853 1.35243C15.8426 1.37486 15.9736 1.45608 16.1087 1.66876C16.2388 1.87382 16.5798 2.56707 16.3038 3.74536L15.9357 3.60626C15.5061 2.12868 15.6814 1.49018 15.7853 1.35243ZM13.2956 5.77484C13.6131 4.94385 14.5531 4.52431 15.3896 4.8402L16.4976 5.25884C16.4985 5.25928 16.4994 5.25973 16.5003 5.26018C16.5012 5.26063 16.5021 5.26063 16.503 5.26063L17.6114 5.67927C18.4479 5.99471 18.8698 6.92801 18.5523 7.75856L17.3824 10.8156L15.8517 9.35729C15.5897 9.10736 15.1755 9.10736 14.9135 9.35729L12.9311 11.2477L11.6646 10.0389L13.2956 5.77484ZM4.39438 1.76703C5.72503 1.48614 7.78604 3.85529 8.623 7.71324C8.82083 8.62366 8.92291 9.51837 8.93827 10.3817L8.02994 11.2481L6.04888 9.35774C5.78691 9.10736 5.37227 9.10781 5.11029 9.35774L3.56826 10.829C3.36501 10.2807 3.19337 9.70503 3.05516 9.10646C3.38036 8.82872 4.53802 8.27143 6.46307 7.85907C6.82893 7.78055 7.06155 7.42248 6.9825 7.05948C6.90391 6.69603 6.54302 6.46585 6.17761 6.54347C5.01047 6.7934 3.9296 7.13576 3.13465 7.50729C3.05064 7.54632 2.93049 7.60286 2.79589 7.67465C2.72995 7.16403 2.69201 6.6718 2.68478 6.20739C2.68613 6.18406 2.68659 6.16073 2.68523 6.1374C2.68478 6.09028 2.68659 6.04451 2.68659 5.9974C2.76247 5.77529 3.44405 5.17583 4.80496 4.88417C5.17082 4.80565 5.40343 4.44758 5.32439 4.08413C5.24535 3.72068 4.88445 3.4896 4.51905 3.56812C3.93051 3.69421 3.35688 3.89523 2.86003 4.15189C3.13555 2.79994 3.70557 1.91465 4.39438 1.76703ZM19.3702 26.6525H1.59939C1.4517 26.6525 1.36452 26.5776 1.35684 26.5507V11.4231L2.66039 12.6669C2.92236 12.9173 3.337 12.9169 3.59898 12.6669L5.58004 10.777L7.5611 12.6674C7.82308 12.9177 8.23727 12.9177 8.49969 12.6674L10.086 11.1543C10.0937 11.1472 10.1013 11.14 10.109 11.1324L10.4817 10.777L12.4623 12.6669C12.7242 12.9169 13.1384 12.9177 13.4009 12.6669L15.3833 10.7761L17.3684 12.6669C17.4994 12.7917 17.6683 12.854 17.8372 12.854C18.0062 12.854 18.1751 12.7917 18.3061 12.6669L19.6137 11.4213L19.6141 26.5489C19.6047 26.5772 19.5175 26.6525 19.3702 26.6525Z" fill="#333333"/>
</svg>
