<svg width="10" height="13" viewBox="0 0 10 13" fill="none" xmlns="http://www.w3.org/2000/svg">
<path d="M8.38687 7.30715C8.37924 7.2362 8.34694 7.16996 8.29535 7.11951C8.24376 7.06906 8.17603 7.03747 8.10348 7.03001C8.02387 7.02067 7.94427 7.016 7.86625 7.01289C8.30345 6.43477 8.49046 5.71163 8.38687 4.99976C8.37924 4.92881 8.34694 4.86257 8.29535 4.81213C8.24376 4.76168 8.17603 4.73009 8.10348 4.72263C8.02387 4.71329 7.94427 4.70862 7.86625 4.7055C8.3037 4.1269 8.49072 3.40319 8.38687 2.69082C8.37829 2.62095 8.34577 2.55598 8.29459 2.5065C8.24342 2.45702 8.17661 2.42595 8.10507 2.41836C7.5991 2.35393 7.08469 2.4205 6.61328 2.61142C6.6394 2.47167 6.65325 2.32999 6.65467 2.18793C6.64743 1.77482 6.54316 1.36887 6.34992 1.00144C6.15668 0.634019 5.87964 0.314965 5.54021 0.0689362C5.4836 0.0243262 5.41309 0 5.3404 0C5.2677 0 5.19719 0.0243262 5.14059 0.0689362C4.80107 0.314883 4.52397 0.633919 4.33071 1.00136C4.13746 1.3688 4.03324 1.7748 4.02613 2.18793C4.02755 2.32999 4.0414 2.47167 4.06752 2.61142C3.59661 2.4207 3.08277 2.35413 2.57732 2.41836C2.52755 2.42398 2.47984 2.44101 2.43806 2.46807C2.39629 2.49512 2.36163 2.53143 2.33691 2.57405L2.92599 3.15012C2.92599 3.10964 2.92599 3.06916 2.92599 3.02712C3.20448 3.01496 3.48256 3.05884 3.743 3.15606C4.00344 3.25328 4.2407 3.40175 4.44007 3.59229C4.6333 3.78838 4.78408 4.02058 4.88339 4.275C4.98269 4.52941 5.02848 4.80081 5.018 5.07294C4.97501 5.07294 4.93362 5.07294 4.89063 5.07294L6.02102 6.17992C6.08819 6.08106 6.16496 5.98877 6.25028 5.90435C6.45079 5.71538 6.68824 5.56793 6.9484 5.47081C7.20856 5.3737 7.48609 5.32893 7.76436 5.33918C7.77539 5.61137 7.72986 5.88292 7.63053 6.13741C7.53119 6.3919 7.38012 6.62405 7.18643 6.81983C7.09656 6.90288 6.99842 6.97694 6.89349 7.04091L7.53032 7.65123C7.60882 7.64734 7.68746 7.64734 7.76595 7.65123C7.76466 7.72355 7.75988 7.79577 7.75162 7.86765L8.31045 8.41569C8.40865 8.05443 8.4346 7.67803 8.38687 7.30715V7.30715ZM4.68048 2.18482C4.68549 1.91267 4.7466 1.6443 4.86012 1.39578C4.97365 1.14726 5.13727 0.923677 5.34119 0.73842C5.54512 0.923677 5.70874 1.14726 5.82227 1.39578C5.93579 1.6443 5.99689 1.91267 6.00191 2.18482C5.99689 2.45697 5.93579 2.72533 5.82227 2.97385C5.70874 3.22238 5.54512 3.44596 5.34119 3.63121C5.13727 3.44596 4.97365 3.22238 4.86012 2.97385C4.7466 2.72533 4.68549 2.45697 4.68048 2.18482V2.18482ZM7.18165 4.50933C6.98157 4.69889 6.74419 4.84672 6.48393 4.94388C6.22366 5.04103 5.94593 5.08547 5.66757 5.0745C5.65215 4.80188 5.69569 4.52914 5.79537 4.27409C5.89504 4.01905 6.04861 3.78743 6.24603 3.59437C6.44346 3.4013 6.68031 3.25112 6.94111 3.15365C7.20191 3.05618 7.48081 3.01359 7.75958 3.02868C7.77006 3.30081 7.72428 3.5722 7.62497 3.82662C7.52567 4.08104 7.37489 4.31324 7.18165 4.50933V4.50933Z" fill="#381A56"/>
<path d="M2.64811 5.17054C2.57617 5.17825 2.50901 5.21091 2.45786 5.26307C2.40671 5.31522 2.37468 5.3837 2.36712 5.45705C2.26475 6.19297 2.45014 6.94043 2.88331 7.53825C2.80438 7.53825 2.72546 7.53825 2.64811 7.55595C2.57617 7.56366 2.50901 7.59633 2.45786 7.64848C2.40671 7.70063 2.37468 7.76911 2.36712 7.84246C2.30486 8.26571 2.33913 8.6979 2.46725 9.10546C2.59538 9.51303 2.81392 9.88499 3.10589 10.1925C3.35483 10.4444 3.65064 10.6431 3.97593 10.7769C4.30123 10.9107 4.64946 10.9768 5.00018 10.9715H5.03333V11.8342C5.03333 11.9196 5.06659 12.0015 5.1258 12.0619C5.18501 12.1222 5.26531 12.1562 5.34904 12.1562C5.43278 12.1562 5.51308 12.1222 5.57229 12.0619C5.6315 12.0015 5.66476 11.9196 5.66476 11.8342V10.9635H5.73737C6.45267 10.9764 7.14371 10.699 7.65849 10.1925C7.76472 10.0844 7.86138 9.96696 7.94737 9.84157L7.48485 9.36674C7.40818 9.49706 7.3165 9.61756 7.21176 9.72568C7.01277 9.92031 6.77753 10.0723 6.51996 10.1726C6.26238 10.273 5.98769 10.3197 5.71212 10.31C5.70173 10.0286 5.74712 9.74806 5.84558 9.48504C5.94404 9.22202 6.09355 8.98196 6.28514 8.77924C6.39173 8.67196 6.51043 8.57795 6.63874 8.49917L6.05309 7.90041C5.94065 7.91655 5.82724 7.92461 5.71369 7.92455C5.71201 7.80776 5.71887 7.69101 5.73422 7.57527L2.43658 4.20801C2.52292 4.54991 2.67475 4.87102 2.88331 5.15284C2.80596 5.15767 2.72703 5.16088 2.64811 5.17054ZM4.4903 6.389C4.68189 6.59172 4.83139 6.83178 4.92986 7.0948C5.02832 7.35782 5.07371 7.63839 5.06332 7.91972C4.78753 7.92931 4.51264 7.88255 4.25483 7.78221C3.99701 7.68187 3.76149 7.52997 3.5621 7.33544C3.37006 7.13305 3.22026 6.89305 3.12177 6.62995C3.02328 6.36685 2.97814 6.08611 2.98908 5.80472C3.26525 5.79391 3.54072 5.84009 3.79895 5.94049C4.05719 6.04089 4.29288 6.19345 4.49188 6.389H4.4903ZM4.4903 8.77441C4.68218 8.977 4.83197 9.21699 4.9307 9.48002C5.02944 9.74305 5.07508 10.0237 5.0649 10.3051C4.78913 10.3145 4.51429 10.2677 4.2565 10.1674C3.99871 10.067 3.76317 9.91523 3.56368 9.72085C3.37164 9.51846 3.22184 9.27846 3.12335 9.01536C3.02486 8.75226 2.97972 8.47153 2.99066 8.19013C3.26668 8.17851 3.54213 8.22432 3.80023 8.32477C4.05832 8.42522 4.29365 8.57821 4.49188 8.77441H4.4903Z" fill="#381A56"/>
<rect x="0.655273" y="2.33789" width="13.1063" height="0.935076" transform="rotate(44.5232 0.655273 2.33789)" fill="#381A56"/>
</svg>
