<svg width="48" height="40" viewBox="0 0 48 60" fill="none" xmlns="http://www.w3.org/2000/svg">
<g clip-path="url(#clip0)">
<path d="M38.2965 32.3117L38.9961 34.5145C38.4005 35.0141 37.7721 35.4742 37.115 35.8919C36.4405 36.3183 35.7106 36.6525 34.9452 36.8853C32.93 37.5143 31.1855 37.4657 29.7118 36.7394C28.2382 36.0131 27.1833 34.6585 26.5471 32.6755C25.9201 30.7117 25.9648 28.984 26.6812 27.4925C27.3977 26.0009 28.6404 24.9797 30.4095 24.4287C32.0458 23.9168 33.4596 23.9962 34.6508 24.6668C35.8421 25.3373 36.715 26.5416 37.2695 28.2795L37.6212 29.3756L28.6693 32.1639C28.8649 32.8267 29.1882 33.4459 29.6215 33.9876C29.9739 34.4265 30.4217 34.7816 30.9319 35.0263C31.442 35.271 32.0014 35.3992 32.5685 35.4014C33.1791 35.4106 33.7869 35.3194 34.3671 35.1317C35.2211 34.8596 36.0153 34.4304 36.7078 33.8666C37.4424 33.2805 37.9364 32.7737 38.1896 32.3463L38.2965 32.3117ZM28.1805 30.6205L35.1405 28.4542C34.7953 27.3946 34.2635 26.6587 33.5451 26.2466C32.828 25.8329 31.9224 25.7965 30.8361 26.1343C29.7497 26.4722 28.9714 27.0653 28.5264 27.9062C28.0818 28.7396 27.9589 29.7042 28.1805 30.6205Z" fill="#112C45"/>
<path d="M33.4848 38.4123L34.4643 41.7602C33.7575 42.1729 33.0276 42.5455 32.278 42.8765C31.5695 43.1992 30.839 43.4725 30.0918 43.6942C29.9946 43.7211 29.8974 43.7441 29.8071 43.7701C29.7948 44.5093 29.5899 45.2329 29.2122 45.8711C28.8345 46.5094 28.2968 47.0408 27.6508 47.4141C27.0048 47.7874 26.2723 47.99 25.524 48.0024C24.7757 48.0149 24.0367 47.8367 23.3784 47.4851C22.7201 47.1334 22.1645 46.6202 21.7653 45.9949C21.3661 45.3695 21.1367 44.6531 21.0992 43.9148C21.0618 43.1764 21.2175 42.4409 21.5513 41.7793C21.8852 41.1176 22.386 40.5521 23.0054 40.1371C22.634 39.3779 22.331 38.5878 22.0998 37.776L18.6582 26.0028L14.5772 27.1853L13.6629 24.0553L17.7439 22.8728L21.5159 21.7969L29.3008 19.5826L30.2161 22.7154L22.4312 24.9345L25.3782 35.0223C25.717 36.1849 26.0085 37.0856 26.2527 37.7242C26.4914 38.3541 26.8668 38.9248 27.3526 39.3962C27.7986 39.8434 28.1941 40.1045 28.781 40.2005C29.3679 40.2965 29.3883 40.3233 30.1219 40.1477C30.7418 39.9989 31.352 39.6975 31.9681 39.3299C32.4225 39.0689 32.8614 38.7824 33.2827 38.4719L33.4848 38.4123ZM27.1282 43.6914C27.1282 43.3639 27.0299 43.0438 26.8457 42.7715C26.6615 42.4992 26.3998 42.287 26.0935 42.1617C25.7872 42.0364 25.4502 42.0036 25.1251 42.0675C24.7999 42.1314 24.5013 42.2891 24.2669 42.5206C24.0325 42.7522 23.8728 43.0472 23.8082 43.3683C23.7435 43.6895 23.7767 44.0224 23.9035 44.325C24.0304 44.6275 24.2452 44.8861 24.5209 45.068C24.7965 45.2499 25.1206 45.347 25.4521 45.347C25.896 45.3468 26.3218 45.1727 26.636 44.8628C26.9501 44.553 27.1272 44.1328 27.1282 43.6942V43.6914Z" fill="#112C45"/>
<path d="M19.8922 16.8866L21.1175 21.0858L17.4125 22.1416L16.2009 17.9827C15.6509 16.4095 14.9231 16.1014 14.6851 15.9987C13.9709 15.6945 12.5095 15.6043 9.60519 16.9192L8 13.4562C11.4135 11.9128 14.0991 11.6018 16.2115 12.5021C17.911 13.2239 19.1343 14.6713 19.866 16.8002L19.8922 16.8866Z" fill="#112C45"/>
</g>
<defs>
<clipPath id="clip0">
<rect width="31" height="50" fill="white" transform="translate(8 12)"/>
</clipPath>
</defs>
</svg>
