<svg width="20" height="20" viewBox="0 0 20 20" fill="none" xmlns="http://www.w3.org/2000/svg">
<path fill-rule="evenodd" clip-rule="evenodd" d="M16.3216 10.8332H10.8335V16.3214L12.7442 14.4106L13.9227 15.5891L10.0001 19.5117L6.07754 15.5891L7.25605 14.4106L9.16679 16.3214V10.8332H3.67864L5.58938 12.744L4.41087 13.9225L0.488281 9.99988L4.41087 6.07729L5.58938 7.2558L3.67864 9.16655H9.16679V3.67839L7.25605 5.58914L6.07754 4.41063L10.0001 0.488037L13.9227 4.41063L12.7442 5.58914L10.8335 3.67839V9.16655H16.3216L14.4109 7.2558L15.5894 6.07729L19.512 9.99988L15.5894 13.9225L14.4109 12.744L16.3216 10.8332Z" fill="#DEAA00"/>
</svg>
