<svg width="24" height="24" viewBox="0 0 24 24" fill="none" xmlns="http://www.w3.org/2000/svg">
<g clip-path="url(#clip0)">
<path d="M23.4791 10.9235C23.9515 10.4631 24.1182 9.78743 23.9145 9.15932C23.7102 8.53121 23.1782 8.08283 22.5246 7.98768L16.7135 7.1433C16.466 7.10726 16.2522 6.95203 16.1416 6.7276L13.5436 1.4624C13.2519 0.870815 12.6598 0.503174 12 0.503174C11.3407 0.503174 10.7486 0.870815 10.4569 1.4624L7.8584 6.72808C7.74787 6.95251 7.53354 7.10774 7.28604 7.14378L1.4749 7.98816C0.821801 8.08283 0.289322 8.53169 0.0850767 9.1598C-0.118688 9.78792 0.0480723 10.4636 0.520479 10.924L4.72504 15.0224C4.9043 15.1973 4.98648 15.4491 4.94419 15.6952L3.95228 21.4823C3.86433 21.9917 3.99793 22.4872 4.32761 22.8779C4.8399 23.4868 5.73426 23.6723 6.44935 23.2964L11.6463 20.5639C11.8635 20.45 12.137 20.451 12.3537 20.5639L17.5512 23.2964C17.8039 23.4296 18.0735 23.4968 18.3518 23.4968C18.8598 23.4968 19.3413 23.271 19.6724 22.8779C20.0026 22.4872 20.1357 21.9907 20.0478 21.4823L19.0554 15.6952C19.0131 15.4486 19.0952 15.1973 19.2745 15.0224L23.4791 10.9235Z" fill="#CECECE"/>
</g>
<defs>
<clipPath id="clip0">
<rect width="24" height="24" fill="white"/>
</clipPath>
</defs>
</svg>
