<svg width="17" height="17" viewBox="0 0 17 17" fill="none" xmlns="http://www.w3.org/2000/svg">
<g clip-path="url(#clip0)">
<path d="M3.76756 10.2734L3.17581 12.4825L1.01299 12.5283C0.366629 11.3294 0 9.95775 0 8.50013C0 7.09063 0.342789 5.76144 0.950406 4.59106H0.950871L2.87639 4.94408L3.71988 6.85804C3.54334 7.37272 3.44712 7.92522 3.44712 8.50013C3.44718 9.12409 3.56021 9.72191 3.76756 10.2734Z" fill="#FBBB00"/>
<path d="M16.8514 6.91235C16.9491 7.42654 17 7.95756 17 8.50026C17 9.10881 16.936 9.70241 16.8141 10.275C16.4003 12.2235 15.3191 13.9249 13.8214 15.1289L13.8209 15.1284L11.3956 15.0047L11.0524 12.8619C12.0462 12.279 12.8229 11.3669 13.232 10.275H8.68683V6.91235H13.2983H16.8514Z" fill="#518EF8"/>
<path d="M13.8208 15.1282L13.8213 15.1287C12.3646 16.2995 10.5142 17.0001 8.49992 17.0001C5.26291 17.0001 2.44858 15.1908 1.01291 12.5283L3.76747 10.2734C4.48529 12.1892 6.33334 13.5529 8.49992 13.5529C9.43116 13.5529 10.3036 13.3012 11.0522 12.8617L13.8208 15.1282Z" fill="#28B446"/>
<path d="M13.9255 1.95686L11.1719 4.21122C10.3971 3.72692 9.48122 3.44715 8.5 3.44715C6.28439 3.44715 4.40177 4.87346 3.71992 6.85791L0.950874 4.59093H0.950409C2.36506 1.86346 5.21489 0 8.5 0C10.5624 0 12.4534 0.734652 13.9255 1.95686Z" fill="#F14336"/>
</g>
<defs>
<clipPath id="clip0">
<rect width="17" height="17" fill="white"/>
</clipPath>
</defs>
</svg>
