<svg width="161" height="101" viewBox="0 0 161 101" fill="none" xmlns="http://www.w3.org/2000/svg">
<path d="M155.03 87.4225C155.03 85.4092 153.637 83.8604 151.726 83.8604C149.765 83.8604 148.371 85.3575 148.371 87.4225C148.371 89.4875 149.765 90.9847 151.726 90.9847C153.688 90.9331 155.03 89.4359 155.03 87.4225ZM143.157 87.4225C143.157 82.7763 146.77 79.3174 151.726 79.3174C156.682 79.3174 160.296 82.7763 160.296 87.4225C160.296 92.0688 156.682 95.5277 151.726 95.5277C146.77 95.5277 143.157 92.0688 143.157 87.4225ZM132.728 89.9006C130.87 89.9006 129.476 88.5067 129.476 86.5449C129.476 84.5832 130.818 83.2409 132.728 83.2409C134.638 83.2409 135.981 84.6348 135.981 86.5965C136.032 88.5067 134.638 89.9006 132.728 89.9006ZM139.078 79.5755H137.684C136.755 79.5755 136.29 80.0918 136.29 80.9694V81.021C135.051 79.9885 133.451 79.3174 131.593 79.3174C127.463 79.3174 124.313 82.4149 124.313 86.5449C124.313 90.7266 127.463 93.8241 131.593 93.8241C133.141 93.8241 134.587 93.3594 135.723 92.5851V94.1338C135.723 96.1988 133.864 97.0764 131.954 97.0764C129.992 97.0764 128.34 96.1472 127.514 95.3728C126.74 94.7533 126.172 94.9082 125.656 95.4244L124.778 96.4569C124.159 97.1797 124.365 97.7992 124.83 98.3154C126.327 99.8126 128.598 100.948 131.851 100.948C136.755 100.948 140.524 98.4187 140.524 93.1529V80.9694C140.524 80.0918 139.956 79.5755 139.078 79.5755ZM121.681 86.0287V93.6692C121.681 94.5468 121.164 95.0631 120.287 95.0631H117.757C116.828 95.0631 116.363 94.5468 116.363 93.6692V86.39C116.363 84.8929 115.486 83.8088 113.885 83.8088C112.44 83.8088 111.407 84.8413 111.407 86.39V93.6692C111.407 94.5468 110.891 95.0631 110.013 95.0631H107.484C106.606 95.0631 106.09 94.5468 106.09 93.6692V84.4283C106.09 84.1702 105.986 84.0153 105.78 84.0153C105.47 84.0153 105.109 84.2734 104.747 84.2734C104.489 84.325 104.128 84.1702 103.973 83.3958L103.56 81.3824C103.354 80.5564 103.508 80.195 104.18 79.8336C104.851 79.4723 105.78 79.3174 106.503 79.3174C108.206 79.3174 109.91 80.0401 110.426 81.9503C111.407 80.4015 112.956 79.3174 115.331 79.3174C119.099 79.3174 121.681 82.0535 121.681 86.0287ZM93.5964 90.9331C91.6347 90.9331 90.2408 89.4359 90.2408 87.3709C90.2408 85.3059 91.6347 83.8088 93.5964 83.8088C95.5582 83.8088 96.9005 85.3059 96.9005 87.3709C96.9005 89.4359 95.5582 90.9331 93.5964 90.9331ZM93.5964 95.4761C98.6041 95.4761 102.166 92.0172 102.166 87.3709C102.166 82.7247 98.5525 79.2658 93.5964 79.2658C88.5888 79.2658 85.0267 82.7247 85.0267 87.3709C85.0267 92.0688 88.6404 95.4761 93.5964 95.4761ZM78.0057 87.4225C78.0057 85.4092 76.6634 83.8604 74.7016 83.8604C72.8431 83.8604 71.3976 85.2543 71.3976 87.4225C71.3976 89.5908 72.8431 90.9847 74.7016 90.9847C76.6118 90.9331 78.0057 89.3843 78.0057 87.4225ZM83.2198 87.4225C83.2198 91.9655 79.9674 95.5277 75.5276 95.5277C74.0305 95.5277 72.7399 95.1147 71.6041 94.4436V99.6061C71.6041 100.484 71.0879 101 70.2102 101H67.6806C66.803 101 66.2867 100.484 66.2867 99.6061V81.0726C66.2867 80.195 66.803 79.6788 67.6806 79.6788H69.1777C70.0554 79.6788 70.5716 80.195 70.5716 81.0726V81.2791C71.9139 80.1434 73.5659 79.4206 75.5276 79.4206C79.9674 79.3174 83.2198 82.8279 83.2198 87.4225ZM55.5487 82.9828C56.4263 82.9828 57.1491 83.2925 57.7169 83.8604C58.1299 84.2734 58.4397 84.8929 58.5946 85.6673H52.6061C52.7609 83.9636 53.8967 82.9828 55.5487 82.9828ZM52.5028 88.5583H62.3116C63.4474 88.5583 63.7055 88.1453 63.7055 87.0612C63.7055 84.9445 62.8795 82.9311 61.434 81.4856C60.0917 80.1434 58.0783 79.3174 55.6003 79.3174C50.7476 79.3174 47.3403 82.7247 47.3403 87.3709C47.3403 92.1721 50.9541 95.4761 55.8585 95.4761C58.2848 95.4761 61.0726 94.6501 62.4665 93.2046C62.8278 92.7916 63.086 92.2753 62.4148 91.6558L61.3823 90.5717C60.8145 89.9522 60.3498 90.1587 59.782 90.6233C58.6978 91.3977 57.6137 91.7074 56.4779 91.7074C54.4646 91.7074 52.7609 90.6233 52.5028 88.5583ZM45.8948 94.4436C44.9655 95.1147 43.52 95.5277 41.9713 95.5277C38.8738 95.5277 35.9311 93.7724 35.9311 89.5392V83.4474H34.5889C33.6596 83.4474 33.195 82.9311 33.195 82.0535V81.021C33.195 80.0918 33.7112 79.6271 34.5889 79.6271H35.9311V76.065C35.9311 75.1874 36.4474 74.826 37.325 74.6711L39.803 74.2581C40.7323 74.0516 41.1969 74.7227 41.1969 75.652V79.6788H44.2428C45.1204 79.6788 45.6367 80.195 45.6367 81.0726V82.1051C45.6367 82.9828 45.1204 83.499 44.2428 83.499H41.1969V89.0229C41.1969 90.52 41.9713 91.0363 42.9005 91.0363C43.3652 91.0363 43.8298 90.8298 44.1395 90.6233C44.9139 90.107 45.2753 90.52 45.5334 91.0879L46.411 93.1013C46.824 93.7208 46.3078 94.1338 45.8948 94.4436ZM24.3155 82.9828C25.1931 82.9828 25.9158 83.2925 26.4837 83.8604C26.8967 84.2734 27.2065 84.8929 27.3613 85.6673H21.3728C21.5793 83.9636 22.7151 82.9828 24.3155 82.9828ZM21.3212 88.5583H31.13C32.2657 88.5583 32.5239 88.1453 32.5239 87.0612C32.5239 84.9445 31.6979 82.9311 30.2524 81.4856C28.9101 80.1434 26.8967 79.3174 24.4187 79.3174C19.5659 79.3174 16.1587 82.7247 16.1587 87.3709C16.1587 92.1721 19.7724 95.4761 24.6768 95.4761C27.1032 95.4761 29.891 94.6501 31.2849 93.2046C31.6462 92.7916 31.9044 92.2753 31.2332 91.6558L30.2007 90.5717C29.6329 89.9522 29.1682 90.1587 28.6003 90.6233C27.5162 91.3977 26.4321 91.7074 25.2963 91.7074C23.283 91.7074 21.5793 90.6233 21.3212 88.5583ZM14.6615 95.1147H11.3059C10.3767 95.1147 9.80878 94.5984 9.18928 93.7208L6.24665 89.3327L5.26577 90.4684V93.6692C5.26577 94.5468 4.74952 95.0631 3.87189 95.0631H1.39389C0.516258 95.0631 0 94.5468 0 93.6692V75.0325C0 74.1549 0.516258 73.7935 1.39389 73.6386L3.87189 73.174C4.80114 72.9675 5.31739 73.6902 5.31739 74.5679V85.8222L9.18928 80.9178C9.8604 80.0918 10.3767 79.5239 11.3059 79.5239H14.4551C15.3327 79.5239 15.9006 80.0918 15.1778 80.9178L10.325 86.6482L15.4359 93.6176C16.1587 94.5468 15.5392 95.1147 14.6615 95.1147Z" fill="#381A56"/>
<path d="M67.7928 0.00758216C67.7928 0.00758216 58.1777 -0.598085 58.1777 9.01699V48.3858C58.1777 48.3858 58.1777 58.0009 67.49 55.6539L93.2311 49.0672C93.2311 49.0672 102.543 46.6445 102.543 37.0294V11.8939C102.543 11.8939 102.543 2.27886 92.9283 1.59748L67.7928 0.00758216Z" fill="#857AB0"/>
<path d="M97.5465 31.6539C97.3194 31.4268 97.0166 31.1996 96.7137 31.0482C94.291 29.3826 91.944 27.6413 89.5213 25.9757C89.1428 25.6729 88.6886 25.5214 88.4614 24.9915C88.5371 24.6886 88.6129 24.3858 88.6886 24.083C89.4457 21.2817 90.2027 18.5562 90.9598 15.7549C91.1113 15.225 91.187 14.695 91.187 14.2408C91.187 13.7108 90.7327 13.408 90.2027 13.408C89.9756 13.408 89.7485 13.4837 89.5971 13.5594C88.4614 14.0136 87.3258 14.4679 86.1901 14.9221C85.5088 15.225 84.9788 15.6792 84.7517 16.3606C84.5245 17.042 84.2974 17.7234 84.146 18.3291C83.5403 20.7518 82.9347 23.1744 82.2533 25.5214C82.1776 25.7486 82.0261 25.9757 81.8747 26.2785C81.6476 25.6729 81.4205 25.2186 81.269 24.8401C79.7549 20.8275 78.2407 16.7392 76.7265 12.7266C76.4994 12.0452 76.1965 11.3638 75.9694 10.6824C75.3637 9.09252 74.3038 8.63827 72.7896 9.54678C69.9884 11.2124 67.1114 12.8023 64.2345 14.3922C64.0073 14.5436 63.7802 14.6193 63.5531 14.8464C62.9474 15.3764 62.796 15.9063 63.326 16.5877C63.9316 17.3448 64.5373 18.0262 65.143 18.7833C65.2187 18.859 65.2944 18.9347 65.4458 19.0104C65.8244 19.3133 66.2029 19.389 66.6572 19.1619C67.3386 18.7833 67.9442 18.4048 68.6256 18.0262C69.0799 17.7234 69.6098 17.4963 70.1398 17.1934C70.2912 17.4963 70.4426 17.7991 70.594 18.0262C71.124 19.3133 71.5783 20.5246 72.1082 21.8117C73.9253 26.43 75.7423 31.0482 77.5593 35.7422C77.7107 36.1207 77.7107 36.4993 78.165 36.7264C78.4678 36.4993 78.7706 36.3479 79.0735 36.1964C81.269 34.9851 83.7675 35.7422 84.8274 38.0135C84.9788 38.392 85.0545 38.7706 85.2059 39.1491C85.2816 39.3005 85.2059 39.5276 85.5088 39.5276C85.5845 39.4519 85.7359 39.3762 85.8116 39.3005C86.2659 38.6948 86.2659 38.0135 85.963 37.3321C85.5088 36.1207 85.0545 34.9851 84.6002 33.7737C84.5245 33.4709 84.3731 33.1681 84.3731 32.8652C84.5245 32.2595 84.6002 31.5782 85.0545 31.0482C85.4331 31.2753 85.6602 31.4268 85.963 31.6539C87.3258 32.6381 88.6128 33.6223 89.9756 34.6065C90.3542 34.8337 90.657 35.1365 91.0355 35.3636C91.8683 35.8936 92.7769 35.9693 93.6097 35.4394C94.6696 34.9094 95.7295 34.3037 96.7137 33.7737C97.0166 33.6223 97.2437 33.4709 97.4708 33.2438C98.0765 32.7138 98.0765 32.1081 97.5465 31.6539Z" fill="white"/>
<path d="M82.2534 43.0861C83.2376 42.4047 83.6919 41.4962 83.7676 40.1334C83.7676 39.7549 83.6162 39.3006 83.389 38.8464C82.7077 37.4079 81.042 37.0293 79.6793 37.7864C78.1651 38.6192 77.5594 40.7391 78.3922 42.2533C79.225 43.5403 80.9663 43.9946 82.2534 43.0861Z" fill="white"/>
<path d="M80.1337 46.8714C79.2252 46.8714 78.3924 46.6442 77.4839 46.19C73.0171 43.313 75.2883 38.0891 75.2883 38.0891C75.3641 37.862 75.6669 37.7106 75.894 37.862C76.1211 37.9377 76.2726 38.2405 76.1211 38.4677C76.0454 38.6191 74.1527 42.9345 77.9382 45.3572C80.5123 46.72 83.3892 45.5086 85.0548 42.4045C85.2062 42.1774 85.5091 42.1017 85.7362 42.1774C85.9633 42.3288 86.0391 42.6317 85.9634 42.8588C84.6006 45.4329 82.405 46.8714 80.1337 46.8714Z" fill="white"/>
</svg>
