<svg width="57" height="16" viewBox="0 0 57 16" fill="none" xmlns="http://www.w3.org/2000/svg">
<path d="M11.3876 9.30715C11.38 9.2362 11.3477 9.16996 11.2961 9.11951C11.2445 9.06906 11.1768 9.03747 11.1042 9.03001C11.0246 9.02067 10.945 9.016 10.867 9.01289C11.3042 8.43477 11.4912 7.71163 11.3876 6.99976C11.38 6.92881 11.3477 6.86257 11.2961 6.81213C11.2445 6.76168 11.1768 6.73009 11.1042 6.72263C11.0246 6.71329 10.945 6.70862 10.867 6.7055C11.3044 6.1269 11.4915 5.40319 11.3876 4.69082C11.379 4.62095 11.3465 4.55598 11.2953 4.5065C11.2442 4.45702 11.1773 4.42595 11.1058 4.41836C10.5998 4.35393 10.0854 4.4205 9.61401 4.61142C9.64013 4.47167 9.65398 4.32999 9.6554 4.18793C9.64817 3.77482 9.5439 3.36887 9.35065 3.00144C9.15741 2.63402 8.88037 2.31497 8.54094 2.06894C8.48434 2.02433 8.41383 2 8.34113 2C8.26843 2 8.19793 2.02433 8.14132 2.06894C7.8018 2.31488 7.5247 2.63392 7.33145 3.00136C7.13819 3.3688 7.03398 3.7748 7.02686 4.18793C7.02828 4.32999 7.04213 4.47167 7.06825 4.61142C6.59734 4.4207 6.0835 4.35413 5.57805 4.41836C5.52828 4.42398 5.48057 4.44102 5.4388 4.46807C5.39702 4.49512 5.36237 4.53143 5.33765 4.57405L5.92672 5.15012C5.92672 5.10964 5.92672 5.06916 5.92672 5.02712C6.20521 5.01496 6.48329 5.05884 6.74373 5.15606C7.00417 5.25328 7.24143 5.40175 7.4408 5.59229C7.63403 5.78838 7.78482 6.02058 7.88412 6.275C7.98343 6.52941 8.02921 6.80081 8.01873 7.07294C7.97575 7.07294 7.93435 7.07294 7.89136 7.07294L9.02175 8.17992C9.08892 8.08106 9.1657 7.98877 9.25101 7.90435C9.45153 7.71538 9.68897 7.56793 9.94913 7.47081C10.2093 7.3737 10.4868 7.32893 10.7651 7.33918C10.7761 7.61137 10.7306 7.88292 10.6313 8.13741C10.5319 8.3919 10.3808 8.62405 10.1872 8.81983C10.0973 8.90288 9.99915 8.97694 9.89422 9.04091L10.5311 9.65123C10.6095 9.64734 10.6882 9.64734 10.7667 9.65123C10.7654 9.72355 10.7606 9.79577 10.7524 9.86765L11.3112 10.4157C11.4094 10.0544 11.4353 9.67803 11.3876 9.30715ZM7.68121 4.18482C7.68623 3.91267 7.74733 3.6443 7.86085 3.39578C7.97438 3.14726 8.138 2.92368 8.34193 2.73842C8.54585 2.92368 8.70947 3.14726 8.823 3.39578C8.93653 3.6443 8.99763 3.91267 9.00265 4.18482C8.99763 4.45697 8.93653 4.72533 8.823 4.97385C8.70947 5.22238 8.54585 5.44596 8.34193 5.63121C8.138 5.44596 7.97438 5.22238 7.86085 4.97385C7.74733 4.72533 7.68623 4.45697 7.68121 4.18482ZM10.1824 6.50933C9.9823 6.69889 9.74493 6.84672 9.48466 6.94388C9.2244 7.04103 8.94666 7.08547 8.66831 7.0745C8.65288 6.80188 8.69642 6.52914 8.7961 6.27409C8.89578 6.01905 9.04934 5.78743 9.24677 5.59437C9.44419 5.4013 9.68104 5.25112 9.94184 5.15365C10.2026 5.05617 10.4815 5.01359 10.7603 5.02868C10.7708 5.30081 10.725 5.5722 10.6257 5.82662C10.5264 6.08104 10.3756 6.31324 10.1824 6.50933Z" fill="#381A56"/>
<path d="M5.64884 7.17054C5.5769 7.17825 5.50974 7.21091 5.45859 7.26307C5.40745 7.31522 5.37541 7.3837 5.36785 7.45705C5.26549 8.19297 5.45088 8.94043 5.88405 9.53825C5.80512 9.53825 5.72619 9.53825 5.64884 9.55595C5.5769 9.56366 5.50974 9.59633 5.45859 9.64848C5.40745 9.70063 5.37541 9.76911 5.36785 9.84246C5.3056 10.2657 5.33986 10.6979 5.46799 11.1055C5.59611 11.513 5.81465 11.885 6.10662 12.1925C6.35557 12.4444 6.65137 12.6431 6.97666 12.7769C7.30196 12.9107 7.65019 12.9768 8.00091 12.9715H8.03406V13.8342C8.03406 13.9196 8.06732 14.0015 8.12653 14.0619C8.18574 14.1222 8.26604 14.1562 8.34978 14.1562C8.43351 14.1562 8.51381 14.1222 8.57302 14.0619C8.63223 14.0015 8.66549 13.9196 8.66549 13.8342V12.9635H8.7381C9.45341 12.9764 10.1444 12.699 10.6592 12.1925C10.7654 12.0844 10.8621 11.967 10.9481 11.8416L10.4856 11.3667C10.4089 11.4971 10.3172 11.6176 10.2125 11.7257C10.0135 11.9203 9.77827 12.0723 9.52069 12.1726C9.26311 12.273 8.98842 12.3197 8.71285 12.31C8.70246 12.0286 8.74785 11.7481 8.84631 11.485C8.94478 11.222 9.09428 10.982 9.28587 10.7792C9.39246 10.672 9.51116 10.5779 9.63947 10.4992L9.05382 9.90041C8.94138 9.91655 8.82797 9.92461 8.71443 9.92455C8.71274 9.80776 8.7196 9.69101 8.73495 9.57527L5.43731 6.20801C5.52365 6.54991 5.67548 6.87102 5.88405 7.15284C5.8067 7.15767 5.72777 7.16088 5.64884 7.17054ZM7.49103 8.389C7.68262 8.59172 7.83213 8.83178 7.93059 9.0948C8.02905 9.35782 8.07444 9.63839 8.06405 9.91972C7.78826 9.92931 7.51337 9.88255 7.25556 9.78221C6.99775 9.68187 6.76222 9.52997 6.56283 9.33544C6.37079 9.13305 6.221 8.89305 6.12251 8.62995C6.02401 8.36685 5.97887 8.08611 5.98981 7.80472C6.26598 7.79391 6.54145 7.84009 6.79969 7.94049C7.05792 8.04089 7.29361 8.19345 7.49261 8.389H7.49103ZM7.49103 10.7744C7.68291 10.977 7.8327 11.217 7.93144 11.48C8.03017 11.743 8.07581 12.0237 8.06563 12.3051C7.78986 12.3145 7.51502 12.2677 7.25723 12.1674C6.99944 12.067 6.7639 11.9152 6.56441 11.7209C6.37237 11.5185 6.22257 11.2785 6.12408 11.0154C6.02559 10.7523 5.98045 10.4715 5.99139 10.1901C6.26741 10.1785 6.54286 10.2243 6.80096 10.3248C7.05905 10.4252 7.29439 10.5782 7.49261 10.7744H7.49103Z" fill="#381A56"/>
<rect x="3.6557" y="4.33765" width="13.1063" height="0.935076" transform="rotate(44.5232 3.6557 4.33765)" fill="#381A56"/>
<rect x="0.5" y="0.5" width="56" height="15" rx="2.5" stroke="#381A56"/>
<path d="M21.72 10.384C21.752 10.4533 21.768 10.5227 21.768 10.592C21.768 10.7147 21.7173 10.8187 21.616 10.904C21.52 10.9893 21.408 11.032 21.28 11.032C21.1947 11.032 21.1147 11.0107 21.04 10.968C20.9653 10.92 20.9067 10.848 20.864 10.752L20.384 9.68H17.568L17.088 10.752C17.0453 10.848 16.9867 10.92 16.912 10.968C16.8373 11.0107 16.7547 11.032 16.664 11.032C16.5413 11.032 16.4293 10.9893 16.328 10.904C16.2267 10.8187 16.176 10.7147 16.176 10.592C16.176 10.5227 16.192 10.4533 16.224 10.384L18.432 5.64C18.48 5.53333 18.552 5.45333 18.648 5.4C18.7493 5.34133 18.856 5.312 18.968 5.312C19.08 5.312 19.184 5.34133 19.28 5.4C19.3813 5.45333 19.456 5.53333 19.504 5.64L21.72 10.384ZM17.92 8.88H20.032L18.976 6.504L17.92 8.88ZM22.9535 11.048C22.8095 11.048 22.6895 11.008 22.5935 10.928C22.5028 10.8427 22.4575 10.7227 22.4575 10.568V5.792C22.4575 5.63733 22.5028 5.52 22.5935 5.44C22.6895 5.36 22.8095 5.32 22.9535 5.32C23.0975 5.32 23.2175 5.36 23.3135 5.44C23.4095 5.52 23.4575 5.63733 23.4575 5.792V10.568C23.4575 10.7227 23.4095 10.8427 23.3135 10.928C23.2175 11.008 23.0975 11.048 22.9535 11.048ZM27.5848 9.928C27.6754 9.928 27.7474 9.96267 27.8008 10.032C27.8594 10.1013 27.8888 10.1947 27.8888 10.312C27.8888 10.4773 27.7901 10.616 27.5928 10.728C27.4114 10.8293 27.2061 10.912 26.9768 10.976C26.7474 11.0347 26.5288 11.064 26.3207 11.064C25.6914 11.064 25.1928 10.8827 24.8248 10.52C24.4568 10.1573 24.2728 9.66133 24.2728 9.032C24.2728 8.632 24.3528 8.27733 24.5128 7.968C24.6728 7.65867 24.8968 7.41867 25.1848 7.248C25.4781 7.07733 25.8088 6.992 26.1768 6.992C26.5288 6.992 26.8354 7.06933 27.0968 7.224C27.3581 7.37867 27.5608 7.59733 27.7048 7.88C27.8488 8.16267 27.9208 8.496 27.9208 8.88C27.9208 9.10933 27.8194 9.224 27.6168 9.224H25.2568C25.2888 9.592 25.3928 9.864 25.5688 10.04C25.7448 10.2107 26.0008 10.296 26.3368 10.296C26.5074 10.296 26.6568 10.2747 26.7848 10.232C26.9181 10.1893 27.0674 10.1307 27.2328 10.056C27.3928 9.97067 27.5101 9.928 27.5848 9.928ZM26.2008 7.696C25.9288 7.696 25.7101 7.78133 25.5448 7.952C25.3848 8.12267 25.2888 8.368 25.2568 8.688H27.0648C27.0541 8.36267 26.9741 8.11733 26.8248 7.952C26.6754 7.78133 26.4674 7.696 26.2008 7.696ZM26.3768 6.552C26.3181 6.59467 26.2594 6.616 26.2008 6.616C26.1261 6.616 26.0621 6.592 26.0088 6.544C25.9608 6.49067 25.9368 6.42933 25.9368 6.36C25.9368 6.30133 25.9581 6.24267 26.0008 6.184L26.7768 5.152C26.8994 4.992 27.0408 4.912 27.2008 4.912C27.3181 4.912 27.4168 4.95467 27.4968 5.04C27.5821 5.12 27.6248 5.216 27.6248 5.328C27.6248 5.47733 27.5528 5.60533 27.4088 5.712L26.3768 6.552ZM30.9228 7.008C31.0614 6.99733 31.1708 7.02667 31.2508 7.096C31.3308 7.16533 31.3708 7.26933 31.3708 7.408C31.3708 7.552 31.3361 7.65867 31.2668 7.728C31.1974 7.79733 31.0721 7.84267 30.8908 7.864L30.6508 7.888C30.3361 7.92 30.1041 8.02667 29.9548 8.208C29.8108 8.38933 29.7388 8.616 29.7388 8.888V10.568C29.7388 10.7227 29.6908 10.8427 29.5948 10.928C29.4988 11.008 29.3788 11.048 29.2348 11.048C29.0908 11.048 28.9708 11.008 28.8748 10.928C28.7841 10.8427 28.7388 10.7227 28.7388 10.568V7.472C28.7388 7.32267 28.7841 7.208 28.8748 7.128C28.9708 7.048 29.0881 7.008 29.2268 7.008C29.3654 7.008 29.4774 7.048 29.5628 7.128C29.6481 7.20267 29.6908 7.312 29.6908 7.456V7.776C29.7921 7.54133 29.9414 7.36 30.1388 7.232C30.3414 7.104 30.5654 7.032 30.8108 7.016L30.9228 7.008ZM35.0351 7.008C35.1845 7.008 35.3045 7.05067 35.3951 7.136C35.4858 7.22133 35.5311 7.336 35.5311 7.48V10.64C35.5311 11.2533 35.3605 11.7173 35.0191 12.032C34.6778 12.3467 34.1738 12.504 33.5071 12.504C32.9258 12.504 32.4405 12.3947 32.0511 12.176C31.8538 12.0587 31.7551 11.9173 31.7551 11.752C31.7551 11.6347 31.7818 11.5413 31.8351 11.472C31.8938 11.4027 31.9685 11.368 32.0591 11.368C32.1071 11.368 32.1658 11.3787 32.2351 11.4C32.3045 11.4267 32.3765 11.456 32.4511 11.488C32.6431 11.568 32.8138 11.6293 32.9631 11.672C33.1178 11.7147 33.2938 11.736 33.4911 11.736C34.1898 11.736 34.5391 11.3947 34.5391 10.712V10.2C34.4218 10.4187 34.2511 10.5893 34.0271 10.712C33.8031 10.8293 33.5471 10.888 33.2591 10.888C32.9178 10.888 32.6138 10.808 32.3471 10.648C32.0858 10.4827 31.8805 10.2533 31.7311 9.96C31.5818 9.66667 31.5071 9.328 31.5071 8.944C31.5071 8.56 31.5791 8.22133 31.7231 7.928C31.8725 7.62933 32.0805 7.4 32.3471 7.24C32.6138 7.07467 32.9178 6.992 33.2591 6.992C33.5471 6.992 33.8031 7.05333 34.0271 7.176C34.2511 7.29333 34.4218 7.46133 34.5391 7.68V7.472C34.5391 7.33333 34.5845 7.22133 34.6751 7.136C34.7658 7.05067 34.8858 7.008 35.0351 7.008ZM33.5231 10.112C33.8431 10.112 34.0911 10.008 34.2671 9.8C34.4485 9.592 34.5391 9.30667 34.5391 8.944C34.5391 8.576 34.4485 8.288 34.2671 8.08C34.0911 7.872 33.8431 7.768 33.5231 7.768C33.2085 7.768 32.9605 7.872 32.7791 8.08C32.5978 8.288 32.5071 8.576 32.5071 8.944C32.5071 9.30667 32.5978 9.592 32.7791 9.8C32.9605 10.008 33.2085 10.112 33.5231 10.112ZM39.6629 9.928C39.7535 9.928 39.8255 9.96267 39.8789 10.032C39.9375 10.1013 39.9669 10.1947 39.9669 10.312C39.9669 10.4773 39.8682 10.616 39.6709 10.728C39.4895 10.8293 39.2842 10.912 39.0549 10.976C38.8255 11.0347 38.6069 11.064 38.3989 11.064C37.7695 11.064 37.2709 10.8827 36.9029 10.52C36.5349 10.1573 36.3509 9.66133 36.3509 9.032C36.3509 8.632 36.4309 8.27733 36.5909 7.968C36.7509 7.65867 36.9749 7.41867 37.2629 7.248C37.5562 7.07733 37.8869 6.992 38.2549 6.992C38.6069 6.992 38.9135 7.06933 39.1749 7.224C39.4362 7.37867 39.6389 7.59733 39.7829 7.88C39.9269 8.16267 39.9989 8.496 39.9989 8.88C39.9989 9.10933 39.8975 9.224 39.6949 9.224H37.3349C37.3669 9.592 37.4709 9.864 37.6469 10.04C37.8229 10.2107 38.0789 10.296 38.4149 10.296C38.5855 10.296 38.7349 10.2747 38.8629 10.232C38.9962 10.1893 39.1455 10.1307 39.3109 10.056C39.4709 9.97067 39.5882 9.928 39.6629 9.928ZM38.2789 7.696C38.0069 7.696 37.7882 7.78133 37.6229 7.952C37.4629 8.12267 37.3669 8.368 37.3349 8.688H39.1429C39.1322 8.36267 39.0522 8.11733 38.9029 7.952C38.7535 7.78133 38.5455 7.696 38.2789 7.696ZM43.0889 6.992C43.5582 6.992 43.9075 7.12533 44.1369 7.392C44.3662 7.65867 44.4809 8.06133 44.4809 8.6V10.568C44.4809 10.7173 44.4355 10.8347 44.3449 10.92C44.2595 11.0053 44.1395 11.048 43.9849 11.048C43.8302 11.048 43.7075 11.0053 43.6169 10.92C43.5262 10.8347 43.4809 10.7173 43.4809 10.568V8.656C43.4809 8.352 43.4222 8.13067 43.3049 7.992C43.1929 7.85333 43.0142 7.784 42.7689 7.784C42.4809 7.784 42.2489 7.87467 42.0729 8.056C41.9022 8.23733 41.8169 8.48 41.8169 8.784V10.568C41.8169 10.7173 41.7715 10.8347 41.6809 10.92C41.5902 11.0053 41.4675 11.048 41.3129 11.048C41.1582 11.048 41.0355 11.0053 40.9449 10.92C40.8595 10.8347 40.8169 10.7173 40.8169 10.568V7.472C40.8169 7.33333 40.8622 7.22133 40.9529 7.136C41.0435 7.05067 41.1662 7.008 41.3209 7.008C41.4595 7.008 41.5715 7.05067 41.6569 7.136C41.7475 7.216 41.7929 7.32267 41.7929 7.456V7.672C41.9262 7.45333 42.1049 7.28533 42.3289 7.168C42.5529 7.05067 42.8062 6.992 43.0889 6.992ZM47.2806 11.064C46.8806 11.064 46.5286 10.9813 46.2246 10.816C45.9259 10.6507 45.6939 10.4133 45.5286 10.104C45.3632 9.79467 45.2806 9.43467 45.2806 9.024C45.2806 8.61333 45.3632 8.256 45.5286 7.952C45.6939 7.64267 45.9259 7.40533 46.2246 7.24C46.5286 7.07467 46.8806 6.992 47.2806 6.992C47.6806 6.992 48.0299 7.07467 48.3286 7.24C48.6326 7.40533 48.8646 7.64267 49.0246 7.952C49.1899 8.256 49.2726 8.61333 49.2726 9.024C49.2726 9.43467 49.1899 9.79467 49.0246 10.104C48.8646 10.4133 48.6326 10.6507 48.3286 10.816C48.0299 10.9813 47.6806 11.064 47.2806 11.064ZM47.2726 10.288C47.5979 10.288 47.8459 10.1813 48.0166 9.968C48.1872 9.75467 48.2726 9.44 48.2726 9.024C48.2726 8.61333 48.1872 8.30133 48.0166 8.088C47.8459 7.86933 47.6006 7.76 47.2806 7.76C46.9606 7.76 46.7126 7.86933 46.5366 8.088C46.3659 8.30133 46.2806 8.61333 46.2806 9.024C46.2806 9.44 46.3659 9.75467 46.5366 9.968C46.7072 10.1813 46.9526 10.288 47.2726 10.288ZM51.5141 11.064C50.9328 11.064 50.4635 10.9493 50.1061 10.72C49.9355 10.6187 49.8501 10.4747 49.8501 10.288C49.8501 10.1813 49.8795 10.096 49.9381 10.032C49.9968 9.96267 50.0688 9.928 50.1541 9.928C50.2448 9.928 50.3701 9.97067 50.5301 10.056C50.7008 10.136 50.8555 10.1973 50.9941 10.24C51.1381 10.2827 51.3195 10.304 51.5381 10.304C51.7621 10.304 51.9355 10.2667 52.0581 10.192C52.1861 10.1173 52.2501 10.0133 52.2501 9.88C52.2501 9.78933 52.2235 9.71733 52.1701 9.664C52.1221 9.61067 52.0315 9.56267 51.8981 9.52C51.7701 9.472 51.5728 9.41867 51.3061 9.36C50.8315 9.264 50.4901 9.128 50.2821 8.952C50.0795 8.776 49.9781 8.53333 49.9781 8.224C49.9781 7.98933 50.0475 7.77867 50.1861 7.592C50.3248 7.4 50.5141 7.25333 50.7541 7.152C50.9995 7.04533 51.2768 6.992 51.5861 6.992C51.8101 6.992 52.0261 7.02133 52.2341 7.08C52.4421 7.13333 52.6288 7.21333 52.7941 7.32C52.9648 7.42667 53.0501 7.568 53.0501 7.744C53.0501 7.85067 53.0208 7.94133 52.9621 8.016C52.9035 8.08533 52.8315 8.12 52.7461 8.12C52.6875 8.12 52.6288 8.10933 52.5701 8.088C52.5168 8.06133 52.4475 8.024 52.3621 7.976C52.2075 7.896 52.0741 7.83733 51.9621 7.8C51.8501 7.75733 51.7115 7.736 51.5461 7.736C51.3488 7.736 51.1915 7.776 51.0741 7.856C50.9621 7.936 50.9061 8.04533 50.9061 8.184C50.9061 8.31733 50.9648 8.41867 51.0821 8.488C51.1995 8.55733 51.4261 8.62667 51.7621 8.696C52.1195 8.77067 52.3995 8.856 52.6021 8.952C52.8048 9.048 52.9488 9.168 53.0341 9.312C53.1248 9.456 53.1701 9.64 53.1701 9.864C53.1701 10.2267 53.0181 10.5173 52.7141 10.736C52.4155 10.9547 52.0155 11.064 51.5141 11.064Z" fill="#381A56"/>
</svg>
