<svg width="22" height="22" viewBox="0 0 22 22" fill="none" xmlns="http://www.w3.org/2000/svg">
<path d="M11.0046 13.035C13.718 13.035 15.9363 10.8167 15.9363 8.08503C15.9363 5.35336 13.718 3.13503 11.0046 3.13503C8.29129 3.13503 6.07296 5.35336 6.07296 8.08503C6.07296 10.8167 8.29129 13.035 11.0046 13.035ZM11.0046 4.58334C12.9113 4.58334 14.4696 6.14168 14.4696 8.06668C14.4696 9.99168 12.9113 11.55 11.0046 11.55C9.09796 11.55 7.53962 9.99168 7.53962 8.06668C7.53962 6.14168 9.09796 4.58334 11.0046 4.58334ZM13.2963 13.5117C13.058 13.4383 12.783 13.4933 12.5996 13.6583L11.0046 15.015L9.40962 13.6583C9.20795 13.4933 8.95129 13.4383 8.71296 13.5117C7.68629 13.8417 2.57129 15.6017 2.57129 18.15C2.57129 18.5533 2.90129 18.8833 3.30462 18.8833H18.7046C19.108 18.8833 19.438 18.5533 19.438 18.15C19.438 15.6017 14.323 13.8417 13.2963 13.5117ZM4.42296 17.4167C5.22962 16.555 7.17295 15.6017 8.78629 15.0517L10.528 16.5367C10.803 16.775 11.2063 16.775 11.4813 16.5367L13.223 15.0517C14.8363 15.62 16.7796 16.5733 17.5863 17.4167H4.42296Z" fill="#333333"/>
</svg>
