<svg width="23" height="22" viewBox="0 0 23 22" fill="none" xmlns="http://www.w3.org/2000/svg">
<path d="M11.5046 13.0353C14.218 13.0353 16.4363 10.8169 16.4363 8.08527C16.4363 5.35361 14.218 3.13527 11.5046 3.13527C8.79129 3.13527 6.57296 5.35361 6.57296 8.08527C6.57296 10.8169 8.79129 13.0353 11.5046 13.0353ZM11.5046 4.58359C13.4113 4.58359 14.9696 6.14192 14.9696 8.06692C14.9696 9.99192 13.4113 11.5503 11.5046 11.5503C9.59796 11.5503 8.03962 9.99192 8.03962 8.06692C8.03962 6.14192 9.59796 4.58359 11.5046 4.58359ZM13.7963 13.5119C13.558 13.4386 13.283 13.4936 13.0996 13.6586L11.5046 15.0152L9.90962 13.6586C9.70795 13.4936 9.45129 13.4386 9.21296 13.5119C8.18629 13.8419 3.07129 15.6019 3.07129 18.1503C3.07129 18.5536 3.40129 18.8836 3.80462 18.8836H19.2046C19.608 18.8836 19.938 18.5536 19.938 18.1503C19.938 15.6019 14.823 13.8419 13.7963 13.5119ZM4.92296 17.4169C5.72962 16.5553 7.67295 15.6019 9.28629 15.0519L11.028 16.5369C11.303 16.7752 11.7063 16.7752 11.9813 16.5369L13.723 15.0519C15.3363 15.6203 17.2796 16.5736 18.0863 17.4169H4.92296Z" fill="#381A56"/>
</svg>
