<svg width="22" height="22" viewBox="0 0 22 22" fill="none" xmlns="http://www.w3.org/2000/svg">
<path d="M15.1296 4.01499C14.0846 3.07999 12.6179 2.56665 11.0229 2.56665C9.4279 2.56665 7.96123 3.07999 6.91622 4.01499C5.65122 5.15166 4.9729 6.85666 4.9729 8.96499C4.9729 13.5667 10.2712 18.975 10.5096 19.195C10.6562 19.3417 10.8396 19.415 11.0229 19.415C11.2062 19.415 11.4079 19.3417 11.5362 19.195C11.7562 18.975 17.0729 13.5667 17.0729 8.96499C17.0546 6.85666 16.3946 5.15166 15.1296 4.01499ZM11.0046 17.6183C10.5096 17.0683 9.72124 16.1516 8.95124 15.0516C7.30124 12.705 6.42123 10.615 6.42123 8.98332C6.42123 4.39998 9.9229 4.03332 11.0046 4.03332C15.2579 4.03332 15.5879 7.82832 15.5879 8.98332C15.5879 12.21 12.3062 16.1883 11.0046 17.6183ZM11.0046 5.73832C9.39123 5.73832 8.08956 7.07665 8.08956 8.70832C8.08956 10.34 9.39123 11.6783 11.0046 11.6783C12.6179 11.6783 13.9196 10.34 13.9196 8.70832C13.9196 7.05832 12.6179 5.73832 11.0046 5.73832ZM11.0046 10.3766C10.1062 10.3766 9.3729 9.62499 9.3729 8.68999C9.3729 7.75499 10.1062 7.00332 11.0046 7.00332C11.9029 7.00332 12.6362 7.75499 12.6362 8.68999C12.6362 9.62499 11.9029 10.3766 11.0046 10.3766Z" fill="#333333"/>
</svg>
