<svg width="24" height="24" viewBox="0 0 24 24" fill="none" xmlns="http://www.w3.org/2000/svg">
<path d="M19.62 17.1C18.28 17.1 17.76 16.3201 17.76 11.4201C17.76 7.58007 16.02 5.18007 13.02 4.82007V3.60005C13.02 3.16005 12.66 2.80005 12.22 2.80005C11.78 2.80005 11.42 3.16005 11.42 3.60005V4.80005C8.21997 5.06005 6.35998 7.50007 6.35998 11.4201C6.35998 16.3201 5.77998 17.1 4.41998 17.1C3.97998 17.1 3.59998 17.4001 3.59998 17.8601C3.59998 18.3001 3.93997 18.6201 4.37997 18.6201H9.57997C9.63997 19.2201 9.81998 19.96 10.3 20.48C10.72 20.94 11.28 21.2001 11.94 21.2001C12.6 21.2001 13.16 20.92 13.58 20.48C14.08 19.94 14.28 19.2201 14.36 18.6201H19.62C20.06 18.6201 20.42 18.3201 20.42 17.8601C20.42 17.4001 20.06 17.1 19.62 17.1ZM12.46 19.38C12.38 19.46 12.26 19.58 11.98 19.58C11.72 19.58 11.6 19.46 11.52 19.38C11.36 19.2 11.28 19 11.22 18.6H11.9C11.94 18.6 11.98 18.6 12.02 18.6C12.06 18.6 12.1 18.6 12.14 18.6H12.8C12.74 19 12.64 19.2 12.46 19.38ZM12.14 17.0001C12.1 17.0001 12.06 17.0001 12.02 17.0001C11.98 17.0001 11.94 17.0001 11.9 17.0001H7.17997C7.91997 15.6 7.91998 13.42 7.91998 11.38C7.91998 8.12003 9.33998 6.40005 11.9 6.40005H12.12C14.68 6.40005 16.1 8.12003 16.1 11.38C16.1 13.42 16.1 15.6 16.84 17.0001H12.14ZM14.98 9.90005C15 10.28 14.7 10.62 14.32 10.64C14.3 10.64 14.3 10.64 14.28 10.64C13.92 10.64 13.6 10.36 13.58 9.98003C13.52 9.08003 12.82 8.76007 12.74 8.72007C12.38 8.56007 12.22 8.16005 12.36 7.80005C12.5 7.44005 12.9 7.28007 13.26 7.42007C13.34 7.46007 14.88 8.10005 14.98 9.90005Z" fill="#333333"/>
</svg>
