<svg width="22" height="22" viewBox="0 0 22 22" fill="none" xmlns="http://www.w3.org/2000/svg">
<path d="M17.458 8.26835C17.3847 7.53502 16.7614 6.96667 16.0097 6.96667H14.6714V6.63666C14.6714 4.49166 13.0947 2.75 11.0413 2.75H10.968C8.93303 2.75 7.33802 4.49166 7.33802 6.63666V6.96667H5.99968C5.24801 6.96667 4.64303 7.53502 4.55136 8.26835L3.48802 18.425C3.46969 18.6267 3.52469 18.8467 3.67135 18.9934C3.81802 19.14 4.00135 19.2316 4.22135 19.2316H17.788C17.9897 19.2316 18.1914 19.14 18.338 18.9934C18.4847 18.8467 18.5397 18.6267 18.5214 18.425L17.458 8.26835ZM8.80469 6.63666C8.80469 5.29832 9.7397 4.21667 10.968 4.21667H11.0413C12.2697 4.21667 13.2047 5.29832 13.2047 6.63666V6.96667H8.80469V6.63666ZM5.02803 17.7833L5.99968 8.43333H15.973L16.9447 17.7833H5.02803Z" fill="#333333"/>
</svg>
