<svg width="22" height="22" viewBox="0 0 22 22" fill="none" xmlns="http://www.w3.org/2000/svg">
<path d="M7.15469 5.82999V3.48332C7.15469 2.96998 7.55802 2.56665 8.07135 2.56665C8.58469 2.56665 8.98802 2.96998 8.98802 3.48332V5.82999C8.98802 6.34333 8.58469 6.74666 8.07135 6.74666C7.55802 6.74666 7.15469 6.34333 7.15469 5.82999ZM13.938 6.74666C14.4514 6.74666 14.8547 6.34333 14.8547 5.82999V3.48332C14.8547 2.96998 14.4514 2.56665 13.938 2.56665C13.4247 2.56665 13.0214 2.96998 13.0214 3.48332V5.82999C13.0214 6.34333 13.4247 6.74666 13.938 6.74666ZM7.74136 9.89998H14.2497C14.653 9.89998 14.983 9.56998 14.983 9.16665C14.983 8.76332 14.653 8.43332 14.2497 8.43332H7.74136C7.33802 8.43332 7.00802 8.76332 7.00802 9.16665C7.00802 9.56998 7.33802 9.89998 7.74136 9.89998ZM17.9714 3.84998H16.4497C16.0464 3.84998 15.7164 4.17998 15.7164 4.58332C15.7164 4.98665 16.0464 5.31665 16.4497 5.31665H17.238V17.7833H4.77135V5.31665H5.55969C5.96302 5.31665 6.29302 4.98665 6.29302 4.58332C6.29302 4.17998 5.96302 3.84998 5.55969 3.84998H4.03802C3.63469 3.84998 3.30469 4.2533 3.30469 4.65663V18.5167C3.30469 18.92 3.63469 19.25 4.03802 19.25H17.9714C18.3747 19.25 18.7047 18.92 18.7047 18.5167V4.65663C18.7047 4.2533 18.3747 3.84998 17.9714 3.84998ZM10.3997 5.31665H11.6097C12.013 5.31665 12.343 4.98665 12.343 4.58332C12.343 4.17998 12.013 3.84998 11.6097 3.84998H10.3997C9.99636 3.84998 9.66636 4.17998 9.66636 4.58332C9.66636 4.98665 9.99636 5.31665 10.3997 5.31665ZM7.74136 13.2H14.2497C14.653 13.2 14.983 12.87 14.983 12.4667C14.983 12.0633 14.653 11.7333 14.2497 11.7333H7.74136C7.33802 11.7333 7.00802 12.0633 7.00802 12.4667C7.00802 12.87 7.33802 13.2 7.74136 13.2Z" fill="#333333"/>
</svg>
