<svg width="22" height="22" viewBox="0 0 22 22" fill="none" xmlns="http://www.w3.org/2000/svg">
<path d="M5.44964 6.60007C5.44964 6.19673 5.77964 5.86673 6.18297 5.86673H15.808C16.2113 5.86673 16.5413 6.19673 16.5413 6.60007C16.5413 7.0034 16.2113 7.3334 15.808 7.3334H6.18297C5.77964 7.3334 5.44964 7.0034 5.44964 6.60007ZM7.39299 4.76673H14.6163C14.9646 4.76673 15.258 4.4734 15.258 4.12507C15.258 3.77673 14.9646 3.4834 14.6163 3.4834H7.39299C7.04465 3.4834 6.75132 3.77673 6.75132 4.12507C6.75132 4.4734 7.04465 4.76673 7.39299 4.76673ZM19.438 7.44342V9.44173C19.438 9.51507 19.4197 9.58842 19.4013 9.64342L17.0546 18.1501C16.963 18.4617 16.6696 18.6817 16.3396 18.6817H5.59631C5.26631 18.6817 4.97297 18.4617 4.88131 18.1317L2.57131 9.62507C2.55298 9.5884 2.55298 9.55171 2.55298 9.51505C2.55298 9.47838 2.55298 9.44174 2.55298 9.40507V7.42507C2.55298 7.02173 2.88298 6.69173 3.28632 6.69173C3.68965 6.69173 4.01965 7.02173 4.01965 7.42507V8.78171H17.953V7.42507C17.953 7.02173 18.283 6.69173 18.6863 6.69173C19.0896 6.69173 19.438 7.04008 19.438 7.44342ZM17.733 10.2667H4.25797L6.16464 17.2334H10.9863H15.7713L17.733 10.2667ZM8.8413 13.9334H13.168C13.5713 13.9334 13.9013 13.6034 13.9013 13.2001C13.9013 12.7967 13.5713 12.4667 13.168 12.4667H8.8413C8.43797 12.4667 8.10797 12.7967 8.10797 13.2001C8.10797 13.6034 8.43797 13.9334 8.8413 13.9334Z" fill="#333333"/>
</svg>
