<svg width="52" height="16" viewBox="0 0 52 16" fill="none" xmlns="http://www.w3.org/2000/svg">
<path d="M0 3C0 1.34315 1.34315 0 3 0H49C50.6569 0 52 1.34315 52 3V13C52 14.6569 50.6569 16 49 16H3C1.34314 16 0 14.6569 0 13V3Z" fill="#E2FFE1"/>
<path fill-rule="evenodd" clip-rule="evenodd" d="M5.5 9.00012C5.5 11.4487 7.38036 13.5 10 13.5C12.6196 13.5 14.5 11.4487 14.5 9.00012C14.5 7.9001 14.1297 6.5945 13.444 5.27012C12.4668 3.38256 11.6011 2.5 10.25 2.5H9.75C8.38559 2.5 7.295 3.60068 6.5429 5.29738C5.81618 6.9368 5.5 7.99267 5.5 9.00012ZM13.5 9.00012C13.5 10.9149 12.047 12.5 10 12.5C7.95301 12.5 6.5 10.9149 6.5 9.00012C6.5 8.16822 6.78282 7.22376 7.4571 5.70262C8.06606 4.32887 8.88733 3.5 9.75 3.5H10.25C11.101 3.5 11.7375 4.14895 12.556 5.72988C13.1729 6.92151 13.5 8.07469 13.5 9.00012ZM10 10.875C8.89543 10.875 8 9.97957 8 8.875C8 7.72564 8.911 6.5 10 6.5C11.089 6.5 12 7.72564 12 8.875C12 9.97957 11.1046 10.875 10 10.875ZM11 8.875C11 9.42728 10.5523 9.875 10 9.875C9.44772 9.875 9 9.42728 9 8.875C9 8.22445 9.53848 7.5 10 7.5C10.4615 7.5 11 8.22445 11 8.875Z" fill="#409F3E"/>
<path d="M24.712 5.084C24.7973 4.90267 24.9387 4.812 25.136 4.812C25.2693 4.812 25.3893 4.85467 25.496 4.94C25.6027 5.02533 25.656 5.132 25.656 5.26C25.656 5.31867 25.64 5.38533 25.608 5.46L23.392 10.228C23.344 10.3293 23.2693 10.4093 23.168 10.468C23.072 10.5213 22.968 10.548 22.856 10.548C22.744 10.548 22.6373 10.5213 22.536 10.468C22.44 10.4093 22.368 10.3293 22.32 10.228L20.112 5.46C20.08 5.38533 20.064 5.32133 20.064 5.268C20.064 5.13467 20.1173 5.02533 20.224 4.94C20.336 4.85467 20.4613 4.812 20.6 4.812C20.6907 4.812 20.7733 4.836 20.848 4.884C20.928 4.92667 20.9893 4.99333 21.032 5.084L22.872 9.172L24.712 5.084ZM28.866 9.428C28.9567 9.428 29.0287 9.46267 29.082 9.532C29.1407 9.60133 29.17 9.69467 29.17 9.812C29.17 9.97733 29.0713 10.116 28.874 10.228C28.6927 10.3293 28.4873 10.412 28.258 10.476C28.0287 10.5347 27.81 10.564 27.602 10.564C26.9727 10.564 26.474 10.3827 26.106 10.02C25.738 9.65733 25.554 9.16133 25.554 8.532C25.554 8.132 25.634 7.77733 25.794 7.468C25.954 7.15867 26.178 6.91867 26.466 6.748C26.7593 6.57733 27.09 6.492 27.458 6.492C27.81 6.492 28.1167 6.56933 28.378 6.724C28.6393 6.87867 28.842 7.09733 28.986 7.38C29.13 7.66267 29.202 7.996 29.202 8.38C29.202 8.60933 29.1007 8.724 28.898 8.724H26.538C26.57 9.092 26.674 9.364 26.85 9.54C27.026 9.71067 27.282 9.796 27.618 9.796C27.7887 9.796 27.938 9.77467 28.066 9.732C28.1993 9.68933 28.3487 9.63067 28.514 9.556C28.674 9.47067 28.7913 9.428 28.866 9.428ZM27.482 7.196C27.21 7.196 26.9913 7.28133 26.826 7.452C26.666 7.62267 26.57 7.868 26.538 8.188H28.346C28.3353 7.86267 28.2553 7.61733 28.106 7.452C27.9567 7.28133 27.7487 7.196 27.482 7.196ZM33.332 6.508C33.4813 6.508 33.6013 6.55067 33.692 6.636C33.7827 6.72133 33.828 6.836 33.828 6.98V10.14C33.828 10.7533 33.6573 11.2173 33.316 11.532C32.9747 11.8467 32.4707 12.004 31.804 12.004C31.2227 12.004 30.7373 11.8947 30.348 11.676C30.1507 11.5587 30.052 11.4173 30.052 11.252C30.052 11.1347 30.0787 11.0413 30.132 10.972C30.1907 10.9027 30.2653 10.868 30.356 10.868C30.404 10.868 30.4627 10.8787 30.532 10.9C30.6013 10.9267 30.6733 10.956 30.748 10.988C30.94 11.068 31.1107 11.1293 31.26 11.172C31.4147 11.2147 31.5907 11.236 31.788 11.236C32.4867 11.236 32.836 10.8947 32.836 10.212V9.7C32.7187 9.91867 32.548 10.0893 32.324 10.212C32.1 10.3293 31.844 10.388 31.556 10.388C31.2147 10.388 30.9107 10.308 30.644 10.148C30.3827 9.98267 30.1773 9.75333 30.028 9.46C29.8787 9.16667 29.804 8.828 29.804 8.444C29.804 8.06 29.876 7.72133 30.02 7.428C30.1693 7.12933 30.3773 6.9 30.644 6.74C30.9107 6.57467 31.2147 6.492 31.556 6.492C31.844 6.492 32.1 6.55333 32.324 6.676C32.548 6.79333 32.7187 6.96133 32.836 7.18V6.972C32.836 6.83333 32.8813 6.72133 32.972 6.636C33.0627 6.55067 33.1827 6.508 33.332 6.508ZM31.82 9.612C32.14 9.612 32.388 9.508 32.564 9.3C32.7453 9.092 32.836 8.80667 32.836 8.444C32.836 8.076 32.7453 7.788 32.564 7.58C32.388 7.372 32.14 7.268 31.82 7.268C31.5053 7.268 31.2573 7.372 31.076 7.58C30.8947 7.788 30.804 8.076 30.804 8.444C30.804 8.80667 30.8947 9.092 31.076 9.3C31.2573 9.508 31.5053 9.612 31.82 9.612ZM36.5598 6.492C37.1038 6.492 37.5064 6.628 37.7678 6.9C38.0344 7.16667 38.1678 7.57467 38.1678 8.124V10.076C38.1678 10.22 38.1251 10.3347 38.0398 10.42C37.9544 10.5 37.8371 10.54 37.6878 10.54C37.5491 10.54 37.4344 10.4973 37.3438 10.412C37.2584 10.3267 37.2158 10.2147 37.2158 10.076V9.9C37.1251 10.108 36.9811 10.2707 36.7838 10.388C36.5918 10.5053 36.3678 10.564 36.1118 10.564C35.8504 10.564 35.6131 10.5107 35.3997 10.404C35.1864 10.2973 35.0184 10.1507 34.8958 9.964C34.7731 9.77733 34.7118 9.56933 34.7118 9.34C34.7118 9.052 34.7838 8.82533 34.9278 8.66C35.0771 8.49467 35.3171 8.37467 35.6478 8.3C35.9784 8.22533 36.4344 8.188 37.0158 8.188H37.2158V8.004C37.2158 7.74267 37.1598 7.55333 37.0478 7.436C36.9358 7.31333 36.7544 7.252 36.5038 7.252C36.3491 7.252 36.1918 7.276 36.0318 7.324C35.8718 7.36667 35.6824 7.43067 35.4638 7.516C35.3251 7.58533 35.2238 7.62 35.1598 7.62C35.0638 7.62 34.9838 7.58533 34.9198 7.516C34.8611 7.44667 34.8318 7.356 34.8318 7.244C34.8318 7.15333 34.8531 7.076 34.8958 7.012C34.9438 6.94267 35.0211 6.87867 35.1278 6.82C35.3144 6.71867 35.5358 6.63867 35.7918 6.58C36.0531 6.52133 36.3091 6.492 36.5598 6.492ZM36.3118 9.844C36.5784 9.844 36.7944 9.756 36.9598 9.58C37.1304 9.39867 37.2158 9.16667 37.2158 8.884V8.716H37.0718C36.7144 8.716 36.4371 8.732 36.2398 8.764C36.0424 8.796 35.9011 8.852 35.8158 8.932C35.7304 9.012 35.6878 9.12133 35.6878 9.26C35.6878 9.43067 35.7464 9.572 35.8638 9.684C35.9864 9.79067 36.1358 9.844 36.3118 9.844ZM41.4561 6.492C41.9254 6.492 42.2747 6.62533 42.5041 6.892C42.7334 7.15867 42.8481 7.56133 42.8481 8.1V10.068C42.8481 10.2173 42.8027 10.3347 42.7121 10.42C42.6267 10.5053 42.5067 10.548 42.3521 10.548C42.1974 10.548 42.0747 10.5053 41.9841 10.42C41.8934 10.3347 41.8481 10.2173 41.8481 10.068V8.156C41.8481 7.852 41.7894 7.63067 41.6721 7.492C41.5601 7.35333 41.3814 7.284 41.1361 7.284C40.8481 7.284 40.6161 7.37467 40.4401 7.556C40.2694 7.73733 40.1841 7.98 40.1841 8.284V10.068C40.1841 10.2173 40.1387 10.3347 40.0481 10.42C39.9574 10.5053 39.8347 10.548 39.6801 10.548C39.5254 10.548 39.4027 10.5053 39.3121 10.42C39.2267 10.3347 39.1841 10.2173 39.1841 10.068V6.972C39.1841 6.83333 39.2294 6.72133 39.3201 6.636C39.4107 6.55067 39.5334 6.508 39.6881 6.508C39.8267 6.508 39.9387 6.55067 40.0241 6.636C40.1147 6.716 40.1601 6.82267 40.1601 6.956V7.172C40.2934 6.95333 40.4721 6.78533 40.6961 6.668C40.9201 6.55067 41.1734 6.492 41.4561 6.492ZM45.6478 10.564C45.2478 10.564 44.8958 10.4813 44.5918 10.316C44.2931 10.1507 44.0611 9.91333 43.8958 9.604C43.7304 9.29467 43.6478 8.93467 43.6478 8.524C43.6478 8.11333 43.7304 7.756 43.8958 7.452C44.0611 7.14267 44.2931 6.90533 44.5918 6.74C44.8958 6.57467 45.2478 6.492 45.6478 6.492C46.0478 6.492 46.3971 6.57467 46.6958 6.74C46.9998 6.90533 47.2318 7.14267 47.3918 7.452C47.5571 7.756 47.6398 8.11333 47.6398 8.524C47.6398 8.93467 47.5571 9.29467 47.3918 9.604C47.2318 9.91333 46.9998 10.1507 46.6958 10.316C46.3971 10.4813 46.0478 10.564 45.6478 10.564ZM45.6398 9.788C45.9651 9.788 46.2131 9.68133 46.3838 9.468C46.5544 9.25467 46.6398 8.94 46.6398 8.524C46.6398 8.11333 46.5544 7.80133 46.3838 7.588C46.2131 7.36933 45.9678 7.26 45.6478 7.26C45.3278 7.26 45.0798 7.36933 44.9038 7.588C44.7331 7.80133 44.6478 8.11333 44.6478 8.524C44.6478 8.94 44.7331 9.25467 44.9038 9.468C45.0744 9.68133 45.3198 9.788 45.6398 9.788Z" fill="#409F3E"/>
</svg>
