<svg width="57" height="34" viewBox="0 0 57 34" fill="none" xmlns="http://www.w3.org/2000/svg">
<path d="M7.27023 33.05C7.14357 33.05 7.04357 33.0133 6.97023 32.94C6.8969 32.86 6.86023 32.7567 6.86023 32.63V26.35C6.86023 26.23 6.8969 26.1333 6.97023 26.06C7.05023 25.9867 7.15357 25.95 7.28023 25.95H9.65023C10.3902 25.95 10.9636 26.13 11.3702 26.49C11.7836 26.85 11.9902 27.36 11.9902 28.02C11.9902 28.68 11.7836 29.1933 11.3702 29.56C10.9569 29.9267 10.3836 30.11 9.65023 30.11H7.68023V32.63C7.68023 32.7567 7.64357 32.86 7.57023 32.94C7.4969 33.0133 7.3969 33.05 7.27023 33.05ZM9.57023 29.43C10.6436 29.43 11.1802 28.96 11.1802 28.02C11.1802 27.0933 10.6436 26.63 9.57023 26.63H7.68023V29.43H9.57023ZM16.7993 31.87C16.8726 31.87 16.936 31.9 16.9893 31.96C17.0426 32.02 17.0693 32.0967 17.0693 32.19C17.0693 32.3567 16.9526 32.51 16.7193 32.65C16.4793 32.79 16.226 32.8967 15.9593 32.97C15.6926 33.0367 15.4326 33.07 15.1793 33.07C14.426 33.07 13.8293 32.8467 13.3893 32.4C12.956 31.9533 12.7393 31.3367 12.7393 30.55C12.7393 30.05 12.836 29.61 13.0293 29.23C13.2226 28.8433 13.4926 28.5433 13.8393 28.33C14.1926 28.1167 14.5926 28.01 15.0393 28.01C15.6726 28.01 16.176 28.2167 16.5493 28.63C16.9226 29.0433 17.1093 29.6033 17.1093 30.31C17.1093 30.4433 17.0826 30.54 17.0293 30.6C16.976 30.66 16.8893 30.69 16.7693 30.69H13.5493C13.6093 31.8367 14.1526 32.41 15.1793 32.41C15.4393 32.41 15.6626 32.3767 15.8493 32.31C16.036 32.2367 16.236 32.14 16.4493 32.02C16.6226 31.92 16.7393 31.87 16.7993 31.87ZM15.0493 28.64C14.6226 28.64 14.2793 28.7733 14.0193 29.04C13.766 29.3067 13.616 29.6833 13.5693 30.17H16.3993C16.386 29.6767 16.2626 29.3 16.0293 29.04C15.796 28.7733 15.4693 28.64 15.0493 28.64ZM20.7527 28.01C21.9194 28.01 22.5027 28.6533 22.5027 29.94V32.65C22.5027 32.7767 22.4661 32.8767 22.3927 32.95C22.3261 33.0167 22.2294 33.05 22.1027 33.05C21.9761 33.05 21.8761 33.0167 21.8027 32.95C21.7294 32.8767 21.6927 32.7767 21.6927 32.65V29.99C21.6927 29.5367 21.6027 29.2067 21.4227 29C21.2494 28.7933 20.9694 28.69 20.5827 28.69C20.1361 28.69 19.7794 28.8267 19.5127 29.1C19.2461 29.3733 19.1127 29.7433 19.1127 30.21V32.65C19.1127 32.7767 19.0761 32.8767 19.0027 32.95C18.9361 33.0167 18.8394 33.05 18.7127 33.05C18.5861 33.05 18.4861 33.0167 18.4127 32.95C18.3394 32.8767 18.3027 32.7767 18.3027 32.65V28.43C18.3027 28.31 18.3394 28.2133 18.4127 28.14C18.4861 28.0667 18.5861 28.03 18.7127 28.03C18.8327 28.03 18.9261 28.0667 18.9927 28.14C19.0661 28.2133 19.1027 28.3067 19.1027 28.42V28.93C19.2627 28.63 19.4861 28.4033 19.7727 28.25C20.0594 28.09 20.3861 28.01 20.7527 28.01ZM27.8963 25.9C28.023 25.9 28.123 25.9367 28.1963 26.01C28.2697 26.0833 28.3063 26.1767 28.3063 26.29V32.65C28.3063 32.77 28.2697 32.8667 28.1963 32.94C28.123 33.0133 28.023 33.05 27.8963 33.05C27.7697 33.05 27.6697 33.0133 27.5963 32.94C27.5297 32.8667 27.4963 32.77 27.4963 32.65V32.11C27.3497 32.4167 27.133 32.6533 26.8463 32.82C26.5663 32.9867 26.2363 33.07 25.8563 33.07C25.4297 33.07 25.053 32.9633 24.7263 32.75C24.3997 32.5367 24.1463 32.24 23.9663 31.86C23.7863 31.4733 23.6963 31.0267 23.6963 30.52C23.6963 30.02 23.7863 29.58 23.9663 29.2C24.1463 28.82 24.3997 28.5267 24.7263 28.32C25.053 28.1133 25.4297 28.01 25.8563 28.01C26.2363 28.01 26.5663 28.0933 26.8463 28.26C27.133 28.4267 27.3497 28.6633 27.4963 28.97V26.29C27.4963 26.17 27.5297 26.0767 27.5963 26.01C27.6697 25.9367 27.7697 25.9 27.8963 25.9ZM26.0163 32.4C26.4897 32.4 26.853 32.24 27.1063 31.92C27.3663 31.5933 27.4963 31.1333 27.4963 30.54C27.4963 29.9467 27.3663 29.49 27.1063 29.17C26.853 28.85 26.4897 28.69 26.0163 28.69C25.543 28.69 25.173 28.85 24.9063 29.17C24.6463 29.49 24.5163 29.94 24.5163 30.52C24.5163 31.1133 24.6463 31.5767 24.9063 31.91C25.173 32.2367 25.543 32.4 26.0163 32.4ZM30.2166 33.05C30.0966 33.05 29.9966 33.0167 29.9166 32.95C29.8433 32.8767 29.8066 32.7767 29.8066 32.65V28.43C29.8066 28.3033 29.8433 28.2067 29.9166 28.14C29.9966 28.0667 30.0966 28.03 30.2166 28.03C30.3366 28.03 30.4333 28.0667 30.5066 28.14C30.58 28.2067 30.6166 28.3033 30.6166 28.43V32.65C30.6166 32.7833 30.58 32.8833 30.5066 32.95C30.4333 33.0167 30.3366 33.05 30.2166 33.05ZM30.2166 26.98C30.0566 26.98 29.9266 26.9333 29.8266 26.84C29.7266 26.7467 29.6766 26.6233 29.6766 26.47C29.6766 26.3233 29.7266 26.2033 29.8266 26.11C29.9266 26.0167 30.0566 25.97 30.2166 25.97C30.3766 25.97 30.5066 26.0167 30.6066 26.11C30.7066 26.2033 30.7566 26.3233 30.7566 26.47C30.7566 26.6233 30.7066 26.7467 30.6066 26.84C30.5066 26.9333 30.3766 26.98 30.2166 26.98ZM35.9009 31.87C35.9742 31.87 36.0375 31.9 36.0909 31.96C36.1442 32.02 36.1709 32.0967 36.1709 32.19C36.1709 32.3567 36.0542 32.51 35.8209 32.65C35.5809 32.79 35.3275 32.8967 35.0609 32.97C34.7942 33.0367 34.5342 33.07 34.2809 33.07C33.5275 33.07 32.9309 32.8467 32.4909 32.4C32.0575 31.9533 31.8409 31.3367 31.8409 30.55C31.8409 30.05 31.9375 29.61 32.1309 29.23C32.3242 28.8433 32.5942 28.5433 32.9409 28.33C33.2942 28.1167 33.6942 28.01 34.1409 28.01C34.7742 28.01 35.2775 28.2167 35.6509 28.63C36.0242 29.0433 36.2109 29.6033 36.2109 30.31C36.2109 30.4433 36.1842 30.54 36.1309 30.6C36.0775 30.66 35.9909 30.69 35.8709 30.69H32.6509C32.7109 31.8367 33.2542 32.41 34.2809 32.41C34.5409 32.41 34.7642 32.3767 34.9509 32.31C35.1375 32.2367 35.3375 32.14 35.5509 32.02C35.7242 31.92 35.8409 31.87 35.9009 31.87ZM34.1509 28.64C33.7242 28.64 33.3809 28.7733 33.1209 29.04C32.8675 29.3067 32.7175 29.6833 32.6709 30.17H35.5009C35.4875 29.6767 35.3642 29.3 35.1309 29.04C34.8975 28.7733 34.5709 28.64 34.1509 28.64ZM39.8543 28.01C41.021 28.01 41.6043 28.6533 41.6043 29.94V32.65C41.6043 32.7767 41.5676 32.8767 41.4943 32.95C41.4276 33.0167 41.331 33.05 41.2043 33.05C41.0776 33.05 40.9776 33.0167 40.9043 32.95C40.831 32.8767 40.7943 32.7767 40.7943 32.65V29.99C40.7943 29.5367 40.7043 29.2067 40.5243 29C40.351 28.7933 40.071 28.69 39.6843 28.69C39.2376 28.69 38.881 28.8267 38.6143 29.1C38.3476 29.3733 38.2143 29.7433 38.2143 30.21V32.65C38.2143 32.7767 38.1776 32.8767 38.1043 32.95C38.0376 33.0167 37.941 33.05 37.8143 33.05C37.6876 33.05 37.5876 33.0167 37.5143 32.95C37.441 32.8767 37.4043 32.7767 37.4043 32.65V28.43C37.4043 28.31 37.441 28.2133 37.5143 28.14C37.5876 28.0667 37.6876 28.03 37.8143 28.03C37.9343 28.03 38.0276 28.0667 38.0943 28.14C38.1676 28.2133 38.2043 28.3067 38.2043 28.42V28.93C38.3643 28.63 38.5876 28.4033 38.8743 28.25C39.161 28.09 39.4876 28.01 39.8543 28.01ZM45.3379 32.41C45.5712 32.43 45.6879 32.5367 45.6879 32.73C45.6879 32.8433 45.6446 32.93 45.5579 32.99C45.4779 33.0433 45.3546 33.0633 45.1879 33.05L44.9179 33.03C44.3846 32.99 43.9912 32.83 43.7379 32.55C43.4846 32.27 43.3579 31.8467 43.3579 31.28V28.77H42.6879C42.5746 28.77 42.4846 28.7433 42.4179 28.69C42.3579 28.63 42.3279 28.5533 42.3279 28.46C42.3279 28.36 42.3579 28.28 42.4179 28.22C42.4846 28.16 42.5746 28.13 42.6879 28.13H43.3579V27C43.3579 26.8733 43.3946 26.7767 43.4679 26.71C43.5412 26.6367 43.6412 26.6 43.7679 26.6C43.8879 26.6 43.9846 26.6367 44.0579 26.71C44.1312 26.7767 44.1679 26.8733 44.1679 27V28.13H45.2779C45.3846 28.13 45.4679 28.16 45.5279 28.22C45.5946 28.28 45.6279 28.36 45.6279 28.46C45.6279 28.5533 45.5946 28.63 45.5279 28.69C45.4679 28.7433 45.3846 28.77 45.2779 28.77H44.1679V31.32C44.1679 31.6867 44.2412 31.9533 44.3879 32.12C44.5412 32.28 44.7679 32.37 45.0679 32.39L45.3379 32.41ZM50.2563 31.87C50.3297 31.87 50.393 31.9 50.4463 31.96C50.4997 32.02 50.5263 32.0967 50.5263 32.19C50.5263 32.3567 50.4097 32.51 50.1763 32.65C49.9363 32.79 49.683 32.8967 49.4163 32.97C49.1497 33.0367 48.8897 33.07 48.6363 33.07C47.883 33.07 47.2863 32.8467 46.8463 32.4C46.413 31.9533 46.1963 31.3367 46.1963 30.55C46.1963 30.05 46.293 29.61 46.4863 29.23C46.6797 28.8433 46.9497 28.5433 47.2963 28.33C47.6497 28.1167 48.0497 28.01 48.4963 28.01C49.1297 28.01 49.633 28.2167 50.0063 28.63C50.3797 29.0433 50.5663 29.6033 50.5663 30.31C50.5663 30.4433 50.5397 30.54 50.4863 30.6C50.433 30.66 50.3463 30.69 50.2263 30.69H47.0063C47.0663 31.8367 47.6097 32.41 48.6363 32.41C48.8963 32.41 49.1197 32.3767 49.3063 32.31C49.493 32.2367 49.693 32.14 49.9063 32.02C50.0797 31.92 50.1963 31.87 50.2563 31.87ZM48.5063 28.64C48.0797 28.64 47.7363 28.7733 47.4763 29.04C47.223 29.3067 47.073 29.6833 47.0263 30.17H49.8563C49.843 29.6767 49.7197 29.3 49.4863 29.04C49.253 28.7733 48.9263 28.64 48.5063 28.64Z" fill="#7F7F7F"/>
<path d="M37.4048 20.2H20.6048C20.3248 20.2 20.0648 20.04 19.9048 19.8C19.7648 19.56 19.7648 19.26 19.9048 19L28.3048 4.20005C28.4448 3.94005 28.7048 3.80005 29.0048 3.80005C29.3048 3.80005 29.5648 3.96005 29.7048 4.20005L38.1048 19C38.2448 19.24 38.2448 19.56 38.1048 19.8C37.9448 20.04 37.6848 20.2 37.4048 20.2ZM21.9848 18.6H36.0448L29.0248 6.22004L21.9848 18.6ZM29.8048 13.82V10.1C29.8048 9.66005 29.4448 9.30005 29.0048 9.30005C28.5648 9.30005 28.2048 9.66005 28.2048 10.1V13.82C28.2048 14.26 28.5648 14.62 29.0048 14.62C29.4448 14.62 29.8048 14.26 29.8048 13.82ZM29.7048 17.14C29.8848 16.96 30.0048 16.7 30.0048 16.44C30.0048 16.18 29.9048 15.92 29.7048 15.74C29.5248 15.56 29.2648 15.44 29.0048 15.44C28.7448 15.44 28.4848 15.54 28.3048 15.74C28.1248 15.92 28.0048 16.18 28.0048 16.44C28.0048 16.7 28.1048 16.96 28.3048 17.14C28.4848 17.32 28.7448 17.44 29.0048 17.44C29.2648 17.44 29.5248 17.32 29.7048 17.14Z" fill="#7F7F7F"/>
</svg>
