<svg width="282" height="205" viewBox="0 0 282 205" fill="none" xmlns="http://www.w3.org/2000/svg">
<path opacity="0.1" d="M20 165C27.732 165 34 162.985 34 160.5C34 158.015 27.732 156 20 156C12.268 156 6 158.015 6 160.5C6 162.985 12.268 165 20 165Z" fill="black"/>
<path opacity="0.1" d="M247 186C254.732 186 261 183.761 261 181C261 178.239 254.732 176 247 176C239.268 176 233 178.239 233 181C233 183.761 239.268 186 247 186Z" fill="black"/>
<path opacity="0.1" d="M166.176 5.74934C144.79 14.0006 121.609 14.3843 100.077 6.61658C69.5609 -4.38924 29.7071 -7.2062 14.9391 43.2278C-10.2654 129.393 41.2991 160.149 41.2991 160.149C41.2991 160.149 77.2993 168.21 97.2324 182.775C125.547 203.464 160.223 210.38 192.888 200.678C213.777 194.474 231.68 184.294 236.799 167.639C251.114 121.058 242.026 93.0597 267.934 80.778C293.841 68.4962 279.426 22.9974 261.001 21.9648C242.576 20.9323 199.168 31.4857 185.74 10.4942C180.953 3.04156 173.63 2.86998 166.176 5.74934Z" fill="#8CCACB"/>
<path d="M246.591 182C246.591 182 250.172 169.156 245.917 159.703C244.105 155.75 243.558 151.284 244.359 146.975C244.755 144.933 245.327 142.933 246.069 141" stroke="#535461" stroke-width="2" stroke-miterlimit="10"/>
<path d="M243.003 135.537C243.003 136.936 246.002 141 246.002 141C246.002 141 249 136.939 249 135.537C249 134.864 248.684 134.219 248.121 133.743C247.559 133.267 246.796 133 246 133C245.204 133 244.441 133.267 243.879 133.743C243.316 134.219 243 134.864 243 135.537H243.003Z" fill="#381A56"/>
<path d="M238.515 143.947C239.483 145.432 245 148 245 148C245 148 244.9 141.948 243.932 140.463C243.702 140.109 243.404 139.805 243.055 139.566C242.706 139.327 242.314 139.159 241.9 139.071C241.485 138.983 241.058 138.977 240.641 139.053C240.225 139.129 239.828 139.286 239.472 139.515C239.117 139.744 238.81 140.04 238.57 140.386C238.329 140.733 238.16 141.123 238.071 141.534C237.983 141.946 237.977 142.371 238.053 142.785C238.13 143.199 238.288 143.593 238.518 143.947H238.515Z" fill="#381A56"/>
<path d="M238.504 158.601C239.854 159.336 245 158.83 245 158.83C245 158.83 242.318 154.052 240.968 153.317C240.32 152.964 239.569 152.903 238.88 153.149C238.191 153.394 237.62 153.926 237.293 154.627C236.966 155.327 236.91 156.14 237.137 156.885C237.365 157.631 237.856 158.248 238.504 158.601V158.601Z" fill="#381A56"/>
<path d="M241.187 169.746C242.48 170.617 248 171 248 171C248 171 245.97 166.378 244.671 165.516C244.047 165.101 243.264 164.926 242.496 165.029C241.728 165.132 241.036 165.505 240.574 166.066C240.112 166.627 239.917 167.33 240.032 168.02C240.147 168.71 240.562 169.331 241.187 169.746V169.746Z" fill="#381A56"/>
<path d="M250.166 147.807C249.077 148.885 244 150 244 150C244 150 245.244 144.869 246.334 143.791C246.857 143.274 247.56 142.99 248.29 143C249.019 143.011 249.714 143.316 250.222 143.849C250.731 144.381 251.01 145.097 251 145.84C250.989 146.582 250.689 147.29 250.166 147.807V147.807Z" fill="#381A56"/>
<path d="M253.308 160.667C251.789 161.281 246 160.858 246 160.858C246 160.858 249.017 156.865 250.536 156.265C251.265 155.97 252.11 155.919 252.885 156.124C253.66 156.329 254.303 156.774 254.67 157.359C255.038 157.945 255.101 158.624 254.845 159.247C254.59 159.869 254.037 160.385 253.308 160.681V160.667Z" fill="#381A56"/>
<path d="M253.813 173.537C252.52 174.553 247 175 247 175C247 175 249.03 169.608 250.329 168.602C250.953 168.118 251.736 167.913 252.504 168.034C253.272 168.154 253.964 168.589 254.426 169.244C254.888 169.898 255.083 170.718 254.968 171.523C254.853 172.328 254.438 173.053 253.813 173.537V173.537Z" fill="#381A56"/>
<path d="M19.8217 161C19.8217 161 27.8913 133.758 18.314 113.684C14.2934 105.263 12.9741 95.8133 14.8179 86.6765C15.7068 82.343 16.9927 78.0998 18.6595 74" stroke="#535461" stroke-width="2" stroke-miterlimit="10"/>
<path d="M13.0031 61.0239C13.0031 64.3505 19.0031 74 19.0031 74C19.0031 74 25 64.3443 25 61.0239C25 59.4263 24.3679 57.8941 23.2426 56.7644C22.1174 55.6347 20.5913 55 19 55C17.4087 55 15.8826 55.6347 14.7574 56.7644C13.6321 57.8941 13 59.4263 13 61.0239H13.0031Z" fill="#381A56"/>
<path d="M3.19666 110.268C6.06496 111.619 17 110.687 17 110.687C17 110.687 11.2874 101.923 8.43417 100.582C7.75229 100.261 7.00935 100.068 6.24778 100.015C5.4862 99.962 4.7209 100.05 3.99556 100.273C3.27023 100.496 2.59907 100.85 2.0204 101.315C1.44174 101.781 0.9669 102.348 0.623 102.984C0.2791 103.621 0.0728743 104.315 0.0160954 105.026C-0.0406836 105.737 0.0530974 106.451 0.292084 107.128C0.774738 108.496 1.81954 109.628 3.19666 110.277V110.268Z" fill="#381A56"/>
<path d="M8.52247 134.283C11.2861 136.154 23 137 23 137C23 137 18.6889 126.98 15.9221 125.117C14.5953 124.218 12.933 123.839 11.3009 124.063C9.66889 124.287 8.20075 125.095 7.2195 126.311C6.23825 127.526 5.82426 129.049 6.06862 130.544C6.31297 132.039 7.19565 133.384 8.52247 134.283V134.283Z" fill="#381A56"/>
<path d="M27.2037 87.9901C24.8711 90.4504 14 93 14 93C14 93 16.6614 81.2738 18.994 78.8135C20.1146 77.6294 21.6224 76.9773 23.1857 77.0006C24.749 77.0239 26.2398 77.7206 27.3301 78.9375C28.4204 80.1544 29.0209 81.7918 28.9994 83.4894C28.978 85.1871 28.3365 86.8061 27.2159 87.9901H27.2037Z" fill="#381A56"/>
<path d="M33.8033 116.202C30.935 117.675 20 116.658 20 116.658C20 116.658 25.7126 107.098 28.5658 105.635C29.2477 105.284 29.9906 105.074 30.7522 105.016C31.5138 104.959 32.2791 105.054 33.0044 105.297C33.7298 105.541 34.4009 105.927 34.9796 106.435C35.5583 106.943 36.0331 107.561 36.377 108.256C36.7209 108.95 36.9271 109.707 36.9839 110.482C37.0407 111.258 36.9469 112.037 36.7079 112.776C36.4689 113.515 36.0894 114.198 35.5911 114.788C35.0927 115.377 34.4852 115.861 33.8033 116.211V116.202Z" fill="#381A56"/>
<path d="M37.4775 143.283C34.7139 145.154 23 146 23 146C23 146 27.3111 135.98 30.0779 134.117C31.4047 133.218 33.067 132.839 34.6991 133.063C36.3311 133.287 37.7993 134.095 38.7805 135.311C39.7618 136.526 40.1757 138.049 39.9314 139.544C39.687 141.039 38.8044 142.384 37.4775 143.283V143.283Z" fill="#381A56"/>
<path d="M118.127 93.9725L101.197 91.1085C100.511 90.9935 99.9822 90.6523 100 90.3548C100.031 90.0573 100.608 89.9185 101.31 90.0494L118.203 93.2426C118.668 93.3299 119.02 93.56 118.999 93.7623C118.978 93.9527 118.589 94.0518 118.127 93.9725Z" fill="#6C63FF"/>
<path d="M118.19 93.5026L101.291 92.0162C100.605 91.957 100.022 92.065 100.001 92.2579C99.9794 92.4508 100.527 92.6539 101.21 92.7054L118.138 93.9912C118.604 94.0272 118.985 93.95 119 93.8189C119.012 93.68 118.652 93.5437 118.19 93.5026Z" fill="#6C63FF"/>
<path d="M143.922 106.979L161.74 104.831C162.462 104.745 163.019 104.489 163 104.266C162.968 104.043 162.36 103.939 161.621 104.037L143.839 106.432C143.35 106.497 142.979 106.67 143.001 106.822C143.023 106.965 143.433 107.039 143.922 106.979Z" fill="#6C63FF"/>
<path d="M143.853 106.503L161.641 105.016C162.363 104.957 162.977 105.065 162.999 105.258C163.022 105.451 162.446 105.654 161.727 105.705L143.907 106.991C143.417 107.027 143.016 106.95 143 106.819C142.988 106.68 143.366 106.544 143.853 106.503Z" fill="#6C63FF"/>
<path d="M87 126H83V186H87V126Z" fill="#40414D"/>
<path d="M180 126H175V186H180V126Z" fill="#40414D"/>
<path d="M80.8827 121H179.117C180.943 121 182.693 121.651 183.984 122.81C185.275 123.969 186 125.541 186 127.18V128H74V127.18C74 125.541 74.7251 123.969 76.0159 122.81C77.3066 121.651 79.0573 121 80.8827 121V121Z" fill="#DFE6F5"/>
<path opacity="0.1" d="M80.8827 121H179.117C180.943 121 182.693 121.651 183.984 122.81C185.275 123.969 186 125.541 186 127.18V128H74V127.18C74 125.541 74.7251 123.969 76.0159 122.81C77.3066 121.651 79.0573 121 80.8827 121V121Z" fill="black"/>
<path d="M80.8827 119H179.117C180.943 119 182.693 119.744 183.984 121.069C185.275 122.393 186 124.189 186 126.063V127H74V126.063C74 124.189 74.7251 122.393 76.0159 121.069C77.3066 119.744 79.0573 119 80.8827 119Z" fill="#DFE6F5"/>
<path d="M130 115C134.418 115 138 110.971 138 106C138 101.029 134.418 97 130 97C125.582 97 122 101.029 122 106C122 110.971 125.582 115 130 115Z" fill="#FFD77C" stroke="#F1CC53" stroke-miterlimit="10"/>
<path d="M130.5 113C134.09 113 137 109.866 137 106C137 102.134 134.09 99 130.5 99C126.91 99 124 102.134 124 106C124 109.866 126.91 113 130.5 113Z" fill="#FFD77C" stroke="#F1CC53" stroke-miterlimit="10"/>
<path d="M130.5 111C133.538 111 136 108.538 136 105.5C136 102.462 133.538 100 130.5 100C127.462 100 125 102.462 125 105.5C125 108.538 127.462 111 130.5 111Z" fill="#FFD77C" stroke="#F1CC53" stroke-miterlimit="10"/>
<path d="M130 109C131.657 109 133 107.433 133 105.5C133 103.567 131.657 102 130 102C128.343 102 127 103.567 127 105.5C127 107.433 128.343 109 130 109Z" fill="#FFD77C" stroke="#F1CC53" stroke-miterlimit="10"/>
<path d="M125.5 119C130.194 119 134 115.194 134 110.5C134 105.806 130.194 102 125.5 102C120.806 102 117 105.806 117 110.5C117 115.194 120.806 119 125.5 119Z" fill="#FFD77C" stroke="#F1CC53" stroke-miterlimit="10"/>
<path d="M125.5 117C129.09 117 132 114.09 132 110.5C132 106.91 129.09 104 125.5 104C121.91 104 119 106.91 119 110.5C119 114.09 121.91 117 125.5 117Z" fill="#FFD77C" stroke="#F1CC53" stroke-miterlimit="10"/>
<path d="M125.5 116C128.538 116 131 113.538 131 110.5C131 107.462 128.538 105 125.5 105C122.462 105 120 107.462 120 110.5C120 113.538 122.462 116 125.5 116Z" fill="#FFD77C" stroke="#F1CC53" stroke-miterlimit="10"/>
<path d="M125 113C126.657 113 128 111.657 128 110C128 108.343 126.657 107 125 107C123.343 107 122 108.343 122 110C122 111.657 123.343 113 125 113Z" fill="#FFD77C" stroke="#F1CC53" stroke-miterlimit="10"/>
<path d="M135 119C139.418 119 143 115.194 143 110.5C143 105.806 139.418 102 135 102C130.582 102 127 105.806 127 110.5C127 115.194 130.582 119 135 119Z" fill="#FFD77C" stroke="#F1CC53" stroke-miterlimit="10"/>
<path d="M135 117C138.866 117 142 114.09 142 110.5C142 106.91 138.866 104 135 104C131.134 104 128 106.91 128 110.5C128 114.09 131.134 117 135 117Z" fill="#FFD77C" stroke="#F1CC53" stroke-miterlimit="10"/>
<path d="M135.5 116C138.538 116 141 113.538 141 110.5C141 107.462 138.538 105 135.5 105C132.462 105 130 107.462 130 110.5C130 113.538 132.462 116 135.5 116Z" fill="#FFD77C" stroke="#F1CC53" stroke-miterlimit="10"/>
<path d="M135 113C136.657 113 138 111.657 138 110C138 108.343 136.657 107 135 107C133.343 107 132 108.343 132 110C132 111.657 133.343 113 135 113Z" fill="#FFD77C" stroke="#F1CC53" stroke-miterlimit="10"/>
<path d="M113 108H148V109.643C148 111.266 147.68 112.873 147.059 114.372C146.438 115.871 145.528 117.233 144.381 118.381C143.233 119.528 141.871 120.438 140.371 121.059C138.872 121.68 137.265 122 135.642 122H125.358C123.735 122 122.128 121.68 120.629 121.059C119.129 120.438 117.767 119.528 116.619 118.381C115.472 117.233 114.562 115.871 113.941 114.372C113.32 112.873 113 111.266 113 109.643V108Z" fill="#381A56"/>
<path opacity="0.1" d="M144.855 108C144.765 111.65 143.257 115.121 140.653 117.67C138.05 120.22 134.557 121.647 130.92 121.648H124C125.009 121.879 126.041 121.997 127.077 122H134.049C135.881 122.001 137.695 121.639 139.387 120.936C141.08 120.233 142.618 119.202 143.914 117.902C145.209 116.602 146.237 115.058 146.938 113.359C147.639 111.66 148 109.839 148 108H144.855Z" fill="#8274AC"/>
<path d="M177 176V172H86V176H177Z" fill="#40414D"/>
<path d="M51 157H48V191H51V157Z" fill="#40414D"/>
<path d="M80 157H76V191H80V157Z" fill="#40414D"/>
<path d="M84 152C84 154.208 76.5318 156 67.3185 156C58.1052 156 51 154.211 51 152C51 149.789 58.1052 148 67.3185 148C76.5318 148 84 149.801 84 152Z" fill="#F6C6CD"/>
<path d="M45 151H84V154.565C84 155.476 83.6544 156.35 83.0391 156.994C82.4238 157.638 81.5894 158 80.7193 158H50.6241C49.1325 158 47.702 157.38 46.6473 156.275C45.5925 155.171 45 153.674 45 152.112V151Z" fill="#40414D"/>
<path d="M38.0011 112.443L38.8039 112.262C39.3685 112.135 39.9606 112.237 40.4499 112.546C40.9393 112.855 41.2858 113.346 41.4132 113.91L51.1321 156.966L49.9156 157.241C48.8945 157.471 47.8237 157.287 46.9387 156.728C46.0537 156.169 45.427 155.281 45.1965 154.26L36.3467 115.054C36.2835 114.774 36.2762 114.484 36.3252 114.201C36.3741 113.918 36.4784 113.648 36.6321 113.405C36.7858 113.163 36.9858 112.953 37.2207 112.788C37.4556 112.623 37.7208 112.506 38.0011 112.443Z" fill="#40414D"/>
<path d="M210 191H213V157H210V191Z" fill="#40414D"/>
<path d="M181 191H184V157H181V191Z" fill="#40414D"/>
<path d="M177 152.505C177 154.986 184.695 157 194.187 157C203.679 157 211 154.99 211 152.505C211 150.021 203.676 148 194.187 148C184.698 148 177 150.024 177 152.505Z" fill="#F6C6CD"/>
<path d="M211.232 158H180.365C179.472 158 178.617 157.69 177.986 157.138C177.355 156.586 177 155.837 177 155.056V152H217V152.953C217 154.292 216.392 155.575 215.31 156.522C214.229 157.468 212.762 158 211.232 158Z" fill="#40414D"/>
<path d="M211.142 157.839L209.926 157.565L219.646 114.503C219.774 113.938 220.12 113.447 220.609 113.138C221.099 112.829 221.691 112.727 222.255 112.854L223.058 113.035C223.623 113.163 224.114 113.509 224.423 113.999C224.732 114.488 224.834 115.08 224.707 115.645L215.855 154.857C215.625 155.877 215 156.764 214.116 157.323C213.232 157.882 212.163 158.068 211.142 157.839V157.839Z" fill="#40414D"/>
<path d="M212.911 138.937L214 138.591C214 138.591 212.138 126.106 212.156 114.916C212.156 114.605 212.156 114.271 212.156 113.95C212.178 113.253 212.203 112.561 212.237 111.885C212.281 111.019 212.29 110.194 212.284 109.393C212.386 98.6179 208.156 94.0667 208.156 94.0667C208.156 94.0667 203.19 86.958 200.214 85.5749C199.956 84.765 199.661 83.7246 199.4 82.5159C199.497 82.4505 199.59 82.3851 199.68 82.3165C200.909 81.4013 202.085 80.4164 203.202 79.3665C204.729 77.9304 206.194 76.1798 206.114 74.2048C206.122 74.0125 206.116 73.8198 206.095 73.6285C205.813 71.2454 203.345 69.4511 202.349 67.1927C201.511 65.2956 201.762 63.1835 201.03 61.2584C200.297 59.3333 197.74 57.5421 195.809 58.5545C195.099 58.9283 194.67 59.5887 194.078 60.0902C192.606 61.3363 190.235 61.4515 188.224 60.8846C186.213 60.3176 185.617 58.0062 182.805 58C183.055 58.084 183.293 58.198 183.516 58.3395C183.281 58.2998 183.043 58.279 182.805 58.2772C183.377 58.4589 183.884 58.803 184.265 59.2679C184.647 59.7329 184.885 60.2988 184.953 60.8971C184.948 60.9722 184.94 61.0471 184.928 61.1213C183.804 61.7288 182.327 61.383 180.98 61.3612C179.633 61.3394 178.1 62.0216 178.233 63.1275C178.211 63.2531 178.211 63.3818 178.233 63.5075C178.41 64.3455 179.528 64.9778 179.664 65.7535C179.664 65.7753 179.664 65.794 179.664 65.8158C177.171 67.066 174.475 67.8553 171.703 68.1459C171.613 68.1459 171.654 68.2549 171.784 68.4138H171.703C171.197 68.4668 174.735 71.2735 175.139 71.4573C176.616 72.1301 178.382 72.6254 179.947 73.1425L180.083 73.1861C179.556 74.415 179.285 75.739 179.285 77.0769C179.285 81.8742 182.721 85.9051 187.374 87.0453C188.243 88.0639 189.155 89.1822 189.987 90.2943H189.928C189.928 90.2943 184.58 97.4341 184.751 108.097C184.736 109.434 184.806 110.77 184.962 112.097C181.523 111.901 174.133 110.991 168.513 106.86C160.93 101.294 152.473 102.963 154.236 106.303C155.999 109.642 165.027 112.424 166.483 112.704C166.619 112.729 166.936 112.804 167.389 112.916C165.595 113.256 164.366 113.851 164.441 114.651C164.586 116.181 172.315 121.053 176.979 121.33C180.061 121.514 183.77 122.467 186.697 123.305C186.979 129.707 185.437 131.626 185.437 131.626C185.437 131.626 185.896 131.909 186.657 132.311L186.331 133.245C184.438 134.342 182.104 135.485 179.981 135.946C177.275 136.504 174.646 137.382 172.147 138.563L161.647 143.656C160.71 144.093 159.898 144.762 159.29 145.601C158.682 146.44 158.297 147.42 158.171 148.45C157.942 150.609 158.59 153.307 162.104 155.447C162.321 157.201 163.388 159.247 166.191 161.122C171.622 164.748 185.896 175.611 187.839 177.094C187.876 179.745 187.529 185.062 184.27 185.891C180.186 186.931 183.472 190.875 186.775 190.719C187.558 191.017 188.411 191.079 189.23 190.9C192.731 190.065 205.561 185.604 206.436 178.932C206.473 178.642 206.489 178.351 206.486 178.059C206.537 176.922 206.254 175.794 205.673 174.816C205.81 175.118 205.921 175.431 206.005 175.751C204.943 173.321 202.358 171.795 200.347 170.935C200.347 170.913 200.347 170.888 200.347 170.867C200.037 170.745 199.726 170.645 199.472 170.555C199.477 170.374 199.463 170.194 199.431 170.016L179.31 156.101C179.31 156.101 188.06 148.865 197.101 149.98C206.142 151.095 207.582 149.447 207.582 149.447C207.582 149.447 212.218 145.02 212.684 139.924L212.976 139.846C212.976 139.846 212.954 139.525 212.911 138.937Z" fill="url(#paint0_linear)"/>
<path d="M187.31 174.856C187.31 174.856 188.17 184.05 183.868 185.166C179.566 186.282 183.582 190.739 187.021 189.894C190.461 189.049 203.085 184.599 203.945 177.917C204.805 171.235 195.34 169 195.34 169L187.31 174.856Z" fill="#B8616E"/>
<path opacity="0.05" d="M187.31 174.856C187.31 174.856 188.17 184.05 183.868 185.166C179.566 186.282 183.582 190.739 187.021 189.894C190.461 189.049 203.085 184.599 203.945 177.917C204.805 171.235 195.34 169 195.34 169L187.31 174.856Z" fill="black"/>
<path d="M189.069 175.135C189.069 175.135 189.89 184.767 185.783 185.936C181.676 187.105 185.51 191.774 188.793 190.889C192.076 190.004 204.127 185.342 204.947 178.341C205.768 171.341 196.734 169 196.734 169L189.069 175.135Z" fill="#B8616E"/>
<path opacity="0.1" d="M197.375 170L190 175.952C190 175.952 190.033 176.356 190.054 177C192.839 176.179 198.908 174 199 170.59C198.47 170.358 197.927 170.161 197.375 170V170Z" fill="black"/>
<path d="M194 91H190V94H194V91Z" fill="#F8BDC5"/>
<path d="M189.833 130C189.833 130 184.647 134.145 180.388 135.127C177.855 135.685 175.4 136.559 173.078 137.729L163.283 142.794C162.393 143.249 161.63 143.924 161.063 144.757C160.496 145.59 160.144 146.554 160.039 147.561C159.759 150.378 160.873 154.085 167.52 156.289L188.469 174L195 168.466L172.691 151.036L189.833 140.242V130Z" fill="#8274AC"/>
<path d="M186.133 112.151C186.133 112.151 176.249 112.405 169.302 107.318C162.356 102.232 154.611 103.757 156.213 106.809C157.814 109.861 166.096 112.405 167.432 112.658C168.767 112.911 188 118 188 118L186.133 112.151Z" fill="#F8BDC5"/>
<path opacity="0.05" d="M186.133 112.151C186.133 112.151 176.249 112.405 169.302 107.318C162.356 102.232 154.611 103.757 156.213 106.809C157.814 109.861 166.096 112.405 167.432 112.658C168.767 112.911 188 118 188 118L186.133 112.151Z" fill="black"/>
<path d="M188.116 128L184.87 138.024C184.87 138.024 166.619 149.578 165.129 151.108C163.973 152.298 162.425 156.956 167.833 160.851C173.241 164.747 188.113 177 188.113 177C188.113 177 199.47 174.481 198.659 169.757L180.001 155.838C180.001 155.838 188.113 148.595 196.497 149.713C204.881 150.831 206.233 149.156 206.233 149.156C206.233 149.156 212.723 142.467 210.558 136.074C208.392 129.682 188.116 128 188.116 128Z" fill="#8274AC"/>
<path d="M184 83.2729C184 83.2729 193.221 93.473 192.678 96.5041C192.135 99.5351 200 87.6823 200 87.6823C200 87.6823 197.546 81.6171 198.101 75L184 83.2729Z" fill="#F8BDC5"/>
<path opacity="0.1" d="M191.979 93.0286C192.602 92.3675 193.258 91.7387 193.944 91.1446C195.318 90.0119 196.579 88.7468 197.708 87.3673C199.588 84.9245 206.568 95.4654 206.568 95.4654C206.568 95.4654 210.863 100.324 210.329 111.933C209.794 123.543 211 139.064 211 139.064L209.375 139.519C208.006 139.978 206.55 140.111 205.121 139.907C203.693 139.703 202.331 139.168 201.143 138.343C198.999 136.853 196.283 135.29 194.218 135.149C190.19 134.881 186.563 132.584 186.563 132.584C186.563 132.584 188.31 128.401 185.624 114.901C182.939 101.401 189.783 91.8072 189.783 91.8072C189.783 91.8072 190.324 94.7447 191.979 93.0286Z" fill="black"/>
<path d="M213 138.632L211.326 139.183L210.331 139.51C208.908 139.978 207.393 140.113 205.907 139.905C204.422 139.697 203.006 139.152 201.771 138.312C199.544 136.797 196.717 135.201 194.569 135.058C190.387 134.781 185.649 131.757 185.649 131.757C185.649 131.757 188.441 128.183 185.649 114.429C182.857 100.675 189.977 90.9132 189.977 90.9132C189.977 90.9132 190.539 93.8904 192.26 92.1389C192.907 91.466 193.588 90.8264 194.301 90.2225C195.73 89.0685 197.04 87.7796 198.214 86.3742C200.17 83.8855 207.428 94.6245 207.428 94.6245C207.428 94.6245 211.894 99.5741 211.339 111.402C211.279 112.646 211.253 113.928 211.25 115.225C211.209 126.294 213 138.632 213 138.632Z" fill="#8CCACB"/>
<path opacity="0.1" d="M196.493 111.603L196.762 117.475C196.762 117.475 182.467 118.275 179.501 115.341C176.536 112.406 187.585 123.972 190.026 124.681C192.317 125.349 198.232 125.937 201.334 125.998C202.221 126.026 203.096 125.799 203.854 125.344C204.612 124.889 205.221 124.225 205.605 123.435C205.967 122.656 206.084 121.789 205.941 120.944C205.401 117.475 205.941 110 205.941 110L196.493 111.603Z" fill="black"/>
<path d="M196.252 110.703L196.527 116.942C196.527 116.942 181.869 117.792 178.829 114.674C175.788 111.557 164.787 112.246 165.003 114.674C165.141 116.233 172.47 121.196 176.89 121.481C181.309 121.767 187.118 123.845 189.62 124.599C191.97 125.308 198.035 125.933 201.216 125.998C202.125 126.028 203.022 125.786 203.8 125.303C204.577 124.819 205.201 124.114 205.595 123.274C205.966 122.447 206.086 121.525 205.939 120.628C205.386 116.942 205.939 109 205.939 109L196.252 110.703Z" fill="#F8BDC5"/>
<path opacity="0.1" d="M199.941 94.0057C199.941 94.0057 193.2 94.7751 194.079 103.503C194.958 112.231 196.131 113 196.131 113C196.131 113 206.097 112.231 207.268 111.972C208.438 111.714 207.855 102.22 207.855 102.22C207.855 102.22 207.559 93.7502 199.941 94.0057Z" fill="black"/>
<path d="M199.941 94.0059C199.941 94.0059 193.2 94.7753 194.079 103.503C194.958 112.231 196.131 113 196.131 113C196.131 113 206.097 112.231 207.268 111.972C208.438 111.714 207.855 102.22 207.855 102.22C207.855 102.22 207.559 93.7446 199.941 94.0059Z" fill="#8CCACB"/>
<path opacity="0.1" d="M198.279 81.3517C197.826 79.2842 198.755 78.6463 199 76L184 83.8326C184 83.8326 185.718 85.5278 187.672 87.7045C188.545 87.9045 189.442 88.0037 190.342 87.9999C194.272 88.0147 196.421 84.1929 198.279 81.3517Z" fill="black"/>
<path d="M190 88C195.523 88 200 83.299 200 77.5C200 71.701 195.523 67 190 67C184.477 67 180 71.701 180 77.5C180 83.299 184.477 88 190 88Z" fill="#F8BDC5"/>
<path opacity="0.1" d="M192.639 74.2905C191.108 75.2665 191.086 77.4732 192.072 79.0017C193.058 80.5301 194.757 81.5399 196.393 82.4913C196.867 82.7675 197.391 83.053 197.923 82.9916C198.333 82.9116 198.713 82.7193 199.02 82.4361C200.164 81.5412 201.256 80.581 202.29 79.5603C203.778 78.0932 205.208 76.2855 204.975 74.2384C204.712 71.915 202.421 70.1656 201.497 67.965C200.719 66.1235 200.952 64.058 200.272 62.1766C199.592 60.2952 197.21 58.555 195.428 59.5402C194.77 59.9023 194.372 60.5499 193.821 61.0379C192.455 62.2472 190.253 62.3669 188.386 61.8144C186.518 61.262 185.964 59.0061 183.358 59C184.653 59.4573 185.529 60.8108 185.33 62.0446C184.286 62.6369 182.914 62.2993 181.656 62.2779C180.397 62.2564 178.9 62.9623 179.117 64.0979C179.307 65.0186 180.633 65.703 180.437 66.6238C178.137 67.8383 175.63 68.6088 173.046 68.895C172.577 68.9471 175.86 71.6817 176.233 71.8628C177.602 72.5196 179.246 73.0015 180.694 73.5048C184.629 74.8645 188.658 75.3494 192.639 74.2905Z" fill="black"/>
<path d="M192.639 74.2905C191.108 75.2665 191.086 77.4732 192.072 79.0017C193.058 80.5301 194.757 81.5399 196.393 82.4913C196.867 82.7675 197.391 83.053 197.923 82.9916C198.333 82.9116 198.713 82.7193 199.02 82.4361C200.164 81.5412 201.256 80.581 202.29 79.5603C203.778 78.0932 205.208 76.2855 204.975 74.2384C204.712 71.915 202.421 70.1656 201.497 67.965C200.719 66.1235 200.952 64.058 200.272 62.1766C199.592 60.2952 197.21 58.555 195.428 59.5402C194.77 59.9023 194.372 60.5499 193.821 61.0379C192.455 62.2472 190.253 62.3669 188.386 61.8144C186.518 61.262 185.964 59.0061 183.358 59C184.653 59.4573 185.529 60.8108 185.33 62.0446C184.286 62.637 182.914 62.2993 181.656 62.2779C180.397 62.2564 178.9 62.9623 179.117 64.0979C179.307 65.0186 180.633 65.703 180.437 66.6238C178.137 67.8383 175.63 68.6088 173.046 68.895C172.577 68.9471 175.86 71.6817 176.233 71.8628C177.602 72.5196 179.246 73.0015 180.694 73.5048C184.629 74.8675 188.658 75.3433 192.639 74.2905Z" fill="#916168"/>
<path opacity="0.1" d="M204.221 174C204.663 175.037 204.817 176.178 204.666 177.298C203.842 184.02 191.732 188.499 188.43 189.336C186.69 189.779 184.794 188.743 184 187.498C184.511 188.962 186.708 190.403 188.707 189.896C192.009 189.057 204.119 184.574 204.943 177.858C205.124 176.527 204.87 175.171 204.221 174Z" fill="white"/>
<path d="M116.952 181.871C116.708 181.319 115.438 180.242 109.316 180.009C105.123 179.851 103.696 177.632 103.309 175.466C104.687 175.286 105.764 175.038 106.118 174.693C106.118 174.693 106.099 174.594 106.068 174.417L106.118 174.38C105.85 172.817 105.71 171.236 105.699 169.65C105.691 168.294 105.835 166.94 106.127 165.616C106.297 164.74 106.369 163.848 106.34 162.956C106.375 157.68 104.526 148.408 104.526 148.408L104.272 140.702C104.246 139.74 103.963 138.804 103.451 137.99C102.94 137.176 102.219 136.516 101.364 136.078C100.756 135.763 100.083 135.595 99.3979 135.588C99.3979 135.588 89.6932 134.054 80.9577 133.22C80.3384 132.72 78.1553 131.373 73.1512 132.146L70.2714 123.699C70.2481 123.596 70.2315 123.493 70.2218 123.388C70.324 122.314 71.0393 120.698 74.3743 120.595L75.0711 121.216C75.0711 121.216 75.1949 120.971 75.4024 120.595C79.5395 120.549 102.076 120.319 103.238 120.595C104.517 120.905 115.72 118.404 116.042 118.094C120.396 113.839 103.238 115.903 103.238 115.903C101.55 116.179 96.0969 115.85 90.5107 115.394C93.2759 111.238 95.8771 97.1336 95.8771 97.1336C95.8771 97.1336 105.786 92.1279 102.919 89.3131C100.051 86.4984 91.3963 95.5695 91.3963 95.5695C91.3963 95.5695 87.8755 105.894 86.2745 109.023C85.6552 110.264 84.8532 110.518 84.1379 110.376C84.463 110.115 84.6736 109.96 84.6736 109.96C84.6736 109.96 77.632 104.327 76.991 102.139C76.8716 101.781 76.7138 101.436 76.5203 101.112C76.1828 99.1291 75.5913 97.1771 74.1483 95.8768C73.9059 95.616 73.6383 95.38 73.3494 95.1723C72.9592 94.893 72.5164 94.6509 72.1479 94.3468C72.3554 93.391 72.5969 92.3979 72.8477 91.4358C78.0748 90.8151 82.1375 86.4704 82.1375 81.1947C82.1367 80.3991 82.0421 79.6064 81.8557 78.833C82.6369 78.8846 83.4181 78.7328 84.1235 78.3924C84.8289 78.052 85.4344 77.5345 85.8813 76.8903C86.9372 75.3138 86.9032 73.1662 86.0175 71.5028C85.6514 70.8275 85.1716 70.2206 84.5993 69.7091C83.6868 68.788 82.5739 68.0912 81.3479 67.6733C80.2857 67.304 79.1121 67.0836 78.2699 66.3605C77.8935 65.8672 77.551 65.3488 77.2449 64.8089C76.8914 64.2787 76.4756 63.7932 76.0062 63.3627C74.458 61.7644 72.2718 60.7807 70.0453 60.3462C67.3327 59.8155 64.5303 60.0048 61.7712 60.1941C60.7401 60.2655 59.5293 60.4486 59.0648 61.3486C58.7149 62.0251 58.944 62.8351 58.8976 63.5892C58.752 65.9881 56.0147 67.3133 53.6334 67.8936C51.2521 68.4739 48.4125 68.9767 47.2637 71.0808C46.2201 72.98 46.954 75.2828 47.2885 77.4148C47.8455 81.1583 47.0161 84.9766 44.9567 88.1494C43.9101 89.7538 42.56 91.1814 41.7332 92.9037C40.8172 94.8238 40.6046 97.0056 41.1324 99.067C41.2873 99.6691 41.5102 100.284 41.3988 100.898C41.272 101.405 41.0232 101.873 40.6742 102.26C39.2502 104.023 37.4781 105.471 35.4691 106.514C33.4601 107.557 31.2577 108.172 29 108.321C29.1896 108.951 29.5601 109.512 30.0652 109.932C30.707 110.568 31.4554 111.086 32.2762 111.462C34.4386 112.549 36.7125 113.397 39.0577 113.991C40.637 114.391 42.2875 114.677 43.8946 114.404C45.5017 114.131 47.0686 113.209 47.7282 111.751C48.1122 110.906 48.1679 109.951 48.5085 109.091C49.1867 107.372 50.8681 106.258 52.0046 104.783C51.6219 108.582 51.441 112.398 51.4627 116.216C51.4627 117.411 51.4627 118.488 51.4627 119.487C51.4627 123.798 51.153 126.771 48.4868 132.155C48.1691 132.721 48.0298 133.37 48.0874 134.017C48.0294 134.367 48.0632 134.725 48.1853 135.058C48.3075 135.39 48.5138 135.685 48.7841 135.913C48.5983 136.987 48.5081 138.076 48.5147 139.166C48.4776 143.088 49.7998 148.355 56.8105 149.689L69.2928 149.069C69.2928 149.069 86.897 145.627 91.6967 148.138C92.0928 148.222 92.4481 148.44 92.7033 148.755C92.9586 149.07 93.0984 149.463 93.0994 149.869C93.0846 150.13 93.0441 150.389 92.9787 150.642C92.845 151.455 92.7941 152.28 92.8269 153.103C92.8053 158.379 93.9386 170.352 93.9386 170.352V175.429C93.1397 176.633 92.155 178.414 92.2819 179.727C92.2819 179.755 92.2819 179.786 92.2819 179.814C92.2819 179.842 92.2819 179.891 92.3005 179.929C92.3191 179.966 92.3005 179.997 92.3222 180.031C92.3439 180.065 92.3408 180.096 92.3501 180.13C92.3594 180.164 92.3748 180.205 92.3903 180.239C92.4058 180.273 92.412 180.295 92.4244 180.323C92.4368 180.351 92.4646 180.403 92.4863 180.441L92.5235 180.506C92.5607 180.566 92.6021 180.623 92.6473 180.677C94.2483 182.539 102.247 186.142 104.811 185.996C107.533 185.841 116.652 186.306 116.974 182.241C117.015 182.119 117.007 181.987 116.952 181.871V181.871Z" fill="url(#paint1_linear)"/>
<path d="M93.5533 174.68C93.5533 174.68 89.8253 179.147 91.3786 180.934C92.9319 182.72 100.698 186.136 103.184 185.996C105.824 185.847 114.678 186.294 114.989 182.422C114.989 182.422 115.61 180.636 107.533 180.338C99.4558 180.04 101.941 172 101.941 172L93.5533 174.68Z" fill="#594C76"/>
<path opacity="0.1" d="M49.5954 134.655C49.5954 134.655 45.8743 147.497 57.0375 149.689L69.131 149.063C69.131 149.063 86.1859 145.618 90.8373 148.123C90.8373 148.123 92.6978 148.437 92.0776 150.942C91.4574 153.448 93.0079 170.362 93.0079 170.362V176C93.0079 176 103.551 176 104.791 174.747C104.791 174.747 103.861 169.736 104.791 165.664C105.722 161.592 103.241 148.75 103.241 148.75L102.996 141.019C102.978 140.064 102.708 139.131 102.214 138.316C101.72 137.502 101.02 136.835 100.186 136.384C99.5996 136.07 98.9467 135.902 98.2825 135.895C98.2825 135.895 77.1964 132.45 69.7543 133.076C62.3121 133.703 49.5954 134.655 49.5954 134.655Z" fill="black"/>
<path d="M49.5954 134.655C49.5954 134.655 45.8743 147.497 57.0375 149.689L69.131 149.063C69.131 149.063 86.1859 145.618 90.8373 148.123C90.8373 148.123 92.6978 148.437 92.0776 150.942C91.4574 153.448 93.0079 170.362 93.0079 170.362V176C93.0079 176 103.551 176 104.791 174.747C104.791 174.747 103.861 169.736 104.791 165.664C105.722 161.592 103.241 148.75 103.241 148.75L102.996 141.019C102.978 140.064 102.708 139.131 102.214 138.316C101.72 137.502 101.02 136.835 100.186 136.384C99.5996 136.07 98.9467 135.902 98.2825 135.895C98.2825 135.895 77.1964 132.45 69.7543 133.076C62.3121 133.703 49.5954 134.655 49.5954 134.655Z" fill="#8274AC"/>
<path d="M82.4652 109.325C82.4652 109.325 84.9304 112.465 86.4712 109.325C88.0119 106.185 91.4016 95.8236 91.4016 95.8236C91.4016 95.8236 99.7216 86.718 102.495 89.5439C105.268 92.3697 95.7157 97.3935 95.7157 97.3935C95.7157 97.3935 92.326 116.546 89.2445 116.86C86.163 117.174 81.5408 116.86 81.5408 116.86L80 113.407L82.4652 109.325Z" fill="#F8BDC5"/>
<path opacity="0.05" d="M82.4652 109.325C82.4652 109.325 84.9304 112.465 86.4712 109.325C88.0119 106.185 91.4016 95.8236 91.4016 95.8236C91.4016 95.8236 99.7216 86.718 102.495 89.5439C105.268 92.3697 95.7157 97.3935 95.7157 97.3935C95.7157 97.3935 92.326 116.546 89.2445 116.86C86.163 117.174 81.5408 116.86 81.5408 116.86L80 113.407L82.4652 109.325Z" fill="black"/>
<path d="M70.8065 94C70.8065 94 76.6129 100.718 77.2581 102.957C77.9032 105.196 85 110.954 85 110.954C85 110.954 79.8387 114.793 80.8065 116.712C81.7742 118.632 74.0323 110.315 74.0323 110.315L65 97.1989L70.8065 94Z" fill="#D58668"/>
<path d="M74 85.8486C74 85.8486 71.262 95.1561 71.262 98.6865C71.262 102.217 59.7017 97.7237 60.0059 95.798C60.3101 93.8723 66.6987 86.8115 67.003 83.923C67.3072 81.0344 74 85.8486 74 85.8486Z" fill="#F8BDC5"/>
<path opacity="0.1" d="M64.6992 92.1894C64.6992 92.1894 54.1987 89.4061 52.6986 105.178C51.1986 120.95 53.8987 122.806 49.3985 132.393C44.8983 141.98 80 133.63 80 133.63C80 133.63 78.1999 131.465 72.4996 132.393L69.7995 124.043C69.7995 124.043 68.8994 120.332 73.9997 120.332C79.1 120.332 76.6998 109.508 76.6998 109.508C76.6998 109.508 73.9997 100.23 72.4996 99.3023C70.9996 98.3746 68.2994 92.8079 64.6992 92.1894Z" fill="black"/>
<path d="M64.6992 92.1894C64.6992 92.1894 54.1987 89.4061 52.6986 105.178C51.1986 120.95 53.8987 122.806 49.3985 132.393C44.8983 141.98 80 133.63 80 133.63C80 133.63 78.1999 131.465 72.4996 132.393L69.7995 124.043C69.7995 124.043 68.8994 120.332 73.9997 120.332C79.1 120.332 76.6998 109.508 76.6998 109.508C76.6998 109.508 73.9997 100.23 72.4996 99.3023C70.9996 98.3746 68.2994 92.8079 64.6992 92.1894Z" fill="#D58668"/>
<path d="M75.5506 114C75.5506 114 98.1887 116.656 101.91 115.992C101.91 115.992 118.532 113.801 114.315 118.316C114.004 118.648 103.15 121.303 101.91 120.971C100.67 120.639 74.3101 120.971 74.3101 120.971L74 117.652L75.5506 114Z" fill="#F8BDC5"/>
<path opacity="0.1" d="M57.9439 106.495L74.8105 122C74.8105 122 77.9929 115.539 78.9476 115.539C79.9023 115.539 67.491 96.4808 67.491 96.4808C67.491 96.4808 64.3087 92.6045 62.3992 94.5427C60.4898 96.4808 54.7615 95.1887 57.9439 106.495Z" fill="black"/>
<path d="M57.901 106.048L74.001 121C74.001 121 77.0387 114.77 77.95 114.77C78.8613 114.77 67.0142 96.3922 67.0142 96.3922C67.0142 96.3922 63.9765 92.6544 62.1538 94.5233C60.3312 96.3922 54.8633 95.1463 57.901 106.048Z" fill="#D58668"/>
<path d="M71.5 92C77.299 92 82 87.299 82 81.5C82 75.701 77.299 71 71.5 71C65.701 71 61 75.701 61 81.5C61 87.299 65.701 92 71.5 92Z" fill="#F8BDC5"/>
<path opacity="0.1" d="M80.3939 78.5423C82.114 79.2437 84.2211 78.4027 85.2347 76.8063C86.2483 75.2099 86.2176 73.0359 85.3637 71.3411C84.5098 69.6463 82.931 68.4149 81.1894 67.7738C80.1328 67.3866 78.9564 67.1645 78.1455 66.3647C77.6326 65.8601 77.3285 65.1777 76.9445 64.562C75.5101 62.2515 72.9515 60.8868 70.3499 60.3505C67.7483 59.8141 65.0576 60.0045 62.4099 60.1949C61.4208 60.2679 60.2598 60.452 59.8113 61.366C59.4765 62.0516 59.6946 62.8736 59.6516 63.6384C59.5134 66.0727 56.8872 67.4215 54.5927 68.0055C52.2983 68.5895 49.6383 69.1385 48.5202 71.284C47.5189 73.2104 48.2346 75.5463 48.5448 77.7108C49.0753 81.4916 48.2824 85.3439 46.3087 88.5745C45.3043 90.2026 44.0112 91.6498 43.2156 93.3985C42.3356 95.3527 42.1318 97.5599 42.6382 99.6508C42.7887 100.263 43.0006 100.885 42.8962 101.507C42.7758 102.019 42.5377 102.492 42.202 102.888C40.8559 104.668 39.1633 106.136 37.2338 107.198C35.3042 108.259 33.1805 108.891 31 109.051C31.3502 110.413 32.6249 111.273 33.8381 111.908C35.9084 113.008 38.0902 113.868 40.3437 114.472C41.858 114.878 43.4429 115.167 44.9849 114.891C46.5268 114.615 48.0288 113.679 48.6707 112.2C49.0393 111.343 49.0946 110.375 49.4202 109.499C50.1543 107.534 52.1109 106.347 53.1614 104.542C54.1658 102.815 54.5559 102.612 54.8108 100.619C55.0657 98.6257 55.6278 96.4739 57.2128 95.3028C58.8714 94.0745 61.2058 94.3094 63.0488 95.252C64.8917 96.1946 66.0312 95.8264 67.5701 97.2102C70.2697 99.6333 73.291 101.645 76.5422 103.183C76.235 100.416 75.7405 97.3276 73.5658 95.6805C72.9515 95.2076 72.1744 94.8458 71.8488 94.1222C71.3297 92.9701 72.2174 91.5641 71.815 90.3613C71.4126 89.1584 69.883 88.7141 69.2042 87.6223C68.6267 86.6956 68.7834 85.4356 69.324 84.4835C69.8646 83.5314 70.7185 82.8268 71.5693 82.1604C72.3249 81.57 73.0907 80.9935 73.8668 80.4307C74.5681 79.9708 75.1978 79.4037 75.7343 78.7486C76.0415 78.3138 76.2442 77.3617 76.6712 77.0538C77.7462 76.2858 79.3987 78.1392 80.3939 78.5423Z" fill="black"/>
<path d="M80.292 78.5423C82.0433 79.2437 84.1887 78.4027 85.2208 76.8063C86.2528 75.2099 86.2216 73.0359 85.3521 71.3411C84.4827 69.6463 82.8752 68.4149 81.102 67.7738C80.0261 67.3866 78.8283 67.1645 78.0027 66.3647C77.4804 65.8601 77.1708 65.1777 76.7799 64.562C75.3194 62.2515 72.7142 60.8868 70.0653 60.3505C67.4164 59.8141 64.6768 60.0045 61.981 60.1949C60.9739 60.2679 59.7918 60.452 59.3352 61.366C58.9943 62.0516 59.2163 62.8736 59.1725 63.6384C59.0318 66.0727 56.3579 67.4215 54.0217 68.0055C51.6855 68.5895 48.9772 69.1385 47.8388 71.284C46.8192 73.2104 47.5479 75.5463 47.8638 77.7108C48.404 81.4916 47.5966 85.3439 45.587 88.5745C44.5644 90.2026 43.2477 91.6498 42.4377 93.3985C41.5417 95.3527 41.3342 97.5599 41.8498 99.6508C42.003 100.263 42.2188 100.885 42.1125 101.507C41.9899 102.019 41.7474 102.492 41.4057 102.888C40.0351 104.668 38.3117 106.136 36.3471 107.198C34.3825 108.259 32.2202 108.891 30 109.051C30.3565 110.413 31.6544 111.273 32.8897 111.908C34.9977 113.008 37.2192 113.868 39.5136 114.472C41.0554 114.878 42.6692 115.167 44.2391 114.891C45.8091 114.615 47.3384 113.679 47.992 112.2C48.3673 111.343 48.4236 110.375 48.7551 109.499C49.5026 107.534 51.4947 106.347 52.5643 104.542C53.587 102.815 53.9842 102.612 54.2437 100.619C54.5033 98.6257 55.0756 96.4739 56.6894 95.3028C58.3782 94.0745 60.755 94.3094 62.6315 95.252C64.5079 96.1946 65.6682 95.8264 67.235 97.2102C69.9837 99.6333 73.0599 101.645 76.3702 103.183C76.0575 100.416 75.5539 97.3276 73.3397 95.6805C72.7142 95.2076 71.923 94.8458 71.5915 94.1222C71.063 92.9701 71.9668 91.5641 71.5571 90.3613C71.1474 89.1584 69.59 88.7141 68.8988 87.6223C68.3108 86.6956 68.4703 85.4356 69.0208 84.4835C69.5712 83.5314 70.4406 82.8268 71.3069 82.1604C72.0763 81.57 72.856 80.9935 73.6462 80.4307C74.3603 79.9708 75.0014 79.4037 75.5477 78.7486C75.8604 78.3138 76.0668 77.3617 76.5016 77.0538C77.5961 76.2858 79.2787 78.1392 80.292 78.5423Z" fill="#916168"/>
<g opacity="0.1">
<path opacity="0.1" d="M102.27 173.692C102.293 172.862 102.413 172.038 102.625 171.235L102.47 171.288C102.314 172.079 102.247 172.886 102.27 173.692V173.692Z" fill="white"/>
<path opacity="0.1" d="M103.872 185.264C101.378 185.411 93.5842 181.835 92.0254 179.964C91.8206 179.711 91.6949 179.403 91.6637 179.079C91.618 179.342 91.6265 179.611 91.6887 179.871C91.7509 180.13 91.8654 180.374 92.0254 180.588C93.5842 182.458 101.378 186.034 103.872 185.888C106.522 185.732 115.407 186.2 115.719 182.147C115.743 182.035 115.727 181.918 115.676 181.816C114.962 185.551 106.457 185.112 103.872 185.264Z" fill="white"/>
</g>
<path d="M117 92H116V105H117V92Z" fill="#FFD77C" stroke="#F1CC53" stroke-width="0.25" stroke-miterlimit="10"/>
<path d="M117 92V92V105V105V92Z" stroke="#FFAB50" stroke-width="0.25" stroke-miterlimit="10"/>
<path d="M117 92V92V105V105V92Z" stroke="#FFAB50" stroke-width="0.25" stroke-miterlimit="10"/>
<path d="M117 92V92V105V105V92Z" stroke="#FFAB50" stroke-width="0.25" stroke-miterlimit="10"/>
<path d="M118 92H117V105H118V92Z" fill="#FFD77C" stroke="#F1CC53" stroke-width="0.25" stroke-miterlimit="10"/>
<path d="M119 92H118V105H119V92Z" fill="#FFD77C" stroke="#F1CC53" stroke-width="0.25" stroke-miterlimit="10"/>
<path d="M119 92V92V105V105V92Z" stroke="#F1CC53" stroke-width="0.25" stroke-miterlimit="10"/>
<defs>
<linearGradient id="paint0_linear" x1="183.994" y1="191.015" x2="183.994" y2="58" gradientUnits="userSpaceOnUse">
<stop stop-color="#808080" stop-opacity="0.25"/>
<stop offset="0.54" stop-color="#808080" stop-opacity="0.12"/>
<stop offset="1" stop-color="#808080" stop-opacity="0.1"/>
</linearGradient>
<linearGradient id="paint1_linear" x1="33594" y1="90550.7" x2="33594" y2="39394.7" gradientUnits="userSpaceOnUse">
<stop stop-color="#808080" stop-opacity="0.25"/>
<stop offset="0.54" stop-color="#808080" stop-opacity="0.12"/>
<stop offset="1" stop-color="#808080" stop-opacity="0.1"/>
</linearGradient>
</defs>
</svg>
