<svg width="61" height="61" viewBox="0 0 61 61" fill="none" xmlns="http://www.w3.org/2000/svg">
<g filter="url(#filter0_d)">
<circle cx="30.5" cy="30.5" r="27.5" fill="#F9B84E"/>
</g>
<path d="M25.6009 24.0419L24.9301 23.7065L24.3874 24.7919H25.6009V24.0419ZM32.5657 24.0419V24.7919H33.7792L33.2365 23.7065L32.5657 24.0419ZM27.7474 19.749L27.0766 19.4136V19.4136L27.7474 19.749ZM27.207 18.1278L27.5425 17.457V17.457L27.207 18.1278ZM25.5859 18.6682L24.9151 18.3328V18.3328L25.5859 18.6682ZM22.899 24.0419V24.7919H23.3626L23.5699 24.3773L22.899 24.0419ZM18.512 31.1169L19.2601 31.1709L19.2994 30.6261L18.7929 30.4215L18.512 31.1169ZM18.5639 31.8162L17.8317 31.9789L18.5639 31.8162ZM20.4435 40.2745L21.1757 40.1118L21.1757 40.1118L20.4435 40.2745ZM37.7232 40.2745L36.991 40.1118V40.1118L37.7232 40.2745ZM39.6028 31.8162L40.3349 31.9789L40.3349 31.9789L39.6028 31.8162ZM39.6541 31.1171L39.3734 30.4217L38.8671 30.626L38.906 31.1706L39.6541 31.1171ZM35.2676 24.0419L34.5968 24.3773L34.8041 24.7919H35.2676V24.0419ZM32.5808 18.6682L33.2516 18.3328V18.3328L32.5808 18.6682ZM30.9596 18.1278L31.295 18.7987L30.9596 18.1278ZM30.4192 19.749L29.7484 20.0844V20.0844L30.4192 19.749ZM25.6009 24.7919H32.5657V23.2919H25.6009V24.7919ZM27.0766 19.4136L24.9301 23.7065L26.2718 24.3773L28.4182 20.0844L27.0766 19.4136ZM26.8716 18.7987C27.098 18.9119 27.1898 19.1872 27.0766 19.4136L28.4182 20.0844C28.9019 19.117 28.5098 17.9407 27.5425 17.457L26.8716 18.7987ZM26.2567 19.0036C26.3699 18.7772 26.6452 18.6854 26.8716 18.7987L27.5425 17.457C26.5751 16.9733 25.3988 17.3654 24.9151 18.3328L26.2567 19.0036ZM23.5699 24.3773L26.2567 19.0036L24.9151 18.3328L22.2282 23.7065L23.5699 24.3773ZM19.4167 24.7919H22.899V23.2919H19.4167V24.7919ZM17.75 26.4586C17.75 25.5381 18.4962 24.7919 19.4167 24.7919V23.2919C17.6678 23.2919 16.25 24.7097 16.25 26.4586H17.75ZM17.75 28.8753V26.4586H16.25V28.8753H17.75ZM18.7929 30.4215C18.1802 30.174 17.75 29.574 17.75 28.8753H16.25C16.25 30.2062 17.0709 31.3437 18.2311 31.8123L18.7929 30.4215ZM19.296 31.6535C19.2597 31.4899 19.2488 31.3279 19.2601 31.1709L17.764 31.0629C17.7423 31.3636 17.7635 31.6716 17.8317 31.9789L19.296 31.6535ZM21.1757 40.1118L19.296 31.6535L17.8317 31.9789L19.7114 40.4372L21.1757 40.1118ZM22.8026 41.4169C22.0215 41.4169 21.3451 40.8744 21.1757 40.1118L19.7114 40.4372C20.0333 41.8861 21.3184 42.9169 22.8026 42.9169V41.4169ZM35.364 41.4169H22.8026V42.9169H35.364V41.4169ZM36.991 40.1118C36.8216 40.8744 36.1452 41.4169 35.364 41.4169V42.9169C36.8483 42.9169 38.1333 41.8861 38.4553 40.4372L36.991 40.1118ZM38.8707 31.6535L36.991 40.1118L38.4553 40.4372L40.3349 31.9789L38.8707 31.6535ZM38.9103 31.2919C38.9103 31.4135 38.897 31.5348 38.8707 31.6535L40.3349 31.9789C40.3851 31.7533 40.4103 31.523 40.4103 31.2919H38.9103ZM38.906 31.1706C38.9089 31.2106 38.9103 31.251 38.9103 31.2919H40.4103C40.4103 31.2153 40.4076 31.1392 40.4022 31.0636L38.906 31.1706ZM40.4167 28.8753C40.4167 29.5741 39.9863 30.1742 39.3734 30.4217L39.9349 31.8126C41.0955 31.3441 41.9167 30.2065 41.9167 28.8753H40.4167ZM40.4167 26.4586V28.8753H41.9167V26.4586H40.4167ZM38.75 24.7919C39.6705 24.7919 40.4167 25.5381 40.4167 26.4586H41.9167C41.9167 24.7097 40.4989 23.2919 38.75 23.2919V24.7919ZM35.2676 24.7919H38.75V23.2919H35.2676V24.7919ZM31.9099 19.0036L34.5968 24.3773L35.9384 23.7065L33.2516 18.3328L31.9099 19.0036ZM31.295 18.7987C31.5214 18.6854 31.7967 18.7772 31.9099 19.0036L33.2516 18.3328C32.7679 17.3654 31.5916 16.9733 30.6242 17.457L31.295 18.7987ZM31.09 19.4136C30.9768 19.1872 31.0686 18.9119 31.295 18.7987L30.6242 17.457C29.6568 17.9407 29.2647 19.117 29.7484 20.0844L31.09 19.4136ZM33.2365 23.7065L31.09 19.4136L29.7484 20.0844L31.8949 24.3773L33.2365 23.7065Z" fill="white"/>
<line x1="24.3334" y1="28.3336" x2="24.3334" y2="36.5003" stroke="white" stroke-width="1.5" stroke-linecap="round"/>
<line x1="29.1666" y1="28.3336" x2="29.1666" y2="36.5003" stroke="white" stroke-width="1.5" stroke-linecap="round"/>
<line x1="34" y1="28.3336" x2="34" y2="36.5003" stroke="white" stroke-width="1.5" stroke-linecap="round"/>
<circle cx="41.0415" cy="41.0415" r="6.0415" fill="#112C45"/>
<path fill-rule="evenodd" clip-rule="evenodd" d="M41.7129 40.3697H45.0693V41.7123H41.7129V45.0687H40.3703V41.7123H37.0139V40.3697H40.3703V37.0133H41.7129V40.3697Z" fill="white"/>
<defs>
<filter id="filter0_d" x="0" y="0" width="61" height="61" filterUnits="userSpaceOnUse" color-interpolation-filters="sRGB">
<feFlood flood-opacity="0" result="BackgroundImageFix"/>
<feColorMatrix in="SourceAlpha" type="matrix" values="0 0 0 0 0 0 0 0 0 0 0 0 0 0 0 0 0 0 127 0"/>
<feOffset/>
<feGaussianBlur stdDeviation="1.5"/>
<feColorMatrix type="matrix" values="0 0 0 0 0 0 0 0 0 0 0 0 0 0 0 0 0 0 0.3 0"/>
<feBlend mode="normal" in2="BackgroundImageFix" result="effect1_dropShadow"/>
<feBlend mode="normal" in="SourceGraphic" in2="effect1_dropShadow" result="shape"/>
</filter>
</defs>
</svg>
