<svg width="19" height="20" viewBox="0 0 19 20" fill="none" xmlns="http://www.w3.org/2000/svg">
<path fill-rule="evenodd" clip-rule="evenodd" d="M13.7157 0C14.3377 0 14.934 0.248353 15.3694 0.687262L18.3153 3.63316C18.7539 4.07176 19.0003 4.66663 19.0003 5.28691C19.0003 5.90718 18.7539 6.50205 18.3153 6.94065L7.55975 17.6928C6.89618 18.4583 5.95555 18.9286 4.87794 19.0025H0V18.0525L0.00308531 14.0482C0.0840176 13.0464 0.549742 12.1149 1.26019 11.4889L12.0608 0.688407C12.4988 0.247792 13.0944 0 13.7157 0ZM4.81103 17.105C5.31855 17.0691 5.79098 16.8329 6.17032 16.399L13.354 9.21529L9.78729 5.64844L2.56151 12.8725C2.17661 13.2129 1.9385 13.6892 1.9002 14.1248V17.1032L4.81103 17.105ZM11.131 4.30507L14.6975 7.87176L16.972 5.5973C17.0543 5.51502 17.1005 5.40343 17.1005 5.28708C17.1005 5.17072 17.0543 5.05914 16.972 4.97686L14.0235 2.02832C13.9421 1.94632 13.8314 1.9002 13.7159 1.9002C13.6004 1.9002 13.4896 1.94632 13.4083 2.02832L11.131 4.30507Z" fill="#F9B84E"/>
</svg>
