<svg width="15" height="15" viewBox="0 0 15 15" fill="none" xmlns="http://www.w3.org/2000/svg">
<path fill-rule="evenodd" clip-rule="evenodd" d="M10.1664 0C10.6274 0 11.0694 0.184085 11.3922 0.509415L13.5758 2.69298C13.9009 3.01808 14.0835 3.45902 14.0835 3.91878C14.0835 4.37854 13.9009 4.81947 13.5758 5.14457L5.60346 13.1143C5.11161 13.6817 4.41439 14.0303 3.61565 14.0851H0V13.3809L0.00228691 10.4128C0.0622758 9.67029 0.407481 8.97985 0.934083 8.51586L8.93975 0.510264C9.26437 0.183669 9.70586 0 10.1664 0ZM3.56604 12.6788C3.94223 12.6521 4.2924 12.477 4.57358 12.1554L9.89839 6.8306L7.25466 4.18677L1.89865 9.54149C1.61335 9.79382 1.43685 10.1468 1.40847 10.4698V12.6774L3.56604 12.6788ZM8.25063 3.19103L10.8942 5.83475L12.58 4.14896C12.641 4.08798 12.6753 4.00526 12.6753 3.91902C12.6753 3.83277 12.641 3.75006 12.58 3.68908L10.3945 1.50355C10.3342 1.44277 10.2521 1.40859 10.1665 1.40859C10.0809 1.40859 9.99883 1.44277 9.93852 1.50355L8.25063 3.19103Z" fill="#112C45"/>
</svg>
