<svg width="40" height="40" viewBox="0 0 40 40" fill="none" xmlns="http://www.w3.org/2000/svg">
<g filter="url(#filter0_d)">
<circle cx="20" cy="20" r="17" fill="#F9B84E"/>
</g>
<path fill-rule="evenodd" clip-rule="evenodd" d="M18.5513 22.125V23.875H15.0702C12.667 23.875 10.7189 21.9162 10.7189 19.5C10.7189 17.0838 12.667 15.125 15.0702 15.125H18.5513V16.875H15.0702C13.6283 16.875 12.4594 18.0503 12.4594 19.5C12.4594 20.9497 13.6283 22.125 15.0702 22.125H18.5513ZM22.0324 16.875V15.125H25.5135C27.9166 15.125 29.8648 17.0838 29.8648 19.5C29.8648 21.9162 27.9166 23.875 25.5135 23.875H22.0324V22.125H25.5135C26.9554 22.125 28.1243 20.9497 28.1243 19.5C28.1243 18.0503 26.9554 16.875 25.5135 16.875H22.0324ZM24.6432 18.625H15.9405V20.375H24.6432V18.625Z" fill="white"/>
<defs>
<filter id="filter0_d" x="0" y="0" width="40" height="40" filterUnits="userSpaceOnUse" color-interpolation-filters="sRGB">
<feFlood flood-opacity="0" result="BackgroundImageFix"/>
<feColorMatrix in="SourceAlpha" type="matrix" values="0 0 0 0 0 0 0 0 0 0 0 0 0 0 0 0 0 0 127 0"/>
<feOffset/>
<feGaussianBlur stdDeviation="1.5"/>
<feColorMatrix type="matrix" values="0 0 0 0 0 0 0 0 0 0 0 0 0 0 0 0 0 0 0.2 0"/>
<feBlend mode="normal" in2="BackgroundImageFix" result="effect1_dropShadow"/>
<feBlend mode="normal" in="SourceGraphic" in2="effect1_dropShadow" result="shape"/>
</filter>
</defs>
</svg>
