<svg width="18" height="19" viewBox="0 0 18 19" fill="none" xmlns="http://www.w3.org/2000/svg">
<path fill-rule="evenodd" clip-rule="evenodd" d="M6.04541 0H11.2272C12.1812 0 12.9545 0.773326 12.9545 1.72727V2.59093H15.5455C16.4994 2.59093 17.2727 3.36426 17.2727 4.3182V6.04548C17.2727 6.99942 16.4994 7.77275 15.5455 7.77275H15.4762L14.6818 17.2727C14.6818 18.2267 13.9085 19 12.9545 19H4.31817C3.36422 19 2.59089 18.2267 2.59388 17.3445L1.79624 7.77275H1.72727C0.773326 7.77275 0 6.99942 0 6.04548V4.3182C0 3.36426 0.773326 2.59093 1.72727 2.59093H4.31814V1.72727C4.31814 0.773326 5.09147 0 6.04541 0ZM4.31799 17.2728L3.52905 7.77284H13.743L12.9573 17.2011L12.9544 17.2728H4.31799ZM1.72721 6.04552V4.31825H15.5454V6.04552H1.72721ZM11.2272 1.72721V2.59085H6.04535V1.72721H11.2272ZM5.4349 10.1107L6.65627 8.88932L8.63649 10.8695L10.6167 8.88932L11.8381 10.1107L9.85786 12.0909L11.8381 14.0711L10.6167 15.2925L8.63649 13.3123L6.65627 15.2925L5.4349 14.0711L7.41513 12.0909L5.4349 10.1107Z" fill="#F9B84E"/>
</svg>
