<svg width="24" height="24" viewBox="0 0 24 24" fill="none" xmlns="http://www.w3.org/2000/svg">
<path fill-rule="evenodd" clip-rule="evenodd" d="M14.882 6.99997H9.11803L10.8944 3.44719C11.1414 2.95321 10.9412 2.35254 10.4472 2.10555C9.95323 1.85856 9.35256 2.05878 9.10557 2.55276L6.88197 6.99997H4C2.89543 6.99997 2 7.89541 2 8.99997V11C2 11.8398 2.51767 12.5588 3.25134 12.8551C3.23767 13.0445 3.25095 13.239 3.29424 13.4338L4.8498 20.4338C5.05315 21.3489 5.86477 22 6.80217 22H17.1978C18.1352 22 18.9469 21.3489 19.1502 20.4338L20.7058 13.4338C20.7374 13.2914 20.7534 13.1459 20.7534 13C20.7534 12.9513 20.7516 12.9031 20.7482 12.8553C21.4821 12.5591 22 11.84 22 11V8.99997C22 7.89541 21.1046 6.99997 20 6.99997H17.118L14.8944 2.55276C14.6474 2.05878 14.0468 1.85856 13.5528 2.10555C13.0588 2.35254 12.8586 2.95321 13.1056 3.44719L14.882 6.99997Z" fill="#112C45"/>
<line x1="8" y1="11" x2="8" y2="17" stroke="white" stroke-width="2" stroke-linecap="round"/>
<line x1="12" y1="11" x2="12" y2="17" stroke="white" stroke-width="2" stroke-linecap="round"/>
<line x1="16" y1="11" x2="16" y2="17" stroke="white" stroke-width="2" stroke-linecap="round"/>
</svg>
