<svg width="17" height="22" viewBox="0 0 17 22" fill="none" xmlns="http://www.w3.org/2000/svg">
<path d="M5.90228 19.2979C5.90224 19.3036 5.90186 19.3093 5.90186 19.315C5.90186 20.7499 7.06508 21.9131 8.49998 21.9131C9.93489 21.9131 11.0981 20.7499 11.0981 19.315C11.0981 19.3093 11.0977 19.3036 11.0977 19.2979H5.90228Z" fill="#112C45"/>
<path d="M16.7952 16.0502L14.4569 12.6152C14.4569 11.5637 14.4569 8.99443 14.4569 8.32979C14.4569 5.4397 12.3987 3.03063 9.66812 2.48774V1.16809C9.66807 0.523003 9.14512 0 8.49999 0C7.85486 0 7.3319 0.523003 7.3319 1.16809V2.48778C4.60134 3.03073 2.54311 5.4398 2.54311 8.32984C2.54311 9.46124 2.54311 11.9595 2.54311 12.6153L0.204785 16.0502C-0.0415217 16.412 -0.0675692 16.8804 0.13709 17.2673C0.34175 17.6542 0.743532 17.8961 1.18124 17.8961H15.8187C16.2564 17.8961 16.6582 17.6541 16.8629 17.2673C17.0676 16.8803 17.0415 16.412 16.7952 16.0502Z" fill="#112C45"/>
</svg>
