<svg width="20" height="16" viewBox="0 0 20 16" fill="none" xmlns="http://www.w3.org/2000/svg">
<path d="M7.70906 9.79837C10.2441 9.79837 12.3024 7.74002 12.3024 5.22668C12.3024 2.69168 10.2441 0.65505 7.70906 0.65505C5.17406 0.65505 3.11573 2.71335 3.11573 5.22668C3.1374 7.74002 5.19573 9.79837 7.70906 9.79837ZM7.70906 2.3667C9.29073 2.3667 10.5691 3.64505 10.5691 5.20505C10.5691 6.76505 9.29073 8.04335 7.70906 8.04335C6.12739 8.04335 4.84907 6.76505 4.84907 5.20505C4.87073 3.64505 6.14906 2.3667 7.70906 2.3667ZM9.78906 10.21C9.55073 10.145 9.29073 10.1667 9.07407 10.2967L7.70906 11.12L6.34406 10.2967C6.1274 10.1667 5.86739 10.145 5.62906 10.21C4.30739 10.6217 0.0390625 12.16 0.0390625 14.5C0.0390625 14.9767 0.429062 15.3667 0.905729 15.3667H14.5124C14.9891 15.3667 15.3791 14.9767 15.3791 14.5C15.3791 12.1817 11.1107 10.6434 9.78906 10.21ZM2.48739 13.6334C3.22406 13.07 4.45906 12.4633 5.8024 11.9867L7.27573 12.875C7.55739 13.0484 7.90406 13.0484 8.16406 12.875L9.63739 11.9867C10.9807 12.4417 12.2157 13.07 12.9524 13.6334H2.48739ZM19.7557 12.9834C19.7557 13.3517 19.4741 13.6334 19.1057 13.6334H16.2024C15.8341 13.6334 15.5524 13.3517 15.5524 12.9834C15.5524 12.615 15.8341 12.3334 16.2024 12.3334H18.1307C17.8057 11.9 17.2857 11.5534 16.6357 11.2067C16.3107 11.0334 16.2024 10.6434 16.3757 10.34C16.5491 10.015 16.9391 9.90672 17.2641 10.08C18.1957 10.5784 19.7557 11.64 19.7557 12.9834ZM16.1157 7.26338C16.1157 6.31005 15.3357 5.55168 14.4041 5.55168C14.1657 5.55168 13.9491 5.59504 13.7324 5.68171C13.4074 5.81171 13.0174 5.66002 12.8874 5.33502C12.7574 5.01002 12.9091 4.62004 13.2341 4.49004C13.6024 4.33837 13.9924 4.25168 14.4041 4.25168C16.0724 4.25168 17.4157 5.59505 17.4157 7.26338C17.4157 8.93172 16.0507 10.275 14.4041 10.275C13.5374 10.275 12.7141 9.90671 12.1507 9.25671C11.9124 8.99671 11.9341 8.58505 12.2157 8.34672C12.4757 8.10838 12.8874 8.13001 13.1257 8.41167C13.4507 8.78001 13.9274 8.99672 14.4257 8.99672C15.3357 8.97505 16.1157 8.19505 16.1157 7.26338Z" fill="#8274AC"/>
</svg>
