<svg width="24" height="24" viewBox="0 0 24 24" fill="none" xmlns="http://www.w3.org/2000/svg">
<path d="M20.4033 12.5999C20.2033 12.5999 20.0033 12.5199 19.8433 12.3799L12.0033 4.71992L4.16334 12.3799C3.84334 12.6799 3.34334 12.6799 3.02334 12.3599C2.72334 12.0399 2.72334 11.5399 3.04334 11.2199L11.4433 3.01992C11.7633 2.71992 12.2433 2.71992 12.5633 3.01992L20.9633 11.2199C21.2833 11.5199 21.2833 12.0399 20.9833 12.3599C20.8233 12.5199 20.6033 12.5999 20.4033 12.5999ZM18.6433 20.3999V12.5799C18.6433 12.1399 18.2833 11.7799 17.8433 11.7799C17.4033 11.7799 17.0433 12.1399 17.0433 12.5799V19.5999H14.5433V15.3199C14.5433 14.7399 14.0633 14.2599 13.4833 14.2599H10.5033C9.92334 14.2599 9.44334 14.7399 9.44334 15.3199V19.5999H6.94334V12.5799C6.94334 12.1399 6.58334 11.7799 6.14334 11.7799C5.70334 11.7799 5.34334 12.1399 5.34334 12.5799V20.3999C5.34334 20.8399 5.70334 21.1999 6.14334 21.1999H10.2433C10.6833 21.1999 11.0433 20.8399 11.0433 20.3999V15.8599H12.9433V20.3999C12.9433 20.8399 13.3033 21.1999 13.7433 21.1999H17.8433C18.3033 21.1999 18.6433 20.8399 18.6433 20.3999Z" fill="#8274AC"/>
</svg>
