<svg width="24" height="24" viewBox="0 0 24 24" fill="none" xmlns="http://www.w3.org/2000/svg">
<path d="M19.6196 17.1C18.2796 17.1 17.7596 16.32 17.7596 11.42C17.7596 7.58001 16.0196 5.18001 13.0196 4.82001V3.59999C13.0196 3.15999 12.6596 2.79999 12.2196 2.79999C11.7796 2.79999 11.4196 3.15999 11.4196 3.59999V4.79999C8.21961 5.05999 6.35961 7.50001 6.35961 11.42C6.35961 16.32 5.77961 17.1 4.41961 17.1C3.97961 17.1 3.59961 17.4 3.59961 17.86C3.59961 18.3 3.93961 18.62 4.37961 18.62H9.57961C9.63961 19.22 9.81961 19.96 10.2996 20.48C10.7196 20.94 11.2796 21.2 11.9396 21.2C12.5996 21.2 13.1596 20.92 13.5796 20.48C14.0796 19.94 14.2796 19.22 14.3596 18.62H19.6196C20.0596 18.62 20.4196 18.32 20.4196 17.86C20.4196 17.4 20.0596 17.1 19.6196 17.1ZM12.4596 19.38C12.3796 19.46 12.2596 19.58 11.9796 19.58C11.7196 19.58 11.5996 19.46 11.5196 19.38C11.3596 19.2 11.2796 19 11.2196 18.6H11.8996C11.9396 18.6 11.9796 18.6 12.0196 18.6C12.0596 18.6 12.0996 18.6 12.1396 18.6H12.7996C12.7396 19 12.6396 19.2 12.4596 19.38ZM12.1396 17C12.0996 17 12.0596 17 12.0196 17C11.9796 17 11.9396 17 11.8996 17H7.17961C7.91961 15.6 7.91961 13.42 7.91961 11.38C7.91961 8.11997 9.33961 6.39999 11.8996 6.39999H12.1196C14.6796 6.39999 16.0996 8.11997 16.0996 11.38C16.0996 13.42 16.0996 15.6 16.8396 17H12.1396ZM14.9796 9.89999C14.9996 10.28 14.6996 10.62 14.3196 10.64C14.2996 10.64 14.2996 10.64 14.2796 10.64C13.9196 10.64 13.5996 10.36 13.5796 9.97997C13.5196 9.07997 12.8196 8.76001 12.7396 8.72001C12.3796 8.56001 12.2196 8.15999 12.3596 7.79999C12.4996 7.43999 12.8996 7.28001 13.2596 7.42001C13.3396 7.46001 14.8796 8.09999 14.9796 9.89999Z" fill="#8274AC"/>
</svg>
