<svg width="24" height="24" viewBox="0 0 24 24" fill="none" xmlns="http://www.w3.org/2000/svg">
<path d="M18.7659 7.83999C18.6059 7.67999 18.4059 7.6 18.2059 7.6H16.2059V7.23999C16.2059 4.89999 14.2859 3 12.0459 3H11.9659C9.72586 3 7.80586 4.89999 7.80586 7.23999V7.6H5.80586C5.36586 7.6 5.00586 7.97999 5.00586 8.43999V20.2C5.00586 20.64 5.36586 21 5.80586 21H18.2059C18.6459 21 19.0059 20.64 19.0059 20.2V8.42002C19.0059 8.22002 18.9259 7.99999 18.7659 7.83999ZM9.40586 7.23999C9.40586 5.77999 10.6059 4.6 11.9659 4.6H12.0459C13.4059 4.6 14.6059 5.77999 14.6059 7.23999V7.6H9.40586V7.23999V7.23999ZM17.4059 19.4H6.60586V9.2H7.80586V10.58C7.80586 11.02 8.16586 11.38 8.60586 11.38C9.04586 11.38 9.40586 11.02 9.40586 10.58V9.2H14.6059V10.58C14.6059 11.02 14.9659 11.38 15.4059 11.38C15.8459 11.38 16.2059 11.02 16.2059 10.58V9.2H17.4059V19.4Z" fill="#8274AC"/>
</svg>
