<svg width="24" height="24" viewBox="0 0 24 24" fill="none" xmlns="http://www.w3.org/2000/svg">
<path d="M9.78703 10.9399H4.32703C3.70703 10.9399 3.20703 10.4399 3.20703 9.8199V5.5199C3.20703 4.8999 3.70703 4.3999 4.32703 4.3999H9.78703C10.407 4.3999 10.907 4.8999 10.907 5.5199V9.8199C10.907 10.4399 10.407 10.9399 9.78703 10.9399ZM4.80703 9.33989H9.30703V5.9999H4.80703V9.33989ZM19.687 10.9399H14.227C13.607 10.9399 13.107 10.4399 13.107 9.8199V5.5199C13.107 4.8999 13.607 4.3999 14.227 4.3999H19.687C20.307 4.3999 20.807 4.8999 20.807 5.5199V9.8199C20.807 10.4399 20.307 10.9399 19.687 10.9399ZM14.707 9.33989H19.207V5.9999H14.707V9.33989ZM9.78703 19.5999H4.32703C3.70703 19.5999 3.20703 19.0999 3.20703 18.4799V14.1799C3.20703 13.5599 3.70703 13.0599 4.32703 13.0599H9.78703C10.407 13.0599 10.907 13.5599 10.907 14.1799V18.4799C10.907 19.0999 10.407 19.5999 9.78703 19.5999ZM4.80703 17.9999H9.30703V14.6599H4.80703V17.9999ZM19.687 19.5999H14.227C13.607 19.5999 13.107 19.0999 13.107 18.4799V14.1799C13.107 13.5599 13.607 13.0599 14.227 13.0599H19.687C20.307 13.0599 20.807 13.5599 20.807 14.1799V18.4799C20.807 19.0999 20.307 19.5999 19.687 19.5999ZM14.707 17.9999H19.207V14.6599H14.707V17.9999Z" fill="#381A56"/>
</svg>
