<svg width="24" height="24" viewBox="0 0 24 24" fill="none" xmlns="http://www.w3.org/2000/svg">
<g clip-path="url(#clip0)">
<path d="M23.4791 10.9235C23.9515 10.4631 24.1182 9.78743 23.9145 9.15932C23.7102 8.53121 23.1782 8.08283 22.5246 7.98768L16.7135 7.1433C16.466 7.10726 16.2521 6.95203 16.1416 6.7276L13.5436 1.4624C13.2519 0.870815 12.6598 0.503174 12 0.503174C11.3406 0.503174 10.7486 0.870815 10.4569 1.4624L7.85839 6.72808C7.74786 6.95251 7.53352 7.10774 7.28602 7.14378L1.47489 7.98816C0.821786 8.08283 0.289307 8.53169 0.0850615 9.1598C-0.118703 9.78791 0.048057 10.4636 0.520464 10.924L4.72503 15.0224C4.90428 15.1973 4.98646 15.4491 4.94417 15.6952L3.95226 21.4823C3.86432 21.9917 3.99792 22.4872 4.32759 22.8779C4.83989 23.4868 5.73424 23.6723 6.44934 23.2964L11.6463 20.5639C11.8635 20.45 12.137 20.451 12.3537 20.5639L17.5511 23.2964C17.8039 23.4296 18.0735 23.4968 18.3518 23.4968C18.8598 23.4968 19.3413 23.271 19.6724 22.8779C20.0026 22.4872 20.1357 21.9907 20.0477 21.4823L19.0553 15.6952C19.0131 15.4486 19.0952 15.1973 19.2745 15.0224L23.4791 10.9235Z" fill="#112C45"/>
</g>
<defs>
<clipPath id="clip0">
<rect width="24" height="24" fill="white"/>
</clipPath>
</defs>
</svg>
