<svg width="20" height="20" viewBox="0 0 20 20" fill="none" xmlns="http://www.w3.org/2000/svg">
<path fill-rule="evenodd" clip-rule="evenodd" d="M9.99967 19.1666C4.93706 19.1666 0.833008 15.0625 0.833008 9.99992C0.833008 4.93731 4.93706 0.833252 9.99967 0.833252C15.0623 0.833252 19.1663 4.93731 19.1663 9.99992C19.1663 15.0625 15.0623 19.1666 9.99967 19.1666ZM9.99967 17.4999C14.1418 17.4999 17.4997 14.1421 17.4997 9.99992C17.4997 5.85778 14.1418 2.49992 9.99967 2.49992C5.85754 2.49992 2.49967 5.85778 2.49967 9.99992C2.49967 14.1421 5.85754 17.4999 9.99967 17.4999ZM14.1663 9.16658H10.833V5.83325H9.16634V9.16658H5.83301V10.8333H9.16634V14.1666H10.833V10.8333H14.1663V9.16658Z" fill="#381A56"/>
</svg>
