<svg width="16" height="16" viewBox="0 0 16 16" fill="none" xmlns="http://www.w3.org/2000/svg">
<g id="24 / notifications / info">
<path id="icon" fill-rule="evenodd" clip-rule="evenodd" d="M0.666656 8.00008C0.666656 12.0502 3.9499 15.3334 7.99999 15.3334C12.0501 15.3334 15.3333 12.0502 15.3333 8.00008C15.3333 3.94999 12.0501 0.666748 7.99999 0.666748C3.9499 0.666748 0.666656 3.94999 0.666656 8.00008ZM14 8.00008C14 11.3138 11.3137 14.0001 7.99999 14.0001C4.68628 14.0001 1.99999 11.3138 1.99999 8.00008C1.99999 4.68637 4.68628 2.00008 7.99999 2.00008C11.3137 2.00008 14 4.68637 14 8.00008ZM8.66907 9.33231H9.3353V10.6656H6.66863V9.33231H7.3353V7.99898H6.66863V6.66565H8.66907V9.33231ZM8.6671 5.33231C8.6671 5.7005 8.36852 5.99898 8.00021 5.99898C7.6319 5.99898 7.33332 5.7005 7.33332 5.33231C7.33332 4.96412 7.6319 4.66565 8.00021 4.66565C8.36852 4.66565 8.6671 4.96412 8.6671 5.33231Z" fill="#333333"/>
</g>
</svg>
