<svg width="143" height="27" viewBox="0 0 143 27" fill="none" xmlns="http://www.w3.org/2000/svg">
<path d="M138.983 13.1028C138.983 11.6798 137.998 10.5852 136.648 10.5852C135.261 10.5852 134.276 11.6433 134.276 13.1028C134.276 14.5623 135.261 15.6205 136.648 15.6205C138.034 15.584 138.983 14.5258 138.983 13.1028ZM130.591 13.1028C130.591 9.81893 133.145 7.37426 136.648 7.37426C140.15 7.37426 142.705 9.81893 142.705 13.1028C142.705 16.3867 140.15 18.8314 136.648 18.8314C133.145 18.8314 130.591 16.3867 130.591 13.1028ZM123.22 14.8542C121.907 14.8542 120.921 13.8691 120.921 12.4825C120.921 11.096 121.87 10.1473 123.22 10.1473C124.57 10.1473 125.519 11.1325 125.519 12.519C125.555 13.8691 124.57 14.8542 123.22 14.8542ZM127.708 7.5567H126.723C126.066 7.5567 125.738 7.92157 125.738 8.54186V8.57835C124.862 7.84859 123.731 7.37426 122.417 7.37426C119.498 7.37426 117.273 9.56352 117.273 12.4825C117.273 15.438 119.498 17.6273 122.417 17.6273C123.512 17.6273 124.534 17.2989 125.336 16.7516V17.8462C125.336 19.3057 124.023 19.926 122.673 19.926C121.286 19.926 120.119 19.2693 119.535 18.7219C118.988 18.2841 118.586 18.3935 118.221 18.7584L117.601 19.4882C117.163 19.999 117.309 20.4369 117.637 20.8017C118.696 21.8599 120.301 22.6626 122.6 22.6626C126.066 22.6626 128.73 20.8747 128.73 17.153V8.54186C128.73 7.92157 128.328 7.5567 127.708 7.5567ZM115.412 12.1177V17.5178C115.412 18.1381 115.047 18.503 114.427 18.503H112.639C111.982 18.503 111.654 18.1381 111.654 17.5178V12.3731C111.654 11.3149 111.033 10.5487 109.902 10.5487C108.88 10.5487 108.151 11.2784 108.151 12.3731V17.5178C108.151 18.1381 107.786 18.503 107.166 18.503H105.378C104.757 18.503 104.392 18.1381 104.392 17.5178V10.9865C104.392 10.8041 104.319 10.6946 104.174 10.6946C103.955 10.6946 103.699 10.8771 103.444 10.8771C103.261 10.9136 103.006 10.8041 102.896 10.2568L102.605 8.83377C102.459 8.24996 102.568 7.99455 103.042 7.73913C103.517 7.48372 104.174 7.37426 104.684 7.37426C105.888 7.37426 107.093 7.88509 107.457 9.23513C108.151 8.1405 109.245 7.37426 110.924 7.37426C113.587 7.37426 115.412 9.30811 115.412 12.1177ZM95.5624 15.584C94.1759 15.584 93.1907 14.5259 93.1907 13.0663C93.1907 11.6068 94.1759 10.5487 95.5624 10.5487C96.9489 10.5487 97.8976 11.6068 97.8976 13.0663C97.8976 14.5259 96.9489 15.584 95.5624 15.584ZM95.5624 18.7949C99.1017 18.7949 101.619 16.3502 101.619 13.0663C101.619 9.78245 99.0652 7.33777 95.5624 7.33777C92.0231 7.33777 89.5055 9.78245 89.5055 13.0663C89.5055 16.3867 92.0596 18.7949 95.5624 18.7949ZM84.5431 13.1028C84.5431 11.6798 83.5944 10.5852 82.2079 10.5852C80.8943 10.5852 79.8727 11.5703 79.8727 13.1028C79.8727 14.6353 80.8943 15.6205 82.2079 15.6205C83.558 15.584 84.5431 14.4894 84.5431 13.1028ZM88.2284 13.1028C88.2284 16.3137 85.9296 18.8314 82.7917 18.8314C81.7336 18.8314 80.8214 18.5395 80.0186 18.0652V21.7139C80.0186 22.3342 79.6538 22.6991 79.0335 22.6991H77.2456C76.6253 22.6991 76.2604 22.3342 76.2604 21.7139V8.61484C76.2604 7.99455 76.6253 7.62966 77.2456 7.62966H78.3037C78.924 7.62966 79.2889 7.99455 79.2889 8.61484V8.76079C80.2376 7.95806 81.4052 7.44723 82.7917 7.44723C85.9296 7.37425 88.2284 9.85542 88.2284 13.1028ZM68.671 9.96489C69.2912 9.96489 69.8021 10.1838 70.2034 10.5852C70.4953 10.8771 70.7143 11.3149 70.8237 11.8622H66.5912C66.7006 10.6581 67.5033 9.96489 68.671 9.96489ZM66.5182 13.9056H73.4509C74.2536 13.9056 74.436 13.6137 74.436 12.8474C74.436 11.3514 73.8522 9.92839 72.8306 8.90673C71.8819 7.95805 70.4589 7.37426 68.7074 7.37426C65.2776 7.37426 62.8694 9.78245 62.8694 13.0663C62.8694 16.4597 65.4235 18.7949 68.8899 18.7949C70.6048 18.7949 72.5751 18.2111 73.5603 17.1895C73.8157 16.8976 73.9982 16.5327 73.5238 16.0948L72.7941 15.3286C72.3927 14.8907 72.0643 15.0367 71.6629 15.3651C70.8967 15.9124 70.1305 16.1313 69.3277 16.1313C67.9047 16.1313 66.7006 15.3651 66.5182 13.9056ZM61.8477 18.0652C61.191 18.5395 60.1693 18.8314 59.0747 18.8314C56.8854 18.8314 54.8056 17.5908 54.8056 14.5988V10.2933H53.8569C53.2002 10.2933 52.8718 9.92839 52.8718 9.3081V8.57835C52.8718 7.92157 53.2366 7.59319 53.8569 7.59319H54.8056V5.07553C54.8056 4.45524 55.1705 4.19982 55.7908 4.09036L57.5422 3.79846C58.199 3.65251 58.5274 4.12685 58.5274 4.78363V7.62966H60.6801C61.3004 7.62966 61.6653 7.99455 61.6653 8.61484V9.34459C61.6653 9.96488 61.3004 10.3298 60.6801 10.3298H58.5274V14.2339C58.5274 15.2921 59.0747 15.657 59.7315 15.657C60.0599 15.657 60.3882 15.511 60.6072 15.3651C61.1545 15.0002 61.4099 15.2921 61.5923 15.6935L62.2126 17.1165C62.5045 17.5543 62.1396 17.8462 61.8477 18.0652ZM46.5959 9.96489C47.2162 9.96489 47.727 10.1838 48.1284 10.5852C48.4203 10.8771 48.6392 11.3149 48.7487 11.8622H44.5161C44.662 10.6581 45.4648 9.96489 46.5959 9.96489ZM44.4796 13.9056H51.4123C52.215 13.9056 52.3974 13.6137 52.3974 12.8474C52.3974 11.3514 51.8136 9.92839 50.792 8.90673C49.8433 7.95805 48.4203 7.37426 46.6688 7.37426C43.239 7.37426 40.8308 9.78245 40.8308 13.0663C40.8308 16.4597 43.385 18.7949 46.8513 18.7949C48.5662 18.7949 50.5366 18.2111 51.5217 17.1895C51.7771 16.8976 51.9596 16.5327 51.4852 16.0948L50.7555 15.3286C50.3541 14.8907 50.0257 15.0367 49.6244 15.3651C48.8581 15.9124 48.0919 16.1313 47.2891 16.1313C45.8661 16.1313 44.662 15.3651 44.4796 13.9056ZM39.7727 18.5395H37.401C36.7442 18.5395 36.3428 18.1746 35.905 17.5543L33.8252 14.4529L33.1319 15.2556V17.5178C33.1319 18.1381 32.767 18.503 32.1467 18.503H30.3953C29.775 18.503 29.4102 18.1381 29.4102 17.5178V4.34577C29.4102 3.72548 29.775 3.47007 30.3953 3.36061L32.1467 3.03221C32.8035 2.88626 33.1684 3.39709 33.1684 4.01738V11.9717L35.905 8.50538C36.3793 7.92158 36.7442 7.52021 37.401 7.52021H39.6267C40.247 7.52021 40.6484 7.92158 40.1375 8.50538L36.7077 12.5555L40.32 17.4814C40.8308 18.1381 40.393 18.5395 39.7727 18.5395Z" fill="#381A56"/>
<path d="M4.63395 0.00365419C4.63395 0.00365419 0 -0.288244 0 4.3457V23.3193C0 23.3193 1.43051e-06 27.9533 4.48799 26.8221L16.8938 23.6477C16.8938 23.6477 21.3818 22.4801 21.3818 17.8462V5.73223C21.3818 5.73223 21.3818 1.09829 16.7479 0.769899L4.63395 0.00365419Z" fill="#381A56"/>
<path d="M18.9728 15.2555C18.8634 15.146 18.7174 15.0366 18.5715 14.9636C17.4039 14.1609 16.2727 13.3217 15.1051 12.5189C14.9227 12.373 14.7038 12.3 14.5943 12.0446C14.6308 11.8986 14.6673 11.7527 14.7038 11.6067C15.0686 10.2567 15.4335 8.94313 15.7984 7.59309C15.8714 7.33767 15.9079 7.08226 15.9079 6.86333C15.9079 6.60792 15.6889 6.46197 15.4335 6.46197C15.3241 6.46197 15.2146 6.49845 15.1416 6.53493C14.5943 6.75386 14.047 6.97279 13.4997 7.19172C13.1713 7.33767 12.9159 7.5566 12.8064 7.88498C12.6969 8.21337 12.5875 8.54177 12.5145 8.83367C12.2226 10.0013 11.9307 11.1689 11.6023 12.3C11.5658 12.4095 11.4928 12.5189 11.4199 12.6649C11.3104 12.373 11.2009 12.1541 11.128 11.9716C10.3982 10.0378 9.66845 8.06742 8.9387 6.13357C8.82923 5.80518 8.68328 5.47679 8.57382 5.14841C8.28192 4.38216 7.77109 4.16324 7.04134 4.60109C5.69129 5.40382 4.30476 6.17006 2.91822 6.9363C2.80876 7.00928 2.6993 7.04577 2.58983 7.15523C2.29793 7.41064 2.22496 7.66605 2.48037 7.99444C2.77227 8.35932 3.06418 8.68772 3.35608 9.0526C3.39257 9.08908 3.42905 9.12557 3.50203 9.16206C3.68447 9.30801 3.86691 9.3445 4.08583 9.23504C4.41422 9.0526 4.70612 8.87016 5.03451 8.68772C5.25344 8.54177 5.50885 8.4323 5.76427 8.28635C5.83724 8.4323 5.91022 8.57826 5.98319 8.68772C6.23861 9.30801 6.45754 9.89181 6.71295 10.5121C7.58865 12.7379 8.46436 14.9636 9.34007 17.2258C9.41304 17.4083 9.41304 17.5907 9.63197 17.7002C9.77792 17.5907 9.92387 17.5177 10.0698 17.4448C11.128 16.861 12.3321 17.2258 12.8429 18.3205C12.9159 18.5029 12.9524 18.6854 13.0253 18.8678C13.0618 18.9408 13.0253 19.0502 13.1713 19.0502C13.2078 19.0137 13.2807 18.9773 13.3172 18.9408C13.5362 18.6489 13.5362 18.3205 13.3902 17.9921C13.1713 17.4083 12.9523 16.861 12.7334 16.2772C12.6969 16.1312 12.624 15.9853 12.624 15.8393C12.6969 15.5474 12.7334 15.219 12.9523 14.9636C13.1348 15.0731 13.2443 15.146 13.3902 15.2555C14.047 15.7299 14.6673 16.2042 15.3241 16.6785C15.5065 16.788 15.6524 16.9339 15.8349 17.0434C16.2362 17.2988 16.6741 17.3353 17.0755 17.0799C17.5863 16.8245 18.0971 16.5326 18.5715 16.2772C18.7174 16.2042 18.8269 16.1312 18.9363 16.0217C19.2282 15.7663 19.2282 15.4744 18.9728 15.2555Z" fill="white"/>
<path d="M11.6025 20.7651C12.0768 20.4367 12.2957 19.9988 12.3322 19.342C12.3322 19.1596 12.2592 18.9407 12.1498 18.7217C11.8214 18.0285 11.0186 17.846 10.3619 18.2109C9.63211 18.6123 9.34021 19.6339 9.74158 20.3637C10.1429 20.984 10.9822 21.2029 11.6025 20.7651Z" fill="white"/>
<path d="M10.5822 22.5894C10.1444 22.5894 9.74302 22.48 9.30517 22.261C7.15239 20.8745 8.24703 18.3569 8.24703 18.3569C8.28352 18.2474 8.42947 18.1744 8.53893 18.2474C8.64839 18.2839 8.72137 18.4298 8.6484 18.5393C8.61191 18.6123 7.69971 20.6921 9.5241 21.8597C10.7647 22.5165 12.1512 21.9327 12.9539 20.4367C13.0269 20.3272 13.1729 20.2907 13.2823 20.3272C13.3918 20.4002 13.4283 20.5461 13.3918 20.6556C12.735 21.8962 11.6769 22.5894 10.5822 22.5894Z" fill="white"/>
</svg>
