<svg width="123" height="112" viewBox="0 0 123 112" fill="none" xmlns="http://www.w3.org/2000/svg">
<path opacity="0.1" d="M45.1005 111.758C70.0088 111.758 90.201 111.038 90.201 110.15C90.201 109.263 70.0088 108.543 45.1005 108.543C20.1922 108.543 0 109.263 0 110.15C0 111.038 20.1922 111.758 45.1005 111.758Z" fill="#8274AC"/>
<path d="M62.9095 52.3132C62.7131 51.933 61.675 49.5707 61.675 49.5707L59.9354 45.0631C59.9354 45.0631 58.7009 43.1623 58.7009 42.8093C58.7009 42.4563 56.4563 41.0443 56.4563 41.0443C56.4563 41.0443 54.6325 40.5013 54.4922 40.447C54.3519 40.3926 52.1915 39.678 52.1915 39.678C52.1915 39.678 51.3408 38.5592 51.2196 38.8514L51.2195 38.8521C51.2151 38.8448 51.2105 38.8384 51.2061 38.8308C51.0323 38.506 50.9222 38.1509 50.8818 37.7848C50.8772 37.7523 50.8732 37.7179 50.8691 37.684C51.4294 37.3042 51.8887 36.7935 52.2071 36.1962C52.5256 35.5988 52.6936 34.9328 52.6965 34.2559C52.6961 34.0777 52.6841 33.8997 52.6606 33.723C52.6761 33.7134 52.6922 33.7049 52.7089 33.6976C52.7438 33.6824 52.7349 33.6701 52.7093 33.6572C52.7181 33.6526 52.7269 33.6477 52.7357 33.644C52.7822 33.6238 52.7512 33.6085 52.7062 33.5904L52.7089 33.589C52.7722 33.5615 52.6921 33.5433 52.6278 33.5142C52.6244 33.4954 52.6211 33.4765 52.6174 33.4578C52.6317 33.4221 52.6404 33.3843 52.6432 33.346C52.6489 33.3488 52.6541 33.3518 52.6602 33.3545C52.6758 33.2845 52.6754 33.2119 52.659 33.1421C52.655 33.1563 52.6501 33.1702 52.6444 33.1838C52.6484 33.1205 52.6354 33.0573 52.6066 33.0008C52.5779 32.9442 52.5345 32.8964 52.4811 32.8624C52.4778 32.8595 52.4743 32.8565 52.471 32.8537L52.59 31.6355C54.3446 31.5526 54.6524 28.5675 54.2522 28.4017C53.8521 28.2359 54.2522 27.8766 54.2522 27.1579C54.2522 26.4393 52.9286 25.6378 52.9286 25.6378C52.9286 25.6378 52.3745 25.9142 51.5127 24.5322C50.6508 23.1502 47.4803 22.9291 47.2648 23.2884C47.0493 23.6477 45.6334 24.1176 43.7865 24.6428C41.9396 25.1679 42.2782 27.3514 42.586 27.8213C42.8396 28.2097 42.9881 28.6573 43.0169 29.1203C43.0169 29.3967 43.6018 30.5576 43.6018 30.5576C43.4173 30.9598 43.8868 33.1634 44.0258 33.7897C44.0236 33.809 44.0213 33.8282 44.0194 33.8475C44.0182 33.8494 44.0166 33.851 44.0155 33.8529C44.0089 33.863 44.0029 33.8736 43.9975 33.8844C43.9677 33.9493 43.9578 34.0216 43.9692 34.0922C43.959 34.1693 43.9698 34.2477 44.0003 34.3192C44.0109 34.9092 44.1474 35.4902 44.4007 36.0232C44.6541 36.5562 45.0184 37.0289 45.4692 37.4097C45.4714 37.4474 45.4736 37.4853 45.4756 37.5241C45.5014 38.0357 45.516 38.6407 45.4891 39.2196C45.4877 39.2492 45.4855 39.2782 45.4839 39.3077C45.3821 39.3283 45.2865 39.3725 45.205 39.4369C45.1234 39.5012 45.0581 39.5838 45.0144 39.678C44.8404 40.0125 43.8303 40.5284 43.8303 40.5284C43.8303 40.5284 42.0627 40.6099 41.8943 40.9357C41.726 41.2616 39.1727 42.3477 39.1727 42.3477C39.1727 42.3477 37.826 43.1352 38.0224 44.0313C38.125 44.4995 37.8369 45.2269 37.5384 45.8151C36.9141 45.5783 36.2639 45.4162 35.6015 45.3321L37.0319 46.7006C37.0019 46.7473 36.9843 46.7738 36.9843 46.7738L36.1706 49.6521C36.1706 49.6521 35.89 50.6568 35.6094 50.9012C35.3289 51.1456 35.8619 53.3722 35.8619 53.3722C35.8619 53.3722 35.5533 54.9471 35.3008 55.3544C35.0483 55.7617 35.6936 56.7664 35.6936 56.7664L36.9843 59.699L40.4073 60.5679C40.4073 60.5679 40.6354 60.6162 41.004 60.6951C40.9924 60.7652 40.9805 60.8351 40.9684 60.9046C40.8035 61.8387 40.5868 62.6979 40.3231 62.9303C39.6778 63.5006 39.7058 66.053 39.7058 66.053L39.7339 69.6645C39.7339 69.6645 39.9584 74.1177 39.8461 74.2806C39.7753 74.3835 39.9174 74.5512 40.2925 74.7019C40.2818 74.7689 40.2713 74.8369 40.2614 74.9062C40.1559 75.6448 40.1088 76.4877 40.3512 76.8602C40.4564 77.0617 40.514 77.2847 40.5195 77.5119C40.5195 77.8649 41.0526 78.5981 41.0526 78.5981C41.0526 78.5981 40.6317 81.6122 41.3332 82.644C42.0346 83.6758 42.6238 85.5495 42.2871 85.9839C42.2871 85.9839 41.6979 87.2601 41.9785 87.8304C42.2591 88.4006 41.9785 88.7265 41.6138 88.8622C41.249 88.998 41.2804 90.1113 41.2804 90.1113L41.9505 95.4063C41.9505 95.4063 42.3152 96.4924 42.0066 96.8726C41.6979 97.2528 41.6979 99.1535 42.1749 99.8052C42.6519 100.457 41.5015 101.652 41.5015 101.652C41.5015 101.652 40.8001 102.656 41.9224 102.982C41.9224 102.982 42.1469 103.037 41.726 103.471C41.3051 103.905 41.221 104.449 41.5015 104.639C41.5597 104.673 41.6206 104.704 41.6835 104.729C41.6731 104.793 41.6618 104.86 41.6486 104.931C41.5408 105.498 41.3377 106.236 40.9684 106.594C40.2528 107.327 39.6352 108.15 39.1312 109.042C38.7463 109.772 38.5779 110.455 39.0044 110.775C40.0145 111.536 41.3051 111.78 42.0627 111.481C42.8202 111.183 43.8864 110.259 43.8864 110.259L44.1389 109.2C44.1389 109.2 43.9706 108.549 44.8123 108.304C45.6541 108.06 46.4397 107.191 46.4397 107.191V105.783C46.6435 105.667 46.8402 105.539 47.0289 105.399C47.0289 105.399 47.4217 104.014 47.0289 103.552C46.6361 103.091 46.4958 102.928 47.0008 102.629C47.5059 102.331 47.5743 101.679 47.204 101.109C46.8325 100.538 46.2433 99.6966 46.7483 98.5018C47.2533 97.3071 47.4385 93.6413 47.4385 93.6413C47.4385 93.6413 47.2029 91.1432 47.4385 90.5729C47.6742 90.0027 47.1692 88.8622 47.1692 88.8622C47.1692 88.8622 47.3375 87.4502 47.6462 86.7985C47.9548 86.1469 48.2073 82.6983 48.2073 82.6983C48.2073 82.6983 48.7685 81.232 48.7685 80.2816C48.7685 79.3313 47.8987 77.0503 49.1893 76.4529C49.1893 76.4529 49.7505 76.9417 49.526 78.8968C49.526 78.8968 50.1713 81.1777 50.1713 81.8837C50.1713 82.5897 50.6483 85.1422 50.6483 85.1422C50.6483 85.1422 50.7044 85.9568 50.9008 86.2555C51.0972 86.5542 50.9008 87.3688 50.9008 87.3688C50.9008 87.3688 51.6304 88.0476 51.4339 88.4821C51.2375 88.9165 51.4676 89.8963 51.4676 89.8963L51.2936 95.9765C51.2936 95.9765 50.7886 98.5833 51.967 100.158C51.967 100.158 51.5462 102.466 51.2936 102.629C51.0411 102.792 52.2196 104.204 52.2196 104.204C52.2196 104.204 51.8929 105.119 52.5563 105.164V106.675C52.7865 107.082 53.1025 107.434 53.4822 107.707C54.0994 108.141 53.8469 109.635 53.8469 109.635C53.8469 109.635 54.6325 111.536 56.7088 111.128C58.785 110.721 59.0656 110.531 58.9534 109.852C58.913 109.605 58.8232 109.162 58.6941 108.661C58.4708 107.788 58.1285 106.736 57.7189 106.217C57.0735 105.399 56.5404 103.688 56.5404 103.688C56.5404 103.688 56.2879 103.118 56.5404 102.928C56.793 102.738 56.6807 102.385 56.6807 102.385C56.6807 102.385 56.9265 101.679 56.7054 101.244C56.4843 100.81 57.1297 99.9139 57.1297 99.9139L56.9332 95.7322L57.1297 89.6497C57.1297 89.6497 56.2599 88.645 56.6246 88.0476C56.9894 87.4502 56.2037 86.6085 56.2037 86.6085C56.2037 86.6085 56.1196 86.5813 56.344 85.9025C56.4784 85.5024 56.4583 85.0666 56.2879 84.6806C56.2879 84.6806 55.8109 82.997 56.6527 81.7208C56.6527 81.7208 57.0174 80.0373 57.1297 79.1683C57.2071 78.5644 57.6919 76.3085 57.9804 74.9888C57.9967 74.9142 58.0123 74.8428 58.0273 74.7746C58.4427 74.7973 58.757 74.8237 58.757 74.8237C58.757 74.8237 58.1117 70.3433 58.757 69.4201C59.4023 68.4969 58.252 61.4369 58.252 61.4369C58.252 61.4369 57.977 60.203 57.8075 58.9442C57.7978 58.8724 57.789 58.8008 57.7801 58.7291C58.301 58.6875 58.8239 58.6759 59.3462 58.6944C60.693 58.7758 62.0117 58.2599 62.0397 57.744C62.0678 57.228 62.7973 55.1915 62.9095 54.7299C63.0218 54.2683 63.1059 52.6933 62.9095 52.3132Z" fill="url(#paint0_linear)"/>
<path d="M46.5378 104.696V107.21C46.5378 107.21 45.7808 108.075 44.9697 108.318C44.1587 108.562 44.3209 109.211 44.3209 109.211L44.0775 110.265C44.0775 110.265 43.0502 111.184 42.3202 111.482C41.5903 111.779 40.3467 111.536 39.3734 110.779C38.9624 110.46 39.1246 109.779 39.4956 109.053C39.9788 108.168 40.5738 107.348 41.2659 106.615C41.6217 106.259 41.8174 105.524 41.9212 104.959C41.998 104.537 42.0229 104.209 42.0229 104.209L46.5378 104.696Z" fill="#381A56"/>
<path opacity="0.1" d="M46.5378 106.571V107.209C46.5378 107.209 45.7808 108.074 44.9697 108.318C44.1587 108.561 44.3209 109.21 44.3209 109.21L44.0775 110.264C44.0775 110.264 43.0502 111.184 42.3202 111.481C41.5903 111.778 40.3467 111.535 39.3734 110.778C38.9624 110.459 39.1246 109.779 39.4956 109.052C39.4783 109.816 39.7043 110.673 40.8063 110.643C41.9956 110.605 43.1418 110.188 44.0775 109.453C44.0775 109.453 44.0505 107.669 45.2941 107.263C45.7487 107.113 46.1707 106.878 46.5378 106.571Z" fill="black"/>
<path d="M56.4329 111.131C54.4323 111.536 53.6753 109.644 53.6753 109.644C53.6753 109.644 53.9186 108.157 53.3238 107.724C52.956 107.45 52.6517 107.1 52.4316 106.697V104.21L54.8648 102.479L56.182 103.645L56.2707 103.723C56.2707 103.723 56.7843 105.426 57.4062 106.241C57.8009 106.758 58.1307 107.805 58.3459 108.674C58.4703 109.173 58.5568 109.614 58.5957 109.86C58.7039 110.536 58.4335 110.725 56.4329 111.131Z" fill="#381A56"/>
<path opacity="0.1" d="M56.4329 111.13C54.4323 111.535 53.6753 109.643 53.6753 109.643C53.6753 109.643 53.9186 108.156 53.3238 107.723C52.956 107.449 52.6517 107.099 52.4316 106.696V105.732C52.8177 106.14 53.5455 106.93 53.7023 107.264C53.9186 107.723 53.9456 109.4 54.9459 109.697C55.9463 109.994 57.8928 110.265 58.055 109.508C58.1225 109.22 58.22 108.94 58.3459 108.673C58.4703 109.172 58.5568 109.613 58.5957 109.859C58.7039 110.535 58.4335 110.724 56.4329 111.13Z" fill="black"/>
<path opacity="0.1" d="M42.0225 104.209L46.5375 104.696V106.025C46.0281 106.326 45.2982 106.647 44.8883 106.318C44.2827 105.833 42.4821 105.218 41.9209 104.959C41.9977 104.537 42.0225 104.209 42.0225 104.209Z" fill="black"/>
<path opacity="0.1" d="M56.2707 103.939C55.6489 103.723 54.5404 104.669 53.0805 105.264C52.8776 105.36 52.656 105.409 52.4316 105.409V104.21L54.8648 102.479L56.182 103.645C56.2023 103.746 56.232 103.844 56.2707 103.939Z" fill="black"/>
<path d="M57.8655 74.1718C57.8655 74.1718 57.78 74.5698 57.6578 75.1473C57.3799 76.4612 56.9127 78.7073 56.8381 79.3086C56.73 80.1737 56.3785 81.8499 56.3785 81.8499C55.5674 83.1206 56.027 84.7968 56.027 84.7968C56.1914 85.1824 56.2106 85.6146 56.0811 86.0134C55.8648 86.6892 55.9459 86.7163 55.9459 86.7163C55.9459 86.7163 56.7029 87.5544 56.3515 88.1492C56 88.7439 56.8381 89.7442 56.8381 89.7442L56.6489 95.8002L56.8381 99.9636C56.8381 99.9636 56.2163 100.856 56.4293 101.288C56.6424 101.721 56.4055 102.424 56.4055 102.424C56.4055 102.424 56.5137 102.775 56.2704 102.965C56.027 103.154 56.2704 103.722 56.2704 103.722C55.6486 103.505 54.5401 104.452 53.0802 105.046C51.6203 105.641 52.1069 104.235 52.1069 104.235C52.1069 104.235 50.9714 102.829 51.2147 102.667C51.4581 102.505 51.8636 100.207 51.8636 100.207C50.7281 98.6389 51.2147 96.0435 51.2147 96.0435L51.3824 89.9897C51.3824 89.9897 51.1607 89.0143 51.3499 88.5817C51.5392 88.1492 50.8362 87.4733 50.8362 87.4733C50.8362 87.4733 51.0255 86.6622 50.8362 86.3648C50.647 86.0674 50.5929 85.2564 50.5929 85.2564C50.5929 85.2564 50.1333 82.715 50.1333 82.0121C50.1333 81.3092 49.5115 79.0382 49.5115 79.0382C49.7278 77.0917 49.1871 76.605 49.1871 76.605C47.9434 77.1998 48.7815 79.4708 48.7815 80.417C48.7815 81.3633 48.2408 82.8232 48.2408 82.8232C48.2408 82.8232 47.9975 86.2567 47.7001 86.9055C47.4027 87.5544 47.2405 88.9602 47.2405 88.9602C47.2405 88.9602 47.7272 90.0957 47.5001 90.6635C47.273 91.2312 47.5001 93.7185 47.5001 93.7185C47.5001 93.7185 47.3216 97.3682 46.835 98.5578C46.3484 99.7474 46.9161 100.585 47.2741 101.153C47.6309 101.721 47.565 102.37 47.0783 102.667C46.5917 102.965 46.7269 103.127 47.1053 103.586C47.4838 104.046 47.1053 105.425 47.1053 105.425C47.1053 105.425 45.5643 106.641 44.8884 106.101C44.2126 105.56 42.0497 104.857 41.7794 104.668C41.509 104.479 41.5901 103.938 41.9957 103.505C42.4012 103.073 42.1849 103.019 42.1849 103.019C41.1035 102.694 41.7794 101.694 41.7794 101.694C41.7794 101.694 42.8878 100.504 42.4282 99.8555C41.9686 99.2066 41.9686 97.3142 42.266 96.9357C42.5634 96.5572 42.2119 95.4757 42.2119 95.4757L41.5663 90.2038C41.5663 90.2038 41.536 89.0954 41.8875 88.9602C42.239 88.825 42.5093 88.5006 42.239 87.9329C41.9686 87.3651 42.5364 86.0945 42.5364 86.0945C42.8608 85.6619 42.293 83.7964 41.6172 82.7691C40.9413 81.7418 41.3468 78.7408 41.3468 78.7408C41.3468 78.7408 40.8331 78.0109 40.8331 77.6594C40.8281 77.4337 40.7726 77.2121 40.6709 77.0106C40.4373 76.6396 40.4827 75.8004 40.5844 75.0651C40.6828 74.3535 40.8331 73.7393 40.8331 73.7393L57.8655 74.1718Z" fill="#8274AC"/>
<path d="M52.5673 43.5432L47.2414 44.7868C47.2414 44.7868 44.6189 42.5699 45.2678 41.3803C45.4905 40.9716 45.5889 40.2741 45.6225 39.5365C45.6484 38.9601 45.6344 38.3578 45.6095 37.8484C45.5717 37.112 45.5111 36.568 45.5111 36.568C45.5111 36.568 50.9722 33.486 50.783 36.568C50.7445 37.0813 50.7565 37.5971 50.8187 38.108C50.8573 38.4715 50.9633 38.8247 51.1312 39.1494C51.4232 39.6695 51.7833 39.6771 51.7833 39.6771L52.5673 43.5432Z" fill="#D58668"/>
<path opacity="0.1" d="M50.8183 38.108C50.0486 38.6601 49.1145 38.935 48.1684 38.8879C47.2223 38.8408 46.3202 38.4743 45.6091 37.8484C45.5713 37.112 45.5107 36.568 45.5107 36.568C45.5107 36.568 50.9719 33.486 50.7827 36.568C50.7442 37.0813 50.7561 37.5971 50.8183 38.108Z" fill="black"/>
<path d="M48.376 38.7833C50.6904 38.7833 52.5665 36.9072 52.5665 34.5928C52.5665 32.2785 50.6904 30.4023 48.376 30.4023C46.0617 30.4023 44.1855 32.2785 44.1855 34.5928C44.1855 36.9072 46.0617 38.7833 48.376 38.7833Z" fill="#D58668"/>
<path opacity="0.1" d="M52.5673 43.5422L47.2414 44.7859C47.2414 44.7859 44.6189 42.569 45.2678 41.3794C45.4905 40.9706 45.5889 40.2731 45.6225 39.5356C45.7401 40.1769 46.0844 40.7546 46.5925 41.1631C47.8091 41.9742 47.6199 42.9745 47.6199 42.9745L49.8097 42.8934C49.6745 42.0012 50.4856 41.5146 50.756 41.4064C51.0263 41.2983 50.8911 40.8117 50.8911 40.8117L51.1312 39.1484C51.4232 39.6686 51.7833 39.6762 51.7833 39.6762L52.5673 43.5422Z" fill="black"/>
<path opacity="0.1" d="M57.8655 74.1718C57.8655 74.1718 57.7801 74.5698 57.6579 75.1473C57.0696 75.1159 56.2921 75.0932 55.946 75.1721C55.3512 75.3073 52.9721 75.3614 52.9721 75.3614L47.0784 75.5701V75.3884C46.4004 75.3939 45.7234 75.439 45.0507 75.5236C44.0504 75.6588 42.4824 75.4695 41.4821 75.3073C41.1742 75.2632 40.8728 75.1818 40.5845 75.0651C40.6829 74.3535 40.8332 73.7393 40.8332 73.7393L57.8655 74.1718Z" fill="black"/>
<path d="M57.4064 57.0064C57.321 57.5115 57.3837 58.3485 57.4919 59.1747C57.6552 60.4281 57.9201 61.6565 57.9201 61.6565C57.9201 61.6565 59.0286 68.6858 58.4067 69.605C57.7849 70.5242 58.4067 74.985 58.4067 74.985C58.4067 74.985 56.5413 74.8228 55.9465 74.958C55.3517 75.0932 52.9726 75.1472 52.9726 75.1472L47.0789 75.3559V75.1743C46.401 75.1797 45.7239 75.2249 45.0512 75.3094C44.0509 75.4446 42.4829 75.2554 41.4826 75.0931C40.4822 74.9309 40.0767 74.6065 40.1849 74.4443C40.293 74.2821 40.0767 69.8483 40.0767 69.8483L40.0497 66.2526C40.0497 66.2526 40.0227 63.7112 40.6445 63.1435C40.8986 62.9121 41.1073 62.0567 41.2663 61.1266C41.4945 59.7803 41.6177 58.2771 41.6177 58.2771L37.5083 47.2737L37.4272 47.0574C37.4272 47.0574 38.6168 45.219 38.4276 44.3268C38.2383 43.4347 39.536 42.6506 39.536 42.6506C39.536 42.6506 41.9962 41.5692 42.1584 41.2448C42.3207 40.9204 44.0239 40.8393 44.0239 40.8393C44.0239 40.8393 44.9972 40.3256 45.1648 39.9925C45.2056 39.8995 45.268 39.8175 45.3468 39.7534C45.4256 39.6892 45.5185 39.6448 45.6179 39.6237C45.7325 40.2729 46.0787 40.8585 46.5923 41.2718C47.8089 42.0829 47.6196 43.0832 47.6196 43.0832L49.8095 43.0021C49.6743 42.1099 50.4854 41.6233 50.7557 41.5151C51.0261 41.407 50.8909 40.9204 50.8909 40.9204L51.144 39.1696C51.2607 38.8787 52.0805 39.9925 52.0805 39.9925C52.0805 39.9925 54.1622 40.7041 54.2974 40.7582C54.4325 40.8122 56.1898 41.3529 56.1898 41.3529C56.1898 41.3529 58.3527 42.7588 58.3527 43.1102C58.3527 43.4617 59.5422 45.3542 59.5422 45.3542C59.5422 45.3542 59.5282 45.4299 59.5022 45.5683C59.2276 47.0585 57.6043 55.8439 57.4064 57.0064Z" fill="#8CCACB"/>
<path d="M48.7546 52.6261C48.7546 52.6261 44.0775 51.3824 43.6179 51.085C43.1583 50.7877 40.4547 52.5179 43.7531 54.87C43.7531 54.87 47.7863 55.7081 48.8652 54.87C49.9442 54.0319 48.7546 52.6261 48.7546 52.6261Z" fill="#D58668"/>
<path opacity="0.1" d="M58.8658 45.2168L59.4336 45.2438L61.1098 49.7317C61.1098 49.7317 62.1101 52.0838 62.2993 52.4623C62.4886 52.8408 62.4075 54.4088 62.2993 54.8684C62.1912 55.3281 61.4883 57.3557 61.4612 57.8694C61.4342 58.3831 60.1635 58.8967 58.8658 58.8156C57.5681 58.7345 54.5402 59.14 54.5402 59.14C54.5402 59.14 51.3064 58.802 49.3223 59.8159C49.3223 59.8159 48.0516 57.1935 48.1868 52.3001C48.1868 52.3001 50.4308 52.1649 50.9985 52.3812C51.5662 52.5975 54.3239 53.2193 54.6753 52.8949C55.0268 52.5704 56.6219 53.4896 56.6219 53.4896C56.7031 53.3114 56.745 53.1178 56.745 52.9219C56.745 52.726 56.7031 52.5324 56.6219 52.3542C56.3515 51.7053 55.8919 49.6776 56.4867 49.0288C57.0815 48.3799 58.8658 45.2168 58.8658 45.2168Z" fill="black"/>
<path opacity="0.1" d="M57.4921 59.1733C56.15 59.2641 54.649 59.4652 54.649 59.4652C54.649 59.4652 51.4156 59.1268 49.4312 60.1411C49.4312 60.1411 48.1605 57.5187 48.2957 52.6253C48.2957 52.6253 50.5397 52.4901 51.1074 52.7064C51.6751 52.9227 54.4328 53.5445 54.7842 53.2201C55.1357 52.8956 56.7308 53.8148 56.7308 53.8148C56.8119 53.6366 56.8539 53.443 56.8539 53.2471C56.8539 53.0512 56.8119 52.8576 56.7308 52.6793C56.4604 52.0305 56.0008 50.0028 56.5956 49.354C57.1904 48.7051 58.9747 45.542 58.9747 45.542L59.5024 45.5669C59.2278 47.0571 57.6046 55.8425 57.4067 57.005C57.3212 57.51 57.3839 58.3471 57.4921 59.1733Z" fill="black"/>
<path d="M58.9747 45.3271L59.5425 45.3542L61.2187 49.8421C61.2187 49.8421 62.219 52.1942 62.4082 52.5726C62.5975 52.9511 62.5164 54.5192 62.4082 54.9788C62.3001 55.4384 61.5972 57.4661 61.5701 57.9797C61.5431 58.4934 60.2724 59.0071 58.9747 58.926C57.677 58.8449 54.649 59.2504 54.649 59.2504C54.649 59.2504 51.4153 58.9124 49.4312 59.9263C49.4312 59.9263 48.1605 57.3038 48.2957 52.4104C48.2957 52.4104 50.5397 52.2753 51.1074 52.4915C51.6751 52.7078 54.4328 53.3296 54.7842 53.0052C55.1357 52.6808 56.7308 53.6 56.7308 53.6C56.8119 53.4217 56.8539 53.2281 56.8539 53.0322C56.8539 52.8364 56.8119 52.6428 56.7308 52.4645C56.4604 51.8157 56.0008 49.788 56.5956 49.1391C57.1904 48.4903 58.9747 45.3271 58.9747 45.3271Z" fill="#8CCACB"/>
<path d="M53.2624 55.2552L53.937 55.6729L57.6963 49.6015L57.0217 49.1838L53.2624 55.2552Z" fill="#DFE6F5"/>
<path d="M59.6231 48.7808C60.2875 47.7078 60.216 46.4602 59.4634 45.9942C58.7108 45.5283 57.5622 46.0203 56.8978 47.0933C56.2334 48.1663 56.3049 49.4139 57.0575 49.8799C57.8101 50.3459 58.9588 49.8538 59.6231 48.7808Z" fill="#DFE6F5"/>
<path opacity="0.1" d="M59.2387 48.5423C59.7156 47.7721 59.6642 46.8766 59.124 46.5421C58.5838 46.2076 57.7593 46.5608 57.2824 47.331C56.8055 48.1012 56.8569 48.9967 57.3971 49.3312C57.9373 49.6657 58.7618 49.3125 59.2387 48.5423Z" fill="black"/>
<path d="M51.3405 58.3596L52.0151 58.7773L54.3542 54.9996L53.6796 54.5819L51.3405 58.3596Z" fill="#53526B"/>
<path d="M47.3758 58.6273L49.0249 58.1677C49.0249 58.1677 57.1626 58.384 54.432 55.0316C54.432 55.0316 52.9991 53.6528 49.9982 54.7612C46.9973 55.8697 46.1592 56.0049 46.1592 56.0049L47.3758 58.6273Z" fill="#D58668"/>
<path opacity="0.1" d="M46.1599 44.4897C46.339 44.4897 46.4843 44.3444 46.4843 44.1652C46.4843 43.9861 46.339 43.8408 46.1599 43.8408C45.9807 43.8408 45.8354 43.9861 45.8354 44.1652C45.8354 44.3444 45.9807 44.4897 46.1599 44.4897Z" fill="black"/>
<path opacity="0.1" d="M51.7287 44.2983C51.9079 44.2983 52.0531 44.153 52.0531 43.9738C52.0531 43.7947 51.9079 43.6494 51.7287 43.6494C51.5495 43.6494 51.4043 43.7947 51.4043 43.9738C51.4043 44.153 51.5495 44.2983 51.7287 44.2983Z" fill="black"/>
<path d="M46.1599 44.3793C46.339 44.3793 46.4843 44.2341 46.4843 44.0549C46.4843 43.8757 46.339 43.7305 46.1599 43.7305C45.9807 43.7305 45.8354 43.8757 45.8354 44.0549C45.8354 44.2341 45.9807 44.3793 46.1599 44.3793Z" fill="white"/>
<path opacity="0.1" d="M46.6189 48.975C46.798 48.975 46.9433 48.8298 46.9433 48.6506C46.9433 48.4714 46.798 48.3262 46.6189 48.3262C46.4397 48.3262 46.2944 48.4714 46.2944 48.6506C46.2944 48.8298 46.4397 48.975 46.6189 48.975Z" fill="black"/>
<path opacity="0.1" d="M51.8913 48.6518C52.0705 48.6518 52.2157 48.5065 52.2157 48.3274C52.2157 48.1482 52.0705 48.0029 51.8913 48.0029C51.7121 48.0029 51.5669 48.1482 51.5669 48.3274C51.5669 48.5065 51.7121 48.6518 51.8913 48.6518Z" fill="black"/>
<path d="M46.6189 48.8676C46.798 48.8676 46.9433 48.7224 46.9433 48.5432C46.9433 48.364 46.798 48.2188 46.6189 48.2188C46.4397 48.2188 46.2944 48.364 46.2944 48.5432C46.2944 48.7224 46.4397 48.8676 46.6189 48.8676Z" fill="white"/>
<path opacity="0.1" d="M51.7561 64.3061C51.9352 64.3061 52.0805 64.1608 52.0805 63.9817C52.0805 63.8025 51.9352 63.6572 51.7561 63.6572C51.5769 63.6572 51.4316 63.8025 51.4316 63.9817C51.4316 64.1608 51.5769 64.3061 51.7561 64.3061Z" fill="black"/>
<path opacity="0.1" d="M47.4851 64.3061C47.6642 64.3061 47.8095 64.1608 47.8095 63.9817C47.8095 63.8025 47.6642 63.6572 47.4851 63.6572C47.3059 63.6572 47.1606 63.8025 47.1606 63.9817C47.1606 64.1608 47.3059 64.3061 47.4851 64.3061Z" fill="black"/>
<path d="M51.7561 64.1996C51.9352 64.1996 52.0805 64.0544 52.0805 63.8752C52.0805 63.696 51.9352 63.5508 51.7561 63.5508C51.5769 63.5508 51.4316 63.696 51.4316 63.8752C51.4316 64.0544 51.5769 64.1996 51.7561 64.1996Z" fill="white"/>
<path opacity="0.1" d="M47.8103 69.7397C47.9894 69.7397 48.1347 69.5944 48.1347 69.4152C48.1347 69.2361 47.9894 69.0908 47.8103 69.0908C47.6311 69.0908 47.4858 69.2361 47.4858 69.4152C47.4858 69.5944 47.6311 69.7397 47.8103 69.7397Z" fill="black"/>
<path opacity="0.1" d="M51.8913 69.4145C52.0705 69.4145 52.2157 69.2692 52.2157 69.0901C52.2157 68.9109 52.0705 68.7656 51.8913 68.7656C51.7121 68.7656 51.5669 68.9109 51.5669 69.0901C51.5669 69.2692 51.7121 69.4145 51.8913 69.4145Z" fill="black"/>
<path d="M47.8103 69.6303C47.9894 69.6303 48.1347 69.485 48.1347 69.3059C48.1347 69.1267 47.9894 68.9814 47.8103 68.9814C47.6311 68.9814 47.4858 69.1267 47.4858 69.3059C47.4858 69.485 47.6311 69.6303 47.8103 69.6303Z" fill="white"/>
<path d="M47.4851 64.1996C47.6642 64.1996 47.8095 64.0544 47.8095 63.8752C47.8095 63.696 47.6642 63.5508 47.4851 63.5508C47.3059 63.5508 47.1606 63.696 47.1606 63.8752C47.1606 64.0544 47.3059 64.1996 47.4851 64.1996Z" fill="white"/>
<path d="M51.8913 69.3061C52.0705 69.3061 52.2157 69.1608 52.2157 68.9817C52.2157 68.8025 52.0705 68.6572 51.8913 68.6572C51.7121 68.6572 51.5669 68.8025 51.5669 68.9817C51.5669 69.1608 51.7121 69.3061 51.8913 69.3061Z" fill="white"/>
<path d="M51.7287 44.1908C51.9079 44.1908 52.0531 44.0456 52.0531 43.8664C52.0531 43.6872 51.9079 43.542 51.7287 43.542C51.5495 43.542 51.4043 43.6872 51.4043 43.8664C51.4043 44.0456 51.5495 44.1908 51.7287 44.1908Z" fill="white"/>
<path d="M51.8913 48.5434C52.0705 48.5434 52.2157 48.3981 52.2157 48.219C52.2157 48.0398 52.0705 47.8945 51.8913 47.8945C51.7121 47.8945 51.5669 48.0398 51.5669 48.219C51.5669 48.3981 51.7121 48.5434 51.8913 48.5434Z" fill="white"/>
<path opacity="0.1" d="M52.3779 59.6006C52.3779 59.6006 52.432 67.0083 52.5942 68.333C52.5942 68.333 52.6531 59.9498 52.3779 59.6006Z" fill="black"/>
<path opacity="0.1" d="M53.7563 63.0342C53.6448 63.0342 55.9732 71.7126 56.0814 72.3344C56.1895 72.9562 54.4052 63.0342 53.7563 63.0342Z" fill="black"/>
<path opacity="0.1" d="M55.5952 61.6289C55.5952 61.71 56.8929 66.3331 57.5418 66.5764C58.1906 66.8197 55.5952 61.6289 55.5952 61.6289Z" fill="black"/>
<path opacity="0.1" d="M60.7046 52.626C60.7046 52.626 57.947 52.7489 57.8659 53.147C57.7848 53.5452 60.7046 52.626 60.7046 52.626Z" fill="black"/>
<path opacity="0.1" d="M55.8376 87.8809C55.8376 87.8809 53.864 88.719 54.1614 88.773C54.4588 88.8271 55.8376 87.8809 55.8376 87.8809Z" fill="black"/>
<path opacity="0.1" d="M51.755 86.6368C51.6781 86.4639 53.0797 87.3397 53.0797 87.4478C53.0797 87.556 51.8631 86.8801 51.755 86.6368Z" fill="black"/>
<path opacity="0.1" d="M53.5942 89.4741C53.5942 89.4741 55.1353 89.3963 55.2434 89.9894C55.3515 90.5825 53.5942 89.4741 53.5942 89.4741Z" fill="black"/>
<path opacity="0.1" d="M42.5088 89.4719C42.5088 89.4719 44.185 89.1441 44.3202 89.4719C44.4553 89.7996 42.5088 89.4719 42.5088 89.4719Z" fill="black"/>
<path opacity="0.1" d="M43.1315 99.668C43.1315 99.668 43.2414 101.047 42.835 101.371C42.4286 101.696 43.1315 99.668 43.1315 99.668Z" fill="black"/>
<path opacity="0.1" d="M42.9258 102.587C43.4549 102.641 46.2396 102.154 46.2125 102.587C46.1855 103.02 42.9258 102.587 42.9258 102.587Z" fill="black"/>
<path opacity="0.1" d="M55.7028 100.912C55.7028 100.912 54.7531 100.766 54.9846 101.407L55.7028 100.912Z" fill="black"/>
<path opacity="0.1" d="M38.0487 46.9481H37.535L36.751 49.8139C36.751 49.8139 36.4807 50.8142 36.2103 51.0575C35.9399 51.3008 36.4536 53.5177 36.4536 53.5177C36.4536 53.5177 36.1562 55.0858 35.9129 55.4913C35.6696 55.8969 36.2914 56.8972 36.2914 56.8972L37.535 59.817L40.8334 60.6821C40.8334 60.6821 46.646 61.9528 46.9163 62.142C47.1867 62.3313 47.43 62.0609 47.6192 60.3036C47.8085 58.5463 48.3222 55.1399 48.7277 54.9777C48.7277 54.9777 45.4834 55.3291 45.2131 55.275C44.9427 55.221 43.645 55.3021 43.645 55.3021C43.645 55.3021 41.9418 55.1939 41.6715 55.3562C41.4011 55.5184 42.0229 54.5709 42.0229 54.5709C42.1368 54.1371 42.1368 53.6812 42.0229 53.2474C41.8337 52.5174 41.7255 44.2446 38.0487 46.9481Z" fill="black"/>
<path opacity="0.1" d="M48.6189 55.3028C48.2134 55.4651 47.6997 58.8715 47.5104 60.6288C47.3212 62.3861 47.0779 62.6565 46.8075 62.4672C46.588 62.3137 42.7133 61.4464 41.2652 61.1263C41.4934 59.7799 41.6167 58.2767 41.6167 58.2767L37.5073 47.2733H37.9399C41.6167 44.5698 41.7249 52.8426 41.9141 53.5726C42.0279 54.0065 42.0279 54.4624 41.9141 54.8962C41.9141 54.8962 41.2923 55.8436 41.5626 55.6813C41.833 55.5191 43.5362 55.6273 43.5362 55.6273C43.5362 55.6273 44.8339 55.5462 45.1043 55.6002C45.3746 55.6543 48.6189 55.3028 48.6189 55.3028Z" fill="black"/>
<path d="M37.9403 47.0575H37.4266L36.6426 49.9233C36.6426 49.9233 36.3723 50.9236 36.1019 51.1669C35.8315 51.4102 36.3452 53.6271 36.3452 53.6271C36.3452 53.6271 36.0478 55.1952 35.8045 55.6007C35.5612 56.0062 36.183 57.0065 36.183 57.0065L37.4266 59.9264L40.725 60.7915C40.725 60.7915 46.5376 62.0622 46.8079 62.2514C47.0783 62.4407 47.3216 62.1703 47.5109 60.413C47.7001 58.6557 48.2138 55.2493 48.6193 55.087C48.6193 55.087 45.3751 55.4385 45.1047 55.3844C44.8343 55.3304 43.5366 55.4115 43.5366 55.4115C43.5366 55.4115 41.8334 55.3033 41.5631 55.4655C41.2927 55.6277 41.9145 54.6803 41.9145 54.6803C42.0284 54.2465 42.0284 53.7906 41.9145 53.3568C41.7253 52.6268 41.6171 44.354 37.9403 47.0575Z" fill="#8CCACB"/>
<path opacity="0.1" d="M39.6981 56.8428C39.6981 56.8428 38.2112 59.6545 37.9408 59.33C37.6705 59.0056 39.6981 56.8428 39.6981 56.8428Z" fill="black"/>
<path opacity="0.1" d="M38.1565 55.2422C38.1565 55.2422 36.7777 56.3837 37.4265 56.6811C38.0754 56.9785 38.1565 55.2422 38.1565 55.2422Z" fill="black"/>
<path opacity="0.1" d="M39.4546 53.8428C39.5627 53.8698 41.4552 54.2457 41.4822 54.4092C41.5093 54.5727 39.4546 53.8428 39.4546 53.8428Z" fill="black"/>
<path opacity="0.1" d="M52.5784 34.0363C52.5196 34.057 52.4695 34.0968 52.436 34.1493C52.4024 34.2018 52.3875 34.2641 52.3935 34.3261C52.2832 34.4234 52.1286 34.3088 52.0388 34.1844C51.948 34.0612 51.8452 33.9087 51.7079 33.926C51.6427 33.9468 51.5793 33.9732 51.5187 34.0049C51.3024 34.0741 51.1196 33.82 50.9985 33.5972C50.7876 33.2068 50.5767 32.8168 50.3658 32.4271C49.943 32.6726 49.4434 32.4152 49.0238 32.1611C48.6042 31.907 48.1046 31.6485 47.6807 31.894C47.0589 32.253 47.0362 33.4502 46.3916 33.7454C46.184 33.8405 45.9429 33.82 45.7504 33.9509C45.56 34.0806 45.4573 34.3304 45.3719 34.5694C45.3402 34.7055 45.266 34.8279 45.1599 34.9187C45.0925 34.954 45.0175 34.9722 44.9415 34.9717C44.7504 35.0042 44.5539 34.9766 44.3791 34.8928C44.2875 34.8352 44.2183 34.7481 44.1829 34.6458C44.1475 34.5436 44.148 34.4323 44.1845 34.3304C44.1896 34.3196 44.1954 34.3092 44.2018 34.2991C44.271 34.2153 44.3332 34.126 44.3878 34.032C44.4527 33.86 44.3597 33.66 44.3802 33.4739C44.4137 33.156 44.75 32.9884 44.8074 32.6759C44.8312 32.5537 44.8063 32.4228 44.829 32.2995C44.8322 32.2834 44.8365 32.2675 44.842 32.2519L44.6441 32.3882C44.8658 32.1297 44.9772 31.7707 45.1394 31.4571C45.3196 31.1137 45.5675 30.8105 45.8683 30.5657C46.169 30.3209 46.5163 30.1396 46.8891 30.0329C47.5942 29.8274 48.3393 29.8836 49.0508 30.0577C49.7275 30.2263 50.3757 30.4934 50.9747 30.8504C51.1887 30.9652 51.3788 31.1197 51.5349 31.3057C51.6656 31.4986 51.7768 31.704 51.8669 31.9189C52.0767 32.3536 52.6498 32.7559 52.1935 32.8164C51.8139 32.8673 52.1599 33.1333 52.3589 33.3128C52.4038 33.348 52.4425 33.3904 52.4735 33.4383C52.5066 33.5066 52.5217 33.5823 52.5176 33.6581C52.5134 33.734 52.4901 33.8075 52.4497 33.8719C52.373 33.9692 52.6844 33.9887 52.5784 34.0363Z" fill="black"/>
<path d="M52.5779 33.9289C52.5192 33.9496 52.469 33.9893 52.4355 34.0419C52.402 34.0944 52.387 34.1567 52.393 34.2187C52.2827 34.316 52.1281 34.2014 52.0383 34.077C51.9475 33.9537 51.8448 33.8013 51.7074 33.8186C51.6422 33.8394 51.5789 33.8658 51.5182 33.8975C51.3019 33.9667 51.1191 33.7126 50.998 33.4898C50.7871 33.0994 50.5762 32.7094 50.3654 32.3197C49.9425 32.5652 49.4429 32.3078 49.0233 32.0537C48.6037 31.7995 48.1041 31.5411 47.6802 31.7866C47.0584 32.1456 47.0357 33.3427 46.3912 33.638C46.1835 33.7331 45.9424 33.7126 45.7499 33.8434C45.5595 33.9732 45.4568 34.223 45.3714 34.462C45.3398 34.5981 45.2655 34.7204 45.1594 34.8113C45.092 34.8465 45.017 34.8647 44.941 34.8643C44.7499 34.8968 44.5534 34.8692 44.3786 34.7853C44.287 34.7278 44.2178 34.6407 44.1824 34.5384C44.147 34.4362 44.1476 34.3249 44.184 34.223C44.1891 34.2122 44.1949 34.2017 44.2013 34.1917C44.2706 34.1079 44.3328 34.0186 44.3873 33.9245C44.4522 33.7526 44.3592 33.5525 44.3797 33.3665C44.4132 33.0486 44.7496 32.881 44.8069 32.5684C44.8307 32.4462 44.8058 32.3154 44.8285 32.1921C44.8317 32.176 44.836 32.1601 44.8415 32.1445L44.6436 32.2808C44.8653 32.0223 44.9767 31.6633 45.1389 31.3497C45.3191 31.0063 45.567 30.7031 45.8678 30.4583C46.1685 30.2135 46.5158 30.0322 46.8886 29.9255C47.5937 29.72 48.3388 29.7762 49.0504 29.9503C49.727 30.1189 50.3752 30.386 50.9742 30.743C51.1882 30.8578 51.3783 31.0123 51.5344 31.1983C51.6651 31.3911 51.7764 31.5965 51.8664 31.8114C52.0762 32.2462 52.6493 32.6485 52.193 32.709C51.8134 32.7599 52.1594 33.0259 52.3584 33.2054C52.4033 33.2406 52.442 33.283 52.4731 33.3308C52.5061 33.3992 52.5212 33.4749 52.5171 33.5507C52.5129 33.6266 52.4896 33.7001 52.4492 33.7645C52.3725 33.8618 52.6839 33.8813 52.5779 33.9289Z" fill="#865A61"/>
<path opacity="0.1" d="M52.3593 33.2054L52.316 33.6607C52.316 33.6607 47.7784 27.9097 44.2487 34.4036C44.2487 34.4036 44.2313 34.3247 44.2021 34.1917C44.2714 34.1079 44.3336 34.0186 44.3881 33.9245C44.453 33.7526 44.36 33.5525 44.3806 33.3665C44.4141 33.0486 44.7504 32.881 44.8077 32.5684C44.8315 32.4462 44.8067 32.3154 44.8294 32.1921C44.8325 32.176 44.8369 32.1601 44.8424 32.1445L44.6444 32.2808C44.8661 32.0223 44.9775 31.6633 45.1397 31.3497C45.3199 31.0063 45.5679 30.7031 45.8687 30.4583C46.1694 30.2135 46.5167 30.0322 46.8895 29.9255C47.5946 29.72 48.3396 29.7762 49.0512 29.9503C49.7279 30.1189 50.3761 30.386 50.9751 30.743C51.1891 30.8578 51.3792 31.0123 51.5352 31.1983C51.666 31.3911 51.7772 31.5965 51.8672 31.8114C52.077 32.2462 52.6502 32.6485 52.1938 32.709C51.8143 32.7599 52.1603 33.0259 52.3593 33.2054Z" fill="black"/>
<g opacity="0.1">
<path opacity="0.1" d="M52.4707 33.8692C52.4483 33.8943 52.4321 33.9243 52.4231 33.9568C52.4142 33.9892 52.4129 34.0233 52.4193 34.0564C52.309 34.1537 52.1543 34.0391 52.0646 33.9147C51.9737 33.7914 51.871 33.6389 51.7337 33.6562C51.6684 33.677 51.6051 33.7035 51.5444 33.7352C51.3281 33.8044 51.1454 33.5503 51.0242 33.3275C50.8134 32.9371 50.6025 32.5471 50.3916 32.1574C49.9688 32.4029 49.4692 32.1455 49.0496 31.8914C48.63 31.6372 48.1304 31.3788 47.7065 31.6242C47.0846 31.9833 47.0619 33.1804 46.4174 33.4756C46.2098 33.5708 45.9686 33.5502 45.7761 33.6811C45.5858 33.8109 45.4831 34.0607 45.3976 34.2997C45.366 34.4357 45.2917 34.5581 45.1857 34.649C45.1183 34.6842 45.0433 34.7024 44.9672 34.702C44.7761 34.7344 44.5796 34.7069 44.4049 34.623C44.3001 34.5535 44.225 34.4476 44.1941 34.3257C44.1727 34.4226 44.1813 34.5237 44.219 34.6155C44.2567 34.7073 44.3215 34.7854 44.4049 34.8393C44.5796 34.9231 44.7761 34.9507 44.9672 34.9182C45.0433 34.9187 45.1183 34.9005 45.1857 34.8653C45.2917 34.7744 45.366 34.652 45.3976 34.516C45.4831 34.277 45.5858 34.0272 45.7761 33.8974C45.9686 33.7665 46.2098 33.7871 46.4174 33.6919C47.0619 33.3967 47.0846 32.1996 47.7065 31.8405C48.1304 31.595 48.63 31.8535 49.0496 32.1076C49.4692 32.3618 49.9688 32.6192 50.3916 32.3737C50.6025 32.763 50.8134 33.153 51.0242 33.5438C51.1454 33.7665 51.3281 34.0207 51.5444 33.9515C51.6051 33.9197 51.6684 33.8933 51.7337 33.8725C51.871 33.8552 51.9737 34.0077 52.0646 34.131C52.1543 34.2553 52.309 34.37 52.4193 34.2726C52.4133 34.2106 52.4282 34.1484 52.4617 34.0958C52.4952 34.0433 52.5454 34.0035 52.6042 33.9828C52.6885 33.945 52.5092 33.9248 52.4707 33.8692Z" fill="black"/>
<path opacity="0.1" d="M52.1176 32.7885C52.1503 32.7754 52.1847 32.7667 52.2197 32.7628C52.4209 32.7361 52.4218 32.6428 52.3421 32.5098C52.3042 32.5302 52.2626 32.5427 52.2197 32.5465C52.0026 32.5755 52.0232 32.6751 52.1176 32.7885Z" fill="black"/>
<path opacity="0.1" d="M52.5321 33.6958C52.5472 33.6261 52.5468 33.5539 52.531 33.4844C52.5213 33.5275 52.5027 33.5681 52.4762 33.6034C52.4423 33.6464 52.484 33.6741 52.5321 33.6958Z" fill="black"/>
<path opacity="0.1" d="M44.4128 33.3838C44.4105 33.3962 44.4079 33.4084 44.4065 33.4212C44.4021 33.5186 44.4092 33.6162 44.4277 33.7119C44.4404 33.6024 44.4354 33.4916 44.4128 33.3838Z" fill="black"/>
<path opacity="0.1" d="M44.8518 32.0635C44.8009 32.1599 44.7401 32.2507 44.6704 32.3345L44.845 32.2144C44.8441 32.164 44.8464 32.1136 44.8518 32.0635Z" fill="black"/>
</g>
<path d="M44.2484 34.2967C44.2484 34.2967 43.5959 31.3798 43.8035 30.9119C43.8035 30.9119 43.24 29.7561 43.24 29.481C43.2126 29.0217 43.0698 28.5769 42.8247 28.1876C42.5281 27.7197 42.2019 25.5458 43.9815 25.0229C45.7611 24.5 47.1254 24.0322 47.3331 23.6745C47.5407 23.3167 50.5957 23.5369 51.4262 24.9128C52.2566 26.2888 52.7905 26.0136 52.7905 26.0136C52.7905 26.0136 54.0659 26.8116 54.0659 27.5271C54.0659 28.2426 53.6803 28.6004 54.0659 28.7655C54.4515 28.9306 54.1549 31.9026 52.4643 31.9852L52.316 33.5537C52.316 33.5537 47.778 27.8023 44.2484 34.2967Z" fill="#8CCACB"/>
<path opacity="0.1" d="M43.8037 30.9103C43.8037 30.9103 49.8475 28.4553 52.4645 31.9835C52.4645 31.9835 49.288 29.2828 43.8037 30.9103Z" fill="black"/>
<path d="M41.6196 51.0824L42.4618 50.2305L44.8428 52.584L44.0006 53.4361L41.8109 51.2715L41.6196 51.0824Z" fill="#53526B"/>
<path d="M36.0942 45.6201C36.0942 45.6201 39.7801 45.9338 43.2106 49.7951L41.7808 51.2415L36.0942 45.6201Z" fill="#DFE6F5"/>
<path d="M47.15 52.5245C47.15 52.5245 43.6073 51.233 43.2592 50.9242C42.9111 50.6154 40.8633 52.4122 43.3616 54.8547C43.3616 54.8547 46.4165 55.725 47.2338 54.8547C48.051 53.9844 47.15 52.5245 47.15 52.5245Z" fill="#D58668"/>
<mask id="path-71-inside-1" fill="white">
<path d="M112.727 77.207H112.006V93.4148H112.727V77.207Z"/>
</mask>
<path d="M112.727 77.207H112.006V93.4148H112.727V77.207Z" fill="#381A56"/>
<path d="M112.006 77.207V76.207H111.006V77.207H112.006ZM112.727 77.207H113.727V76.207H112.727V77.207ZM112.727 93.4148V94.4148H113.727V93.4148H112.727ZM112.006 93.4148H111.006V94.4148H112.006V93.4148ZM112.006 78.207H112.727V76.207H112.006V78.207ZM111.727 77.207V93.4148H113.727V77.207H111.727ZM112.727 92.4148H112.006V94.4148H112.727V92.4148ZM113.006 93.4148V77.207H111.006V93.4148H113.006Z" fill="#381A56" mask="url(#path-71-inside-1)"/>
<path d="M117.251 93.3677L117.206 94.0976L117.142 95.1277L117.116 95.5575L117.052 96.5888L117.025 97.0186L116.961 98.0487L116.235 109.768C116.203 110.272 115.981 110.745 115.613 111.091C115.245 111.437 114.759 111.63 114.254 111.63H110.48C109.975 111.63 109.489 111.437 109.121 111.091C108.753 110.745 108.531 110.272 108.5 109.768L107.773 98.0487L107.709 97.0186L107.683 96.5888L107.618 95.5575L107.592 95.1277L107.528 94.0976L107.482 93.3677C107.474 93.2276 107.494 93.0872 107.542 92.9552C107.589 92.8232 107.664 92.7023 107.76 92.6001C107.856 92.4979 107.972 92.4164 108.101 92.3607C108.23 92.305 108.369 92.2763 108.509 92.2764H116.226C116.366 92.2764 116.505 92.3051 116.634 92.3608C116.763 92.4165 116.879 92.498 116.975 92.6002C117.071 92.7025 117.145 92.8233 117.193 92.9553C117.24 93.0873 117.26 93.2277 117.251 93.3677Z" fill="#D58668"/>
<path d="M117.206 94.0967L117.143 95.1268H107.592L107.528 94.0967H117.206Z" fill="#F1CC53"/>
<path d="M117.115 95.5566L117.051 96.588H107.682L107.617 95.5566H117.115Z" fill="#F1CC53"/>
<path d="M117.024 97.0176L116.961 98.0476H107.773L107.709 97.0176H117.024Z" fill="#F1CC53"/>
<path d="M106.428 83.2832C110.621 86.3161 112.366 91.0602 112.366 91.0602C112.366 91.0602 107.314 90.8869 103.121 87.8541C98.9288 84.8212 97.1831 80.0771 97.1831 80.0771C97.1831 80.0771 102.235 80.2504 106.428 83.2832Z" fill="#8274AC"/>
<path d="M97.1831 80.0771C97.1831 80.0771 102.427 82.988 104.109 85.3977C105.791 87.8074 112.366 91.0602 112.366 91.0602" fill="#381A56"/>
<path d="M97.1831 80.0771C97.1831 80.0771 102.427 82.988 104.109 85.3977C105.791 87.8074 112.366 91.0602 112.366 91.0602" stroke="#381A56" stroke-width="2" stroke-miterlimit="10"/>
<path d="M109.134 77.1728C111.416 78.8236 112.367 81.4057 112.367 81.4057C112.367 81.4057 109.617 81.3114 107.335 79.6607C105.053 78.0099 104.103 75.4277 104.103 75.4277C104.103 75.4277 106.852 75.522 109.134 77.1728Z" fill="#8274AC"/>
<path d="M104.103 75.4277C104.103 75.4277 106.957 77.0121 107.872 78.3237C108.788 79.6353 112.367 81.4057 112.367 81.4057" fill="#381A56"/>
<path d="M104.103 75.4277C104.103 75.4277 106.957 77.0121 107.872 78.3237C108.788 79.6353 112.367 81.4057 112.367 81.4057" stroke="#381A56" stroke-width="2" stroke-miterlimit="10"/>
<path d="M115.683 81.274C113.062 84.1549 112.507 87.9192 112.507 87.9192C112.507 87.9192 116.203 87.0125 118.824 84.1315C121.445 81.2506 121.999 77.4863 121.999 77.4863C121.999 77.4863 118.304 78.393 115.683 81.274Z" fill="#8274AC"/>
<path d="M121.999 77.4863C121.999 77.4863 118.585 80.4394 117.717 82.4742C116.85 84.5089 112.507 87.9192 112.507 87.9192" fill="#381A56"/>
<path d="M121.999 77.4863C121.999 77.4863 118.585 80.4394 117.717 82.4742C116.85 84.5089 112.507 87.9192 112.507 87.9192" stroke="#381A56" stroke-width="2" stroke-miterlimit="10"/>
<path d="M63.3231 21.5994C61.509 18.9028 60.7213 15.6453 61.1029 12.4177C61.4845 9.19015 63.0101 6.20618 65.403 4.00694C67.796 1.8077 70.8979 0.538827 74.1461 0.43042C77.3944 0.322012 80.5739 1.38125 83.1082 3.41605C85.6425 5.45084 87.3636 8.32646 87.9596 11.5214C88.5555 14.7164 87.9868 18.0191 86.3565 20.8307C84.7262 23.6423 82.1423 25.7766 79.0734 26.8465C76.0044 27.9164 72.6537 27.851 69.6288 26.6624C69.4327 27.3623 69.0661 28.0027 68.5618 28.5263C68.0575 29.0498 67.4312 29.4401 66.7391 29.6622C66.047 29.8844 65.3105 29.9314 64.5958 29.7991C63.881 29.6669 63.2101 29.3594 62.6433 28.9043C62.0765 28.4492 61.6314 27.8607 61.3478 27.1913C61.0642 26.522 60.9511 25.7928 61.0184 25.069C61.0858 24.3452 61.3316 23.6495 61.7338 23.0439C62.136 22.4384 62.6821 21.9421 63.3231 21.5994Z" fill="#8274AC"/>
<path d="M74.5231 6.24512C77.6387 6.24512 79.7822 7.97323 79.7822 10.4574C79.7822 12.1024 78.9846 13.2406 77.4476 14.1462C76.0019 14.9854 75.5118 15.6002 75.5118 16.6636C75.5118 16.7498 75.4948 16.8352 75.4618 16.9148C75.4288 16.9944 75.3805 17.0668 75.3195 17.1277C75.2586 17.1887 75.1862 17.237 75.1066 17.27C75.0269 17.303 74.9416 17.32 74.8554 17.32H73.2626C73.0925 17.32 72.9291 17.2539 72.8067 17.1358C72.6843 17.0176 72.6126 16.8565 72.6067 16.6865L72.6039 16.6055C72.4626 14.894 73.0608 13.8305 74.5646 12.9499C75.9687 12.1107 76.5586 11.579 76.5586 10.5488C76.5586 9.51856 75.5616 8.76251 74.3237 8.76251C73.3828 8.76251 72.6381 9.2205 72.2966 9.96824C72.1766 10.2214 71.9865 10.4348 71.749 10.5833C71.5115 10.7319 71.2364 10.8092 70.9563 10.8063C69.8771 10.8063 69.1642 9.6587 69.6689 8.70481C70.4672 7.19586 72.1517 6.24512 74.5231 6.24512ZM72.338 20.4854C72.338 19.53 73.1356 18.7739 74.116 18.7739C75.1046 18.7739 75.9022 19.5217 75.9022 20.4854C75.9022 21.4492 75.1046 22.1969 74.116 22.1969C73.1273 22.1969 72.338 21.4492 72.338 20.4854Z" fill="#F9F8FF"/>
<defs>
<linearGradient id="paint0_linear" x1="49.1348" y1="111.605" x2="49.1348" y2="23.1357" gradientUnits="userSpaceOnUse">
<stop stop-color="#808080" stop-opacity="0.25"/>
<stop offset="0.53514" stop-color="#808080" stop-opacity="0.12"/>
<stop offset="1" stop-color="#808080" stop-opacity="0.1"/>
</linearGradient>
</defs>
</svg>
