<svg width="231" height="228" viewBox="0 0 231 228" fill="none" xmlns="http://www.w3.org/2000/svg">
<path d="M92.4017 0.232422H73.9219V9.31622H92.4017V0.232422Z" fill="black"/>
<path d="M110.875 0.232422H120.115V9.31623H138.595V18.4H110.875V0.232422Z" fill="black"/>
<path d="M147.841 0.232422H157.081V100.154H147.841V81.9867H138.601V91.0705H129.358V81.9867H120.122V72.9029H110.882V45.6514H101.642V27.4838H73.9219V18.4H92.4017V9.31623H101.642V18.4H110.882V27.4838H138.601V36.5676H120.122V63.8191H129.358V54.7353H138.601V72.9029H147.841V45.6514H138.601V36.5676H147.841V0.232422Z" fill="black"/>
<path d="M0 0.232422V63.8191H64.6795V0.232422H0ZM55.4396 54.7353H9.23993V9.31623H55.4396V54.7353Z" fill="black"/>
<path d="M166.321 0.232422V63.8191H231V0.232422H166.321ZM221.76 54.7353H175.561V9.31623H221.76V54.7353Z" fill="black"/>
<path d="M46.2042 18.4033H18.4844V45.6548H46.2042V18.4033Z" fill="black"/>
<path d="M212.517 18.4033H184.797V45.6548H212.517V18.4033Z" fill="black"/>
<path d="M73.9219 36.5762H92.4017V54.7438H83.1618V45.66H73.9219V36.5762Z" fill="black"/>
<path d="M73.9219 54.7344H83.1618V63.8182H92.4017V54.7344H101.642V72.902H110.882V81.9858H120.122V91.0696H110.882V100.153H101.642V81.9858H92.4017V72.902H73.9219V54.7344Z" fill="black"/>
<path d="M64.6757 72.9043H46.1958V81.9881H64.6757V72.9043Z" fill="black"/>
<path d="M194.037 72.9043H184.797V81.9881H194.037V72.9043Z" fill="black"/>
<path d="M203.274 72.9043H212.514V91.0719H230.994V118.323H212.514V100.156H203.274V72.9043Z" fill="black"/>
<path d="M230.999 72.9043H221.759V81.9881H230.999V72.9043Z" fill="black"/>
<path d="M27.7216 81.9844H9.2417V91.0682H27.7216V81.9844Z" fill="black"/>
<path d="M46.1935 81.9844H36.9536V91.0682H46.1935V81.9844Z" fill="black"/>
<path d="M9.23993 91.0762H0V100.16H9.23993V91.0762Z" fill="black"/>
<path d="M64.6779 91.0762H55.438V100.16H64.6779V91.0762Z" fill="black"/>
<path d="M18.4816 100.156H36.9615V118.324H27.7216V127.408H18.4816V118.324H9.2417V109.24H18.4816V100.156Z" fill="black"/>
<path d="M55.4357 100.156H46.1958V109.24H55.4357V100.156Z" fill="black"/>
<path d="M147.841 100.156H138.601V109.24H147.841V100.156Z" fill="black"/>
<path d="M64.6779 109.234H55.438V118.318H64.6779V109.234Z" fill="black"/>
<path d="M9.23993 118.327H0V154.662H9.23993V118.327Z" fill="black"/>
<path d="M46.1935 118.327H36.9536V127.414H46.1935V118.327Z" fill="black"/>
<path d="M36.9592 127.406H27.7192V136.49H36.9592V127.406Z" fill="black"/>
<path d="M64.6779 127.406H55.438V136.49H64.6779V127.406Z" fill="black"/>
<path d="M73.9219 127.406H83.1618V136.49H92.4017V154.658H83.1618V163.741H73.9219V127.406Z" fill="black"/>
<path d="M194.032 127.406H175.556V136.49H194.032V127.406Z" fill="black"/>
<path d="M230.996 127.406H212.516V136.49H230.996V127.406Z" fill="black"/>
<path d="M46.1935 136.484H36.9536V145.568H46.1935V136.484Z" fill="black"/>
<path d="M27.7243 145.577H18.4844V154.664H27.7243V145.577Z" fill="black"/>
<path d="M64.6757 145.577H46.1958V154.664H64.6757V145.577Z" fill="black"/>
<path d="M101.639 154.656H92.3989V163.74H101.639V154.656Z" fill="black"/>
<path d="M230.997 154.659V145.575H212.518V136.491H194.038V145.575H157.078V136.491H166.318V127.407H175.558V118.323H194.038V127.407H203.278V100.156H194.038V91.0719H184.798V100.156H175.558V91.0719H184.798V81.9881H175.558V72.9043H166.318V100.156H157.078V127.407H138.598V109.24H129.355V127.407H120.115V100.156H110.875V118.323H101.635V100.156H73.915V109.24H83.155V127.407H92.3985V136.491H101.638V127.407H110.878V136.491H101.638V154.659H110.878V163.742H120.118V145.575H129.358V163.742H138.598V154.659H147.838V163.742H138.598V172.826H129.355V200.078H110.878V209.161H129.355V218.245H110.878V227.329H157.078V218.245H147.838V209.161H138.598V181.91H147.838V190.994H157.078V200.078H166.318V190.994H194.038V200.078H203.278V190.994H212.518V181.91H203.278V163.742H194.038V154.659H230.997ZM147.838 145.575H138.598V136.491H147.838V145.575ZM184.798 181.91H157.078V154.659H184.798V181.91Z" fill="black"/>
<path d="M110.881 163.749H101.641V181.917H110.881V163.749Z" fill="black"/>
<path d="M175.564 163.749H166.321V172.836H175.564V163.749Z" fill="black"/>
<path d="M230.999 163.749H221.759V181.917H230.999V163.749Z" fill="black"/>
<path d="M0 163.749V227.336H64.6795V163.749H0ZM55.4396 218.252H9.23993V172.833H55.4396V218.252Z" fill="black"/>
<path d="M73.9219 172.827H92.4017V190.995H101.642V200.079H92.4017V209.162H83.1618V181.911H73.9219V172.827Z" fill="black"/>
<path d="M46.2042 181.908H18.4844V209.16H46.2042V181.908Z" fill="black"/>
<path d="M120.115 181.908H110.875V190.992H120.115V181.908Z" fill="black"/>
<path d="M230.999 191H221.759V227.335H230.999V191Z" fill="black"/>
<path d="M157.079 200.079H147.836V209.163H157.079V200.079Z" fill="black"/>
<path d="M166.321 200.079H184.801V209.163H203.281V227.331H194.041V218.247H175.561V227.331H166.321V200.079Z" fill="black"/>
<path d="M212.514 200.079H203.274V209.163H212.514V200.079Z" fill="black"/>
<path d="M110.881 209.158H101.641V218.245H110.881V209.158Z" fill="black"/>
<path d="M92.3962 218.251H83.1562V227.335H92.3962V218.251Z" fill="black"/>
</svg>
