<svg width="14" height="17" viewBox="0 0 14 17" fill="none" xmlns="http://www.w3.org/2000/svg">
<path d="M11.4349 5.42675C12.7989 5.42675 13.9087 4.32187 13.9087 2.96387C13.9087 1.60537 12.7989 0.5 11.4349 0.5C10.0714 0.5 8.96199 1.60537 8.96199 2.96387C8.96199 3.28337 9.02751 3.58571 9.13946 3.86621L4.22704 6.7051C3.77873 6.2551 3.15765 5.9756 2.47288 5.9756C1.10937 5.9756 0 7.0805 0 8.4385C0 9.797 1.10937 10.9014 2.47288 10.9014C3.16819 10.9014 3.79585 10.6114 4.24567 10.1494L9.11692 13.208C9.02254 13.4685 8.963 13.7446 8.963 14.0371C8.963 15.3951 10.0723 16.5 11.4358 16.5C12.7998 16.5 13.9087 15.3951 13.9087 14.0371C13.9087 12.6786 12.7998 11.5732 11.4358 11.5732C10.727 11.5732 10.0909 11.876 9.63953 12.3535L4.78105 9.30275C4.88346 9.03225 4.94677 8.743 4.94677 8.4375C4.94677 8.122 4.88115 7.8234 4.77221 7.5459L9.68953 4.70508C10.1363 5.1511 10.7536 5.42675 11.4349 5.42675ZM11.4349 12.5742C12.2452 12.5742 12.9047 13.2311 12.9047 14.0381C12.9047 14.8446 12.2452 15.501 11.4349 15.501C10.6251 15.501 9.96605 14.8446 9.96605 14.0381C9.96605 13.7691 10.0445 13.5192 10.172 13.3027C10.176 13.2972 10.1807 13.2941 10.1847 13.2881C10.1902 13.2796 10.1905 13.2692 10.1955 13.2607C10.455 12.8497 10.9118 12.5742 11.4349 12.5742ZM2.47288 9.90235C1.66311 9.90235 1.00406 9.2455 1.00406 8.4385C1.00406 7.632 1.66311 6.9756 2.47288 6.9756C2.95182 6.9756 3.37406 7.209 3.64265 7.5635C3.64968 7.5795 3.65028 7.59635 3.65932 7.61135C3.68291 7.65235 3.71199 7.68725 3.74462 7.71875C3.86661 7.93225 3.94269 8.176 3.94269 8.4385C3.94269 8.7255 3.85635 8.99175 3.71227 9.21775C3.71126 9.21925 3.70935 9.2192 3.70834 9.2207C3.70634 9.2237 3.70643 9.22745 3.70442 9.23045C3.44186 9.63395 2.98947 9.90235 2.47288 9.90235ZM11.4349 1.50098C12.2452 1.50098 12.9047 2.15687 12.9047 2.96387C12.9047 3.77037 12.2452 4.42676 11.4349 4.42676C10.6251 4.42676 9.96605 3.77037 9.96605 2.96387C9.96605 2.15637 10.6246 1.50098 11.4349 1.50098Z" fill="#381A56"/>
</svg>
