<svg width="22" height="22" viewBox="0 0 22 22" fill="none" xmlns="http://www.w3.org/2000/svg">
<path d="M9.9044 12.7417C9.9044 12.3933 9.61107 12.1 9.26273 12.1H6.8794C6.53107 12.1 6.23773 12.3933 6.23773 12.7417V15.125C6.23773 15.4733 6.53107 15.7667 6.8794 15.7667H9.26273C9.61107 15.7667 9.9044 15.4733 9.9044 15.125V12.7417ZM7.52107 13.3833H8.62107V14.4833H7.52107V13.3833ZM19.2361 7.22333L17.6044 5.57333V3.66668C17.6044 3.26335 17.2744 2.93335 16.8527 2.93335H5.13773C4.7344 2.93335 4.38607 3.26335 4.38607 3.66668V5.57333L2.7544 7.22333C2.62607 7.35166 2.55274 7.55338 2.55274 7.73672V9.60666C2.55274 10.01 2.88274 10.285 3.28607 10.285H18.6861C19.0894 10.285 19.4194 10.0283 19.4194 9.60666V7.73672C19.4377 7.53505 19.3644 7.35166 19.2361 7.22333ZM16.1377 4.40002V5.31668H5.87107V4.40002H16.1377ZM17.9711 8.80002H4.03773V8.02998L5.54107 6.60002H16.4677L17.9711 8.02998V8.80002V8.80002ZM18.3377 11.7517V18.3333C18.3377 18.7367 18.0077 19.0667 17.6044 19.0667H15.0927C14.6894 19.0667 14.3594 18.7734 14.3594 18.37V14.4833H12.6544V18.3333C12.6544 18.7367 12.3061 19.0667 11.9027 19.0667H4.4044C4.00107 19.0667 3.65274 18.7367 3.65274 18.3333V11.7517C3.65274 11.3484 3.98274 11.0184 4.38607 11.0184C4.78941 11.0184 5.11941 11.3484 5.11941 11.7517V17.6H11.1694V13.6767C11.1694 13.2734 11.4811 13.0167 11.8844 13.0167H15.0561C15.4594 13.0167 15.7344 13.2734 15.7344 13.6767V17.6H16.8344V11.7517C16.8344 11.3484 17.1644 11.0184 17.5677 11.0184C17.9711 11.0184 18.3377 11.3484 18.3377 11.7517Z" fill="#333333"/>
</svg>
