<svg width="53" height="16" viewBox="0 0 53 16" fill="none" xmlns="http://www.w3.org/2000/svg">
<rect width="53" height="16" rx="3" fill="#E2FFE1"/>
<path fill-rule="evenodd" clip-rule="evenodd" d="M5.5 9.00012C5.5 11.4487 7.38036 13.5 10 13.5C12.6196 13.5 14.5 11.4487 14.5 9.00012C14.5 7.9001 14.1297 6.5945 13.444 5.27012C12.4668 3.38256 11.6011 2.5 10.25 2.5H9.75C8.38559 2.5 7.295 3.60068 6.5429 5.29738C5.81618 6.9368 5.5 7.99267 5.5 9.00012ZM13.5 9.00012C13.5 10.9149 12.047 12.5 10 12.5C7.95301 12.5 6.5 10.9149 6.5 9.00012C6.5 8.16822 6.78282 7.22376 7.4571 5.70262C8.06606 4.32887 8.88733 3.5 9.75 3.5H10.25C11.101 3.5 11.7375 4.14895 12.556 5.72988C13.1729 6.92151 13.5 8.07469 13.5 9.00012ZM10 10.875C8.89543 10.875 8 9.97957 8 8.875C8 7.72564 8.911 6.5 10 6.5C11.089 6.5 12 7.72564 12 8.875C12 9.97957 11.1046 10.875 10 10.875ZM11 8.875C11 9.42728 10.5523 9.875 10 9.875C9.44772 9.875 9 9.42728 9 8.875C9 8.22445 9.53848 7.5 10 7.5C10.4615 7.5 11 8.22445 11 8.875Z" fill="#409F3E"/>
<path d="M24.0078 5.78906H24.9766L22.9766 11.5H21.9922L20 5.78906H20.9609L22.1523 9.33984C22.2148 9.50911 22.2812 9.72786 22.3516 9.99609C22.4219 10.2617 22.4674 10.4596 22.4883 10.5898C22.5221 10.3919 22.5742 10.1628 22.6445 9.90234C22.7148 9.64193 22.7721 9.44922 22.8164 9.32422L24.0078 5.78906ZM27.5195 11.5781C26.8477 11.5781 26.3216 11.3828 25.9414 10.9922C25.5638 10.599 25.375 10.0586 25.375 9.37109C25.375 8.66536 25.5508 8.11068 25.9023 7.70703C26.2539 7.30339 26.737 7.10156 27.3516 7.10156C27.9219 7.10156 28.3724 7.27474 28.7031 7.62109C29.0339 7.96745 29.1992 8.44401 29.1992 9.05078V9.54688H26.3203C26.3333 9.96615 26.4466 10.2891 26.6602 10.5156C26.8737 10.7396 27.1745 10.8516 27.5625 10.8516C27.8177 10.8516 28.0547 10.8281 28.2734 10.7812C28.4948 10.7318 28.7318 10.651 28.9844 10.5391V11.2852C28.7604 11.3919 28.5339 11.4674 28.3047 11.5117C28.0755 11.556 27.8138 11.5781 27.5195 11.5781ZM27.3516 7.79688C27.0599 7.79688 26.8255 7.88932 26.6484 8.07422C26.474 8.25911 26.3698 8.52865 26.3359 8.88281H28.2969C28.2917 8.52604 28.2057 8.25651 28.0391 8.07422C27.8724 7.88932 27.6432 7.79688 27.3516 7.79688ZM33.8906 7.17969V7.68359L33.1523 7.82031C33.2201 7.91146 33.276 8.02344 33.3203 8.15625C33.3646 8.28906 33.3867 8.42969 33.3867 8.57812C33.3867 9.02344 33.2331 9.3737 32.9258 9.62891C32.6185 9.88411 32.1953 10.0117 31.6562 10.0117C31.5182 10.0117 31.3932 10.0013 31.2812 9.98047C31.0833 10.1029 30.9844 10.2461 30.9844 10.4102C30.9844 10.5091 31.0299 10.5833 31.1211 10.6328C31.2148 10.6823 31.3854 10.707 31.6328 10.707H32.3867C32.8633 10.707 33.2253 10.8086 33.4727 11.0117C33.7201 11.2148 33.8438 11.5078 33.8438 11.8906C33.8438 12.3802 33.6419 12.7578 33.2383 13.0234C32.8346 13.2891 32.2513 13.4219 31.4883 13.4219C30.8997 13.4219 30.4505 13.3177 30.1406 13.1094C29.8307 12.901 29.6758 12.6042 29.6758 12.2188C29.6758 11.9531 29.7591 11.7292 29.9258 11.5469C30.0951 11.3672 30.3307 11.2422 30.6328 11.1719C30.5104 11.1198 30.4089 11.0365 30.3281 10.9219C30.25 10.8047 30.2109 10.6823 30.2109 10.5547C30.2109 10.3932 30.2565 10.2565 30.3477 10.1445C30.4388 10.0326 30.5742 9.92188 30.7539 9.8125C30.5299 9.71615 30.3477 9.5599 30.207 9.34375C30.069 9.125 30 8.86979 30 8.57812C30 8.10938 30.1471 7.74609 30.4414 7.48828C30.7383 7.23047 31.1602 7.10156 31.707 7.10156C31.8294 7.10156 31.957 7.11068 32.0898 7.12891C32.2253 7.14453 32.3268 7.16146 32.3945 7.17969H33.8906ZM30.4961 12.1719C30.4961 12.3698 30.5846 12.5221 30.7617 12.6289C30.9414 12.7357 31.1927 12.7891 31.5156 12.7891C32.0156 12.7891 32.388 12.7174 32.6328 12.5742C32.8776 12.431 33 12.2409 33 12.0039C33 11.8164 32.9323 11.6823 32.7969 11.6016C32.6641 11.5234 32.4154 11.4844 32.0508 11.4844H31.3555C31.0924 11.4844 30.8828 11.5456 30.7266 11.668C30.5729 11.793 30.4961 11.9609 30.4961 12.1719ZM30.8906 8.57812C30.8906 8.84896 30.9596 9.05729 31.0977 9.20312C31.2383 9.34896 31.4388 9.42188 31.6992 9.42188C32.2305 9.42188 32.4961 9.13802 32.4961 8.57031C32.4961 8.28906 32.4297 8.07292 32.2969 7.92188C32.1667 7.76823 31.9674 7.69141 31.6992 7.69141C31.4336 7.69141 31.2318 7.76693 31.0938 7.91797C30.9583 8.06901 30.8906 8.28906 30.8906 8.57812ZM37.3984 11.5L37.2148 10.8984H37.1836C36.9753 11.1615 36.7656 11.3411 36.5547 11.4375C36.3438 11.5312 36.0729 11.5781 35.7422 11.5781C35.3177 11.5781 34.9857 11.4635 34.7461 11.2344C34.5091 11.0052 34.3906 10.681 34.3906 10.2617C34.3906 9.81641 34.556 9.48047 34.8867 9.25391C35.2174 9.02734 35.7214 8.90365 36.3984 8.88281L37.1445 8.85938V8.62891C37.1445 8.35286 37.0794 8.14714 36.9492 8.01172C36.8216 7.8737 36.6224 7.80469 36.3516 7.80469C36.1302 7.80469 35.918 7.83724 35.7148 7.90234C35.5117 7.96745 35.3164 8.04427 35.1289 8.13281L34.832 7.47656C35.0664 7.35417 35.3229 7.26172 35.6016 7.19922C35.8802 7.13411 36.1432 7.10156 36.3906 7.10156C36.9401 7.10156 37.3542 7.22135 37.6328 7.46094C37.9141 7.70052 38.0547 8.07682 38.0547 8.58984V11.5H37.3984ZM36.0312 10.875C36.3646 10.875 36.6315 10.7826 36.832 10.5977C37.0352 10.4102 37.1367 10.1484 37.1367 9.8125V9.4375L36.582 9.46094C36.1497 9.47656 35.8346 9.54948 35.6367 9.67969C35.4414 9.80729 35.3438 10.0039 35.3438 10.2695C35.3438 10.4622 35.401 10.612 35.5156 10.7188C35.6302 10.8229 35.8021 10.875 36.0312 10.875ZM43.1367 11.5H42.2148V8.84375C42.2148 8.51042 42.1471 8.26172 42.0117 8.09766C41.8789 7.93359 41.6667 7.85156 41.375 7.85156C40.987 7.85156 40.7031 7.96615 40.5234 8.19531C40.3438 8.42448 40.2539 8.80859 40.2539 9.34766V11.5H39.3359V7.17969H40.0547L40.1836 7.74609H40.2305C40.3607 7.54036 40.5456 7.38151 40.7852 7.26953C41.0247 7.15755 41.2904 7.10156 41.582 7.10156C42.6185 7.10156 43.1367 7.62891 43.1367 8.68359V11.5ZM48.2461 9.33203C48.2461 10.0378 48.0651 10.5885 47.7031 10.9844C47.3411 11.3802 46.8372 11.5781 46.1914 11.5781C45.7878 11.5781 45.431 11.487 45.1211 11.3047C44.8112 11.1224 44.5729 10.8607 44.4062 10.5195C44.2396 10.1784 44.1562 9.78255 44.1562 9.33203C44.1562 8.63151 44.3359 8.08464 44.6953 7.69141C45.0547 7.29818 45.5612 7.10156 46.2148 7.10156C46.8398 7.10156 47.3346 7.30339 47.6992 7.70703C48.0638 8.10807 48.2461 8.64974 48.2461 9.33203ZM45.1016 9.33203C45.1016 10.3294 45.4701 10.8281 46.207 10.8281C46.9362 10.8281 47.3008 10.3294 47.3008 9.33203C47.3008 8.34505 46.9336 7.85156 46.1992 7.85156C45.8138 7.85156 45.5339 7.97917 45.3594 8.23438C45.1875 8.48958 45.1016 8.85547 45.1016 9.33203Z" fill="#409F3E"/>
</svg>
