<svg width="16" height="16" viewBox="0 0 16 16" fill="none" xmlns="http://www.w3.org/2000/svg">
<path fill-rule="evenodd" clip-rule="evenodd" d="M5.99967 0.666748H9.99967C10.7361 0.666748 11.333 1.2637 11.333 2.00008V2.66675H13.333C14.0694 2.66675 14.6663 3.2637 14.6663 4.00008V5.33341C14.6663 6.06979 14.0694 6.66675 13.333 6.66675H13.2796L12.6664 14.0001C12.6664 14.7365 12.0694 15.3334 11.333 15.3334H4.66638C3.93 15.3334 3.33305 14.7365 3.33535 14.0554L2.71962 6.66675H2.66634C1.92996 6.66675 1.33301 6.06979 1.33301 5.33341V4.00008C1.33301 3.2637 1.92996 2.66675 2.66634 2.66675H4.66634V2.00008C4.66634 1.2637 5.26329 0.666748 5.99967 0.666748ZM2.66634 4.00008L4.66634 4.00008H11.333L13.333 4.00008V5.33342H2.66634V4.00008ZM4.05752 6.66675H11.942L11.3355 13.9447L11.3332 14.0001H4.66652L4.05752 6.66675ZM9.99967 2.00008V2.66675H5.99967V2.00008H9.99967Z" fill="#7F7F7F"/>
</svg>
