<svg width="10" height="13" viewBox="0 0 10 13" fill="none" xmlns="http://www.w3.org/2000/svg">
<path d="M8.38772 7.30715C8.3801 7.2362 8.34779 7.16996 8.2962 7.11951C8.24462 7.06906 8.17688 7.03747 8.10433 7.03001C8.02473 7.02067 7.94512 7.016 7.86711 7.01289C8.30431 6.43477 8.49132 5.71163 8.38772 4.99976C8.3801 4.92881 8.34779 4.86257 8.2962 4.81213C8.24462 4.76168 8.17688 4.73009 8.10433 4.72263C8.02473 4.71329 7.94512 4.70862 7.86711 4.7055C8.30456 4.1269 8.49157 3.40319 8.38772 2.69082C8.37915 2.62095 8.34662 2.55598 8.29545 2.5065C8.24427 2.45702 8.17747 2.42595 8.10592 2.41836C7.59995 2.35393 7.08555 2.4205 6.61413 2.61142C6.64025 2.47167 6.6541 2.32999 6.65553 2.18793C6.64829 1.77482 6.54402 1.36887 6.35078 1.00144C6.15753 0.634019 5.88049 0.314965 5.54106 0.0689362C5.48446 0.0243262 5.41395 0 5.34125 0C5.26856 0 5.19805 0.0243262 5.14145 0.0689362C4.80193 0.314883 4.52482 0.633919 4.33157 1.00136C4.13832 1.3688 4.0341 1.7748 4.02698 2.18793C4.0284 2.32999 4.04225 2.47167 4.06837 2.61142C3.59746 2.4207 3.08362 2.35413 2.57817 2.41836C2.5284 2.42398 2.48069 2.44102 2.43892 2.46807C2.39714 2.49512 2.36249 2.53143 2.33777 2.57405L2.92684 3.15012C2.92684 3.10964 2.92684 3.06916 2.92684 3.02712C3.20533 3.01496 3.48341 3.05884 3.74385 3.15606C4.0043 3.25328 4.24155 3.40175 4.44092 3.59229C4.63416 3.78838 4.78494 4.02058 4.88424 4.275C4.98355 4.52941 5.02933 4.80081 5.01885 5.07294C4.97587 5.07294 4.93447 5.07294 4.89149 5.07294L6.02187 6.17992C6.08904 6.08106 6.16582 5.98877 6.25113 5.90435C6.45165 5.71538 6.6891 5.56793 6.94926 5.47081C7.20942 5.3737 7.48694 5.32893 7.76521 5.33918C7.77625 5.61137 7.73072 5.88292 7.63138 6.13741C7.53205 6.3919 7.38097 6.62405 7.18728 6.81983C7.09741 6.90288 6.99927 6.97694 6.89434 7.04091L7.53118 7.65123C7.60967 7.64734 7.68831 7.64734 7.76681 7.65123C7.76552 7.72355 7.76073 7.79577 7.75248 7.86765L8.3113 8.41569C8.4095 8.05443 8.43545 7.67803 8.38772 7.30715ZM4.68133 2.18482C4.68635 1.91267 4.74745 1.6443 4.86098 1.39578C4.9745 1.14726 5.13812 0.923677 5.34205 0.73842C5.54597 0.923677 5.70959 1.14726 5.82312 1.39578C5.93665 1.6443 5.99775 1.91267 6.00277 2.18482C5.99775 2.45697 5.93665 2.72533 5.82312 2.97385C5.70959 3.22238 5.54597 3.44596 5.34205 3.63121C5.13812 3.44596 4.9745 3.22238 4.86098 2.97385C4.74745 2.72533 4.68635 2.45697 4.68133 2.18482ZM7.18251 4.50933C6.98242 4.69889 6.74505 4.84672 6.48478 4.94388C6.22452 5.04103 5.94678 5.08547 5.66843 5.0745C5.653 4.80188 5.69655 4.52914 5.79622 4.27409C5.8959 4.01905 6.04946 3.78743 6.24689 3.59437C6.44431 3.4013 6.68116 3.25112 6.94196 3.15365C7.20277 3.05617 7.48166 3.01359 7.76044 3.02868C7.77092 3.30081 7.72513 3.5722 7.62583 3.82662C7.52653 4.08104 7.37574 4.31324 7.18251 4.50933Z" fill="#381A56"/>
<path d="M2.64896 5.17054C2.57702 5.17825 2.50986 5.21091 2.45872 5.26307C2.40757 5.31522 2.37554 5.3837 2.36797 5.45705C2.26561 6.19297 2.451 6.94043 2.88417 7.53825C2.80524 7.53825 2.72631 7.53825 2.64896 7.55595C2.57702 7.56366 2.50986 7.59633 2.45872 7.64848C2.40757 7.70063 2.37554 7.76911 2.36797 7.84246C2.30572 8.26571 2.33998 8.6979 2.46811 9.10546C2.59623 9.51303 2.81477 9.88499 3.10675 10.1925C3.35569 10.4444 3.65149 10.6431 3.97679 10.7769C4.30208 10.9107 4.65031 10.9768 5.00103 10.9715H5.03418V11.8342C5.03418 11.9196 5.06745 12.0015 5.12665 12.0619C5.18586 12.1222 5.26617 12.1562 5.3499 12.1562C5.43363 12.1562 5.51393 12.1222 5.57314 12.0619C5.63235 12.0015 5.66561 11.9196 5.66561 11.8342V10.9635H5.73823C6.45353 10.9764 7.14456 10.699 7.65935 10.1925C7.76557 10.0844 7.86224 9.96696 7.94823 9.84157L7.48571 9.36674C7.40904 9.49706 7.31735 9.61756 7.21261 9.72568C7.01362 9.92031 6.77839 10.0723 6.52081 10.1726C6.26324 10.273 5.98854 10.3197 5.71297 10.31C5.70258 10.0286 5.74798 9.74806 5.84644 9.48504C5.9449 9.22202 6.0944 8.98196 6.28599 8.77924C6.39259 8.67196 6.51128 8.57795 6.63959 8.49917L6.05394 7.90041C5.9415 7.91655 5.82809 7.92461 5.71455 7.92455C5.71286 7.80776 5.71972 7.69101 5.73507 7.57527L2.43743 4.20801C2.52378 4.54991 2.6756 4.87102 2.88417 5.15284C2.80682 5.15767 2.72789 5.16088 2.64896 5.17054ZM4.49115 6.389C4.68275 6.59172 4.83225 6.83178 4.93071 7.0948C5.02917 7.35782 5.07457 7.63839 5.06418 7.91972C4.78838 7.92931 4.51349 7.88255 4.25568 7.78221C3.99787 7.68187 3.76234 7.52997 3.56295 7.33544C3.37091 7.13305 3.22112 6.89305 3.12263 6.62995C3.02414 6.36685 2.979 6.08611 2.98993 5.80472C3.2661 5.79391 3.54157 5.84009 3.79981 5.94049C4.05805 6.04089 4.29373 6.19345 4.49273 6.389H4.49115ZM4.49115 8.77441C4.68303 8.977 4.83282 9.21699 4.93156 9.48002C5.03029 9.74305 5.07594 10.0237 5.06576 10.3051C4.78998 10.3145 4.51514 10.2677 4.25735 10.1674C3.99957 10.067 3.76402 9.91523 3.56453 9.72085C3.37249 9.51846 3.2227 9.27846 3.12421 9.01536C3.02571 8.75226 2.98057 8.47153 2.99151 8.19013C3.26753 8.17851 3.54299 8.22432 3.80108 8.32477C4.05918 8.42522 4.29451 8.57821 4.49273 8.77441H4.49115Z" fill="#381A56"/>
<rect x="0.65564" y="2.33789" width="13.1063" height="0.935076" transform="rotate(44.5232 0.65564 2.33789)" fill="#381A56"/>
</svg>
