<svg width="360" height="640" viewBox="0 0 360 640" fill="none" xmlns="http://www.w3.org/2000/svg">
<g clip-path="url(#clip0)">
<rect width="360" height="640" fill="white"/>
<rect width="360" height="640" fill="#112C45"/>
<path d="M182.811 266.399C182.829 267.974 182.58 269.541 182.075 271.035C181.634 272.351 180.926 273.563 179.994 274.596C179.177 275.508 178.175 276.237 177.053 276.737C175.931 277.24 174.712 277.499 173.48 277.495C172.477 277.507 171.476 277.387 170.504 277.141C169.559 276.885 168.649 276.519 167.791 276.05V284.798H164.226V256.211H167.78V258.392C168.747 257.594 169.818 256.931 170.966 256.421C172.148 255.893 173.432 255.624 174.728 255.633C177.273 255.633 179.255 256.582 180.673 258.482C182.091 260.382 182.804 263.021 182.811 266.399ZM179.145 266.492C179.145 263.974 178.71 262.092 177.84 260.847C176.969 259.601 175.633 258.979 173.832 258.979C172.77 258.989 171.721 259.213 170.749 259.639C169.691 260.089 168.694 260.667 167.78 261.359V273.192C168.615 273.581 169.486 273.887 170.38 274.108C171.193 274.279 172.023 274.361 172.854 274.351C174.833 274.351 176.376 273.69 177.485 272.368C178.593 271.047 179.146 269.089 179.142 266.494L179.145 266.492Z" fill="white"/>
<path d="M203.466 266.661C203.466 270.062 202.584 272.748 200.819 274.719C199.055 276.69 196.692 277.674 193.731 277.672C190.744 277.672 188.372 276.688 186.613 274.719C184.854 272.75 183.974 270.064 183.974 266.661C183.974 263.259 184.854 260.57 186.613 258.594C188.372 256.618 190.744 255.63 193.731 255.63C196.692 255.63 199.055 256.618 200.819 258.594C202.584 260.57 203.466 263.259 203.466 266.661ZM199.8 266.661C199.8 263.957 199.264 261.947 198.192 260.631C197.12 259.315 195.633 258.658 193.731 258.659C191.803 258.659 190.306 259.317 189.24 260.631C188.174 261.945 187.642 263.955 187.646 266.661C187.646 269.278 188.182 271.263 189.254 272.614C190.326 273.964 191.819 274.641 193.734 274.643C195.625 274.643 197.109 273.973 198.186 272.633C199.264 271.293 199.801 269.302 199.797 266.661H199.8Z" fill="white"/>
<path d="M224.154 277.092H220.6V265.202C220.603 264.298 220.546 263.395 220.429 262.499C220.363 261.806 220.149 261.135 219.803 260.53C219.483 260.005 219.001 259.595 218.429 259.363C217.694 259.083 216.909 258.953 216.123 258.981C215.069 259 214.032 259.242 213.08 259.69C211.999 260.177 210.979 260.786 210.038 261.504V277.092H206.498V256.211H210.051V258.529C211.088 257.663 212.243 256.946 213.481 256.399C214.631 255.895 215.874 255.634 217.131 255.633C219.413 255.633 221.153 256.312 222.353 257.67C223.554 259.028 224.152 260.984 224.148 263.538L224.154 277.092Z" fill="white"/>
<path d="M246.067 274.719C246.067 278.259 245.254 280.858 243.629 282.516C242.004 284.174 239.502 285.002 236.123 285C235.026 285.001 233.93 284.923 232.844 284.765C231.782 284.61 230.731 284.389 229.697 284.103V280.514H229.887C230.788 280.838 231.705 281.115 232.635 281.346C233.869 281.673 235.14 281.84 236.417 281.842C237.437 281.87 238.454 281.725 239.424 281.411C240.105 281.194 240.719 280.808 241.21 280.291C241.7 279.775 242.05 279.143 242.227 278.455C242.422 277.704 242.514 276.931 242.502 276.156V274.247C241.567 275.015 240.534 275.657 239.429 276.156C238.453 276.574 237.208 276.783 235.694 276.783C233.173 276.783 231.172 275.883 229.692 274.081C228.211 272.279 227.475 269.738 227.482 266.456C227.448 264.877 227.707 263.305 228.249 261.82C228.724 260.575 229.433 259.43 230.338 258.447C231.17 257.547 232.189 256.837 233.325 256.366C234.429 255.888 235.619 255.636 236.824 255.627C237.86 255.604 238.895 255.727 239.897 255.992C240.807 256.271 241.685 256.644 242.516 257.105L242.744 256.208H246.072L246.067 274.719ZM242.513 271.365V259.968C241.667 259.579 240.783 259.276 239.875 259.063C239.077 258.884 238.263 258.792 237.445 258.79C235.492 258.79 233.955 259.438 232.833 260.735C231.712 262.031 231.151 263.913 231.151 266.38C231.151 268.723 231.567 270.499 232.399 271.708C233.231 272.917 234.611 273.522 236.538 273.522C237.602 273.516 238.656 273.316 239.647 272.933C240.674 272.551 241.64 272.023 242.513 271.365Z" fill="white"/>
<path d="M269 266.661C269 270.062 268.118 272.748 266.353 274.719C264.589 276.69 262.226 277.674 259.265 277.672C256.278 277.672 253.906 276.688 252.146 274.719C250.387 272.75 249.508 270.064 249.508 266.661C249.508 263.259 250.387 260.57 252.146 258.594C253.906 256.618 256.278 255.63 259.265 255.63C262.226 255.63 264.589 256.618 266.353 258.594C268.118 260.57 269 263.259 269 266.661ZM265.334 266.661C265.334 263.957 264.798 261.947 263.726 260.631C262.654 259.315 261.167 258.658 259.265 258.659C257.337 258.659 255.84 259.317 254.774 260.631C253.708 261.945 253.175 263.955 253.177 266.661C253.177 269.278 253.713 271.263 254.785 272.614C255.857 273.964 257.35 274.641 259.265 274.643C261.156 274.643 262.64 273.973 263.717 272.633C264.795 271.293 265.334 269.302 265.334 266.661Z" fill="white"/>
<path d="M159.661 261.37L148.667 264.798C148.908 265.613 149.306 266.374 149.838 267.04C150.272 267.58 150.822 268.016 151.448 268.317C152.074 268.618 152.76 268.776 153.455 268.78C154.202 268.785 154.944 268.671 155.654 268.441C156.702 268.107 157.676 267.578 158.526 266.884C159.428 266.157 160.034 265.534 160.346 265.016L160.48 264.975L161.343 267.683C160.612 268.298 159.841 268.863 159.035 269.377C158.206 269.9 157.31 270.311 156.371 270.598C153.896 271.371 151.753 271.311 149.943 270.418C148.132 269.526 146.84 267.861 146.065 265.423C145.295 263.01 145.35 260.887 146.23 259.055C147.109 257.222 148.638 255.967 150.817 255.289C152.832 254.662 154.573 254.759 156.039 255.581C157.505 256.402 158.577 257.883 159.254 260.023L159.661 261.37ZM156.61 260.23C156.185 258.93 155.532 258.021 154.651 257.503C153.77 256.985 152.661 256.939 151.325 257.364C149.98 257.784 149.035 258.511 148.489 259.546C147.942 260.575 147.792 261.767 148.068 262.897L156.61 260.23Z" fill="white"/>
<path d="M154.579 272.472L154.332 272.543C153.814 272.924 153.276 273.277 152.719 273.598C152.018 274.045 151.252 274.384 150.448 274.602C149.547 274.817 149.522 274.79 148.799 274.67C148.119 274.547 147.5 274.198 147.046 273.68C146.452 273.1 145.992 272.398 145.699 271.624C145.399 270.839 145.04 269.731 144.625 268.302L141.005 255.9L150.567 253.173L149.443 249.322L139.881 252.049L135.25 253.366L130.239 254.82L131.363 258.671L136.374 257.217L140.595 271.689C140.876 272.687 141.243 273.658 141.695 274.591C140.941 275.105 140.333 275.803 139.929 276.618C139.526 277.432 139.34 278.336 139.389 279.242C139.439 280.149 139.723 281.027 140.213 281.794C140.703 282.56 141.384 283.188 142.19 283.618C142.995 284.048 143.899 284.266 144.813 284.25C145.728 284.234 146.623 283.985 147.413 283.527C148.203 283.068 148.86 282.417 149.323 281.634C149.786 280.851 150.038 279.963 150.055 279.055L150.404 278.962C151.321 278.691 152.218 278.356 153.087 277.959C154.007 277.555 154.902 277.1 155.769 276.595L154.579 272.472ZM144.718 281.002C144.313 281.001 143.917 280.88 143.581 280.655C143.245 280.431 142.983 280.113 142.83 279.741C142.676 279.369 142.636 278.96 142.716 278.566C142.796 278.172 142.992 277.81 143.279 277.527C143.566 277.243 143.932 277.05 144.329 276.972C144.727 276.894 145.139 276.935 145.513 277.089C145.887 277.243 146.207 277.504 146.432 277.839C146.656 278.173 146.777 278.566 146.777 278.968C146.774 279.508 146.557 280.026 146.171 280.407C145.785 280.788 145.262 281.002 144.718 281.002Z" fill="white"/>
<path d="M134.84 252.466L133.356 247.367C132.68 245.431 131.789 245.052 131.495 244.912C130.616 244.544 128.829 244.435 125.256 246.05L123.286 241.793C127.474 239.884 130.772 239.51 133.37 240.62C135.45 241.509 136.959 243.287 137.858 245.908L137.899 246.003L139.391 251.185L134.84 252.466Z" fill="white"/>
<path d="M111.019 279.153H106.33L97.8597 270.001L95.5537 272.183V279.156H92V250.067H95.5537V268.722L105.819 258.275H110.299L100.487 267.921L111.019 279.153Z" fill="white"/>
<path d="M130 269.077H114.441C114.416 270.222 114.615 271.361 115.026 272.431C115.363 273.3 115.892 274.083 116.574 274.722C117.256 275.361 118.074 275.84 118.968 276.123C119.933 276.434 120.943 276.586 121.958 276.573C123.442 276.564 124.91 276.277 126.287 275.728C127.742 275.161 128.778 274.603 129.395 274.054H129.585V277.882C128.392 278.379 127.167 278.797 125.919 279.134C124.636 279.475 123.313 279.645 121.986 279.639C118.486 279.639 115.751 278.699 113.781 276.819C111.812 274.939 110.829 272.276 110.832 268.829C110.832 265.414 111.774 262.704 113.658 260.697C115.541 258.689 118.021 257.69 121.098 257.697C123.945 257.697 126.144 258.515 127.694 260.151C129.244 261.787 130.017 264.124 130.011 267.162L130 269.077ZM126.54 266.385C126.527 264.542 126.058 263.115 125.133 262.104C124.207 261.093 122.799 260.588 120.908 260.59C119.004 260.59 117.489 261.145 116.362 262.254C115.236 263.353 114.553 264.822 114.438 266.385H126.54Z" fill="white"/>
<g clip-path="url(#clip1)">
<path d="M327.937 591.555L327.587 591.679C328.053 590.105 327.963 588.535 327.285 587.114C325.763 583.922 321.355 581.758 317.571 580.432C317.572 580.41 317.573 580.386 317.575 580.365C317.624 579.297 317.036 578.294 316.073 577.811C315.305 577.426 314.475 577.082 313.609 576.788C312.9 576.548 312.132 576.928 311.892 577.636C311.652 578.345 312.031 579.114 312.739 579.353C313.49 579.607 314.203 579.904 314.869 580.239C314.856 580.529 314.836 580.888 314.811 581.301C314.613 584.441 313.928 592.123 311.8 597.278L307.592 598.77C307.668 597.043 307.436 594.215 306.575 589.343C305.851 585.245 304.903 580.99 304.233 578.133C305.153 578.125 306.235 578.154 307.397 578.264C307.6 578.282 307.795 578.256 307.975 578.192C308.457 578.021 308.821 577.584 308.872 577.041C308.941 576.296 308.394 575.637 307.649 575.567C306.088 575.42 304.66 575.406 303.536 575.436C303.14 574.571 302.309 573.962 301.338 573.868C299.228 573.661 294.762 573.641 288.546 575.832C286.462 576.576 284.69 577.388 283.196 578.197L281.771 574.178C280.59 570.847 276.919 569.098 273.588 570.28L267.686 572.373L266.067 567.807C265.817 567.103 265.043 566.734 264.338 566.984L246.215 573.411C245.51 573.661 245.141 574.435 245.391 575.14C245.641 575.844 246.415 576.214 247.12 575.963L263.967 569.989L271.167 590.293C270.117 591.615 269.153 593.094 268.42 594.712C267.978 595.693 268.153 596.842 268.864 597.64C268.878 597.655 268.895 597.674 268.909 597.69C267.006 600.777 265.142 604.716 265.415 607.981L249.806 613.517C249.384 613.666 248.918 613.445 248.769 613.023L236.91 579.584L241.59 577.925C242.295 577.675 242.663 576.901 242.413 576.196C242.163 575.491 241.39 575.122 240.684 575.372L234.728 577.484C234.023 577.735 233.655 578.509 233.905 579.213L246.216 613.928C246.793 615.554 248.449 616.49 250.095 616.224L251.021 618.833L248.468 619.738C246.357 620.487 245.249 622.814 245.997 624.925C246.746 627.036 249.073 628.145 251.184 627.396L252.375 626.973L252.526 627.399C253.375 629.792 256.011 631.048 258.404 630.199L326.812 605.939C329.205 605.09 330.461 602.454 329.612 600.061L329.461 599.635L330.653 599.213C332.764 598.464 333.872 596.137 333.124 594.026C332.375 591.915 330.048 590.807 327.937 591.555ZM317.383 583.244C321.317 584.713 323.998 586.511 324.841 588.279C325.491 589.643 325.14 591.346 323.885 592.992L315.099 596.108C316.449 591.846 317.086 586.825 317.383 583.244ZM301.074 576.563L301.216 577.153C301.844 579.757 303.028 584.855 303.892 589.727C305.318 597.762 304.84 599.506 304.72 599.789L291.084 604.625C290.807 604.477 289.335 603.413 285.388 596.289C282.989 591.961 280.696 587.257 279.543 584.838L279.498 584.743C279.497 584.741 279.495 584.738 279.494 584.735L279.283 584.291C280.368 583.219 283.533 580.496 289.451 578.384C295.382 576.293 299.554 576.414 301.074 576.563ZM268.622 574.914L274.492 572.832C276.416 572.15 278.536 573.161 279.218 575.084L280.825 579.615C279.913 580.22 279.16 580.794 278.55 581.304L276.907 576.67C276.591 575.779 275.608 575.31 274.717 575.626L269.527 577.467L268.622 574.914ZM274.686 578.511L276.602 583.913C276.573 584.121 276.567 584.332 276.587 584.542L272.514 585.986L270.401 580.03L274.686 578.511ZM273.685 591.485C273.722 591.446 273.757 591.406 273.788 591.363C273.792 591.358 273.796 591.353 273.8 591.348C275.137 589.778 276.593 588.476 277.818 587.5C279.098 590.141 281.043 594.043 283.062 597.682C285.464 602.008 287.065 604.349 288.213 605.643L284.008 607.134C279.095 604.469 273.729 598.938 271.601 596.627C271.32 596.32 271.079 596.054 270.888 595.828C271.612 594.228 272.607 592.77 273.685 591.485ZM270.826 599.756C273.31 602.347 276.966 605.845 280.707 608.305L271.853 611.445C269.953 610.963 268.647 609.903 268.243 608.494C268.23 608.453 268.219 608.411 268.208 608.364C267.749 606.46 268.698 603.375 270.826 599.756ZM252.668 615.375L266.198 610.577C266.675 611.42 267.353 612.15 268.198 612.741L253.573 617.928L252.668 615.375ZM329.747 596.66L262.807 620.4C262.102 620.65 261.734 621.424 261.984 622.129C262.234 622.834 263.007 623.203 263.713 622.953L326.909 600.54L327.06 600.966C327.409 601.951 326.892 603.037 325.907 603.386L257.499 627.647C256.514 627.996 255.428 627.479 255.078 626.494L254.928 626.068L258.246 624.891C258.951 624.641 259.319 623.867 259.07 623.162C258.82 622.458 258.046 622.089 257.341 622.339L250.279 624.843C249.575 625.093 248.799 624.724 248.55 624.02C248.3 623.316 248.669 622.54 249.373 622.291L328.842 594.108C329.546 593.858 330.321 594.227 330.571 594.931C330.821 595.635 330.451 596.411 329.747 596.66Z" fill="white" fill-opacity="0.07"/>
</g>
<g clip-path="url(#clip2)">
<path d="M164.965 60.8563C164.102 60.6854 163.265 61.2362 163.097 62.0859C162.929 62.9356 163.493 63.764 164.356 63.9349C165.218 64.1059 166.055 63.555 166.224 62.7053C166.392 61.8556 165.828 61.0273 164.965 60.8563Z" fill="white" fill-opacity="0.07"/>
<path d="M159.937 58.4582C156.831 55.8626 155.382 51.822 156.156 47.9131C156.325 47.0629 155.761 46.2351 154.898 46.0641C154.035 45.893 153.198 46.4435 153.03 47.2937C152.034 52.3199 153.895 57.514 157.885 60.8488C158.1 61.0278 158.348 61.1419 158.605 61.1928C159.154 61.3017 159.744 61.1215 160.13 60.6717C160.696 60.0116 160.61 59.0206 159.937 58.4582Z" fill="white" fill-opacity="0.07"/>
<path d="M200.608 12.5674L184.975 9.47037C184.21 9.31889 183.45 9.73425 183.177 10.4522L178.006 24.0869L177.177 23.9227C177.632 19.9313 176.659 15.9473 174.378 12.5698C171.789 8.73305 167.821 6.10223 163.202 5.15898C163.194 5.15693 163.185 5.15535 163.176 5.15347C163.172 5.15275 163.169 5.15161 163.166 5.1509C163.164 5.15049 163.162 5.15043 163.16 5.15006C163.136 5.14474 163.112 5.13941 163.088 5.13452C158.476 4.22086 153.781 5.16875 149.87 7.80304C146.071 10.3581 143.47 14.2034 142.544 18.6317C142.543 18.6355 142.543 18.6393 142.542 18.6431C142.54 18.6489 142.538 18.6543 142.537 18.6601C142.536 18.6641 142.536 18.6681 142.536 18.672C142.525 18.7194 142.515 18.767 142.506 18.8139C141.61 23.3365 142.557 27.9429 145.171 31.7845C145.171 31.7845 145.171 31.7846 145.171 31.7847C146.467 33.6881 148.145 35.3309 150.071 36.5939C149.666 37.3798 149.297 38.1562 148.961 38.941C148.027 41.1208 147.331 43.3561 146.837 45.7601C146.816 45.8577 146.796 45.9573 146.777 46.055C145.717 51.4013 146.836 56.8451 149.926 61.3833C152.105 64.5857 155.081 67.0667 158.552 68.629L155.823 82.4008L144.88 80.2328C144.016 80.0618 143.18 80.6124 143.012 81.4624C142.843 82.3124 143.407 83.1404 144.27 83.3114L175.537 89.5055C176.4 89.6765 177.237 89.1259 177.405 88.2759C177.574 87.4259 177.01 86.598 176.147 86.4269L165.203 84.259L167.933 70.4823C177.299 70.1655 185.552 63.5524 187.423 54.1073L187.447 53.9903C187.853 51.9075 188.116 49.5316 188.2 47.249C188.219 47.1914 188.235 47.1326 188.247 47.0716C188.294 46.8344 188.282 46.5995 188.225 46.3797C188.253 44.7671 188.187 43.2655 188.027 41.9132L186.251 26.8345C186.171 26.155 185.655 25.6021 184.974 25.4672L181.175 24.7148L185.69 12.8115L199.998 15.646C200.862 15.817 201.698 15.2665 201.866 14.4164C202.035 13.5662 201.471 12.7384 200.608 12.5674ZM174.038 23.3008L164.027 21.3176L172.542 15.6699C173.771 18.0261 174.289 20.6562 174.038 23.3008ZM164.101 8.63219C166.725 9.46023 169.024 10.9807 170.776 13.0461L162.084 18.8106L164.101 8.63219ZM160.513 23.8208L176.877 27.0627L171.177 42.0905L152.708 38.4317C152.951 37.9461 153.207 37.4576 153.485 36.9594C153.489 36.9511 153.494 36.9426 153.498 36.9342L160.513 23.8208ZM160.977 7.99816L158.939 18.2871L153.024 9.59608C155.479 8.29828 158.222 7.74672 160.977 7.99816ZM150.402 11.3658L156.108 19.7488L146.075 17.7613C146.892 15.2731 148.382 13.0715 150.402 11.3658ZM145.428 20.8324L155.87 22.9011C155.757 22.9425 155.647 22.996 155.542 23.0649L146.998 28.6889C145.711 26.2628 145.166 23.5533 145.428 20.8324ZM148.778 31.3039L155.14 27.1157L151.561 33.8063C150.531 33.0978 149.592 32.2539 148.778 31.3039ZM162.077 83.6396L158.95 83.0202L161.572 69.7823L164.699 70.4017L162.077 83.6396ZM184.319 53.3755L184.297 53.4879L184.297 53.4879C182.447 62.8243 173.228 68.8918 163.746 67.0134C159.151 66.1032 155.182 63.4865 152.568 59.6444C149.954 55.8043 149.007 51.1981 149.903 46.6744C149.919 46.5938 149.935 46.5116 149.956 46.4164C150.32 44.6459 150.802 42.9861 151.415 41.375L171.889 45.4309C171.891 45.4313 171.893 45.4318 171.895 45.4322C171.896 45.4325 171.898 45.4327 171.9 45.4331L184.974 48.023C184.867 49.8613 184.642 51.7223 184.319 53.3755ZM183.221 28.3194L184.863 42.258C184.956 43.0446 185.014 43.9168 185.036 44.8359L174.347 42.7184L180.047 27.6906L183.221 28.3194Z" fill="white" fill-opacity="0.07"/>
</g>
<g clip-path="url(#clip3)">
<path d="M131.753 474.759C124.18 472.043 114.986 470.791 105.858 471.231C105.852 471.231 105.846 471.231 105.84 471.232C105.83 471.232 105.821 471.232 105.811 471.233C101.599 471.438 97.414 472.001 93.351 472.899C90.0044 471.085 79.3594 466.193 65.2516 468.414C62.9073 468.782 60.8917 470.181 59.719 472.251C58.5393 474.334 58.3772 476.8 59.2744 479.018L63.4172 489.26C53.4614 499.49 47.376 512.068 44.3727 519.494C42.0343 515.924 38.345 511.708 33.0602 509.467C22.997 505.201 11.584 510.164 11.1061 510.377C9.71111 510.996 9.03508 512.59 9.56059 514.023C9.74125 514.517 14.1102 526.164 24.1725 530.43C26.6689 531.489 29.2332 531.968 31.6953 532.088C30.0168 533.905 28.512 536.046 27.4537 538.542C23.1889 548.607 28.1469 560.016 28.3602 560.497C28.9787 561.892 30.5733 562.568 32.0063 562.043C32.053 562.026 32.1997 561.972 32.4307 561.878C34.64 560.985 44.5556 556.542 48.4169 547.43C50.6763 542.101 50.3477 536.395 49.5067 532.134C54.8742 534.51 63.3504 537.722 73.1221 539.446L76.9197 548.834C77.8514 551.138 79.7641 552.819 82.1671 553.447C83.82 553.879 85.5137 553.764 87.0414 553.146C87.7382 552.864 88.4006 552.478 89.0085 551.991C94.7228 547.421 98.2072 541.891 99.7317 539.103C102.058 538.536 104.313 537.816 106.45 536.952C113.786 533.984 120.627 529.781 126.783 524.459C126.787 524.456 126.791 524.452 126.796 524.449C141.152 512.037 149.873 494.629 146.236 485.639C144.502 481.35 139.359 477.486 131.753 474.759ZM26.4356 525.095C21.2731 522.906 17.9184 517.844 16.2516 514.702C19.6598 513.71 25.608 512.602 30.7988 514.803C35.9566 516.989 39.2703 521.947 40.9118 525.023C37.5756 526.059 31.6124 527.289 26.4356 525.095ZM43.0818 545.168C40.8954 550.327 35.8392 553.68 32.6952 555.348C31.7086 551.927 30.6046 545.962 32.7903 540.804C34.9861 535.625 40.0753 532.266 43.1831 530.619C44.1747 534.026 45.2832 539.975 43.0818 545.168ZM64.6472 476.845C64.4169 476.275 64.4587 475.642 64.7623 475.106C64.936 474.799 65.3485 474.265 66.152 474.138C73.5729 472.971 79.943 474.092 84.4225 475.479C83.5946 475.778 82.7745 476.091 81.964 476.419C77.0614 478.402 72.3641 481.289 67.9541 485.019L64.6472 476.845ZM85.389 547.465C84.8906 547.864 84.2503 548.001 83.6338 547.839C83.273 547.745 82.619 547.467 82.2929 546.661L79.7354 540.338C84.0245 540.735 88.1501 540.745 92.0839 540.372C90.4753 542.594 88.2603 545.169 85.389 547.465ZM104.277 531.578C102.039 532.484 99.6476 533.213 97.1722 533.746C90.7009 535.133 83.4597 535.216 75.6494 533.992C63.3446 532.062 52.7632 527.355 48.4041 525.213C50.4968 519.39 56.9543 503.561 68.8381 492.035C68.8525 492.021 68.8674 492.008 68.8814 491.994C73.628 487.4 78.7604 483.967 84.1373 481.792C87.1621 480.568 90.331 479.559 93.5573 478.793C96.0197 478.207 98.5371 477.76 101.082 477.45C97.8652 485.714 97.8525 495.976 101.306 504.513C104.459 512.308 111.317 519.322 119.185 523.136C114.545 526.613 109.549 529.446 104.277 531.578ZM124.216 518.991C116.576 516.21 109.65 509.687 106.678 502.341C103.428 494.305 103.869 484.114 107.663 476.963C125.368 476.494 138.855 482.843 140.865 487.811C142.908 492.863 137.52 506.95 124.216 518.991Z" fill="white" fill-opacity="0.07"/>
<path d="M124.304 490.684C122.82 491.284 122.104 492.974 122.704 494.457L123.191 495.661C123.791 497.144 125.48 497.86 126.964 497.26C128.447 496.66 129.164 494.971 128.563 493.487L128.077 492.284C127.476 490.801 125.787 490.084 124.304 490.684Z" fill="white" fill-opacity="0.07"/>
<path d="M90.5119 487.168C89.0227 486.581 87.3406 487.313 86.7541 488.802C86.6062 489.177 86.467 489.564 86.34 489.953C85.8431 491.474 86.6733 493.11 88.1949 493.607C88.8706 493.828 89.5687 493.787 90.18 493.54C90.9447 493.23 91.573 492.598 91.8488 491.752C91.9403 491.473 92.0403 491.194 92.1461 490.925C92.7327 489.436 92.001 487.754 90.5119 487.168Z" fill="white" fill-opacity="0.07"/>
<path d="M103.496 520.157C99.1196 517.927 95.2977 513.405 93.0103 507.751C91.7296 504.585 91.0238 501.246 90.9696 498.095C90.9419 496.495 89.6224 495.22 88.0224 495.247C86.422 495.275 85.1474 496.594 85.1749 498.195C85.2416 502.049 86.0931 506.105 87.6376 509.923C90.4411 516.854 95.2623 522.466 100.865 525.321C101.644 525.718 102.517 525.729 103.268 525.425C103.893 525.172 104.433 524.702 104.763 524.055C105.489 522.629 104.922 520.884 103.496 520.157Z" fill="white" fill-opacity="0.07"/>
</g>
<g clip-path="url(#clip4)">
<path d="M298.666 142.551L294.891 143.872L296.212 147.647L299.987 146.326L298.666 142.551Z" fill="white" fill-opacity="0.07"/>
<path d="M345.052 166.728L318.198 175.962L308.806 141.267C308.659 140.732 308.298 140.28 307.808 140.02C307.313 139.782 306.747 139.74 306.222 139.901L302.447 141.222L303.766 144.998L305.517 144.396L307.391 151.316L302.953 156.244C298.326 161.36 291.574 164.019 284.701 163.432L281.088 152.925L292.424 148.962L291.105 145.186L279.793 149.141L276.852 140.588L292.422 121.066L289.29 118.562L273.04 138.953C272.614 139.488 272.491 140.203 272.713 140.85L276.018 150.46L249.599 159.697C248.557 160.062 248.008 161.203 248.373 162.245C248.386 162.284 248.401 162.322 248.417 162.36L261.375 193.198C260.961 195.587 260.802 198.012 260.902 200.434C255.542 195.638 248.009 194.112 241.204 196.444C240.16 196.803 239.604 197.941 239.963 198.985C241.222 202.656 243.535 205.875 246.613 208.238C245.933 208.923 245.345 209.694 244.864 210.531L244.482 211.204C239.825 219.359 240.174 229.444 245.384 237.258L248.075 241.325C251.453 246.434 256.597 250.116 262.522 251.668C267.639 253.029 273.086 251.389 276.601 247.429L276.43 247.277C280.33 247.107 284.196 246.468 287.943 245.373C288.328 245.262 288.706 245.132 289.1 245.005L289.153 245.16L314.091 236.585C342.274 226.922 357.287 196.242 347.624 168.059C347.614 168.029 347.604 167.999 347.593 167.969C347.234 166.924 346.096 166.369 345.052 166.728ZM319.131 181.023L318.776 179.992L337.61 173.516C342.153 189.098 337.513 205.91 325.62 216.955C322.651 219.707 319.303 222.02 315.678 223.823C317.666 220.376 319.197 216.685 320.233 212.844C323.062 202.366 322.678 191.28 319.131 181.023ZM277.318 154.243L280.462 163.386C273.668 163.799 267.306 166.855 262.735 171.898L258.663 176.426L252.927 162.769L277.318 154.243ZM266.452 189.405L266.58 189.027L263.525 187.995L260.378 180.51L265.701 174.575C270.367 169.409 277.197 166.747 284.128 167.393C292.322 168.163 300.397 165.017 305.912 158.909L308.616 155.904L312.141 168.911C311.607 168.732 311.053 168.62 310.492 168.58L307.261 168.373C305.535 168.258 303.851 168.939 302.688 170.22C301.495 171.53 300.968 173.314 301.257 175.062C303.247 187.369 300.816 199.983 294.395 210.669C291.753 205.149 287.161 200.804 281.504 198.47L280.789 198.174C275.803 196.088 270.042 197.979 267.262 202.614L265.564 205.418C264.4 200.099 264.707 194.563 266.452 189.405ZM261.848 208.092C254.855 209.468 247.8 206.023 244.584 199.663C251.577 198.29 258.63 201.734 261.848 208.092ZM263.537 247.802C258.564 246.498 254.246 243.407 251.41 239.119L248.718 235.054C244.344 228.49 244.055 220.019 247.971 213.172L248.353 212.5C248.828 211.696 249.46 210.996 250.211 210.442C254.905 212.693 260.298 213.004 265.22 211.308C265.337 211.254 265.447 211.189 265.551 211.113C266.602 210.675 267.489 209.916 268.085 208.946L270.666 204.675C272.431 201.735 276.086 200.537 279.249 201.861L279.964 202.157C285.493 204.435 289.773 208.985 291.71 214.644C286.127 222.335 278.573 228.377 269.844 232.133L261.685 235.643C260.722 236.057 260.242 237.145 260.586 238.136L262.955 245.025C263.188 245.697 263.762 246.195 264.461 246.332L264.777 246.396C266.634 246.763 268.511 247.021 270.397 247.169C268.257 248.181 265.827 248.405 263.537 247.802ZM286.822 241.534L286.82 241.536C280.177 243.473 273.176 243.845 266.365 242.623L264.975 238.582L271.422 235.807C295.409 225.499 309.328 200.213 305.206 174.432C305.112 173.886 305.275 173.327 305.647 172.916C305.991 172.534 306.492 172.331 307.004 172.367L310.236 172.576C311.322 172.643 312.261 173.359 312.612 174.389L315.343 182.332C318.63 191.835 318.986 202.106 316.367 211.814C312.429 226.226 301.211 237.511 286.822 241.534ZM312.791 232.803L306.764 234.875C308.543 233.258 310.194 231.503 311.699 229.628L311.759 229.803C317.921 227.698 323.571 224.318 328.341 219.885C341.391 207.763 346.448 189.295 341.392 172.216L344.423 171.173C352.155 196.88 338.184 224.099 312.791 232.803Z" fill="white" fill-opacity="0.07"/>
<path d="M326.851 181.445L323.069 182.746L324.369 186.528L328.152 185.227L326.851 181.445Z" fill="white" fill-opacity="0.07"/>
<path d="M327.68 202.307L323.898 203.607L325.199 207.389L328.981 206.089L327.68 202.307Z" fill="white" fill-opacity="0.07"/>
<path d="M330.753 192.792L326.97 194.092L328.271 197.874L332.053 196.574L330.753 192.792Z" fill="white" fill-opacity="0.07"/>
</g>
<g clip-path="url(#clip5)">
<path d="M111.362 137.269C108.047 131.132 102.355 124.825 94.4425 118.522C79.2253 106.401 60.0028 97.5192 52.4444 94.2631C32.8604 85.8265 10.1212 94.763 1.75491 114.184L-4.67369 129.107C-13.0401 148.528 -3.91383 171.191 15.6702 179.628C24.7006 183.518 32.691 183.634 41.1506 183.757C49.8991 183.885 58.945 184.016 69.7433 188.668C83.9684 194.796 100.485 188.305 106.562 174.199L112.991 159.276C116.011 152.266 115.462 144.862 111.362 137.269ZM93.8289 172.98C94.2739 174.19 95.6188 174.817 96.8324 174.382C98.8795 173.647 100.818 172.682 102.614 171.517L102.257 172.344C97.1943 184.097 83.4337 189.505 71.5824 184.399C59.9222 179.376 50.3998 179.237 41.1908 179.103C33.2131 178.987 25.6778 178.878 17.5093 175.359C0.973666 168.235 -7.07552 149.57 -1.15976 132.98C0.188057 146.486 8.69224 158.929 22.099 164.705C31.1294 168.595 39.1198 168.711 47.5794 168.834C56.3278 168.961 65.3738 169.093 76.1721 173.745C76.9743 174.091 77.8009 174.402 78.6292 174.671C79.8602 175.071 81.1781 174.405 81.5729 173.184C81.9676 171.962 81.2884 170.648 80.0587 170.248C79.3686 170.024 78.6799 169.764 78.0111 169.476C66.3509 164.453 56.8284 164.314 47.6195 164.18C39.6418 164.064 32.1065 163.955 23.938 160.436C6.72776 153.022 -1.29227 133.105 6.05984 116.039C13.412 98.9718 33.395 91.1185 50.6052 98.5325C57.989 101.713 76.7575 110.382 91.529 122.148C107.512 134.88 113.284 146.747 108.686 157.421C106.176 163.248 101.268 167.833 95.2204 170.002C94.0068 170.437 93.3837 171.77 93.8289 172.98Z" fill="white" fill-opacity="0.07"/>
<path d="M91.4718 173.58C91.425 172.295 90.3396 171.285 89.0481 171.324C89.0296 171.324 89.0048 171.325 88.9863 171.326C87.696 171.395 86.7127 172.492 86.79 173.775C86.8449 174.686 87.4189 175.446 88.2086 175.786C88.5276 175.923 88.8818 175.992 89.2511 175.975C90.5266 175.919 91.518 174.853 91.4718 173.58Z" fill="white" fill-opacity="0.07"/>
<path d="M64.0453 110.097L63.9383 110.04C62.791 109.437 61.3786 109.866 60.7778 111C60.1771 112.135 60.618 113.544 61.7625 114.149L61.8688 114.204C61.9251 114.234 61.982 114.262 62.0397 114.286C63.1506 114.765 64.4578 114.323 65.0294 113.245C65.6304 112.111 65.1897 110.702 64.0453 110.097Z" fill="white" fill-opacity="0.07"/>
<path d="M105.514 149.237C105.182 144.133 101.989 138.47 96.0241 132.406C91.1978 127.499 85.445 123.235 81.469 120.521C79.086 118.895 76.555 117.269 73.9461 115.689C72.8404 115.017 71.4008 115.364 70.7328 116.461C70.0651 117.557 70.4215 118.99 71.5285 119.66C74.0645 121.196 76.5229 122.775 78.8357 124.353C92.3826 133.598 100.404 142.767 100.843 149.509C100.935 150.926 100.684 152.3 100.076 153.712C97.0413 160.756 88.7931 163.998 81.6893 160.937C74.5068 157.843 67.0306 156.003 58.8333 155.31C55.3026 155.012 51.7746 154.955 48.3628 154.899C46.1062 154.862 43.7728 154.824 41.4869 154.716C35.7183 154.443 31.5698 153.6 27.6163 151.897C15.1537 146.528 9.34588 132.106 14.6698 119.747C19.9939 107.388 34.4645 101.701 46.9271 107.07C49.3584 108.118 51.807 109.227 54.2044 110.366C54.6114 110.559 55.0182 110.754 55.4246 110.951C56.5883 111.515 57.9883 111.035 58.548 109.879C59.1079 108.724 58.617 107.331 57.4518 106.767C57.0357 106.566 56.619 106.367 56.2025 106.169C53.7527 105.004 51.2507 103.871 48.766 102.801C33.9296 96.4095 16.7028 103.179 10.3646 117.892C4.02655 132.605 10.9404 149.774 25.777 156.166C30.2833 158.107 34.9235 159.064 41.2927 159.365C43.6513 159.477 46.0218 159.515 48.3144 159.553C51.6475 159.607 55.0942 159.664 58.4653 159.948C66.1476 160.597 73.1427 162.317 79.8503 165.206C89.3277 169.29 100.332 164.965 104.381 155.567C105.284 153.47 105.655 151.4 105.514 149.237Z" fill="white" fill-opacity="0.07"/>
<path d="M47.17 112.18C41.1525 109.588 34.36 111.881 32.0288 117.293C29.6975 122.704 32.6968 129.216 38.7144 131.808C44.7322 134.401 51.5244 132.107 53.8557 126.695C56.1869 121.284 53.1878 114.772 47.17 112.18ZM40.5536 127.539C36.9096 125.969 35.0167 122.205 36.3339 119.147C37.651 116.09 41.687 114.879 45.331 116.449C48.975 118.019 50.8679 121.783 49.5507 124.841C48.2336 127.898 44.1976 129.109 40.5536 127.539Z" fill="white" fill-opacity="0.07"/>
</g>
<g clip-path="url(#clip6)">
<path d="M276.368 356.275C258.597 348.444 237.768 356.531 229.937 374.303C222.106 392.074 230.193 412.903 247.965 420.734C265.736 428.565 286.565 420.478 294.396 402.707C302.227 384.935 294.14 364.106 276.368 356.275ZM249.839 416.48C234.413 409.683 227.394 391.603 234.191 376.177C240.988 360.751 259.068 353.731 274.494 360.529C289.92 367.326 296.94 385.406 290.142 400.832C283.345 416.258 265.265 423.278 249.839 416.48Z" fill="white" fill-opacity="0.07"/>
<path d="M285.826 386.516C285.718 385.237 284.593 384.288 283.314 384.396C283.271 384.4 283.229 384.408 283.187 384.414C281.973 384.583 281.09 385.673 281.194 386.909C281.463 390.068 280.924 393.281 279.636 396.203C275.392 405.836 264.101 410.219 254.469 405.975C244.835 401.73 240.452 390.439 244.697 380.807C248.942 371.174 260.232 366.79 269.865 371.035C270.789 371.442 271.685 371.924 272.526 372.466C273.57 373.139 274.946 372.867 275.664 371.875C275.69 371.84 275.716 371.807 275.739 371.771C276.434 370.692 276.123 369.253 275.044 368.558C273.997 367.884 272.885 367.286 271.739 366.781C259.761 361.503 245.721 366.954 240.443 378.932C235.165 390.911 240.616 404.95 252.594 410.228C264.572 415.507 278.612 410.056 283.89 398.077C285.491 394.445 286.16 390.448 285.826 386.516Z" fill="white" fill-opacity="0.07"/>
<path d="M283.587 376.72C283.532 376.579 283.463 376.442 283.38 376.314C283.299 376.187 283.204 376.066 283.098 375.956C282.994 375.846 282.878 375.747 282.754 375.659C282.504 375.483 282.221 375.359 281.922 375.293C281.774 375.261 281.624 375.243 281.471 375.239C281.32 375.236 281.168 375.247 281.019 375.273C280.868 375.298 280.72 375.34 280.577 375.394C280.436 375.448 280.301 375.518 280.171 375.601C280.044 375.682 279.924 375.776 279.813 375.883C279.744 375.948 279.681 376.02 279.621 376.094C279.585 376.138 279.55 376.181 279.517 376.227C279.43 376.351 279.355 376.485 279.294 376.624C279.232 376.764 279.184 376.908 279.151 377.059C279.118 377.207 279.101 377.357 279.097 377.509C279.094 377.661 279.105 377.813 279.131 377.962C279.158 378.113 279.198 378.26 279.252 378.401C279.309 378.543 279.378 378.68 279.461 378.81C279.542 378.938 279.636 379.058 279.74 379.167C279.847 379.278 279.961 379.376 280.085 379.464C280.211 379.552 280.345 379.627 280.484 379.688C280.622 379.749 280.768 379.798 280.916 379.83C281.064 379.863 281.216 379.881 281.367 379.884C281.499 379.888 281.629 379.878 281.758 379.859C281.779 379.856 281.8 379.854 281.821 379.851C281.973 379.824 282.121 379.782 282.262 379.727C282.403 379.673 282.54 379.603 282.668 379.52C282.795 379.439 282.915 379.345 283.025 379.24C283.135 379.134 283.235 379.018 283.321 378.896C283.41 378.77 283.486 378.638 283.548 378.498C283.794 377.939 283.808 377.29 283.587 376.72Z" fill="white" fill-opacity="0.07"/>
<path d="M303.075 442.905L320.932 383.685C322.175 379.563 322.587 375.301 322.156 371.017C321.891 368.388 321.306 365.793 320.415 363.304L320.316 363.027C319.558 360.907 317.613 359.574 315.362 359.631C313.111 359.688 311.236 361.118 310.586 363.274L287.948 438.344C287.876 438.585 287.815 438.827 287.766 439.069C287.034 442.699 288.949 446.366 292.321 447.852C292.613 447.98 292.917 448.093 293.231 448.188C295.707 448.934 298.269 448.402 300.206 446.974C300.41 446.823 300.607 446.663 300.796 446.493C300.985 446.323 301.167 446.144 301.339 445.956C302.117 445.109 302.721 444.078 303.075 442.905ZM315.037 364.616C315.064 364.526 315.136 364.287 315.48 364.278C315.574 364.275 315.649 364.291 315.709 364.318C315.866 364.387 315.917 364.529 315.939 364.593L316.039 364.87C316.802 367.004 317.304 369.229 317.531 371.483C317.901 375.155 317.548 378.809 316.482 382.343L306.965 413.905L300.74 412.028L315.037 364.616ZM297.801 442.932C296.981 443.743 295.753 444.093 294.573 443.737C292.856 443.221 291.882 441.402 292.399 439.686L299.397 416.478L305.623 418.356L298.624 441.563C298.463 442.099 298.174 442.563 297.801 442.932Z" fill="white" fill-opacity="0.07"/>
<path d="M252.492 333.815C251.389 333.157 249.963 333.519 249.306 334.622L240.43 349.524C239.046 351.846 236.246 352.824 233.724 351.892L232.391 351.098L244.064 331.5C244.721 330.397 244.36 328.971 243.257 328.313C242.154 327.655 240.728 328.018 240.071 329.121L228.397 348.719L227.062 347.924C225.042 346.15 224.569 343.222 225.952 340.9L234.829 325.998C235.485 324.896 235.124 323.469 234.021 322.812C232.919 322.154 231.492 322.517 230.835 323.619L221.959 338.521C219.738 342.25 220.121 346.832 222.734 350.1L194.979 393.477C194.976 393.481 194.973 393.487 194.969 393.492C193.799 395.353 193.437 397.555 193.951 399.693C194.465 401.831 195.789 403.628 197.676 404.752L197.713 404.774C198.004 404.948 198.303 405.102 198.609 405.236C200.291 405.978 202.158 406.121 203.964 405.634C206.097 405.058 207.861 403.676 208.932 401.743L233.872 356.735C237.99 357.477 242.203 355.632 244.424 351.903L253.3 337.001C253.957 335.898 253.595 334.472 252.492 333.815ZM204.866 399.491C204.411 400.313 203.66 400.901 202.752 401.146C201.844 401.392 200.899 401.263 200.093 400.781L200.056 400.76C199.252 400.281 198.689 399.516 198.47 398.606C198.252 397.699 198.405 396.764 198.9 395.973L226.426 352.955L228.013 353.901C228.014 353.901 228.015 353.902 228.015 353.902C228.016 353.903 228.017 353.903 228.017 353.903L229.604 354.848L204.866 399.491Z" fill="white" fill-opacity="0.07"/>
</g>
<g clip-path="url(#clip7)">
<path d="M341.02 29.4349L339.109 23.5872C340.527 22.3204 341.018 20.1959 339.966 18.4745C333.174 7.34488 313.365 9.04361 300.785 13.1543C294.617 15.1699 287.951 18.4772 282.723 22.4941C282.108 22.967 281.993 23.8394 282.465 24.4435C282.939 25.0479 283.82 25.1541 284.435 24.6821C284.636 24.5269 284.843 24.3722 285.051 24.218L288.358 28.3961C289.786 30.2005 292.439 30.5019 294.27 29.0807C296.103 27.657 296.435 25.0318 295.011 23.2286L292.26 19.7525C293.692 19.0065 295.172 18.3063 296.685 17.6614L301.725 24.0281C303.153 25.833 305.806 26.1339 307.637 24.7132C309.47 23.289 309.802 20.6638 308.378 18.8605L305.14 14.7688C306.845 14.3237 308.583 13.9485 310.333 13.6462L315.092 19.6601C316.52 21.4649 319.172 21.7659 321.004 20.3452C322.837 18.921 323.17 16.2956 321.745 14.492L320.405 12.8003C326.177 12.8976 334.051 14.1765 337.559 19.9245C337.992 20.6332 337.505 21.5799 336.708 21.8403L276.923 41.3767C276.124 41.638 275.174 41.1591 275.105 40.3324C274.887 37.7305 275.577 35.0726 277.157 32.432C277.553 31.7697 277.334 30.9192 276.667 30.533C276 30.1469 275.138 30.3704 274.742 31.0327C272.859 34.1819 272.039 37.3955 272.306 40.5838C272.473 42.591 274.12 44.0188 276.017 44.2043L277.928 50.0519C276.55 51.1046 275.911 52.9351 276.473 54.6533C278.135 59.741 283.685 62.5086 288.845 60.8226L338.57 44.5736C343.729 42.8877 346.574 37.3768 344.911 32.2891C344.35 30.5709 342.754 29.4707 341.02 29.4349ZM292.546 26.9021C291.935 27.3767 291.05 27.2741 290.576 26.6736L287.36 22.6115C288.136 22.1032 288.94 21.6073 289.767 21.1264L292.793 24.9502C293.268 25.5517 293.157 26.4273 292.546 26.9021ZM305.913 22.5341C305.302 23.0087 304.417 22.9061 303.942 22.3051L299.407 16.5761C300.159 16.2961 300.908 16.032 301.647 15.7906C301.843 15.7264 302.033 15.6659 302.222 15.6065L306.16 20.5821C306.635 21.1837 306.524 22.0593 305.913 22.5341ZM319.28 18.1661C318.668 18.6407 317.784 18.5381 317.309 17.9376L313.54 13.1753C314.67 13.0404 315.788 12.9408 316.884 12.8765L319.527 16.2141C320.002 16.8157 319.891 17.6913 319.28 18.1661ZM323.321 34.9678L326.945 27.9481L336.549 24.8094L338.272 30.0819L323.321 34.9678ZM305.597 45.9902L292.191 39.3049L312.47 32.678L305.597 45.9902ZM278.804 43.6792L288.409 40.5406L295.479 44.0659L280.527 48.9517L278.804 43.6792ZM316.251 31.4425L323.164 29.1836L316.291 42.4958L311.721 40.2171L316.251 31.4425ZM337.708 41.9373L287.983 58.1864C284.298 59.3906 280.334 57.4138 279.146 53.7797C278.908 53.0527 279.315 52.2657 280.052 52.0248L299.014 45.8285L305.566 49.0955C305.911 49.2676 306.295 49.2846 306.637 49.1728C306.979 49.061 307.279 48.8206 307.456 48.4778L310.44 42.6994L316.26 45.6011C316.605 45.7732 316.989 45.7902 317.331 45.6784C317.673 45.5666 317.973 45.3262 318.15 44.9834L321.509 38.4777L340.47 32.2814C341.208 32.0405 342 32.4357 342.238 33.1627C343.425 36.7968 341.393 40.7331 337.708 41.9373Z" fill="white" fill-opacity="0.07"/>
<path d="M280.707 26.864C280.469 26.1364 279.677 25.7415 278.939 25.9826C278.201 26.2237 277.795 27.01 278.033 27.7376C278.271 28.4651 279.063 28.86 279.801 28.6189C280.538 28.3778 280.944 27.5915 280.707 26.864Z" fill="white" fill-opacity="0.07"/>
</g>
<g clip-path="url(#clip8)">
<path d="M32.764 322.074L32.7541 322.059C32.2825 321.376 31.3462 321.204 30.6622 321.675C29.9785 322.147 29.8064 323.083 30.2777 323.767L30.2877 323.781C30.4827 324.064 30.7574 324.259 31.061 324.358C31.4909 324.497 31.9787 324.442 32.3794 324.165C33.0634 323.694 33.2354 322.757 32.764 322.074Z" fill="white" fill-opacity="0.07"/>
<path d="M36.5662 310.342L36.5562 310.328C36.0847 309.644 35.1484 309.472 34.4643 309.944C33.7806 310.415 33.6086 311.352 34.0799 312.036L34.0898 312.05C34.2849 312.333 34.5596 312.528 34.8632 312.626C35.2931 312.766 35.7809 312.71 36.1816 312.434C36.8656 311.962 37.0376 311.026 36.5662 310.342Z" fill="white" fill-opacity="0.07"/>
<path d="M40.3683 298.611L40.3584 298.597C39.8868 297.913 38.9505 297.741 38.2665 298.212C37.5828 298.684 37.4108 299.621 37.8821 300.304L37.892 300.319C38.087 300.602 38.3617 300.797 38.6653 300.895C39.0952 301.035 39.583 300.979 39.9837 300.703C40.6678 300.231 40.8397 299.295 40.3683 298.611Z" fill="white" fill-opacity="0.07"/>
<path d="M87.6895 339.87L87.6795 339.856C87.2044 339.174 86.267 339.007 85.5856 339.482C84.9043 339.957 84.7371 340.895 85.2121 341.576L85.2222 341.59C85.4172 341.87 85.69 342.063 85.991 342.161C86.4235 342.301 86.9142 342.244 87.316 341.964C87.9974 341.489 88.1645 340.552 87.6895 339.87Z" fill="white" fill-opacity="0.07"/>
<path d="M91.4916 328.139L91.4815 328.125C91.0065 327.443 90.0691 327.276 89.3877 327.751C88.7066 328.226 88.5393 329.164 89.0143 329.845L89.0243 329.859C89.2194 330.139 89.4921 330.332 89.7931 330.43C90.2256 330.57 90.7164 330.513 91.1181 330.233C91.7994 329.758 91.9667 328.821 91.4916 328.139Z" fill="white" fill-opacity="0.07"/>
<path d="M95.2938 316.408L95.2837 316.394C94.8086 315.712 93.8713 315.545 93.1899 316.02C92.5085 316.495 92.3415 317.433 92.8165 318.114L92.8265 318.128C93.0216 318.408 93.2943 318.601 93.5953 318.698C94.0278 318.839 94.5186 318.782 94.9203 318.502C95.6016 318.027 95.7689 317.089 95.2938 316.408Z" fill="white" fill-opacity="0.07"/>
<path d="M81.3899 318.057L81.3713 318.051C80.5813 317.795 79.7331 318.227 79.477 319.018C79.2209 319.808 79.6538 320.656 80.444 320.912L80.4626 320.918C81.2526 321.174 82.1008 320.741 82.3569 319.951C82.613 319.161 82.1799 318.313 81.3899 318.057Z" fill="white" fill-opacity="0.07"/>
<path d="M45.1388 319.271L45.1202 319.265C44.3302 319.009 43.4819 319.442 43.2258 320.232C42.9697 321.022 43.4028 321.87 44.1928 322.126L44.2114 322.132C45.0014 322.388 45.8496 321.955 46.1057 321.165C46.3618 320.375 45.9289 319.527 45.1388 319.271Z" fill="white" fill-opacity="0.07"/>
<path d="M46.7116 284.24C46.5318 283.888 46.2123 283.615 45.836 283.493C45.4598 283.371 45.0411 283.405 44.6887 283.585C44.3365 283.764 44.0637 284.084 43.9413 284.462C43.8193 284.838 43.8532 285.255 44.0331 285.608C44.2125 285.961 44.5311 286.232 44.9087 286.355C45.2849 286.476 45.7032 286.444 46.056 286.263C46.4082 286.083 46.6806 285.765 46.8025 285.389C46.9249 285.011 46.891 284.594 46.7116 284.24Z" fill="white" fill-opacity="0.07"/>
<path d="M104.152 312.47L98.2101 310.545C101.244 309.903 103.864 307.704 104.887 304.549C105.948 301.274 105.035 297.756 102.663 295.419C103.504 294.492 104.139 293.394 104.534 292.176C106.056 287.482 103.474 282.424 98.7797 280.903C97.2996 280.423 95.7571 280.336 94.2587 280.64C92.9762 278.93 91.1944 277.651 89.1425 276.985C89.0033 276.94 88.8636 276.9 88.7239 276.862C88.6404 271.966 85.4246 267.518 80.6777 265.979C76.3973 264.592 71.7204 265.816 68.6643 269.023C68.3322 268.88 67.9935 268.753 67.6499 268.641C63.1512 267.183 58.2752 268.605 55.2564 272.103C54.9837 271.912 54.7018 271.732 54.4119 271.561C55.1685 269.785 56.2027 268.572 57.4978 267.95C58.6259 267.408 59.5468 267.519 59.5855 267.524L59.5646 267.52L59.5648 267.519C59.8817 267.572 60.2131 267.526 60.5012 267.378C60.8534 267.198 61.1258 266.88 61.2477 266.503C61.3702 266.126 61.3362 265.709 61.1568 265.355C60.977 265.002 60.6575 264.73 60.2812 264.608C60.201 264.582 60.1186 264.564 60.0355 264.552L60.0359 264.55C59.143 264.408 57.8269 264.508 56.4418 265.128L58.0345 260.214C58.2906 259.424 57.8575 258.575 57.0675 258.319L53.634 257.207C52.844 256.951 51.9957 257.383 51.7396 258.174L50.0059 263.523C49.0138 260.972 47.6193 259.217 47.5107 259.083C46.9896 258.438 46.0453 258.337 45.3993 258.857C44.7531 259.377 44.6505 260.323 45.1689 260.97C45.2062 261.017 48.5952 265.318 47.8869 269.696C42.5744 269.581 37.6806 272.697 36.0566 277.708C35.3818 279.79 34.9489 285.173 34.6864 289.956L33.7645 289.657C32.9745 289.401 32.1263 289.834 31.8702 290.624L20.4637 325.818C20.2076 326.608 20.6407 327.457 21.4307 327.713L91.8183 350.526C92.6083 350.782 93.4565 350.349 93.7126 349.559L105.119 314.365C105.375 313.575 104.942 312.726 104.152 312.47ZM66.7225 271.503C67.2729 271.681 67.8061 271.915 68.3078 272.197C68.9607 272.565 69.7845 272.397 70.2401 271.802C72.4581 268.906 76.2799 267.716 79.7504 268.84C83.1324 269.937 85.4672 273.023 85.6999 276.482C81.3973 276.582 77.4241 279.362 76.024 283.682C75.7679 284.472 76.201 285.32 76.991 285.576C77.781 285.832 78.6292 285.399 78.8853 284.609C80.1445 280.724 84.3298 278.588 88.215 279.847C89.9379 280.405 91.393 281.573 92.3118 283.135C92.6742 283.751 93.4203 284.026 94.0962 283.795C95.3195 283.375 96.6183 283.364 97.8521 283.764C100.969 284.774 102.683 288.132 101.673 291.249C101.276 292.474 100.512 293.515 99.4647 294.258C99.0552 294.549 98.8178 295.025 98.8322 295.528C98.8467 296.03 99.1106 296.492 99.5362 296.759C101.842 298.206 102.866 301.028 102.025 303.622C101.015 306.739 97.6574 308.453 94.5406 307.442C94.1855 307.327 93.8362 307.176 93.5022 306.992C92.852 306.634 92.038 306.805 91.5853 307.393C91.3714 307.671 91.131 307.929 90.8702 308.166L89.0641 307.58L97.6442 301.081C97.9667 300.837 98.1772 300.473 98.2281 300.072C98.2789 299.67 98.1659 299.265 97.9147 298.948L94.6433 294.821C94.3885 294.499 94.0131 294.295 93.6048 294.257C93.1963 294.219 92.7898 294.349 92.4798 294.618L89.2747 297.396L93.7812 289.313C94.1833 288.591 93.9284 287.68 93.21 287.272L89.8124 285.344C89.4614 285.144 89.0446 285.095 88.6564 285.206C88.2682 285.317 87.941 285.579 87.7484 285.934L86.4682 288.291L83.1295 287.209C82.3395 286.953 81.4913 287.386 81.2352 288.176L78.567 296.409C79.194 291.232 76.0929 286.154 70.9506 284.487C68.6334 283.736 66.1942 283.758 63.897 284.551C62.0026 285.204 60.3008 286.378 59.0123 287.899C59.5428 286.884 59.8998 286.089 60.0914 285.498C60.7202 283.558 60.7855 281.56 60.3759 279.664C61.7904 277.863 64.1947 277.107 66.4051 277.823C66.7563 277.937 67.0968 278.086 67.4173 278.267C68.0704 278.636 68.8955 278.467 69.3509 277.871C69.9398 277.101 70.7261 276.496 71.6251 276.122C72.3918 275.803 72.7549 274.923 72.4359 274.156C72.1171 273.389 71.2368 273.026 70.4697 273.345C69.4658 273.762 68.5526 274.367 67.7799 275.121C67.6323 275.064 67.4829 275.011 67.3326 274.962C64.485 274.039 61.4296 274.696 59.2248 276.551C58.7573 275.676 58.1815 274.852 57.5077 274.098C59.7432 271.483 63.3737 270.417 66.7225 271.503ZM84.9819 305.096L93.2622 297.92L94.6028 299.612L85.5756 306.45L84.4336 306.08L84.9819 305.096ZM85.0404 298.814L86.3279 294.841C86.3452 294.814 86.3632 294.787 86.3789 294.758L89.6602 288.716L90.4273 289.151L85.0404 298.814ZM79.9435 301.882C79.9673 301.83 79.9892 301.776 80.0073 301.72L83.6328 290.534L84.4739 290.807L79.9906 304.64L79.539 304.493C79.5719 304.405 79.6032 304.316 79.6323 304.226C79.8851 303.446 79.982 302.654 79.9435 301.882ZM62.4836 288.848C62.4413 288.834 62.3988 288.823 62.3563 288.81C64.4589 287.091 67.3635 286.486 70.0232 287.348C73.8032 288.573 76.071 292.325 75.5697 296.131C73.5856 295.503 71.5085 295.931 69.929 297.103C69.1182 293.351 66.3911 290.114 62.4836 288.848ZM67.1066 300.464L52.1507 295.617L51.9257 295.544C53.7585 292.183 57.7855 290.487 61.5564 291.709C65.3273 292.931 67.5933 296.667 67.1066 300.464ZM74.6846 299.005C76.4201 299.567 77.3561 301.494 76.771 303.299C76.7418 303.389 76.7084 303.477 76.6725 303.564L70.4001 301.531C70.422 301.44 70.4468 301.349 70.4761 301.258C71.0612 299.453 72.9491 298.442 74.6846 299.005ZM54.1372 260.532L54.7095 260.717L51.6002 270.31C51.4078 270.25 51.2152 270.193 51.0224 270.142L54.1372 260.532ZM39.3697 277.532C39.4534 277.578 39.5423 277.618 39.6366 277.649L46.7094 279.941C47.4994 280.197 48.3477 279.764 48.6037 278.974C48.8598 278.184 48.4268 277.336 47.6368 277.08L41.291 275.023C43.6914 272.89 47.3092 272.078 50.7947 273.208C55.8434 274.844 58.7303 279.941 57.2301 284.57C57.1091 284.943 56.8262 285.613 56.1879 286.807L50.5056 284.965C49.7156 284.709 48.8673 285.142 48.6112 285.932C48.3552 286.723 48.7882 287.571 49.5782 287.827L54.3288 289.366C52.0663 290.429 50.1644 292.244 49.0287 294.605L37.6474 290.916C37.9756 284.574 38.4339 280.128 38.9178 278.635C39.0422 278.252 39.1951 277.885 39.3697 277.532ZM98.9193 323.738L86.3296 319.658C85.5396 319.402 84.6914 319.834 84.4353 320.625C84.1792 321.415 84.6123 322.263 85.4023 322.519L97.9919 326.599L95.1171 335.469L49.9955 320.845C49.2055 320.589 48.3573 321.022 48.1012 321.812C47.8451 322.602 48.2782 323.45 49.0682 323.706L94.1898 338.331L91.315 347.201L23.7887 325.315L26.6635 316.445L39.2531 320.525C40.0431 320.781 40.8914 320.349 41.1474 319.558C41.4035 318.768 40.9705 317.92 40.1805 317.664L27.5908 313.584L30.4656 304.714L75.5872 319.338C76.3772 319.594 77.2255 319.161 77.4816 318.371C77.7376 317.581 77.3046 316.733 76.5146 316.477L31.393 301.852L34.2678 292.982L35.6245 293.422L101.794 314.868L98.9193 323.738Z" fill="white" fill-opacity="0.07"/>
<path d="M76.3538 273.107L76.3349 273.101C75.5449 272.845 74.6966 273.278 74.4406 274.068C74.1845 274.858 74.6175 275.706 75.4075 275.962L75.4264 275.969C76.2164 276.225 77.0646 275.792 77.3207 275.002C77.5768 274.211 77.1438 273.363 76.3538 273.107Z" fill="white" fill-opacity="0.07"/>
</g>
</g>
<defs>
<clipPath id="clip0">
<rect width="360" height="640" fill="white"/>
</clipPath>
<clipPath id="clip1">
<rect width="92.4431" height="92.4431" fill="white" transform="translate(224 562.898) rotate(-19.5267)"/>
</clipPath>
<clipPath id="clip2">
<rect width="81.5988" height="80.3434" fill="white" transform="translate(134.009 -0.625977) rotate(11.2054)"/>
</clipPath>
<clipPath id="clip3">
<rect width="137.352" height="137.352" fill="white" transform="translate(-8 470.627) rotate(-22.0243)"/>
</clipPath>
<clipPath id="clip4">
<rect width="120" height="120" fill="white" transform="translate(212.704 144.725) rotate(-18.976)"/>
</clipPath>
<clipPath id="clip5">
<rect width="120" height="119" fill="white" transform="translate(22.0812 67) rotate(23.3059)"/>
</clipPath>
<clipPath id="clip6">
<rect width="119" height="119" fill="white" transform="translate(232.985 307) rotate(23.7807)"/>
</clipPath>
<clipPath id="clip7">
<rect width="72" height="71" fill="white" transform="translate(262 10.3643) rotate(-18.0962)"/>
</clipPath>
<clipPath id="clip8">
<rect width="77" height="77" fill="white" transform="translate(43.7404 254) rotate(17.9578)"/>
</clipPath>
</defs>
</svg>
