<svg width="14" height="14" viewBox="0 0 14 14" fill="none" xmlns="http://www.w3.org/2000/svg">
<path d="M6.87233 5.37865C6.7017 5.20803 6.42433 5.20715 6.25283 5.37778L4.81258 6.8189L4.24733 6.25278C4.0767 6.08215 3.79933 6.08215 3.6287 6.25278C3.45808 6.4234 3.45808 6.70078 3.6287 6.8714L4.5037 7.7464C4.58858 7.83215 4.70058 7.87503 4.81258 7.87503C4.92458 7.87503 5.03658 7.83215 5.12233 7.74728L6.87233 5.99728C7.04295 5.82665 7.04295 5.54928 6.87233 5.37865Z" fill="black"/>
<path d="M6.87233 8.87865C6.7017 8.70803 6.42433 8.70715 6.25283 8.87778L4.81258 10.3189L4.24733 9.75365C4.0767 9.58303 3.79933 9.58303 3.6287 9.75365C3.45808 9.92428 3.45808 10.2017 3.6287 10.3723L4.5037 11.2473C4.58858 11.3321 4.70058 11.375 4.81258 11.375C4.92458 11.375 5.03658 11.3321 5.12233 11.2473L6.87233 9.49728C7.04295 9.32665 7.04295 9.04928 6.87233 8.87865Z" fill="black"/>
<path d="M10.0625 6.125H8.3125C8.071 6.125 7.875 6.321 7.875 6.5625C7.875 6.804 8.071 7 8.3125 7H10.0625C10.304 7 10.5 6.804 10.5 6.5625C10.5 6.321 10.304 6.125 10.0625 6.125Z" fill="black"/>
<path d="M10.0625 9.625H8.3125C8.071 9.625 7.875 9.821 7.875 10.0625C7.875 10.304 8.071 10.5 8.3125 10.5H10.0625C10.304 10.5 10.5 10.304 10.5 10.0625C10.5 9.821 10.304 9.625 10.0625 9.625Z" fill="black"/>
<path d="M11.375 1.75H9.625V1.3125C9.625 1.071 9.429 0.875 9.1875 0.875H8.23812C8.057 0.36575 7.5705 0 7 0C6.4295 0 5.943 0.36575 5.76188 0.875H4.8125C4.571 0.875 4.375 1.071 4.375 1.3125V1.75H2.625C2.14288 1.75 1.75 2.14287 1.75 2.625V13.125C1.75 13.6071 2.14288 14 2.625 14H11.375C11.8571 14 12.25 13.6071 12.25 13.125V2.625C12.25 2.14287 11.8571 1.75 11.375 1.75ZM5.25 1.75H6.125C6.3665 1.75 6.5625 1.554 6.5625 1.3125C6.5625 1.071 6.7585 0.875 7 0.875C7.2415 0.875 7.4375 1.071 7.4375 1.3125C7.4375 1.554 7.6335 1.75 7.875 1.75H8.75V2.625H5.25V1.75ZM11.375 13.125H2.625V2.625H4.375V3.0625C4.375 3.304 4.571 3.5 4.8125 3.5H9.1875C9.429 3.5 9.625 3.304 9.625 3.0625V2.625H11.375V13.125Z" fill="black"/>
</svg>
