<svg width="22" height="21" viewBox="0 0 22 21" fill="none" xmlns="http://www.w3.org/2000/svg">
<path fill-rule="evenodd" clip-rule="evenodd" d="M9.5513 13.125V14.875H6.07022C3.66704 14.875 1.71887 12.9162 1.71887 10.5C1.71887 8.08375 3.66704 6.125 6.07022 6.125H9.5513V7.875H6.07022C4.62831 7.875 3.45941 9.05025 3.45941 10.5C3.45941 11.9497 4.62831 13.125 6.07022 13.125H9.5513ZM13.0324 7.875V6.125H16.5135C18.9166 6.125 20.8648 8.08375 20.8648 10.5C20.8648 12.9162 18.9166 14.875 16.5135 14.875H13.0324V13.125H16.5135C17.9554 13.125 19.1243 11.9497 19.1243 10.5C19.1243 9.05025 17.9554 7.875 16.5135 7.875H13.0324ZM15.6432 9.625H6.94049V11.375H15.6432V9.625Z" fill="white"/>
</svg>
