<svg width="14" height="12" viewBox="0 0 14 12" fill="none" xmlns="http://www.w3.org/2000/svg">
<path d="M12.2909 0.672852H1.71198C0.767639 0.672852 0 1.44049 0 2.38483V9.61512C0 10.5595 0.767639 11.3271 1.71198 11.3271H12.288C13.2324 11.3271 14 10.5595 14 9.61512V2.38773C14.0029 1.44339 13.2353 0.672852 12.2909 0.672852ZM13.2208 9.61512C13.2208 10.1278 12.8036 10.545 12.2909 10.545H1.71198C1.19926 10.545 0.782123 10.1278 0.782123 9.61512V2.38773C0.782123 1.875 1.19926 1.45787 1.71198 1.45787H12.288C12.8007 1.45787 13.2179 1.875 13.2179 2.38773V9.61512H13.2208Z" fill="black"/>
<path d="M8.82928 5.91011L12.2532 2.83955C12.4126 2.69472 12.427 2.44849 12.2822 2.28627C12.1374 2.12695 11.8911 2.11247 11.7289 2.25731L7.00722 6.49525L6.08606 5.67258C6.08316 5.66968 6.08026 5.66678 6.08026 5.66389C6.05999 5.64361 6.03971 5.62623 6.01653 5.60885L2.26814 2.25441C2.10592 2.10957 1.8597 2.12406 1.71486 2.28627C1.57002 2.44849 1.58451 2.69472 1.74672 2.83955L5.21124 5.93618L1.76121 9.16606C1.60478 9.31379 1.59609 9.56002 1.74383 9.71934C1.82204 9.80045 1.92632 9.8439 2.03061 9.8439C2.1262 9.8439 2.22179 9.80914 2.29711 9.73962L5.79928 6.46339L6.74941 7.31214C6.82473 7.37876 6.91742 7.41063 7.01012 7.41063C7.10282 7.41063 7.19841 7.37587 7.27083 7.30924L8.24703 6.43442L11.7289 9.74251C11.8042 9.81493 11.9027 9.84969 11.9983 9.84969C12.1026 9.84969 12.204 9.80914 12.2822 9.72803C12.4299 9.5716 12.4241 9.32248 12.2677 9.17475L8.82928 5.91011Z" fill="black"/>
</svg>
