<svg width="20" height="20" viewBox="0 0 20 20" fill="none" xmlns="http://www.w3.org/2000/svg">
<path d="M9.81754 7.6838C9.57379 7.44005 9.17754 7.4388 8.93254 7.68255L6.87504 9.7413L6.06754 8.93255C5.82379 8.6888 5.42754 8.6888 5.18379 8.93255C4.94004 9.1763 4.94004 9.57255 5.18379 9.8163L6.43379 11.0663C6.55504 11.1888 6.71504 11.2501 6.87504 11.2501C7.03504 11.2501 7.19504 11.1888 7.31754 11.0676L9.81754 8.56755C10.0613 8.3238 10.0613 7.92755 9.81754 7.6838Z" fill="white"/>
<path d="M9.81754 12.6838C9.57379 12.4401 9.17754 12.4388 8.93254 12.6826L6.87504 14.7413L6.06754 13.9338C5.82379 13.6901 5.42754 13.6901 5.18379 13.9338C4.94004 14.1776 4.94004 14.5738 5.18379 14.8176L6.43379 16.0676C6.55504 16.1888 6.71504 16.2501 6.87504 16.2501C7.03504 16.2501 7.19504 16.1888 7.31754 16.0676L9.81754 13.5676C10.0613 13.3238 10.0613 12.9276 9.81754 12.6838Z" fill="white"/>
<path d="M14.375 8.75H11.875C11.53 8.75 11.25 9.03 11.25 9.375C11.25 9.72 11.53 10 11.875 10H14.375C14.72 10 15 9.72 15 9.375C15 9.03 14.72 8.75 14.375 8.75Z" fill="white"/>
<path d="M14.375 13.75H11.875C11.53 13.75 11.25 14.03 11.25 14.375C11.25 14.72 11.53 15 11.875 15H14.375C14.72 15 15 14.72 15 14.375C15 14.03 14.72 13.75 14.375 13.75Z" fill="white"/>
<path d="M16.25 2.5H13.75V1.875C13.75 1.53 13.47 1.25 13.125 1.25H11.7688C11.51 0.5225 10.815 0 10 0C9.185 0 8.49 0.5225 8.23125 1.25H6.875C6.53 1.25 6.25 1.53 6.25 1.875V2.5H3.75C3.06125 2.5 2.5 3.06125 2.5 3.75V18.75C2.5 19.4387 3.06125 20 3.75 20H16.25C16.9388 20 17.5 19.4387 17.5 18.75V3.75C17.5 3.06125 16.9388 2.5 16.25 2.5ZM7.5 2.5H8.75C9.095 2.5 9.375 2.22 9.375 1.875C9.375 1.53 9.655 1.25 10 1.25C10.345 1.25 10.625 1.53 10.625 1.875C10.625 2.22 10.905 2.5 11.25 2.5H12.5V3.75H7.5V2.5ZM16.25 18.75H3.75V3.75H6.25V4.375C6.25 4.72 6.53 5 6.875 5H13.125C13.47 5 13.75 4.72 13.75 4.375V3.75H16.25V18.75Z" fill="white"/>
</svg>
