<svg width="21" height="19" viewBox="0 0 21 19" fill="none" xmlns="http://www.w3.org/2000/svg">
<path fill-rule="evenodd" clip-rule="evenodd" d="M1.13128 1.36866L4.90126 5.13864C2.64806 5.31634 0.875 7.20108 0.875 9.49994C0.875 11.9162 2.83375 13.8749 5.25 13.8749H8.75V12.1249H5.25C3.80025 12.1249 2.625 10.9497 2.625 9.49994C2.625 8.0502 3.80025 6.87494 5.25 6.87494H6.63756L8.38756 8.62494H6.125V10.3749H10.1376L18.6313 18.8687L19.8687 17.6312L2.36872 0.131226L1.13128 1.36866ZM16.653 11.9655L17.9625 13.2751C19.2564 12.5151 20.125 11.109 20.125 9.49994C20.125 7.0837 18.1662 5.12494 15.75 5.12494H12.25V6.87494H15.75C17.1997 6.87494 18.375 8.0502 18.375 9.49994C18.375 10.6324 17.6579 11.5974 16.653 11.9655Z" fill="#112C45" fill-opacity="0.8"/>
</svg>
