<svg width="21" height="23" viewBox="0 0 21 23" fill="none" xmlns="http://www.w3.org/2000/svg">
<path d="M20.6294 4.38671L10.7471 0.0517011C10.6691 0.0176011 10.585 0 10.5 0C10.415 0 10.3309 0.0176011 10.2529 0.0517011L0.370588 4.38671C0.260491 4.43489 0.166795 4.51421 0.100973 4.61496C0.0351519 4.71572 6.18885e-05 4.83353 0 4.95398V17.3397C1.91762e-07 17.4539 0.0314996 17.5659 0.0910152 17.6633C0.150531 17.7607 0.235744 17.8397 0.337235 17.8915L10.2196 22.9325C10.3064 22.9769 10.4025 23 10.5 23C10.5963 22.9998 10.6912 22.9774 10.7773 22.9344L20.6597 17.9553C20.762 17.9037 20.8481 17.8246 20.9082 17.7269C20.9683 17.6291 21.0001 17.5165 21 17.4016V4.95398C20.9999 4.83353 20.9648 4.71572 20.899 4.61496C20.8332 4.51421 20.7395 4.43489 20.6294 4.38671ZM10.5 1.29461L18.8413 4.95398L10.5 8.61334L8.33206 7.66212L11.6309 6.21485C11.7409 6.16656 11.8344 6.08719 11.9001 5.98644C11.9658 5.8857 12.0008 5.76794 12.0008 5.64758C12.0008 5.52722 11.9658 5.40946 11.9001 5.30871C11.8344 5.20797 11.7409 5.1286 11.6309 5.08031L8.98059 3.92163C8.90266 3.88753 8.81855 3.86992 8.73353 3.86992C8.6485 3.86992 8.5644 3.88753 8.48647 3.92163L4.14379 5.82469L2.16176 4.95398L10.5 1.29461ZM4.94118 7.5265L6.17647 8.06837V10.7641L4.94118 10.1448V7.5265ZM5.68235 6.50096L8.73106 5.16515L9.83665 5.64882L6.79412 6.98586L5.68235 6.50096ZM1.23529 5.90087L3.70588 6.98462V10.5276C3.70583 10.6426 3.73776 10.7555 3.79809 10.8534C3.85842 10.9513 3.94477 11.0304 4.04744 11.0818L6.51803 12.3204C6.61222 12.3676 6.71688 12.3899 6.82206 12.3851C6.92725 12.3803 7.02947 12.3486 7.11902 12.2931C7.20857 12.2376 7.28247 12.16 7.33371 12.0678C7.38494 11.9755 7.41181 11.8717 7.41176 11.7661V8.60777L9.88235 9.69152V21.3707L1.23529 16.9601V5.90087ZM11.1176 21.3762V9.694L19.7647 5.90087V17.0195L11.1176 21.3762Z" fill="white"/>
</svg>
