<svg width="16" height="18" viewBox="0 0 16 18" fill="none" xmlns="http://www.w3.org/2000/svg">
<path d="M15.7176 3.43308L8.18824 0.0404617C8.12886 0.0137748 8.06478 0 8 0C7.93522 0 7.87114 0.0137748 7.81176 0.0404617L0.282353 3.43308C0.19847 3.47078 0.127082 3.53286 0.0769321 3.61171C0.0267824 3.69056 4.71531e-05 3.78276 0 3.87703V13.5702C1.46104e-07 13.6596 0.0239997 13.7472 0.0693449 13.8234C0.11469 13.8997 0.179614 13.9615 0.256941 14.002L7.78635 17.9472C7.85252 17.9819 7.92573 18 8 18C8.07333 17.9999 8.14565 17.9823 8.2113 17.9486L15.7407 14.052C15.8187 14.0116 15.8842 13.9497 15.93 13.8732C15.9758 13.7967 16 13.7086 16 13.6187V3.87703C16 3.78276 15.9732 3.69056 15.9231 3.61171C15.8729 3.53286 15.8015 3.47078 15.7176 3.43308ZM8 1.01317L14.3553 3.87703L8 6.74088L6.34824 5.99644L8.86165 4.86379C8.94543 4.826 9.0167 4.76389 9.06675 4.68504C9.11679 4.6062 9.14345 4.51404 9.14345 4.41984C9.14345 4.32565 9.11679 4.23349 9.06675 4.15465C9.0167 4.0758 8.94543 4.01369 8.86165 3.9759L6.84235 3.0691C6.78298 3.04241 6.7189 3.02864 6.65412 3.02864C6.58934 3.02864 6.52525 3.04241 6.46588 3.0691L3.15718 4.55846L1.64706 3.87703L8 1.01317ZM3.76471 5.8903L4.70588 6.31438V8.4241L3.76471 7.93944V5.8903ZM4.32941 5.0877L6.65224 4.04229L7.49459 4.42081L5.17647 5.46719L4.32941 5.0877ZM0.941176 4.61807L2.82353 5.46622V8.23896C2.82349 8.32903 2.84782 8.41732 2.89378 8.49394C2.93975 8.57056 3.00554 8.63247 3.08376 8.67273L4.96612 9.64205C5.03788 9.67898 5.11762 9.69641 5.19776 9.69267C5.2779 9.68893 5.35579 9.66415 5.42402 9.62069C5.49224 9.57723 5.54855 9.51653 5.58759 9.44434C5.62662 9.37216 5.6471 9.2909 5.64706 9.20828V6.73652L7.52941 7.58467V16.7249L0.941176 13.2731V4.61807ZM8.47059 16.7292V7.58661L15.0588 4.61807V13.3196L8.47059 16.7292Z" fill="black"/>
</svg>
