<svg width="16" height="16" viewBox="0 0 16 16" fill="none" xmlns="http://www.w3.org/2000/svg">
<path d="M11.8705 8.76108C11.2743 8.16492 10.5647 7.72358 9.79046 7.45642C10.6197 6.88529 11.1645 5.92947 11.1645 4.84868C11.1645 3.10379 9.74488 1.6842 7.99999 1.6842C6.2551 1.6842 4.83552 3.10379 4.83552 4.84868C4.83552 5.92947 5.3803 6.88529 6.20954 7.45642C5.43531 7.72358 4.7257 8.16492 4.12952 8.76108C3.09568 9.79494 2.52631 11.7895 2.52631 13.0526L3.38157 13.8947C3.38157 9.26315 5.45338 8.01315 7.99999 8.01315C10.5466 8.01315 12.6316 9.6842 12.6316 13.8947L13.4737 13.0526C13.4737 11.5906 12.9043 9.79494 11.8705 8.76108ZM7.99999 7.15789C6.7267 7.15789 5.69078 6.12199 5.69078 4.84868C5.69078 3.57536 6.7267 2.53947 7.99999 2.53947C9.27328 2.53947 10.3092 3.57536 10.3092 4.84868C10.3092 6.12199 9.27328 7.15789 7.99999 7.15789Z" fill="black"/>
<circle cx="8" cy="8" r="7.5" stroke="black"/>
</svg>
