<svg width="23" height="23" viewBox="0 0 23 23" fill="none" xmlns="http://www.w3.org/2000/svg">
<path d="M11.4167 12.393C11.4405 12.393 11.4643 12.393 11.4929 12.393C11.5024 12.393 11.5119 12.393 11.5215 12.393C11.5357 12.393 11.5548 12.393 11.5691 12.393C12.9646 12.3692 14.0934 11.8786 14.9269 10.9404C16.7606 8.87327 16.4558 5.32968 16.4225 4.99151C16.3034 2.45289 15.1032 1.23835 14.1125 0.671568C13.3742 0.24767 12.5121 0.0190516 11.55 0H11.5167C11.5119 0 11.5024 0 11.4976 0H11.4691C10.9404 0 9.90206 0.085732 8.90662 0.652516C7.90641 1.2193 6.6871 2.43384 6.56803 4.99151C6.53469 5.32968 6.22987 8.87327 8.06358 10.9404C8.89233 11.8786 10.0211 12.3692 11.4167 12.393ZM7.83973 5.11058C7.83973 5.09629 7.84449 5.082 7.84449 5.07248C8.00167 1.65749 10.426 1.29074 11.4643 1.29074H11.4833C11.4929 1.29074 11.5072 1.29074 11.5215 1.29074C12.8074 1.31932 14.9936 1.84324 15.1413 5.07248C15.1413 5.08677 15.1413 5.10106 15.146 5.11058C15.1508 5.14392 15.4842 8.38269 13.9696 10.0878C13.3695 10.7641 12.5693 11.0975 11.5167 11.1071C11.5072 11.1071 11.5024 11.1071 11.4929 11.1071C11.4833 11.1071 11.4786 11.1071 11.4691 11.1071C10.4212 11.0975 9.61629 10.7641 9.02093 10.0878C7.51109 8.39221 7.83496 5.13916 7.83973 5.11058Z" fill="#112C45"/>
<path d="M21.2806 18.2704C21.2806 18.2656 21.2806 18.2608 21.2806 18.2561C21.2806 18.218 21.2759 18.1799 21.2759 18.137C21.2473 17.1939 21.1854 14.9887 19.1183 14.2838C19.104 14.279 19.0849 14.2743 19.0706 14.2695C16.9226 13.7218 15.1365 12.4834 15.1174 12.4691C14.8269 12.2643 14.4268 12.3358 14.222 12.6263C14.0172 12.9169 14.0887 13.3169 14.3792 13.5217C14.4602 13.5789 16.3558 14.8982 18.7277 15.5079C19.8375 15.9032 19.9613 17.0892 19.9946 18.1751C19.9946 18.218 19.9946 18.2561 19.9994 18.2942C20.0042 18.7228 19.9756 19.3849 19.8994 19.7659C19.1278 20.2041 16.1034 21.7187 11.5024 21.7187C6.92051 21.7187 3.87703 20.1993 3.10067 19.7612C3.02447 19.3801 2.99113 18.7181 3.00065 18.2894C3.00065 18.2513 3.00542 18.2132 3.00542 18.1703C3.03876 17.0844 3.16259 15.8984 4.27235 15.5031C6.64427 14.8935 8.5399 13.5694 8.62086 13.517C8.9114 13.3122 8.98284 12.9121 8.77804 12.6216C8.57324 12.331 8.17315 12.2596 7.88262 12.4644C7.86356 12.4787 6.08701 13.717 3.92942 14.2648C3.91037 14.2695 3.89608 14.2743 3.88179 14.279C1.81469 14.9887 1.75278 17.1939 1.7242 18.1322C1.7242 18.1751 1.7242 18.2132 1.71944 18.2513C1.71944 18.2561 1.71944 18.2608 1.71944 18.2656C1.71467 18.5133 1.70991 19.785 1.96234 20.4232C2.00997 20.547 2.0957 20.6518 2.21001 20.7233C2.3529 20.8185 5.77742 22.9999 11.5072 22.9999C17.2369 22.9999 20.6615 20.8138 20.8043 20.7233C20.9139 20.6518 21.0044 20.547 21.052 20.4232C21.2902 19.7897 21.2854 18.518 21.2806 18.2704Z" fill="#112C45"/>
</svg>
