<svg width="18" height="18" viewBox="0 0 18 18" fill="none" xmlns="http://www.w3.org/2000/svg">
<g clip-path="url(#clip0)">
<path d="M17.5048 14.2096L10.3432 2.33266C10.061 1.86477 9.54637 1.5741 8.99997 1.5741C8.45358 1.5741 7.9389 1.86477 7.65672 2.3327L0.495172 14.2096C0.203578 14.6932 0.194951 15.2991 0.472631 15.7908C0.75038 16.2826 1.27369 16.588 1.83839 16.588H16.1616C16.7263 16.588 17.2496 16.2826 17.5274 15.7908C17.805 15.299 17.7964 14.6931 17.5048 14.2096ZM16.5375 15.2319C16.4611 15.3672 16.317 15.4513 16.1616 15.4513H1.83839C1.68293 15.4513 1.53885 15.3672 1.46243 15.2319C1.38598 15.0965 1.38837 14.9297 1.4686 14.7966L8.63022 2.91967C8.7079 2.79087 8.84959 2.71084 9.00001 2.71084C9.15039 2.71084 9.29208 2.79087 9.36976 2.91967L16.5313 14.7966C16.6116 14.9297 16.614 15.0965 16.5375 15.2319Z" fill="white"/>
<path d="M9.0052 6.25085C8.57281 6.25085 8.23535 6.48287 8.23535 6.89419C8.23535 8.14916 8.38297 9.95253 8.38297 11.2075C8.38301 11.5345 8.66778 11.6715 9.00524 11.6715C9.25833 11.6715 9.6169 11.5345 9.6169 11.2075C9.6169 9.95257 9.76452 8.1492 9.76452 6.89419C9.76452 6.48291 9.41652 6.25085 9.0052 6.25085Z" fill="white"/>
<path d="M9.01581 12.3993C8.5518 12.3993 8.20374 12.7684 8.20374 13.2114C8.20374 13.6438 8.55177 14.0234 9.01581 14.0234C9.4482 14.0234 9.81734 13.6438 9.81734 13.2114C9.81734 12.7684 9.44817 12.3993 9.01581 12.3993Z" fill="white"/>
</g>
<defs>
<clipPath id="clip0">
<rect width="17.4595" height="17.4595" fill="white" transform="translate(0.270264 0.351318)"/>
</clipPath>
</defs>
</svg>
