<svg width="12" height="12" viewBox="0 0 12 12" fill="none" xmlns="http://www.w3.org/2000/svg">
<g clip-path="url(#clip0)">
<path d="M11.8454 9.52485L6.92319 1.36176C6.72927 1.04017 6.37552 0.840393 5.99999 0.840393C5.62445 0.840393 5.2707 1.04017 5.07676 1.36178L0.154581 9.52485C-0.0458334 9.85725 -0.0517631 10.2737 0.139088 10.6117C0.329987 10.9496 0.689659 11.1596 1.07778 11.1596H10.9222C11.3103 11.1596 11.67 10.9496 11.8609 10.6116C12.0518 10.2736 12.0458 9.8572 11.8454 9.52485ZM11.1806 10.2275C11.1281 10.3205 11.029 10.3783 10.9222 10.3783H1.07778C0.970932 10.3783 0.871909 10.3205 0.819385 10.2275C0.766838 10.1344 0.768479 10.0198 0.823627 9.92831L5.74585 1.76521C5.79924 1.67669 5.89663 1.62168 6.00001 1.62168C6.10337 1.62168 6.20075 1.67669 6.25414 1.76521L11.1763 9.92831C11.2315 10.0198 11.2332 10.1344 11.1806 10.2275Z" fill="#FE3767"/>
<path d="M6.00361 4.05481C5.70642 4.05481 5.47449 4.21428 5.47449 4.49698C5.47449 5.35953 5.57595 6.599 5.57595 7.46157C5.57597 7.68626 5.7717 7.78048 6.00364 7.78048C6.17759 7.78048 6.42404 7.68626 6.42404 7.46157C6.42404 6.59902 6.5255 5.35955 6.5255 4.49698C6.5255 4.2143 6.28632 4.05481 6.00361 4.05481Z" fill="#FE3767"/>
<path d="M6.0109 8.28064C5.69199 8.28064 5.45276 8.53433 5.45276 8.83878C5.45276 9.13597 5.69196 9.39692 6.0109 9.39692C6.30809 9.39692 6.5618 9.13597 6.5618 8.83878C6.5618 8.53433 6.30806 8.28064 6.0109 8.28064Z" fill="#FE3767"/>
</g>
<defs>
<clipPath id="clip0">
<rect width="12" height="12" fill="white"/>
</clipPath>
</defs>
</svg>
