<svg width="334" height="77" viewBox="0 0 334 77" fill="none" xmlns="http://www.w3.org/2000/svg">
<g filter="url(#filter0_d)">
<rect x="3" y="3" width="328" height="71" rx="4" fill="#F9F8FF"/>
</g>
<path d="M65.208 34C64.8987 34 64.6533 33.9147 64.472 33.744C64.3013 33.5733 64.216 33.3333 64.216 33.024V23.696C64.216 23.3867 64.3013 23.1467 64.472 22.976C64.6533 22.8053 64.8987 22.72 65.208 22.72H68.376C70.2213 22.72 71.6507 23.216 72.664 24.208C73.688 25.1893 74.2 26.5707 74.2 28.352C74.2 30.144 73.688 31.536 72.664 32.528C71.6507 33.5093 70.2213 34 68.376 34H65.208ZM68.248 32.32C70.84 32.32 72.136 30.9973 72.136 28.352C72.136 25.7173 70.84 24.4 68.248 24.4H66.28V32.32H68.248ZM82.2945 31.856C82.4758 31.856 82.6198 31.9253 82.7265 32.064C82.8438 32.2027 82.9025 32.3893 82.9025 32.624C82.9025 32.9547 82.7052 33.232 82.3105 33.456C81.9478 33.6587 81.5372 33.824 81.0785 33.952C80.6198 34.0693 80.1825 34.128 79.7665 34.128C78.5078 34.128 77.5105 33.7653 76.7745 33.04C76.0385 32.3147 75.6705 31.3227 75.6705 30.064C75.6705 29.264 75.8305 28.5547 76.1505 27.936C76.4705 27.3173 76.9185 26.8373 77.4945 26.496C78.0812 26.1547 78.7425 25.984 79.4785 25.984C80.1825 25.984 80.7958 26.1387 81.3185 26.448C81.8412 26.7573 82.2465 27.1947 82.5345 27.76C82.8225 28.3253 82.9665 28.992 82.9665 29.76C82.9665 30.2187 82.7638 30.448 82.3585 30.448H77.6385C77.7025 31.184 77.9105 31.728 78.2625 32.08C78.6145 32.4213 79.1265 32.592 79.7985 32.592C80.1398 32.592 80.4385 32.5493 80.6945 32.464C80.9612 32.3787 81.2598 32.2613 81.5905 32.112C81.9105 31.9413 82.1452 31.856 82.2945 31.856ZM79.5265 27.392C78.9825 27.392 78.5452 27.5627 78.2145 27.904C77.8945 28.2453 77.7025 28.736 77.6385 29.376H81.2545C81.2332 28.7253 81.0732 28.2347 80.7745 27.904C80.4758 27.5627 80.0598 27.392 79.5265 27.392ZM87.4345 34.128C86.2718 34.128 85.3332 33.8987 84.6185 33.44C84.2772 33.2373 84.1065 32.9493 84.1065 32.576C84.1065 32.3627 84.1652 32.192 84.2825 32.064C84.3998 31.9253 84.5438 31.856 84.7145 31.856C84.8958 31.856 85.1465 31.9413 85.4665 32.112C85.8078 32.272 86.1172 32.3947 86.3945 32.48C86.6825 32.5653 87.0452 32.608 87.4825 32.608C87.9305 32.608 88.2772 32.5333 88.5225 32.384C88.7785 32.2347 88.9065 32.0267 88.9065 31.76C88.9065 31.5787 88.8532 31.4347 88.7465 31.328C88.6505 31.2213 88.4692 31.1253 88.2025 31.04C87.9465 30.944 87.5518 30.8373 87.0185 30.72C86.0692 30.528 85.3865 30.256 84.9705 29.904C84.5652 29.552 84.3625 29.0667 84.3625 28.448C84.3625 27.9787 84.5012 27.5573 84.7785 27.184C85.0558 26.8 85.4345 26.5067 85.9145 26.304C86.4052 26.0907 86.9598 25.984 87.5785 25.984C88.0265 25.984 88.4585 26.0427 88.8745 26.16C89.2905 26.2667 89.6638 26.4267 89.9945 26.64C90.3358 26.8533 90.5065 27.136 90.5065 27.488C90.5065 27.7013 90.4478 27.8827 90.3305 28.032C90.2132 28.1707 90.0692 28.24 89.8985 28.24C89.7812 28.24 89.6638 28.2187 89.5465 28.176C89.4398 28.1227 89.3012 28.048 89.1305 27.952C88.8212 27.792 88.5545 27.6747 88.3305 27.6C88.1065 27.5147 87.8292 27.472 87.4985 27.472C87.1038 27.472 86.7892 27.552 86.5545 27.712C86.3305 27.872 86.2185 28.0907 86.2185 28.368C86.2185 28.6347 86.3358 28.8373 86.5705 28.976C86.8052 29.1147 87.2585 29.2533 87.9305 29.392C88.6452 29.5413 89.2052 29.712 89.6105 29.904C90.0158 30.096 90.3038 30.336 90.4745 30.624C90.6558 30.912 90.7465 31.28 90.7465 31.728C90.7465 32.4533 90.4425 33.0347 89.8345 33.472C89.2372 33.9093 88.4372 34.128 87.4345 34.128ZM98.8961 22.64C99.1948 22.64 99.4401 22.7253 99.6321 22.896C99.8241 23.0667 99.9201 23.2907 99.9201 23.568V33.136C99.9201 33.424 99.8295 33.6533 99.6481 33.824C99.4668 33.9947 99.2268 34.08 98.9281 34.08C98.6295 34.08 98.3895 33.9947 98.2081 33.824C98.0268 33.6533 97.9361 33.424 97.9361 33.136V32.736C97.7015 33.1733 97.3601 33.5147 96.9121 33.76C96.4748 34.0053 95.9735 34.128 95.4081 34.128C94.7361 34.128 94.1335 33.9573 93.6001 33.616C93.0775 33.2747 92.6668 32.7947 92.3681 32.176C92.0801 31.5467 91.9361 30.8267 91.9361 30.016C91.9361 29.2053 92.0801 28.496 92.3681 27.888C92.6668 27.28 93.0775 26.8107 93.6001 26.48C94.1228 26.1493 94.7255 25.984 95.4081 25.984C95.9735 25.984 96.4748 26.1013 96.9121 26.336C97.3495 26.5707 97.6855 26.9013 97.9201 27.328V23.536C97.9201 23.2693 98.0055 23.056 98.1761 22.896C98.3575 22.7253 98.5975 22.64 98.8961 22.64ZM95.9361 32.576C96.5761 32.576 97.0668 32.3573 97.4081 31.92C97.7601 31.4827 97.9361 30.8587 97.9361 30.048C97.9361 29.2373 97.7601 28.6187 97.4081 28.192C97.0668 27.7547 96.5815 27.536 95.9521 27.536C95.3121 27.536 94.8161 27.7493 94.4641 28.176C94.1121 28.6027 93.9361 29.216 93.9361 30.016C93.9361 30.8267 94.1121 31.456 94.4641 31.904C94.8161 32.352 95.3068 32.576 95.9361 32.576ZM108.17 31.856C108.351 31.856 108.495 31.9253 108.602 32.064C108.719 32.2027 108.778 32.3893 108.778 32.624C108.778 32.9547 108.58 33.232 108.186 33.456C107.823 33.6587 107.412 33.824 106.954 33.952C106.495 34.0693 106.058 34.128 105.641 34.128C104.383 34.128 103.386 33.7653 102.65 33.04C101.914 32.3147 101.546 31.3227 101.546 30.064C101.546 29.264 101.706 28.5547 102.026 27.936C102.346 27.3173 102.794 26.8373 103.37 26.496C103.956 26.1547 104.618 25.984 105.354 25.984C106.058 25.984 106.671 26.1387 107.194 26.448C107.716 26.7573 108.122 27.1947 108.41 27.76C108.698 28.3253 108.842 28.992 108.842 29.76C108.842 30.2187 108.639 30.448 108.234 30.448H103.514C103.578 31.184 103.786 31.728 104.138 32.08C104.49 32.4213 105.002 32.592 105.674 32.592C106.015 32.592 106.314 32.5493 106.57 32.464C106.836 32.3787 107.135 32.2613 107.466 32.112C107.786 31.9413 108.02 31.856 108.17 31.856ZM105.402 27.392C104.858 27.392 104.42 27.5627 104.09 27.904C103.77 28.2453 103.578 28.736 103.514 29.376H107.13C107.108 28.7253 106.948 28.2347 106.65 27.904C106.351 27.5627 105.935 27.392 105.402 27.392ZM118.885 32.608C119.419 32.64 119.685 32.88 119.685 33.328C119.685 33.584 119.579 33.7813 119.365 33.92C119.163 34.048 118.869 34.1013 118.485 34.08L118.053 34.048C116.261 33.92 115.365 32.96 115.365 31.168V27.68H114.565C114.277 27.68 114.053 27.616 113.893 27.488C113.744 27.36 113.669 27.1733 113.669 26.928C113.669 26.6827 113.744 26.496 113.893 26.368C114.053 26.24 114.277 26.176 114.565 26.176H115.365V24.704C115.365 24.416 115.456 24.1867 115.637 24.016C115.819 23.8453 116.064 23.76 116.373 23.76C116.672 23.76 116.912 23.8453 117.093 24.016C117.275 24.1867 117.365 24.416 117.365 24.704V26.176H118.725C119.013 26.176 119.232 26.24 119.381 26.368C119.541 26.496 119.621 26.6827 119.621 26.928C119.621 27.1733 119.541 27.36 119.381 27.488C119.232 27.616 119.013 27.68 118.725 27.68H117.365V31.312C117.365 32.1013 117.728 32.5227 118.453 32.576L118.885 32.608ZM126.904 26.016C127.213 26.016 127.458 26.1013 127.64 26.272C127.821 26.4427 127.911 26.672 127.911 26.96V33.168C127.911 33.4453 127.816 33.6693 127.624 33.84C127.442 34.0107 127.202 34.096 126.904 34.096C126.616 34.096 126.386 34.016 126.216 33.856C126.045 33.696 125.96 33.4773 125.96 33.2V32.8C125.714 33.2267 125.384 33.5573 124.968 33.792C124.552 34.016 124.082 34.128 123.56 34.128C121.64 34.128 120.68 33.0507 120.68 30.896V26.96C120.68 26.672 120.77 26.4427 120.952 26.272C121.133 26.1013 121.373 26.016 121.672 26.016C121.981 26.016 122.226 26.1013 122.408 26.272C122.589 26.4427 122.68 26.672 122.68 26.96V30.912C122.68 31.4667 122.792 31.8773 123.016 32.144C123.24 32.4107 123.592 32.544 124.072 32.544C124.626 32.544 125.069 32.3627 125.4 32C125.741 31.6267 125.912 31.136 125.912 30.528V26.96C125.912 26.672 126.002 26.4427 126.184 26.272C126.365 26.1013 126.605 26.016 126.904 26.016ZM137.729 25.984C138.817 25.984 139.622 26.256 140.145 26.8C140.678 27.3333 140.945 28.1493 140.945 29.248V33.152C140.945 33.44 140.86 33.6693 140.689 33.84C140.518 34 140.284 34.08 139.985 34.08C139.708 34.08 139.478 33.9947 139.297 33.824C139.126 33.6533 139.041 33.4293 139.041 33.152V32.8C138.86 33.216 138.572 33.5413 138.177 33.776C137.793 34.0107 137.345 34.128 136.833 34.128C136.31 34.128 135.836 34.0213 135.409 33.808C134.982 33.5947 134.646 33.3013 134.401 32.928C134.156 32.5547 134.033 32.1387 134.033 31.68C134.033 31.104 134.177 30.6507 134.465 30.32C134.764 29.9893 135.244 29.7493 135.905 29.6C136.566 29.4507 137.478 29.376 138.641 29.376H139.041V29.008C139.041 28.4853 138.929 28.1067 138.705 27.872C138.481 27.6267 138.118 27.504 137.617 27.504C137.308 27.504 136.993 27.552 136.673 27.648C136.353 27.7333 135.974 27.8613 135.537 28.032C135.26 28.1707 135.057 28.24 134.929 28.24C134.737 28.24 134.577 28.1707 134.449 28.032C134.332 27.8933 134.273 27.712 134.273 27.488C134.273 27.3067 134.316 27.152 134.401 27.024C134.497 26.8853 134.652 26.7573 134.865 26.64C135.238 26.4373 135.681 26.2773 136.193 26.16C136.716 26.0427 137.228 25.984 137.729 25.984ZM137.233 32.688C137.766 32.688 138.198 32.512 138.529 32.16C138.87 31.7973 139.041 31.3333 139.041 30.768V30.432H138.753C138.038 30.432 137.484 30.464 137.089 30.528C136.694 30.592 136.412 30.704 136.241 30.864C136.07 31.024 135.985 31.2427 135.985 31.52C135.985 31.8613 136.102 32.144 136.337 32.368C136.582 32.5813 136.881 32.688 137.233 32.688ZM149.602 26.016C149.9 26.016 150.14 26.1013 150.322 26.272C150.503 26.4427 150.594 26.672 150.594 26.96V33.28C150.594 34.5067 150.252 35.4347 149.57 36.064C148.887 36.6933 147.879 37.008 146.546 37.008C145.383 37.008 144.412 36.7893 143.634 36.352C143.239 36.1173 143.042 35.8347 143.042 35.504C143.042 35.2693 143.095 35.0827 143.202 34.944C143.319 34.8053 143.468 34.736 143.65 34.736C143.746 34.736 143.863 34.7573 144.002 34.8C144.14 34.8533 144.284 34.912 144.434 34.976C144.818 35.136 145.159 35.2587 145.458 35.344C145.767 35.4293 146.119 35.472 146.514 35.472C147.911 35.472 148.61 34.7893 148.61 33.424V32.4C148.375 32.8373 148.034 33.1787 147.586 33.424C147.138 33.6587 146.626 33.776 146.049 33.776C145.367 33.776 144.759 33.616 144.226 33.296C143.703 32.9653 143.292 32.5067 142.993 31.92C142.695 31.3333 142.546 30.656 142.546 29.888C142.546 29.12 142.69 28.4427 142.978 27.856C143.276 27.2587 143.692 26.8 144.226 26.48C144.759 26.1493 145.367 25.984 146.049 25.984C146.626 25.984 147.138 26.1067 147.586 26.352C148.034 26.5867 148.375 26.9227 148.61 27.36V26.944C148.61 26.6667 148.7 26.4427 148.882 26.272C149.063 26.1013 149.303 26.016 149.602 26.016ZM146.578 32.224C147.218 32.224 147.714 32.016 148.066 31.6C148.428 31.184 148.61 30.6133 148.61 29.888C148.61 29.152 148.428 28.576 148.066 28.16C147.714 27.744 147.218 27.536 146.578 27.536C145.948 27.536 145.452 27.744 145.09 28.16C144.727 28.576 144.546 29.152 144.546 29.888C144.546 30.6133 144.727 31.184 145.09 31.6C145.452 32.016 145.948 32.224 146.578 32.224ZM158.857 31.856C159.038 31.856 159.182 31.9253 159.289 32.064C159.406 32.2027 159.465 32.3893 159.465 32.624C159.465 32.9547 159.268 33.232 158.873 33.456C158.51 33.6587 158.1 33.824 157.641 33.952C157.182 34.0693 156.745 34.128 156.329 34.128C155.07 34.128 154.073 33.7653 153.337 33.04C152.601 32.3147 152.233 31.3227 152.233 30.064C152.233 29.264 152.393 28.5547 152.713 27.936C153.033 27.3173 153.481 26.8373 154.057 26.496C154.644 26.1547 155.305 25.984 156.041 25.984C156.745 25.984 157.358 26.1387 157.881 26.448C158.404 26.7573 158.809 27.1947 159.097 27.76C159.385 28.3253 159.529 28.992 159.529 29.76C159.529 30.2187 159.326 30.448 158.921 30.448H154.201C154.265 31.184 154.473 31.728 154.825 32.08C155.177 32.4213 155.689 32.592 156.361 32.592C156.702 32.592 157.001 32.5493 157.257 32.464C157.524 32.3787 157.822 32.2613 158.153 32.112C158.473 31.9413 158.708 31.856 158.857 31.856ZM156.089 27.392C155.545 27.392 155.108 27.5627 154.777 27.904C154.457 28.2453 154.265 28.736 154.201 29.376H157.817C157.796 28.7253 157.636 28.2347 157.337 27.904C157.038 27.5627 156.622 27.392 156.089 27.392ZM165.709 25.984C166.648 25.984 167.346 26.2507 167.805 26.784C168.264 27.3173 168.493 28.1227 168.493 29.2V33.136C168.493 33.4347 168.402 33.6693 168.221 33.84C168.05 34.0107 167.81 34.096 167.501 34.096C167.192 34.096 166.946 34.0107 166.765 33.84C166.584 33.6693 166.493 33.4347 166.493 33.136V29.312C166.493 28.704 166.376 28.2613 166.141 27.984C165.917 27.7067 165.56 27.568 165.069 27.568C164.493 27.568 164.029 27.7493 163.677 28.112C163.336 28.4747 163.165 28.96 163.165 29.568V33.136C163.165 33.4347 163.074 33.6693 162.893 33.84C162.712 34.0107 162.466 34.096 162.157 34.096C161.848 34.096 161.602 34.0107 161.421 33.84C161.25 33.6693 161.165 33.4347 161.165 33.136V26.944C161.165 26.6667 161.256 26.4427 161.437 26.272C161.618 26.1013 161.864 26.016 162.173 26.016C162.45 26.016 162.674 26.1013 162.845 26.272C163.026 26.432 163.117 26.6453 163.117 26.912V27.344C163.384 26.9067 163.741 26.5707 164.189 26.336C164.637 26.1013 165.144 25.984 165.709 25.984ZM177.052 22.64C177.351 22.64 177.596 22.7253 177.788 22.896C177.98 23.0667 178.076 23.2907 178.076 23.568V33.136C178.076 33.424 177.986 33.6533 177.804 33.824C177.623 33.9947 177.383 34.08 177.084 34.08C176.786 34.08 176.546 33.9947 176.364 33.824C176.183 33.6533 176.092 33.424 176.092 33.136V32.736C175.858 33.1733 175.516 33.5147 175.068 33.76C174.631 34.0053 174.13 34.128 173.564 34.128C172.892 34.128 172.29 33.9573 171.756 33.616C171.234 33.2747 170.823 32.7947 170.524 32.176C170.236 31.5467 170.092 30.8267 170.092 30.016C170.092 29.2053 170.236 28.496 170.524 27.888C170.823 27.28 171.234 26.8107 171.756 26.48C172.279 26.1493 172.882 25.984 173.564 25.984C174.13 25.984 174.631 26.1013 175.068 26.336C175.506 26.5707 175.842 26.9013 176.076 27.328V23.536C176.076 23.2693 176.162 23.056 176.332 22.896C176.514 22.7253 176.754 22.64 177.052 22.64ZM174.092 32.576C174.732 32.576 175.223 32.3573 175.564 31.92C175.916 31.4827 176.092 30.8587 176.092 30.048C176.092 29.2373 175.916 28.6187 175.564 28.192C175.223 27.7547 174.738 27.536 174.108 27.536C173.468 27.536 172.972 27.7493 172.62 28.176C172.268 28.6027 172.092 29.216 172.092 30.016C172.092 30.8267 172.268 31.456 172.62 31.904C172.972 32.352 173.463 32.576 174.092 32.576ZM183.526 25.984C184.614 25.984 185.419 26.256 185.942 26.8C186.475 27.3333 186.742 28.1493 186.742 29.248V33.152C186.742 33.44 186.656 33.6693 186.486 33.84C186.315 34 186.08 34.08 185.782 34.08C185.504 34.08 185.275 33.9947 185.094 33.824C184.923 33.6533 184.838 33.4293 184.838 33.152V32.8C184.656 33.216 184.368 33.5413 183.974 33.776C183.59 34.0107 183.142 34.128 182.63 34.128C182.107 34.128 181.632 34.0213 181.206 33.808C180.779 33.5947 180.443 33.3013 180.198 32.928C179.952 32.5547 179.83 32.1387 179.83 31.68C179.83 31.104 179.974 30.6507 180.262 30.32C180.56 29.9893 181.04 29.7493 181.702 29.6C182.363 29.4507 183.275 29.376 184.438 29.376H184.838V29.008C184.838 28.4853 184.726 28.1067 184.502 27.872C184.278 27.6267 183.915 27.504 183.414 27.504C183.104 27.504 182.79 27.552 182.47 27.648C182.15 27.7333 181.771 27.8613 181.334 28.032C181.056 28.1707 180.854 28.24 180.726 28.24C180.534 28.24 180.374 28.1707 180.246 28.032C180.128 27.8933 180.07 27.712 180.07 27.488C180.07 27.3067 180.112 27.152 180.198 27.024C180.294 26.8853 180.448 26.7573 180.662 26.64C181.035 26.4373 181.478 26.2773 181.99 26.16C182.512 26.0427 183.024 25.984 183.526 25.984ZM183.03 32.688C183.563 32.688 183.995 32.512 184.326 32.16C184.667 31.7973 184.838 31.3333 184.838 30.768V30.432H184.55C183.835 30.432 183.28 30.464 182.886 30.528C182.491 30.592 182.208 30.704 182.038 30.864C181.867 31.024 181.782 31.2427 181.782 31.52C181.782 31.8613 181.899 32.144 182.134 32.368C182.379 32.5813 182.678 32.688 183.03 32.688ZM199.646 22.64C199.945 22.64 200.19 22.7253 200.382 22.896C200.574 23.0667 200.67 23.2907 200.67 23.568V33.136C200.67 33.424 200.579 33.6533 200.398 33.824C200.217 33.9947 199.977 34.08 199.678 34.08C199.379 34.08 199.139 33.9947 198.958 33.824C198.777 33.6533 198.686 33.424 198.686 33.136V32.736C198.451 33.1733 198.11 33.5147 197.662 33.76C197.225 34.0053 196.723 34.128 196.158 34.128C195.486 34.128 194.883 33.9573 194.35 33.616C193.827 33.2747 193.417 32.7947 193.118 32.176C192.83 31.5467 192.686 30.8267 192.686 30.016C192.686 29.2053 192.83 28.496 193.118 27.888C193.417 27.28 193.827 26.8107 194.35 26.48C194.873 26.1493 195.475 25.984 196.158 25.984C196.723 25.984 197.225 26.1013 197.662 26.336C198.099 26.5707 198.435 26.9013 198.67 27.328V23.536C198.67 23.2693 198.755 23.056 198.926 22.896C199.107 22.7253 199.347 22.64 199.646 22.64ZM196.686 32.576C197.326 32.576 197.817 32.3573 198.158 31.92C198.51 31.4827 198.686 30.8587 198.686 30.048C198.686 29.2373 198.51 28.6187 198.158 28.192C197.817 27.7547 197.331 27.536 196.702 27.536C196.062 27.536 195.566 27.7493 195.214 28.176C194.862 28.6027 194.686 29.216 194.686 30.016C194.686 30.8267 194.862 31.456 195.214 31.904C195.566 32.352 196.057 32.576 196.686 32.576ZM208.92 31.856C209.101 31.856 209.245 31.9253 209.352 32.064C209.469 32.2027 209.528 32.3893 209.528 32.624C209.528 32.9547 209.33 33.232 208.936 33.456C208.573 33.6587 208.162 33.824 207.704 33.952C207.245 34.0693 206.808 34.128 206.391 34.128C205.133 34.128 204.136 33.7653 203.4 33.04C202.664 32.3147 202.296 31.3227 202.296 30.064C202.296 29.264 202.456 28.5547 202.776 27.936C203.096 27.3173 203.544 26.8373 204.12 26.496C204.706 26.1547 205.368 25.984 206.104 25.984C206.808 25.984 207.421 26.1387 207.944 26.448C208.466 26.7573 208.872 27.1947 209.16 27.76C209.448 28.3253 209.592 28.992 209.592 29.76C209.592 30.2187 209.389 30.448 208.984 30.448H204.264C204.328 31.184 204.536 31.728 204.888 32.08C205.24 32.4213 205.752 32.592 206.424 32.592C206.765 32.592 207.064 32.5493 207.32 32.464C207.586 32.3787 207.885 32.2613 208.216 32.112C208.536 31.9413 208.77 31.856 208.92 31.856ZM206.152 27.392C205.608 27.392 205.17 27.5627 204.84 27.904C204.52 28.2453 204.328 28.736 204.264 29.376H207.88C207.858 28.7253 207.698 28.2347 207.4 27.904C207.101 27.5627 206.685 27.392 206.152 27.392ZM219.043 34.128C218.265 34.128 217.577 33.9627 216.979 33.632C216.393 33.3013 215.939 32.832 215.619 32.224C215.299 31.616 215.139 30.9067 215.139 30.096C215.139 29.2853 215.305 28.5707 215.635 27.952C215.977 27.3227 216.451 26.8373 217.059 26.496C217.667 26.1547 218.366 25.984 219.155 25.984C219.571 25.984 219.987 26.0427 220.403 26.16C220.83 26.2773 221.203 26.4373 221.523 26.64C221.865 26.864 222.035 27.1467 222.035 27.488C222.035 27.7227 221.977 27.9147 221.859 28.064C221.753 28.2027 221.609 28.272 221.427 28.272C221.31 28.272 221.187 28.2453 221.059 28.192C220.931 28.1387 220.803 28.0747 220.675 28C220.441 27.8613 220.217 27.7547 220.003 27.68C219.79 27.5947 219.545 27.552 219.267 27.552C218.606 27.552 218.094 27.7707 217.731 28.208C217.379 28.6347 217.203 29.2533 217.203 30.064C217.203 30.864 217.379 31.4827 217.731 31.92C218.094 32.3467 218.606 32.56 219.267 32.56C219.534 32.56 219.769 32.5227 219.971 32.448C220.185 32.3627 220.419 32.2507 220.675 32.112C220.835 32.016 220.974 31.9467 221.091 31.904C221.209 31.8507 221.326 31.824 221.443 31.824C221.614 31.824 221.758 31.8987 221.875 32.048C221.993 32.1973 222.051 32.384 222.051 32.608C222.051 32.7893 222.009 32.9493 221.923 33.088C221.849 33.216 221.721 33.3333 221.539 33.44C221.209 33.6533 220.825 33.824 220.387 33.952C219.95 34.0693 219.502 34.128 219.043 34.128ZM226.952 34.128C226.152 34.128 225.448 33.9627 224.84 33.632C224.242 33.3013 223.778 32.8267 223.448 32.208C223.117 31.5893 222.952 30.8693 222.952 30.048C222.952 29.2267 223.117 28.512 223.448 27.904C223.778 27.2853 224.242 26.8107 224.84 26.48C225.448 26.1493 226.152 25.984 226.952 25.984C227.752 25.984 228.45 26.1493 229.048 26.48C229.656 26.8107 230.12 27.2853 230.44 27.904C230.77 28.512 230.936 29.2267 230.936 30.048C230.936 30.8693 230.77 31.5893 230.44 32.208C230.12 32.8267 229.656 33.3013 229.048 33.632C228.45 33.9627 227.752 34.128 226.952 34.128ZM226.936 32.576C227.586 32.576 228.082 32.3627 228.424 31.936C228.765 31.5093 228.936 30.88 228.936 30.048C228.936 29.2267 228.765 28.6027 228.424 28.176C228.082 27.7387 227.592 27.52 226.952 27.52C226.312 27.52 225.816 27.7387 225.464 28.176C225.122 28.6027 224.952 29.2267 224.952 30.048C224.952 30.88 225.122 31.5093 225.464 31.936C225.805 32.3627 226.296 32.576 226.936 32.576ZM237.131 25.984C238.07 25.984 238.768 26.2507 239.227 26.784C239.686 27.3173 239.915 28.1227 239.915 29.2V33.136C239.915 33.4347 239.824 33.6693 239.643 33.84C239.472 34.0107 239.232 34.096 238.923 34.096C238.614 34.096 238.368 34.0107 238.187 33.84C238.006 33.6693 237.915 33.4347 237.915 33.136V29.312C237.915 28.704 237.798 28.2613 237.563 27.984C237.339 27.7067 236.982 27.568 236.491 27.568C235.915 27.568 235.451 27.7493 235.099 28.112C234.758 28.4747 234.587 28.96 234.587 29.568V33.136C234.587 33.4347 234.496 33.6693 234.315 33.84C234.134 34.0107 233.888 34.096 233.579 34.096C233.27 34.096 233.024 34.0107 232.843 33.84C232.672 33.6693 232.587 33.4347 232.587 33.136V26.944C232.587 26.6667 232.678 26.4427 232.859 26.272C233.04 26.1013 233.286 26.016 233.595 26.016C233.872 26.016 234.096 26.1013 234.267 26.272C234.448 26.432 234.539 26.6453 234.539 26.912V27.344C234.806 26.9067 235.163 26.5707 235.611 26.336C236.059 26.1013 236.566 25.984 237.131 25.984ZM246.01 32.608C246.544 32.64 246.81 32.88 246.81 33.328C246.81 33.584 246.704 33.7813 246.49 33.92C246.288 34.048 245.994 34.1013 245.61 34.08L245.178 34.048C243.386 33.92 242.49 32.96 242.49 31.168V27.68H241.69C241.402 27.68 241.178 27.616 241.018 27.488C240.869 27.36 240.794 27.1733 240.794 26.928C240.794 26.6827 240.869 26.496 241.018 26.368C241.178 26.24 241.402 26.176 241.69 26.176H242.49V24.704C242.49 24.416 242.581 24.1867 242.762 24.016C242.944 23.8453 243.189 23.76 243.498 23.76C243.797 23.76 244.037 23.8453 244.218 24.016C244.4 24.1867 244.49 24.416 244.49 24.704V26.176H245.85C246.138 26.176 246.357 26.24 246.506 26.368C246.666 26.496 246.746 26.6827 246.746 26.928C246.746 27.1733 246.666 27.36 246.506 27.488C246.357 27.616 246.138 27.68 245.85 27.68H244.49V31.312C244.49 32.1013 244.853 32.5227 245.578 32.576L246.01 32.608ZM251.245 25.984C252.333 25.984 253.138 26.256 253.661 26.8C254.194 27.3333 254.461 28.1493 254.461 29.248V33.152C254.461 33.44 254.375 33.6693 254.205 33.84C254.034 34 253.799 34.08 253.501 34.08C253.223 34.08 252.994 33.9947 252.813 33.824C252.642 33.6533 252.557 33.4293 252.557 33.152V32.8C252.375 33.216 252.087 33.5413 251.693 33.776C251.309 34.0107 250.861 34.128 250.349 34.128C249.826 34.128 249.351 34.0213 248.924 33.808C248.498 33.5947 248.162 33.3013 247.917 32.928C247.671 32.5547 247.549 32.1387 247.549 31.68C247.549 31.104 247.693 30.6507 247.981 30.32C248.279 29.9893 248.759 29.7493 249.421 29.6C250.082 29.4507 250.994 29.376 252.157 29.376H252.557V29.008C252.557 28.4853 252.445 28.1067 252.221 27.872C251.997 27.6267 251.634 27.504 251.133 27.504C250.823 27.504 250.509 27.552 250.189 27.648C249.869 27.7333 249.49 27.8613 249.053 28.032C248.775 28.1707 248.573 28.24 248.445 28.24C248.253 28.24 248.093 28.1707 247.965 28.032C247.847 27.8933 247.789 27.712 247.789 27.488C247.789 27.3067 247.831 27.152 247.917 27.024C248.013 26.8853 248.167 26.7573 248.381 26.64C248.754 26.4373 249.197 26.2773 249.709 26.16C250.231 26.0427 250.743 25.984 251.245 25.984ZM250.749 32.688C251.282 32.688 251.714 32.512 252.045 32.16C252.386 31.7973 252.557 31.3333 252.557 30.768V30.432H252.269C251.554 30.432 250.999 30.464 250.605 30.528C250.21 30.592 249.927 30.704 249.757 30.864C249.586 31.024 249.501 31.2427 249.501 31.52C249.501 31.8613 249.618 32.144 249.853 32.368C250.098 32.5813 250.397 32.688 250.749 32.688ZM259.965 34.128C259.186 34.128 258.498 33.9627 257.901 33.632C257.314 33.3013 256.861 32.832 256.541 32.224C256.221 31.616 256.061 30.9067 256.061 30.096C256.061 29.2853 256.226 28.5707 256.557 27.952C256.898 27.3227 257.373 26.8373 257.981 26.496C258.589 26.1547 259.288 25.984 260.077 25.984C260.493 25.984 260.909 26.0427 261.325 26.16C261.752 26.2773 262.125 26.4373 262.445 26.64C262.786 26.864 262.957 27.1467 262.957 27.488C262.957 27.7227 262.898 27.9147 262.781 28.064C262.674 28.2027 262.53 28.272 262.349 28.272C262.232 28.272 262.109 28.2453 261.981 28.192C261.853 28.1387 261.725 28.0747 261.597 28C261.362 27.8613 261.138 27.7547 260.925 27.68C260.712 27.5947 260.466 27.552 260.189 27.552C259.528 27.552 259.016 27.7707 258.653 28.208C258.301 28.6347 258.125 29.2533 258.125 30.064C258.125 30.864 258.301 31.4827 258.653 31.92C259.016 32.3467 259.528 32.56 260.189 32.56C260.456 32.56 260.69 32.5227 260.893 32.448C261.106 32.3627 261.341 32.2507 261.597 32.112C261.757 32.016 261.896 31.9467 262.013 31.904C262.13 31.8507 262.248 31.824 262.365 31.824C262.536 31.824 262.68 31.8987 262.797 32.048C262.914 32.1973 262.973 32.384 262.973 32.608C262.973 32.7893 262.93 32.9493 262.845 33.088C262.77 33.216 262.642 33.3333 262.461 33.44C262.13 33.6533 261.746 33.824 261.309 33.952C260.872 34.0693 260.424 34.128 259.965 34.128ZM268.417 32.608C268.95 32.64 269.217 32.88 269.217 33.328C269.217 33.584 269.11 33.7813 268.897 33.92C268.694 34.048 268.401 34.1013 268.016 34.08L267.585 34.048C265.793 33.92 264.897 32.96 264.897 31.168V27.68H264.097C263.809 27.68 263.585 27.616 263.425 27.488C263.275 27.36 263.2 27.1733 263.2 26.928C263.2 26.6827 263.275 26.496 263.425 26.368C263.585 26.24 263.809 26.176 264.097 26.176H264.897V24.704C264.897 24.416 264.987 24.1867 265.169 24.016C265.35 23.8453 265.595 23.76 265.905 23.76C266.203 23.76 266.443 23.8453 266.625 24.016C266.806 24.1867 266.897 24.416 266.897 24.704V26.176H268.257C268.545 26.176 268.763 26.24 268.913 26.368C269.073 26.496 269.153 26.6827 269.153 26.928C269.153 27.1733 269.073 27.36 268.913 27.488C268.763 27.616 268.545 27.68 268.257 27.68H266.897V31.312C266.897 32.1013 267.259 32.5227 267.985 32.576L268.417 32.608ZM273.827 34.128C273.027 34.128 272.323 33.9627 271.715 33.632C271.117 33.3013 270.653 32.8267 270.323 32.208C269.992 31.5893 269.827 30.8693 269.827 30.048C269.827 29.2267 269.992 28.512 270.323 27.904C270.653 27.2853 271.117 26.8107 271.715 26.48C272.323 26.1493 273.027 25.984 273.827 25.984C274.627 25.984 275.325 26.1493 275.923 26.48C276.531 26.8107 276.995 27.2853 277.315 27.904C277.645 28.512 277.811 29.2267 277.811 30.048C277.811 30.8693 277.645 31.5893 277.315 32.208C276.995 32.8267 276.531 33.3013 275.923 33.632C275.325 33.9627 274.627 34.128 273.827 34.128ZM273.811 32.576C274.461 32.576 274.957 32.3627 275.299 31.936C275.64 31.5093 275.811 30.88 275.811 30.048C275.811 29.2267 275.64 28.6027 275.299 28.176C274.957 27.7387 274.467 27.52 273.827 27.52C273.187 27.52 272.691 27.7387 272.339 28.176C271.997 28.6027 271.827 29.2267 271.827 30.048C271.827 30.88 271.997 31.5093 272.339 31.936C272.68 32.3627 273.171 32.576 273.811 32.576ZM282.294 34.128C281.131 34.128 280.193 33.8987 279.478 33.44C279.137 33.2373 278.966 32.9493 278.966 32.576C278.966 32.3627 279.025 32.192 279.142 32.064C279.259 31.9253 279.403 31.856 279.574 31.856C279.755 31.856 280.006 31.9413 280.326 32.112C280.667 32.272 280.977 32.3947 281.254 32.48C281.542 32.5653 281.905 32.608 282.342 32.608C282.79 32.608 283.137 32.5333 283.382 32.384C283.638 32.2347 283.766 32.0267 283.766 31.76C283.766 31.5787 283.713 31.4347 283.606 31.328C283.51 31.2213 283.329 31.1253 283.062 31.04C282.806 30.944 282.411 30.8373 281.878 30.72C280.929 30.528 280.246 30.256 279.83 29.904C279.425 29.552 279.222 29.0667 279.222 28.448C279.222 27.9787 279.361 27.5573 279.638 27.184C279.915 26.8 280.294 26.5067 280.774 26.304C281.265 26.0907 281.819 25.984 282.438 25.984C282.886 25.984 283.318 26.0427 283.734 26.16C284.15 26.2667 284.523 26.4267 284.854 26.64C285.195 26.8533 285.366 27.136 285.366 27.488C285.366 27.7013 285.307 27.8827 285.19 28.032C285.073 28.1707 284.929 28.24 284.758 28.24C284.641 28.24 284.523 28.2187 284.406 28.176C284.299 28.1227 284.161 28.048 283.99 27.952C283.681 27.792 283.414 27.6747 283.19 27.6C282.966 27.5147 282.689 27.472 282.358 27.472C281.963 27.472 281.649 27.552 281.414 27.712C281.19 27.872 281.078 28.0907 281.078 28.368C281.078 28.6347 281.195 28.8373 281.43 28.976C281.665 29.1147 282.118 29.2533 282.79 29.392C283.505 29.5413 284.065 29.712 284.47 29.904C284.875 30.096 285.163 30.336 285.334 30.624C285.515 30.912 285.606 31.28 285.606 31.728C285.606 32.4533 285.302 33.0347 284.694 33.472C284.097 33.9093 283.297 34.128 282.294 34.128Z" fill="#381A56"/>
<path d="M67.004 55.104C66.3627 55.104 65.743 55.0043 65.145 54.805C64.5557 54.597 64.092 54.3197 63.754 53.973C63.6413 53.8777 63.585 53.752 63.585 53.596C63.585 53.5007 63.611 53.4183 63.663 53.349C63.7237 53.2797 63.7887 53.245 63.858 53.245C63.9447 53.245 64.0443 53.2883 64.157 53.375C64.9717 54.051 65.9207 54.389 67.004 54.389C67.7927 54.389 68.3993 54.233 68.824 53.921C69.2573 53.6003 69.474 53.1497 69.474 52.569C69.474 52.231 69.37 51.958 69.162 51.75C68.954 51.542 68.6897 51.3817 68.369 51.269C68.0483 51.1477 67.6193 51.0263 67.082 50.905C66.3713 50.749 65.795 50.5887 65.353 50.424C64.9197 50.2593 64.5513 50.0123 64.248 49.683C63.9447 49.345 63.793 48.8943 63.793 48.331C63.793 47.8197 63.9273 47.369 64.196 46.979C64.4733 46.5803 64.859 46.2727 65.353 46.056C65.847 45.8393 66.4147 45.731 67.056 45.731C67.654 45.731 68.2173 45.8307 68.746 46.03C69.2747 46.2207 69.7123 46.498 70.059 46.862C70.1717 46.9747 70.228 47.1003 70.228 47.239C70.228 47.3343 70.1977 47.4167 70.137 47.486C70.085 47.5553 70.0243 47.59 69.955 47.59C69.8683 47.59 69.7687 47.5467 69.656 47.46C69.188 47.0787 68.7633 46.8143 68.382 46.667C68.0093 46.5197 67.5673 46.446 67.056 46.446C66.2847 46.446 65.6823 46.6107 65.249 46.94C64.8157 47.2693 64.599 47.7287 64.599 48.318C64.599 48.6733 64.6943 48.9637 64.885 49.189C65.0757 49.4057 65.3227 49.579 65.626 49.709C65.938 49.839 66.3367 49.9647 66.822 50.086L67.16 50.164C67.862 50.3373 68.4167 50.4977 68.824 50.645C69.2313 50.7923 69.5737 51.022 69.851 51.334C70.137 51.6373 70.28 52.049 70.28 52.569C70.28 53.063 70.1413 53.505 69.864 53.895C69.5953 54.2763 69.2097 54.5753 68.707 54.792C68.213 55 67.6453 55.104 67.004 55.104ZM72.3395 55.065C72.2182 55.065 72.1185 55.0303 72.0405 54.961C71.9712 54.8917 71.9365 54.792 71.9365 54.662V48.968C71.9365 48.838 71.9712 48.7383 72.0405 48.669C72.1185 48.5997 72.2182 48.565 72.3395 48.565C72.4608 48.565 72.5562 48.5997 72.6255 48.669C72.6948 48.7383 72.7295 48.838 72.7295 48.968V54.662C72.7295 54.792 72.6948 54.8917 72.6255 54.961C72.5562 55.0303 72.4608 55.065 72.3395 55.065ZM72.3395 47.096C72.1662 47.096 72.0232 47.044 71.9105 46.94C71.8065 46.836 71.7545 46.7017 71.7545 46.537C71.7545 46.3637 71.8065 46.225 71.9105 46.121C72.0232 46.017 72.1662 45.965 72.3395 45.965C72.5128 45.965 72.6515 46.017 72.7555 46.121C72.8682 46.225 72.9245 46.3637 72.9245 46.537C72.9245 46.7017 72.8682 46.836 72.7555 46.94C72.6515 47.044 72.5128 47.096 72.3395 47.096ZM80.8367 54.402C81.0794 54.428 81.2007 54.5407 81.2007 54.74C81.2007 54.844 81.1617 54.9263 81.0837 54.987C81.0057 55.0477 80.88 55.0737 80.7067 55.065L80.3427 55.039C79.684 54.9957 79.1944 54.7963 78.8737 54.441C78.5617 54.077 78.4057 53.5267 78.4057 52.79V49.332H77.4177C77.3137 49.332 77.2314 49.306 77.1707 49.254C77.11 49.1933 77.0797 49.1153 77.0797 49.02C77.0797 48.9247 77.11 48.8467 77.1707 48.786C77.2314 48.7253 77.3137 48.695 77.4177 48.695H78.4057V47.083C78.4057 46.953 78.4404 46.8533 78.5097 46.784C78.579 46.7147 78.6744 46.68 78.7957 46.68C78.917 46.68 79.0124 46.7147 79.0817 46.784C79.1597 46.8533 79.1987 46.953 79.1987 47.083V48.695H80.7717C80.8844 48.695 80.971 48.7253 81.0317 48.786C81.0924 48.8467 81.1227 48.9247 81.1227 49.02C81.1227 49.1153 81.0924 49.1933 81.0317 49.254C80.971 49.306 80.8844 49.332 80.7717 49.332H79.1987V52.829C79.1987 53.3663 79.3027 53.752 79.5107 53.986C79.7187 54.2113 80.0437 54.3413 80.4857 54.376L80.8367 54.402ZM82.7496 55.065C82.6283 55.065 82.5286 55.0303 82.4506 54.961C82.3813 54.8917 82.3466 54.792 82.3466 54.662V48.968C82.3466 48.838 82.3813 48.7383 82.4506 48.669C82.5286 48.5997 82.6283 48.565 82.7496 48.565C82.871 48.565 82.9663 48.5997 83.0356 48.669C83.105 48.7383 83.1396 48.838 83.1396 48.968V54.662C83.1396 54.792 83.105 54.8917 83.0356 54.961C82.9663 55.0303 82.871 55.065 82.7496 55.065ZM82.7496 47.096C82.5763 47.096 82.4333 47.044 82.3206 46.94C82.2166 46.836 82.1646 46.7017 82.1646 46.537C82.1646 46.3637 82.2166 46.225 82.3206 46.121C82.4333 46.017 82.5763 45.965 82.7496 45.965C82.923 45.965 83.0616 46.017 83.1656 46.121C83.2783 46.225 83.3346 46.3637 83.3346 46.537C83.3346 46.7017 83.2783 46.836 83.1656 46.94C83.0616 47.044 82.923 47.096 82.7496 47.096ZM90.0645 53.648C90.1425 53.648 90.2075 53.6827 90.2595 53.752C90.3201 53.8127 90.3505 53.8863 90.3505 53.973C90.3505 54.1637 90.2031 54.35 89.9085 54.532C89.2845 54.9047 88.6258 55.091 87.9325 55.091C86.9705 55.091 86.2121 54.8007 85.6575 54.22C85.1028 53.6393 84.8255 52.842 84.8255 51.828C84.8255 51.178 84.9468 50.606 85.1895 50.112C85.4408 49.6093 85.7875 49.2237 86.2295 48.955C86.6801 48.6777 87.1958 48.539 87.7765 48.539C88.5911 48.539 89.2325 48.8033 89.7005 49.332C90.1771 49.852 90.4155 50.5713 90.4155 51.49C90.4155 51.646 90.3808 51.763 90.3115 51.841C90.2421 51.9103 90.1295 51.945 89.9735 51.945H85.6445C85.6705 52.7423 85.8785 53.349 86.2685 53.765C86.6585 54.181 87.2088 54.389 87.9195 54.389C88.2921 54.389 88.6041 54.3413 88.8555 54.246C89.1068 54.142 89.3755 54.0077 89.6615 53.843C89.8521 53.713 89.9865 53.648 90.0645 53.648ZM87.7765 49.189C87.1698 49.189 86.6845 49.3797 86.3205 49.761C85.9565 50.1423 85.7398 50.6753 85.6705 51.36H89.6875C89.6701 50.6667 89.4968 50.1337 89.1675 49.761C88.8381 49.3797 88.3745 49.189 87.7765 49.189ZM95.0223 48.539C96.5389 48.539 97.2973 49.3537 97.2973 50.983V54.662C97.2973 54.7833 97.2626 54.883 97.1933 54.961C97.1239 55.0303 97.0286 55.065 96.9073 55.065C96.7859 55.065 96.6863 55.0303 96.6083 54.961C96.5389 54.883 96.5043 54.7833 96.5043 54.662V51.035C96.5043 50.411 96.3786 49.956 96.1273 49.67C95.8759 49.384 95.4773 49.241 94.9313 49.241C94.3073 49.241 93.8046 49.4317 93.4233 49.813C93.0506 50.1943 92.8643 50.7057 92.8643 51.347V54.662C92.8643 54.7833 92.8296 54.883 92.7603 54.961C92.6909 55.0303 92.5956 55.065 92.4743 55.065C92.3529 55.065 92.2533 55.0303 92.1753 54.961C92.1059 54.883 92.0713 54.7833 92.0713 54.662V48.968C92.0713 48.8467 92.1059 48.7513 92.1753 48.682C92.2533 48.604 92.3529 48.565 92.4743 48.565C92.5869 48.565 92.6779 48.5997 92.7472 48.669C92.8166 48.7383 92.8513 48.8337 92.8513 48.955V49.774C93.0506 49.3753 93.3366 49.072 93.7093 48.864C94.0906 48.6473 94.5283 48.539 95.0223 48.539ZM104.194 53.648C104.272 53.648 104.337 53.6827 104.389 53.752C104.45 53.8127 104.48 53.8863 104.48 53.973C104.48 54.1637 104.333 54.35 104.038 54.532C103.414 54.9047 102.756 55.091 102.062 55.091C101.1 55.091 100.342 54.8007 99.7874 54.22C99.2327 53.6393 98.9554 52.842 98.9554 51.828C98.9554 51.178 99.0767 50.606 99.3194 50.112C99.5707 49.6093 99.9174 49.2237 100.359 48.955C100.81 48.6777 101.326 48.539 101.906 48.539C102.721 48.539 103.362 48.8033 103.83 49.332C104.307 49.852 104.545 50.5713 104.545 51.49C104.545 51.646 104.511 51.763 104.441 51.841C104.372 51.9103 104.259 51.945 104.103 51.945H99.7744C99.8004 52.7423 100.008 53.349 100.398 53.765C100.788 54.181 101.339 54.389 102.049 54.389C102.422 54.389 102.734 54.3413 102.985 54.246C103.237 54.142 103.505 54.0077 103.791 53.843C103.982 53.713 104.116 53.648 104.194 53.648ZM101.906 49.189C101.3 49.189 100.814 49.3797 100.45 49.761C100.086 50.1423 99.8697 50.6753 99.8004 51.36H103.817C103.8 50.6667 103.627 50.1337 103.297 49.761C102.968 49.3797 102.504 49.189 101.906 49.189ZM108.242 55.091C107.878 55.091 107.518 55.0433 107.163 54.948C106.816 54.844 106.509 54.7053 106.24 54.532C106.075 54.4193 105.958 54.324 105.889 54.246C105.828 54.1593 105.798 54.064 105.798 53.96C105.798 53.8733 105.824 53.7997 105.876 53.739C105.937 53.6783 106.006 53.648 106.084 53.648C106.162 53.648 106.296 53.713 106.487 53.843C106.738 54.0077 106.994 54.142 107.254 54.246C107.523 54.35 107.856 54.402 108.255 54.402C108.766 54.402 109.165 54.311 109.451 54.129C109.737 53.9383 109.88 53.6697 109.88 53.323C109.88 53.115 109.828 52.946 109.724 52.816C109.62 52.6773 109.447 52.5603 109.204 52.465C108.961 52.361 108.615 52.2613 108.164 52.166C107.393 51.9927 106.842 51.7717 106.513 51.503C106.192 51.2257 106.032 50.8573 106.032 50.398C106.032 49.8433 106.249 49.397 106.682 49.059C107.115 48.7123 107.679 48.539 108.372 48.539C108.71 48.539 109.031 48.5823 109.334 48.669C109.646 48.7557 109.915 48.8813 110.14 49.046C110.443 49.254 110.595 49.4577 110.595 49.657C110.595 49.7437 110.565 49.8217 110.504 49.891C110.452 49.9517 110.387 49.982 110.309 49.982C110.222 49.982 110.088 49.9127 109.906 49.774C109.672 49.6093 109.438 49.4793 109.204 49.384C108.979 49.28 108.688 49.228 108.333 49.228C107.882 49.228 107.523 49.332 107.254 49.54C106.985 49.7393 106.851 50.0123 106.851 50.359C106.851 50.5583 106.894 50.723 106.981 50.853C107.076 50.983 107.232 51.1 107.449 51.204C107.674 51.2993 107.995 51.3947 108.411 51.49C109.009 51.6287 109.468 51.776 109.789 51.932C110.11 52.088 110.339 52.2743 110.478 52.491C110.617 52.7077 110.686 52.985 110.686 53.323C110.686 53.8517 110.461 54.2807 110.01 54.61C109.568 54.9307 108.979 55.091 108.242 55.091ZM118.181 48.539C118.943 48.539 119.511 48.7383 119.884 49.137C120.265 49.5357 120.456 50.138 120.456 50.944V54.649C120.456 54.7703 120.421 54.87 120.352 54.948C120.282 55.0173 120.187 55.052 120.066 55.052C119.944 55.052 119.849 55.0173 119.78 54.948C119.71 54.87 119.676 54.7703 119.676 54.649V53.869C119.494 54.259 119.229 54.5623 118.883 54.779C118.536 54.987 118.137 55.091 117.687 55.091C117.279 55.091 116.907 55.0087 116.569 54.844C116.239 54.6793 115.975 54.454 115.776 54.168C115.576 53.882 115.477 53.5613 115.477 53.206C115.468 52.7293 115.585 52.361 115.828 52.101C116.07 51.8323 116.473 51.6417 117.037 51.529C117.6 51.4163 118.389 51.36 119.403 51.36H119.676V50.879C119.676 50.307 119.559 49.891 119.325 49.631C119.091 49.3623 118.722 49.228 118.22 49.228C117.578 49.228 116.967 49.397 116.387 49.735C116.361 49.7523 116.291 49.8 116.179 49.878C116.075 49.9473 115.984 49.982 115.906 49.982C115.819 49.982 115.745 49.9517 115.685 49.891C115.633 49.8217 115.607 49.7393 115.607 49.644C115.607 49.4533 115.758 49.267 116.062 49.085C116.365 48.9117 116.703 48.7773 117.076 48.682C117.448 48.5867 117.817 48.539 118.181 48.539ZM117.752 54.402C118.315 54.402 118.774 54.2113 119.13 53.83C119.494 53.4487 119.676 52.9633 119.676 52.374V51.945H119.429C118.597 51.945 117.96 51.9797 117.518 52.049C117.076 52.1183 116.764 52.2397 116.582 52.413C116.4 52.5777 116.309 52.8203 116.309 53.141C116.309 53.505 116.447 53.8083 116.725 54.051C117.002 54.285 117.344 54.402 117.752 54.402ZM128.546 54.402C128.788 54.428 128.91 54.5407 128.91 54.74C128.91 54.844 128.871 54.9263 128.793 54.987C128.715 55.0477 128.589 55.0737 128.416 55.065L128.052 55.039C127.393 54.9957 126.903 54.7963 126.583 54.441C126.271 54.077 126.115 53.5267 126.115 52.79V49.332H125.127C125.023 49.332 124.94 49.306 124.88 49.254C124.819 49.1933 124.789 49.1153 124.789 49.02C124.789 48.9247 124.819 48.8467 124.88 48.786C124.94 48.7253 125.023 48.695 125.127 48.695H126.115V47.083C126.115 46.953 126.149 46.8533 126.219 46.784C126.288 46.7147 126.383 46.68 126.505 46.68C126.626 46.68 126.721 46.7147 126.791 46.784C126.869 46.8533 126.908 46.953 126.908 47.083V48.695H128.481C128.593 48.695 128.68 48.7253 128.741 48.786C128.801 48.8467 128.832 48.9247 128.832 49.02C128.832 49.1153 128.801 49.1933 128.741 49.254C128.68 49.306 128.593 49.332 128.481 49.332H126.908V52.829C126.908 53.3663 127.012 53.752 127.22 53.986C127.428 54.2113 127.753 54.3413 128.195 54.376L128.546 54.402ZM134.762 48.565C134.883 48.565 134.978 48.604 135.048 48.682C135.126 48.7513 135.165 48.8467 135.165 48.968V54.662C135.165 54.7833 135.126 54.883 135.048 54.961C134.978 55.0303 134.883 55.065 134.762 55.065C134.649 55.065 134.558 55.0303 134.489 54.961C134.419 54.883 134.385 54.7833 134.385 54.662V53.869C134.185 54.2677 133.899 54.571 133.527 54.779C133.163 54.987 132.747 55.091 132.279 55.091C131.533 55.091 130.97 54.8873 130.589 54.48C130.216 54.064 130.03 53.453 130.03 52.647V48.968C130.03 48.8467 130.064 48.7513 130.134 48.682C130.212 48.604 130.311 48.565 130.433 48.565C130.554 48.565 130.649 48.604 130.719 48.682C130.788 48.7513 130.823 48.8467 130.823 48.968V52.595C130.823 53.2103 130.944 53.6653 131.187 53.96C131.438 54.246 131.828 54.389 132.357 54.389C132.963 54.389 133.449 54.1983 133.813 53.817C134.185 53.427 134.372 52.9113 134.372 52.27V48.968C134.372 48.8467 134.406 48.7513 134.476 48.682C134.545 48.604 134.64 48.565 134.762 48.565ZM143.481 48.539C144.035 48.539 144.525 48.6777 144.95 48.955C145.374 49.2237 145.704 49.6093 145.938 50.112C146.172 50.606 146.289 51.1823 146.289 51.841C146.289 52.491 146.172 53.063 145.938 53.557C145.704 54.0423 145.374 54.4193 144.95 54.688C144.525 54.9567 144.035 55.091 143.481 55.091C142.969 55.091 142.527 54.9827 142.155 54.766C141.782 54.5407 141.5 54.2157 141.31 53.791V57.002C141.31 57.1233 141.275 57.2187 141.206 57.288C141.136 57.366 141.041 57.405 140.92 57.405C140.798 57.405 140.699 57.366 140.621 57.288C140.551 57.2187 140.517 57.1233 140.517 57.002V48.968C140.517 48.8467 140.551 48.7513 140.621 48.682C140.699 48.604 140.798 48.565 140.92 48.565C141.041 48.565 141.136 48.604 141.206 48.682C141.275 48.7513 141.31 48.8467 141.31 48.968V49.839C141.5 49.4143 141.782 49.0937 142.155 48.877C142.527 48.6517 142.969 48.539 143.481 48.539ZM143.364 54.389C144.031 54.389 144.547 54.168 144.911 53.726C145.283 53.2753 145.47 52.647 145.47 51.841C145.47 51.0177 145.283 50.3763 144.911 49.917C144.547 49.4577 144.035 49.228 143.377 49.228C142.718 49.228 142.207 49.4533 141.843 49.904C141.487 50.3547 141.31 50.9917 141.31 51.815C141.31 52.6383 141.487 53.2753 141.843 53.726C142.198 54.168 142.705 54.389 143.364 54.389ZM150.907 48.565C151.071 48.5563 151.188 48.578 151.258 48.63C151.327 48.682 151.362 48.7687 151.362 48.89C151.362 49.1067 151.232 49.228 150.972 49.254L150.582 49.293C149.966 49.3537 149.507 49.5747 149.204 49.956C148.909 50.3373 148.762 50.7837 148.762 51.295V54.662C148.762 54.792 148.727 54.8917 148.658 54.961C148.588 55.0303 148.493 55.065 148.372 55.065C148.25 55.065 148.151 55.0303 148.073 54.961C148.003 54.8917 147.969 54.792 147.969 54.662V48.968C147.969 48.838 148.003 48.7383 148.073 48.669C148.151 48.5997 148.25 48.565 148.372 48.565C148.484 48.565 148.575 48.5997 148.645 48.669C148.714 48.7383 148.749 48.8337 148.749 48.955V49.8C149.104 49.0547 149.763 48.6473 150.725 48.578L150.907 48.565ZM154.756 55.091C154.175 55.091 153.664 54.9567 153.222 54.688C152.789 54.4193 152.451 54.038 152.208 53.544C151.965 53.05 151.844 52.4737 151.844 51.815C151.844 51.1563 151.965 50.58 152.208 50.086C152.451 49.592 152.789 49.2107 153.222 48.942C153.664 48.6733 154.175 48.539 154.756 48.539C155.328 48.539 155.835 48.6733 156.277 48.942C156.719 49.2107 157.057 49.592 157.291 50.086C157.534 50.58 157.655 51.1563 157.655 51.815C157.655 52.4737 157.534 53.05 157.291 53.544C157.057 54.038 156.719 54.4193 156.277 54.688C155.835 54.9567 155.328 55.091 154.756 55.091ZM154.743 54.389C155.41 54.389 155.926 54.168 156.29 53.726C156.654 53.284 156.836 52.647 156.836 51.815C156.836 51.0003 156.65 50.3677 156.277 49.917C155.913 49.4577 155.406 49.228 154.756 49.228C154.097 49.228 153.586 49.4577 153.222 49.917C152.858 50.3677 152.676 51.0003 152.676 51.815C152.676 52.647 152.854 53.284 153.209 53.726C153.564 54.168 154.076 54.389 154.743 54.389ZM163.896 48.799C163.965 48.643 164.078 48.565 164.234 48.565C164.329 48.565 164.416 48.5997 164.494 48.669C164.572 48.7383 164.611 48.8207 164.611 48.916C164.611 48.9767 164.598 49.033 164.572 49.085L161.998 54.74C161.954 54.8353 161.889 54.909 161.803 54.961C161.725 55.013 161.638 55.039 161.543 55.039C161.439 55.039 161.343 55.013 161.257 54.961C161.179 54.909 161.118 54.8353 161.075 54.74L158.488 49.085C158.462 49.033 158.449 48.981 158.449 48.929C158.449 48.825 158.492 48.7383 158.579 48.669C158.674 48.591 158.774 48.552 158.878 48.552C159.042 48.552 159.155 48.63 159.216 48.786L161.556 54.038L163.896 48.799ZM170.654 53.648C170.732 53.648 170.797 53.6827 170.849 53.752C170.91 53.8127 170.94 53.8863 170.94 53.973C170.94 54.1637 170.793 54.35 170.498 54.532C169.874 54.9047 169.216 55.091 168.522 55.091C167.56 55.091 166.802 54.8007 166.247 54.22C165.693 53.6393 165.415 52.842 165.415 51.828C165.415 51.178 165.537 50.606 165.779 50.112C166.031 49.6093 166.377 49.2237 166.819 48.955C167.27 48.6777 167.786 48.539 168.366 48.539C169.181 48.539 169.822 48.8033 170.29 49.332C170.767 49.852 171.005 50.5713 171.005 51.49C171.005 51.646 170.971 51.763 170.901 51.841C170.832 51.9103 170.719 51.945 170.563 51.945H166.234C166.26 52.7423 166.468 53.349 166.858 53.765C167.248 54.181 167.799 54.389 168.509 54.389C168.882 54.389 169.194 54.3413 169.445 54.246C169.697 54.142 169.965 54.0077 170.251 53.843C170.442 53.713 170.576 53.648 170.654 53.648ZM168.366 49.189C167.76 49.189 167.274 49.3797 166.91 49.761C166.546 50.1423 166.33 50.6753 166.26 51.36H170.277C170.26 50.6667 170.087 50.1337 169.757 49.761C169.428 49.3797 168.964 49.189 168.366 49.189ZM177.497 53.648C177.575 53.648 177.64 53.6827 177.692 53.752C177.753 53.8127 177.783 53.8863 177.783 53.973C177.783 54.1637 177.636 54.35 177.341 54.532C176.717 54.9047 176.058 55.091 175.365 55.091C174.403 55.091 173.645 54.8007 173.09 54.22C172.535 53.6393 172.258 52.842 172.258 51.828C172.258 51.178 172.379 50.606 172.622 50.112C172.873 49.6093 173.22 49.2237 173.662 48.955C174.113 48.6777 174.628 48.539 175.209 48.539C176.024 48.539 176.665 48.8033 177.133 49.332C177.61 49.852 177.848 50.5713 177.848 51.49C177.848 51.646 177.813 51.763 177.744 51.841C177.675 51.9103 177.562 51.945 177.406 51.945H173.077C173.103 52.7423 173.311 53.349 173.701 53.765C174.091 54.181 174.641 54.389 175.352 54.389C175.725 54.389 176.037 54.3413 176.288 54.246C176.539 54.142 176.808 54.0077 177.094 53.843C177.285 53.713 177.419 53.648 177.497 53.648ZM175.209 49.189C174.602 49.189 174.117 49.3797 173.753 49.761C173.389 50.1423 173.172 50.6753 173.103 51.36H177.12C177.103 50.6667 176.929 50.1337 176.6 49.761C176.271 49.3797 175.807 49.189 175.209 49.189ZM184.47 45.77C184.591 45.77 184.687 45.809 184.756 45.887C184.834 45.9563 184.873 46.0517 184.873 46.173V54.649C184.873 54.7703 184.834 54.87 184.756 54.948C184.687 55.0173 184.591 55.052 184.47 55.052C184.349 55.052 184.253 55.0173 184.184 54.948C184.115 54.87 184.08 54.7703 184.08 54.649V53.791C183.889 54.2157 183.608 54.5407 183.235 54.766C182.862 54.9827 182.42 55.091 181.909 55.091C181.354 55.091 180.865 54.9567 180.44 54.688C180.015 54.4107 179.686 54.025 179.452 53.531C179.218 53.0283 179.101 52.4477 179.101 51.789C179.101 51.139 179.218 50.5713 179.452 50.086C179.686 49.592 180.015 49.2107 180.44 48.942C180.865 48.6733 181.354 48.539 181.909 48.539C182.42 48.539 182.862 48.6517 183.235 48.877C183.608 49.0937 183.889 49.4143 184.08 49.839V46.173C184.08 46.0517 184.115 45.9563 184.184 45.887C184.253 45.809 184.349 45.77 184.47 45.77ZM182.013 54.389C182.672 54.389 183.179 54.168 183.534 53.726C183.898 53.2753 184.08 52.6383 184.08 51.815C184.08 50.9917 183.902 50.3547 183.547 49.904C183.192 49.4533 182.685 49.228 182.026 49.228C181.359 49.228 180.843 49.4533 180.479 49.904C180.115 50.346 179.933 50.9743 179.933 51.789C179.933 52.6123 180.115 53.2537 180.479 53.713C180.843 54.1637 181.354 54.389 182.013 54.389ZM189.465 55.091C188.884 55.091 188.373 54.9567 187.931 54.688C187.498 54.4193 187.16 54.038 186.917 53.544C186.674 53.05 186.553 52.4737 186.553 51.815C186.553 51.1563 186.674 50.58 186.917 50.086C187.16 49.592 187.498 49.2107 187.931 48.942C188.373 48.6733 188.884 48.539 189.465 48.539C190.037 48.539 190.544 48.6733 190.986 48.942C191.428 49.2107 191.766 49.592 192 50.086C192.243 50.58 192.364 51.1563 192.364 51.815C192.364 52.4737 192.243 53.05 192 53.544C191.766 54.038 191.428 54.4193 190.986 54.688C190.544 54.9567 190.037 55.091 189.465 55.091ZM189.452 54.389C190.119 54.389 190.635 54.168 190.999 53.726C191.363 53.284 191.545 52.647 191.545 51.815C191.545 51.0003 191.359 50.3677 190.986 49.917C190.622 49.4577 190.115 49.228 189.465 49.228C188.806 49.228 188.295 49.4577 187.931 49.917C187.567 50.3677 187.385 51.0003 187.385 51.815C187.385 52.647 187.563 53.284 187.918 53.726C188.273 54.168 188.785 54.389 189.452 54.389ZM196.978 48.565C197.143 48.5563 197.26 48.578 197.329 48.63C197.398 48.682 197.433 48.7687 197.433 48.89C197.433 49.1067 197.303 49.228 197.043 49.254L196.653 49.293C196.038 49.3537 195.578 49.5747 195.275 49.956C194.98 50.3373 194.833 50.7837 194.833 51.295V54.662C194.833 54.792 194.798 54.8917 194.729 54.961C194.66 55.0303 194.564 55.065 194.443 55.065C194.322 55.065 194.222 55.0303 194.144 54.961C194.075 54.8917 194.04 54.792 194.04 54.662V48.968C194.04 48.838 194.075 48.7383 194.144 48.669C194.222 48.5997 194.322 48.565 194.443 48.565C194.556 48.565 194.647 48.5997 194.716 48.669C194.785 48.7383 194.82 48.8337 194.82 48.955V49.8C195.175 49.0547 195.834 48.6473 196.796 48.578L196.978 48.565ZM206.557 53.648C206.635 53.648 206.7 53.6827 206.752 53.752C206.812 53.8127 206.843 53.8863 206.843 53.973C206.843 54.1637 206.695 54.35 206.401 54.532C205.777 54.9047 205.118 55.091 204.425 55.091C203.463 55.091 202.704 54.8007 202.15 54.22C201.595 53.6393 201.318 52.842 201.318 51.828C201.318 51.178 201.439 50.606 201.682 50.112C201.933 49.6093 202.28 49.2237 202.722 48.955C203.172 48.6777 203.688 48.539 204.269 48.539C205.083 48.539 205.725 48.8033 206.193 49.332C206.669 49.852 206.908 50.5713 206.908 51.49C206.908 51.646 206.873 51.763 206.804 51.841C206.734 51.9103 206.622 51.945 206.466 51.945H202.137C202.163 52.7423 202.371 53.349 202.761 53.765C203.151 54.181 203.701 54.389 204.412 54.389C204.784 54.389 205.096 54.3413 205.348 54.246C205.599 54.142 205.868 54.0077 206.154 53.843C206.344 53.713 206.479 53.648 206.557 53.648ZM204.269 49.189C203.662 49.189 203.177 49.3797 202.813 49.761C202.449 50.1423 202.232 50.6753 202.163 51.36H206.18C206.162 50.6667 205.989 50.1337 205.66 49.761C205.33 49.3797 204.867 49.189 204.269 49.189ZM211.514 48.539C213.031 48.539 213.789 49.3537 213.789 50.983V54.662C213.789 54.7833 213.755 54.883 213.685 54.961C213.616 55.0303 213.521 55.065 213.399 55.065C213.278 55.065 213.178 55.0303 213.1 54.961C213.031 54.883 212.996 54.7833 212.996 54.662V51.035C212.996 50.411 212.871 49.956 212.619 49.67C212.368 49.384 211.969 49.241 211.423 49.241C210.799 49.241 210.297 49.4317 209.915 49.813C209.543 50.1943 209.356 50.7057 209.356 51.347V54.662C209.356 54.7833 209.322 54.883 209.252 54.961C209.183 55.0303 209.088 55.065 208.966 55.065C208.845 55.065 208.745 55.0303 208.667 54.961C208.598 54.883 208.563 54.7833 208.563 54.662V48.968C208.563 48.8467 208.598 48.7513 208.667 48.682C208.745 48.604 208.845 48.565 208.966 48.565C209.079 48.565 209.17 48.5997 209.239 48.669C209.309 48.7383 209.343 48.8337 209.343 48.955V49.774C209.543 49.3753 209.829 49.072 210.201 48.864C210.583 48.6473 211.02 48.539 211.514 48.539ZM221.869 54.402C222.112 54.428 222.233 54.5407 222.233 54.74C222.233 54.844 222.194 54.9263 222.116 54.987C222.038 55.0477 221.912 55.0737 221.739 55.065L221.375 55.039C220.716 54.9957 220.227 54.7963 219.906 54.441C219.594 54.077 219.438 53.5267 219.438 52.79V49.332H218.45C218.346 49.332 218.264 49.306 218.203 49.254C218.142 49.1933 218.112 49.1153 218.112 49.02C218.112 48.9247 218.142 48.8467 218.203 48.786C218.264 48.7253 218.346 48.695 218.45 48.695H219.438V47.083C219.438 46.953 219.473 46.8533 219.542 46.784C219.611 46.7147 219.707 46.68 219.828 46.68C219.949 46.68 220.045 46.7147 220.114 46.784C220.192 46.8533 220.231 46.953 220.231 47.083V48.695H221.804C221.917 48.695 222.003 48.7253 222.064 48.786C222.125 48.8467 222.155 48.9247 222.155 49.02C222.155 49.1153 222.125 49.1933 222.064 49.254C222.003 49.306 221.917 49.332 221.804 49.332H220.231V52.829C220.231 53.3663 220.335 53.752 220.543 53.986C220.751 54.2113 221.076 54.3413 221.518 54.376L221.869 54.402ZM228.085 48.565C228.206 48.565 228.302 48.604 228.371 48.682C228.449 48.7513 228.488 48.8467 228.488 48.968V54.662C228.488 54.7833 228.449 54.883 228.371 54.961C228.302 55.0303 228.206 55.065 228.085 55.065C227.972 55.065 227.881 55.0303 227.812 54.961C227.743 54.883 227.708 54.7833 227.708 54.662V53.869C227.509 54.2677 227.223 54.571 226.85 54.779C226.486 54.987 226.07 55.091 225.602 55.091C224.857 55.091 224.293 54.8873 223.912 54.48C223.539 54.064 223.353 53.453 223.353 52.647V48.968C223.353 48.8467 223.388 48.7513 223.457 48.682C223.535 48.604 223.635 48.565 223.756 48.565C223.877 48.565 223.973 48.604 224.042 48.682C224.111 48.7513 224.146 48.8467 224.146 48.968V52.595C224.146 53.2103 224.267 53.6653 224.51 53.96C224.761 54.246 225.151 54.389 225.68 54.389C226.287 54.389 226.772 54.1983 227.136 53.817C227.509 53.427 227.695 52.9113 227.695 52.27V48.968C227.695 48.8467 227.73 48.7513 227.799 48.682C227.868 48.604 227.964 48.565 228.085 48.565ZM236.336 48.539C237.098 48.539 237.666 48.7383 238.039 49.137C238.42 49.5357 238.611 50.138 238.611 50.944V54.649C238.611 54.7703 238.576 54.87 238.507 54.948C238.437 55.0173 238.342 55.052 238.221 55.052C238.099 55.052 238.004 55.0173 237.935 54.948C237.865 54.87 237.831 54.7703 237.831 54.649V53.869C237.649 54.259 237.384 54.5623 237.038 54.779C236.691 54.987 236.292 55.091 235.842 55.091C235.434 55.091 235.062 55.0087 234.724 54.844C234.394 54.6793 234.13 54.454 233.931 54.168C233.731 53.882 233.632 53.5613 233.632 53.206C233.623 52.7293 233.74 52.361 233.983 52.101C234.225 51.8323 234.628 51.6417 235.192 51.529C235.755 51.4163 236.544 51.36 237.558 51.36H237.831V50.879C237.831 50.307 237.714 49.891 237.48 49.631C237.246 49.3623 236.877 49.228 236.375 49.228C235.733 49.228 235.122 49.397 234.542 49.735C234.516 49.7523 234.446 49.8 234.334 49.878C234.23 49.9473 234.139 49.982 234.061 49.982C233.974 49.982 233.9 49.9517 233.84 49.891C233.788 49.8217 233.762 49.7393 233.762 49.644C233.762 49.4533 233.913 49.267 234.217 49.085C234.52 48.9117 234.858 48.7773 235.231 48.682C235.603 48.5867 235.972 48.539 236.336 48.539ZM235.907 54.402C236.47 54.402 236.929 54.2113 237.285 53.83C237.649 53.4487 237.831 52.9633 237.831 52.374V51.945H237.584C236.752 51.945 236.115 51.9797 235.673 52.049C235.231 52.1183 234.919 52.2397 234.737 52.413C234.555 52.5777 234.464 52.8203 234.464 53.141C234.464 53.505 234.602 53.8083 234.88 54.051C235.157 54.285 235.499 54.402 235.907 54.402ZM245.701 48.565C245.822 48.565 245.917 48.604 245.987 48.682C246.065 48.7513 246.104 48.8467 246.104 48.968V54.636C246.104 55.5547 245.874 56.248 245.415 56.716C244.964 57.1927 244.292 57.431 243.4 57.431C242.932 57.431 242.511 57.3833 242.139 57.288C241.775 57.2013 241.432 57.0627 241.112 56.872C240.8 56.6813 240.644 56.495 240.644 56.313C240.644 56.2177 240.67 56.1397 240.722 56.079C240.782 56.0183 240.856 55.988 240.943 55.988C240.995 55.988 241.064 56.0097 241.151 56.053C241.246 56.105 241.311 56.1397 241.346 56.157C241.64 56.3217 241.944 56.456 242.256 56.56C242.568 56.6727 242.953 56.729 243.413 56.729C244.045 56.729 244.522 56.56 244.843 56.222C245.163 55.884 245.324 55.3813 245.324 54.714V53.479C245.142 53.9037 244.86 54.233 244.479 54.467C244.106 54.6923 243.651 54.805 243.114 54.805C242.559 54.805 242.065 54.675 241.632 54.415C241.207 54.155 240.873 53.7867 240.631 53.31C240.397 52.8333 240.28 52.2873 240.28 51.672C240.28 51.0567 240.397 50.5107 240.631 50.034C240.873 49.5573 241.207 49.189 241.632 48.929C242.065 48.669 242.559 48.539 243.114 48.539C243.642 48.539 244.093 48.6517 244.466 48.877C244.838 49.0937 245.12 49.4143 245.311 49.839V48.968C245.311 48.8467 245.345 48.7513 245.415 48.682C245.484 48.604 245.579 48.565 245.701 48.565ZM243.218 54.103C243.876 54.103 244.388 53.8863 244.752 53.453C245.124 53.0197 245.311 52.426 245.311 51.672C245.311 50.918 245.124 50.3243 244.752 49.891C244.379 49.449 243.868 49.228 243.218 49.228C242.559 49.228 242.043 49.4447 241.671 49.878C241.298 50.3113 241.112 50.9093 241.112 51.672C241.112 52.4347 241.298 53.0327 241.671 53.466C242.043 53.8907 242.559 54.103 243.218 54.103ZM253.022 53.648C253.1 53.648 253.165 53.6827 253.217 53.752C253.277 53.8127 253.308 53.8863 253.308 53.973C253.308 54.1637 253.16 54.35 252.866 54.532C252.242 54.9047 251.583 55.091 250.89 55.091C249.928 55.091 249.169 54.8007 248.615 54.22C248.06 53.6393 247.783 52.842 247.783 51.828C247.783 51.178 247.904 50.606 248.147 50.112C248.398 49.6093 248.745 49.2237 249.187 48.955C249.637 48.6777 250.153 48.539 250.734 48.539C251.548 48.539 252.19 48.8033 252.658 49.332C253.134 49.852 253.373 50.5713 253.373 51.49C253.373 51.646 253.338 51.763 253.269 51.841C253.199 51.9103 253.087 51.945 252.931 51.945H248.602C248.628 52.7423 248.836 53.349 249.226 53.765C249.616 54.181 250.166 54.389 250.877 54.389C251.249 54.389 251.561 54.3413 251.813 54.246C252.064 54.142 252.333 54.0077 252.619 53.843C252.809 53.713 252.944 53.648 253.022 53.648ZM250.734 49.189C250.127 49.189 249.642 49.3797 249.278 49.761C248.914 50.1423 248.697 50.6753 248.628 51.36H252.645C252.627 50.6667 252.454 50.1337 252.125 49.761C251.795 49.3797 251.332 49.189 250.734 49.189ZM257.979 48.539C259.496 48.539 260.254 49.3537 260.254 50.983V54.662C260.254 54.7833 260.22 54.883 260.15 54.961C260.081 55.0303 259.986 55.065 259.864 55.065C259.743 55.065 259.643 55.0303 259.565 54.961C259.496 54.883 259.461 54.7833 259.461 54.662V51.035C259.461 50.411 259.336 49.956 259.084 49.67C258.833 49.384 258.434 49.241 257.888 49.241C257.264 49.241 256.762 49.4317 256.38 49.813C256.008 50.1943 255.821 50.7057 255.821 51.347V54.662C255.821 54.7833 255.787 54.883 255.717 54.961C255.648 55.0303 255.553 55.065 255.431 55.065C255.31 55.065 255.21 55.0303 255.132 54.961C255.063 54.883 255.028 54.7833 255.028 54.662V48.968C255.028 48.8467 255.063 48.7513 255.132 48.682C255.21 48.604 255.31 48.565 255.431 48.565C255.544 48.565 255.635 48.5997 255.704 48.669C255.774 48.7383 255.808 48.8337 255.808 48.955V49.774C256.008 49.3753 256.294 49.072 256.666 48.864C257.048 48.6473 257.485 48.539 257.979 48.539ZM267.281 45.77C267.403 45.77 267.498 45.809 267.567 45.887C267.645 45.9563 267.684 46.0517 267.684 46.173V54.649C267.684 54.7703 267.645 54.87 267.567 54.948C267.498 55.0173 267.403 55.052 267.281 55.052C267.16 55.052 267.065 55.0173 266.995 54.948C266.926 54.87 266.891 54.7703 266.891 54.649V53.791C266.701 54.2157 266.419 54.5407 266.046 54.766C265.674 54.9827 265.232 55.091 264.72 55.091C264.166 55.091 263.676 54.9567 263.251 54.688C262.827 54.4107 262.497 54.025 262.263 53.531C262.029 53.0283 261.912 52.4477 261.912 51.789C261.912 51.139 262.029 50.5713 262.263 50.086C262.497 49.592 262.827 49.2107 263.251 48.942C263.676 48.6733 264.166 48.539 264.72 48.539C265.232 48.539 265.674 48.6517 266.046 48.877C266.419 49.0937 266.701 49.4143 266.891 49.839V46.173C266.891 46.0517 266.926 45.9563 266.995 45.887C267.065 45.809 267.16 45.77 267.281 45.77ZM264.824 54.389C265.483 54.389 265.99 54.168 266.345 53.726C266.709 53.2753 266.891 52.6383 266.891 51.815C266.891 50.9917 266.714 50.3547 266.358 49.904C266.003 49.4533 265.496 49.228 264.837 49.228C264.17 49.228 263.654 49.4533 263.29 49.904C262.926 50.346 262.744 50.9743 262.744 51.789C262.744 52.6123 262.926 53.2537 263.29 53.713C263.654 54.1637 264.166 54.389 264.824 54.389ZM272.264 48.539C273.026 48.539 273.594 48.7383 273.967 49.137C274.348 49.5357 274.539 50.138 274.539 50.944V54.649C274.539 54.7703 274.504 54.87 274.435 54.948C274.365 55.0173 274.27 55.052 274.149 55.052C274.027 55.052 273.932 55.0173 273.863 54.948C273.793 54.87 273.759 54.7703 273.759 54.649V53.869C273.577 54.259 273.312 54.5623 272.966 54.779C272.619 54.987 272.22 55.091 271.77 55.091C271.362 55.091 270.99 55.0087 270.652 54.844C270.322 54.6793 270.058 54.454 269.859 54.168C269.659 53.882 269.56 53.5613 269.56 53.206C269.551 52.7293 269.668 52.361 269.911 52.101C270.153 51.8323 270.556 51.6417 271.12 51.529C271.683 51.4163 272.472 51.36 273.486 51.36H273.759V50.879C273.759 50.307 273.642 49.891 273.408 49.631C273.174 49.3623 272.805 49.228 272.303 49.228C271.661 49.228 271.05 49.397 270.47 49.735C270.444 49.7523 270.374 49.8 270.262 49.878C270.158 49.9473 270.067 49.982 269.989 49.982C269.902 49.982 269.828 49.9517 269.768 49.891C269.716 49.8217 269.69 49.7393 269.69 49.644C269.69 49.4533 269.841 49.267 270.145 49.085C270.448 48.9117 270.786 48.7773 271.159 48.682C271.531 48.5867 271.9 48.539 272.264 48.539ZM271.835 54.402C272.398 54.402 272.857 54.2113 273.213 53.83C273.577 53.4487 273.759 52.9633 273.759 52.374V51.945H273.512C272.68 51.945 272.043 51.9797 271.601 52.049C271.159 52.1183 270.847 52.2397 270.665 52.413C270.483 52.5777 270.392 52.8203 270.392 53.141C270.392 53.505 270.53 53.8083 270.808 54.051C271.085 54.285 271.427 54.402 271.835 54.402ZM277.013 55.065C276.84 55.065 276.693 55.0087 276.571 54.896C276.459 54.7747 276.402 54.623 276.402 54.441C276.402 54.259 276.459 54.1117 276.571 53.999C276.693 53.8777 276.84 53.817 277.013 53.817C277.178 53.817 277.317 53.8777 277.429 53.999C277.551 54.1117 277.611 54.259 277.611 54.441C277.611 54.623 277.551 54.7747 277.429 54.896C277.317 55.0087 277.178 55.065 277.013 55.065Z" fill="#333333"/>
<path d="M313.211 43.7932C313.274 43.8588 313.349 43.9108 313.431 43.9463C313.514 43.9817 313.603 44 313.692 44C313.782 44 313.87 43.9817 313.953 43.9463C314.035 43.9108 314.11 43.8588 314.174 43.7932L318.8 39.0048C318.864 38.9394 318.914 38.8616 318.948 38.776C318.982 38.6905 319 38.5987 319 38.5061C319 38.4135 318.982 38.3217 318.948 38.2361C318.914 38.1506 318.864 38.0728 318.8 38.0073L314.174 33.2189C314.111 33.1508 314.036 33.0963 313.953 33.0587C313.869 33.0211 313.78 33.0012 313.689 33C313.598 32.9989 313.508 33.0167 313.424 33.0522C313.34 33.0877 313.263 33.1403 313.199 33.2069C313.135 33.2735 313.084 33.3527 313.05 33.4399C313.016 33.5271 312.999 33.6205 313 33.7146C313.001 33.8087 313.021 33.9016 313.057 33.9877C313.094 34.0739 313.146 34.1517 313.212 34.2165L317.357 38.5061L313.212 42.7957C313.149 42.8611 313.099 42.9387 313.064 43.0243C313.03 43.1098 313.012 43.2015 313.012 43.2941C313.012 43.3868 313.029 43.4785 313.063 43.5642C313.097 43.6498 313.147 43.7277 313.211 43.7932Z" fill="#381A56"/>
<circle cx="35" cy="39" r="16" fill="#8274AC"/>
<path d="M32.8852 40.66C35.2252 40.66 37.1252 38.76 37.1252 36.44C37.1252 34.1 35.2252 32.22 32.8852 32.22C30.5452 32.22 28.6452 34.12 28.6452 36.44C28.6652 38.76 30.5652 40.66 32.8852 40.66ZM32.8852 33.8C34.3452 33.8 35.5252 34.98 35.5252 36.42C35.5252 37.86 34.3452 39.04 32.8852 39.04C31.4252 39.04 30.2452 37.86 30.2452 36.42C30.2652 34.98 31.4452 33.8 32.8852 33.8ZM34.8052 41.04C34.5852 40.98 34.3452 41 34.1452 41.12L32.8852 41.88L31.6252 41.12C31.4252 41 31.1852 40.98 30.9652 41.04C29.7452 41.42 25.8052 42.84 25.8052 45C25.8052 45.44 26.1652 45.8 26.6052 45.8H39.1652C39.6052 45.8 39.9652 45.44 39.9652 45C39.9652 42.86 36.0252 41.44 34.8052 41.04ZM28.0652 44.2C28.7452 43.68 29.8852 43.12 31.1252 42.6799L32.4852 43.5C32.7452 43.66 33.0652 43.66 33.3052 43.5L34.6652 42.6799C35.9052 43.0999 37.0452 43.68 37.7252 44.2H28.0652ZM44.0052 43.6C44.0052 43.94 43.7452 44.2 43.4052 44.2H40.7252C40.3852 44.2 40.1252 43.94 40.1252 43.6C40.1252 43.26 40.3852 43 40.7252 43H42.5052C42.2052 42.6 41.7252 42.28 41.1252 41.96C40.8252 41.8 40.7252 41.44 40.8852 41.16C41.0452 40.86 41.4052 40.76 41.7052 40.92C42.5652 41.38 44.0052 42.36 44.0052 43.6ZM40.6452 38.32C40.6452 37.44 39.9252 36.74 39.0652 36.74C38.8452 36.74 38.6452 36.78 38.4452 36.86C38.1452 36.98 37.7852 36.84 37.6652 36.54C37.5452 36.24 37.6852 35.88 37.9852 35.76C38.3252 35.62 38.6852 35.54 39.0652 35.54C40.6052 35.54 41.8452 36.78 41.8452 38.32C41.8452 39.86 40.5852 41.1 39.0652 41.1C38.2652 41.1 37.5052 40.76 36.9852 40.16C36.7652 39.92 36.7852 39.54 37.0452 39.32C37.2852 39.1 37.6652 39.12 37.8852 39.38C38.1852 39.72 38.6252 39.92 39.0852 39.92C39.9252 39.9 40.6452 39.18 40.6452 38.32Z" fill="white"/>
<defs>
<filter id="filter0_d" x="0" y="0" width="334" height="77" filterUnits="userSpaceOnUse" color-interpolation-filters="sRGB">
<feFlood flood-opacity="0" result="BackgroundImageFix"/>
<feColorMatrix in="SourceAlpha" type="matrix" values="0 0 0 0 0 0 0 0 0 0 0 0 0 0 0 0 0 0 127 0"/>
<feOffset/>
<feGaussianBlur stdDeviation="1.5"/>
<feColorMatrix type="matrix" values="0 0 0 0 0 0 0 0 0 0 0 0 0 0 0 0 0 0 0.2 0"/>
<feBlend mode="normal" in2="BackgroundImageFix" result="effect1_dropShadow"/>
<feBlend mode="normal" in="SourceGraphic" in2="effect1_dropShadow" result="shape"/>
</filter>
</defs>
</svg>
