<svg width="334" height="77" viewBox="0 0 334 77" fill="none" xmlns="http://www.w3.org/2000/svg">
<g filter="url(#filter0_d)">
<rect x="3" y="3" width="328" height="71" rx="4" fill="#F9F8FF"/>
</g>
<path d="M65.208 34C64.8987 34 64.6533 33.9147 64.472 33.744C64.3013 33.5733 64.216 33.3333 64.216 33.024V23.696C64.216 23.3867 64.3013 23.1467 64.472 22.976C64.6533 22.8053 64.8987 22.72 65.208 22.72H68.376C70.2213 22.72 71.6507 23.216 72.664 24.208C73.688 25.1893 74.2 26.5707 74.2 28.352C74.2 30.144 73.688 31.536 72.664 32.528C71.6507 33.5093 70.2213 34 68.376 34H65.208ZM68.248 32.32C70.84 32.32 72.136 30.9973 72.136 28.352C72.136 25.7173 70.84 24.4 68.248 24.4H66.28V32.32H68.248ZM82.2945 31.856C82.4758 31.856 82.6198 31.9253 82.7265 32.064C82.8438 32.2027 82.9025 32.3893 82.9025 32.624C82.9025 32.9547 82.7052 33.232 82.3105 33.456C81.9478 33.6587 81.5372 33.824 81.0785 33.952C80.6198 34.0693 80.1825 34.128 79.7665 34.128C78.5078 34.128 77.5105 33.7653 76.7745 33.04C76.0385 32.3147 75.6705 31.3227 75.6705 30.064C75.6705 29.264 75.8305 28.5547 76.1505 27.936C76.4705 27.3173 76.9185 26.8373 77.4945 26.496C78.0812 26.1547 78.7425 25.984 79.4785 25.984C80.1825 25.984 80.7958 26.1387 81.3185 26.448C81.8412 26.7573 82.2465 27.1947 82.5345 27.76C82.8225 28.3253 82.9665 28.992 82.9665 29.76C82.9665 30.2187 82.7638 30.448 82.3585 30.448H77.6385C77.7025 31.184 77.9105 31.728 78.2625 32.08C78.6145 32.4213 79.1265 32.592 79.7985 32.592C80.1398 32.592 80.4385 32.5493 80.6945 32.464C80.9612 32.3787 81.2598 32.2613 81.5905 32.112C81.9105 31.9413 82.1452 31.856 82.2945 31.856ZM79.5265 27.392C78.9825 27.392 78.5452 27.5627 78.2145 27.904C77.8945 28.2453 77.7025 28.736 77.6385 29.376H81.2545C81.2332 28.7253 81.0732 28.2347 80.7745 27.904C80.4758 27.5627 80.0598 27.392 79.5265 27.392ZM92.8983 24.208C92.4076 24.24 92.0503 24.3893 91.8263 24.656C91.6023 24.9227 91.4903 25.3067 91.4903 25.808V26.176H92.8503C93.4476 26.176 93.7463 26.4267 93.7463 26.928C93.7463 27.4293 93.4476 27.68 92.8503 27.68H91.4903V33.136C91.4903 33.4453 91.3943 33.68 91.2023 33.84C91.0209 34 90.7863 34.08 90.4983 34.08C90.2103 34.08 89.9703 34 89.7783 33.84C89.5863 33.68 89.4903 33.4453 89.4903 33.136V27.68H88.6903C88.0929 27.68 87.7942 27.4293 87.7942 26.928C87.7942 26.4267 88.0929 26.176 88.6903 26.176H89.4903V26.064C89.4903 25.0613 89.7516 24.2773 90.2743 23.712C90.8076 23.136 91.5543 22.8107 92.5143 22.736L92.9303 22.704C93.3569 22.672 93.6556 22.72 93.8263 22.848C94.0076 22.9653 94.0983 23.152 94.0983 23.408C94.0983 23.8667 93.8369 24.1227 93.3143 24.176L92.8983 24.208ZM98.1705 34.128C97.3705 34.128 96.6665 33.9627 96.0585 33.632C95.4612 33.3013 94.9972 32.8267 94.6665 32.208C94.3358 31.5893 94.1705 30.8693 94.1705 30.048C94.1705 29.2267 94.3358 28.512 94.6665 27.904C94.9972 27.2853 95.4612 26.8107 96.0585 26.48C96.6665 26.1493 97.3705 25.984 98.1705 25.984C98.9705 25.984 99.6692 26.1493 100.267 26.48C100.875 26.8107 101.339 27.2853 101.659 27.904C101.989 28.512 102.155 29.2267 102.155 30.048C102.155 30.8693 101.989 31.5893 101.659 32.208C101.339 32.8267 100.875 33.3013 100.267 33.632C99.6692 33.9627 98.9705 34.128 98.1705 34.128ZM98.1545 32.576C98.8052 32.576 99.3012 32.3627 99.6425 31.936C99.9838 31.5093 100.155 30.88 100.155 30.048C100.155 29.2267 99.9838 28.6027 99.6425 28.176C99.3012 27.7387 98.8105 27.52 98.1705 27.52C97.5305 27.52 97.0345 27.7387 96.6825 28.176C96.3412 28.6027 96.1705 29.2267 96.1705 30.048C96.1705 30.88 96.3412 31.5093 96.6825 31.936C97.0238 32.3627 97.5145 32.576 98.1545 32.576ZM108.174 26.016C108.451 25.9947 108.67 26.0533 108.83 26.192C108.99 26.3307 109.07 26.5387 109.07 26.816C109.07 27.104 109 27.3173 108.862 27.456C108.723 27.5947 108.472 27.6853 108.11 27.728L107.63 27.776C107 27.84 106.536 28.0533 106.238 28.416C105.95 28.7787 105.806 29.232 105.806 29.776V33.136C105.806 33.4453 105.71 33.6853 105.518 33.856C105.326 34.016 105.086 34.096 104.798 34.096C104.51 34.096 104.27 34.016 104.078 33.856C103.896 33.6853 103.806 33.4453 103.806 33.136V26.944C103.806 26.6453 103.896 26.416 104.078 26.256C104.27 26.096 104.504 26.016 104.782 26.016C105.059 26.016 105.283 26.096 105.454 26.256C105.624 26.4053 105.71 26.624 105.71 26.912V27.552C105.912 27.0827 106.211 26.72 106.606 26.464C107.011 26.208 107.459 26.064 107.95 26.032L108.174 26.016ZM119.227 25.984C120.08 25.984 120.731 26.24 121.179 26.752C121.637 27.2533 121.867 28.0693 121.867 29.2V33.136C121.867 33.4453 121.771 33.6853 121.579 33.856C121.397 34.016 121.157 34.096 120.859 34.096C120.571 34.096 120.331 34.016 120.139 33.856C119.957 33.6853 119.867 33.4453 119.867 33.136V29.2C119.867 28.6133 119.76 28.1973 119.547 27.952C119.344 27.696 119.029 27.568 118.603 27.568C118.08 27.568 117.664 27.7493 117.355 28.112C117.045 28.464 116.891 28.9493 116.891 29.568V33.136C116.891 33.4453 116.795 33.6853 116.603 33.856C116.421 34.016 116.187 34.096 115.899 34.096C115.611 34.096 115.371 34.016 115.179 33.856C114.987 33.6853 114.891 33.4453 114.891 33.136V29.2C114.891 28.6133 114.784 28.1973 114.571 27.952C114.368 27.696 114.053 27.568 113.627 27.568C113.104 27.568 112.688 27.7493 112.379 28.112C112.08 28.464 111.931 28.9493 111.931 29.568V33.136C111.931 33.4453 111.835 33.6853 111.643 33.856C111.451 34.016 111.211 34.096 110.923 34.096C110.635 34.096 110.395 34.016 110.203 33.856C110.021 33.6853 109.931 33.4453 109.931 33.136V26.944C109.931 26.6453 110.027 26.416 110.219 26.256C110.411 26.096 110.651 26.016 110.939 26.016C111.216 26.016 111.44 26.096 111.611 26.256C111.792 26.4053 111.883 26.624 111.883 26.912V27.296C112.128 26.8693 112.453 26.544 112.859 26.32C113.275 26.096 113.749 25.984 114.283 25.984C115.456 25.984 116.24 26.4747 116.635 27.456C116.869 27.008 117.216 26.6507 117.675 26.384C118.133 26.1173 118.651 25.984 119.227 25.984ZM127.291 25.984C128.379 25.984 129.185 26.256 129.707 26.8C130.241 27.3333 130.507 28.1493 130.507 29.248V33.152C130.507 33.44 130.422 33.6693 130.251 33.84C130.081 34 129.846 34.08 129.547 34.08C129.27 34.08 129.041 33.9947 128.859 33.824C128.689 33.6533 128.603 33.4293 128.603 33.152V32.8C128.422 33.216 128.134 33.5413 127.739 33.776C127.355 34.0107 126.907 34.128 126.395 34.128C125.873 34.128 125.398 34.0213 124.971 33.808C124.545 33.5947 124.209 33.3013 123.963 32.928C123.718 32.5547 123.595 32.1387 123.595 31.68C123.595 31.104 123.739 30.6507 124.027 30.32C124.326 29.9893 124.806 29.7493 125.467 29.6C126.129 29.4507 127.041 29.376 128.203 29.376H128.603V29.008C128.603 28.4853 128.491 28.1067 128.267 27.872C128.043 27.6267 127.681 27.504 127.179 27.504C126.87 27.504 126.555 27.552 126.235 27.648C125.915 27.7333 125.537 27.8613 125.099 28.032C124.822 28.1707 124.619 28.24 124.491 28.24C124.299 28.24 124.139 28.1707 124.011 28.032C123.894 27.8933 123.835 27.712 123.835 27.488C123.835 27.3067 123.878 27.152 123.963 27.024C124.059 26.8853 124.214 26.7573 124.427 26.64C124.801 26.4373 125.243 26.2773 125.755 26.16C126.278 26.0427 126.79 25.984 127.291 25.984ZM126.795 32.688C127.329 32.688 127.761 32.512 128.091 32.16C128.433 31.7973 128.603 31.3333 128.603 30.768V30.432H128.315C127.601 30.432 127.046 30.464 126.651 30.528C126.257 30.592 125.974 30.704 125.803 30.864C125.633 31.024 125.547 31.2427 125.547 31.52C125.547 31.8613 125.665 32.144 125.899 32.368C126.145 32.5813 126.443 32.688 126.795 32.688ZM146.18 25.984C147.033 25.984 147.684 26.24 148.132 26.752C148.59 27.2533 148.82 28.0693 148.82 29.2V33.136C148.82 33.4453 148.724 33.6853 148.532 33.856C148.35 34.016 148.11 34.096 147.812 34.096C147.524 34.096 147.284 34.016 147.092 33.856C146.91 33.6853 146.82 33.4453 146.82 33.136V29.2C146.82 28.6133 146.713 28.1973 146.5 27.952C146.297 27.696 145.982 27.568 145.556 27.568C145.033 27.568 144.617 27.7493 144.308 28.112C143.998 28.464 143.844 28.9493 143.844 29.568V33.136C143.844 33.4453 143.748 33.6853 143.556 33.856C143.374 34.016 143.14 34.096 142.852 34.096C142.564 34.096 142.324 34.016 142.132 33.856C141.94 33.6853 141.844 33.4453 141.844 33.136V29.2C141.844 28.6133 141.737 28.1973 141.524 27.952C141.321 27.696 141.006 27.568 140.58 27.568C140.057 27.568 139.641 27.7493 139.332 28.112C139.033 28.464 138.884 28.9493 138.884 29.568V33.136C138.884 33.4453 138.788 33.6853 138.596 33.856C138.404 34.016 138.164 34.096 137.876 34.096C137.588 34.096 137.348 34.016 137.156 33.856C136.974 33.6853 136.884 33.4453 136.884 33.136V26.944C136.884 26.6453 136.98 26.416 137.172 26.256C137.364 26.096 137.604 26.016 137.892 26.016C138.169 26.016 138.393 26.096 138.564 26.256C138.745 26.4053 138.836 26.624 138.836 26.912V27.296C139.081 26.8693 139.406 26.544 139.812 26.32C140.228 26.096 140.702 25.984 141.236 25.984C142.409 25.984 143.193 26.4747 143.588 27.456C143.822 27.008 144.169 26.6507 144.628 26.384C145.086 26.1173 145.604 25.984 146.18 25.984ZM154.245 25.984C155.333 25.984 156.138 26.256 156.661 26.8C157.194 27.3333 157.461 28.1493 157.461 29.248V33.152C157.461 33.44 157.375 33.6693 157.205 33.84C157.034 34 156.799 34.08 156.501 34.08C156.223 34.08 155.994 33.9947 155.813 33.824C155.642 33.6533 155.557 33.4293 155.557 33.152V32.8C155.375 33.216 155.087 33.5413 154.693 33.776C154.309 34.0107 153.861 34.128 153.349 34.128C152.826 34.128 152.351 34.0213 151.924 33.808C151.498 33.5947 151.162 33.3013 150.917 32.928C150.671 32.5547 150.549 32.1387 150.549 31.68C150.549 31.104 150.693 30.6507 150.981 30.32C151.279 29.9893 151.759 29.7493 152.421 29.6C153.082 29.4507 153.994 29.376 155.157 29.376H155.557V29.008C155.557 28.4853 155.445 28.1067 155.221 27.872C154.997 27.6267 154.634 27.504 154.133 27.504C153.823 27.504 153.509 27.552 153.189 27.648C152.869 27.7333 152.49 27.8613 152.053 28.032C151.775 28.1707 151.573 28.24 151.445 28.24C151.253 28.24 151.093 28.1707 150.965 28.032C150.847 27.8933 150.789 27.712 150.789 27.488C150.789 27.3067 150.831 27.152 150.917 27.024C151.013 26.8853 151.167 26.7573 151.381 26.64C151.754 26.4373 152.197 26.2773 152.709 26.16C153.231 26.0427 153.743 25.984 154.245 25.984ZM153.749 32.688C154.282 32.688 154.714 32.512 155.045 32.16C155.386 31.7973 155.557 31.3333 155.557 30.768V30.432H155.269C154.554 30.432 153.999 30.464 153.605 30.528C153.21 30.592 152.927 30.704 152.757 30.864C152.586 31.024 152.501 31.2427 152.501 31.52C152.501 31.8613 152.618 32.144 152.853 32.368C153.098 32.5813 153.397 32.688 153.749 32.688ZM164.037 25.984C164.976 25.984 165.674 26.2507 166.133 26.784C166.592 27.3173 166.821 28.1227 166.821 29.2V33.136C166.821 33.4347 166.73 33.6693 166.549 33.84C166.378 34.0107 166.138 34.096 165.829 34.096C165.52 34.096 165.274 34.0107 165.093 33.84C164.912 33.6693 164.821 33.4347 164.821 33.136V29.312C164.821 28.704 164.704 28.2613 164.469 27.984C164.245 27.7067 163.888 27.568 163.397 27.568C162.821 27.568 162.357 27.7493 162.005 28.112C161.664 28.4747 161.493 28.96 161.493 29.568V33.136C161.493 33.4347 161.402 33.6693 161.221 33.84C161.04 34.0107 160.794 34.096 160.485 34.096C160.176 34.096 159.93 34.0107 159.749 33.84C159.578 33.6693 159.493 33.4347 159.493 33.136V26.944C159.493 26.6667 159.584 26.4427 159.765 26.272C159.946 26.1013 160.192 26.016 160.501 26.016C160.778 26.016 161.002 26.1013 161.173 26.272C161.354 26.432 161.445 26.6453 161.445 26.912V27.344C161.712 26.9067 162.069 26.5707 162.517 26.336C162.965 26.1013 163.472 25.984 164.037 25.984ZM175.029 26.016C175.338 26.016 175.583 26.1013 175.765 26.272C175.946 26.4427 176.036 26.672 176.036 26.96V33.168C176.036 33.4453 175.941 33.6693 175.749 33.84C175.567 34.0107 175.327 34.096 175.029 34.096C174.741 34.096 174.511 34.016 174.341 33.856C174.17 33.696 174.085 33.4773 174.085 33.2V32.8C173.839 33.2267 173.509 33.5573 173.093 33.792C172.677 34.016 172.207 34.128 171.685 34.128C169.765 34.128 168.805 33.0507 168.805 30.896V26.96C168.805 26.672 168.895 26.4427 169.077 26.272C169.258 26.1013 169.498 26.016 169.797 26.016C170.106 26.016 170.351 26.1013 170.533 26.272C170.714 26.4427 170.805 26.672 170.805 26.96V30.912C170.805 31.4667 170.917 31.8773 171.141 32.144C171.365 32.4107 171.717 32.544 172.197 32.544C172.751 32.544 173.194 32.3627 173.525 32C173.866 31.6267 174.037 31.136 174.037 30.528V26.96C174.037 26.672 174.127 26.4427 174.309 26.272C174.49 26.1013 174.73 26.016 175.029 26.016ZM181.51 25.984C182.598 25.984 183.403 26.256 183.926 26.8C184.459 27.3333 184.726 28.1493 184.726 29.248V33.152C184.726 33.44 184.641 33.6693 184.47 33.84C184.299 34 184.065 34.08 183.766 34.08C183.489 34.08 183.259 33.9947 183.078 33.824C182.907 33.6533 182.822 33.4293 182.822 33.152V32.8C182.641 33.216 182.353 33.5413 181.958 33.776C181.574 34.0107 181.126 34.128 180.614 34.128C180.091 34.128 179.617 34.0213 179.19 33.808C178.763 33.5947 178.427 33.3013 178.182 32.928C177.937 32.5547 177.814 32.1387 177.814 31.68C177.814 31.104 177.958 30.6507 178.246 30.32C178.545 29.9893 179.025 29.7493 179.686 29.6C180.347 29.4507 181.259 29.376 182.422 29.376H182.822V29.008C182.822 28.4853 182.71 28.1067 182.486 27.872C182.262 27.6267 181.899 27.504 181.398 27.504C181.089 27.504 180.774 27.552 180.454 27.648C180.134 27.7333 179.755 27.8613 179.318 28.032C179.041 28.1707 178.838 28.24 178.71 28.24C178.518 28.24 178.358 28.1707 178.23 28.032C178.113 27.8933 178.054 27.712 178.054 27.488C178.054 27.3067 178.097 27.152 178.182 27.024C178.278 26.8853 178.433 26.7573 178.646 26.64C179.019 26.4373 179.462 26.2773 179.974 26.16C180.497 26.0427 181.009 25.984 181.51 25.984ZM181.014 32.688C181.547 32.688 181.979 32.512 182.31 32.16C182.651 31.7973 182.822 31.3333 182.822 30.768V30.432H182.534C181.819 30.432 181.265 30.464 180.87 30.528C180.475 30.592 180.193 30.704 180.022 30.864C179.851 31.024 179.766 31.2427 179.766 31.52C179.766 31.8613 179.883 32.144 180.118 32.368C180.363 32.5813 180.662 32.688 181.014 32.688ZM187.751 34.096C187.463 34.096 187.223 34.016 187.031 33.856C186.849 33.6853 186.759 33.4453 186.759 33.136V23.584C186.759 23.2747 186.849 23.04 187.031 22.88C187.223 22.72 187.463 22.64 187.751 22.64C188.039 22.64 188.279 22.72 188.471 22.88C188.663 23.04 188.759 23.2747 188.759 23.584V33.136C188.759 33.4453 188.663 33.6853 188.471 33.856C188.279 34.016 188.039 34.096 187.751 34.096Z" fill="#381A56"/>
<path d="M69.201 50.307C69.7297 50.437 70.137 50.697 70.423 51.087C70.7177 51.4683 70.865 51.945 70.865 52.517C70.865 53.323 70.6007 53.9383 70.072 54.363C69.552 54.7877 68.811 55 67.849 55H64.612C64.4907 55 64.3867 54.961 64.3 54.883C64.222 54.805 64.183 54.7097 64.183 54.597V46.238C64.183 46.1253 64.222 46.03 64.3 45.952C64.3867 45.874 64.4907 45.835 64.612 45.835H67.719C68.655 45.835 69.3787 46.043 69.89 46.459C70.4013 46.875 70.657 47.4687 70.657 48.24C70.657 48.734 70.527 49.1587 70.267 49.514C70.0157 49.8693 69.6603 50.1337 69.201 50.307ZM64.976 49.995H67.602C68.3387 49.995 68.8977 49.8433 69.279 49.54C69.6603 49.2367 69.851 48.799 69.851 48.227C69.851 47.0917 69.1013 46.524 67.602 46.524H64.976V49.995ZM67.797 54.311C68.5683 54.311 69.136 54.168 69.5 53.882C69.8727 53.5873 70.059 53.141 70.059 52.543C70.059 51.3123 69.305 50.697 67.797 50.697H64.976V54.311H67.797ZM77.455 48.565C77.5763 48.565 77.6717 48.604 77.741 48.682C77.819 48.7513 77.858 48.8467 77.858 48.968V54.662C77.858 54.7833 77.819 54.883 77.741 54.961C77.6717 55.0303 77.5763 55.065 77.455 55.065C77.3423 55.065 77.2513 55.0303 77.182 54.961C77.1127 54.883 77.078 54.7833 77.078 54.662V53.869C76.8787 54.2677 76.5927 54.571 76.22 54.779C75.856 54.987 75.44 55.091 74.972 55.091C74.2267 55.091 73.6633 54.8873 73.282 54.48C72.9093 54.064 72.723 53.453 72.723 52.647V48.968C72.723 48.8467 72.7577 48.7513 72.827 48.682C72.905 48.604 73.0047 48.565 73.126 48.565C73.2473 48.565 73.3427 48.604 73.412 48.682C73.4813 48.7513 73.516 48.8467 73.516 48.968V52.595C73.516 53.2103 73.6373 53.6653 73.88 53.96C74.1313 54.246 74.5213 54.389 75.05 54.389C75.6567 54.389 76.142 54.1983 76.506 53.817C76.8787 53.427 77.065 52.9113 77.065 52.27V48.968C77.065 48.8467 77.0997 48.7513 77.169 48.682C77.2383 48.604 77.3337 48.565 77.455 48.565ZM81.9755 55.091C81.6115 55.091 81.2519 55.0433 80.8965 54.948C80.5499 54.844 80.2422 54.7053 79.9735 54.532C79.8089 54.4193 79.6919 54.324 79.6225 54.246C79.5619 54.1593 79.5315 54.064 79.5315 53.96C79.5315 53.8733 79.5575 53.7997 79.6095 53.739C79.6702 53.6783 79.7395 53.648 79.8175 53.648C79.8955 53.648 80.0299 53.713 80.2205 53.843C80.4719 54.0077 80.7275 54.142 80.9875 54.246C81.2562 54.35 81.5899 54.402 81.9885 54.402C82.4999 54.402 82.8985 54.311 83.1845 54.129C83.4705 53.9383 83.6135 53.6697 83.6135 53.323C83.6135 53.115 83.5615 52.946 83.4575 52.816C83.3535 52.6773 83.1802 52.5603 82.9375 52.465C82.6949 52.361 82.3482 52.2613 81.8975 52.166C81.1262 51.9927 80.5759 51.7717 80.2465 51.503C79.9259 51.2257 79.7655 50.8573 79.7655 50.398C79.7655 49.8433 79.9822 49.397 80.4155 49.059C80.8489 48.7123 81.4122 48.539 82.1055 48.539C82.4435 48.539 82.7642 48.5823 83.0675 48.669C83.3795 48.7557 83.6482 48.8813 83.8735 49.046C84.1769 49.254 84.3285 49.4577 84.3285 49.657C84.3285 49.7437 84.2982 49.8217 84.2375 49.891C84.1855 49.9517 84.1205 49.982 84.0425 49.982C83.9559 49.982 83.8215 49.9127 83.6395 49.774C83.4055 49.6093 83.1715 49.4793 82.9375 49.384C82.7122 49.28 82.4219 49.228 82.0665 49.228C81.6159 49.228 81.2562 49.332 80.9875 49.54C80.7189 49.7393 80.5845 50.0123 80.5845 50.359C80.5845 50.5583 80.6279 50.723 80.7145 50.853C80.8099 50.983 80.9659 51.1 81.1825 51.204C81.4079 51.2993 81.7285 51.3947 82.1445 51.49C82.7425 51.6287 83.2019 51.776 83.5225 51.932C83.8432 52.088 84.0729 52.2743 84.2115 52.491C84.3502 52.7077 84.4195 52.985 84.4195 53.323C84.4195 53.8517 84.1942 54.2807 83.7435 54.61C83.3015 54.9307 82.7122 55.091 81.9755 55.091ZM88.6645 55.091C88.0839 55.091 87.5725 54.9567 87.1305 54.688C86.6885 54.4193 86.3462 54.038 86.1035 53.544C85.8609 53.05 85.7395 52.4823 85.7395 51.841C85.7395 51.191 85.8609 50.619 86.1035 50.125C86.3549 49.6223 86.7015 49.2323 87.1435 48.955C87.5942 48.6777 88.1099 48.539 88.6905 48.539C89.0199 48.539 89.3405 48.5823 89.6525 48.669C89.9645 48.7557 90.2419 48.8857 90.4845 49.059C90.6405 49.1717 90.7489 49.2757 90.8095 49.371C90.8789 49.4577 90.9135 49.553 90.9135 49.657C90.9135 49.7523 90.8875 49.8303 90.8355 49.891C90.7835 49.9517 90.7185 49.982 90.6405 49.982C90.5539 49.982 90.4152 49.9083 90.2245 49.761C89.9992 49.5963 89.7739 49.4663 89.5485 49.371C89.3232 49.2757 89.0502 49.228 88.7295 49.228C88.0535 49.228 87.5249 49.462 87.1435 49.93C86.7622 50.3893 86.5715 51.0263 86.5715 51.841C86.5715 52.647 86.7579 53.2753 87.1305 53.726C87.5119 54.168 88.0405 54.389 88.7165 54.389C89.0459 54.389 89.3189 54.3413 89.5355 54.246C89.7609 54.1507 90.0035 54.0207 90.2635 53.856C90.3415 53.804 90.4152 53.7563 90.4845 53.713C90.5625 53.6697 90.6232 53.648 90.6665 53.648C90.7532 53.648 90.8225 53.6783 90.8745 53.739C90.9265 53.7997 90.9525 53.8733 90.9525 53.96C90.9525 54.064 90.9222 54.155 90.8615 54.233C90.8009 54.311 90.6839 54.4107 90.5105 54.532C90.2765 54.7053 89.9905 54.844 89.6525 54.948C89.3232 55.0433 88.9939 55.091 88.6645 55.091ZM94.8085 48.539C95.5711 48.539 96.1388 48.7383 96.5115 49.137C96.8928 49.5357 97.0835 50.138 97.0835 50.944V54.649C97.0835 54.7703 97.0488 54.87 96.9795 54.948C96.9101 55.0173 96.8148 55.052 96.6935 55.052C96.5721 55.052 96.4768 55.0173 96.4075 54.948C96.3381 54.87 96.3035 54.7703 96.3035 54.649V53.869C96.1215 54.259 95.8571 54.5623 95.5105 54.779C95.1638 54.987 94.7651 55.091 94.3145 55.091C93.9071 55.091 93.5345 55.0087 93.1965 54.844C92.8671 54.6793 92.6028 54.454 92.4035 54.168C92.2041 53.882 92.1045 53.5613 92.1045 53.206C92.0958 52.7293 92.2128 52.361 92.4555 52.101C92.6981 51.8323 93.1011 51.6417 93.6645 51.529C94.2278 51.4163 95.0165 51.36 96.0305 51.36H96.3035V50.879C96.3035 50.307 96.1865 49.891 95.9525 49.631C95.7185 49.3623 95.3501 49.228 94.8475 49.228C94.2061 49.228 93.5951 49.397 93.0145 49.735C92.9885 49.7523 92.9191 49.8 92.8065 49.878C92.7025 49.9473 92.6115 49.982 92.5335 49.982C92.4468 49.982 92.3731 49.9517 92.3125 49.891C92.2605 49.8217 92.2345 49.7393 92.2345 49.644C92.2345 49.4533 92.3861 49.267 92.6895 49.085C92.9928 48.9117 93.3308 48.7773 93.7035 48.682C94.0761 48.5867 94.4445 48.539 94.8085 48.539ZM94.3795 54.402C94.9428 54.402 95.4021 54.2113 95.7575 53.83C96.1215 53.4487 96.3035 52.9633 96.3035 52.374V51.945H96.0565C95.2245 51.945 94.5875 51.9797 94.1455 52.049C93.7035 52.1183 93.3915 52.2397 93.2095 52.413C93.0275 52.5777 92.9365 52.8203 92.9365 53.141C92.9365 53.505 93.0751 53.8083 93.3525 54.051C93.6298 54.285 93.9721 54.402 94.3795 54.402ZM109.243 48.539C110.638 48.539 111.336 49.3537 111.336 50.983V54.662C111.336 54.7833 111.301 54.883 111.232 54.961C111.162 55.0303 111.067 55.065 110.946 55.065C110.824 55.065 110.725 55.0303 110.647 54.961C110.577 54.883 110.543 54.7833 110.543 54.662V51.035C110.543 50.4023 110.43 49.9473 110.205 49.67C109.979 49.384 109.62 49.241 109.126 49.241C108.562 49.241 108.112 49.4317 107.774 49.813C107.444 50.1943 107.28 50.7057 107.28 51.347V54.662C107.28 54.7833 107.245 54.883 107.176 54.961C107.106 55.0303 107.011 55.065 106.89 55.065C106.768 55.065 106.669 55.0303 106.591 54.961C106.521 54.883 106.487 54.7833 106.487 54.662V51.035C106.487 50.4023 106.374 49.9473 106.149 49.67C105.923 49.384 105.564 49.241 105.07 49.241C104.506 49.241 104.056 49.4317 103.718 49.813C103.388 50.1943 103.224 50.7057 103.224 51.347V54.662C103.224 54.7833 103.189 54.883 103.12 54.961C103.05 55.0303 102.955 55.065 102.834 55.065C102.712 55.065 102.613 55.0303 102.535 54.961C102.465 54.883 102.431 54.7833 102.431 54.662V48.968C102.431 48.838 102.465 48.7383 102.535 48.669C102.613 48.5997 102.712 48.565 102.834 48.565C102.955 48.565 103.046 48.5997 103.107 48.669C103.176 48.7383 103.211 48.8337 103.211 48.955V49.735C103.393 49.345 103.653 49.0503 103.991 48.851C104.337 48.643 104.736 48.539 105.187 48.539C106.183 48.539 106.829 48.955 107.124 49.787C107.306 49.397 107.583 49.0937 107.956 48.877C108.328 48.6517 108.757 48.539 109.243 48.539ZM115.883 48.539C116.645 48.539 117.213 48.7383 117.586 49.137C117.967 49.5357 118.158 50.138 118.158 50.944V54.649C118.158 54.7703 118.123 54.87 118.054 54.948C117.984 55.0173 117.889 55.052 117.768 55.052C117.646 55.052 117.551 55.0173 117.482 54.948C117.412 54.87 117.378 54.7703 117.378 54.649V53.869C117.196 54.259 116.931 54.5623 116.585 54.779C116.238 54.987 115.839 55.091 115.389 55.091C114.981 55.091 114.609 55.0087 114.271 54.844C113.941 54.6793 113.677 54.454 113.478 54.168C113.278 53.882 113.179 53.5613 113.179 53.206C113.17 52.7293 113.287 52.361 113.53 52.101C113.772 51.8323 114.175 51.6417 114.739 51.529C115.302 51.4163 116.091 51.36 117.105 51.36H117.378V50.879C117.378 50.307 117.261 49.891 117.027 49.631C116.793 49.3623 116.424 49.228 115.922 49.228C115.28 49.228 114.669 49.397 114.089 49.735C114.063 49.7523 113.993 49.8 113.881 49.878C113.777 49.9473 113.686 49.982 113.608 49.982C113.521 49.982 113.447 49.9517 113.387 49.891C113.335 49.8217 113.309 49.7393 113.309 49.644C113.309 49.4533 113.46 49.267 113.764 49.085C114.067 48.9117 114.405 48.7773 114.778 48.682C115.15 48.5867 115.519 48.539 115.883 48.539ZM115.454 54.402C116.017 54.402 116.476 54.2113 116.832 53.83C117.196 53.4487 117.378 52.9633 117.378 52.374V51.945H117.131C116.299 51.945 115.662 51.9797 115.22 52.049C114.778 52.1183 114.466 52.2397 114.284 52.413C114.102 52.5777 114.011 52.8203 114.011 53.141C114.011 53.505 114.149 53.8083 114.427 54.051C114.704 54.285 115.046 54.402 115.454 54.402ZM123.18 48.539C124.697 48.539 125.455 49.3537 125.455 50.983V54.662C125.455 54.7833 125.421 54.883 125.351 54.961C125.282 55.0303 125.187 55.065 125.065 55.065C124.944 55.065 124.844 55.0303 124.766 54.961C124.697 54.883 124.662 54.7833 124.662 54.662V51.035C124.662 50.411 124.537 49.956 124.285 49.67C124.034 49.384 123.635 49.241 123.089 49.241C122.465 49.241 121.963 49.4317 121.581 49.813C121.209 50.1943 121.022 50.7057 121.022 51.347V54.662C121.022 54.7833 120.988 54.883 120.918 54.961C120.849 55.0303 120.754 55.065 120.632 55.065C120.511 55.065 120.411 55.0303 120.333 54.961C120.264 54.883 120.229 54.7833 120.229 54.662V48.968C120.229 48.8467 120.264 48.7513 120.333 48.682C120.411 48.604 120.511 48.565 120.632 48.565C120.745 48.565 120.836 48.5997 120.905 48.669C120.975 48.7383 121.009 48.8337 121.009 48.955V49.774C121.209 49.3753 121.495 49.072 121.867 48.864C122.249 48.6473 122.686 48.539 123.18 48.539ZM132.223 48.565C132.344 48.565 132.439 48.604 132.509 48.682C132.587 48.7513 132.626 48.8467 132.626 48.968V54.662C132.626 54.7833 132.587 54.883 132.509 54.961C132.439 55.0303 132.344 55.065 132.223 55.065C132.11 55.065 132.019 55.0303 131.95 54.961C131.88 54.883 131.846 54.7833 131.846 54.662V53.869C131.646 54.2677 131.36 54.571 130.988 54.779C130.624 54.987 130.208 55.091 129.74 55.091C128.994 55.091 128.431 54.8873 128.05 54.48C127.677 54.064 127.491 53.453 127.491 52.647V48.968C127.491 48.8467 127.525 48.7513 127.595 48.682C127.673 48.604 127.772 48.565 127.894 48.565C128.015 48.565 128.11 48.604 128.18 48.682C128.249 48.7513 128.284 48.8467 128.284 48.968V52.595C128.284 53.2103 128.405 53.6653 128.648 53.96C128.899 54.246 129.289 54.389 129.818 54.389C130.424 54.389 130.91 54.1983 131.274 53.817C131.646 53.427 131.833 52.9113 131.833 52.27V48.968C131.833 48.8467 131.867 48.7513 131.937 48.682C132.006 48.604 132.101 48.565 132.223 48.565ZM137.198 48.539C137.961 48.539 138.528 48.7383 138.901 49.137C139.282 49.5357 139.473 50.138 139.473 50.944V54.649C139.473 54.7703 139.438 54.87 139.369 54.948C139.3 55.0173 139.204 55.052 139.083 55.052C138.962 55.052 138.866 55.0173 138.797 54.948C138.728 54.87 138.693 54.7703 138.693 54.649V53.869C138.511 54.259 138.247 54.5623 137.9 54.779C137.553 54.987 137.155 55.091 136.704 55.091C136.297 55.091 135.924 55.0087 135.586 54.844C135.257 54.6793 134.992 54.454 134.793 54.168C134.594 53.882 134.494 53.5613 134.494 53.206C134.485 52.7293 134.602 52.361 134.845 52.101C135.088 51.8323 135.491 51.6417 136.054 51.529C136.617 51.4163 137.406 51.36 138.42 51.36H138.693V50.879C138.693 50.307 138.576 49.891 138.342 49.631C138.108 49.3623 137.74 49.228 137.237 49.228C136.596 49.228 135.985 49.397 135.404 49.735C135.378 49.7523 135.309 49.8 135.196 49.878C135.092 49.9473 135.001 49.982 134.923 49.982C134.836 49.982 134.763 49.9517 134.702 49.891C134.65 49.8217 134.624 49.7393 134.624 49.644C134.624 49.4533 134.776 49.267 135.079 49.085C135.382 48.9117 135.72 48.7773 136.093 48.682C136.466 48.5867 136.834 48.539 137.198 48.539ZM136.769 54.402C137.332 54.402 137.792 54.2113 138.147 53.83C138.511 53.4487 138.693 52.9633 138.693 52.374V51.945H138.446C137.614 51.945 136.977 51.9797 136.535 52.049C136.093 52.1183 135.781 52.2397 135.599 52.413C135.417 52.5777 135.326 52.8203 135.326 53.141C135.326 53.505 135.465 53.8083 135.742 54.051C136.019 54.285 136.362 54.402 136.769 54.402ZM141.948 55.065C141.827 55.065 141.727 55.0303 141.649 54.961C141.58 54.8917 141.545 54.792 141.545 54.662V46.173C141.545 46.043 141.58 45.9433 141.649 45.874C141.727 45.8047 141.827 45.77 141.948 45.77C142.061 45.77 142.152 45.8047 142.221 45.874C142.299 45.9433 142.338 46.043 142.338 46.173V54.662C142.338 54.792 142.299 54.8917 142.221 54.961C142.152 55.0303 142.061 55.065 141.948 55.065ZM151.239 48.539C152.634 48.539 153.332 49.3537 153.332 50.983V54.662C153.332 54.7833 153.297 54.883 153.228 54.961C153.158 55.0303 153.063 55.065 152.942 55.065C152.82 55.065 152.721 55.0303 152.643 54.961C152.573 54.883 152.539 54.7833 152.539 54.662V51.035C152.539 50.4023 152.426 49.9473 152.201 49.67C151.975 49.384 151.616 49.241 151.122 49.241C150.558 49.241 150.108 49.4317 149.77 49.813C149.44 50.1943 149.276 50.7057 149.276 51.347V54.662C149.276 54.7833 149.241 54.883 149.172 54.961C149.102 55.0303 149.007 55.065 148.886 55.065C148.764 55.065 148.665 55.0303 148.587 54.961C148.517 54.883 148.483 54.7833 148.483 54.662V51.035C148.483 50.4023 148.37 49.9473 148.145 49.67C147.919 49.384 147.56 49.241 147.066 49.241C146.502 49.241 146.052 49.4317 145.714 49.813C145.384 50.1943 145.22 50.7057 145.22 51.347V54.662C145.22 54.7833 145.185 54.883 145.116 54.961C145.046 55.0303 144.951 55.065 144.83 55.065C144.708 55.065 144.609 55.0303 144.531 54.961C144.461 54.883 144.427 54.7833 144.427 54.662V48.968C144.427 48.838 144.461 48.7383 144.531 48.669C144.609 48.5997 144.708 48.565 144.83 48.565C144.951 48.565 145.042 48.5997 145.103 48.669C145.172 48.7383 145.207 48.8337 145.207 48.955V49.735C145.389 49.345 145.649 49.0503 145.987 48.851C146.333 48.643 146.732 48.539 147.183 48.539C148.179 48.539 148.825 48.955 149.12 49.787C149.302 49.397 149.579 49.0937 149.952 48.877C150.324 48.6517 150.753 48.539 151.239 48.539ZM160.219 53.648C160.297 53.648 160.362 53.6827 160.414 53.752C160.474 53.8127 160.505 53.8863 160.505 53.973C160.505 54.1637 160.357 54.35 160.063 54.532C159.439 54.9047 158.78 55.091 158.087 55.091C157.125 55.091 156.366 54.8007 155.812 54.22C155.257 53.6393 154.98 52.842 154.98 51.828C154.98 51.178 155.101 50.606 155.344 50.112C155.595 49.6093 155.942 49.2237 156.384 48.955C156.834 48.6777 157.35 48.539 157.931 48.539C158.745 48.539 159.387 48.8033 159.855 49.332C160.331 49.852 160.57 50.5713 160.57 51.49C160.57 51.646 160.535 51.763 160.466 51.841C160.396 51.9103 160.284 51.945 160.128 51.945H155.799C155.825 52.7423 156.033 53.349 156.423 53.765C156.813 54.181 157.363 54.389 158.074 54.389C158.446 54.389 158.758 54.3413 159.01 54.246C159.261 54.142 159.53 54.0077 159.816 53.843C160.006 53.713 160.141 53.648 160.219 53.648ZM157.931 49.189C157.324 49.189 156.839 49.3797 156.475 49.761C156.111 50.1423 155.894 50.6753 155.825 51.36H159.842C159.824 50.6667 159.651 50.1337 159.322 49.761C158.992 49.3797 158.529 49.189 157.931 49.189ZM165.177 48.539C166.693 48.539 167.452 49.3537 167.452 50.983V54.662C167.452 54.7833 167.417 54.883 167.348 54.961C167.278 55.0303 167.183 55.065 167.062 55.065C166.94 55.065 166.841 55.0303 166.763 54.961C166.693 54.883 166.659 54.7833 166.659 54.662V51.035C166.659 50.411 166.533 49.956 166.282 49.67C166.03 49.384 165.632 49.241 165.086 49.241C164.462 49.241 163.959 49.4317 163.578 49.813C163.205 50.1943 163.019 50.7057 163.019 51.347V54.662C163.019 54.7833 162.984 54.883 162.915 54.961C162.845 55.0303 162.75 55.065 162.629 55.065C162.507 55.065 162.408 55.0303 162.33 54.961C162.26 54.883 162.226 54.7833 162.226 54.662V48.968C162.226 48.8467 162.26 48.7513 162.33 48.682C162.408 48.604 162.507 48.565 162.629 48.565C162.741 48.565 162.832 48.5997 162.902 48.669C162.971 48.7383 163.006 48.8337 163.006 48.955V49.774C163.205 49.3753 163.491 49.072 163.864 48.864C164.245 48.6473 164.683 48.539 165.177 48.539ZM172.256 54.402C172.498 54.428 172.62 54.5407 172.62 54.74C172.62 54.844 172.581 54.9263 172.503 54.987C172.425 55.0477 172.299 55.0737 172.126 55.065L171.762 55.039C171.103 54.9957 170.613 54.7963 170.293 54.441C169.981 54.077 169.825 53.5267 169.825 52.79V49.332H168.837C168.733 49.332 168.65 49.306 168.59 49.254C168.529 49.1933 168.499 49.1153 168.499 49.02C168.499 48.9247 168.529 48.8467 168.59 48.786C168.65 48.7253 168.733 48.695 168.837 48.695H169.825V47.083C169.825 46.953 169.859 46.8533 169.929 46.784C169.998 46.7147 170.093 46.68 170.215 46.68C170.336 46.68 170.431 46.7147 170.501 46.784C170.579 46.8533 170.618 46.953 170.618 47.083V48.695H172.191C172.303 48.695 172.39 48.7253 172.451 48.786C172.511 48.8467 172.542 48.9247 172.542 49.02C172.542 49.1153 172.511 49.1933 172.451 49.254C172.39 49.306 172.303 49.332 172.191 49.332H170.618V52.829C170.618 53.3663 170.722 53.752 170.93 53.986C171.138 54.2113 171.463 54.3413 171.905 54.376L172.256 54.402ZM178.602 53.648C178.68 53.648 178.745 53.6827 178.797 53.752C178.857 53.8127 178.888 53.8863 178.888 53.973C178.888 54.1637 178.74 54.35 178.446 54.532C177.822 54.9047 177.163 55.091 176.47 55.091C175.508 55.091 174.749 54.8007 174.195 54.22C173.64 53.6393 173.363 52.842 173.363 51.828C173.363 51.178 173.484 50.606 173.727 50.112C173.978 49.6093 174.325 49.2237 174.767 48.955C175.217 48.6777 175.733 48.539 176.314 48.539C177.128 48.539 177.77 48.8033 178.238 49.332C178.714 49.852 178.953 50.5713 178.953 51.49C178.953 51.646 178.918 51.763 178.849 51.841C178.779 51.9103 178.667 51.945 178.511 51.945H174.182C174.208 52.7423 174.416 53.349 174.806 53.765C175.196 54.181 175.746 54.389 176.457 54.389C176.829 54.389 177.141 54.3413 177.393 54.246C177.644 54.142 177.913 54.0077 178.199 53.843C178.389 53.713 178.524 53.648 178.602 53.648ZM176.314 49.189C175.707 49.189 175.222 49.3797 174.858 49.761C174.494 50.1423 174.277 50.6753 174.208 51.36H178.225C178.207 50.6667 178.034 50.1337 177.705 49.761C177.375 49.3797 176.912 49.189 176.314 49.189ZM188.72 53.648C188.798 53.648 188.863 53.6827 188.915 53.752C188.975 53.8127 189.006 53.8863 189.006 53.973C189.006 54.1637 188.858 54.35 188.564 54.532C187.94 54.9047 187.281 55.091 186.588 55.091C185.626 55.091 184.867 54.8007 184.313 54.22C183.758 53.6393 183.481 52.842 183.481 51.828C183.481 51.178 183.602 50.606 183.845 50.112C184.096 49.6093 184.443 49.2237 184.885 48.955C185.335 48.6777 185.851 48.539 186.432 48.539C187.246 48.539 187.888 48.8033 188.356 49.332C188.832 49.852 189.071 50.5713 189.071 51.49C189.071 51.646 189.036 51.763 188.967 51.841C188.897 51.9103 188.785 51.945 188.629 51.945H184.3C184.326 52.7423 184.534 53.349 184.924 53.765C185.314 54.181 185.864 54.389 186.575 54.389C186.947 54.389 187.259 54.3413 187.511 54.246C187.762 54.142 188.031 54.0077 188.317 53.843C188.507 53.713 188.642 53.648 188.72 53.648ZM186.432 49.189C185.825 49.189 185.34 49.3797 184.976 49.761C184.612 50.1423 184.395 50.6753 184.326 51.36H188.343C188.325 50.6667 188.152 50.1337 187.823 49.761C187.493 49.3797 187.03 49.189 186.432 49.189ZM191.13 55.065C191.008 55.065 190.909 55.0303 190.831 54.961C190.761 54.8917 190.727 54.792 190.727 54.662V46.173C190.727 46.043 190.761 45.9433 190.831 45.874C190.909 45.8047 191.008 45.77 191.13 45.77C191.242 45.77 191.333 45.8047 191.403 45.874C191.481 45.9433 191.52 46.043 191.52 46.173V54.662C191.52 54.792 191.481 54.8917 191.403 54.961C191.333 55.0303 191.242 55.065 191.13 55.065ZM199.848 48.539C200.402 48.539 200.892 48.6777 201.317 48.955C201.741 49.2237 202.071 49.6093 202.305 50.112C202.539 50.606 202.656 51.1823 202.656 51.841C202.656 52.491 202.539 53.063 202.305 53.557C202.071 54.0423 201.741 54.4193 201.317 54.688C200.892 54.9567 200.402 55.091 199.848 55.091C199.336 55.091 198.894 54.9827 198.522 54.766C198.149 54.5407 197.867 54.2157 197.677 53.791V57.002C197.677 57.1233 197.642 57.2187 197.573 57.288C197.503 57.366 197.408 57.405 197.287 57.405C197.165 57.405 197.066 57.366 196.988 57.288C196.918 57.2187 196.884 57.1233 196.884 57.002V48.968C196.884 48.8467 196.918 48.7513 196.988 48.682C197.066 48.604 197.165 48.565 197.287 48.565C197.408 48.565 197.503 48.604 197.573 48.682C197.642 48.7513 197.677 48.8467 197.677 48.968V49.839C197.867 49.4143 198.149 49.0937 198.522 48.877C198.894 48.6517 199.336 48.539 199.848 48.539ZM199.731 54.389C200.398 54.389 200.914 54.168 201.278 53.726C201.65 53.2753 201.837 52.647 201.837 51.841C201.837 51.0177 201.65 50.3763 201.278 49.917C200.914 49.4577 200.402 49.228 199.744 49.228C199.085 49.228 198.574 49.4533 198.21 49.904C197.854 50.3547 197.677 50.9917 197.677 51.815C197.677 52.6383 197.854 53.2753 198.21 53.726C198.565 54.168 199.072 54.389 199.731 54.389ZM207.274 48.565C207.439 48.5563 207.556 48.578 207.625 48.63C207.694 48.682 207.729 48.7687 207.729 48.89C207.729 49.1067 207.599 49.228 207.339 49.254L206.949 49.293C206.334 49.3537 205.874 49.5747 205.571 49.956C205.276 50.3373 205.129 50.7837 205.129 51.295V54.662C205.129 54.792 205.094 54.8917 205.025 54.961C204.956 55.0303 204.86 55.065 204.739 55.065C204.618 55.065 204.518 55.0303 204.44 54.961C204.371 54.8917 204.336 54.792 204.336 54.662V48.968C204.336 48.838 204.371 48.7383 204.44 48.669C204.518 48.5997 204.618 48.565 204.739 48.565C204.852 48.565 204.943 48.5997 205.012 48.669C205.081 48.7383 205.116 48.8337 205.116 48.955V49.8C205.471 49.0547 206.13 48.6473 207.092 48.578L207.274 48.565ZM211.123 55.091C210.543 55.091 210.031 54.9567 209.589 54.688C209.156 54.4193 208.818 54.038 208.575 53.544C208.333 53.05 208.211 52.4737 208.211 51.815C208.211 51.1563 208.333 50.58 208.575 50.086C208.818 49.592 209.156 49.2107 209.589 48.942C210.031 48.6733 210.543 48.539 211.123 48.539C211.695 48.539 212.202 48.6733 212.644 48.942C213.086 49.2107 213.424 49.592 213.658 50.086C213.901 50.58 214.022 51.1563 214.022 51.815C214.022 52.4737 213.901 53.05 213.658 53.544C213.424 54.038 213.086 54.4193 212.644 54.688C212.202 54.9567 211.695 55.091 211.123 55.091ZM211.11 54.389C211.778 54.389 212.293 54.168 212.657 53.726C213.021 53.284 213.203 52.647 213.203 51.815C213.203 51.0003 213.017 50.3677 212.644 49.917C212.28 49.4577 211.773 49.228 211.123 49.228C210.465 49.228 209.953 49.4577 209.589 49.917C209.225 50.3677 209.043 51.0003 209.043 51.815C209.043 52.647 209.221 53.284 209.576 53.726C209.932 54.168 210.443 54.389 211.11 54.389ZM220.263 48.799C220.332 48.643 220.445 48.565 220.601 48.565C220.696 48.565 220.783 48.5997 220.861 48.669C220.939 48.7383 220.978 48.8207 220.978 48.916C220.978 48.9767 220.965 49.033 220.939 49.085L218.365 54.74C218.321 54.8353 218.256 54.909 218.17 54.961C218.092 55.013 218.005 55.039 217.91 55.039C217.806 55.039 217.71 55.013 217.624 54.961C217.546 54.909 217.485 54.8353 217.442 54.74L214.855 49.085C214.829 49.033 214.816 48.981 214.816 48.929C214.816 48.825 214.859 48.7383 214.946 48.669C215.041 48.591 215.141 48.552 215.245 48.552C215.409 48.552 215.522 48.63 215.583 48.786L217.923 54.038L220.263 48.799ZM227.022 53.648C227.1 53.648 227.165 53.6827 227.217 53.752C227.277 53.8127 227.308 53.8863 227.308 53.973C227.308 54.1637 227.16 54.35 226.866 54.532C226.242 54.9047 225.583 55.091 224.89 55.091C223.928 55.091 223.169 54.8007 222.615 54.22C222.06 53.6393 221.783 52.842 221.783 51.828C221.783 51.178 221.904 50.606 222.147 50.112C222.398 49.6093 222.745 49.2237 223.187 48.955C223.637 48.6777 224.153 48.539 224.734 48.539C225.548 48.539 226.19 48.8033 226.658 49.332C227.134 49.852 227.373 50.5713 227.373 51.49C227.373 51.646 227.338 51.763 227.269 51.841C227.199 51.9103 227.087 51.945 226.931 51.945H222.602C222.628 52.7423 222.836 53.349 223.226 53.765C223.616 54.181 224.166 54.389 224.877 54.389C225.249 54.389 225.561 54.3413 225.813 54.246C226.064 54.142 226.333 54.0077 226.619 53.843C226.809 53.713 226.944 53.648 227.022 53.648ZM224.734 49.189C224.127 49.189 223.642 49.3797 223.278 49.761C222.914 50.1423 222.697 50.6753 222.628 51.36H226.645C226.627 50.6667 226.454 50.1337 226.125 49.761C225.795 49.3797 225.332 49.189 224.734 49.189ZM233.864 53.648C233.942 53.648 234.007 53.6827 234.059 53.752C234.12 53.8127 234.15 53.8863 234.15 53.973C234.15 54.1637 234.003 54.35 233.708 54.532C233.084 54.9047 232.426 55.091 231.732 55.091C230.77 55.091 230.012 54.8007 229.457 54.22C228.903 53.6393 228.625 52.842 228.625 51.828C228.625 51.178 228.747 50.606 228.989 50.112C229.241 49.6093 229.587 49.2237 230.029 48.955C230.48 48.6777 230.996 48.539 231.576 48.539C232.391 48.539 233.032 48.8033 233.5 49.332C233.977 49.852 234.215 50.5713 234.215 51.49C234.215 51.646 234.181 51.763 234.111 51.841C234.042 51.9103 233.929 51.945 233.773 51.945H229.444C229.47 52.7423 229.678 53.349 230.068 53.765C230.458 54.181 231.009 54.389 231.719 54.389C232.092 54.389 232.404 54.3413 232.655 54.246C232.907 54.142 233.175 54.0077 233.461 53.843C233.652 53.713 233.786 53.648 233.864 53.648ZM231.576 49.189C230.97 49.189 230.484 49.3797 230.12 49.761C229.756 50.1423 229.54 50.6753 229.47 51.36H233.487C233.47 50.6667 233.297 50.1337 232.967 49.761C232.638 49.3797 232.174 49.189 231.576 49.189ZM240.837 45.77C240.958 45.77 241.054 45.809 241.123 45.887C241.201 45.9563 241.24 46.0517 241.24 46.173V54.649C241.24 54.7703 241.201 54.87 241.123 54.948C241.054 55.0173 240.958 55.052 240.837 55.052C240.716 55.052 240.62 55.0173 240.551 54.948C240.482 54.87 240.447 54.7703 240.447 54.649V53.791C240.256 54.2157 239.975 54.5407 239.602 54.766C239.229 54.9827 238.787 55.091 238.276 55.091C237.721 55.091 237.232 54.9567 236.807 54.688C236.382 54.4107 236.053 54.025 235.819 53.531C235.585 53.0283 235.468 52.4477 235.468 51.789C235.468 51.139 235.585 50.5713 235.819 50.086C236.053 49.592 236.382 49.2107 236.807 48.942C237.232 48.6733 237.721 48.539 238.276 48.539C238.787 48.539 239.229 48.6517 239.602 48.877C239.975 49.0937 240.256 49.4143 240.447 49.839V46.173C240.447 46.0517 240.482 45.9563 240.551 45.887C240.62 45.809 240.716 45.77 240.837 45.77ZM238.38 54.389C239.039 54.389 239.546 54.168 239.901 53.726C240.265 53.2753 240.447 52.6383 240.447 51.815C240.447 50.9917 240.269 50.3547 239.914 49.904C239.559 49.4533 239.052 49.228 238.393 49.228C237.726 49.228 237.21 49.4533 236.846 49.904C236.482 50.346 236.3 50.9743 236.3 51.789C236.3 52.6123 236.482 53.2537 236.846 53.713C237.21 54.1637 237.721 54.389 238.38 54.389ZM245.832 55.091C245.252 55.091 244.74 54.9567 244.298 54.688C243.865 54.4193 243.527 54.038 243.284 53.544C243.042 53.05 242.92 52.4737 242.92 51.815C242.92 51.1563 243.042 50.58 243.284 50.086C243.527 49.592 243.865 49.2107 244.298 48.942C244.74 48.6733 245.252 48.539 245.832 48.539C246.404 48.539 246.911 48.6733 247.353 48.942C247.795 49.2107 248.133 49.592 248.367 50.086C248.61 50.58 248.731 51.1563 248.731 51.815C248.731 52.4737 248.61 53.05 248.367 53.544C248.133 54.038 247.795 54.4193 247.353 54.688C246.911 54.9567 246.404 55.091 245.832 55.091ZM245.819 54.389C246.487 54.389 247.002 54.168 247.366 53.726C247.73 53.284 247.912 52.647 247.912 51.815C247.912 51.0003 247.726 50.3677 247.353 49.917C246.989 49.4577 246.482 49.228 245.832 49.228C245.174 49.228 244.662 49.4577 244.298 49.917C243.934 50.3677 243.752 51.0003 243.752 51.815C243.752 52.647 243.93 53.284 244.285 53.726C244.641 54.168 245.152 54.389 245.819 54.389ZM253.345 48.565C253.51 48.5563 253.627 48.578 253.696 48.63C253.766 48.682 253.8 48.7687 253.8 48.89C253.8 49.1067 253.67 49.228 253.41 49.254L253.02 49.293C252.405 49.3537 251.946 49.5747 251.642 49.956C251.348 50.3373 251.2 50.7837 251.2 51.295V54.662C251.2 54.792 251.166 54.8917 251.096 54.961C251.027 55.0303 250.932 55.065 250.81 55.065C250.689 55.065 250.589 55.0303 250.511 54.961C250.442 54.8917 250.407 54.792 250.407 54.662V48.968C250.407 48.838 250.442 48.7383 250.511 48.669C250.589 48.5997 250.689 48.565 250.81 48.565C250.923 48.565 251.014 48.5997 251.083 48.669C251.153 48.7383 251.187 48.8337 251.187 48.955V49.8C251.543 49.0547 252.201 48.6473 253.163 48.578L253.345 48.565ZM260.597 55.091C260.016 55.091 259.505 54.9567 259.063 54.688C258.63 54.4193 258.292 54.038 258.049 53.544C257.806 53.05 257.685 52.4737 257.685 51.815C257.685 51.1563 257.806 50.58 258.049 50.086C258.292 49.592 258.63 49.2107 259.063 48.942C259.505 48.6733 260.016 48.539 260.597 48.539C261.169 48.539 261.676 48.6733 262.118 48.942C262.56 49.2107 262.898 49.592 263.132 50.086C263.375 50.58 263.496 51.1563 263.496 51.815C263.496 52.4737 263.375 53.05 263.132 53.544C262.898 54.038 262.56 54.4193 262.118 54.688C261.676 54.9567 261.169 55.091 260.597 55.091ZM260.584 54.389C261.251 54.389 261.767 54.168 262.131 53.726C262.495 53.284 262.677 52.647 262.677 51.815C262.677 51.0003 262.491 50.3677 262.118 49.917C261.754 49.4577 261.247 49.228 260.597 49.228C259.938 49.228 259.427 49.4577 259.063 49.917C258.699 50.3677 258.517 51.0003 258.517 51.815C258.517 52.647 258.695 53.284 259.05 53.726C259.405 54.168 259.917 54.389 260.584 54.389ZM271.19 54.402C271.433 54.428 271.554 54.5407 271.554 54.74C271.554 54.844 271.515 54.9263 271.437 54.987C271.359 55.0477 271.234 55.0737 271.06 55.065L270.696 55.039C270.038 54.9957 269.548 54.7963 269.227 54.441C268.915 54.077 268.759 53.5267 268.759 52.79V49.332H267.771C267.667 49.332 267.585 49.306 267.524 49.254C267.464 49.1933 267.433 49.1153 267.433 49.02C267.433 48.9247 267.464 48.8467 267.524 48.786C267.585 48.7253 267.667 48.695 267.771 48.695H268.759V47.083C268.759 46.953 268.794 46.8533 268.863 46.784C268.933 46.7147 269.028 46.68 269.149 46.68C269.271 46.68 269.366 46.7147 269.435 46.784C269.513 46.8533 269.552 46.953 269.552 47.083V48.695H271.125C271.238 48.695 271.325 48.7253 271.385 48.786C271.446 48.8467 271.476 48.9247 271.476 49.02C271.476 49.1153 271.446 49.1933 271.385 49.254C271.325 49.306 271.238 49.332 271.125 49.332H269.552V52.829C269.552 53.3663 269.656 53.752 269.864 53.986C270.072 54.2113 270.397 54.3413 270.839 54.376L271.19 54.402ZM273.103 55.065C272.982 55.065 272.882 55.0303 272.804 54.961C272.735 54.8917 272.7 54.792 272.7 54.662V48.968C272.7 48.838 272.735 48.7383 272.804 48.669C272.882 48.5997 272.982 48.565 273.103 48.565C273.224 48.565 273.32 48.5997 273.389 48.669C273.458 48.7383 273.493 48.838 273.493 48.968V54.662C273.493 54.792 273.458 54.8917 273.389 54.961C273.32 55.0303 273.224 55.065 273.103 55.065ZM273.103 47.096C272.93 47.096 272.787 47.044 272.674 46.94C272.57 46.836 272.518 46.7017 272.518 46.537C272.518 46.3637 272.57 46.225 272.674 46.121C272.787 46.017 272.93 45.965 273.103 45.965C273.276 45.965 273.415 46.017 273.519 46.121C273.632 46.225 273.688 46.3637 273.688 46.537C273.688 46.7017 273.632 46.836 273.519 46.94C273.415 47.044 273.276 47.096 273.103 47.096ZM280.418 53.648C280.496 53.648 280.561 53.6827 280.613 53.752C280.674 53.8127 280.704 53.8863 280.704 53.973C280.704 54.1637 280.557 54.35 280.262 54.532C279.638 54.9047 278.979 55.091 278.286 55.091C277.324 55.091 276.566 54.8007 276.011 54.22C275.456 53.6393 275.179 52.842 275.179 51.828C275.179 51.178 275.3 50.606 275.543 50.112C275.794 49.6093 276.141 49.2237 276.583 48.955C277.034 48.6777 277.549 48.539 278.13 48.539C278.945 48.539 279.586 48.8033 280.054 49.332C280.531 49.852 280.769 50.5713 280.769 51.49C280.769 51.646 280.734 51.763 280.665 51.841C280.596 51.9103 280.483 51.945 280.327 51.945H275.998C276.024 52.7423 276.232 53.349 276.622 53.765C277.012 54.181 277.562 54.389 278.273 54.389C278.646 54.389 278.958 54.3413 279.209 54.246C279.46 54.142 279.729 54.0077 280.015 53.843C280.206 53.713 280.34 53.648 280.418 53.648ZM278.13 49.189C277.523 49.189 277.038 49.3797 276.674 49.761C276.31 50.1423 276.093 50.6753 276.024 51.36H280.041C280.024 50.6667 279.85 50.1337 279.521 49.761C279.192 49.3797 278.728 49.189 278.13 49.189ZM285.376 48.539C286.892 48.539 287.651 49.3537 287.651 50.983V54.662C287.651 54.7833 287.616 54.883 287.547 54.961C287.477 55.0303 287.382 55.065 287.261 55.065C287.139 55.065 287.04 55.0303 286.962 54.961C286.892 54.883 286.858 54.7833 286.858 54.662V51.035C286.858 50.411 286.732 49.956 286.481 49.67C286.229 49.384 285.831 49.241 285.285 49.241C284.661 49.241 284.158 49.4317 283.777 49.813C283.404 50.1943 283.218 50.7057 283.218 51.347V54.662C283.218 54.7833 283.183 54.883 283.114 54.961C283.044 55.0303 282.949 55.065 282.828 55.065C282.706 55.065 282.607 55.0303 282.529 54.961C282.459 54.883 282.425 54.7833 282.425 54.662V48.968C282.425 48.8467 282.459 48.7513 282.529 48.682C282.607 48.604 282.706 48.565 282.828 48.565C282.94 48.565 283.031 48.5997 283.101 48.669C283.17 48.7383 283.205 48.8337 283.205 48.955V49.774C283.404 49.3753 283.69 49.072 284.063 48.864C284.444 48.6473 284.882 48.539 285.376 48.539ZM294.678 45.77C294.799 45.77 294.895 45.809 294.964 45.887C295.042 45.9563 295.081 46.0517 295.081 46.173V54.649C295.081 54.7703 295.042 54.87 294.964 54.948C294.895 55.0173 294.799 55.052 294.678 55.052C294.557 55.052 294.461 55.0173 294.392 54.948C294.323 54.87 294.288 54.7703 294.288 54.649V53.791C294.097 54.2157 293.816 54.5407 293.443 54.766C293.07 54.9827 292.628 55.091 292.117 55.091C291.562 55.091 291.073 54.9567 290.648 54.688C290.223 54.4107 289.894 54.025 289.66 53.531C289.426 53.0283 289.309 52.4477 289.309 51.789C289.309 51.139 289.426 50.5713 289.66 50.086C289.894 49.592 290.223 49.2107 290.648 48.942C291.073 48.6733 291.562 48.539 292.117 48.539C292.628 48.539 293.07 48.6517 293.443 48.877C293.816 49.0937 294.097 49.4143 294.288 49.839V46.173C294.288 46.0517 294.323 45.9563 294.392 45.887C294.461 45.809 294.557 45.77 294.678 45.77ZM292.221 54.389C292.88 54.389 293.387 54.168 293.742 53.726C294.106 53.2753 294.288 52.6383 294.288 51.815C294.288 50.9917 294.11 50.3547 293.755 49.904C293.4 49.4533 292.893 49.228 292.234 49.228C291.567 49.228 291.051 49.4533 290.687 49.904C290.323 50.346 290.141 50.9743 290.141 51.789C290.141 52.6123 290.323 53.2537 290.687 53.713C291.051 54.1637 291.562 54.389 292.221 54.389ZM299.66 48.539C300.423 48.539 300.99 48.7383 301.363 49.137C301.744 49.5357 301.935 50.138 301.935 50.944V54.649C301.935 54.7703 301.9 54.87 301.831 54.948C301.762 55.0173 301.666 55.052 301.545 55.052C301.424 55.052 301.328 55.0173 301.259 54.948C301.19 54.87 301.155 54.7703 301.155 54.649V53.869C300.973 54.259 300.709 54.5623 300.362 54.779C300.015 54.987 299.617 55.091 299.166 55.091C298.759 55.091 298.386 55.0087 298.048 54.844C297.719 54.6793 297.454 54.454 297.255 54.168C297.056 53.882 296.956 53.5613 296.956 53.206C296.947 52.7293 297.064 52.361 297.307 52.101C297.55 51.8323 297.953 51.6417 298.516 51.529C299.079 51.4163 299.868 51.36 300.882 51.36H301.155V50.879C301.155 50.307 301.038 49.891 300.804 49.631C300.57 49.3623 300.202 49.228 299.699 49.228C299.058 49.228 298.447 49.397 297.866 49.735C297.84 49.7523 297.771 49.8 297.658 49.878C297.554 49.9473 297.463 49.982 297.385 49.982C297.298 49.982 297.225 49.9517 297.164 49.891C297.112 49.8217 297.086 49.7393 297.086 49.644C297.086 49.4533 297.238 49.267 297.541 49.085C297.844 48.9117 298.182 48.7773 298.555 48.682C298.928 48.5867 299.296 48.539 299.66 48.539ZM299.231 54.402C299.794 54.402 300.254 54.2113 300.609 53.83C300.973 53.4487 301.155 52.9633 301.155 52.374V51.945H300.908C300.076 51.945 299.439 51.9797 298.997 52.049C298.555 52.1183 298.243 52.2397 298.061 52.413C297.879 52.5777 297.788 52.8203 297.788 53.141C297.788 53.505 297.927 53.8083 298.204 54.051C298.481 54.285 298.824 54.402 299.231 54.402ZM304.41 55.065C304.236 55.065 304.089 55.0087 303.968 54.896C303.855 54.7747 303.799 54.623 303.799 54.441C303.799 54.259 303.855 54.1117 303.968 53.999C304.089 53.8777 304.236 53.817 304.41 53.817C304.574 53.817 304.713 53.8777 304.826 53.999C304.947 54.1117 305.008 54.259 305.008 54.441C305.008 54.623 304.947 54.7747 304.826 54.896C304.713 55.0087 304.574 55.065 304.41 55.065Z" fill="#333333"/>
<path d="M313.211 43.7932C313.274 43.8588 313.349 43.9108 313.431 43.9463C313.514 43.9817 313.603 44 313.692 44C313.782 44 313.87 43.9817 313.953 43.9463C314.035 43.9108 314.11 43.8588 314.174 43.7932L318.8 39.0048C318.864 38.9394 318.914 38.8616 318.948 38.776C318.982 38.6905 319 38.5987 319 38.5061C319 38.4135 318.982 38.3217 318.948 38.2361C318.914 38.1506 318.864 38.0728 318.8 38.0073L314.174 33.2189C314.111 33.1508 314.036 33.0963 313.953 33.0587C313.869 33.0211 313.78 33.0012 313.689 33C313.598 32.9989 313.508 33.0167 313.424 33.0522C313.34 33.0877 313.263 33.1403 313.199 33.2069C313.135 33.2735 313.084 33.3527 313.05 33.4399C313.016 33.5271 312.999 33.6205 313 33.7146C313.001 33.8087 313.021 33.9016 313.057 33.9877C313.094 34.0739 313.146 34.1517 313.212 34.2165L317.357 38.5061L313.212 42.7957C313.149 42.8611 313.099 42.9387 313.064 43.0243C313.03 43.1098 313.012 43.2015 313.012 43.2941C313.012 43.3868 313.029 43.4785 313.063 43.5642C313.097 43.6498 313.147 43.7277 313.211 43.7932Z" fill="#381A56"/>
<circle cx="35" cy="39" r="16" fill="#8274AC"/>
<path d="M42.3471 31.8849L41.0871 30.6075C40.9821 30.5025 40.8596 30.45 40.7196 30.45C40.5796 30.45 40.4396 30.5025 40.3521 30.6075L33.0196 38.045C32.9671 38.0975 32.9321 38.15 32.8971 38.22L32.0746 40.3025C32.0046 40.495 32.0396 40.7225 32.1971 40.8625C32.3021 40.9675 32.4246 41.02 32.5646 41.02C32.6346 41.02 32.6871 41.0024 32.7571 40.9849L34.8221 40.1625C34.8921 40.1275 34.9446 40.0925 34.9971 40.04L42.3296 32.6025C42.5571 32.41 42.5571 32.0774 42.3471 31.8849ZM34.3496 39.2349L33.5096 39.5674L33.8421 38.7099L40.7196 31.7275L41.2446 32.2525L34.3496 39.2349ZM39.7046 38.6049V45.675C39.7046 46.06 39.3546 46.375 38.9696 46.375H29.0296C28.6446 46.375 28.3296 46.06 28.3296 45.675V32.34C28.3296 31.955 28.6446 31.675 29.0296 31.675H36.3096C36.6946 31.675 37.0096 31.99 37.0096 32.375C37.0096 32.76 36.6946 33.075 36.3096 33.075H29.7296V44.975H38.3046V38.6049C38.3046 38.2199 38.6196 37.9049 39.0046 37.9049C39.3896 37.9049 39.7046 38.2199 39.7046 38.6049Z" fill="white"/>
<defs>
<filter id="filter0_d" x="0" y="0" width="334" height="77" filterUnits="userSpaceOnUse" color-interpolation-filters="sRGB">
<feFlood flood-opacity="0" result="BackgroundImageFix"/>
<feColorMatrix in="SourceAlpha" type="matrix" values="0 0 0 0 0 0 0 0 0 0 0 0 0 0 0 0 0 0 127 0"/>
<feOffset/>
<feGaussianBlur stdDeviation="1.5"/>
<feColorMatrix type="matrix" values="0 0 0 0 0 0 0 0 0 0 0 0 0 0 0 0 0 0 0.2 0"/>
<feBlend mode="normal" in2="BackgroundImageFix" result="effect1_dropShadow"/>
<feBlend mode="normal" in="SourceGraphic" in2="effect1_dropShadow" result="shape"/>
</filter>
</defs>
</svg>
