<svg width="334" height="77" viewBox="0 0 334 77" fill="none" xmlns="http://www.w3.org/2000/svg">
<g filter="url(#filter0_d)">
<rect x="3" y="3" width="328" height="71" rx="4" fill="#F9F8FF"/>
</g>
<circle cx="35" cy="39" r="16" fill="#8274AC"/>
<path d="M26.2729 30.2727V35.3635H31.3638V30.2727H26.2729ZM29.9094 33.9091H27.7276V31.7273H29.9094V33.9091Z" fill="white"/>
<path d="M26.2729 42.6364V47.7274H31.3638V42.6364H26.2729ZM29.9094 46.273H27.7276V44.0912H29.9094V46.273Z" fill="white"/>
<path d="M38.6367 30.2727V35.3635H43.7276V30.2727H38.6367ZM42.2729 33.9091H40.0911V31.7273H42.2729V33.9091Z" fill="white"/>
<path d="M42.2729 36.8182V41.1819H38.6367V42.6363H43.7276V36.8182H42.2729Z" fill="white"/>
<path d="M38.6367 44.0911V47.7273H40.0911V45.5455H42.2729V47.7273H43.7276V44.0911H38.6367Z" fill="white"/>
<path d="M32.8184 30.2727V31.7273H35.7274V35.3635H37.182V30.2727H32.8184Z" fill="white"/>
<path d="M35.7274 36.8182V39.7275H32.8184V44.0911H35.7274V47.7273H37.182V42.6363H34.273V41.1819H37.182V38.2729H38.6366V39.7275H40.091V36.8182H35.7274Z" fill="white"/>
<path d="M34.273 45.5455H32.8184V47.7274H34.273V45.5455Z" fill="white"/>
<path d="M31.3639 39.7274H29.1821V41.1818H31.3639V39.7274Z" fill="white"/>
<path d="M32.8184 33.1818V36.8182H26.2729V41.1818H27.7276V38.2728H34.273V33.1818H32.8184Z" fill="white"/>
<path d="M65.208 34C64.8987 34 64.6533 33.9147 64.472 33.744C64.3013 33.5733 64.216 33.3333 64.216 33.024V23.696C64.216 23.3867 64.3013 23.1467 64.472 22.976C64.6533 22.8053 64.8987 22.72 65.208 22.72H70.984C71.2933 22.72 71.5333 22.7893 71.704 22.928C71.8747 23.0667 71.96 23.264 71.96 23.52C71.96 23.7867 71.8747 23.9947 71.704 24.144C71.5333 24.2827 71.2933 24.352 70.984 24.352H66.232V27.456H70.664C70.9733 27.456 71.2133 27.5253 71.384 27.664C71.5547 27.8027 71.64 28.0053 71.64 28.272C71.64 28.528 71.5547 28.7253 71.384 28.864C71.2133 29.0027 70.9733 29.072 70.664 29.072H66.232V32.368H70.984C71.2933 32.368 71.5333 32.4427 71.704 32.592C71.8747 32.7307 71.96 32.9333 71.96 33.2C71.96 33.456 71.8747 33.6533 71.704 33.792C71.5333 33.9307 71.2933 34 70.984 34H65.208ZM76.2939 34.128C75.1312 34.128 74.1925 33.8987 73.4779 33.44C73.1365 33.2373 72.9659 32.9493 72.9659 32.576C72.9659 32.3627 73.0245 32.192 73.1419 32.064C73.2592 31.9253 73.4032 31.856 73.5739 31.856C73.7552 31.856 74.0059 31.9413 74.3259 32.112C74.6672 32.272 74.9765 32.3947 75.2539 32.48C75.5419 32.5653 75.9045 32.608 76.3419 32.608C76.7899 32.608 77.1365 32.5333 77.3819 32.384C77.6379 32.2347 77.7659 32.0267 77.7659 31.76C77.7659 31.5787 77.7125 31.4347 77.6059 31.328C77.5099 31.2213 77.3285 31.1253 77.0619 31.04C76.8059 30.944 76.4112 30.8373 75.8779 30.72C74.9285 30.528 74.2459 30.256 73.8299 29.904C73.4245 29.552 73.2219 29.0667 73.2219 28.448C73.2219 27.9787 73.3605 27.5573 73.6379 27.184C73.9152 26.8 74.2939 26.5067 74.7739 26.304C75.2645 26.0907 75.8192 25.984 76.4379 25.984C76.8859 25.984 77.3179 26.0427 77.7339 26.16C78.1499 26.2667 78.5232 26.4267 78.8539 26.64C79.1952 26.8533 79.3659 27.136 79.3659 27.488C79.3659 27.7013 79.3072 27.8827 79.1899 28.032C79.0725 28.1707 78.9285 28.24 78.7579 28.24C78.6405 28.24 78.5232 28.2187 78.4059 28.176C78.2992 28.1227 78.1605 28.048 77.9899 27.952C77.6805 27.792 77.4139 27.6747 77.1899 27.6C76.9659 27.5147 76.6885 27.472 76.3579 27.472C75.9632 27.472 75.6485 27.552 75.4139 27.712C75.1899 27.872 75.0779 28.0907 75.0779 28.368C75.0779 28.6347 75.1952 28.8373 75.4299 28.976C75.6645 29.1147 76.1179 29.2533 76.7899 29.392C77.5045 29.5413 78.0645 29.712 78.4699 29.904C78.8752 30.096 79.1632 30.336 79.3339 30.624C79.5152 30.912 79.6059 31.28 79.6059 31.728C79.6059 32.4533 79.3019 33.0347 78.6939 33.472C78.0965 33.9093 77.2965 34.128 76.2939 34.128ZM84.6995 34.128C83.9208 34.128 83.2328 33.9627 82.6355 33.632C82.0488 33.3013 81.5955 32.832 81.2755 32.224C80.9555 31.616 80.7955 30.9067 80.7955 30.096C80.7955 29.2853 80.9608 28.5707 81.2915 27.952C81.6328 27.3227 82.1075 26.8373 82.7155 26.496C83.3235 26.1547 84.0222 25.984 84.8115 25.984C85.2275 25.984 85.6435 26.0427 86.0595 26.16C86.4862 26.2773 86.8595 26.4373 87.1795 26.64C87.5208 26.864 87.6915 27.1467 87.6915 27.488C87.6915 27.7227 87.6328 27.9147 87.5155 28.064C87.4088 28.2027 87.2648 28.272 87.0835 28.272C86.9662 28.272 86.8435 28.2453 86.7155 28.192C86.5875 28.1387 86.4595 28.0747 86.3315 28C86.0968 27.8613 85.8728 27.7547 85.6595 27.68C85.4462 27.5947 85.2008 27.552 84.9235 27.552C84.2622 27.552 83.7502 27.7707 83.3875 28.208C83.0355 28.6347 82.8595 29.2533 82.8595 30.064C82.8595 30.864 83.0355 31.4827 83.3875 31.92C83.7502 32.3467 84.2622 32.56 84.9235 32.56C85.1902 32.56 85.4248 32.5227 85.6275 32.448C85.8408 32.3627 86.0755 32.2507 86.3315 32.112C86.4915 32.016 86.6302 31.9467 86.7475 31.904C86.8648 31.8507 86.9822 31.824 87.0995 31.824C87.2702 31.824 87.4142 31.8987 87.5315 32.048C87.6488 32.1973 87.7075 32.384 87.7075 32.608C87.7075 32.7893 87.6648 32.9493 87.5795 33.088C87.5048 33.216 87.3768 33.3333 87.1955 33.44C86.8648 33.6533 86.4808 33.824 86.0435 33.952C85.6062 34.0693 85.1582 34.128 84.6995 34.128ZM92.432 25.984C93.52 25.984 94.3253 26.256 94.848 26.8C95.3813 27.3333 95.648 28.1493 95.648 29.248V33.152C95.648 33.44 95.5627 33.6693 95.392 33.84C95.2213 34 94.9867 34.08 94.688 34.08C94.4107 34.08 94.1813 33.9947 94 33.824C93.8293 33.6533 93.744 33.4293 93.744 33.152V32.8C93.5627 33.216 93.2747 33.5413 92.88 33.776C92.496 34.0107 92.048 34.128 91.536 34.128C91.0133 34.128 90.5387 34.0213 90.112 33.808C89.6853 33.5947 89.3493 33.3013 89.104 32.928C88.8587 32.5547 88.736 32.1387 88.736 31.68C88.736 31.104 88.88 30.6507 89.168 30.32C89.4667 29.9893 89.9467 29.7493 90.608 29.6C91.2693 29.4507 92.1813 29.376 93.344 29.376H93.744V29.008C93.744 28.4853 93.632 28.1067 93.408 27.872C93.184 27.6267 92.8213 27.504 92.32 27.504C92.0107 27.504 91.696 27.552 91.376 27.648C91.056 27.7333 90.6773 27.8613 90.24 28.032C89.9627 28.1707 89.76 28.24 89.632 28.24C89.44 28.24 89.28 28.1707 89.152 28.032C89.0347 27.8933 88.976 27.712 88.976 27.488C88.976 27.3067 89.0187 27.152 89.104 27.024C89.2 26.8853 89.3547 26.7573 89.568 26.64C89.9413 26.4373 90.384 26.2773 90.896 26.16C91.4187 26.0427 91.9307 25.984 92.432 25.984ZM91.936 32.688C92.4693 32.688 92.9013 32.512 93.232 32.16C93.5733 31.7973 93.744 31.3333 93.744 30.768V30.432H93.456C92.7413 30.432 92.1867 30.464 91.792 30.528C91.3973 30.592 91.1147 30.704 90.944 30.864C90.7733 31.024 90.688 31.2427 90.688 31.52C90.688 31.8613 90.8053 32.144 91.04 32.368C91.2853 32.5813 91.584 32.688 91.936 32.688ZM102.225 25.984C103.163 25.984 103.862 26.2507 104.321 26.784C104.779 27.3173 105.009 28.1227 105.009 29.2V33.136C105.009 33.4347 104.918 33.6693 104.737 33.84C104.566 34.0107 104.326 34.096 104.017 34.096C103.707 34.096 103.462 34.0107 103.281 33.84C103.099 33.6693 103.009 33.4347 103.009 33.136V29.312C103.009 28.704 102.891 28.2613 102.657 27.984C102.433 27.7067 102.075 27.568 101.585 27.568C101.009 27.568 100.545 27.7493 100.193 28.112C99.8513 28.4747 99.6806 28.96 99.6806 29.568V33.136C99.6806 33.4347 99.59 33.6693 99.4086 33.84C99.2273 34.0107 98.982 34.096 98.6726 34.096C98.3633 34.096 98.118 34.0107 97.9366 33.84C97.766 33.6693 97.6806 33.4347 97.6806 33.136V26.944C97.6806 26.6667 97.7713 26.4427 97.9526 26.272C98.134 26.1013 98.3793 26.016 98.6886 26.016C98.966 26.016 99.19 26.1013 99.3606 26.272C99.542 26.432 99.6326 26.6453 99.6326 26.912V27.344C99.8993 26.9067 100.257 26.5707 100.705 26.336C101.153 26.1013 101.659 25.984 102.225 25.984ZM113.232 31.856C113.413 31.856 113.557 31.9253 113.664 32.064C113.781 32.2027 113.84 32.3893 113.84 32.624C113.84 32.9547 113.643 33.232 113.248 33.456C112.885 33.6587 112.475 33.824 112.016 33.952C111.557 34.0693 111.12 34.128 110.704 34.128C109.445 34.128 108.448 33.7653 107.712 33.04C106.976 32.3147 106.608 31.3227 106.608 30.064C106.608 29.264 106.768 28.5547 107.088 27.936C107.408 27.3173 107.856 26.8373 108.432 26.496C109.019 26.1547 109.68 25.984 110.416 25.984C111.12 25.984 111.733 26.1387 112.256 26.448C112.779 26.7573 113.184 27.1947 113.472 27.76C113.76 28.3253 113.904 28.992 113.904 29.76C113.904 30.2187 113.701 30.448 113.296 30.448H108.576C108.64 31.184 108.848 31.728 109.2 32.08C109.552 32.4213 110.064 32.592 110.736 32.592C111.077 32.592 111.376 32.5493 111.632 32.464C111.899 32.3787 112.197 32.2613 112.528 32.112C112.848 31.9413 113.083 31.856 113.232 31.856ZM110.464 27.392C109.92 27.392 109.483 27.5627 109.152 27.904C108.832 28.2453 108.64 28.736 108.576 29.376H112.192C112.171 28.7253 112.011 28.2347 111.712 27.904C111.413 27.5627 110.997 27.392 110.464 27.392ZM118.932 25.984C120.02 25.984 120.825 26.256 121.348 26.8C121.881 27.3333 122.148 28.1493 122.148 29.248V33.152C122.148 33.44 122.063 33.6693 121.892 33.84C121.721 34 121.487 34.08 121.188 34.08C120.911 34.08 120.681 33.9947 120.5 33.824C120.329 33.6533 120.244 33.4293 120.244 33.152V32.8C120.063 33.216 119.775 33.5413 119.38 33.776C118.996 34.0107 118.548 34.128 118.036 34.128C117.513 34.128 117.039 34.0213 116.612 33.808C116.185 33.5947 115.849 33.3013 115.604 32.928C115.359 32.5547 115.236 32.1387 115.236 31.68C115.236 31.104 115.38 30.6507 115.668 30.32C115.967 29.9893 116.447 29.7493 117.108 29.6C117.769 29.4507 118.681 29.376 119.844 29.376H120.244V29.008C120.244 28.4853 120.132 28.1067 119.908 27.872C119.684 27.6267 119.321 27.504 118.82 27.504C118.511 27.504 118.196 27.552 117.876 27.648C117.556 27.7333 117.177 27.8613 116.74 28.032C116.463 28.1707 116.26 28.24 116.132 28.24C115.94 28.24 115.78 28.1707 115.652 28.032C115.535 27.8933 115.476 27.712 115.476 27.488C115.476 27.3067 115.519 27.152 115.604 27.024C115.7 26.8853 115.855 26.7573 116.068 26.64C116.441 26.4373 116.884 26.2773 117.396 26.16C117.919 26.0427 118.431 25.984 118.932 25.984ZM118.436 32.688C118.969 32.688 119.401 32.512 119.732 32.16C120.073 31.7973 120.244 31.3333 120.244 30.768V30.432H119.956C119.241 30.432 118.687 30.464 118.292 30.528C117.897 30.592 117.615 30.704 117.444 30.864C117.273 31.024 117.188 31.2427 117.188 31.52C117.188 31.8613 117.305 32.144 117.54 32.368C117.785 32.5813 118.084 32.688 118.436 32.688ZM128.725 25.984C129.663 25.984 130.362 26.2507 130.821 26.784C131.279 27.3173 131.509 28.1227 131.509 29.2V33.136C131.509 33.4347 131.418 33.6693 131.237 33.84C131.066 34.0107 130.826 34.096 130.517 34.096C130.207 34.096 129.962 34.0107 129.781 33.84C129.599 33.6693 129.509 33.4347 129.509 33.136V29.312C129.509 28.704 129.391 28.2613 129.157 27.984C128.933 27.7067 128.575 27.568 128.085 27.568C127.509 27.568 127.045 27.7493 126.693 28.112C126.351 28.4747 126.181 28.96 126.181 29.568V33.136C126.181 33.4347 126.09 33.6693 125.909 33.84C125.727 34.0107 125.482 34.096 125.173 34.096C124.863 34.096 124.618 34.0107 124.437 33.84C124.266 33.6693 124.181 33.4347 124.181 33.136V26.944C124.181 26.6667 124.271 26.4427 124.453 26.272C124.634 26.1013 124.879 26.016 125.189 26.016C125.466 26.016 125.69 26.1013 125.861 26.272C126.042 26.432 126.133 26.6453 126.133 26.912V27.344C126.399 26.9067 126.757 26.5707 127.205 26.336C127.653 26.1013 128.159 25.984 128.725 25.984ZM140.068 22.64C140.367 22.64 140.612 22.7253 140.804 22.896C140.996 23.0667 141.092 23.2907 141.092 23.568V33.136C141.092 33.424 141.001 33.6533 140.82 33.824C140.639 33.9947 140.399 34.08 140.1 34.08C139.801 34.08 139.561 33.9947 139.38 33.824C139.199 33.6533 139.108 33.424 139.108 33.136V32.736C138.873 33.1733 138.532 33.5147 138.084 33.76C137.647 34.0053 137.145 34.128 136.58 34.128C135.908 34.128 135.305 33.9573 134.772 33.616C134.249 33.2747 133.839 32.7947 133.54 32.176C133.252 31.5467 133.108 30.8267 133.108 30.016C133.108 29.2053 133.252 28.496 133.54 27.888C133.839 27.28 134.249 26.8107 134.772 26.48C135.295 26.1493 135.897 25.984 136.58 25.984C137.145 25.984 137.647 26.1013 138.084 26.336C138.521 26.5707 138.857 26.9013 139.092 27.328V23.536C139.092 23.2693 139.177 23.056 139.348 22.896C139.529 22.7253 139.769 22.64 140.068 22.64ZM137.108 32.576C137.748 32.576 138.239 32.3573 138.58 31.92C138.932 31.4827 139.108 30.8587 139.108 30.048C139.108 29.2373 138.932 28.6187 138.58 28.192C138.239 27.7547 137.753 27.536 137.124 27.536C136.484 27.536 135.988 27.7493 135.636 28.176C135.284 28.6027 135.108 29.216 135.108 30.016C135.108 30.8267 135.284 31.456 135.636 31.904C135.988 32.352 136.479 32.576 137.108 32.576ZM146.717 34.128C145.917 34.128 145.213 33.9627 144.605 33.632C144.008 33.3013 143.544 32.8267 143.213 32.208C142.883 31.5893 142.717 30.8693 142.717 30.048C142.717 29.2267 142.883 28.512 143.213 27.904C143.544 27.2853 144.008 26.8107 144.605 26.48C145.213 26.1493 145.917 25.984 146.717 25.984C147.517 25.984 148.216 26.1493 148.813 26.48C149.421 26.8107 149.885 27.2853 150.205 27.904C150.536 28.512 150.701 29.2267 150.701 30.048C150.701 30.8693 150.536 31.5893 150.205 32.208C149.885 32.8267 149.421 33.3013 148.813 33.632C148.216 33.9627 147.517 34.128 146.717 34.128ZM146.701 32.576C147.352 32.576 147.848 32.3627 148.189 31.936C148.531 31.5093 148.701 30.88 148.701 30.048C148.701 29.2267 148.531 28.6027 148.189 28.176C147.848 27.7387 147.357 27.52 146.717 27.52C146.077 27.52 145.581 27.7387 145.229 28.176C144.888 28.6027 144.717 29.2267 144.717 30.048C144.717 30.88 144.888 31.5093 145.229 31.936C145.571 32.3627 146.061 32.576 146.701 32.576ZM162.888 31.856C163.07 31.856 163.214 31.9253 163.32 32.064C163.438 32.2027 163.496 32.3893 163.496 32.624C163.496 32.9547 163.299 33.232 162.904 33.456C162.542 33.6587 162.131 33.824 161.672 33.952C161.214 34.0693 160.776 34.128 160.36 34.128C159.102 34.128 158.104 33.7653 157.368 33.04C156.632 32.3147 156.264 31.3227 156.264 30.064C156.264 29.264 156.424 28.5547 156.744 27.936C157.064 27.3173 157.512 26.8373 158.088 26.496C158.675 26.1547 159.336 25.984 160.072 25.984C160.776 25.984 161.39 26.1387 161.912 26.448C162.435 26.7573 162.84 27.1947 163.128 27.76C163.416 28.3253 163.56 28.992 163.56 29.76C163.56 30.2187 163.358 30.448 162.952 30.448H158.232C158.296 31.184 158.504 31.728 158.856 32.08C159.208 32.4213 159.72 32.592 160.392 32.592C160.734 32.592 161.032 32.5493 161.288 32.464C161.555 32.3787 161.854 32.2613 162.184 32.112C162.504 31.9413 162.739 31.856 162.888 31.856ZM160.12 27.392C159.576 27.392 159.139 27.5627 158.808 27.904C158.488 28.2453 158.296 28.736 158.232 29.376H161.848C161.827 28.7253 161.667 28.2347 161.368 27.904C161.07 27.5627 160.654 27.392 160.12 27.392ZM166.188 34.096C165.9 34.096 165.66 34.016 165.468 33.856C165.287 33.6853 165.196 33.4453 165.196 33.136V23.584C165.196 23.2747 165.287 23.04 165.468 22.88C165.66 22.72 165.9 22.64 166.188 22.64C166.476 22.64 166.716 22.72 166.908 22.88C167.1 23.04 167.196 23.2747 167.196 23.584V33.136C167.196 33.4453 167.1 33.6853 166.908 33.856C166.716 34.016 166.476 34.096 166.188 34.096ZM177.075 34.128C176.296 34.128 175.608 33.9627 175.011 33.632C174.424 33.3013 173.971 32.832 173.651 32.224C173.331 31.616 173.171 30.9067 173.171 30.096C173.171 29.2853 173.336 28.5707 173.667 27.952C174.008 27.3227 174.483 26.8373 175.091 26.496C175.699 26.1547 176.397 25.984 177.187 25.984C177.603 25.984 178.019 26.0427 178.435 26.16C178.861 26.2773 179.235 26.4373 179.555 26.64C179.896 26.864 180.067 27.1467 180.067 27.488C180.067 27.7227 180.008 27.9147 179.891 28.064C179.784 28.2027 179.64 28.272 179.459 28.272C179.341 28.272 179.219 28.2453 179.091 28.192C178.963 28.1387 178.835 28.0747 178.707 28C178.472 27.8613 178.248 27.7547 178.035 27.68C177.821 27.5947 177.576 27.552 177.299 27.552C176.637 27.552 176.125 27.7707 175.763 28.208C175.411 28.6347 175.235 29.2533 175.235 30.064C175.235 30.864 175.411 31.4827 175.763 31.92C176.125 32.3467 176.637 32.56 177.299 32.56C177.565 32.56 177.8 32.5227 178.003 32.448C178.216 32.3627 178.451 32.2507 178.707 32.112C178.867 32.016 179.005 31.9467 179.123 31.904C179.24 31.8507 179.357 31.824 179.475 31.824C179.645 31.824 179.789 31.8987 179.907 32.048C180.024 32.1973 180.083 32.384 180.083 32.608C180.083 32.7893 180.04 32.9493 179.955 33.088C179.88 33.216 179.752 33.3333 179.571 33.44C179.24 33.6533 178.856 33.824 178.419 33.952C177.981 34.0693 177.533 34.128 177.075 34.128ZM184.983 34.128C184.183 34.128 183.479 33.9627 182.871 33.632C182.274 33.3013 181.81 32.8267 181.479 32.208C181.148 31.5893 180.983 30.8693 180.983 30.048C180.983 29.2267 181.148 28.512 181.479 27.904C181.81 27.2853 182.274 26.8107 182.871 26.48C183.479 26.1493 184.183 25.984 184.983 25.984C185.783 25.984 186.482 26.1493 187.079 26.48C187.687 26.8107 188.151 27.2853 188.471 27.904C188.802 28.512 188.967 29.2267 188.967 30.048C188.967 30.8693 188.802 31.5893 188.471 32.208C188.151 32.8267 187.687 33.3013 187.079 33.632C186.482 33.9627 185.783 34.128 184.983 34.128ZM184.967 32.576C185.618 32.576 186.114 32.3627 186.455 31.936C186.796 31.5093 186.967 30.88 186.967 30.048C186.967 29.2267 186.796 28.6027 186.455 28.176C186.114 27.7387 185.623 27.52 184.983 27.52C184.343 27.52 183.847 27.7387 183.495 28.176C183.154 28.6027 182.983 29.2267 182.983 30.048C182.983 30.88 183.154 31.5093 183.495 31.936C183.836 32.3627 184.327 32.576 184.967 32.576ZM185.383 25.104C185.266 25.1893 185.148 25.232 185.031 25.232C184.882 25.232 184.754 25.184 184.647 25.088C184.551 24.9813 184.503 24.8587 184.503 24.72C184.503 24.6027 184.546 24.4853 184.631 24.368L186.183 22.304C186.428 21.984 186.711 21.824 187.031 21.824C187.266 21.824 187.463 21.9093 187.623 22.08C187.794 22.24 187.879 22.432 187.879 22.656C187.879 22.9547 187.735 23.2107 187.447 23.424L185.383 25.104ZM197.146 22.64C197.445 22.64 197.69 22.7253 197.882 22.896C198.074 23.0667 198.17 23.2907 198.17 23.568V33.136C198.17 33.424 198.079 33.6533 197.898 33.824C197.717 33.9947 197.477 34.08 197.178 34.08C196.879 34.08 196.639 33.9947 196.458 33.824C196.277 33.6533 196.186 33.424 196.186 33.136V32.736C195.951 33.1733 195.61 33.5147 195.162 33.76C194.725 34.0053 194.223 34.128 193.658 34.128C192.986 34.128 192.383 33.9573 191.85 33.616C191.327 33.2747 190.917 32.7947 190.618 32.176C190.33 31.5467 190.186 30.8267 190.186 30.016C190.186 29.2053 190.33 28.496 190.618 27.888C190.917 27.28 191.327 26.8107 191.85 26.48C192.373 26.1493 192.975 25.984 193.658 25.984C194.223 25.984 194.725 26.1013 195.162 26.336C195.599 26.5707 195.935 26.9013 196.17 27.328V23.536C196.17 23.2693 196.255 23.056 196.426 22.896C196.607 22.7253 196.847 22.64 197.146 22.64ZM194.186 32.576C194.826 32.576 195.317 32.3573 195.658 31.92C196.01 31.4827 196.186 30.8587 196.186 30.048C196.186 29.2373 196.01 28.6187 195.658 28.192C195.317 27.7547 194.831 27.536 194.202 27.536C193.562 27.536 193.066 27.7493 192.714 28.176C192.362 28.6027 192.186 29.216 192.186 30.016C192.186 30.8267 192.362 31.456 192.714 31.904C193.066 32.352 193.557 32.576 194.186 32.576ZM201.22 34.096C200.932 34.096 200.692 34.016 200.5 33.856C200.318 33.6853 200.228 33.4453 200.228 33.136V26.96C200.228 26.6507 200.318 26.416 200.5 26.256C200.692 26.096 200.932 26.016 201.22 26.016C201.508 26.016 201.748 26.096 201.94 26.256C202.132 26.416 202.228 26.6507 202.228 26.96V33.136C202.228 33.4453 202.132 33.6853 201.94 33.856C201.748 34.016 201.508 34.096 201.22 34.096ZM201.22 24.592C200.857 24.592 200.569 24.496 200.356 24.304C200.142 24.1013 200.036 23.84 200.036 23.52C200.036 23.2 200.142 22.944 200.356 22.752C200.569 22.56 200.857 22.464 201.22 22.464C201.572 22.464 201.854 22.56 202.068 22.752C202.292 22.944 202.404 23.2 202.404 23.52C202.404 23.84 202.297 24.1013 202.084 24.304C201.87 24.496 201.582 24.592 201.22 24.592ZM210.914 26.016C211.213 26.016 211.453 26.1013 211.634 26.272C211.815 26.4427 211.906 26.672 211.906 26.96V33.28C211.906 34.5067 211.565 35.4347 210.882 36.064C210.199 36.6933 209.191 37.008 207.858 37.008C206.695 37.008 205.725 36.7893 204.946 36.352C204.551 36.1173 204.354 35.8347 204.354 35.504C204.354 35.2693 204.407 35.0827 204.514 34.944C204.631 34.8053 204.781 34.736 204.962 34.736C205.058 34.736 205.175 34.7573 205.314 34.8C205.453 34.8533 205.597 34.912 205.746 34.976C206.13 35.136 206.471 35.2587 206.77 35.344C207.079 35.4293 207.431 35.472 207.826 35.472C209.223 35.472 209.922 34.7893 209.922 33.424V32.4C209.687 32.8373 209.346 33.1787 208.898 33.424C208.45 33.6587 207.938 33.776 207.362 33.776C206.679 33.776 206.071 33.616 205.538 33.296C205.015 32.9653 204.605 32.5067 204.306 31.92C204.007 31.3333 203.858 30.656 203.858 29.888C203.858 29.12 204.002 28.4427 204.29 27.856C204.589 27.2587 205.005 26.8 205.538 26.48C206.071 26.1493 206.679 25.984 207.362 25.984C207.938 25.984 208.45 26.1067 208.898 26.352C209.346 26.5867 209.687 26.9227 209.922 27.36V26.944C209.922 26.6667 210.013 26.4427 210.194 26.272C210.375 26.1013 210.615 26.016 210.914 26.016ZM207.89 32.224C208.53 32.224 209.026 32.016 209.378 31.6C209.741 31.184 209.922 30.6133 209.922 29.888C209.922 29.152 209.741 28.576 209.378 28.16C209.026 27.744 208.53 27.536 207.89 27.536C207.261 27.536 206.765 27.744 206.402 28.16C206.039 28.576 205.858 29.152 205.858 29.888C205.858 30.6133 206.039 31.184 206.402 31.6C206.765 32.016 207.261 32.224 207.89 32.224ZM217.546 34.128C216.746 34.128 216.042 33.9627 215.434 33.632C214.836 33.3013 214.372 32.8267 214.042 32.208C213.711 31.5893 213.546 30.8693 213.546 30.048C213.546 29.2267 213.711 28.512 214.042 27.904C214.372 27.2853 214.836 26.8107 215.434 26.48C216.042 26.1493 216.746 25.984 217.546 25.984C218.346 25.984 219.044 26.1493 219.642 26.48C220.25 26.8107 220.714 27.2853 221.034 27.904C221.364 28.512 221.53 29.2267 221.53 30.048C221.53 30.8693 221.364 31.5893 221.034 32.208C220.714 32.8267 220.25 33.3013 219.642 33.632C219.044 33.9627 218.346 34.128 217.546 34.128ZM217.53 32.576C218.18 32.576 218.676 32.3627 219.018 31.936C219.359 31.5093 219.53 30.88 219.53 30.048C219.53 29.2267 219.359 28.6027 219.018 28.176C218.676 27.7387 218.186 27.52 217.546 27.52C216.906 27.52 216.41 27.7387 216.058 28.176C215.716 28.6027 215.546 29.2267 215.546 30.048C215.546 30.88 215.716 31.5093 216.058 31.936C216.399 32.3627 216.89 32.576 217.53 32.576ZM236.932 35.568C237.05 35.76 237.108 35.9467 237.108 36.128C237.108 36.3733 237.012 36.5707 236.82 36.72C236.628 36.88 236.404 36.96 236.148 36.96C235.956 36.96 235.775 36.912 235.604 36.816C235.434 36.7307 235.295 36.5973 235.188 36.416L234.244 34.864C234.095 34.6187 233.898 34.4373 233.652 34.32C233.418 34.2027 233.108 34.144 232.724 34.144C231.626 34.144 230.671 33.9093 229.86 33.44C229.06 32.9707 228.442 32.2987 228.004 31.424C227.567 30.5493 227.348 29.5253 227.348 28.352C227.348 27.1787 227.567 26.16 228.004 25.296C228.442 24.4213 229.06 23.7493 229.86 23.28C230.671 22.8107 231.626 22.576 232.724 22.576C233.812 22.576 234.756 22.8107 235.556 23.28C236.367 23.7493 236.991 24.4213 237.428 25.296C237.866 26.16 238.084 27.1787 238.084 28.352C238.084 29.6213 237.828 30.7147 237.316 31.632C236.815 32.5387 236.095 33.2 235.156 33.616C235.647 33.7867 236.052 34.1387 236.372 34.672L236.932 35.568ZM232.724 32.496C233.759 32.496 234.564 32.1387 235.14 31.424C235.727 30.7093 236.02 29.6853 236.02 28.352C236.02 27.0187 235.727 26 235.14 25.296C234.564 24.5813 233.759 24.224 232.724 24.224C231.679 24.224 230.863 24.5813 230.276 25.296C229.7 26 229.412 27.0187 229.412 28.352C229.412 29.6853 229.7 30.7093 230.276 31.424C230.863 32.1387 231.679 32.496 232.724 32.496ZM249.193 32.704C249.321 32.896 249.385 33.0827 249.385 33.264C249.385 33.5093 249.284 33.712 249.081 33.872C248.889 34.032 248.66 34.112 248.393 34.112C248.222 34.112 248.057 34.0747 247.897 34C247.748 33.9147 247.62 33.792 247.513 33.632L245.385 30.4C245.172 30.0587 244.942 29.8187 244.697 29.68C244.462 29.5413 244.153 29.472 243.769 29.472H242.201V33.056C242.201 33.376 242.11 33.632 241.929 33.824C241.748 34.0053 241.502 34.096 241.193 34.096C240.884 34.096 240.633 34.0053 240.441 33.824C240.26 33.632 240.169 33.376 240.169 33.056V23.696C240.169 23.3867 240.254 23.1467 240.425 22.976C240.606 22.8053 240.852 22.72 241.161 22.72H245.161C246.441 22.72 247.412 23.008 248.073 23.584C248.745 24.1493 249.081 24.9707 249.081 26.048C249.081 26.9227 248.83 27.6427 248.329 28.208C247.838 28.7627 247.14 29.12 246.233 29.28C246.542 29.3547 246.814 29.488 247.049 29.68C247.284 29.872 247.513 30.1387 247.737 30.48L249.193 32.704ZM244.873 27.888C245.652 27.888 246.222 27.744 246.585 27.456C246.948 27.1573 247.129 26.704 247.129 26.096C247.129 25.4773 246.948 25.0293 246.585 24.752C246.222 24.464 245.652 24.32 244.873 24.32H242.185V27.888H244.873Z" fill="#381A56"/>
<path d="M64.612 55C64.4907 55 64.3867 54.961 64.3 54.883C64.222 54.805 64.183 54.7097 64.183 54.597V46.238C64.183 46.1253 64.222 46.03 64.3 45.952C64.3867 45.874 64.4907 45.835 64.612 45.835H69.552C69.6647 45.835 69.7513 45.8653 69.812 45.926C69.8813 45.9867 69.916 46.0733 69.916 46.186C69.916 46.29 69.8813 46.3723 69.812 46.433C69.7513 46.4937 69.6647 46.524 69.552 46.524H64.976V49.995H69.292C69.4047 49.995 69.4913 50.0253 69.552 50.086C69.6213 50.1467 69.656 50.2333 69.656 50.346C69.656 50.4587 69.6213 50.5453 69.552 50.606C69.4913 50.6667 69.4047 50.697 69.292 50.697H64.976V54.311H69.552C69.6647 54.311 69.7513 54.3413 69.812 54.402C69.8813 54.454 69.916 54.5363 69.916 54.649C69.916 54.7617 69.8813 54.8483 69.812 54.909C69.7513 54.9697 69.6647 55 69.552 55H64.612ZM73.6093 55.091C73.2453 55.091 72.8857 55.0433 72.5303 54.948C72.1837 54.844 71.876 54.7053 71.6073 54.532C71.4427 54.4193 71.3257 54.324 71.2563 54.246C71.1957 54.1593 71.1653 54.064 71.1653 53.96C71.1653 53.8733 71.1913 53.7997 71.2433 53.739C71.304 53.6783 71.3733 53.648 71.4513 53.648C71.5293 53.648 71.6637 53.713 71.8543 53.843C72.1057 54.0077 72.3613 54.142 72.6213 54.246C72.89 54.35 73.2237 54.402 73.6223 54.402C74.1337 54.402 74.5323 54.311 74.8183 54.129C75.1043 53.9383 75.2473 53.6697 75.2473 53.323C75.2473 53.115 75.1953 52.946 75.0913 52.816C74.9873 52.6773 74.814 52.5603 74.5713 52.465C74.3287 52.361 73.982 52.2613 73.5313 52.166C72.76 51.9927 72.2097 51.7717 71.8803 51.503C71.5597 51.2257 71.3993 50.8573 71.3993 50.398C71.3993 49.8433 71.616 49.397 72.0493 49.059C72.4827 48.7123 73.046 48.539 73.7393 48.539C74.0773 48.539 74.398 48.5823 74.7013 48.669C75.0133 48.7557 75.282 48.8813 75.5073 49.046C75.8107 49.254 75.9623 49.4577 75.9623 49.657C75.9623 49.7437 75.932 49.8217 75.8713 49.891C75.8193 49.9517 75.7543 49.982 75.6763 49.982C75.5897 49.982 75.4553 49.9127 75.2733 49.774C75.0393 49.6093 74.8053 49.4793 74.5713 49.384C74.346 49.28 74.0557 49.228 73.7003 49.228C73.2497 49.228 72.89 49.332 72.6213 49.54C72.3527 49.7393 72.2183 50.0123 72.2183 50.359C72.2183 50.5583 72.2617 50.723 72.3483 50.853C72.4437 50.983 72.5997 51.1 72.8163 51.204C73.0417 51.2993 73.3623 51.3947 73.7783 51.49C74.3763 51.6287 74.8357 51.776 75.1563 51.932C75.477 52.088 75.7067 52.2743 75.8453 52.491C75.984 52.7077 76.0533 52.985 76.0533 53.323C76.0533 53.8517 75.828 54.2807 75.3773 54.61C74.9353 54.9307 74.346 55.091 73.6093 55.091ZM80.2983 55.091C79.7177 55.091 79.2063 54.9567 78.7643 54.688C78.3223 54.4193 77.98 54.038 77.7373 53.544C77.4947 53.05 77.3733 52.4823 77.3733 51.841C77.3733 51.191 77.4947 50.619 77.7373 50.125C77.9887 49.6223 78.3353 49.2323 78.7773 48.955C79.228 48.6777 79.7437 48.539 80.3243 48.539C80.6537 48.539 80.9743 48.5823 81.2863 48.669C81.5983 48.7557 81.8757 48.8857 82.1183 49.059C82.2743 49.1717 82.3827 49.2757 82.4433 49.371C82.5127 49.4577 82.5473 49.553 82.5473 49.657C82.5473 49.7523 82.5213 49.8303 82.4693 49.891C82.4173 49.9517 82.3523 49.982 82.2743 49.982C82.1877 49.982 82.049 49.9083 81.8583 49.761C81.633 49.5963 81.4077 49.4663 81.1823 49.371C80.957 49.2757 80.684 49.228 80.3633 49.228C79.6873 49.228 79.1587 49.462 78.7773 49.93C78.396 50.3893 78.2053 51.0263 78.2053 51.841C78.2053 52.647 78.3917 53.2753 78.7643 53.726C79.1457 54.168 79.6743 54.389 80.3503 54.389C80.6797 54.389 80.9527 54.3413 81.1693 54.246C81.3947 54.1507 81.6373 54.0207 81.8973 53.856C81.9753 53.804 82.049 53.7563 82.1183 53.713C82.1963 53.6697 82.257 53.648 82.3003 53.648C82.387 53.648 82.4563 53.6783 82.5083 53.739C82.5603 53.7997 82.5863 53.8733 82.5863 53.96C82.5863 54.064 82.556 54.155 82.4953 54.233C82.4347 54.311 82.3177 54.4107 82.1443 54.532C81.9103 54.7053 81.6243 54.844 81.2863 54.948C80.957 55.0433 80.6277 55.091 80.2983 55.091ZM86.4423 48.539C87.2049 48.539 87.7726 48.7383 88.1453 49.137C88.5266 49.5357 88.7173 50.138 88.7173 50.944V54.649C88.7173 54.7703 88.6826 54.87 88.6133 54.948C88.5439 55.0173 88.4486 55.052 88.3273 55.052C88.2059 55.052 88.1106 55.0173 88.0413 54.948C87.9719 54.87 87.9373 54.7703 87.9373 54.649V53.869C87.7553 54.259 87.4909 54.5623 87.1443 54.779C86.7976 54.987 86.3989 55.091 85.9483 55.091C85.5409 55.091 85.1683 55.0087 84.8303 54.844C84.5009 54.6793 84.2366 54.454 84.0373 54.168C83.8379 53.882 83.7383 53.5613 83.7383 53.206C83.7296 52.7293 83.8466 52.361 84.0893 52.101C84.3319 51.8323 84.7349 51.6417 85.2983 51.529C85.8616 51.4163 86.6503 51.36 87.6643 51.36H87.9373V50.879C87.9373 50.307 87.8203 49.891 87.5863 49.631C87.3523 49.3623 86.9839 49.228 86.4813 49.228C85.8399 49.228 85.2289 49.397 84.6483 49.735C84.6223 49.7523 84.5529 49.8 84.4403 49.878C84.3363 49.9473 84.2453 49.982 84.1673 49.982C84.0806 49.982 84.0069 49.9517 83.9463 49.891C83.8943 49.8217 83.8683 49.7393 83.8683 49.644C83.8683 49.4533 84.0199 49.267 84.3233 49.085C84.6266 48.9117 84.9646 48.7773 85.3373 48.682C85.7099 48.5867 86.0783 48.539 86.4423 48.539ZM86.0133 54.402C86.5766 54.402 87.0359 54.2113 87.3913 53.83C87.7553 53.4487 87.9373 52.9633 87.9373 52.374V51.945H87.6903C86.8583 51.945 86.2213 51.9797 85.7793 52.049C85.3373 52.1183 85.0253 52.2397 84.8433 52.413C84.6613 52.5777 84.5703 52.8203 84.5703 53.141C84.5703 53.505 84.7089 53.8083 84.9863 54.051C85.2636 54.285 85.6059 54.402 86.0133 54.402ZM93.74 48.539C95.2567 48.539 96.015 49.3537 96.015 50.983V54.662C96.015 54.7833 95.9804 54.883 95.911 54.961C95.8417 55.0303 95.7464 55.065 95.625 55.065C95.5037 55.065 95.404 55.0303 95.326 54.961C95.2567 54.883 95.222 54.7833 95.222 54.662V51.035C95.222 50.411 95.0964 49.956 94.845 49.67C94.5937 49.384 94.195 49.241 93.649 49.241C93.025 49.241 92.5224 49.4317 92.141 49.813C91.7684 50.1943 91.582 50.7057 91.582 51.347V54.662C91.582 54.7833 91.5474 54.883 91.478 54.961C91.4087 55.0303 91.3134 55.065 91.192 55.065C91.0707 55.065 90.971 55.0303 90.893 54.961C90.8237 54.883 90.789 54.7833 90.789 54.662V48.968C90.789 48.8467 90.8237 48.7513 90.893 48.682C90.971 48.604 91.0707 48.565 91.192 48.565C91.3047 48.565 91.3957 48.5997 91.465 48.669C91.5344 48.7383 91.569 48.8337 91.569 48.955V49.774C91.7684 49.3753 92.0544 49.072 92.427 48.864C92.8084 48.6473 93.246 48.539 93.74 48.539ZM102.912 53.648C102.99 53.648 103.055 53.6827 103.107 53.752C103.168 53.8127 103.198 53.8863 103.198 53.973C103.198 54.1637 103.051 54.35 102.756 54.532C102.132 54.9047 101.473 55.091 100.78 55.091C99.8181 55.091 99.0598 54.8007 98.5051 54.22C97.9505 53.6393 97.6731 52.842 97.6731 51.828C97.6731 51.178 97.7945 50.606 98.0371 50.112C98.2885 49.6093 98.6351 49.2237 99.0771 48.955C99.5278 48.6777 100.043 48.539 100.624 48.539C101.439 48.539 102.08 48.8033 102.548 49.332C103.025 49.852 103.263 50.5713 103.263 51.49C103.263 51.646 103.228 51.763 103.159 51.841C103.09 51.9103 102.977 51.945 102.821 51.945H98.4921C98.5181 52.7423 98.7261 53.349 99.1161 53.765C99.5061 54.181 100.056 54.389 100.767 54.389C101.14 54.389 101.452 54.3413 101.703 54.246C101.954 54.142 102.223 54.0077 102.509 53.843C102.7 53.713 102.834 53.648 102.912 53.648ZM100.624 49.189C100.017 49.189 99.5321 49.3797 99.1681 49.761C98.8041 50.1423 98.5875 50.6753 98.5181 51.36H102.535C102.518 50.6667 102.344 50.1337 102.015 49.761C101.686 49.3797 101.222 49.189 100.624 49.189ZM107.415 48.539C108.178 48.539 108.745 48.7383 109.118 49.137C109.499 49.5357 109.69 50.138 109.69 50.944V54.649C109.69 54.7703 109.655 54.87 109.586 54.948C109.517 55.0173 109.421 55.052 109.3 55.052C109.179 55.052 109.083 55.0173 109.014 54.948C108.945 54.87 108.91 54.7703 108.91 54.649V53.869C108.728 54.259 108.464 54.5623 108.117 54.779C107.77 54.987 107.372 55.091 106.921 55.091C106.514 55.091 106.141 55.0087 105.803 54.844C105.474 54.6793 105.209 54.454 105.01 54.168C104.811 53.882 104.711 53.5613 104.711 53.206C104.702 52.7293 104.819 52.361 105.062 52.101C105.305 51.8323 105.708 51.6417 106.271 51.529C106.834 51.4163 107.623 51.36 108.637 51.36H108.91V50.879C108.91 50.307 108.793 49.891 108.559 49.631C108.325 49.3623 107.957 49.228 107.454 49.228C106.813 49.228 106.202 49.397 105.621 49.735C105.595 49.7523 105.526 49.8 105.413 49.878C105.309 49.9473 105.218 49.982 105.14 49.982C105.053 49.982 104.98 49.9517 104.919 49.891C104.867 49.8217 104.841 49.7393 104.841 49.644C104.841 49.4533 104.993 49.267 105.296 49.085C105.599 48.9117 105.937 48.7773 106.31 48.682C106.683 48.5867 107.051 48.539 107.415 48.539ZM106.986 54.402C107.549 54.402 108.009 54.2113 108.364 53.83C108.728 53.4487 108.91 52.9633 108.91 52.374V51.945H108.663C107.831 51.945 107.194 51.9797 106.752 52.049C106.31 52.1183 105.998 52.2397 105.816 52.413C105.634 52.5777 105.543 52.8203 105.543 53.141C105.543 53.505 105.682 53.8083 105.959 54.051C106.236 54.285 106.579 54.402 106.986 54.402ZM119.873 53.648C119.951 53.648 120.016 53.6827 120.068 53.752C120.129 53.8127 120.159 53.8863 120.159 53.973C120.159 54.1637 120.012 54.35 119.717 54.532C119.093 54.9047 118.434 55.091 117.741 55.091C116.779 55.091 116.021 54.8007 115.466 54.22C114.911 53.6393 114.634 52.842 114.634 51.828C114.634 51.178 114.755 50.606 114.998 50.112C115.249 49.6093 115.596 49.2237 116.038 48.955C116.489 48.6777 117.004 48.539 117.585 48.539C118.4 48.539 119.041 48.8033 119.509 49.332C119.986 49.852 120.224 50.5713 120.224 51.49C120.224 51.646 120.189 51.763 120.12 51.841C120.051 51.9103 119.938 51.945 119.782 51.945H115.453C115.479 52.7423 115.687 53.349 116.077 53.765C116.467 54.181 117.017 54.389 117.728 54.389C118.101 54.389 118.413 54.3413 118.664 54.246C118.915 54.142 119.184 54.0077 119.47 53.843C119.661 53.713 119.795 53.648 119.873 53.648ZM117.585 49.189C116.978 49.189 116.493 49.3797 116.129 49.761C115.765 50.1423 115.548 50.6753 115.479 51.36H119.496C119.479 50.6667 119.305 50.1337 118.976 49.761C118.647 49.3797 118.183 49.189 117.585 49.189ZM122.283 55.065C122.162 55.065 122.062 55.0303 121.984 54.961C121.915 54.8917 121.88 54.792 121.88 54.662V46.173C121.88 46.043 121.915 45.9433 121.984 45.874C122.062 45.8047 122.162 45.77 122.283 45.77C122.396 45.77 122.487 45.8047 122.556 45.874C122.634 45.9433 122.673 46.043 122.673 46.173V54.662C122.673 54.792 122.634 54.8917 122.556 54.961C122.487 55.0303 122.396 55.065 122.283 55.065ZM130.559 55.091C129.978 55.091 129.467 54.9567 129.025 54.688C128.583 54.4193 128.241 54.038 127.998 53.544C127.755 53.05 127.634 52.4823 127.634 51.841C127.634 51.191 127.755 50.619 127.998 50.125C128.249 49.6223 128.596 49.2323 129.038 48.955C129.489 48.6777 130.004 48.539 130.585 48.539C130.914 48.539 131.235 48.5823 131.547 48.669C131.859 48.7557 132.136 48.8857 132.379 49.059C132.535 49.1717 132.643 49.2757 132.704 49.371C132.773 49.4577 132.808 49.553 132.808 49.657C132.808 49.7523 132.782 49.8303 132.73 49.891C132.678 49.9517 132.613 49.982 132.535 49.982C132.448 49.982 132.31 49.9083 132.119 49.761C131.894 49.5963 131.668 49.4663 131.443 49.371C131.218 49.2757 130.945 49.228 130.624 49.228C129.948 49.228 129.419 49.462 129.038 49.93C128.657 50.3893 128.466 51.0263 128.466 51.841C128.466 52.647 128.652 53.2753 129.025 53.726C129.406 54.168 129.935 54.389 130.611 54.389C130.94 54.389 131.213 54.3413 131.43 54.246C131.655 54.1507 131.898 54.0207 132.158 53.856C132.236 53.804 132.31 53.7563 132.379 53.713C132.457 53.6697 132.518 53.648 132.561 53.648C132.648 53.648 132.717 53.6783 132.769 53.739C132.821 53.7997 132.847 53.8733 132.847 53.96C132.847 54.064 132.817 54.155 132.756 54.233C132.695 54.311 132.578 54.4107 132.405 54.532C132.171 54.7053 131.885 54.844 131.547 54.948C131.218 55.0433 130.888 55.091 130.559 55.091ZM136.716 55.091C136.135 55.091 135.624 54.9567 135.182 54.688C134.749 54.4193 134.411 54.038 134.168 53.544C133.925 53.05 133.804 52.4737 133.804 51.815C133.804 51.1563 133.925 50.58 134.168 50.086C134.411 49.592 134.749 49.2107 135.182 48.942C135.624 48.6733 136.135 48.539 136.716 48.539C137.288 48.539 137.795 48.6733 138.237 48.942C138.679 49.2107 139.017 49.592 139.251 50.086C139.494 50.58 139.615 51.1563 139.615 51.815C139.615 52.4737 139.494 53.05 139.251 53.544C139.017 54.038 138.679 54.4193 138.237 54.688C137.795 54.9567 137.288 55.091 136.716 55.091ZM136.703 54.389C137.37 54.389 137.886 54.168 138.25 53.726C138.614 53.284 138.796 52.647 138.796 51.815C138.796 51.0003 138.61 50.3677 138.237 49.917C137.873 49.4577 137.366 49.228 136.716 49.228C136.057 49.228 135.546 49.4577 135.182 49.917C134.818 50.3677 134.636 51.0003 134.636 51.815C134.636 52.647 134.814 53.284 135.169 53.726C135.524 54.168 136.036 54.389 136.703 54.389ZM136.898 47.837C136.846 47.889 136.785 47.915 136.716 47.915C136.655 47.915 136.599 47.8933 136.547 47.85C136.504 47.8067 136.482 47.7547 136.482 47.694C136.482 47.642 136.504 47.5857 136.547 47.525L138.172 45.432C138.302 45.2587 138.454 45.172 138.627 45.172C138.74 45.172 138.835 45.211 138.913 45.289C138.991 45.3583 139.03 45.4493 139.03 45.562C139.03 45.7093 138.956 45.8523 138.809 45.991L136.898 47.837ZM146.257 45.77C146.378 45.77 146.474 45.809 146.543 45.887C146.621 45.9563 146.66 46.0517 146.66 46.173V54.649C146.66 54.7703 146.621 54.87 146.543 54.948C146.474 55.0173 146.378 55.052 146.257 55.052C146.136 55.052 146.04 55.0173 145.971 54.948C145.902 54.87 145.867 54.7703 145.867 54.649V53.791C145.676 54.2157 145.395 54.5407 145.022 54.766C144.649 54.9827 144.207 55.091 143.696 55.091C143.141 55.091 142.652 54.9567 142.227 54.688C141.802 54.4107 141.473 54.025 141.239 53.531C141.005 53.0283 140.888 52.4477 140.888 51.789C140.888 51.139 141.005 50.5713 141.239 50.086C141.473 49.592 141.802 49.2107 142.227 48.942C142.652 48.6733 143.141 48.539 143.696 48.539C144.207 48.539 144.649 48.6517 145.022 48.877C145.395 49.0937 145.676 49.4143 145.867 49.839V46.173C145.867 46.0517 145.902 45.9563 145.971 45.887C146.04 45.809 146.136 45.77 146.257 45.77ZM143.8 54.389C144.459 54.389 144.966 54.168 145.321 53.726C145.685 53.2753 145.867 52.6383 145.867 51.815C145.867 50.9917 145.689 50.3547 145.334 49.904C144.979 49.4533 144.472 49.228 143.813 49.228C143.146 49.228 142.63 49.4533 142.266 49.904C141.902 50.346 141.72 50.9743 141.72 51.789C141.72 52.6123 141.902 53.2537 142.266 53.713C142.63 54.1637 143.141 54.389 143.8 54.389ZM149.146 55.065C149.025 55.065 148.925 55.0303 148.847 54.961C148.778 54.8917 148.743 54.792 148.743 54.662V48.968C148.743 48.838 148.778 48.7383 148.847 48.669C148.925 48.5997 149.025 48.565 149.146 48.565C149.267 48.565 149.363 48.5997 149.432 48.669C149.501 48.7383 149.536 48.838 149.536 48.968V54.662C149.536 54.792 149.501 54.8917 149.432 54.961C149.363 55.0303 149.267 55.065 149.146 55.065ZM149.146 47.096C148.973 47.096 148.83 47.044 148.717 46.94C148.613 46.836 148.561 46.7017 148.561 46.537C148.561 46.3637 148.613 46.225 148.717 46.121C148.83 46.017 148.973 45.965 149.146 45.965C149.319 45.965 149.458 46.017 149.562 46.121C149.675 46.225 149.731 46.3637 149.731 46.537C149.731 46.7017 149.675 46.836 149.562 46.94C149.458 47.044 149.319 47.096 149.146 47.096ZM156.643 48.565C156.764 48.565 156.86 48.604 156.929 48.682C157.007 48.7513 157.046 48.8467 157.046 48.968V54.636C157.046 55.5547 156.816 56.248 156.357 56.716C155.906 57.1927 155.235 57.431 154.342 57.431C153.874 57.431 153.454 57.3833 153.081 57.288C152.717 57.2013 152.375 57.0627 152.054 56.872C151.742 56.6813 151.586 56.495 151.586 56.313C151.586 56.2177 151.612 56.1397 151.664 56.079C151.725 56.0183 151.798 55.988 151.885 55.988C151.937 55.988 152.006 56.0097 152.093 56.053C152.188 56.105 152.253 56.1397 152.288 56.157C152.583 56.3217 152.886 56.456 153.198 56.56C153.51 56.6727 153.896 56.729 154.355 56.729C154.988 56.729 155.464 56.56 155.785 56.222C156.106 55.884 156.266 55.3813 156.266 54.714V53.479C156.084 53.9037 155.802 54.233 155.421 54.467C155.048 54.6923 154.593 54.805 154.056 54.805C153.501 54.805 153.007 54.675 152.574 54.415C152.149 54.155 151.816 53.7867 151.573 53.31C151.339 52.8333 151.222 52.2873 151.222 51.672C151.222 51.0567 151.339 50.5107 151.573 50.034C151.816 49.5573 152.149 49.189 152.574 48.929C153.007 48.669 153.501 48.539 154.056 48.539C154.585 48.539 155.035 48.6517 155.408 48.877C155.781 49.0937 156.062 49.4143 156.253 49.839V48.968C156.253 48.8467 156.288 48.7513 156.357 48.682C156.426 48.604 156.522 48.565 156.643 48.565ZM154.16 54.103C154.819 54.103 155.33 53.8863 155.694 53.453C156.067 53.0197 156.253 52.426 156.253 51.672C156.253 50.918 156.067 50.3243 155.694 49.891C155.321 49.449 154.81 49.228 154.16 49.228C153.501 49.228 152.986 49.4447 152.613 49.878C152.24 50.3113 152.054 50.9093 152.054 51.672C152.054 52.4347 152.24 53.0327 152.613 53.466C152.986 53.8907 153.501 54.103 154.16 54.103ZM161.637 55.091C161.056 55.091 160.545 54.9567 160.103 54.688C159.67 54.4193 159.332 54.038 159.089 53.544C158.846 53.05 158.725 52.4737 158.725 51.815C158.725 51.1563 158.846 50.58 159.089 50.086C159.332 49.592 159.67 49.2107 160.103 48.942C160.545 48.6733 161.056 48.539 161.637 48.539C162.209 48.539 162.716 48.6733 163.158 48.942C163.6 49.2107 163.938 49.592 164.172 50.086C164.415 50.58 164.536 51.1563 164.536 51.815C164.536 52.4737 164.415 53.05 164.172 53.544C163.938 54.038 163.6 54.4193 163.158 54.688C162.716 54.9567 162.209 55.091 161.637 55.091ZM161.624 54.389C162.291 54.389 162.807 54.168 163.171 53.726C163.535 53.284 163.717 52.647 163.717 51.815C163.717 51.0003 163.531 50.3677 163.158 49.917C162.794 49.4577 162.287 49.228 161.637 49.228C160.978 49.228 160.467 49.4577 160.103 49.917C159.739 50.3677 159.557 51.0003 159.557 51.815C159.557 52.647 159.735 53.284 160.09 53.726C160.445 54.168 160.957 54.389 161.624 54.389ZM176.403 56.872C176.447 56.9587 176.468 57.028 176.468 57.08C176.468 57.1667 176.434 57.2403 176.364 57.301C176.295 57.3617 176.213 57.392 176.117 57.392C175.935 57.392 175.784 57.2967 175.662 57.106L174.921 55.897C174.592 55.3683 174.072 55.104 173.361 55.104C172.538 55.104 171.819 54.9177 171.203 54.545C170.588 54.1637 170.111 53.622 169.773 52.92C169.444 52.2093 169.279 51.3773 169.279 50.424C169.279 49.462 169.444 48.63 169.773 47.928C170.103 47.2173 170.575 46.6757 171.19 46.303C171.806 45.9217 172.529 45.731 173.361 45.731C174.202 45.731 174.93 45.9217 175.545 46.303C176.161 46.6757 176.633 47.213 176.962 47.915C177.292 48.617 177.456 49.449 177.456 50.411C177.456 51.5463 177.222 52.5083 176.754 53.297C176.286 54.077 175.632 54.6057 174.791 54.883C174.973 54.9437 175.138 55.0477 175.285 55.195C175.433 55.3423 175.584 55.546 175.74 55.806L176.403 56.872ZM170.111 50.411C170.111 51.6677 170.393 52.647 170.956 53.349C171.528 54.0423 172.33 54.389 173.361 54.389C174.393 54.389 175.194 54.0423 175.766 53.349C176.338 52.6557 176.624 51.6763 176.624 50.411C176.624 49.1457 176.338 48.1707 175.766 47.486C175.203 46.7927 174.401 46.446 173.361 46.446C172.33 46.446 171.528 46.7927 170.956 47.486C170.393 48.1793 170.111 49.1543 170.111 50.411ZM186.32 54.519C186.372 54.597 186.398 54.6707 186.398 54.74C186.398 54.8353 186.359 54.9177 186.281 54.987C186.212 55.0477 186.129 55.078 186.034 55.078C185.887 55.078 185.77 55.0087 185.683 54.87L183.928 52.062C183.677 51.6633 183.417 51.3903 183.148 51.243C182.888 51.0957 182.524 51.022 182.056 51.022H180.275V54.649C180.275 54.779 180.236 54.883 180.158 54.961C180.089 55.0303 179.993 55.065 179.872 55.065C179.751 55.065 179.651 55.0303 179.573 54.961C179.504 54.883 179.469 54.779 179.469 54.649V46.238C179.469 46.1253 179.508 46.03 179.586 45.952C179.673 45.874 179.777 45.835 179.898 45.835H183.135C184.097 45.835 184.838 46.056 185.358 46.498C185.878 46.9313 186.138 47.5683 186.138 48.409C186.138 49.1457 185.917 49.7307 185.475 50.164C185.033 50.5973 184.409 50.8487 183.603 50.918C183.811 50.9873 184.002 51.1043 184.175 51.269C184.348 51.425 184.526 51.646 184.708 51.932L186.32 54.519ZM183.083 50.333C184.591 50.333 185.345 49.6873 185.345 48.396C185.345 47.7633 185.159 47.2953 184.786 46.992C184.413 46.68 183.846 46.524 183.083 46.524H180.262V50.333H183.083ZM196.429 45.77C196.55 45.77 196.646 45.809 196.715 45.887C196.793 45.9563 196.832 46.0517 196.832 46.173V54.649C196.832 54.7703 196.793 54.87 196.715 54.948C196.646 55.0173 196.55 55.052 196.429 55.052C196.308 55.052 196.212 55.0173 196.143 54.948C196.074 54.87 196.039 54.7703 196.039 54.649V53.791C195.848 54.2157 195.567 54.5407 195.194 54.766C194.821 54.9827 194.379 55.091 193.868 55.091C193.313 55.091 192.824 54.9567 192.399 54.688C191.974 54.4107 191.645 54.025 191.411 53.531C191.177 53.0283 191.06 52.4477 191.06 51.789C191.06 51.139 191.177 50.5713 191.411 50.086C191.645 49.592 191.974 49.2107 192.399 48.942C192.824 48.6733 193.313 48.539 193.868 48.539C194.379 48.539 194.821 48.6517 195.194 48.877C195.567 49.0937 195.848 49.4143 196.039 49.839V46.173C196.039 46.0517 196.074 45.9563 196.143 45.887C196.212 45.809 196.308 45.77 196.429 45.77ZM193.972 54.389C194.631 54.389 195.138 54.168 195.493 53.726C195.857 53.2753 196.039 52.6383 196.039 51.815C196.039 50.9917 195.861 50.3547 195.506 49.904C195.151 49.4533 194.644 49.228 193.985 49.228C193.318 49.228 192.802 49.4533 192.438 49.904C192.074 50.346 191.892 50.9743 191.892 51.789C191.892 52.6123 192.074 53.2537 192.438 53.713C192.802 54.1637 193.313 54.389 193.972 54.389ZM203.751 53.648C203.829 53.648 203.894 53.6827 203.946 53.752C204.007 53.8127 204.037 53.8863 204.037 53.973C204.037 54.1637 203.89 54.35 203.595 54.532C202.971 54.9047 202.312 55.091 201.619 55.091C200.657 55.091 199.899 54.8007 199.344 54.22C198.789 53.6393 198.512 52.842 198.512 51.828C198.512 51.178 198.633 50.606 198.876 50.112C199.127 49.6093 199.474 49.2237 199.916 48.955C200.367 48.6777 200.882 48.539 201.463 48.539C202.278 48.539 202.919 48.8033 203.387 49.332C203.864 49.852 204.102 50.5713 204.102 51.49C204.102 51.646 204.067 51.763 203.998 51.841C203.929 51.9103 203.816 51.945 203.66 51.945H199.331C199.357 52.7423 199.565 53.349 199.955 53.765C200.345 54.181 200.895 54.389 201.606 54.389C201.979 54.389 202.291 54.3413 202.542 54.246C202.793 54.142 203.062 54.0077 203.348 53.843C203.539 53.713 203.673 53.648 203.751 53.648ZM201.463 49.189C200.856 49.189 200.371 49.3797 200.007 49.761C199.643 50.1423 199.426 50.6753 199.357 51.36H203.374C203.357 50.6667 203.183 50.1337 202.854 49.761C202.525 49.3797 202.061 49.189 201.463 49.189ZM206.161 55.065C206.039 55.065 205.94 55.0303 205.862 54.961C205.792 54.8917 205.758 54.792 205.758 54.662V46.173C205.758 46.043 205.792 45.9433 205.862 45.874C205.94 45.8047 206.039 45.77 206.161 45.77C206.273 45.77 206.364 45.8047 206.434 45.874C206.512 45.9433 206.551 46.043 206.551 46.173V54.662C206.551 54.792 206.512 54.8917 206.434 54.961C206.364 55.0303 206.273 55.065 206.161 55.065ZM216.751 53.648C216.829 53.648 216.894 53.6827 216.946 53.752C217.007 53.8127 217.037 53.8863 217.037 53.973C217.037 54.1637 216.89 54.35 216.595 54.532C215.971 54.9047 215.312 55.091 214.619 55.091C213.657 55.091 212.899 54.8007 212.344 54.22C211.789 53.6393 211.512 52.842 211.512 51.828C211.512 51.178 211.633 50.606 211.876 50.112C212.127 49.6093 212.474 49.2237 212.916 48.955C213.367 48.6777 213.882 48.539 214.463 48.539C215.278 48.539 215.919 48.8033 216.387 49.332C216.864 49.852 217.102 50.5713 217.102 51.49C217.102 51.646 217.067 51.763 216.998 51.841C216.929 51.9103 216.816 51.945 216.66 51.945H212.331C212.357 52.7423 212.565 53.349 212.955 53.765C213.345 54.181 213.895 54.389 214.606 54.389C214.979 54.389 215.291 54.3413 215.542 54.246C215.793 54.142 216.062 54.0077 216.348 53.843C216.539 53.713 216.673 53.648 216.751 53.648ZM214.463 49.189C213.856 49.189 213.371 49.3797 213.007 49.761C212.643 50.1423 212.426 50.6753 212.357 51.36H216.374C216.357 50.6667 216.183 50.1337 215.854 49.761C215.525 49.3797 215.061 49.189 214.463 49.189ZM220.799 55.091C220.435 55.091 220.075 55.0433 219.72 54.948C219.373 54.844 219.065 54.7053 218.797 54.532C218.632 54.4193 218.515 54.324 218.446 54.246C218.385 54.1593 218.355 54.064 218.355 53.96C218.355 53.8733 218.381 53.7997 218.433 53.739C218.493 53.6783 218.563 53.648 218.641 53.648C218.719 53.648 218.853 53.713 219.044 53.843C219.295 54.0077 219.551 54.142 219.811 54.246C220.079 54.35 220.413 54.402 220.812 54.402C221.323 54.402 221.722 54.311 222.008 54.129C222.294 53.9383 222.437 53.6697 222.437 53.323C222.437 53.115 222.385 52.946 222.281 52.816C222.177 52.6773 222.003 52.5603 221.761 52.465C221.518 52.361 221.171 52.2613 220.721 52.166C219.949 51.9927 219.399 51.7717 219.07 51.503C218.749 51.2257 218.589 50.8573 218.589 50.398C218.589 49.8433 218.805 49.397 219.239 49.059C219.672 48.7123 220.235 48.539 220.929 48.539C221.267 48.539 221.587 48.5823 221.891 48.669C222.203 48.7557 222.471 48.8813 222.697 49.046C223 49.254 223.152 49.4577 223.152 49.657C223.152 49.7437 223.121 49.8217 223.061 49.891C223.009 49.9517 222.944 49.982 222.866 49.982C222.779 49.982 222.645 49.9127 222.463 49.774C222.229 49.6093 221.995 49.4793 221.761 49.384C221.535 49.28 221.245 49.228 220.89 49.228C220.439 49.228 220.079 49.332 219.811 49.54C219.542 49.7393 219.408 50.0123 219.408 50.359C219.408 50.5583 219.451 50.723 219.538 50.853C219.633 50.983 219.789 51.1 220.006 51.204C220.231 51.2993 220.552 51.3947 220.968 51.49C221.566 51.6287 222.025 51.776 222.346 51.932C222.666 52.088 222.896 52.2743 223.035 52.491C223.173 52.7077 223.243 52.985 223.243 53.323C223.243 53.8517 223.017 54.2807 222.567 54.61C222.125 54.9307 221.535 55.091 220.799 55.091ZM227.645 54.402C227.888 54.428 228.009 54.5407 228.009 54.74C228.009 54.844 227.97 54.9263 227.892 54.987C227.814 55.0477 227.689 55.0737 227.515 55.065L227.151 55.039C226.493 54.9957 226.003 54.7963 225.682 54.441C225.37 54.077 225.214 53.5267 225.214 52.79V49.332H224.226C224.122 49.332 224.04 49.306 223.979 49.254C223.919 49.1933 223.888 49.1153 223.888 49.02C223.888 48.9247 223.919 48.8467 223.979 48.786C224.04 48.7253 224.122 48.695 224.226 48.695H225.214V47.083C225.214 46.953 225.249 46.8533 225.318 46.784C225.388 46.7147 225.483 46.68 225.604 46.68C225.726 46.68 225.821 46.7147 225.89 46.784C225.968 46.8533 226.007 46.953 226.007 47.083V48.695H227.58C227.693 48.695 227.78 48.7253 227.84 48.786C227.901 48.8467 227.931 48.9247 227.931 49.02C227.931 49.1153 227.901 49.1933 227.84 49.254C227.78 49.306 227.693 49.332 227.58 49.332H226.007V52.829C226.007 53.3663 226.111 53.752 226.319 53.986C226.527 54.2113 226.852 54.3413 227.294 54.376L227.645 54.402ZM231.651 48.539C232.414 48.539 232.982 48.7383 233.354 49.137C233.736 49.5357 233.926 50.138 233.926 50.944V54.649C233.926 54.7703 233.892 54.87 233.822 54.948C233.753 55.0173 233.658 55.052 233.536 55.052C233.415 55.052 233.32 55.0173 233.25 54.948C233.181 54.87 233.146 54.7703 233.146 54.649V53.869C232.964 54.259 232.7 54.5623 232.353 54.779C232.007 54.987 231.608 55.091 231.157 55.091C230.75 55.091 230.377 55.0087 230.039 54.844C229.71 54.6793 229.446 54.454 229.246 54.168C229.047 53.882 228.947 53.5613 228.947 53.206C228.939 52.7293 229.056 52.361 229.298 52.101C229.541 51.8323 229.944 51.6417 230.507 51.529C231.071 51.4163 231.859 51.36 232.873 51.36H233.146V50.879C233.146 50.307 233.029 49.891 232.795 49.631C232.561 49.3623 232.193 49.228 231.69 49.228C231.049 49.228 230.438 49.397 229.857 49.735C229.831 49.7523 229.762 49.8 229.649 49.878C229.545 49.9473 229.454 49.982 229.376 49.982C229.29 49.982 229.216 49.9517 229.155 49.891C229.103 49.8217 229.077 49.7393 229.077 49.644C229.077 49.4533 229.229 49.267 229.532 49.085C229.836 48.9117 230.174 48.7773 230.546 48.682C230.919 48.5867 231.287 48.539 231.651 48.539ZM231.222 54.402C231.786 54.402 232.245 54.2113 232.6 53.83C232.964 53.4487 233.146 52.9633 233.146 52.374V51.945H232.899C232.067 51.945 231.43 51.9797 230.988 52.049C230.546 52.1183 230.234 52.2397 230.052 52.413C229.87 52.5777 229.779 52.8203 229.779 53.141C229.779 53.505 229.918 53.8083 230.195 54.051C230.473 54.285 230.815 54.402 231.222 54.402ZM238.962 48.539C239.517 48.539 240.006 48.6733 240.431 48.942C240.856 49.2107 241.185 49.592 241.419 50.086C241.653 50.5713 241.77 51.139 241.77 51.789C241.77 52.4477 241.653 53.0283 241.419 53.531C241.185 54.025 240.856 54.4107 240.431 54.688C240.006 54.9567 239.517 55.091 238.962 55.091C238.451 55.091 238.009 54.9827 237.636 54.766C237.263 54.5407 236.982 54.2157 236.791 53.791V54.649C236.791 54.7703 236.756 54.87 236.687 54.948C236.618 55.0173 236.522 55.052 236.401 55.052C236.28 55.052 236.18 55.0173 236.102 54.948C236.033 54.87 235.998 54.7703 235.998 54.649V46.173C235.998 46.0517 236.033 45.9563 236.102 45.887C236.18 45.809 236.28 45.77 236.401 45.77C236.522 45.77 236.618 45.809 236.687 45.887C236.756 45.9563 236.791 46.0517 236.791 46.173V49.839C236.982 49.4143 237.263 49.0937 237.636 48.877C238.009 48.6517 238.451 48.539 238.962 48.539ZM238.858 54.389C239.517 54.389 240.028 54.1593 240.392 53.7C240.765 53.2407 240.951 52.6037 240.951 51.789C240.951 50.9743 240.765 50.346 240.392 49.904C240.028 49.4533 239.512 49.228 238.845 49.228C238.186 49.228 237.679 49.4533 237.324 49.904C236.969 50.3547 236.791 50.9917 236.791 51.815C236.791 52.6383 236.969 53.2753 237.324 53.726C237.688 54.168 238.199 54.389 238.858 54.389ZM243.853 55.065C243.732 55.065 243.632 55.0303 243.554 54.961C243.485 54.8917 243.45 54.792 243.45 54.662V46.173C243.45 46.043 243.485 45.9433 243.554 45.874C243.632 45.8047 243.732 45.77 243.853 45.77C243.966 45.77 244.057 45.8047 244.126 45.874C244.204 45.9433 244.243 46.043 244.243 46.173V54.662C244.243 54.792 244.204 54.8917 244.126 54.961C244.057 55.0303 243.966 55.065 243.853 55.065ZM251.168 53.648C251.246 53.648 251.311 53.6827 251.363 53.752C251.424 53.8127 251.454 53.8863 251.454 53.973C251.454 54.1637 251.307 54.35 251.012 54.532C250.388 54.9047 249.729 55.091 249.036 55.091C248.074 55.091 247.316 54.8007 246.761 54.22C246.206 53.6393 245.929 52.842 245.929 51.828C245.929 51.178 246.05 50.606 246.293 50.112C246.544 49.6093 246.891 49.2237 247.333 48.955C247.784 48.6777 248.299 48.539 248.88 48.539C249.695 48.539 250.336 48.8033 250.804 49.332C251.281 49.852 251.519 50.5713 251.519 51.49C251.519 51.646 251.484 51.763 251.415 51.841C251.346 51.9103 251.233 51.945 251.077 51.945H246.748C246.774 52.7423 246.982 53.349 247.372 53.765C247.762 54.181 248.312 54.389 249.023 54.389C249.396 54.389 249.708 54.3413 249.959 54.246C250.21 54.142 250.479 54.0077 250.765 53.843C250.956 53.713 251.09 53.648 251.168 53.648ZM248.88 49.189C248.273 49.189 247.788 49.3797 247.424 49.761C247.06 50.1423 246.843 50.6753 246.774 51.36H250.791C250.774 50.6667 250.6 50.1337 250.271 49.761C249.942 49.3797 249.478 49.189 248.88 49.189ZM255.697 55.091C255.116 55.091 254.605 54.9567 254.163 54.688C253.721 54.4193 253.378 54.038 253.136 53.544C252.893 53.05 252.772 52.4823 252.772 51.841C252.772 51.191 252.893 50.619 253.136 50.125C253.387 49.6223 253.734 49.2323 254.176 48.955C254.626 48.6777 255.142 48.539 255.723 48.539C256.052 48.539 256.373 48.5823 256.685 48.669C256.997 48.7557 257.274 48.8857 257.517 49.059C257.673 49.1717 257.781 49.2757 257.842 49.371C257.911 49.4577 257.946 49.553 257.946 49.657C257.946 49.7523 257.92 49.8303 257.868 49.891C257.816 49.9517 257.751 49.982 257.673 49.982C257.586 49.982 257.447 49.9083 257.257 49.761C257.031 49.5963 256.806 49.4663 256.581 49.371C256.355 49.2757 256.082 49.228 255.762 49.228C255.086 49.228 254.557 49.462 254.176 49.93C253.794 50.3893 253.604 51.0263 253.604 51.841C253.604 52.647 253.79 53.2753 254.163 53.726C254.544 54.168 255.073 54.389 255.749 54.389C256.078 54.389 256.351 54.3413 256.568 54.246C256.793 54.1507 257.036 54.0207 257.296 53.856C257.374 53.804 257.447 53.7563 257.517 53.713C257.595 53.6697 257.655 53.648 257.699 53.648C257.785 53.648 257.855 53.6783 257.907 53.739C257.959 53.7997 257.985 53.8733 257.985 53.96C257.985 54.064 257.954 54.155 257.894 54.233C257.833 54.311 257.716 54.4107 257.543 54.532C257.309 54.7053 257.023 54.844 256.685 54.948C256.355 55.0433 256.026 55.091 255.697 55.091ZM259.748 55.065C259.626 55.065 259.527 55.0303 259.449 54.961C259.379 54.8917 259.345 54.792 259.345 54.662V48.968C259.345 48.838 259.379 48.7383 259.449 48.669C259.527 48.5997 259.626 48.565 259.748 48.565C259.869 48.565 259.964 48.5997 260.034 48.669C260.103 48.7383 260.138 48.838 260.138 48.968V54.662C260.138 54.792 260.103 54.8917 260.034 54.961C259.964 55.0303 259.869 55.065 259.748 55.065ZM259.748 47.096C259.574 47.096 259.431 47.044 259.319 46.94C259.215 46.836 259.163 46.7017 259.163 46.537C259.163 46.3637 259.215 46.225 259.319 46.121C259.431 46.017 259.574 45.965 259.748 45.965C259.921 45.965 260.06 46.017 260.164 46.121C260.276 46.225 260.333 46.3637 260.333 46.537C260.333 46.7017 260.276 46.836 260.164 46.94C260.06 47.044 259.921 47.096 259.748 47.096ZM269.039 48.539C270.434 48.539 271.132 49.3537 271.132 50.983V54.662C271.132 54.7833 271.097 54.883 271.028 54.961C270.958 55.0303 270.863 55.065 270.742 55.065C270.62 55.065 270.521 55.0303 270.443 54.961C270.373 54.883 270.339 54.7833 270.339 54.662V51.035C270.339 50.4023 270.226 49.9473 270.001 49.67C269.775 49.384 269.416 49.241 268.922 49.241C268.358 49.241 267.908 49.4317 267.57 49.813C267.24 50.1943 267.076 50.7057 267.076 51.347V54.662C267.076 54.7833 267.041 54.883 266.972 54.961C266.902 55.0303 266.807 55.065 266.686 55.065C266.564 55.065 266.465 55.0303 266.387 54.961C266.317 54.883 266.283 54.7833 266.283 54.662V51.035C266.283 50.4023 266.17 49.9473 265.945 49.67C265.719 49.384 265.36 49.241 264.866 49.241C264.302 49.241 263.852 49.4317 263.514 49.813C263.184 50.1943 263.02 50.7057 263.02 51.347V54.662C263.02 54.7833 262.985 54.883 262.916 54.961C262.846 55.0303 262.751 55.065 262.63 55.065C262.508 55.065 262.409 55.0303 262.331 54.961C262.261 54.883 262.227 54.7833 262.227 54.662V48.968C262.227 48.838 262.261 48.7383 262.331 48.669C262.409 48.5997 262.508 48.565 262.63 48.565C262.751 48.565 262.842 48.5997 262.903 48.669C262.972 48.7383 263.007 48.8337 263.007 48.955V49.735C263.189 49.345 263.449 49.0503 263.787 48.851C264.133 48.643 264.532 48.539 264.983 48.539C265.979 48.539 266.625 48.955 266.92 49.787C267.102 49.397 267.379 49.0937 267.752 48.877C268.124 48.6517 268.553 48.539 269.039 48.539ZM273.586 55.065C273.464 55.065 273.365 55.0303 273.287 54.961C273.217 54.8917 273.183 54.792 273.183 54.662V48.968C273.183 48.838 273.217 48.7383 273.287 48.669C273.365 48.5997 273.464 48.565 273.586 48.565C273.707 48.565 273.802 48.5997 273.872 48.669C273.941 48.7383 273.976 48.838 273.976 48.968V54.662C273.976 54.792 273.941 54.8917 273.872 54.961C273.802 55.0303 273.707 55.065 273.586 55.065ZM273.586 47.096C273.412 47.096 273.269 47.044 273.157 46.94C273.053 46.836 273.001 46.7017 273.001 46.537C273.001 46.3637 273.053 46.225 273.157 46.121C273.269 46.017 273.412 45.965 273.586 45.965C273.759 45.965 273.898 46.017 274.002 46.121C274.114 46.225 274.171 46.3637 274.171 46.537C274.171 46.7017 274.114 46.836 274.002 46.94C273.898 47.044 273.759 47.096 273.586 47.096ZM280.9 53.648C280.978 53.648 281.043 53.6827 281.095 53.752C281.156 53.8127 281.186 53.8863 281.186 53.973C281.186 54.1637 281.039 54.35 280.744 54.532C280.12 54.9047 279.462 55.091 278.768 55.091C277.806 55.091 277.048 54.8007 276.493 54.22C275.939 53.6393 275.661 52.842 275.661 51.828C275.661 51.178 275.783 50.606 276.025 50.112C276.277 49.6093 276.623 49.2237 277.065 48.955C277.516 48.6777 278.032 48.539 278.612 48.539C279.427 48.539 280.068 48.8033 280.536 49.332C281.013 49.852 281.251 50.5713 281.251 51.49C281.251 51.646 281.217 51.763 281.147 51.841C281.078 51.9103 280.965 51.945 280.809 51.945H276.48C276.506 52.7423 276.714 53.349 277.104 53.765C277.494 54.181 278.045 54.389 278.755 54.389C279.128 54.389 279.44 54.3413 279.691 54.246C279.943 54.142 280.211 54.0077 280.497 53.843C280.688 53.713 280.822 53.648 280.9 53.648ZM278.612 49.189C278.006 49.189 277.52 49.3797 277.156 49.761C276.792 50.1423 276.576 50.6753 276.506 51.36H280.523C280.506 50.6667 280.333 50.1337 280.003 49.761C279.674 49.3797 279.21 49.189 278.612 49.189ZM285.858 48.539C287.375 48.539 288.133 49.3537 288.133 50.983V54.662C288.133 54.7833 288.099 54.883 288.029 54.961C287.96 55.0303 287.865 55.065 287.743 55.065C287.622 55.065 287.522 55.0303 287.444 54.961C287.375 54.883 287.34 54.7833 287.34 54.662V51.035C287.34 50.411 287.215 49.956 286.963 49.67C286.712 49.384 286.313 49.241 285.767 49.241C285.143 49.241 284.641 49.4317 284.259 49.813C283.887 50.1943 283.7 50.7057 283.7 51.347V54.662C283.7 54.7833 283.666 54.883 283.596 54.961C283.527 55.0303 283.432 55.065 283.31 55.065C283.189 55.065 283.089 55.0303 283.011 54.961C282.942 54.883 282.907 54.7833 282.907 54.662V48.968C282.907 48.8467 282.942 48.7513 283.011 48.682C283.089 48.604 283.189 48.565 283.31 48.565C283.423 48.565 283.514 48.5997 283.583 48.669C283.653 48.7383 283.687 48.8337 283.687 48.955V49.774C283.887 49.3753 284.173 49.072 284.545 48.864C284.927 48.6473 285.364 48.539 285.858 48.539ZM292.937 54.402C293.18 54.428 293.301 54.5407 293.301 54.74C293.301 54.844 293.262 54.9263 293.184 54.987C293.106 55.0477 292.981 55.0737 292.807 55.065L292.443 55.039C291.785 54.9957 291.295 54.7963 290.974 54.441C290.662 54.077 290.506 53.5267 290.506 52.79V49.332H289.518C289.414 49.332 289.332 49.306 289.271 49.254C289.211 49.1933 289.18 49.1153 289.18 49.02C289.18 48.9247 289.211 48.8467 289.271 48.786C289.332 48.7253 289.414 48.695 289.518 48.695H290.506V47.083C290.506 46.953 290.541 46.8533 290.61 46.784C290.68 46.7147 290.775 46.68 290.896 46.68C291.018 46.68 291.113 46.7147 291.182 46.784C291.26 46.8533 291.299 46.953 291.299 47.083V48.695H292.872C292.985 48.695 293.072 48.7253 293.132 48.786C293.193 48.8467 293.223 48.9247 293.223 49.02C293.223 49.1153 293.193 49.1933 293.132 49.254C293.072 49.306 292.985 49.332 292.872 49.332H291.299V52.829C291.299 53.3663 291.403 53.752 291.611 53.986C291.819 54.2113 292.144 54.3413 292.586 54.376L292.937 54.402ZM296.956 55.091C296.376 55.091 295.864 54.9567 295.422 54.688C294.989 54.4193 294.651 54.038 294.408 53.544C294.166 53.05 294.044 52.4737 294.044 51.815C294.044 51.1563 294.166 50.58 294.408 50.086C294.651 49.592 294.989 49.2107 295.422 48.942C295.864 48.6733 296.376 48.539 296.956 48.539C297.528 48.539 298.035 48.6733 298.477 48.942C298.919 49.2107 299.257 49.592 299.491 50.086C299.734 50.58 299.855 51.1563 299.855 51.815C299.855 52.4737 299.734 53.05 299.491 53.544C299.257 54.038 298.919 54.4193 298.477 54.688C298.035 54.9567 297.528 55.091 296.956 55.091ZM296.943 54.389C297.611 54.389 298.126 54.168 298.49 53.726C298.854 53.284 299.036 52.647 299.036 51.815C299.036 51.0003 298.85 50.3677 298.477 49.917C298.113 49.4577 297.606 49.228 296.956 49.228C296.298 49.228 295.786 49.4577 295.422 49.917C295.058 50.3677 294.876 51.0003 294.876 51.815C294.876 52.647 295.054 53.284 295.409 53.726C295.765 54.168 296.276 54.389 296.943 54.389ZM301.693 55.065C301.52 55.065 301.372 55.0087 301.251 54.896C301.138 54.7747 301.082 54.623 301.082 54.441C301.082 54.259 301.138 54.1117 301.251 53.999C301.372 53.8777 301.52 53.817 301.693 53.817C301.858 53.817 301.996 53.8777 302.109 53.999C302.23 54.1117 302.291 54.259 302.291 54.441C302.291 54.623 302.23 54.7747 302.109 54.896C301.996 55.0087 301.858 55.065 301.693 55.065Z" fill="#333333"/>
<path d="M313.211 43.7932C313.274 43.8588 313.349 43.9108 313.431 43.9463C313.514 43.9817 313.603 44 313.692 44C313.782 44 313.87 43.9817 313.953 43.9463C314.035 43.9108 314.11 43.8588 314.174 43.7932L318.8 39.0048C318.864 38.9394 318.914 38.8616 318.948 38.776C318.982 38.6905 319 38.5987 319 38.5061C319 38.4135 318.982 38.3217 318.948 38.2361C318.914 38.1506 318.864 38.0728 318.8 38.0073L314.174 33.2189C314.111 33.1508 314.036 33.0963 313.953 33.0587C313.869 33.0211 313.78 33.0012 313.689 33C313.598 32.9989 313.508 33.0167 313.424 33.0522C313.34 33.0877 313.263 33.1403 313.199 33.2069C313.135 33.2735 313.084 33.3527 313.05 33.4399C313.016 33.5271 312.999 33.6205 313 33.7146C313.001 33.8087 313.021 33.9016 313.057 33.9877C313.094 34.0739 313.146 34.1517 313.212 34.2165L317.357 38.5061L313.212 42.7957C313.149 42.8611 313.099 42.9387 313.064 43.0243C313.03 43.1098 313.012 43.2015 313.012 43.2941C313.012 43.3868 313.029 43.4785 313.063 43.5642C313.097 43.6498 313.147 43.7277 313.211 43.7932Z" fill="#381A56"/>
<defs>
<filter id="filter0_d" x="0" y="0" width="334" height="77" filterUnits="userSpaceOnUse" color-interpolation-filters="sRGB">
<feFlood flood-opacity="0" result="BackgroundImageFix"/>
<feColorMatrix in="SourceAlpha" type="matrix" values="0 0 0 0 0 0 0 0 0 0 0 0 0 0 0 0 0 0 127 0"/>
<feOffset/>
<feGaussianBlur stdDeviation="1.5"/>
<feColorMatrix type="matrix" values="0 0 0 0 0 0 0 0 0 0 0 0 0 0 0 0 0 0 0.2 0"/>
<feBlend mode="normal" in2="BackgroundImageFix" result="effect1_dropShadow"/>
<feBlend mode="normal" in="SourceGraphic" in2="effect1_dropShadow" result="shape"/>
</filter>
</defs>
</svg>
