<svg width="24" height="24" viewBox="0 0 24 24" fill="none" xmlns="http://www.w3.org/2000/svg">
<path d="M18.4051 7.4999H5.60505C4.88505 7.4999 4.30505 6.9199 4.30505 6.1999C4.30505 5.4799 4.88505 4.8999 5.60505 4.8999H18.4051C19.1251 4.8999 19.7051 5.4799 19.7051 6.1999C19.7051 6.9199 19.1251 7.4999 18.4051 7.4999ZM19.7051 11.9999C19.7051 11.2799 19.1251 10.6999 18.4051 10.6999H5.60505C4.88505 10.6999 4.30505 11.2799 4.30505 11.9999C4.30505 12.7199 4.88505 13.2999 5.60505 13.2999H18.4051C19.1251 13.2999 19.7051 12.7199 19.7051 11.9999ZM19.7051 17.7999C19.7051 17.0799 19.1251 16.4999 18.4051 16.4999H5.60505C4.88505 16.4999 4.30505 17.0799 4.30505 17.7999C4.30505 18.5199 4.88505 19.0999 5.60505 19.0999H18.4051C19.1251 19.0999 19.7051 18.5199 19.7051 17.7999Z" fill="#381A56"/>
</svg>
