<svg width="151" height="46" viewBox="0 0 151 46" fill="none" xmlns="http://www.w3.org/2000/svg">
<g filter="url(#filter0_d)">
<path d="M3 9C3 5.68629 5.68629 3 9 3H142C145.314 3 148 5.68629 148 9V37C148 40.3137 145.314 43 142 43H9C5.68629 43 3 40.3137 3 37V9Z" fill="#381A56"/>
<path d="M31.4544 16C31.4544 15.615 31.1394 15.3 30.7544 15.3H20.2544C19.8694 15.3 19.5544 15.615 19.5544 16V30C19.5544 30.385 19.8694 30.7 20.2544 30.7H30.7544C31.1394 30.7 31.4544 30.385 31.4544 30V16ZM30.0544 29.3H20.9544V16.7H30.0544V29.3ZM22.7044 26.7625C22.7044 26.43 22.9844 26.15 23.3169 26.15H27.4819C27.8144 26.15 28.0944 26.43 28.0944 26.7625C28.0944 27.095 27.8144 27.375 27.4819 27.375H23.3169C22.9844 27.375 22.7044 27.095 22.7044 26.7625ZM22.7044 24.3125C22.7044 23.98 22.9844 23.7 23.3169 23.7H27.4819C27.8144 23.7 28.0944 23.98 28.0944 24.3125C28.0944 24.645 27.8144 24.925 27.4819 24.925H23.3169C22.9844 24.925 22.7044 24.645 22.7044 24.3125ZM28.1294 19.2375C28.1294 18.905 27.8494 18.625 27.5169 18.625H23.3169C22.9844 18.625 22.7044 18.905 22.7044 19.2375V21.6875C22.7044 22.02 22.9844 22.3 23.3169 22.3H27.5169C27.8494 22.3 28.1294 22.02 28.1294 21.6875V19.2375ZM23.9294 19.85H26.9044V21.075H23.9294V19.85Z" fill="white"/>
<path d="M46.6853 28.096C46.376 28.096 46.1253 28 45.9333 27.808C45.752 27.616 45.6613 27.3653 45.6613 27.056V17.664C45.6613 17.3547 45.752 17.1093 45.9333 16.928C46.1253 16.736 46.376 16.64 46.6853 16.64C47.0053 16.64 47.256 16.736 47.4373 16.928C47.6293 17.1093 47.7253 17.3547 47.7253 17.664V27.056C47.7253 27.3653 47.6293 27.616 47.4373 27.808C47.256 28 47.0053 28.096 46.6853 28.096ZM54.3533 20.016C54.6306 19.9947 54.8493 20.0533 55.0093 20.192C55.1693 20.3307 55.2493 20.5387 55.2493 20.816C55.2493 21.104 55.18 21.3173 55.0413 21.456C54.9026 21.5947 54.652 21.6853 54.2893 21.728L53.8093 21.776C53.18 21.84 52.716 22.0533 52.4173 22.416C52.1293 22.7787 51.9853 23.232 51.9853 23.776V27.136C51.9853 27.4453 51.8893 27.6853 51.6973 27.856C51.5053 28.016 51.2653 28.096 50.9773 28.096C50.6893 28.096 50.4493 28.016 50.2573 27.856C50.076 27.6853 49.9853 27.4453 49.9853 27.136V20.944C49.9853 20.6453 50.076 20.416 50.2573 20.256C50.4493 20.096 50.684 20.016 50.9613 20.016C51.2386 20.016 51.4626 20.096 51.6333 20.256C51.804 20.4053 51.8893 20.624 51.8893 20.912V21.552C52.092 21.0827 52.3906 20.72 52.7853 20.464C53.1906 20.208 53.6386 20.064 54.1293 20.032L54.3533 20.016ZM63.8461 19.984C64.9341 19.984 65.7394 20.256 66.2621 20.8C66.7954 21.3333 67.0621 22.1493 67.0621 23.248V27.152C67.0621 27.44 66.9767 27.6693 66.8061 27.84C66.6354 28 66.4007 28.08 66.1021 28.08C65.8247 28.08 65.5954 27.9947 65.4141 27.824C65.2434 27.6533 65.1581 27.4293 65.1581 27.152V26.8C64.9767 27.216 64.6887 27.5413 64.2941 27.776C63.9101 28.0107 63.4621 28.128 62.9501 28.128C62.4274 28.128 61.9527 28.0213 61.5261 27.808C61.0994 27.5947 60.7634 27.3013 60.5181 26.928C60.2727 26.5547 60.1501 26.1387 60.1501 25.68C60.1501 25.104 60.2941 24.6507 60.5821 24.32C60.8807 23.9893 61.3607 23.7493 62.0221 23.6C62.6834 23.4507 63.5954 23.376 64.7581 23.376H65.1581V23.008C65.1581 22.4853 65.0461 22.1067 64.8221 21.872C64.5981 21.6267 64.2354 21.504 63.7341 21.504C63.4247 21.504 63.1101 21.552 62.7901 21.648C62.4701 21.7333 62.0914 21.8613 61.6541 22.032C61.3767 22.1707 61.1741 22.24 61.0461 22.24C60.8541 22.24 60.6941 22.1707 60.5661 22.032C60.4487 21.8933 60.3901 21.712 60.3901 21.488C60.3901 21.3067 60.4327 21.152 60.5181 21.024C60.6141 20.8853 60.7687 20.7573 60.9821 20.64C61.3554 20.4373 61.7981 20.2773 62.3101 20.16C62.8327 20.0427 63.3447 19.984 63.8461 19.984ZM63.3501 26.688C63.8834 26.688 64.3154 26.512 64.6461 26.16C64.9874 25.7973 65.1581 25.3333 65.1581 24.768V24.432H64.8701C64.1554 24.432 63.6007 24.464 63.2061 24.528C62.8114 24.592 62.5287 24.704 62.3581 24.864C62.1874 25.024 62.1021 25.2427 62.1021 25.52C62.1021 25.8613 62.2194 26.144 62.4541 26.368C62.6994 26.5813 62.9981 26.688 63.3501 26.688ZM76.9104 28.128C76.1318 28.128 75.4438 27.9627 74.8464 27.632C74.2598 27.3013 73.8064 26.832 73.4864 26.224C73.1664 25.616 73.0064 24.9067 73.0064 24.096C73.0064 23.2853 73.1718 22.5707 73.5024 21.952C73.8438 21.3227 74.3184 20.8373 74.9264 20.496C75.5344 20.1547 76.2331 19.984 77.0224 19.984C77.4384 19.984 77.8544 20.0427 78.2704 20.16C78.6971 20.2773 79.0704 20.4373 79.3904 20.64C79.7318 20.864 79.9024 21.1467 79.9024 21.488C79.9024 21.7227 79.8438 21.9147 79.7264 22.064C79.6198 22.2027 79.4758 22.272 79.2944 22.272C79.1771 22.272 79.0544 22.2453 78.9264 22.192C78.7984 22.1387 78.6704 22.0747 78.5424 22C78.3078 21.8613 78.0838 21.7547 77.8704 21.68C77.6571 21.5947 77.4118 21.552 77.1344 21.552C76.4731 21.552 75.9611 21.7707 75.5984 22.208C75.2464 22.6347 75.0704 23.2533 75.0704 24.064C75.0704 24.864 75.2464 25.4827 75.5984 25.92C75.9611 26.3467 76.4731 26.56 77.1344 26.56C77.4011 26.56 77.6358 26.5227 77.8384 26.448C78.0518 26.3627 78.2864 26.2507 78.5424 26.112C78.7024 26.016 78.8411 25.9467 78.9584 25.904C79.0758 25.8507 79.1931 25.824 79.3104 25.824C79.4811 25.824 79.6251 25.8987 79.7424 26.048C79.8598 26.1973 79.9184 26.384 79.9184 26.608C79.9184 26.7893 79.8758 26.9493 79.7904 27.088C79.7158 27.216 79.5878 27.3333 79.4064 27.44C79.0758 27.6533 78.6918 27.824 78.2544 27.952C77.8171 28.0693 77.3691 28.128 76.9104 28.128ZM84.6429 19.984C85.7309 19.984 86.5363 20.256 87.0589 20.8C87.5923 21.3333 87.8589 22.1493 87.8589 23.248V27.152C87.8589 27.44 87.7736 27.6693 87.6029 27.84C87.4323 28 87.1976 28.08 86.8989 28.08C86.6216 28.08 86.3923 27.9947 86.2109 27.824C86.0403 27.6533 85.9549 27.4293 85.9549 27.152V26.8C85.7736 27.216 85.4856 27.5413 85.0909 27.776C84.7069 28.0107 84.2589 28.128 83.7469 28.128C83.2243 28.128 82.7496 28.0213 82.3229 27.808C81.8963 27.5947 81.5603 27.3013 81.3149 26.928C81.0696 26.5547 80.9469 26.1387 80.9469 25.68C80.9469 25.104 81.0909 24.6507 81.3789 24.32C81.6776 23.9893 82.1576 23.7493 82.8189 23.6C83.4803 23.4507 84.3923 23.376 85.5549 23.376H85.9549V23.008C85.9549 22.4853 85.8429 22.1067 85.6189 21.872C85.3949 21.6267 85.0323 21.504 84.5309 21.504C84.2216 21.504 83.9069 21.552 83.5869 21.648C83.2669 21.7333 82.8883 21.8613 82.4509 22.032C82.1736 22.1707 81.9709 22.24 81.8429 22.24C81.6509 22.24 81.4909 22.1707 81.3629 22.032C81.2456 21.8933 81.1869 21.712 81.1869 21.488C81.1869 21.3067 81.2296 21.152 81.3149 21.024C81.4109 20.8853 81.5656 20.7573 81.7789 20.64C82.1523 20.4373 82.5949 20.2773 83.1069 20.16C83.6296 20.0427 84.1416 19.984 84.6429 19.984ZM84.1469 26.688C84.6803 26.688 85.1123 26.512 85.4429 26.16C85.7843 25.7973 85.9549 25.3333 85.9549 24.768V24.432H85.6669C84.9523 24.432 84.3976 24.464 84.0029 24.528C83.6083 24.592 83.3256 24.704 83.1549 24.864C82.9843 25.024 82.8989 25.2427 82.8989 25.52C82.8989 25.8613 83.0163 26.144 83.2509 26.368C83.4963 26.5813 83.7949 26.688 84.1469 26.688ZM93.9556 26.608C94.4889 26.64 94.7556 26.88 94.7556 27.328C94.7556 27.584 94.6489 27.7813 94.4356 27.92C94.2329 28.048 93.9396 28.1013 93.5556 28.08L93.1236 28.048C91.3316 27.92 90.4356 26.96 90.4356 25.168V21.68H89.6356C89.3476 21.68 89.1236 21.616 88.9636 21.488C88.8142 21.36 88.7396 21.1733 88.7396 20.928C88.7396 20.6827 88.8142 20.496 88.9636 20.368C89.1236 20.24 89.3476 20.176 89.6356 20.176H90.4356V18.704C90.4356 18.416 90.5262 18.1867 90.7076 18.016C90.8889 17.8453 91.1342 17.76 91.4436 17.76C91.7422 17.76 91.9822 17.8453 92.1636 18.016C92.3449 18.1867 92.4356 18.416 92.4356 18.704V20.176H93.7956C94.0836 20.176 94.3022 20.24 94.4516 20.368C94.6116 20.496 94.6916 20.6827 94.6916 20.928C94.6916 21.1733 94.6116 21.36 94.4516 21.488C94.3022 21.616 94.0836 21.68 93.7956 21.68H92.4356V25.312C92.4356 26.1013 92.7982 26.5227 93.5236 26.576L93.9556 26.608ZM99.1898 19.984C100.278 19.984 101.083 20.256 101.606 20.8C102.139 21.3333 102.406 22.1493 102.406 23.248V27.152C102.406 27.44 102.32 27.6693 102.15 27.84C101.979 28 101.744 28.08 101.446 28.08C101.168 28.08 100.939 27.9947 100.758 27.824C100.587 27.6533 100.502 27.4293 100.502 27.152V26.8C100.32 27.216 100.032 27.5413 99.6378 27.776C99.2538 28.0107 98.8058 28.128 98.2938 28.128C97.7711 28.128 97.2965 28.0213 96.8698 27.808C96.4431 27.5947 96.1071 27.3013 95.8618 26.928C95.6165 26.5547 95.4938 26.1387 95.4938 25.68C95.4938 25.104 95.6378 24.6507 95.9258 24.32C96.2245 23.9893 96.7045 23.7493 97.3658 23.6C98.0271 23.4507 98.9391 23.376 100.102 23.376H100.502V23.008C100.502 22.4853 100.39 22.1067 100.166 21.872C99.9418 21.6267 99.5791 21.504 99.0778 21.504C98.7685 21.504 98.4538 21.552 98.1338 21.648C97.8138 21.7333 97.4351 21.8613 96.9978 22.032C96.7205 22.1707 96.5178 22.24 96.3898 22.24C96.1978 22.24 96.0378 22.1707 95.9098 22.032C95.7925 21.8933 95.7338 21.712 95.7338 21.488C95.7338 21.3067 95.7765 21.152 95.8618 21.024C95.9578 20.8853 96.1125 20.7573 96.3258 20.64C96.6991 20.4373 97.1418 20.2773 97.6538 20.16C98.1765 20.0427 98.6885 19.984 99.1898 19.984ZM98.6938 26.688C99.2271 26.688 99.6591 26.512 99.9898 26.16C100.331 25.7973 100.502 25.3333 100.502 24.768V24.432H100.214C99.4991 24.432 98.9445 24.464 98.5498 24.528C98.1551 24.592 97.8725 24.704 97.7018 24.864C97.5311 25.024 97.4458 25.2427 97.4458 25.52C97.4458 25.8613 97.5631 26.144 97.7978 26.368C98.0431 26.5813 98.3418 26.688 98.6938 26.688ZM99.5898 19.104C99.4725 19.1893 99.3551 19.232 99.2378 19.232C99.0885 19.232 98.9605 19.184 98.8538 19.088C98.7578 18.9813 98.7098 18.8587 98.7098 18.72C98.7098 18.6027 98.7525 18.4853 98.8378 18.368L100.39 16.304C100.635 15.984 100.918 15.824 101.238 15.824C101.472 15.824 101.67 15.9093 101.83 16.08C102 16.24 102.086 16.432 102.086 16.656C102.086 16.9547 101.942 17.2107 101.654 17.424L99.5898 19.104ZM105.43 28.096C105.142 28.096 104.902 28.016 104.71 27.856C104.529 27.6853 104.438 27.4453 104.438 27.136V17.584C104.438 17.2747 104.529 17.04 104.71 16.88C104.902 16.72 105.142 16.64 105.43 16.64C105.718 16.64 105.958 16.72 106.15 16.88C106.342 17.04 106.438 17.2747 106.438 17.584V27.136C106.438 27.4453 106.342 27.6853 106.15 27.856C105.958 28.016 105.718 28.096 105.43 28.096ZM112.069 28.128C111.269 28.128 110.565 27.9627 109.957 27.632C109.36 27.3013 108.896 26.8267 108.565 26.208C108.234 25.5893 108.069 24.8693 108.069 24.048C108.069 23.2267 108.234 22.512 108.565 21.904C108.896 21.2853 109.36 20.8107 109.957 20.48C110.565 20.1493 111.269 19.984 112.069 19.984C112.869 19.984 113.568 20.1493 114.165 20.48C114.773 20.8107 115.237 21.2853 115.557 21.904C115.888 22.512 116.053 23.2267 116.053 24.048C116.053 24.8693 115.888 25.5893 115.557 26.208C115.237 26.8267 114.773 27.3013 114.165 27.632C113.568 27.9627 112.869 28.128 112.069 28.128ZM112.053 26.576C112.704 26.576 113.2 26.3627 113.541 25.936C113.882 25.5093 114.053 24.88 114.053 24.048C114.053 23.2267 113.882 22.6027 113.541 22.176C113.2 21.7387 112.709 21.52 112.069 21.52C111.429 21.52 110.933 21.7387 110.581 22.176C110.24 22.6027 110.069 23.2267 110.069 24.048C110.069 24.88 110.24 25.5093 110.581 25.936C110.922 26.3627 111.413 26.576 112.053 26.576ZM124.328 20.016C124.627 20.016 124.867 20.1013 125.048 20.272C125.229 20.4427 125.32 20.672 125.32 20.96V27.28C125.32 28.5067 124.979 29.4347 124.296 30.064C123.613 30.6933 122.605 31.008 121.272 31.008C120.109 31.008 119.139 30.7893 118.36 30.352C117.965 30.1173 117.768 29.8347 117.768 29.504C117.768 29.2693 117.821 29.0827 117.928 28.944C118.045 28.8053 118.195 28.736 118.376 28.736C118.472 28.736 118.589 28.7573 118.728 28.8C118.867 28.8533 119.011 28.912 119.16 28.976C119.544 29.136 119.885 29.2587 120.184 29.344C120.493 29.4293 120.845 29.472 121.24 29.472C122.637 29.472 123.336 28.7893 123.336 27.424V26.4C123.101 26.8373 122.76 27.1787 122.312 27.424C121.864 27.6587 121.352 27.776 120.776 27.776C120.093 27.776 119.485 27.616 118.952 27.296C118.429 26.9653 118.019 26.5067 117.72 25.92C117.421 25.3333 117.272 24.656 117.272 23.888C117.272 23.12 117.416 22.4427 117.704 21.856C118.003 21.2587 118.419 20.8 118.952 20.48C119.485 20.1493 120.093 19.984 120.776 19.984C121.352 19.984 121.864 20.1067 122.312 20.352C122.76 20.5867 123.101 20.9227 123.336 21.36V20.944C123.336 20.6667 123.427 20.4427 123.608 20.272C123.789 20.1013 124.029 20.016 124.328 20.016ZM121.304 26.224C121.944 26.224 122.44 26.016 122.792 25.6C123.155 25.184 123.336 24.6133 123.336 23.888C123.336 23.152 123.155 22.576 122.792 22.16C122.44 21.744 121.944 21.536 121.304 21.536C120.675 21.536 120.179 21.744 119.816 22.16C119.453 22.576 119.272 23.152 119.272 23.888C119.272 24.6133 119.453 25.184 119.816 25.6C120.179 26.016 120.675 26.224 121.304 26.224ZM130.96 28.128C130.16 28.128 129.456 27.9627 128.848 27.632C128.25 27.3013 127.786 26.8267 127.456 26.208C127.125 25.5893 126.96 24.8693 126.96 24.048C126.96 23.2267 127.125 22.512 127.456 21.904C127.786 21.2853 128.25 20.8107 128.848 20.48C129.456 20.1493 130.16 19.984 130.96 19.984C131.76 19.984 132.458 20.1493 133.056 20.48C133.664 20.8107 134.128 21.2853 134.448 21.904C134.778 22.512 134.944 23.2267 134.944 24.048C134.944 24.8693 134.778 25.5893 134.448 26.208C134.128 26.8267 133.664 27.3013 133.056 27.632C132.458 27.9627 131.76 28.128 130.96 28.128ZM130.944 26.576C131.594 26.576 132.09 26.3627 132.432 25.936C132.773 25.5093 132.944 24.88 132.944 24.048C132.944 23.2267 132.773 22.6027 132.432 22.176C132.09 21.7387 131.6 21.52 130.96 21.52C130.32 21.52 129.824 21.7387 129.472 22.176C129.13 22.6027 128.96 23.2267 128.96 24.048C128.96 24.88 129.13 25.5093 129.472 25.936C129.813 26.3627 130.304 26.576 130.944 26.576Z" fill="white"/>
</g>
<defs>
<filter id="filter0_d" x="0.5" y="0.5" width="150" height="45" filterUnits="userSpaceOnUse" color-interpolation-filters="sRGB">
<feFlood flood-opacity="0" result="BackgroundImageFix"/>
<feColorMatrix in="SourceAlpha" type="matrix" values="0 0 0 0 0 0 0 0 0 0 0 0 0 0 0 0 0 0 127 0"/>
<feMorphology radius="0.5" operator="dilate" in="SourceAlpha" result="effect1_dropShadow"/>
<feOffset/>
<feGaussianBlur stdDeviation="1"/>
<feColorMatrix type="matrix" values="0 0 0 0 0 0 0 0 0 0 0 0 0 0 0 0 0 0 0.2 0"/>
<feBlend mode="normal" in2="BackgroundImageFix" result="effect1_dropShadow"/>
<feBlend mode="normal" in="SourceGraphic" in2="effect1_dropShadow" result="shape"/>
</filter>
</defs>
</svg>
