<svg width="59" height="27" viewBox="0 0 59 27" fill="none" xmlns="http://www.w3.org/2000/svg">
<rect x="0.75" y="1.54419" width="57.5" height="23.9118" rx="3.25" stroke="#381A56" stroke-width="1.5"/>
<path d="M10.0863 18.8104C9.85631 18.8104 9.67131 18.7404 9.53131 18.6004C9.39131 18.4504 9.32131 18.2604 9.32131 18.0304V8.91035C9.32131 8.68035 9.38631 8.50035 9.51631 8.37035C9.65631 8.23035 9.84631 8.16035 10.0863 8.16035H15.4563C15.9363 8.16035 16.1763 8.37035 16.1763 8.79035C16.1763 9.21035 15.9363 9.42035 15.4563 9.42035H10.8513V12.7354H15.1563C15.6363 12.7354 15.8763 12.9454 15.8763 13.3654C15.8763 13.7854 15.6363 13.9954 15.1563 13.9954H10.8513V18.0304C10.8513 18.2704 10.7813 18.4604 10.6413 18.6004C10.5113 18.7404 10.3263 18.8104 10.0863 18.8104ZM18.9151 18.8104C18.6951 18.8104 18.5101 18.7504 18.3601 18.6304C18.2201 18.5104 18.1501 18.3304 18.1501 18.0904V12.0004C18.1501 11.7604 18.2201 11.5804 18.3601 11.4604C18.5101 11.3304 18.6951 11.2654 18.9151 11.2654C19.1351 11.2654 19.3151 11.3304 19.4551 11.4604C19.5951 11.5804 19.6651 11.7604 19.6651 12.0004V18.0904C19.6651 18.3304 19.5951 18.5104 19.4551 18.6304C19.3151 18.7504 19.1351 18.8104 18.9151 18.8104ZM18.9151 9.79535C18.6251 9.79535 18.3951 9.71535 18.2251 9.55535C18.0551 9.39535 17.9701 9.18535 17.9701 8.92535C17.9701 8.66535 18.0551 8.46035 18.2251 8.31035C18.3951 8.15035 18.6251 8.07035 18.9151 8.07035C19.1951 8.07035 19.4201 8.15035 19.5901 8.31035C19.7701 8.46035 19.8601 8.66535 19.8601 8.92535C19.8601 9.18535 19.7751 9.39535 19.6051 9.55535C19.4351 9.71535 19.2051 9.79535 18.9151 9.79535ZM22.5479 18.8104C22.3279 18.8104 22.1429 18.7504 21.9929 18.6304C21.8529 18.5104 21.7829 18.3304 21.7829 18.0904V8.82035C21.7829 8.58035 21.8529 8.40035 21.9929 8.28035C22.1429 8.15035 22.3279 8.08535 22.5479 8.08535C22.7679 8.08535 22.9479 8.15035 23.0879 8.28035C23.2279 8.40035 23.2979 8.58035 23.2979 8.82035V18.0904C23.2979 18.3304 23.2279 18.5104 23.0879 18.6304C22.9479 18.7504 22.7679 18.8104 22.5479 18.8104ZM29.2058 17.6554C29.4258 17.6754 29.5808 17.7354 29.6708 17.8354C29.7708 17.9254 29.8208 18.0554 29.8208 18.2254C29.8208 18.4254 29.7408 18.5804 29.5808 18.6904C29.4308 18.7904 29.2058 18.8304 28.9058 18.8104L28.5008 18.7804C27.6908 18.7204 27.0858 18.4754 26.6858 18.0454C26.2858 17.6054 26.0858 16.9604 26.0858 16.1104V12.5854H25.1858C24.7458 12.5854 24.5258 12.3904 24.5258 12.0004C24.5258 11.8204 24.5808 11.6804 24.6908 11.5804C24.8108 11.4704 24.9758 11.4154 25.1858 11.4154H26.0858V9.87035C26.0858 9.64035 26.1508 9.46035 26.2808 9.33035C26.4208 9.20035 26.6058 9.13535 26.8358 9.13535C27.0658 9.13535 27.2508 9.20035 27.3908 9.33035C27.5308 9.46035 27.6008 9.64035 27.6008 9.87035V11.4154H29.0858C29.2958 11.4154 29.4558 11.4704 29.5658 11.5804C29.6858 11.6804 29.7458 11.8204 29.7458 12.0004C29.7458 12.1904 29.6858 12.3354 29.5658 12.4354C29.4558 12.5354 29.2958 12.5854 29.0858 12.5854H27.6008V16.2154C27.6008 16.6854 27.6958 17.0304 27.8858 17.2504C28.0858 17.4704 28.3858 17.5954 28.7858 17.6254L29.2058 17.6554ZM34.7489 11.2654C35.2289 11.2354 35.4689 11.4404 35.4689 11.8804C35.4689 12.1004 35.4139 12.2654 35.3039 12.3754C35.1939 12.4854 35.0039 12.5504 34.7339 12.5704L34.2839 12.6154C33.6539 12.6754 33.1839 12.8954 32.8739 13.2754C32.5739 13.6554 32.4239 14.1154 32.4239 14.6554V18.0904C32.4239 18.3304 32.3539 18.5104 32.2139 18.6304C32.0739 18.7504 31.8939 18.8104 31.6739 18.8104C31.4539 18.8104 31.2689 18.7504 31.1189 18.6304C30.9789 18.5104 30.9089 18.3304 30.9089 18.0904V11.9854C30.9089 11.7554 30.9789 11.5804 31.1189 11.4604C31.2689 11.3304 31.4539 11.2654 31.6739 11.2654C31.8739 11.2654 32.0389 11.3304 32.1689 11.4604C32.3089 11.5804 32.3789 11.7504 32.3789 11.9704V12.6904C32.5789 12.2504 32.8689 11.9154 33.2489 11.6854C33.6289 11.4554 34.0589 11.3204 34.5389 11.2804L34.7489 11.2654ZM39.4356 18.8404C38.7156 18.8404 38.0806 18.6854 37.5306 18.3754C36.9906 18.0654 36.5706 17.6254 36.2706 17.0554C35.9806 16.4754 35.8356 15.8054 35.8356 15.0454C35.8356 14.2754 35.9806 13.6054 36.2706 13.0354C36.5706 12.4554 36.9906 12.0104 37.5306 11.7004C38.0806 11.3904 38.7156 11.2354 39.4356 11.2354C40.1556 11.2354 40.7856 11.3904 41.3256 11.7004C41.8756 12.0104 42.2956 12.4554 42.5856 13.0354C42.8856 13.6054 43.0356 14.2754 43.0356 15.0454C43.0356 15.8054 42.8856 16.4754 42.5856 17.0554C42.2956 17.6254 41.8756 18.0654 41.3256 18.3754C40.7856 18.6854 40.1556 18.8404 39.4356 18.8404ZM39.4356 17.6404C40.1056 17.6404 40.6156 17.4204 40.9656 16.9804C41.3256 16.5404 41.5056 15.8954 41.5056 15.0454C41.5056 14.2054 41.3256 13.5654 40.9656 13.1254C40.6056 12.6754 40.0956 12.4504 39.4356 12.4504C38.7756 12.4504 38.2656 12.6754 37.9056 13.1254C37.5456 13.5654 37.3656 14.2054 37.3656 15.0454C37.3656 15.8954 37.5406 16.5404 37.8906 16.9804C38.2506 17.4204 38.7656 17.6404 39.4356 17.6404ZM47.2724 18.8404C46.2524 18.8404 45.4174 18.6304 44.7674 18.2104C44.5874 18.1004 44.4574 17.9854 44.3774 17.8654C44.3074 17.7454 44.2724 17.6104 44.2724 17.4604C44.2724 17.3004 44.3174 17.1654 44.4074 17.0554C44.4974 16.9454 44.6124 16.8904 44.7524 16.8904C44.8824 16.8904 45.0874 16.9704 45.3674 17.1304C45.6674 17.2904 45.9574 17.4204 46.2374 17.5204C46.5274 17.6204 46.8874 17.6704 47.3174 17.6704C47.7974 17.6704 48.1724 17.5854 48.4424 17.4154C48.7124 17.2454 48.8474 17.0054 48.8474 16.6954C48.8474 16.4954 48.7924 16.3354 48.6824 16.2154C48.5824 16.0954 48.4024 15.9904 48.1424 15.9004C47.8824 15.8004 47.4974 15.6954 46.9874 15.5854C46.1074 15.3954 45.4724 15.1404 45.0824 14.8204C44.7024 14.4904 44.5124 14.0454 44.5124 13.4854C44.5124 13.0554 44.6374 12.6704 44.8874 12.3304C45.1374 11.9804 45.4824 11.7104 45.9224 11.5204C46.3624 11.3304 46.8624 11.2354 47.4224 11.2354C47.8224 11.2354 48.2124 11.2904 48.5924 11.4004C48.9724 11.5004 49.3074 11.6504 49.5974 11.8504C49.9274 12.0704 50.0924 12.3254 50.0924 12.6154C50.0924 12.7754 50.0424 12.9104 49.9424 13.0204C49.8524 13.1304 49.7424 13.1854 49.6124 13.1854C49.5224 13.1854 49.4324 13.1654 49.3424 13.1254C49.2524 13.0854 49.1324 13.0204 48.9824 12.9304C48.7124 12.7704 48.4574 12.6454 48.2174 12.5554C47.9874 12.4654 47.6974 12.4204 47.3474 12.4204C46.9274 12.4204 46.5874 12.5104 46.3274 12.6904C46.0774 12.8704 45.9524 13.1154 45.9524 13.4254C45.9524 13.7054 46.0674 13.9254 46.2974 14.0854C46.5374 14.2354 46.9824 14.3804 47.6324 14.5204C48.3024 14.6604 48.8274 14.8204 49.2074 15.0004C49.5874 15.1804 49.8574 15.4054 50.0174 15.6754C50.1874 15.9354 50.2724 16.2704 50.2724 16.6804C50.2724 17.3304 49.9974 17.8554 49.4474 18.2554C48.9074 18.6454 48.1824 18.8404 47.2724 18.8404Z" fill="#381A56"/>
</svg>
