<svg width="36" height="36" viewBox="0 0 36 36" fill="none" xmlns="http://www.w3.org/2000/svg">
<rect x="1" y="1" width="34" height="34" rx="3" stroke="#7F7F7F" stroke-width="2"/>
<path d="M24.4852 14.6801L23.8652 26.24C23.8452 26.66 23.4852 27 23.0652 27H12.9251C12.5051 27 12.1451 26.66 12.1251 26.24L11.5052 14.6801C11.4852 14.2401 11.8252 13.86 12.2652 13.84C12.7052 13.82 13.0852 14.16 13.1052 14.6L13.6852 25.4H22.3052L22.8852 14.6C22.9052 14.16 23.2851 13.82 23.7251 13.84C24.1651 13.86 24.5052 14.2401 24.4852 14.6801ZM26.6052 12C26.6052 12.44 26.2452 12.8 25.8052 12.8H10.2052C9.76515 12.8 9.40515 12.44 9.40515 12C9.40515 11.56 9.76515 11.2 10.2052 11.2H14.6052V9.40005C14.6052 9.02005 14.8651 8.80005 15.2451 8.80005H20.7652C21.1452 8.80005 21.4052 9.02005 21.4052 9.40005V11.2H25.8052C26.2452 11.2 26.6052 11.56 26.6052 12ZM16.0052 11.2H20.0052V10.2H16.0052V11.2ZM16.3451 24.2C16.7451 24.2 17.0451 23.82 17.0451 23.44L16.8451 14.8C16.8451 14.42 16.5251 14.1 16.1251 14.1C15.7451 14.1 15.4251 14.42 15.4451 14.82L15.6451 23.4801C15.6451 23.8601 15.9651 24.2 16.3451 24.2ZM19.6451 24.2C20.0251 24.2 20.3451 23.88 20.3451 23.5L20.5451 14.8601C20.5451 14.4801 20.2452 14.14 19.8652 14.14C19.4652 14.14 19.1651 14.44 19.1451 14.82L18.9451 23.4601C18.9251 23.8601 19.2451 24.2 19.6451 24.2C19.6251 24.2 19.6251 24.2 19.6451 24.2Z" fill="#7F7F7F"/>
</svg>
