<svg width="170" height="46" viewBox="0 0 170 46" fill="none" xmlns="http://www.w3.org/2000/svg">
<g filter="url(#filter0_d)">
<path d="M3 9C3 5.68629 5.68629 3 9 3H161C164.314 3 167 5.68629 167 9V37C167 40.3137 164.314 43 161 43H9C5.6863 43 3 40.3137 3 37V9Z" fill="#381A56"/>
<path d="M24.0984 22.0984C24.3579 22.0984 24.5697 22.1872 24.7336 22.3648C24.9112 22.5287 25 22.7404 25 23C25 23.2596 24.9112 23.4781 24.7336 23.6557C24.5697 23.8197 24.3579 23.9016 24.0984 23.9016H20.9016V27.0779C20.9016 27.3374 20.8128 27.556 20.6352 27.7336C20.4713 27.9112 20.2596 28 20 28C19.7404 28 19.5219 27.9112 19.3443 27.7336C19.1803 27.556 19.0984 27.3374 19.0984 27.0779V23.9016H15.9016C15.6421 23.9016 15.4235 23.8197 15.2459 23.6557C15.082 23.4781 15 23.2596 15 23C15 22.7404 15.082 22.5287 15.2459 22.3648C15.4235 22.1872 15.6421 22.0984 15.9016 22.0984H19.0984V18.9016C19.0984 18.6421 19.1803 18.4303 19.3443 18.2664C19.5219 18.0888 19.7404 18 20 18C20.2596 18 20.4713 18.0888 20.6352 18.2664C20.8128 18.4303 20.9016 18.6421 20.9016 18.9016V22.0984H24.0984Z" fill="white"/>
<path d="M44.7213 26.768C44.7853 26.9067 44.8173 27.0453 44.8173 27.184C44.8173 27.4293 44.7159 27.6373 44.5133 27.808C44.3213 27.9787 44.0973 28.064 43.8413 28.064C43.6706 28.064 43.5106 28.0213 43.3613 27.936C43.2119 27.84 43.0946 27.696 43.0093 27.504L42.0493 25.36H36.4173L35.4573 27.504C35.3719 27.696 35.2546 27.84 35.1053 27.936C34.9559 28.0213 34.7906 28.064 34.6093 28.064C34.3639 28.064 34.1399 27.9787 33.9373 27.808C33.7346 27.6373 33.6333 27.4293 33.6333 27.184C33.6333 27.0453 33.6653 26.9067 33.7293 26.768L38.1453 17.28C38.2413 17.0667 38.3853 16.9067 38.5773 16.8C38.7799 16.6827 38.9933 16.624 39.2173 16.624C39.4413 16.624 39.6493 16.6827 39.8413 16.8C40.0439 16.9067 40.1933 17.0667 40.2893 17.28L44.7213 26.768ZM37.1213 23.76H41.3453L39.2333 19.008L37.1213 23.76ZM50.7403 19.984C51.6789 19.984 52.3776 20.2507 52.8363 20.784C53.2949 21.3173 53.5243 22.1227 53.5243 23.2V27.136C53.5243 27.4347 53.4336 27.6693 53.2523 27.84C53.0816 28.0107 52.8416 28.096 52.5323 28.096C52.2229 28.096 51.9776 28.0107 51.7963 27.84C51.6149 27.6693 51.5243 27.4347 51.5243 27.136V23.312C51.5243 22.704 51.4069 22.2613 51.1723 21.984C50.9483 21.7067 50.5909 21.568 50.1003 21.568C49.5243 21.568 49.0603 21.7493 48.7083 22.112C48.3669 22.4747 48.1963 22.96 48.1963 23.568V27.136C48.1963 27.4347 48.1056 27.6693 47.9243 27.84C47.7429 28.0107 47.4976 28.096 47.1883 28.096C46.8789 28.096 46.6336 28.0107 46.4523 27.84C46.2816 27.6693 46.1963 27.4347 46.1963 27.136V20.944C46.1963 20.6667 46.2869 20.4427 46.4683 20.272C46.6496 20.1013 46.8949 20.016 47.2043 20.016C47.4816 20.016 47.7056 20.1013 47.8763 20.272C48.0576 20.432 48.1483 20.6453 48.1483 20.912V21.344C48.4149 20.9067 48.7723 20.5707 49.2203 20.336C49.6683 20.1013 50.1749 19.984 50.7403 19.984ZM51.0283 18.656C50.8363 18.656 50.6443 18.6133 50.4523 18.528C50.2709 18.4427 50.0363 18.3147 49.7483 18.144C49.5136 18.0053 49.3269 17.904 49.1883 17.84C49.0496 17.776 48.9216 17.744 48.8043 17.744C48.6336 17.744 48.4949 17.7867 48.3883 17.872C48.2923 17.9573 48.1909 18.08 48.0843 18.24C47.9989 18.368 47.9243 18.464 47.8603 18.528C47.7963 18.5813 47.7163 18.608 47.6203 18.608C47.5029 18.608 47.4016 18.56 47.3163 18.464C47.2416 18.3573 47.2043 18.224 47.2043 18.064C47.2043 17.8507 47.2683 17.616 47.3963 17.36C47.5243 17.0933 47.7003 16.8693 47.9243 16.688C48.1589 16.496 48.4149 16.4 48.6923 16.4C48.8843 16.4 49.0709 16.4427 49.2523 16.528C49.4443 16.6133 49.6843 16.7413 49.9723 16.912C50.2069 17.0507 50.3936 17.152 50.5323 17.216C50.6709 17.28 50.7989 17.312 50.9163 17.312C51.0869 17.312 51.2203 17.2693 51.3163 17.184C51.4229 17.0987 51.5296 16.976 51.6363 16.816C51.7216 16.688 51.7963 16.5973 51.8603 16.544C51.9243 16.48 52.0043 16.448 52.1003 16.448C52.2283 16.448 52.3296 16.5013 52.4043 16.608C52.4789 16.704 52.5163 16.832 52.5163 16.992C52.5163 17.2053 52.4523 17.4453 52.3243 17.712C52.1963 17.968 52.0149 18.192 51.7803 18.384C51.5563 18.5653 51.3056 18.656 51.0283 18.656ZM58.9476 19.984C60.0356 19.984 60.841 20.256 61.3636 20.8C61.897 21.3333 62.1636 22.1493 62.1636 23.248V27.152C62.1636 27.44 62.0783 27.6693 61.9076 27.84C61.737 28 61.5023 28.08 61.2036 28.08C60.9263 28.08 60.697 27.9947 60.5156 27.824C60.345 27.6533 60.2596 27.4293 60.2596 27.152V26.8C60.0783 27.216 59.7903 27.5413 59.3956 27.776C59.0116 28.0107 58.5636 28.128 58.0516 28.128C57.529 28.128 57.0543 28.0213 56.6276 27.808C56.201 27.5947 55.865 27.3013 55.6196 26.928C55.3743 26.5547 55.2516 26.1387 55.2516 25.68C55.2516 25.104 55.3956 24.6507 55.6836 24.32C55.9823 23.9893 56.4623 23.7493 57.1236 23.6C57.785 23.4507 58.697 23.376 59.8596 23.376H60.2596V23.008C60.2596 22.4853 60.1476 22.1067 59.9236 21.872C59.6996 21.6267 59.337 21.504 58.8356 21.504C58.5263 21.504 58.2116 21.552 57.8916 21.648C57.5716 21.7333 57.193 21.8613 56.7556 22.032C56.4783 22.1707 56.2756 22.24 56.1476 22.24C55.9556 22.24 55.7956 22.1707 55.6676 22.032C55.5503 21.8933 55.4916 21.712 55.4916 21.488C55.4916 21.3067 55.5343 21.152 55.6196 21.024C55.7156 20.8853 55.8703 20.7573 56.0836 20.64C56.457 20.4373 56.8996 20.2773 57.4116 20.16C57.9343 20.0427 58.4463 19.984 58.9476 19.984ZM58.4516 26.688C58.985 26.688 59.417 26.512 59.7476 26.16C60.089 25.7973 60.2596 25.3333 60.2596 24.768V24.432H59.9716C59.257 24.432 58.7023 24.464 58.3076 24.528C57.913 24.592 57.6303 24.704 57.4596 24.864C57.289 25.024 57.2036 25.2427 57.2036 25.52C57.2036 25.8613 57.321 26.144 57.5556 26.368C57.801 26.5813 58.0996 26.688 58.4516 26.688ZM70.7243 16.64C71.0229 16.64 71.2683 16.7253 71.4603 16.896C71.6523 17.0667 71.7483 17.2907 71.7483 17.568V27.136C71.7483 27.424 71.6576 27.6533 71.4763 27.824C71.2949 27.9947 71.0549 28.08 70.7563 28.08C70.4576 28.08 70.2176 27.9947 70.0363 27.824C69.8549 27.6533 69.7643 27.424 69.7643 27.136V26.736C69.5296 27.1733 69.1883 27.5147 68.7403 27.76C68.3029 28.0053 67.8016 28.128 67.2363 28.128C66.5643 28.128 65.9616 27.9573 65.4283 27.616C64.9056 27.2747 64.4949 26.7947 64.1963 26.176C63.9083 25.5467 63.7643 24.8267 63.7643 24.016C63.7643 23.2053 63.9083 22.496 64.1963 21.888C64.4949 21.28 64.9056 20.8107 65.4283 20.48C65.9509 20.1493 66.5536 19.984 67.2363 19.984C67.8016 19.984 68.3029 20.1013 68.7403 20.336C69.1776 20.5707 69.5136 20.9013 69.7483 21.328V17.536C69.7483 17.2693 69.8336 17.056 70.0043 16.896C70.1856 16.7253 70.4256 16.64 70.7243 16.64ZM67.7643 26.576C68.4043 26.576 68.8949 26.3573 69.2363 25.92C69.5883 25.4827 69.7643 24.8587 69.7643 24.048C69.7643 23.2373 69.5883 22.6187 69.2363 22.192C68.8949 21.7547 68.4096 21.536 67.7803 21.536C67.1403 21.536 66.6443 21.7493 66.2923 22.176C65.9403 22.6027 65.7643 23.216 65.7643 24.016C65.7643 24.8267 65.9403 25.456 66.2923 25.904C66.6443 26.352 67.1349 26.576 67.7643 26.576ZM74.7976 28.096C74.5096 28.096 74.2696 28.016 74.0776 27.856C73.8963 27.6853 73.8056 27.4453 73.8056 27.136V20.96C73.8056 20.6507 73.8963 20.416 74.0776 20.256C74.2696 20.096 74.5096 20.016 74.7976 20.016C75.0856 20.016 75.3256 20.096 75.5176 20.256C75.7096 20.416 75.8056 20.6507 75.8056 20.96V27.136C75.8056 27.4453 75.7096 27.6853 75.5176 27.856C75.3256 28.016 75.0856 28.096 74.7976 28.096ZM74.7976 18.592C74.435 18.592 74.147 18.496 73.9336 18.304C73.7203 18.1013 73.6136 17.84 73.6136 17.52C73.6136 17.2 73.7203 16.944 73.9336 16.752C74.147 16.56 74.435 16.464 74.7976 16.464C75.1496 16.464 75.4323 16.56 75.6456 16.752C75.8696 16.944 75.9816 17.2 75.9816 17.52C75.9816 17.84 75.875 18.1013 75.6616 18.304C75.4483 18.496 75.1603 18.592 74.7976 18.592ZM82.2361 20.016C82.5135 19.9947 82.7321 20.0533 82.8921 20.192C83.0521 20.3307 83.1321 20.5387 83.1321 20.816C83.1321 21.104 83.0628 21.3173 82.9241 21.456C82.7855 21.5947 82.5348 21.6853 82.1721 21.728L81.6921 21.776C81.0628 21.84 80.5988 22.0533 80.3001 22.416C80.0121 22.7787 79.8681 23.232 79.8681 23.776V27.136C79.8681 27.4453 79.7721 27.6853 79.5801 27.856C79.3881 28.016 79.1481 28.096 78.8601 28.096C78.5721 28.096 78.3321 28.016 78.1401 27.856C77.9588 27.6853 77.8681 27.4453 77.8681 27.136V20.944C77.8681 20.6453 77.9588 20.416 78.1401 20.256C78.3321 20.096 78.5668 20.016 78.8441 20.016C79.1215 20.016 79.3455 20.096 79.5161 20.256C79.6868 20.4053 79.7721 20.624 79.7721 20.912V21.552C79.9748 21.0827 80.2735 20.72 80.6681 20.464C81.0735 20.208 81.5215 20.064 82.0121 20.032L82.2361 20.016ZM89.5369 28.096C89.2275 28.096 88.9769 28.0053 88.7849 27.824C88.6035 27.632 88.5129 27.376 88.5129 27.056V17.696C88.5129 17.3867 88.5982 17.1467 88.7689 16.976C88.9502 16.8053 89.1955 16.72 89.5049 16.72H93.4409C94.6462 16.72 95.5849 17.024 96.2569 17.632C96.9289 18.2293 97.2649 19.072 97.2649 20.16C97.2649 21.248 96.9289 22.096 96.2569 22.704C95.5849 23.312 94.6462 23.616 93.4409 23.616H90.5769V27.056C90.5769 27.376 90.4809 27.632 90.2889 27.824C90.1075 28.0053 89.8569 28.096 89.5369 28.096ZM93.1849 22.032C94.6035 22.032 95.3129 21.4133 95.3129 20.176C95.3129 18.9387 94.6035 18.32 93.1849 18.32H90.5769V22.032H93.1849ZM103.111 20.016C103.388 19.9947 103.607 20.0533 103.767 20.192C103.927 20.3307 104.007 20.5387 104.007 20.816C104.007 21.104 103.938 21.3173 103.799 21.456C103.66 21.5947 103.41 21.6853 103.047 21.728L102.567 21.776C101.938 21.84 101.474 22.0533 101.175 22.416C100.887 22.7787 100.743 23.232 100.743 23.776V27.136C100.743 27.4453 100.647 27.6853 100.455 27.856C100.263 28.016 100.023 28.096 99.7351 28.096C99.4471 28.096 99.2071 28.016 99.0151 27.856C98.8338 27.6853 98.7431 27.4453 98.7431 27.136V20.944C98.7431 20.6453 98.8338 20.416 99.0151 20.256C99.2071 20.096 99.4418 20.016 99.7191 20.016C99.9965 20.016 100.22 20.096 100.391 20.256C100.562 20.4053 100.647 20.624 100.647 20.912V21.552C100.85 21.0827 101.148 20.72 101.543 20.464C101.948 20.208 102.396 20.064 102.887 20.032L103.111 20.016ZM108.28 28.128C107.48 28.128 106.776 27.9627 106.168 27.632C105.571 27.3013 105.107 26.8267 104.776 26.208C104.445 25.5893 104.28 24.8693 104.28 24.048C104.28 23.2267 104.445 22.512 104.776 21.904C105.107 21.2853 105.571 20.8107 106.168 20.48C106.776 20.1493 107.48 19.984 108.28 19.984C109.08 19.984 109.779 20.1493 110.376 20.48C110.984 20.8107 111.448 21.2853 111.768 21.904C112.099 22.512 112.264 23.2267 112.264 24.048C112.264 24.8693 112.099 25.5893 111.768 26.208C111.448 26.8267 110.984 27.3013 110.376 27.632C109.779 27.9627 109.08 28.128 108.28 28.128ZM108.264 26.576C108.915 26.576 109.411 26.3627 109.752 25.936C110.093 25.5093 110.264 24.88 110.264 24.048C110.264 23.2267 110.093 22.6027 109.752 22.176C109.411 21.7387 108.92 21.52 108.28 21.52C107.64 21.52 107.144 21.7387 106.792 22.176C106.451 22.6027 106.28 23.2267 106.28 24.048C106.28 24.88 106.451 25.5093 106.792 25.936C107.133 26.3627 107.624 26.576 108.264 26.576ZM120.443 16.64C120.742 16.64 120.987 16.7253 121.179 16.896C121.371 17.0667 121.467 17.2907 121.467 17.568V27.136C121.467 27.424 121.376 27.6533 121.195 27.824C121.014 27.9947 120.774 28.08 120.475 28.08C120.176 28.08 119.936 27.9947 119.755 27.824C119.574 27.6533 119.483 27.424 119.483 27.136V26.736C119.248 27.1733 118.907 27.5147 118.459 27.76C118.022 28.0053 117.52 28.128 116.955 28.128C116.283 28.128 115.68 27.9573 115.147 27.616C114.624 27.2747 114.214 26.7947 113.915 26.176C113.627 25.5467 113.483 24.8267 113.483 24.016C113.483 23.2053 113.627 22.496 113.915 21.888C114.214 21.28 114.624 20.8107 115.147 20.48C115.67 20.1493 116.272 19.984 116.955 19.984C117.52 19.984 118.022 20.1013 118.459 20.336C118.896 20.5707 119.232 20.9013 119.467 21.328V17.536C119.467 17.2693 119.552 17.056 119.723 16.896C119.904 16.7253 120.144 16.64 120.443 16.64ZM117.483 26.576C118.123 26.576 118.614 26.3573 118.955 25.92C119.307 25.4827 119.483 24.8587 119.483 24.048C119.483 23.2373 119.307 22.6187 118.955 22.192C118.614 21.7547 118.128 21.536 117.499 21.536C116.859 21.536 116.363 21.7493 116.011 22.176C115.659 22.6027 115.483 23.216 115.483 24.016C115.483 24.8267 115.659 25.456 116.011 25.904C116.363 26.352 116.854 26.576 117.483 26.576ZM129.7 20.016C130.01 20.016 130.255 20.1013 130.436 20.272C130.618 20.4427 130.708 20.672 130.708 20.96V27.168C130.708 27.4453 130.612 27.6693 130.42 27.84C130.239 28.0107 129.999 28.096 129.7 28.096C129.412 28.096 129.183 28.016 129.012 27.856C128.842 27.696 128.756 27.4773 128.756 27.2V26.8C128.511 27.2267 128.18 27.5573 127.764 27.792C127.348 28.016 126.879 28.128 126.356 28.128C124.436 28.128 123.476 27.0507 123.476 24.896V20.96C123.476 20.672 123.567 20.4427 123.748 20.272C123.93 20.1013 124.17 20.016 124.468 20.016C124.778 20.016 125.023 20.1013 125.204 20.272C125.386 20.4427 125.476 20.672 125.476 20.96V24.912C125.476 25.4667 125.588 25.8773 125.812 26.144C126.036 26.4107 126.388 26.544 126.868 26.544C127.423 26.544 127.866 26.3627 128.196 26C128.538 25.6267 128.708 25.136 128.708 24.528V20.96C128.708 20.672 128.799 20.4427 128.98 20.272C129.162 20.1013 129.402 20.016 129.7 20.016ZM136.262 28.128C135.483 28.128 134.795 27.9627 134.198 27.632C133.611 27.3013 133.158 26.832 132.838 26.224C132.518 25.616 132.358 24.9067 132.358 24.096C132.358 23.2853 132.523 22.5707 132.854 21.952C133.195 21.3227 133.67 20.8373 134.278 20.496C134.886 20.1547 135.585 19.984 136.374 19.984C136.79 19.984 137.206 20.0427 137.622 20.16C138.049 20.2773 138.422 20.4373 138.742 20.64C139.083 20.864 139.254 21.1467 139.254 21.488C139.254 21.7227 139.195 21.9147 139.078 22.064C138.971 22.2027 138.827 22.272 138.646 22.272C138.529 22.272 138.406 22.2453 138.278 22.192C138.15 22.1387 138.022 22.0747 137.894 22C137.659 21.8613 137.435 21.7547 137.222 21.68C137.009 21.5947 136.763 21.552 136.486 21.552C135.825 21.552 135.313 21.7707 134.95 22.208C134.598 22.6347 134.422 23.2533 134.422 24.064C134.422 24.864 134.598 25.4827 134.95 25.92C135.313 26.3467 135.825 26.56 136.486 26.56C136.753 26.56 136.987 26.5227 137.19 26.448C137.403 26.3627 137.638 26.2507 137.894 26.112C138.054 26.016 138.193 25.9467 138.31 25.904C138.427 25.8507 138.545 25.824 138.662 25.824C138.833 25.824 138.977 25.8987 139.094 26.048C139.211 26.1973 139.27 26.384 139.27 26.608C139.27 26.7893 139.227 26.9493 139.142 27.088C139.067 27.216 138.939 27.3333 138.758 27.44C138.427 27.6533 138.043 27.824 137.606 27.952C137.169 28.0693 136.721 28.128 136.262 28.128ZM144.713 26.608C145.247 26.64 145.513 26.88 145.513 27.328C145.513 27.584 145.407 27.7813 145.193 27.92C144.991 28.048 144.697 28.1013 144.313 28.08L143.881 28.048C142.089 27.92 141.193 26.96 141.193 25.168V21.68H140.393C140.105 21.68 139.881 21.616 139.721 21.488C139.572 21.36 139.497 21.1733 139.497 20.928C139.497 20.6827 139.572 20.496 139.721 20.368C139.881 20.24 140.105 20.176 140.393 20.176H141.193V18.704C141.193 18.416 141.284 18.1867 141.465 18.016C141.647 17.8453 141.892 17.76 142.201 17.76C142.5 17.76 142.74 17.8453 142.921 18.016C143.103 18.1867 143.193 18.416 143.193 18.704V20.176H144.553C144.841 20.176 145.06 20.24 145.209 20.368C145.369 20.496 145.449 20.6827 145.449 20.928C145.449 21.1733 145.369 21.36 145.209 21.488C145.06 21.616 144.841 21.68 144.553 21.68H143.193V25.312C143.193 26.1013 143.556 26.5227 144.281 26.576L144.713 26.608ZM150.124 28.128C149.324 28.128 148.62 27.9627 148.012 27.632C147.414 27.3013 146.95 26.8267 146.62 26.208C146.289 25.5893 146.124 24.8693 146.124 24.048C146.124 23.2267 146.289 22.512 146.62 21.904C146.95 21.2853 147.414 20.8107 148.012 20.48C148.62 20.1493 149.324 19.984 150.124 19.984C150.924 19.984 151.622 20.1493 152.22 20.48C152.828 20.8107 153.292 21.2853 153.612 21.904C153.942 22.512 154.108 23.2267 154.108 24.048C154.108 24.8693 153.942 25.5893 153.612 26.208C153.292 26.8267 152.828 27.3013 152.22 27.632C151.622 27.9627 150.924 28.128 150.124 28.128ZM150.108 26.576C150.758 26.576 151.254 26.3627 151.596 25.936C151.937 25.5093 152.108 24.88 152.108 24.048C152.108 23.2267 151.937 22.6027 151.596 22.176C151.254 21.7387 150.764 21.52 150.124 21.52C149.484 21.52 148.988 21.7387 148.636 22.176C148.294 22.6027 148.124 23.2267 148.124 24.048C148.124 24.88 148.294 25.5093 148.636 25.936C148.977 26.3627 149.468 26.576 150.108 26.576Z" fill="white"/>
</g>
<defs>
<filter id="filter0_d" x="0.5" y="0.5" width="169" height="45" filterUnits="userSpaceOnUse" color-interpolation-filters="sRGB">
<feFlood flood-opacity="0" result="BackgroundImageFix"/>
<feColorMatrix in="SourceAlpha" type="matrix" values="0 0 0 0 0 0 0 0 0 0 0 0 0 0 0 0 0 0 127 0"/>
<feMorphology radius="0.5" operator="dilate" in="SourceAlpha" result="effect1_dropShadow"/>
<feOffset/>
<feGaussianBlur stdDeviation="1"/>
<feColorMatrix type="matrix" values="0 0 0 0 0 0 0 0 0 0 0 0 0 0 0 0 0 0 0.2 0"/>
<feBlend mode="normal" in2="BackgroundImageFix" result="effect1_dropShadow"/>
<feBlend mode="normal" in="SourceGraphic" in2="effect1_dropShadow" result="shape"/>
</filter>
</defs>
</svg>
