<svg width="36" height="36" viewBox="0 0 36 36" fill="none" xmlns="http://www.w3.org/2000/svg">
<rect width="36" height="36" rx="4" fill="#F1CC53"/>
<path d="M26.1651 14.0601L24.0251 20.8201C23.8651 21.3001 23.4451 21.6201 22.9451 21.6201H14.6851C14.2051 21.6201 13.7451 21.3201 13.5851 20.88L10.4451 12.4201H8.60511C8.16511 12.4201 7.80511 12.0601 7.80511 11.6201C7.80511 11.1801 8.16511 10.8201 8.60511 10.8201H10.9851C11.3251 10.8201 11.6251 11.0401 11.7451 11.3601L15.0051 20.0001H22.6051L24.3051 14.6001H14.8851C14.4451 14.6001 14.0851 14.2401 14.0851 13.8001C14.0851 13.3601 14.4451 13.0001 14.8851 13.0001H25.4051C25.6651 13.0001 25.9051 13.1401 26.0451 13.3401C26.2051 13.5401 26.2451 13.8201 26.1651 14.0601ZM15.0851 22.6601C14.7451 22.6601 14.4051 22.8001 14.1651 23.0401C13.9251 23.2801 13.7851 23.6201 13.7851 23.9601C13.7851 24.3001 13.9251 24.64 14.1651 24.8801C14.4051 25.1201 14.7451 25.2601 15.0851 25.2601C15.4251 25.2601 15.7651 25.1201 16.0051 24.8801C16.2451 24.64 16.3851 24.3001 16.3851 23.9601C16.3851 23.6201 16.2451 23.2801 16.0051 23.0401C15.7651 22.8001 15.4251 22.6601 15.0851 22.6601ZM22.2651 22.6601C21.9251 22.6601 21.5851 22.8001 21.3451 23.0401C21.1051 23.2801 20.9651 23.6201 20.9651 23.9601C20.9651 24.3001 21.1051 24.64 21.3451 24.8801C21.5851 25.1201 21.9251 25.2601 22.2651 25.2601C22.6051 25.2601 22.9451 25.1201 23.1851 24.8801C23.4251 24.64 23.5651 24.3001 23.5651 23.9601C23.5651 23.6201 23.4251 23.2801 23.1851 23.0401C22.9451 22.8001 22.6051 22.6601 22.2651 22.6601Z" fill="#381A56"/>
</svg>
