<svg width="21" height="17" viewBox="0 0 21 17" fill="none" xmlns="http://www.w3.org/2000/svg">
<path d="M20.655 3.64499L18.2475 11.25C18.0675 11.79 17.595 12.15 17.0325 12.15H7.74C7.2 12.15 6.6825 11.8125 6.5025 11.3175L2.97 1.8H0.9C0.405 1.8 0 1.395 0 0.9C0 0.405 0.405 0 0.9 0H3.5775C3.96 0 4.2975 0.247489 4.4325 0.607489L8.1 10.3275H16.65L18.5625 4.25248H7.965C7.47 4.25248 7.065 3.84748 7.065 3.35248C7.065 2.85748 7.47 2.45248 7.965 2.45248H19.8C20.0925 2.45248 20.3625 2.60997 20.52 2.83497C20.7 3.05997 20.745 3.37499 20.655 3.64499ZM8.19 13.32C7.8075 13.32 7.425 13.4775 7.155 13.7475C6.885 14.0175 6.7275 14.4 6.7275 14.7825C6.7275 15.165 6.885 15.5475 7.155 15.8175C7.425 16.0875 7.8075 16.245 8.19 16.245C8.5725 16.245 8.955 16.0875 9.225 15.8175C9.495 15.5475 9.6525 15.165 9.6525 14.7825C9.6525 14.4 9.495 14.0175 9.225 13.7475C8.955 13.4775 8.5725 13.32 8.19 13.32ZM16.2675 13.32C15.885 13.32 15.5025 13.4775 15.2325 13.7475C14.9625 14.0175 14.805 14.4 14.805 14.7825C14.805 15.165 14.9625 15.5475 15.2325 15.8175C15.5025 16.0875 15.885 16.245 16.2675 16.245C16.65 16.245 17.0325 16.0875 17.3025 15.8175C17.5725 15.5475 17.73 15.165 17.73 14.7825C17.73 14.4 17.5725 14.0175 17.3025 13.7475C17.0325 13.4775 16.65 13.32 16.2675 13.32Z" fill="#7F7F7F"/>
</svg>
