<svg width="26" height="15" viewBox="0 0 26 15" fill="none" xmlns="http://www.w3.org/2000/svg">
<path d="M7.83965 11.3202L4.69977 14.46C4.53977 14.62 4.33976 14.7 4.13976 14.7C3.93976 14.7 3.73975 14.62 3.57975 14.46L0.239932 11.7002C-0.0800679 11.3802 -0.079932 10.8802 0.240068 10.5602C0.560068 10.2402 1.05995 10.2402 1.37995 10.5602L3.35975 11.96V0.700195C3.35975 0.260195 3.71975 0.200195 4.15975 0.200195C4.59975 0.200195 4.95975 0.260195 4.95975 0.700195V11.98L6.73965 10.2002C7.05965 9.8802 7.51965 9.8802 7.83965 10.2002C8.11965 10.5002 8.15965 11.0002 7.83965 11.3202Z" fill="#381A56"/>
<path d="M24.2049 1.6H9.80488C9.36488 1.6 9.00488 1.24 9.00488 0.8C9.00488 0.36 9.36488 0 9.80488 0H24.2049C24.6449 0 25.0049 0.36 25.0049 0.8C25.0049 1.24 24.6449 1.6 24.2049 1.6ZM21.9998 5.08001C21.9998 4.64001 21.6398 4.28 21.1998 4.28H9.80488C9.36488 4.28 9.00488 4.64001 9.00488 5.08001C9.00488 5.52001 9.36488 5.88 9.80488 5.88H21.1998C21.6398 5.88 21.9998 5.52001 21.9998 5.08001ZM19.7998 9.33999C19.7998 8.89999 19.4398 8.53999 18.9998 8.53999H9.80488C9.36488 8.53999 9.00488 8.89999 9.00488 9.33999C9.00488 9.77999 9.36488 10.14 9.80488 10.14H18.9998C19.4398 10.14 19.7998 9.77999 19.7998 9.33999ZM17.8049 13.6C17.8049 13.16 17.4449 12.8 17.0049 12.8H9.86489C9.42489 12.8 9.06489 13.16 9.06489 13.6C9.06489 14.04 9.42489 14.4 9.86489 14.4H17.0049C17.4449 14.4 17.8049 14.04 17.8049 13.6Z" fill="#381A56"/>
</svg>
