<svg width="13" height="16" viewBox="0 0 13 16" fill="none" xmlns="http://www.w3.org/2000/svg">
<path d="M12.4544 1.00005C12.4544 0.615049 12.1394 0.300049 11.7544 0.300049H1.25444C0.869443 0.300049 0.554443 0.615049 0.554443 1.00005V15C0.554443 15.385 0.869443 15.7 1.25444 15.7H11.7544C12.1394 15.7 12.4544 15.385 12.4544 15V1.00005ZM11.0544 14.3H1.95444V1.70005H11.0544V14.3ZM3.70444 11.7625C3.70444 11.43 3.98444 11.15 4.31694 11.15H8.48194C8.81444 11.15 9.09444 11.43 9.09444 11.7625C9.09444 12.095 8.81444 12.375 8.48194 12.375H4.31694C3.98444 12.375 3.70444 12.095 3.70444 11.7625ZM3.70444 9.31255C3.70444 8.98005 3.98444 8.70005 4.31694 8.70005H8.48194C8.81444 8.70005 9.09444 8.98005 9.09444 9.31255C9.09444 9.64505 8.81444 9.92505 8.48194 9.92505H4.31694C3.98444 9.92505 3.70444 9.64505 3.70444 9.31255ZM9.12945 4.23755C9.12945 3.90505 8.84944 3.62505 8.51694 3.62505H4.31694C3.98444 3.62505 3.70444 3.90505 3.70444 4.23755V6.68755C3.70444 7.02005 3.98444 7.30005 4.31694 7.30005H8.51694C8.84944 7.30005 9.12945 7.02005 9.12945 6.68755V4.23755ZM4.92944 4.85005H7.90444V6.07505H4.92944V4.85005Z" fill="white"/>
</svg>
