<svg width="32" height="32" viewBox="0 0 32 32" fill="none" xmlns="http://www.w3.org/2000/svg">
<path d="M14.1333 9.34006C14.1333 8.86006 14.3467 8.35339 14.6933 8.00672C15.04 7.66006 15.52 7.47339 16 7.47339C16.48 7.47339 16.96 7.68672 17.3333 8.00672C17.68 8.35339 17.8666 8.83339 17.8666 9.34006C17.8666 9.82006 17.6533 10.3001 17.3333 10.6467C16.9866 10.9934 16.5066 11.2067 16 11.2067C15.52 11.2067 15.04 10.9934 14.6933 10.6467C14.32 10.3267 14.1333 9.82006 14.1333 9.34006ZM14.6933 17.3401C15.04 17.6867 15.52 17.9 16 17.9C16.48 17.9 16.96 17.6867 17.3333 17.3401C17.68 16.9934 17.8666 16.5134 17.8666 16.0334C17.8666 15.5534 17.6533 15.0467 17.3333 14.7C16.9866 14.3534 16.5066 14.1667 16 14.1667C15.52 14.1667 15.04 14.38 14.6933 14.7C14.3467 15.0467 14.1333 15.5267 14.1333 16.0334C14.1333 16.4867 14.32 16.9934 14.6933 17.3401ZM14.6933 24.0067C15.04 24.3534 15.52 24.5667 16 24.5667C16.48 24.5667 16.96 24.3534 17.3333 24.0067C17.68 23.6601 17.8666 23.18 17.8666 22.7C17.8666 22.22 17.6533 21.7134 17.3333 21.3667C16.9866 21.02 16.5066 20.8334 16 20.8334C15.52 20.8334 15.04 21.0467 14.6933 21.3667C14.3467 21.7134 14.1333 22.1934 14.1333 22.7C14.1333 23.1534 14.32 23.6601 14.6933 24.0067Z" fill="#381A56"/>
</svg>
