<svg width="36" height="36" viewBox="0 0 36 36" fill="none" xmlns="http://www.w3.org/2000/svg">
<rect x="1" y="1" width="34" height="34" rx="3" stroke="#DEAA00" stroke-width="2"/>
<path d="M24.208 16.4C24.6133 16.4 24.944 16.5387 25.2 16.816C25.4773 17.072 25.616 17.4027 25.616 17.808C25.616 18.2133 25.4773 18.5547 25.2 18.832C24.944 19.088 24.6133 19.216 24.208 19.216H19.216V24.176C19.216 24.5813 19.0773 24.9227 18.8 25.2C18.544 25.4773 18.2133 25.616 17.808 25.616C17.4027 25.616 17.0613 25.4773 16.784 25.2C16.528 24.9227 16.4 24.5813 16.4 24.176V19.216H11.408C11.0027 19.216 10.6613 19.088 10.384 18.832C10.128 18.5547 10 18.2133 10 17.808C10 17.4027 10.128 17.072 10.384 16.816C10.6613 16.5387 11.0027 16.4 11.408 16.4H16.4V11.408C16.4 11.0027 16.528 10.672 16.784 10.416C17.0613 10.1387 17.4027 10 17.808 10C18.2133 10 18.544 10.1387 18.8 10.416C19.0773 10.672 19.216 11.0027 19.216 11.408V16.4H24.208Z" fill="#DEAA00"/>
</svg>
