<svg width="24" height="24" viewBox="0 0 24 24" fill="none" xmlns="http://www.w3.org/2000/svg">
<path d="M18.4853 8.67981L17.8653 20.2398C17.8453 20.6598 17.4853 20.9998 17.0653 20.9998H6.92527C6.50527 20.9998 6.14527 20.6598 6.12527 20.2398L5.50527 8.67981C5.48527 8.23981 5.82528 7.8598 6.26528 7.8398C6.70528 7.8198 7.08527 8.1598 7.10527 8.5998L7.68528 19.3998H16.3053L16.8853 8.5998C16.9053 8.1598 17.2853 7.8198 17.7253 7.8398C18.1653 7.8598 18.5053 8.23981 18.4853 8.67981ZM20.6053 5.9998C20.6053 6.4398 20.2453 6.7998 19.8053 6.7998H4.20527C3.76527 6.7998 3.40527 6.4398 3.40527 5.9998C3.40527 5.5598 3.76527 5.1998 4.20527 5.1998H8.60527V3.3998C8.60527 3.0198 8.86526 2.7998 9.24526 2.7998H14.7653C15.1453 2.7998 15.4053 3.0198 15.4053 3.3998V5.1998H19.8053C20.2453 5.1998 20.6053 5.5598 20.6053 5.9998ZM10.0053 5.1998H14.0053V4.1998H10.0053V5.1998ZM10.3453 18.1998C10.7453 18.1998 11.0453 17.8198 11.0453 17.4398L10.8453 8.7998C10.8453 8.4198 10.5253 8.0998 10.1253 8.0998C9.74527 8.0998 9.42526 8.4198 9.44526 8.8198L9.64526 17.4798C9.64526 17.8598 9.96526 18.1998 10.3453 18.1998ZM13.6453 18.1998C14.0253 18.1998 14.3453 17.8798 14.3453 17.4998L14.5453 8.85981C14.5453 8.47981 14.2453 8.13979 13.8653 8.13979C13.4653 8.13979 13.1653 8.4398 13.1453 8.8198L12.9453 17.4598C12.9253 17.8598 13.2453 18.1998 13.6453 18.1998C13.6253 18.1998 13.6253 18.1998 13.6453 18.1998Z" fill="#7F7F7F"/>
</svg>
