<svg width="24" height="24" viewBox="0 0 24 24" fill="none" xmlns="http://www.w3.org/2000/svg">
<path d="M9.63503 3.26001C13.055 3.26001 15.835 6.08001 15.835 9.52001C15.835 10.98 15.335 12.3 14.515 13.38L20.395 19.32C20.735 19.68 20.735 20.24 20.395 20.58C20.215 20.76 19.995 20.84 19.775 20.84C19.535 20.84 19.315 20.76 19.135 20.58L13.255 14.62C12.235 15.36 10.995 15.78 9.65502 15.78C6.23502 15.78 3.45502 12.96 3.45502 9.52001C3.43502 6.06001 6.21503 3.26001 9.63503 3.26001ZM9.63503 14.2C12.175 14.2 14.235 12.1 14.235 9.52001C14.235 6.94001 12.175 4.84001 9.63503 4.84001C7.09503 4.84001 5.03503 6.94001 5.03503 9.52001C5.03503 12.1 7.09503 14.2 9.63503 14.2ZM6.53503 9.60001C6.57503 9.94001 6.87502 10.2 7.21502 10.2C7.25502 10.2 7.27502 10.2 7.31502 10.2C7.69502 10.14 7.95503 9.80001 7.91503 9.42001C7.77503 8.38001 8.93503 7.84001 8.99503 7.82001C9.33503 7.66001 9.49503 7.24001 9.33503 6.90001C9.17503 6.56001 8.77503 6.40001 8.41503 6.54001C8.33503 6.56001 6.25503 7.52001 6.53503 9.60001ZM7.99503 11.12C7.85503 11.26 7.75502 11.48 7.75502 11.68C7.75502 11.9 7.83503 12.1 7.99503 12.24C8.13503 12.38 8.35502 12.48 8.55502 12.48C8.75502 12.48 8.97503 12.4 9.11503 12.24C9.25503 12.1 9.35502 11.88 9.35502 11.68C9.35502 11.48 9.27503 11.26 9.11503 11.12C8.97503 10.98 8.75502 10.88 8.55502 10.88C8.35502 10.88 8.15503 10.96 7.99503 11.12Z" fill="#381A56"/>
</svg>
