<svg width="25" height="20" viewBox="0 0 25 20" fill="none" xmlns="http://www.w3.org/2000/svg">
<path d="M21.4233 6.2075L18.9263 14.0957C18.7396 14.6559 18.2495 15.0293 17.6661 15.0293H8.02791C7.46782 15.0293 6.93107 14.6791 6.74438 14.1657L3.08048 4.29379H0.933478C0.420065 4.29379 0 3.87371 0 3.36028C0 2.84684 0.420065 2.42676 0.933478 2.42676H3.71057C4.1073 2.42676 4.45736 2.68346 4.59738 3.05687L8.4013 13.1389H17.2693L19.253 6.83761H5.53086C5.01745 6.83761 4.59738 6.41753 4.59738 5.90409C4.59738 5.39066 5.01745 4.97057 5.53086 4.97057H20.5365C20.8399 4.97057 21.1199 5.13393 21.2833 5.36731C21.47 5.60069 21.5167 5.92744 21.4233 6.2075ZM8.49465 16.2428C8.09792 16.2428 7.70119 16.4062 7.42115 16.6862C7.14111 16.9663 6.97775 17.363 6.97775 17.7598C6.97775 18.1565 7.14111 18.5532 7.42115 18.8333C7.70119 19.1134 8.09792 19.2768 8.49465 19.2768C8.89138 19.2768 9.28811 19.1134 9.56815 18.8333C9.84819 18.5532 10.0116 18.1565 10.0116 17.7598C10.0116 17.363 9.84819 16.9663 9.56815 16.6862C9.28811 16.4062 8.89138 16.2428 8.49465 16.2428ZM16.8726 16.2428C16.4759 16.2428 16.0792 16.4062 15.7991 16.6862C15.5191 16.9663 15.3557 17.363 15.3557 17.7598C15.3557 18.1565 15.5191 18.5532 15.7991 18.8333C16.0792 19.1134 16.4759 19.2768 16.8726 19.2768C17.2693 19.2768 17.6661 19.1134 17.9461 18.8333C18.2262 18.5532 18.3895 18.1565 18.3895 17.7598C18.3895 17.363 18.2262 16.9663 17.9461 16.6862C17.6661 16.4062 17.2693 16.2428 16.8726 16.2428Z" fill="#381A56"/>
<path d="M8.31402 14.3057L4.81348 5.99158L20.1284 6.42916L17.5029 14.3057H8.31402Z" fill="#381A56"/>
<circle cx="21" cy="4" r="3.5" fill="#F1CC53" stroke="white"/>
</svg>
