<svg width="19" height="18" viewBox="0 0 19 18" fill="none" xmlns="http://www.w3.org/2000/svg">
<path d="M8.02 10.7C8.02 10.32 7.7 10 7.32 10H4.72C4.34 10 4.02 10.32 4.02 10.7V13.3C4.02 13.68 4.34 14 4.72 14H7.32C7.7 14 8.02 13.68 8.02 13.3V10.7ZM5.42 11.4H6.62V12.6H5.42V11.4ZM18.2 4.67998L16.42 2.87998V0.8C16.42 0.36 16.06 0 15.6 0H2.82C2.38 0 2 0.36 2 0.8V2.87998L0.22 4.67998C0.08 4.81998 4.88281e-06 5.04004 4.88281e-06 5.24004V7.27998C4.88281e-06 7.71998 0.360005 8.02002 0.800005 8.02002H17.6C18.04 8.02002 18.4 7.73998 18.4 7.27998V5.24004C18.42 5.02004 18.34 4.81998 18.2 4.67998ZM14.82 1.6V2.6H3.62V1.6H14.82ZM16.82 6.4H1.62V5.55996L3.26 4H15.18L16.82 5.55996V6.4V6.4ZM17.22 9.62002V16.8C17.22 17.24 16.86 17.6 16.42 17.6H13.68C13.24 17.6 12.88 17.28 12.88 16.84V12.6H11.02V16.8C11.02 17.24 10.64 17.6 10.2 17.6H2.02C1.58 17.6 1.2 17.24 1.2 16.8V9.62002C1.2 9.18002 1.56 8.82002 2 8.82002C2.44001 8.82002 2.80001 9.18002 2.80001 9.62002V16H9.4V11.72C9.4 11.28 9.74 11 10.18 11H13.64C14.08 11 14.38 11.28 14.38 11.72V16H15.58V9.62002C15.58 9.18002 15.94 8.82002 16.38 8.82002C16.82 8.82002 17.22 9.18002 17.22 9.62002Z" fill="#7F7F7F"/>
</svg>
