<svg width="24" height="24" viewBox="0 0 24 24" fill="none" xmlns="http://www.w3.org/2000/svg">
<path d="M20.4052 4H3.60518C3.16518 4 2.80518 4.36 2.80518 4.8V15.02C2.80518 15.46 3.16518 15.8 3.60518 15.8H13.0052V19.2C13.0052 19.54 13.2652 19.84 13.5652 19.96C13.6652 20 13.7652 20 13.8652 20C14.1052 20 14.3252 19.9 14.4852 19.72L17.8052 15.8H20.4052C20.8452 15.8 21.2052 15.46 21.2052 15.02V4.8C21.2052 4.36 20.8452 4 20.4052 4ZM6.52517 8.4C6.52517 7.96 6.88517 7.6 7.32517 7.6H13.1252C13.5652 7.6 13.9252 7.96 13.9252 8.4C13.9252 8.84 13.5652 9.2 13.1252 9.2H7.32517C6.88517 9.2 6.52517 8.84 6.52517 8.4ZM15.3052 9.02C15.1652 8.88 15.0652 8.66001 15.0652 8.46001C15.0652 8.24001 15.1452 8.04 15.3052 7.9C15.4652 7.74 15.6652 7.66001 15.8652 7.66001C16.0852 7.66001 16.2852 7.74 16.4252 7.9C16.5652 8.04 16.6652 8.26001 16.6652 8.46001C16.6652 8.68001 16.5852 8.88 16.4252 9.02C16.2652 9.18 16.0652 9.26001 15.8652 9.26001C15.6652 9.24001 15.4652 9.16 15.3052 9.02Z" fill="#381A56"/>
</svg>
