<svg width="23" height="22" viewBox="0 0 23 22" fill="none" xmlns="http://www.w3.org/2000/svg">
<path d="M11.5 13.8301C15.2 13.8301 18.225 10.7311 18.225 6.91504C18.225 3.09898 15.2 2.50109e-05 11.5 2.50109e-05C7.8 2.50109e-05 4.775 3.09898 4.775 6.91504C4.775 10.7311 7.8 13.8301 11.5 13.8301ZM11.5 2.02328C14.1 2.02328 16.225 4.20023 16.225 6.88941C16.225 9.57858 14.1 11.7555 11.5 11.7555C8.9 11.7555 6.775 9.57858 6.775 6.88941C6.775 4.20023 8.9 2.02328 11.5 2.02328ZM14.625 14.4959C14.3 14.3935 13.925 14.4703 13.675 14.7008L11.5 16.596L9.325 14.7008C9.05 14.4703 8.7 14.3935 8.375 14.4959C6.975 14.9569 0 17.4156 0 20.9756C0 21.539 0.45 22 1 22H22C22.55 22 23 21.539 23 20.9756C23 17.4156 16.025 14.9569 14.625 14.4959ZM2.525 19.9511C3.625 18.7474 6.275 17.4156 8.475 16.6473L10.85 18.7218C11.225 19.0547 11.775 19.0547 12.15 18.7218L14.525 16.6473C16.725 17.4412 19.375 18.773 20.475 19.9511H2.525Z" fill="#333333"/>
</svg>
