<svg width="22" height="22" viewBox="0 0 22 22" fill="none" xmlns="http://www.w3.org/2000/svg">
<path d="M9.90464 12.7417C9.90464 12.3933 9.61131 12.1 9.26298 12.1H6.87964C6.53131 12.1 6.23798 12.3933 6.23798 12.7417V15.125C6.23798 15.4733 6.53131 15.7667 6.87964 15.7667H9.26298C9.61131 15.7667 9.90464 15.4733 9.90464 15.125V12.7417ZM7.52131 13.3833H8.62131V14.4833H7.52131V13.3833ZM19.2363 7.22333L17.6046 5.57333V3.66668C17.6046 3.26335 17.2746 2.93335 16.853 2.93335H5.13798C4.73465 2.93335 4.38632 3.26335 4.38632 3.66668V5.57333L2.75465 7.22333C2.62631 7.35166 2.55298 7.55338 2.55298 7.73672V9.60666C2.55298 10.01 2.88298 10.285 3.28632 10.285H18.6863C19.0896 10.285 19.4196 10.0283 19.4196 9.60666V7.73672C19.438 7.53505 19.3646 7.35166 19.2363 7.22333ZM16.138 4.40002V5.31668H5.87131V4.40002H16.138ZM17.9713 8.80002H4.03798V8.02998L5.54131 6.60002H16.468L17.9713 8.02998V8.80002ZM18.338 11.7517V18.3333C18.338 18.7367 18.008 19.0667 17.6046 19.0667H15.093C14.6896 19.0667 14.3596 18.7734 14.3596 18.37V14.4833H12.6546V18.3333C12.6546 18.7367 12.3063 19.0667 11.903 19.0667H4.40465C4.00131 19.0667 3.65298 18.7367 3.65298 18.3333V11.7517C3.65298 11.3484 3.98298 11.0184 4.38632 11.0184C4.78965 11.0184 5.11965 11.3484 5.11965 11.7517V17.6H11.1696V13.6767C11.1696 13.2734 11.4813 13.0167 11.8846 13.0167H15.0563C15.4596 13.0167 15.7346 13.2734 15.7346 13.6767V17.6H16.8346V11.7517C16.8346 11.3484 17.1646 11.0184 17.568 11.0184C17.9713 11.0184 18.338 11.3484 18.338 11.7517Z" fill="#333333"/>
</svg>
