<svg width="27" height="34" viewBox="0 0 27 34" fill="none" xmlns="http://www.w3.org/2000/svg">
<path d="M5.83637 0.00460157C5.83637 0.00460157 0 -0.362974 0 5.47236V29.3651C0 29.3651 1.43051e-06 35.2004 5.65254 33.776L21.2775 29.7786C21.2775 29.7786 26.93 28.3083 26.93 22.4729V7.21837C26.93 7.21837 26.93 1.38303 21.0936 0.969502L5.83637 0.00460157Z" fill="#857AB0"/>
<path d="M23.8963 19.2114C23.7585 19.0735 23.5747 18.9357 23.3908 18.8438C21.9202 17.8329 20.4956 16.7761 19.025 15.7653C18.7953 15.5815 18.5195 15.4896 18.3817 15.168C18.4276 14.9842 18.4736 14.8004 18.5195 14.6166C18.9791 12.9166 19.4387 11.2624 19.8982 9.56239C19.9901 9.24076 20.0361 8.91912 20.0361 8.64344C20.0361 8.32181 19.7603 8.13801 19.4387 8.13801C19.3008 8.13801 19.1629 8.18395 19.071 8.2299C18.3817 8.50559 17.6923 8.78128 17.003 9.05696C16.5894 9.24075 16.2677 9.51644 16.1298 9.92996C15.992 10.3435 15.8541 10.757 15.7622 11.1246C15.3946 12.5949 15.0269 14.0652 14.6133 15.4896C14.5674 15.6275 14.4754 15.7653 14.3835 15.9491C14.2457 15.5815 14.1078 15.3058 14.0159 15.0761C13.0968 12.6409 12.1777 10.1597 11.2585 7.72448C11.1207 7.31095 10.9369 6.89743 10.799 6.4839C10.4313 5.519 9.78797 5.24332 8.86886 5.79469C7.1685 6.80553 5.42218 7.77043 3.67587 8.73533C3.538 8.82722 3.40014 8.87317 3.26227 9.01101C2.89463 9.33265 2.80271 9.65427 3.1244 10.0678C3.49205 10.5273 3.8597 10.9408 4.22734 11.4003C4.2733 11.4462 4.31925 11.4922 4.41116 11.5381C4.64094 11.7219 4.87072 11.7679 5.14645 11.63C5.56006 11.4003 5.9277 11.1706 6.3413 10.9408C6.61703 10.757 6.93872 10.6192 7.26041 10.4354C7.35232 10.6192 7.44423 10.803 7.53615 10.9408C7.85784 11.7219 8.13357 12.4571 8.45526 13.2382C9.55819 16.041 10.6611 18.8438 11.7641 21.6925C11.856 21.9223 11.856 22.152 12.1317 22.2898C12.3155 22.152 12.4994 22.0601 12.6832 21.9682C14.0159 21.2331 15.5324 21.6925 16.1758 23.071C16.2677 23.3007 16.3137 23.5304 16.4056 23.7602C16.4515 23.8521 16.4056 23.9899 16.5894 23.9899C16.6354 23.944 16.7273 23.898 16.7732 23.8521C17.049 23.4845 17.049 23.071 16.8651 22.6574C16.5894 21.9223 16.3137 21.2331 16.0379 20.4979C15.992 20.3141 15.9001 20.1303 15.9001 19.9465C15.992 19.5789 16.0379 19.1654 16.3137 18.8438C16.5434 18.9816 16.6813 19.0735 16.8651 19.2114C17.6923 19.8087 18.4736 20.406 19.3008 21.0033C19.5306 21.1412 19.7144 21.325 19.9442 21.4628C20.4497 21.7844 21.0011 21.8304 21.5067 21.5087C22.15 21.1871 22.7934 20.8195 23.3908 20.4979C23.5747 20.406 23.7125 20.3141 23.8504 20.1763C24.218 19.8546 24.218 19.4871 23.8963 19.2114Z" fill="white"/>
<path d="M14.6137 26.149C15.2112 25.7354 15.4869 25.1841 15.5328 24.357C15.5328 24.1273 15.4409 23.8516 15.3031 23.5759C14.8895 22.7029 13.8784 22.4732 13.0512 22.9326C12.1321 23.4381 11.7645 24.7246 12.27 25.6436C12.7755 26.4247 13.8325 26.7003 14.6137 26.149Z" fill="white"/>
<path d="M13.3268 28.4461C12.7753 28.4461 12.2698 28.3083 11.7184 28.0326C9.00697 26.2866 10.3856 23.1162 10.3856 23.1162C10.4316 22.9784 10.6154 22.8865 10.7533 22.9784C10.8912 23.0243 10.9831 23.2081 10.8912 23.346C10.8452 23.4379 9.69631 26.0569 11.9941 27.5272C13.5566 28.3543 15.3029 27.6191 16.3139 25.7352C16.4058 25.5974 16.5896 25.5515 16.7275 25.5974C16.8654 25.6893 16.9113 25.8731 16.8654 26.0109C16.0382 27.5732 14.7055 28.4461 13.3268 28.4461Z" fill="white"/>
</svg>
