<svg width="177" height="45" viewBox="0 0 177 45" fill="none" xmlns="http://www.w3.org/2000/svg">
<path d="M90.8115 26.3989C90.8294 27.9742 90.5804 29.5414 90.0749 31.0348C89.6339 32.3506 88.9258 33.5627 87.9943 34.5964C87.1773 35.5079 86.175 36.2374 85.0534 36.7371C83.9308 37.2403 82.7124 37.4988 81.4805 37.4952C80.4769 37.5065 79.4762 37.3873 78.5039 37.1407C77.5593 36.8849 76.6487 36.5187 75.7912 36.0499V44.7982H72.2264V16.2106H75.7802V18.3923C76.7467 17.5943 77.8184 16.931 78.9656 16.4206C80.1483 15.893 81.4316 15.6242 82.7283 15.6325C85.2733 15.6325 87.255 16.5824 88.6732 18.4823C90.0914 20.3821 90.8041 23.021 90.8115 26.3989ZM87.145 26.4916C87.145 23.9736 86.7099 22.092 85.8395 20.8466C84.9692 19.6013 83.6334 18.9786 81.8323 18.9786C80.7699 18.9886 79.7206 19.2131 78.7485 19.6385C77.6914 20.0887 76.6945 20.6666 75.7802 21.3593V33.1919C76.6148 33.5805 77.4856 33.8874 78.3802 34.1082C79.1932 34.2794 80.0228 34.3608 80.8538 34.3509C82.8327 34.3509 84.3764 33.6901 85.485 32.3684C86.5935 31.0467 87.1459 29.0886 87.1423 26.4943L87.145 26.4916Z" fill="white"/>
<path d="M111.466 26.6605C111.466 30.0621 110.584 32.7482 108.819 34.7189C107.055 36.6897 104.692 37.6741 101.731 37.6723C98.7444 37.6723 96.3716 36.6879 94.6126 34.7189C92.8536 32.75 91.9741 30.0639 91.9741 26.6605C91.9741 23.259 92.8536 20.5701 94.6126 18.5939C96.3716 16.6177 98.7444 15.6296 101.731 15.6296C104.692 15.6296 107.055 16.6177 108.819 18.5939C110.584 20.5701 111.466 23.259 111.466 26.6605ZM107.8 26.6605C107.8 23.9571 107.264 21.9473 106.192 20.631C105.12 19.3148 103.633 18.6576 101.731 18.6594C99.8035 18.6594 98.3065 19.3166 97.2401 20.631C96.1737 21.9455 95.6423 23.9553 95.646 26.6605C95.646 29.2785 96.1819 31.2629 97.2538 32.6137C98.3257 33.9645 99.819 34.6408 101.734 34.6426C103.625 34.6426 105.109 33.9726 106.186 32.6328C107.264 31.2929 107.801 29.3021 107.797 26.6605H107.8Z" fill="white"/>
<path d="M132.154 37.0917H128.6V25.2018C128.603 24.2982 128.546 23.3954 128.429 22.4993C128.363 21.8064 128.149 21.1354 127.803 20.5303C127.483 20.0046 127.001 19.5952 126.429 19.3632C125.694 19.0832 124.909 18.9534 124.123 18.9814C123.069 19.0002 122.032 19.2419 121.08 19.6904C119.999 20.1775 118.979 20.7859 118.038 21.5039V37.0917H114.498V16.2107H118.051V18.5287C119.088 17.6628 120.243 16.9458 121.481 16.3989C122.631 15.8952 123.874 15.6343 125.131 15.6326C127.413 15.6326 129.153 16.3116 130.353 17.6697C131.554 19.0277 132.152 20.9839 132.148 23.5383L132.154 37.0917Z" fill="white"/>
<path d="M154.067 34.719C154.067 38.2587 153.254 40.8576 151.629 42.5156C150.004 44.1736 147.502 45.0018 144.123 44.9999C143.026 45.0013 141.93 44.9229 140.844 44.7654C139.782 44.6105 138.731 44.3891 137.697 44.1027V40.514H137.887C138.788 40.8376 139.705 41.1152 140.635 41.3457C141.869 41.6727 143.14 41.8395 144.417 41.842C145.437 41.8705 146.454 41.7247 147.424 41.4111C148.105 41.1936 148.719 40.8084 149.21 40.2915C149.7 39.7745 150.05 39.1427 150.227 38.455C150.422 37.7043 150.514 36.9312 150.502 36.1561V34.2472C149.567 35.0154 148.534 35.6573 147.429 36.1561C146.453 36.5743 145.208 36.7834 143.694 36.7834C141.173 36.7834 139.172 35.8825 137.692 34.0809C136.211 32.2792 135.475 29.7376 135.482 26.4561C135.448 24.8771 135.707 23.3053 136.249 21.8201C136.724 20.5748 137.433 19.4302 138.338 18.4467C139.17 17.5467 140.189 16.8368 141.325 16.366C142.429 15.8877 143.619 15.6363 144.824 15.627C145.86 15.604 146.895 15.7271 147.897 15.9924C148.807 16.2711 149.685 16.6441 150.516 17.105L150.744 16.2078H154.072L154.067 34.719ZM150.513 31.3647V19.9684C149.667 19.5789 148.783 19.2756 147.875 19.063C147.077 18.8836 146.263 18.7921 145.445 18.7903C143.492 18.7903 141.955 19.4385 140.833 20.7347C139.712 22.031 139.151 23.9126 139.151 26.3797C139.151 28.7231 139.567 30.4993 140.399 31.7083C141.231 32.9173 142.611 33.5218 144.538 33.5218C145.602 33.5159 146.656 33.3162 147.647 32.9328C148.674 32.5513 149.64 32.0231 150.513 31.3647Z" fill="white"/>
<path d="M177 26.6605C177 30.0621 176.118 32.7482 174.353 34.7189C172.589 36.6897 170.226 37.6741 167.265 37.6723C164.278 37.6723 161.906 36.6879 160.146 34.7189C158.387 32.75 157.508 30.0639 157.508 26.6605C157.508 23.259 158.387 20.5701 160.146 18.5939C161.906 16.6177 164.278 15.6296 167.265 15.6296C170.226 15.6296 172.589 16.6177 174.353 18.5939C176.118 20.5701 177 23.259 177 26.6605ZM173.334 26.6605C173.334 23.9571 172.798 21.9473 171.726 20.631C170.654 19.3148 169.167 18.6576 167.265 18.6594C165.337 18.6594 163.84 19.3166 162.774 20.631C161.708 21.9455 161.175 23.9553 161.177 26.6605C161.177 29.2785 161.713 31.2629 162.785 32.6137C163.857 33.9645 165.35 34.6408 167.265 34.6426C169.156 34.6426 170.64 33.9726 171.717 32.6328C172.795 31.2929 173.334 29.3021 173.334 26.6605Z" fill="white"/>
<path d="M67.6613 21.3702L56.6675 24.7981C56.9084 25.6132 57.306 26.3744 57.8383 27.0397C58.2717 27.5796 58.8216 28.0163 59.4476 28.3174C60.0736 28.6185 60.7596 28.7764 61.4553 28.7795C62.2018 28.7853 62.9443 28.6711 63.6541 28.4414C64.7018 28.1067 65.6763 27.5784 66.5262 26.8842C67.4277 26.157 68.0342 25.5344 68.3456 25.0162L68.4803 24.9753L69.3433 27.6833C68.6123 28.2977 67.841 28.8634 67.0346 29.3768C66.2056 29.8997 65.31 30.3106 64.3714 30.5985C61.896 31.3711 59.7531 31.3111 57.9428 30.4185C56.1325 29.5258 54.8398 27.8605 54.0647 25.4225C53.2952 23.01 53.3501 20.8875 54.2296 19.0549C55.1091 17.2223 56.6382 15.967 58.8168 15.2889C60.8323 14.6616 62.573 14.7589 64.0388 15.5806C65.5047 16.4024 66.5766 17.8832 67.2545 20.023L67.6613 21.3702ZM64.6105 20.2303C64.1854 18.9304 63.5322 18.0213 62.6509 17.5032C61.7695 16.9851 60.661 16.9387 59.3253 17.3641C57.9803 17.7841 57.0349 18.5113 56.4889 19.5458C55.9416 20.5747 55.7921 21.7666 56.0683 22.8973L64.6105 20.2303Z" fill="white"/>
<path d="M62.5794 32.4721L62.332 32.543C61.8144 32.9242 61.2758 33.2766 60.7187 33.5984C60.0176 34.0451 59.2521 34.3835 58.4485 34.6019C57.547 34.8174 57.5222 34.7901 56.7994 34.6701C56.1187 34.547 55.5003 34.1979 55.0459 33.6802C54.4518 33.1 53.9922 32.3983 53.6991 31.624C53.3987 30.8386 53.0404 29.7314 52.6245 28.3025L49.0048 15.8999L58.5666 13.1728L57.4425 9.32227L47.8807 12.0493L43.2496 13.3665L38.2391 14.82L39.3632 18.6706L44.3737 17.2171L48.5953 31.6895C48.8755 32.6867 49.2434 33.6576 49.6947 34.591C48.9409 35.1053 48.3329 35.8033 47.9292 36.6178C47.5255 37.4323 47.3396 38.3361 47.3893 39.2425C47.439 40.1488 47.7226 41.0273 48.213 41.7936C48.7034 42.5599 49.384 43.1882 50.1896 43.6184C50.9952 44.0485 51.8987 44.266 52.8133 44.2499C53.728 44.2338 54.6232 43.9848 55.4129 43.5266C56.2027 43.0685 56.8605 42.4166 57.3232 41.6336C57.786 40.8506 58.0381 39.9627 58.0554 39.0552L58.4045 38.9625C59.3213 38.691 60.2177 38.3556 61.087 37.9589C62.0066 37.5555 62.9022 37.1002 63.7695 36.5954L62.5794 32.4721ZM52.7179 41.0023C52.3128 41.0007 51.9172 40.88 51.5811 40.6555C51.245 40.431 50.9835 40.1127 50.8296 39.7408C50.6756 39.3689 50.6362 38.9602 50.7163 38.5661C50.7963 38.172 50.9922 37.8102 51.2793 37.5266C51.5664 37.2429 51.9317 37.0499 52.3292 36.9721C52.7267 36.8942 53.1385 36.935 53.5127 37.0892C53.8869 37.2434 54.2066 37.5042 54.4316 37.8386C54.6565 38.1729 54.7765 38.5659 54.7765 38.9679C54.7744 39.5082 54.5565 40.0257 54.1707 40.407C53.7849 40.7882 53.2625 41.0023 52.7179 41.0023Z" fill="white"/>
<path d="M42.8401 12.4664L41.3559 7.36681C40.6798 5.43061 39.7893 5.05155 39.4952 4.91247C38.6157 4.54432 36.8292 4.43524 33.2562 6.04965L31.2856 1.79273C35.4742 -0.116195 38.7724 -0.4898 41.3696 0.620106C43.4502 1.50912 44.9591 3.28715 45.8579 5.90784L45.8991 6.00329L47.3915 11.1847L42.8401 12.4664Z" fill="white"/>
<path d="M19.0193 39.1533H14.3304L5.85969 30.0013L3.55374 32.183V39.156H0V10.0667H3.55374V28.7223L13.8192 18.275H18.2992L8.48721 27.9206L19.0193 39.1533Z" fill="white"/>
<path d="M38 29.0768H22.4411C22.4161 30.2219 22.6149 31.3609 23.0265 32.431C23.3628 33.3001 23.8915 34.0831 24.5737 34.7222C25.2559 35.3612 26.074 35.8401 26.9678 36.1234C27.9333 36.4335 28.9433 36.5855 29.9581 36.5734C31.4417 36.5641 32.9103 36.2773 34.2869 35.728C35.7417 35.1608 36.7779 34.6027 37.3954 34.0536H37.585V37.8824C36.392 38.3793 35.1672 38.7974 33.9186 39.1341C32.636 39.475 31.3133 39.6447 29.9855 39.6386C26.4859 39.6386 23.7512 38.6987 21.7814 36.8188C19.8117 34.939 18.8287 32.2756 18.8323 28.8286C18.8323 25.4143 19.7741 22.7037 21.6578 20.6966C23.5414 18.6895 26.0214 17.6895 29.0978 17.6968C31.9452 17.6968 34.1439 18.5149 35.6941 20.1512C37.2442 21.7874 38.0165 24.1245 38.011 27.1624L38 29.0768ZM34.5397 26.3852C34.5269 24.5417 34.0578 23.1145 33.1325 22.1037C32.2072 21.0929 30.7991 20.5884 28.9082 20.5902C27.0044 20.5902 25.4891 21.1447 24.3622 22.2537C23.2364 23.3533 22.5526 24.8219 22.4383 26.3852H34.5397Z" fill="white"/>
</svg>
