<svg width="123" height="24" viewBox="0 0 123 24" fill="none" xmlns="http://www.w3.org/2000/svg">
<path d="M119.792 11.2936C119.792 10.0671 118.943 9.12356 117.779 9.12356C116.584 9.12356 115.735 10.0356 115.735 11.2936C115.735 12.5516 116.584 13.4636 117.779 13.4636C118.975 13.4322 119.792 12.5201 119.792 11.2936ZM112.559 11.2936C112.559 8.46311 114.76 6.35598 117.779 6.35598C120.799 6.35598 123 8.46311 123 11.2936C123 14.1241 120.799 16.2312 117.779 16.2312C114.76 16.2312 112.559 14.1241 112.559 11.2936ZM106.206 12.8032C105.074 12.8032 104.225 11.954 104.225 10.759C104.225 9.56386 105.042 8.74617 106.206 8.74617C107.37 8.74617 108.187 9.59531 108.187 10.7904C108.219 11.954 107.37 12.8032 106.206 12.8032ZM110.074 6.51323H109.225C108.659 6.51323 108.376 6.82772 108.376 7.36237V7.39382C107.621 6.76483 106.646 6.35598 105.514 6.35598C102.998 6.35598 101.08 8.24297 101.08 10.759C101.08 13.3064 102.998 15.1934 105.514 15.1934C106.458 15.1934 107.338 14.9103 108.03 14.4386V15.3821C108.03 16.64 106.898 17.1747 105.734 17.1747C104.539 17.1747 103.533 16.6086 103.03 16.1369C102.558 15.7595 102.212 15.8538 101.897 16.1683L101.363 16.7973C100.985 17.2376 101.111 17.615 101.394 17.9295C102.306 18.8415 103.69 19.5334 105.671 19.5334C108.659 19.5334 110.955 17.9924 110.955 14.7845V7.36237C110.955 6.82772 110.609 6.51323 110.074 6.51323ZM99.4757 10.4445V15.099C99.4757 15.6337 99.1612 15.9482 98.6266 15.9482H97.0855C96.5194 15.9482 96.2364 15.6337 96.2364 15.099V10.6646C96.2364 9.75255 95.7017 9.09211 94.7268 9.09211C93.8462 9.09211 93.2172 9.7211 93.2172 10.6646V15.099C93.2172 15.6337 92.9027 15.9482 92.3681 15.9482H90.827C90.2924 15.9482 89.9779 15.6337 89.9779 15.099V9.46951C89.9779 9.31226 89.915 9.21791 89.7892 9.21791C89.6005 9.21791 89.3803 9.37516 89.1602 9.37516C89.0029 9.40661 88.7828 9.31226 88.6884 8.84051L88.4368 7.61397C88.311 7.11078 88.4054 6.89063 88.8142 6.67048C89.2231 6.45033 89.7892 6.35598 90.2295 6.35598C91.2673 6.35598 92.3052 6.79628 92.6197 7.95992C93.2172 7.01643 94.1607 6.35598 95.6074 6.35598C97.9032 6.35598 99.4757 8.02282 99.4757 10.4445ZM82.367 13.4322C81.1719 13.4322 80.3228 12.5201 80.3228 11.2621C80.3228 10.0042 81.1719 9.09211 82.367 9.09211C83.5621 9.09211 84.3798 10.0042 84.3798 11.2621C84.3798 12.5201 83.5621 13.4322 82.367 13.4322ZM82.367 16.1998C85.4177 16.1998 87.5877 14.0926 87.5877 11.2621C87.5877 8.43167 85.3862 6.32453 82.367 6.32453C79.3164 6.32453 77.1464 8.43167 77.1464 11.2621C77.1464 14.1241 79.3479 16.1998 82.367 16.1998ZM72.8692 11.2936C72.8692 10.0671 72.0515 9.12356 70.8564 9.12356C69.7242 9.12356 68.8436 9.9727 68.8436 11.2936C68.8436 12.6145 69.7242 13.4636 70.8564 13.4636C72.0201 13.4322 72.8692 12.4887 72.8692 11.2936ZM76.0456 11.2936C76.0456 14.0612 74.0643 16.2312 71.3596 16.2312C70.4476 16.2312 69.6613 15.9796 68.9694 15.5708V18.7157C68.9694 19.2504 68.6549 19.5649 68.1203 19.5649H66.5793C66.0446 19.5649 65.7301 19.2504 65.7301 18.7157V7.42527C65.7301 6.89063 66.0446 6.57613 66.5793 6.57613H67.4913C68.026 6.57613 68.3405 6.89063 68.3405 7.42527V7.55107C69.1581 6.85918 70.1645 6.41888 71.3596 6.41888C74.0643 6.35598 76.0456 8.49456 76.0456 11.2936ZM59.1886 8.58892C59.7232 8.58892 60.1635 8.77761 60.5095 9.12356C60.7611 9.37516 60.9498 9.75255 61.0441 10.2243H57.3959C57.4903 9.18646 58.1822 8.58892 59.1886 8.58892ZM57.333 11.9855H63.3085C64.0004 11.9855 64.1576 11.7339 64.1576 11.0734C64.1576 9.78401 63.6544 8.55746 62.7738 7.67687C61.9561 6.85917 60.7296 6.35598 59.22 6.35598C56.2637 6.35598 54.1881 8.43167 54.1881 11.2621C54.1881 14.187 56.3895 16.1998 59.3773 16.1998C60.8554 16.1998 62.5537 15.6966 63.4028 14.816C63.623 14.5644 63.7802 14.2499 63.3714 13.8725L62.7424 13.212C62.3964 12.8346 62.1134 12.9604 61.7674 13.2435C61.107 13.7152 60.4466 13.9039 59.7547 13.9039C58.5281 13.9039 57.4903 13.2435 57.333 11.9855ZM53.3075 15.5708C52.7414 15.9796 51.8608 16.2312 50.9173 16.2312C49.0303 16.2312 47.2377 15.1619 47.2377 12.583V8.87197H46.42C45.8539 8.87197 45.5708 8.55746 45.5708 8.02282V7.39382C45.5708 6.82773 45.8853 6.54468 46.42 6.54468H47.2377V4.37465C47.2377 3.84 47.5522 3.61986 48.0868 3.52551L49.5964 3.27391C50.1625 3.14811 50.4455 3.55695 50.4455 4.12305V6.57613H52.3011C52.8357 6.57613 53.1502 6.89063 53.1502 7.42527V8.05427C53.1502 8.58892 52.8357 8.90342 52.3011 8.90342H50.4455V12.2685C50.4455 13.1806 50.9173 13.4951 51.4834 13.4951C51.7664 13.4951 52.0495 13.3693 52.2382 13.2435C52.7099 12.929 52.9301 13.1806 53.0873 13.5265L53.622 14.7531C53.8736 15.1305 53.5591 15.3821 53.3075 15.5708ZM40.1615 8.58892C40.6961 8.58892 41.1364 8.77761 41.4824 9.12356C41.734 9.37516 41.9227 9.75255 42.017 10.2243H38.3688C38.4946 9.18646 39.1865 8.58892 40.1615 8.58892ZM38.3374 11.9855H44.3128C45.0047 11.9855 45.162 11.7339 45.162 11.0734C45.162 9.78401 44.6588 8.55746 43.7782 7.67687C42.9605 6.85917 41.734 6.35598 40.2244 6.35598C37.2681 6.35598 35.1924 8.43167 35.1924 11.2621C35.1924 14.187 37.3939 16.1998 40.3816 16.1998C41.8598 16.1998 43.558 15.6966 44.4072 14.816C44.6273 14.5644 44.7846 14.2499 44.3757 13.8725L43.7467 13.212C43.4008 12.8346 43.1177 12.9604 42.7718 13.2435C42.1114 13.7152 41.4509 13.9039 40.759 13.9039C39.5325 13.9039 38.4946 13.2435 38.3374 11.9855ZM34.2804 15.9796H32.2361C31.67 15.9796 31.3241 15.6651 30.9467 15.1305L29.1541 12.4572L28.5565 13.1491V15.099C28.5565 15.6337 28.242 15.9482 27.7074 15.9482H26.1978C25.6631 15.9482 25.3486 15.6337 25.3486 15.099V3.74565C25.3486 3.21101 25.6631 2.99086 26.1978 2.89651L27.7074 2.61346C28.2735 2.48766 28.588 2.92796 28.588 3.4626V10.3187L30.9467 7.33093C31.3555 6.82773 31.67 6.48178 32.2361 6.48178H34.1546C34.6892 6.48178 35.0352 6.82773 34.5949 7.33093L31.6386 10.8218L34.7521 15.0676C35.1924 15.6337 34.815 15.9796 34.2804 15.9796Z" fill="#381A56"/>
<path d="M3.99412 0.00314964C3.99412 0.00314964 0 -0.248446 0 3.74567V20.0995C0 20.0995 8.99785e-07 24.0937 3.86832 23.1187L14.5612 20.3826C14.5612 20.3826 18.4296 19.3762 18.4296 15.3821V4.94077C18.4296 4.94077 18.4296 0.946644 14.4354 0.663596L3.99412 0.00314964Z" fill="#857AB0"/>
<path d="M16.3538 13.1491C16.2594 13.0548 16.1336 12.9604 16.0078 12.8975C15.0014 12.2056 14.0265 11.4823 13.0201 10.7904C12.8629 10.6646 12.6742 10.6017 12.5798 10.3815C12.6113 10.2557 12.6427 10.1299 12.6742 10.0041C12.9887 8.8405 13.3032 7.70831 13.6177 6.54467C13.6806 6.32452 13.712 6.10437 13.712 5.91567C13.712 5.69553 13.5233 5.56972 13.3032 5.56972C13.2088 5.56972 13.1145 5.60117 13.0516 5.63262C12.5798 5.82132 12.1081 6.01002 11.6363 6.19872C11.3533 6.32452 11.1331 6.51322 11.0388 6.79626C10.9444 7.07931 10.8501 7.36236 10.7872 7.61396C10.5356 8.62035 10.284 9.62674 10.0009 10.6017C9.96949 10.696 9.90659 10.7904 9.84369 10.9162C9.74934 10.6646 9.65499 10.4759 9.59209 10.3186C8.96309 8.6518 8.3341 6.95351 7.7051 5.28667C7.61075 5.00363 7.48495 4.72058 7.3906 4.43753C7.13901 3.77709 6.69871 3.58839 6.06972 3.96578C4.90608 4.65768 3.71098 5.31812 2.51589 5.97857C2.42154 6.04147 2.3272 6.07292 2.23285 6.16727C1.98125 6.38742 1.91835 6.60756 2.1385 6.89061C2.39009 7.20511 2.6417 7.48816 2.89329 7.80266C2.92474 7.83411 2.95619 7.86555 3.01909 7.897C3.17634 8.0228 3.33359 8.05426 3.52229 7.95991C3.80534 7.80266 4.05693 7.64541 4.33998 7.48816C4.52868 7.36236 4.74883 7.26801 4.96897 7.14221C5.03187 7.26801 5.09478 7.39381 5.15768 7.48816C5.37782 8.02281 5.56652 8.526 5.78667 9.06065C6.54146 10.9791 7.29626 12.8975 8.05105 14.8474C8.11395 15.0047 8.11395 15.1619 8.30265 15.2562C8.42845 15.1619 8.55425 15.099 8.68005 15.0361C9.59209 14.5329 10.6299 14.8474 11.0702 15.7909C11.1331 15.9481 11.1646 16.1054 11.2275 16.2626C11.2589 16.3255 11.2275 16.4199 11.3533 16.4199C11.3847 16.3884 11.4476 16.357 11.4791 16.3255C11.6678 16.0739 11.6678 15.7909 11.542 15.5078C11.3533 15.0047 11.1646 14.5329 10.9759 14.0297C10.9444 13.9039 10.8815 13.7781 10.8815 13.6523C10.9444 13.4007 10.9759 13.1177 11.1646 12.8975C11.3218 12.9919 11.4162 13.0548 11.542 13.1491C12.1081 13.558 12.6427 13.9668 13.2088 14.3757C13.3661 14.47 13.4919 14.5958 13.6491 14.6902C13.9951 14.9103 14.3725 14.9418 14.7184 14.7216C15.1587 14.5015 15.599 14.2499 16.0078 14.0297C16.1336 13.9668 16.228 13.9039 16.3223 13.8096C16.5739 13.5894 16.5739 13.3378 16.3538 13.1491Z" fill="white"/>
<path d="M10.0012 17.898C10.41 17.615 10.5987 17.2376 10.6302 16.6715C10.6302 16.5142 10.5673 16.3255 10.4729 16.1368C10.1899 15.5393 9.49799 15.382 8.93189 15.6965C8.30289 16.0425 8.0513 16.9231 8.39724 17.5521C8.74319 18.0867 9.46654 18.2754 10.0012 17.898Z" fill="white"/>
<path d="M9.1208 19.4705C8.7434 19.4705 8.39746 19.3761 8.02006 19.1874C6.16452 17.9923 7.10802 15.8223 7.10802 15.8223C7.13947 15.728 7.26527 15.6651 7.35962 15.728C7.45397 15.7594 7.51687 15.8852 7.45397 15.9796C7.42252 16.0425 6.63627 17.8351 8.20876 18.8415C9.27805 19.4076 10.4731 18.9044 11.165 17.6149C11.2279 17.5206 11.3537 17.4891 11.4481 17.5206C11.5424 17.5835 11.5739 17.7093 11.5424 17.8036C10.9763 18.8729 10.0643 19.4705 9.1208 19.4705Z" fill="white"/>
</svg>
