<svg width="400" height="640" viewBox="0 0 400 640" fill="none" xmlns="http://www.w3.org/2000/svg">
<g clip-path="url(#clip0)">
<rect width="400" height="640" fill="white"/>
<path d="M279.384 78.5C284.184 81.7 345.384 117.5 375.384 135H416.5V66.5V0H375.384H322.384C310.217 13.8333 283.884 44.1 275.884 54.5C265.884 67.5 273.384 74.5 279.384 78.5Z" fill="#8CCACB" fill-opacity="0.1"/>
<path d="M88.5 84C81.3 80.8 32.1667 57.3333 8.5 46H-8.5V118V186L8 193.5C31.8333 200 83.4 214.2 99 219C118.5 225 118 214 118 203.5C118 193 112.5 141.5 112 118C111.5 94.5 97.5 88 88.5 84Z" fill="#F1CC53" fill-opacity="0.1"/>
<path d="M416 640.376V583C394.167 572 306.653 526.276 294.253 519.876C278.753 511.876 273.253 522.376 269.753 529.376C266.253 536.376 232.254 617.376 227.754 626.876C224.154 634.476 226.92 639.043 228.754 640.376H416Z" fill="#D58668" fill-opacity="0.1"/>
<path d="M30 571C26.4 570.2 17.8333 567.667 14 566.5L-8 559.5V500.5V434H14C34.5 442.5 36.5 454 38 461.5C39.5 469 43.5 541.5 45.5 557C47.5 572.5 34.5 572 30 571Z" fill="#E4B7B6" fill-opacity="0.1"/>
</g>
<defs>
<clipPath id="clip0">
<rect width="400" height="640" fill="white"/>
</clipPath>
</defs>
</svg>
