<svg width="242" height="53" viewBox="0 0 242 53" fill="none" xmlns="http://www.w3.org/2000/svg">
<g filter="url(#filter0_d)">
<path d="M231.897 25.4853C231.897 23.1519 230.282 21.3569 228.068 21.3569C225.795 21.3569 224.179 23.092 224.179 25.4853C224.179 27.8785 225.795 29.6136 228.068 29.6136C230.342 29.5538 231.897 27.8187 231.897 25.4853ZM218.136 25.4853C218.136 20.1005 222.324 16.0918 228.068 16.0918C233.812 16.0918 238 20.1005 238 25.4853C238 30.8701 233.812 34.8788 228.068 34.8788C222.324 34.8788 218.136 30.8701 218.136 25.4853ZM206.05 28.3572C203.896 28.3572 202.281 26.7417 202.281 24.4682C202.281 22.1946 203.836 20.639 206.05 20.639C208.264 20.639 209.82 22.2544 209.82 24.528C209.879 26.7417 208.264 28.3572 206.05 28.3572ZM213.409 16.3909H211.794C210.717 16.3909 210.179 16.9893 210.179 18.0064V18.0662C208.743 16.8696 206.888 16.0918 204.734 16.0918C199.947 16.0918 196.298 19.6817 196.298 24.4682C196.298 29.3145 199.947 32.9044 204.734 32.9044C206.529 32.9044 208.204 32.3659 209.52 31.4684V33.2633C209.52 35.6566 207.366 36.6737 205.153 36.6737C202.879 36.6737 200.965 35.5968 200.007 34.6993C199.11 33.9813 198.452 34.1608 197.853 34.7591L196.836 35.9557C196.118 36.7934 196.358 37.5114 196.896 38.1097C198.631 39.8448 201.264 41.1611 205.033 41.1611C210.717 41.1611 215.085 38.2293 215.085 32.1265V18.0064C215.085 16.9893 214.427 16.3909 213.409 16.3909ZM193.246 23.8698V32.7249C193.246 33.742 192.648 34.3403 191.631 34.3403H188.699C187.622 34.3403 187.084 33.742 187.084 32.7249V24.2887C187.084 22.5535 186.067 21.2971 184.212 21.2971C182.537 21.2971 181.34 22.4937 181.34 24.2887V32.7249C181.34 33.742 180.742 34.3403 179.724 34.3403H176.793C175.776 34.3403 175.177 33.742 175.177 32.7249V22.0151C175.177 21.7159 175.058 21.5364 174.818 21.5364C174.459 21.5364 174.041 21.8356 173.622 21.8356C173.323 21.8954 172.904 21.7159 172.724 20.8185L172.246 18.485C172.006 17.5277 172.186 17.1089 172.964 16.6901C173.741 16.2713 174.818 16.0918 175.656 16.0918C177.63 16.0918 179.605 16.9294 180.203 19.1432C181.34 17.3483 183.135 16.0918 185.887 16.0918C190.255 16.0918 193.246 19.2628 193.246 23.8698ZM160.698 29.5538C158.425 29.5538 156.809 27.8187 156.809 25.4255C156.809 23.0322 158.425 21.2971 160.698 21.2971C162.972 21.2971 164.527 23.0322 164.527 25.4255C164.527 27.8187 162.972 29.5538 160.698 29.5538ZM160.698 34.8189C166.502 34.8189 170.63 30.8103 170.63 25.4255C170.63 20.0407 166.442 16.032 160.698 16.032C154.895 16.032 150.766 20.0407 150.766 25.4255C150.766 30.8701 154.954 34.8189 160.698 34.8189ZM142.629 25.4853C142.629 23.1519 141.074 21.3569 138.8 21.3569C136.646 21.3569 134.971 22.9724 134.971 25.4853C134.971 27.9982 136.646 29.6136 138.8 29.6136C141.014 29.5538 142.629 27.7589 142.629 25.4853ZM148.672 25.4853C148.672 30.7504 144.903 34.8788 139.757 34.8788C138.022 34.8788 136.526 34.4001 135.21 33.6223V39.6054C135.21 40.6226 134.612 41.2209 133.595 41.2209H130.663C129.646 41.2209 129.047 40.6226 129.047 39.6054V18.126C129.047 17.1089 129.646 16.5106 130.663 16.5106H132.398C133.415 16.5106 134.013 17.1089 134.013 18.126V18.3654C135.569 17.0491 137.484 16.2114 139.757 16.2114C144.903 16.0918 148.672 20.1603 148.672 25.4853ZM116.603 20.3398C117.62 20.3398 118.457 20.6988 119.116 21.3569C119.594 21.8356 119.953 22.5536 120.133 23.451H113.192C113.372 21.4766 114.688 20.3398 116.603 20.3398ZM113.073 26.8016H124.44C125.757 26.8016 126.056 26.3229 126.056 25.0665C126.056 22.6134 125.099 20.28 123.423 18.6047C121.868 17.0491 119.534 16.0918 116.662 16.0918C111.038 16.0918 107.089 20.0407 107.089 25.4255C107.089 30.9898 111.278 34.8189 116.962 34.8189C119.774 34.8189 123.005 33.8617 124.62 32.1864C125.039 31.7077 125.338 31.1094 124.56 30.3914L123.364 29.135C122.705 28.417 122.167 28.6563 121.509 29.1948C120.252 30.0923 118.996 30.4513 117.68 30.4513C115.346 30.4513 113.372 29.1948 113.073 26.8016ZM105.414 33.6223C104.337 34.4001 102.662 34.8788 100.867 34.8788C97.2771 34.8788 93.8668 32.8445 93.8668 27.9384V20.8783H92.3111C91.2342 20.8783 90.6957 20.28 90.6957 19.2628V18.0662C90.6957 16.9893 91.294 16.4508 92.3111 16.4508H93.8668V12.3224C93.8668 11.3053 94.4651 10.8865 95.4822 10.707L98.3541 10.2283C99.431 9.98901 99.9695 10.7668 99.9695 11.8438V16.5106H103.5C104.517 16.5106 105.115 17.1089 105.115 18.126V19.3227C105.115 20.3398 104.517 20.9381 103.5 20.9381H99.9695V27.34C99.9695 29.0752 100.867 29.6735 101.944 29.6735C102.482 29.6735 103.021 29.4341 103.38 29.1948C104.277 28.5965 104.696 29.0752 104.995 29.7333L106.012 32.0667C106.491 32.7847 105.893 33.2633 105.414 33.6223ZM80.4047 20.3398C81.4219 20.3398 82.2595 20.6988 82.9176 21.3569C83.3963 21.8356 83.7553 22.5536 83.9348 23.451H76.9944C77.2337 21.4766 78.55 20.3398 80.4047 20.3398ZM76.9345 26.8016H88.3024C89.6187 26.8016 89.9179 26.3229 89.9179 25.0665C89.9179 22.6134 88.9606 20.28 87.2853 18.6047C85.7297 17.0491 83.3963 16.0918 80.5244 16.0918C74.9003 16.0918 70.9514 20.0407 70.9514 25.4255C70.9514 30.9898 75.1396 34.8189 80.8235 34.8189C83.6356 34.8189 86.8665 33.8617 88.4819 32.1864C88.9008 31.7077 89.1999 31.1094 88.4221 30.3914L87.2255 29.135C86.5673 28.417 86.0289 28.6563 85.3707 29.1948C84.1143 30.0923 82.8578 30.4513 81.5415 30.4513C79.2081 30.4513 77.2337 29.1948 76.9345 26.8016ZM69.2163 34.4001H65.3273C64.2503 34.4001 63.5922 33.8018 62.8742 32.7847L59.4638 27.699L58.327 29.0153V32.7249C58.327 33.742 57.7287 34.3403 56.7116 34.3403H53.8397C52.8226 34.3403 52.2242 33.742 52.2242 32.7249V11.1258C52.2242 10.1087 52.8226 9.68986 53.8397 9.51036L56.7116 8.97188C57.7885 8.73255 58.3868 9.57019 58.3868 10.5873V23.6305L62.8742 17.9466C63.652 16.9893 64.2503 16.3311 65.3273 16.3311H68.977C69.9941 16.3311 70.6522 16.9893 69.8146 17.9466L64.1905 24.5878L70.1138 32.665C70.9514 33.742 70.2334 34.4001 69.2163 34.4001Z" fill="white"/>
</g>
<g filter="url(#filter1_d)">
<path d="M11.5986 4.00599C11.5986 4.00599 4 3.52735 4 11.1259V42.2381C4 42.2381 4 49.8367 11.3592 47.9819L31.7018 42.7766C31.7018 42.7766 39.0611 40.862 39.0611 33.2634V13.3995C39.0611 13.3995 39.0611 5.80093 31.4625 5.26245L11.5986 4.00599Z" fill="white"/>
</g>
<path d="M35.112 29.0154C34.9325 28.8359 34.6932 28.6564 34.4539 28.5367C32.5393 27.2204 30.6845 25.8443 28.7699 24.528C28.4707 24.2887 28.1118 24.169 27.9323 23.7502C27.9921 23.5109 28.0519 23.2716 28.1118 23.0322C28.7101 20.8185 29.3084 18.6646 29.9067 16.4508C30.0264 16.032 30.0862 15.6132 30.0862 15.2542C30.0862 14.8354 29.7272 14.596 29.3084 14.596C29.1289 14.596 28.9494 14.6559 28.8297 14.7157C27.9323 15.0747 27.0348 15.4337 26.1373 15.7927C25.5988 16.032 25.18 16.391 25.0005 16.9294C24.821 17.4679 24.6416 18.0064 24.5219 18.4851C24.0432 20.3997 23.5646 22.3143 23.0261 24.169C22.9663 24.3485 22.8466 24.528 22.727 24.7673C22.5475 24.2887 22.368 23.9297 22.2483 23.6305C21.0517 20.4595 19.855 17.2286 18.6584 14.0575C18.4789 13.5191 18.2396 12.9806 18.0601 12.4421C17.5815 11.1857 16.7438 10.8267 15.5472 11.5446C13.3335 12.8609 11.0599 14.1174 8.78628 15.3738C8.60678 15.4935 8.4273 15.5533 8.2478 15.7328C7.76915 16.1516 7.64949 16.5705 8.06831 17.1089C8.54696 17.7072 9.02561 18.2457 9.50426 18.8441C9.56409 18.9039 9.62392 18.9637 9.74358 19.0235C10.0427 19.2629 10.3419 19.3227 10.7009 19.1432C11.2394 18.8441 11.718 18.5449 12.2565 18.2457C12.6155 18.0064 13.0343 17.8269 13.4531 17.5876C13.5728 17.8269 13.6924 18.0662 13.8121 18.2457C14.2309 19.2629 14.5899 20.2202 15.0087 21.2373C16.4447 24.887 17.8806 28.5367 19.3166 32.2462C19.4362 32.5454 19.4362 32.8445 19.7952 33.024C20.0345 32.8445 20.2739 32.7249 20.5132 32.6052C22.2483 31.6479 24.2227 32.2462 25.0604 34.0412C25.18 34.3403 25.2399 34.6395 25.3595 34.9386C25.4194 35.0583 25.3595 35.2378 25.5988 35.2378C25.6587 35.178 25.7783 35.1181 25.8382 35.0583C26.1972 34.5796 26.1972 34.0412 25.9578 33.5027C25.5989 32.5454 25.2399 31.6479 24.8809 30.6906C24.821 30.4513 24.7014 30.212 24.7014 29.9726C24.821 29.494 24.8809 28.9555 25.2399 28.5367C25.539 28.7162 25.7185 28.8359 25.9578 29.0154C27.0348 29.7932 28.0519 30.571 29.1289 31.3488C29.428 31.5283 29.6674 31.7676 29.9665 31.9471C30.6247 32.3659 31.3426 32.4257 32.0008 32.0069C32.8384 31.5881 33.6761 31.1094 34.4539 30.6906C34.6932 30.571 34.8727 30.4513 35.0522 30.2718C35.5308 29.853 35.5308 29.3743 35.112 29.0154Z" fill="#8274AC"/>
<path d="M23.0267 38.0499C23.8045 37.5114 24.1635 36.7934 24.2233 35.7165C24.2233 35.4173 24.1037 35.0583 23.9242 34.6994C23.3857 33.5626 22.0694 33.2634 20.9924 33.8617C19.7958 34.5199 19.3172 36.1951 19.9753 37.3918C20.6335 38.4089 22.0096 38.7679 23.0267 38.0499Z" fill="#8274AC"/>
<path d="M21.3508 41.0414C20.6328 41.0414 19.9747 40.8619 19.2567 40.5029C15.7267 38.2293 17.5216 34.101 17.5216 34.101C17.5814 33.9215 17.8208 33.8018 18.0003 33.9215C18.1798 33.9813 18.2994 34.2206 18.1798 34.4001C18.1199 34.5198 16.6241 37.9301 19.6157 39.8447C21.65 40.9217 23.9235 39.9644 25.2398 37.5113C25.3595 37.3318 25.5988 37.272 25.7783 37.3318C25.9578 37.4515 26.0176 37.6908 25.9578 37.8703C24.8809 39.9046 23.1457 41.0414 21.3508 41.0414Z" fill="#8274AC"/>
<defs>
<filter id="filter0_d" x="48.2242" y="4.93066" width="193.776" height="40.2902" filterUnits="userSpaceOnUse" color-interpolation-filters="sRGB">
<feFlood flood-opacity="0" result="BackgroundImageFix"/>
<feColorMatrix in="SourceAlpha" type="matrix" values="0 0 0 0 0 0 0 0 0 0 0 0 0 0 0 0 0 0 127 0"/>
<feOffset/>
<feGaussianBlur stdDeviation="2"/>
<feColorMatrix type="matrix" values="0 0 0 0 0 0 0 0 0 0 0 0 0 0 0 0 0 0 0.3 0"/>
<feBlend mode="normal" in2="BackgroundImageFix" result="effect1_dropShadow"/>
<feBlend mode="normal" in="SourceGraphic" in2="effect1_dropShadow" result="shape"/>
</filter>
<filter id="filter1_d" x="0" y="0" width="43.0611" height="52.2736" filterUnits="userSpaceOnUse" color-interpolation-filters="sRGB">
<feFlood flood-opacity="0" result="BackgroundImageFix"/>
<feColorMatrix in="SourceAlpha" type="matrix" values="0 0 0 0 0 0 0 0 0 0 0 0 0 0 0 0 0 0 127 0"/>
<feOffset/>
<feGaussianBlur stdDeviation="2"/>
<feColorMatrix type="matrix" values="0 0 0 0 0 0 0 0 0 0 0 0 0 0 0 0 0 0 0.3 0"/>
<feBlend mode="normal" in2="BackgroundImageFix" result="effect1_dropShadow"/>
<feBlend mode="normal" in="SourceGraphic" in2="effect1_dropShadow" result="shape"/>
</filter>
</defs>
</svg>
